<?xml version="1.0" encoding="utf-8"?>
<!-- Generator: Adobe Illustrator 18.1.1, SVG Export Plug-In . SVG Version: 6.00 Build 0)  -->
<!DOCTYPE svg PUBLIC "-//W3C//DTD SVG 1.1//EN" "http://www.w3.org/Graphics/SVG/1.1/DTD/svg11.dtd">
<svg version="1.1" id="Layer_4" xmlns="http://www.w3.org/2000/svg" xmlns:xlink="http://www.w3.org/1999/xlink" x="0px" y="0px"
	 width="56.7px" height="56.7px" viewBox="0 0 56.7 56.7" enable-background="new 0 0 56.7 56.7" xml:space="preserve">
<path fill="#0018A8" d="M13.8,4C5.5,9,0,18,0,28.3c0,10.3,5.5,19.4,13.8,24.3V4z"/>
<path fill="#D0103A" d="M42.9,4v48.6c8.2-5,13.8-14,13.8-24.3C56.7,18,51.2,9,42.9,4z"/>
<path fill="#FEDF00" d="M42.9,4c-4.3-2.6-9.2-4-14.6-4h0C23,0,18,1.5,13.8,4v48.6c4.3,2.6,9.2,4,14.6,4s10.3-1.5,14.6-4V4z"/>
<g>
	<path fill="#C7B37F" d="M25.9,15.3c1,0,1.4,0.8,2.4,0.8c0.6,0,1-0.2,1.5-0.5c0.4-0.2,0.6-0.3,1-0.3c0.4,0,0.7,0.1,0.9,0.5
		c0.1,0.2,0.2,0.6,0.2,0.9c-0.1,0.4-0.2,0.6-0.3,1c-0.1,0.2-0.2,0.3-0.2,0.5c0,0.5,0.7,0.7,1.2,0.7c0.1,0,1,0,1.5-0.5
		c-0.3,0-0.6-0.2-0.6-0.5c0-0.3,0.2-0.6,0.5-0.7c0.1,0,0.2,0,0.2,0c0.1,0,0-0.1,0.1-0.2c0.2-0.1,0.3-0.2,0.5-0.2
		c0.1,0,0.2,0,0.3,0.1c0.1,0,0.1,0.1,0.1,0.1c0.1,0,0.2-0.1,0.4-0.1c0.1,0,0.2,0,0.3,0.1c0.1,0,0.1,0.2,0.2,0.2c0,0,0.3-0.1,0.4-0.1
		c0.3,0,0.4,0.1,0.6,0.3c0,0.1,0.1,0.2,0.1,0.2c0.1,0,0.3,0.1,0.5,0.2c0.1,0.1,0.1,0.1,0.1,0.2c0,0.1,0.1,0.2,0.1,0.2
		c0.1,0,0.1,0,0.2,0.1c0.2,0.1,0.4,0.4,0.4,0.6c0,0.1,0,0.2-0.1,0.3c-0.2,0.8-0.8,1.1-1.4,1.8c-0.2,0.3-0.4,0.5-0.4,0.9
		c0,0.1,0.1,0.3,0.2,0.3c0-0.2,0.1-0.4,0.2-0.4c0.3,0,0.5,0.2,0.5,0.5c0,0.1,0,0.2,0,0.2c0.1-0.1,0.3-0.2,0.5-0.2c0.1,0,0.1,0,0.2,0
		c0.4,0,0.9,0.2,1.2,0.5c0.9,0.7,1,1.8,0.9,2.1c-0.1,0.7,0,1.9-1.7,2.4c0.3,0.1,0.5,0.4,0.5,0.7c0,0.3-0.2,0.6-0.6,0.6
		c-0.2,0-0.3,0-0.4-0.2c-0.4,0.4-0.4,0.7-0.4,1.2c0,0.3,0.1,0.5,0.2,0.7c0.1,0.3,0.2,0.5,0.5,0.7c0.1-0.2,0.3-0.3,0.5-0.3
		c0.2,0,0.4,0.1,0.5,0.3c0,0.1,0,0.1,0,0.2c0,0.1,0.1,0.1,0.1,0.2c0.1,0.1,0,0.2,0.1,0.3c0,0.1,0.1,0.1,0.1,0.2
		c0.1,0.1,0.1,0.2,0.1,0.3c0,0.4-0.3,0.7-0.7,0.7c-0.1,0-0.2,0-0.3,0c0.2,0.2,0.4,0.3,0.5,0.6c0.2,0.4,0.3,0.6,0.4,1.1
		c0,0.1,0,0.1,0,0.2c0,0.6-0.1,0.9-0.3,1.4c-0.2,0.5-0.5,0.8-0.9,1.1c-0.7,0.5-1.2,0.6-2,0.8c-0.5,0.1-0.8,0.1-1.4,0.2
		c-0.7,0-1.1,0-1.8,0.1c-0.9,0.1-1.5,0.2-2.2,0.8c0.3,0.2,0.5,0.4,0.5,0.8c0,0.4-0.2,0.7-0.6,0.8c-0.1,0-0.1,0-0.2,0
		c-0.1,0.1-0.1,0.2-0.2,0.2C30.4,41,30.3,41,30.1,41c-0.3,0-0.6-0.1-0.8-0.3c-0.3,0.2-0.4,0.4-0.7,0.6c-0.1,0.1-0.2,0.1-0.3,0.1
		c-0.2,0-0.3-0.1-0.4-0.2c-0.2-0.2-0.4-0.3-0.6-0.5c-0.3,0.2-0.5,0.3-0.8,0.3c-0.2,0-0.3,0-0.5-0.1c-0.1-0.1-0.1-0.1-0.2-0.2
		c-0.1-0.1-0.2,0-0.3-0.1c-0.4-0.2-0.6-0.4-0.6-0.9c0-0.4,0.2-0.6,0.6-0.7c-0.6-0.6-1.3-0.7-2.2-0.8c-0.7,0-1.1,0-1.8-0.1
		c-0.5,0-0.9-0.1-1.4-0.2c-0.4-0.1-0.7-0.1-1-0.3c-1.3-0.6-2.1-1.4-2.3-2.9c0-0.1,0-0.2,0-0.3c0-0.7,0.3-1.2,0.8-1.7
		c-0.1,0-0.2,0-0.4,0c-0.3-0.1-0.6-0.3-0.6-0.7c0-0.1,0-0.2,0.1-0.3c0-0.1,0.1-0.1,0.1-0.2c0-0.1,0-0.2,0-0.3c0-0.1,0.1-0.1,0.1-0.2
		c0.1-0.2,0.3-0.4,0.5-0.4c0.2,0,0.4,0.1,0.5,0.3c0.2-0.1,0.3-0.3,0.4-0.5c0.2-0.3,0.3-0.6,0.3-1c0-0.3,0-0.4-0.1-0.7
		c-0.1-0.2-0.1-0.3-0.2-0.5c-0.1,0.1-0.3,0.2-0.4,0.2c-0.4,0-0.6-0.3-0.6-0.7c0-0.3,0.1-0.5,0.4-0.6c-0.2-0.2-0.4-0.2-0.6-0.3
		c-0.3-0.2-0.4-0.4-0.7-0.8c-0.1-0.2-0.2-0.4-0.3-0.6c-0.1-0.3-0.1-0.5-0.1-0.8c0-0.1,0-0.1,0-0.2c0.1-0.6,0.2-1,0.6-1.5
		c0.2-0.3,0.4-0.5,0.7-0.6c0.3-0.1,0.5-0.2,0.8-0.2c0.1,0,0.2,0,0.2,0c0.1,0,0.2,0,0.4,0.1c0,0,0.1,0.1,0.1,0.1c0-0.1,0-0.1,0-0.2
		c0-0.3,0.2-0.5,0.5-0.5c0.2,0,0.3,0.2,0.4,0.3c0.1-0.1,0.1-0.2,0.1-0.3c0-0.4-0.2-0.7-0.5-1c-0.6-0.7-1.3-1.1-1.3-2
		c0-0.3,0.1-0.5,0.4-0.6c0.1,0,0.2,0,0.2,0c0.1,0,0.1-0.1,0.1-0.2c0.1-0.1,0.1-0.1,0.2-0.2c0.1-0.1,0.3-0.1,0.4-0.2
		c0.1-0.1,0.1-0.1,0.1-0.2c0.2-0.2,0.3-0.3,0.6-0.3c0.1,0,0.2,0,0.3,0c0,0,0.1,0.1,0.1,0.1c0,0,0.1-0.1,0.2-0.1
		c0.1-0.1,0.2-0.1,0.3-0.1c0.1,0,0.2,0.1,0.4,0.1c0.1,0,0.1-0.1,0.1-0.1c0.1-0.1,0.2-0.1,0.3-0.1c0.1,0,0.2,0,0.3,0.1
		c0.1,0.1,0.1,0.2,0.3,0.2c0.1,0,0.1,0,0.2,0c0.3,0.1,0.6,0.3,0.6,0.7c0,0.2,0,0.3-0.2,0.4c-0.1,0.1-0.2,0.1-0.4,0.1
		c0.5,0.4,0.9,0.5,1.4,0.5c0.5,0,1.2-0.2,1.2-0.7c0-0.2-0.1-0.4-0.2-0.6c-0.2-0.4-0.3-0.6-0.3-1.1c0-0.3,0-0.6,0.2-0.8
		C25.3,15.3,25.5,15.3,25.9,15.3L25.9,15.3z"/>
	<path fill="none" stroke="#703D29" stroke-width="8.431269e-02" stroke-linejoin="round" d="M22.3,18.1c0,0.1,0.1,0.3,0.3,0.3
		c0.1,0,0.3,0,0.5-0.2c0.1-0.2,0.1-0.4,0.1-0.5c0-0.1-0.1-0.2-0.2-0.3L22.3,18.1L22.3,18.1L22.3,18.1z"/>
	<path fill="none" stroke="#703D29" stroke-width="8.398872e-02" stroke-linecap="round" d="M38.6,27.9c-0.2-0.4-0.5-0.2-0.6,0
		c-0.1,0.5,0.4,0.6,0.6,0.5c0.1,0,0.2-0.1,0.3-0.2c0.1-0.1,0.1-0.3,0-0.5c0-0.1-0.1-0.1-0.1-0.2c-0.1-0.1-0.1-0.1-0.2-0.2
		c-0.1-0.1-0.2-0.1-0.4-0.1c-0.7,0-1.3,0.8-1.5,1.7c-0.1,0.3-0.2,0.9,0,1.5c0.1,0.6,0.4,1.1,0.7,1.4c0.2,0.2,0.4,0.3,0.7,0.5
		c0.1,0.1,0.3,0.2,0.5,0.2c0.2,0.1,0.3,0,0.5,0c0.4-0.1,0.6-0.5,0.4-0.9c-0.2-0.3-0.7-0.5-0.9-0.1c0,0-0.1,0.1-0.1,0.2
		c0,0.1,0,0.2,0.1,0.3c0.2,0.1,0.5,0.1,0.5-0.2"/>
	<path fill="none" stroke="#703D29" stroke-width="0.1033" d="M36.4,32.6c0.1-0.2,0.5-0.4,0.8-0.5c0.4,0,0.7,0.1,1,0.2
		c0.7,0.4,1,0.7,1.3,1.4c0.1,0.2,0.1,0.4,0.1,0.7c0,0.5-0.1,1-0.3,1.2c-0.1,0.2-0.4,1.1-1.9,1.8c-0.9,0.4-2.3,0.5-3.2,0.5
		c-1.3,0.1-2.5,0.1-3.2,1"/>
	<path fill="none" stroke="#703D29" stroke-width="9.079206e-02" d="M36.7,34.1c0-0.1,0-0.3,0.1-0.4c0.1-0.2,0.5-0.3,0.7-0.1
		c0.1,0.1,0.2,0.1,0.3,0.3c0,0.1,0.1,0.1,0.1,0.2c0.1,0.1,0.1,0.3,0.1,0.3c0.3,0.9-0.2,1.8-0.8,2.2c-0.5,0.3-1.1,0.4-1.8,0.5
		c-0.3,0-0.5,0-0.8,0.1c-0.3,0-0.5,0-0.7,0c-0.2,0-0.3,0-0.5,0c-0.3,0-0.6,0-0.9,0c-0.4,0-0.6,0-1,0.1c-0.2,0-0.4,0.1-0.7,0.1
		c-0.1,0-0.2,0-0.2,0.1c-0.1,0-0.1,0-0.2,0c-0.5,0.1-0.9,0.3-1.2,0.5c-0.1,0.1-0.2,0.1-0.3,0.2c-0.1,0.1-0.1,0.1-0.2,0.2
		c-0.2,0.2-0.5,0.5-0.5,0.8c0,0.1,0,0.1,0,0.2c0,0.2,0.2,0.5,0.7,0.6"/>
	<path fill="none" stroke="#703D29" stroke-width="9.079206e-02" d="M29.7,18.6c0.1,0.2,0.2,0.3,0.1,0.5c-0.1,0.2-0.2,0.4-0.4,0.4
		c-0.5,0-0.8-0.6-0.6-1c0.4-0.7,1.2-0.3,1.9,0c0-0.2-0.1-0.2-0.1-0.4c0-0.5,0.4-0.8,0.6-1.3c0.1-0.3,0.1-0.5-0.1-0.8
		c-0.2-0.2-0.4-0.2-0.6-0.1c-0.5,0.2-1.1,0.7-2.1,0.8c-1,0-1.6-0.6-2.1-0.8c-0.2-0.1-0.5-0.1-0.6,0.1c-0.2,0.2-0.2,0.5-0.1,0.8
		c0.2,0.5,0.6,0.7,0.6,1.3c0,0.2-0.1,0.3-0.1,0.4c0.7-0.3,1.5-0.7,1.9,0c0.2,0.4-0.1,1-0.6,1c-0.2,0-0.4-0.1-0.4-0.4
		c-0.1-0.2,0-0.4,0.1-0.5"/>
	<path fill="none" stroke="#703D29" stroke-width="9.079206e-02" stroke-linecap="round" d="M27.7,18.2c0.2,0.1,0.3,0.3,0.3,0.6
		c0,0.3-0.1,0.4-0.4,0.6"/>
	<path fill="none" stroke="#703D29" stroke-width="9.079206e-02" stroke-linecap="round" d="M27.9,18.9c0,0.2-0.1,0.3-0.3,0.4"/>
	<path fill="#C7B37F" d="M22.9,17.4L22.9,17.4l0.2,0.2l0.1,0.1l0,0.1l0,0.1l0,0.1l0,0.1l-0.1,0.1L23,18.3l-0.1,0.1l-0.1,0l-0.1,0
		l-0.1-0.1l-0.1-0.1l-0.1-0.1L22.3,18V18L22.9,17.4L22.9,17.4z"/>
	<path fill="none" stroke="#703D29" stroke-width="8.431269e-02" stroke-linecap="round" d="M22.7,17.9c0-0.2-0.3-0.3-0.4-0.1
		c-0.1,0.2,0,0.5,0.3,0.6c0.1,0,0.3,0,0.5-0.2c0.1-0.2,0.1-0.4,0.1-0.5c0-0.1-0.1-0.2-0.2-0.3c-0.3-0.3-0.9-0.2-1.1,0.2
		c-0.2,0.6,0.3,1,0.7,1.3c0.6,0.4,1.3,0.5,1.8,0.5c1.2,0,2-0.6,2.6-0.9c0.1-0.1,0.3-0.1,0.3,0c0.1,0.1,0.1,0.2,0,0.3"/>
	<path fill="none" stroke="#703D29" stroke-width="8.560857e-02" d="M19.2,33.6L19,33.7l-0.3,0.2L18.6,34l-0.1,0.3l-0.1,0.2
		l-0.1,0.2l0,0.2"/>
	<path fill="none" stroke="#703D29" stroke-width="8.560857e-02" d="M20.7,33.6l0,0.2l0,0.2l-0.1,0.3l-0.2,0.2l-0.2,0.2l-0.1,0.1
		l-0.2,0"/>
	<path fill="none" stroke="#703D29" stroke-width="9.694745e-02" d="M28.3,39.6c0,0.2-0.2,0.4-0.7,0.5c0,0-0.1,0-0.1,0"/>
	<path fill="none" stroke="#703D29" stroke-width="0.1098" d="M39,32.9c0.3,0.3,0.5,0.6,0.6,1c0.1,0.2,0.1,0.4,0.1,0.7
		c0,0.5-0.1,1-0.3,1.2c-0.1,0.2-0.4,1.1-1.9,1.8c-0.9,0.4-2.3,0.5-3.2,0.5c-1.3,0.1-2.5,0.1-3.2,0.9"/>
	<path fill="none" stroke="#703D29" stroke-width="7.524159e-02" d="M36.9,33.8c0.1-0.1,0.4-0.3,0.7-0.1c0.1,0.1,0.2,0.1,0.3,0.3"/>
	<path fill="none" stroke="#703D29" stroke-width="0.1098" d="M38.7,32.6c0.1,0,0.1,0,0.2,0.1c0.2,0.1,0.4,0.1,0.5,0
		c0.4-0.1,0.6-0.4,0.4-0.9c0-0.1-0.1-0.2-0.2-0.3"/>
	<path fill="none" stroke="#703D29" stroke-width="8.431269e-02" stroke-linecap="round" d="M18.3,23.3c-0.2,0.1-0.4,0.2-0.6,0.4
		c-0.2,0.4-0.3,0.6-0.3,0.9"/>
	<path fill="none" stroke="#703D29" stroke-width="8.431269e-02" stroke-linecap="round" d="M23.2,18c0,0.2-0.2,0.4-0.4,0.4"/>
	<path fill="none" stroke="#703D29" stroke-width="8.074904e-02" d="M38.1,22.3c0.6,0,2.3,0.5,2.3,2.5c0,2-1.2,2.3-1.7,2.5"/>
	<path fill="none" stroke="#703D29" stroke-width="8.398872e-02" d="M38.3,22.3c1,0,2.1,0.7,2.1,2.6c0,1.5-1,2.2-1.5,2.3"/>
	<path fill="none" stroke="#703D29" stroke-width="7.135397e-02" d="M37.7,29.4l0-0.2l0.1-0.3l0.1-0.3l0.1-0.2l0.1-0.2"/>
	<path fill="none" stroke="#703D29" stroke-width="7.135397e-02" d="M39.1,27.8l0,0.2L39,28.2l-0.1,0.1l-0.1,0.1l-0.2,0.1l-0.1,0
		l-0.1,0"/>
	<path fill="none" stroke="#703D29" stroke-width="7.135397e-02" d="M36.6,21.7l0-0.2l0.1-0.2l0.1-0.2l0.2-0.3l0.2-0.2l0.3-0.3
		l0.2-0.2l0.1-0.2l0.2-0.2l0.2-0.3l0.1-0.2l0.1-0.3l0-0.3l0-0.1"/>
	<path fill="none" stroke="#703D29" stroke-width="7.135397e-02" d="M36.9,34.8l0.2,0l0.2-0.1l0.1-0.1l0.1-0.1l0-0.2l0-0.1"/>
	<path fill="none" stroke="#703D29" stroke-width="7.135397e-02" d="M17.4,32.7l0.2,0l0.2,0l0.2-0.1"/>
	<path fill="none" stroke="#703D29" stroke-width="7.135397e-02" d="M18.6,28l0,0.2l0,0.1l-0.1,0.1l-0.1,0.1l-0.1,0l-0.1,0l-0.1,0"
		/>
	<path fill="none" stroke="#703D29" stroke-width="7.135397e-02" d="M19.3,26.5l0,0.3l-0.1,0.1L19.1,27L19,27.1l-0.2,0.1l-0.3,0.1"
		/>
	<path fill="none" stroke="#703D29" stroke-width="7.135397e-02" d="M20.5,22.2l-0.1,0.2l-0.1,0.1l-0.1,0.1l-0.1,0.1L20,22.8l-0.1,0
		l-0.1,0"/>
	<path fill="none" stroke="#703D29" stroke-width="7.135397e-02" d="M19.8,22.1l0,0.1"/>
	<path fill="none" stroke="#703D29" stroke-width="7.993913e-02" stroke-linecap="round" d="M20,26.3c-0.1,0.1-0.2,0.1-0.3,0.2"/>
	<path fill="none" stroke="#703D29" stroke-width="7.993913e-02" stroke-linecap="round" d="M38.8,32.2
		C38.8,32.2,38.9,32.2,38.8,32.2c0.2,0.1,0.6,0,0.5-0.3"/>
	<path fill="none" stroke="#703D29" stroke-width="7.993913e-02" d="M38.2,28.3c0.1,0.2,0.4,0.2,0.6,0.2c0.1,0,0.2-0.1,0.3-0.2
		c0.1-0.1,0.1-0.3,0-0.5c0-0.1-0.1-0.1-0.1-0.2c-0.1-0.1-0.1-0.1-0.2-0.2c0,0,0,0,0,0"/>
	<path fill="none" stroke="#703D29" stroke-width="7.993913e-02" d="M39.6,31.6C39.6,31.6,39.6,31.6,39.6,31.6
		c0-0.2-0.1-0.4-0.2-0.5c0,0-0.1-0.1-0.1-0.1"/>
	<path fill="none" stroke="#703D29" stroke-width="7.993913e-02" d="M39.4,31.1c0-0.2-0.2-0.4-0.4-0.4"/>
	<path fill="none" stroke="#703D29" stroke-width="7.993913e-02" d="M38.4,31c-0.1,0-0.1-0.1-0.2-0.1c-0.3-0.3-0.5-0.8-0.5-1.4
		c0-0.5,0.2-1.1,0.5-1.3"/>
	<path fill="none" stroke="#703D29" stroke-width="7.993913e-02" d="M31,39l0.2-0.2l0.2-0.1l0.3-0.2l0.3-0.1l0.2-0.1l0.4-0.1
		l0.5-0.1"/>
	<path fill="none" stroke="#703D29" stroke-width="7.993913e-02" d="M29.3,40.6c-0.2,0.3-0.6,0.6-1,0.8c-0.4-0.2-0.8-0.5-1-0.8"/>
	<path fill="none" stroke="#703D29" stroke-width="7.993913e-02" stroke-linecap="round" d="M27.6,40.1c-0.1,0.2-0.1,0.4-0.3,0.5"/>
	<path fill="none" stroke="#703D29" stroke-width="7.993913e-02" d="M27.7,39.8l-0.1,0.3"/>
	<path fill="none" stroke="#703D29" stroke-width="7.993913e-02" d="M27.3,40.6l-0.1,0.1L27,40.8l-0.2,0.1"/>
	<path fill="none" stroke="#703D29" stroke-width="7.993913e-02" d="M26,18.4c0-0.1,0.1-0.2,0.1-0.3c0-0.5-0.4-0.8-0.6-1.3
		c-0.1-0.3-0.1-0.5,0.1-0.8c0.2-0.2,0.4-0.2,0.6-0.1c0.5,0.2,1.1,0.7,2.1,0.8c-1,0-1.6-0.6-2.1-0.8c-0.2-0.1-0.5-0.1-0.7,0.1
		c-0.2,0.2-0.2,0.5-0.1,0.8c0.2,0.5,0.5,0.7,0.5,1.3C26.1,18.3,26,18.3,26,18.4"/>
	<path fill="none" stroke="#703D29" stroke-width="7.993913e-02" d="M28.4,16.7c1-0.1,1.9-0.7,2.2-0.8c0.2,0,0.4,0,0.6,0.1
		c-0.2-0.2-0.4-0.2-0.6-0.1C30,16.2,29.4,16.7,28.4,16.7"/>
	<path fill="none" stroke="#703D29" stroke-width="7.993913e-02" d="M38.4,31c-0.4-0.3-0.8-0.9-0.8-1.6c0-0.5,0.2-1.1,0.5-1.3"/>
	<path fill="none" stroke="#703D29" stroke-width="7.993913e-02" d="M29.3,40.6c-0.2,0.3-0.6,0.6-1,0.8c-0.4-0.2-0.8-0.5-1-0.8"/>
	<path fill="none" stroke="#703D29" stroke-width="7.993913e-02" stroke-linecap="round" d="M26.7,18.7c0.1-0.1,0.2-0.1,0.3-0.2
		c0.1-0.1,0.3-0.1,0.4,0c0.1,0.1,0.1,0.3,0,0.4"/>
	<path fill="none" stroke="#703D29" stroke-width="7.993913e-02" d="M25.1,19.4c0.7-0.1,1.3-0.5,1.7-0.7"/>
	<path fill="none" stroke="#703D29" stroke-width="7.993913e-02" d="M30.9,39.5c0.1,0,0.1,0.1,0.1,0.1c0,0,0,0.1,0,0.1
		c0,0.2-0.1,0.3-0.2,0.3c-0.2,0-0.4-0.1-0.4-0.3"/>
	<path fill="none" stroke="#703D29" stroke-width="7.993913e-02" d="M25.1,19.4c0.7-0.1,1.3-0.5,1.7-0.7"/>
	<path fill="none" stroke="#703D29" stroke-width="7.993913e-02" d="M39.1,32.2c-0.1,0.1-0.2,0-0.4,0c-0.1,0-0.1-0.1-0.2-0.1
		c-0.3-0.2-0.7-0.5-1.1-1.1c-0.1-0.2-0.2-0.4-0.2-0.6c0-0.1-0.1-0.3-0.1-0.4c0-0.2,0-0.5,0.1-0.8c0.1-0.5,0.2-0.7,0.5-1.1
		c0.1-0.2,0.3-0.3,0.5-0.3"/>
	<path fill="none" stroke="#703D29" stroke-width="7.993913e-02" d="M20.2,22.7c0.2,0.2,0.3,0.4,0.3,0.7c0,0.4-0.3,1-1.1,1.3
		c-0.3,0.1-0.6,0-0.8-0.1"/>
	<path fill="none" stroke="#703D29" stroke-width="7.993913e-02" d="M20.3,24c0.1,0.1,0.2,0.2,0.2,0.4c0,0.1-0.1,0.3-0.2,0.5
		c-0.2,0.3-0.7,0.5-1.1,0.5c-0.2,0-0.5,0-0.8-0.2c-0.3-0.2-0.4-0.4-0.5-0.7"/>
	<path fill="none" stroke="#703D29" stroke-width="7.993913e-02" d="M20.3,24.8c0.2,0.2,0.2,0.3,0.2,0.6c0,0.3-0.1,0.6-0.5,0.9
		c-0.1,0.1-0.2,0.1-0.2,0.2"/>
	<path fill="none" stroke="#703D29" stroke-width="7.993913e-02" d="M36.2,23.7v0.4"/>
	<path fill="none" stroke="#703D29" stroke-width="7.993913e-02" d="M36.1,23.6v0.6"/>
	<path fill="none" stroke="#703D29" stroke-width="7.993913e-02" d="M36.2,22.2v0.8"/>
	<path fill="none" stroke="#703D29" stroke-width="7.993913e-02" d="M36.1,22v1.1"/>
	<path fill="none" stroke="#703D29" stroke-width="7.993913e-02" d="M35.9,33.5c-0.2,0.3-0.3,0.5-0.5,0.7c-0.2,0.2-0.4,0.4-0.7,0.5
		c-0.3,0.2-0.5,0.2-0.8,0.3c-0.3,0.1-0.5,0.1-0.9,0.1c-0.3,0-0.5,0-0.8,0c-0.3,0-0.5-0.1-0.9-0.1c-0.3,0-0.4,0-0.7,0
		c-0.3,0-0.4,0-0.7,0.1c-0.3,0-0.4,0.1-0.7,0.2c-0.3,0.1-0.7,0.4-0.8,0.5c-0.1-0.1-0.5-0.3-0.8-0.5c-0.2-0.1-0.4-0.1-0.7-0.2
		c-0.3,0-0.4-0.1-0.7-0.1c-0.3,0-0.4,0-0.7,0c-0.3,0-0.5,0.1-0.9,0.1c-0.3,0-0.5,0-0.8,0c-0.3,0-0.5,0-0.9-0.1
		c-0.3-0.1-0.5-0.1-0.8-0.3c-0.3-0.2-0.5-0.3-0.7-0.5c0,0-0.1-0.1-0.1-0.1"/>
	<path fill="none" stroke="#703D29" stroke-width="7.993913e-02" d="M26.6,40.9l0.2,0"/>
	<path fill="none" stroke="#703D29" stroke-width="7.993913e-02" d="M30.7,40.6l0.2,0l0.2-0.1l0.2-0.1l0.2-0.2l0-0.1l0-0.2l0-0.1"/>
	<path fill="none" stroke="#703D29" stroke-width="7.993913e-02" d="M37.5,22.5c0.1-0.3,0-0.7-0.3-0.7"/>
	<path fill="none" stroke="#703D29" stroke-width="7.993913e-02" d="M20.5,27.7c-0.1,0.3-0.3,0.5-0.5,0.6"/>
	<path fill="none" stroke="#703D29" stroke-width="7.993913e-02" d="M20.5,22.4c-0.1,0.2-0.2,0.4-0.5,0.5c-0.2,0.1-0.5,0-0.6-0.1"/>
	<path fill="none" stroke="#703D29" stroke-width="7.993913e-02" stroke-linecap="round" d="M18.7,23.6c0.2,0.1,0.4,0,0.4-0.3
		c0-0.1-0.1-0.3-0.3-0.3"/>
	<path fill="none" stroke="#703D29" stroke-width="7.993913e-02" d="M19.5,34.2c0,0,0.1,0.1,0.1,0.1c0.1,0,0.2,0,0.2-0.1
		c0.1-0.1,0-0.4-0.1-0.5c-0.1-0.1-0.5-0.3-0.7-0.1c-0.1,0.1-0.2,0.1-0.3,0.3c0,0.1-0.1,0.1-0.1,0.2c-0.1,0.1-0.1,0.3-0.1,0.3
		c-0.3,0.7,0,1.5,0.5,2"/>
	<path fill="none" stroke="#703D29" stroke-width="7.993913e-02" stroke-linecap="round" d="M30.9,39.5c0.1,0.1,0.1,0.1,0.1,0.1
		c0,0,0,0.1,0,0.1c0,0.2-0.1,0.3-0.2,0.3c-0.2,0-0.4-0.1-0.4-0.3"/>
	<path fill="none" stroke="#703D29" stroke-width="7.993913e-02" d="M37.1,17.6c0.4,0.1,0.8,0.5,0.8,0.9c0,0.6-0.2,0.8-0.5,1.2
		c-0.3,0.4-1.3,1.2-1.3,2.1c0,0.5,0.2,0.9,0.5,1.1c0.3,0.1,0.5,0,0.7-0.1c0.3-0.3,0.2-0.8-0.1-0.9c-0.4-0.1-0.5,0.6-0.1,0.5"/>
	<path fill="none" stroke="#703D29" stroke-width="7.993913e-02" d="M39.3,31.1c0-0.2-0.2-0.4-0.5-0.4c-0.3,0-0.5,0.2-0.5,0.5
		c0,0.1,0,0.2,0.1,0.3"/>
	<path fill="none" stroke="#703D29" stroke-width="7.993913e-02" d="M36.4,22.7c-0.2,0.2-0.3,0.4-0.3,0.7c0,0.4,0.3,1,1.1,1.3
		c0.3,0.1,0.6,0.1,0.8,0"/>
	<path fill="none" stroke="#703D29" stroke-width="7.993913e-02" d="M18.3,23.3c-0.2,0.1-0.4,0.2-0.6,0.4c-0.2,0.2-0.2,0.5-0.3,0.8
		c0,0.1-0.1,0.5,0,0.8c0.1,0.3,0.2,0.5,0.3,0.7c0,0.1,0.1,0.1,0.1,0.2c0,0,0.1,0.1,0.1,0.1"/>
	<path fill="none" stroke="#703D29" stroke-width="7.993913e-02" d="M26.1,38c0.6,0.3,1.1,0.5,1.4,1.1c0.1,0.2,0.2,0.5,0.2,0.6
		c0,0.3-0.1,0.7-0.4,1c-0.3,0.2-0.5,0.3-0.8,0.3c-0.2,0-0.5-0.2-0.5-0.3"/>
	<path fill="none" stroke="#703D29" stroke-width="7.993913e-02" d="M20,26.3c0.3,0.3,0.5,0.5,0.5,1c0,0.5-0.2,0.8-0.5,0.9"/>
	<path fill="none" stroke="#703D29" stroke-width="7.993913e-02" stroke-linecap="round" d="M19.7,27.9c0.5,0.6,0.8,1,0.8,1.8
		c0,0.7-0.2,1.2-0.6,1.7"/>
	<path fill="none" stroke="#703D29" stroke-width="7.993913e-02" d="M29.6,19.4c0.1-0.1,0.2-0.2,0.2-0.3c0.1-0.2,0.1-0.3,0-0.5
		c0.1,0.2,0.1,0.3,0.1,0.5C29.8,19.3,29.7,19.3,29.6,19.4"/>
	<path fill="none" stroke="#703D29" stroke-width="7.993913e-02" d="M36.2,30.3v2h0c0,0,0,0.2,0,0.3c0,0.1,0,0.2,0,0.2"/>
	<path fill="none" stroke="#703D29" stroke-width="7.993913e-02" d="M36.1,30.1v2.2l0,0c0,0,0,0.2,0,0.3c0,0.1,0,0.2-0.1,0.3"/>
	<path fill="none" stroke="#703D29" stroke-width="7.993913e-02" d="M36.1,27.5v1.8"/>
	<path fill="none" stroke="#703D29" stroke-width="7.993913e-02" d="M36.2,27.7v1.5"/>
	<path fill="none" stroke="#703D29" stroke-width="7.993913e-02" d="M36.2,25.8v1.1"/>
	<path fill="none" stroke="#703D29" stroke-width="7.993913e-02" d="M36.1,25.6V27"/>
	<path fill="none" stroke="#703D29" stroke-width="7.993913e-02" d="M36.2,24.6v0.4"/>
	<path fill="none" stroke="#703D29" stroke-width="7.993913e-02" d="M36.1,24.5v0.6"/>
	<path fill="none" stroke="#703D29" stroke-width="7.993913e-02" d="M35.9,33.4C35.9,33.4,35.9,33.5,35.9,33.4
		c-0.2,0.4-0.3,0.6-0.6,0.8c-0.2,0.2-0.4,0.4-0.7,0.5c-0.3,0.2-0.5,0.2-0.8,0.3c-0.3,0.1-0.5,0.1-0.9,0.1c-0.3,0-0.5,0-0.8,0
		c-0.3,0-0.5-0.1-0.9-0.1c-0.3,0-0.4,0-0.7,0c-0.3,0-0.4,0-0.7,0.1c-0.3,0-0.4,0.1-0.7,0.2c-0.3,0.1-0.7,0.4-0.8,0.5
		c-0.1-0.1-0.5-0.3-0.8-0.5c-0.2-0.1-0.4-0.1-0.7-0.2c-0.3,0-0.4-0.1-0.7-0.1c-0.3,0-0.4,0-0.7,0c-0.3,0-0.5,0.1-0.9,0.1
		c-0.3,0-0.5,0-0.8,0c-0.3,0-0.5,0-0.9-0.1c-0.3-0.1-0.5-0.1-0.8-0.3c-0.3-0.2-0.5-0.3-0.7-0.5c-0.1-0.1-0.2-0.2-0.3-0.4"/>
	<path fill="none" stroke="#703D29" stroke-width="7.993913e-02" d="M20.8,33.5c0.1,0.4-0.1,0.8-0.3,1c-0.1,0.1-0.3,0.3-0.6,0.3
		c-0.5,0-0.6-0.3-0.7-0.4"/>
	<path fill="none" stroke="#703D29" stroke-width="7.993913e-02" d="M20.2,33.3c0.1,0.1,0.2,0.2,0.2,0.3c0.1,0.2,0.1,0.6,0,0.8
		c0,0,0,0,0,0.1"/>
	<path fill="none" stroke="#703D29" stroke-width="7.993913e-02" d="M17.8,36.7c0.3,0.3,0.7,0.6,1.4,0.9c0.9,0.4,2.3,0.5,3.2,0.5
		c1.3,0.1,2.4,0.1,3.2,0.9"/>
	<path fill="none" stroke="#703D29" stroke-width="7.993913e-02" d="M27.8,38.5c0.2,0.2,0.4,0.4,0.5,0.7"/>
	<path fill="none" stroke="#703D29" stroke-width="7.993913e-02" d="M27.4,40.6C27.4,40.7,27.3,40.7,27.4,40.6
		C27,40.9,26.8,41,26.5,41c-0.2,0-0.5-0.2-0.5-0.3"/>
	<path fill="none" stroke="#703D29" stroke-width="7.993913e-02" d="M25.2,40.3C25.3,40.3,25.3,40.3,25.2,40.3
		c0.2,0.2,0.4,0.3,0.7,0.4"/>
	<path fill="none" stroke="#703D29" stroke-width="7.993913e-02" d="M29.3,40.6c-0.2,0.3-0.6,0.6-1,0.8c-0.4-0.2-0.8-0.5-1-0.8
		c0,0,0,0,0-0.1"/>
	<path fill="none" stroke="#703D29" stroke-width="7.993913e-02" d="M29.3,40.6C29.4,40.7,29.4,40.7,29.3,40.6
		c0.4,0.3,0.6,0.4,0.9,0.3c0.2,0,0.4-0.2,0.5-0.3c0,0,0,0,0.1-0.1"/>
	<path fill="none" stroke="#703D29" stroke-width="7.993913e-02" d="M30.8,40.6l-0.1,0.2l-0.1,0.1l-0.2,0.1l-0.2,0"/>
	<path fill="none" stroke="#703D29" stroke-width="7.993913e-02" d="M31.3,39.1c0.1,0.1,0.2,0.2,0.3,0.4c0,0.1,0.1,0.2,0.1,0.3
		c0,0.2-0.1,0.4-0.2,0.5c-0.2,0.2-0.4,0.3-0.7,0.3c0,0,0,0-0.1,0"/>
	<path fill="none" stroke="#703D29" stroke-width="7.993913e-02" d="M30.7,40.6L30.7,40.6c-0.3,0-0.5-0.1-0.7-0.3"/>
	<path fill="none" stroke="#703D29" stroke-width="7.993913e-02" d="M38.1,31.7c-0.2-0.2-0.4-0.4-0.6-0.8c-0.1-0.2-0.2-0.4-0.2-0.6
		c0-0.1-0.1-0.3-0.1-0.4c0-0.2,0-0.5,0.1-0.8c0.1-0.5,0.3-0.9,0.5-1.1c0.1-0.1,0.2-0.2,0.3-0.3"/>
	<path fill="none" stroke="#703D29" stroke-width="7.993913e-02" d="M37.9,18.1c0.3,0,0.6,0.4,0.6,0.7c0,0.5-0.2,0.7-0.6,1.2
		c-0.3,0.4-1.3,1.1-1.3,1.8c0,0.1,0.1,0.3,0.1,0.4"/>
	<path fill="none" stroke="#703D29" stroke-width="7.993913e-02" d="M36.4,22.7c0.1,0.1,0.2,0.1,0.3,0.2c0.2,0.1,0.4,0,0.5,0"/>
	<path fill="none" stroke="#703D29" stroke-width="7.993913e-02" d="M34.5,17.3c0.1,0.1,0.2,0.2,0.3,0.3c0.2,0.6-0.3,1-0.7,1.3
		c-0.3,0.2-0.7,0.4-1.1,0.4"/>
	<path fill="none" stroke="#703D29" stroke-width="7.993913e-02" d="M34,18.4c-0.1,0-0.3,0-0.4-0.2c0,0-0.1-0.1-0.1-0.1"/>
	<path fill="none" stroke="#703D29" stroke-width="7.993913e-02" d="M31.6,18.7c-0.1,0-0.1-0.1-0.2-0.1c-0.1-0.1-0.2-0.3-0.1-0.6
		c0.1-0.2,0.5-0.9,0.5-1.4c0-0.7-0.2-1.1-0.7-1.3"/>
	<path fill="none" stroke="#703D29" stroke-width="7.993913e-02" stroke-linecap="round" d="M31.8,16.5l0,0.3l-0.1,0.3l-0.1,0.4
		l-0.1,0.2l-0.1,0.2l-0.1,0.2l0,0.1l0,0.1"/>
	<path fill="none" stroke="#703D29" stroke-width="7.993913e-02" stroke-linecap="round" d="M36.1,34.3c0,0.1,0.1,0.1,0.1,0.1
		c0.1,0.1,0.4,0.4,0.7,0.4c0.5,0,0.6-0.3,0.6-0.4c0.1-0.4-0.1-0.5-0.3-0.6c0,0-0.1-0.1-0.2,0"/>
	<path fill="none" stroke="#703D29" stroke-width="7.993913e-02" d="M17.8,32.7c-0.2,0-0.3,0-0.5,0c-0.4-0.1-0.6-0.5-0.5-0.9"/>
	<path fill="none" stroke="#703D29" stroke-width="7.993913e-02" d="M18.6,27.8c0,0,0,0.1,0.1,0.1c0.1,0.5-0.4,0.6-0.6,0.5
		c-0.1,0-0.3-0.2-0.4-0.3c0-0.1-0.1-0.2-0.1-0.3"/>
	<path fill="none" stroke="#703D29" stroke-width="7.993913e-02" d="M20.3,24.9c0.1,0.1,0.1,0.1,0.2,0.2"/>
	<path fill="none" stroke="#703D29" stroke-width="7.993913e-02" d="M20.3,24c0.1,0,0.1,0.1,0.1,0.2"/>
	<path fill="none" stroke="#703D29" stroke-width="7.993913e-02" stroke-linecap="round" d="M20.5,24.6c0,0.1-0.1,0.2-0.2,0.3
		c-0.2,0.3-0.7,0.5-1.1,0.5c-0.2,0-0.5,0-0.8-0.2c-0.3-0.2-0.5-0.4-0.5-0.7"/>
	<path fill="none" stroke="#703D29" stroke-width="7.993913e-02" d="M20.2,22.7c0.1,0.1,0.2,0.3,0.3,0.4"/>
	<path fill="none" stroke="#703D29" stroke-width="7.993913e-02" stroke-linecap="round" d="M20.5,23.7c-0.1,0.4-0.4,0.8-1.1,1
		c-0.3,0.1-0.7,0-0.8-0.1"/>
	<path fill="none" stroke="#703D29" stroke-width="7.993913e-02" d="M18.2,23.6c0,0.3,0.3,0.6,0.7,0.6c0.6,0,1-0.9,0.4-1.5"/>
	<path fill="none" stroke="#703D29" stroke-width="7.993913e-02" stroke-linecap="round" d="M16.9,26.5c0.1,0.1,0.2,0.2,0.3,0.3
		c0.2,0.2,0.5,0.3,0.8,0.4"/>
	<path fill="none" stroke="#703D29" stroke-width="7.993913e-02" stroke-linecap="round" d="M18.6,27.3c0.5-0.1,0.8-0.5,0.8-0.9
		c0-0.4-0.4-0.6-0.6-0.6"/>
	<path fill="none" stroke="#703D29" stroke-width="7.993913e-02" d="M19.5,21.8c0.2,0,0.4,0.2,0.4,0.4"/>
	<path fill="none" stroke="#703D29" stroke-width="7.993913e-02" stroke-linecap="round" d="M19.4,18.6c0.1,0.3,0.4,0.6,0.6,0.7"/>
	<path fill="none" stroke="#703D29" stroke-width="7.993913e-02" stroke-linecap="round" d="M38.3,23.3c0.2,0.3,0.1,0.9-0.5,0.9
		c-0.2,0-0.4-0.1-0.6-0.3"/>
	<path fill="none" stroke="#703D29" stroke-width="7.993913e-02" d="M36.2,19.4v2"/>
	<path fill="none" stroke="#703D29" stroke-width="7.993913e-02" stroke-linecap="round" d="M18.7,23.6c0.2,0.1,0.4-0.1,0.3-0.3
		c-0.1-0.2-0.3-0.3-0.6-0.1c-0.3,0.2-0.3,1,0.4,1c0.6,0,1-0.9,0.4-1.5c-0.5-0.6-1.4-0.4-2,0c-0.3,0.2-0.7,0.7-0.9,1.5
		c0,0.2-0.1,0.4-0.1,0.6c0,0.2,0,0.3,0.1,0.5c0.1,0.4,0.2,0.7,0.4,1c0.1,0.1,0.1,0.2,0.2,0.2c0.1,0.1,0.1,0.2,0.2,0.2
		c0.3,0.3,0.8,0.5,1.3,0.5c0.6,0,0.9-0.4,0.9-0.9c-0.1-0.5-0.5-0.7-0.9-0.5c-0.2,0.2-0.3,0.6,0.1,0.7c0.2,0.1,0.4-0.2,0.3-0.4"/>
	<path fill="none" stroke="#703D29" stroke-width="7.993913e-02" stroke-linecap="round" d="M35.2,17.1c0.3-0.2,0.6-0.2,0.8,0.1
		c0.2,0.3,0.2,0.7,0.2,0.9c-0.1,0.3-0.2,0.5-0.4,0.7"/>
	<path fill="none" stroke="#703D29" stroke-width="7.993913e-02" stroke-linecap="round" d="M36,17.2c0.4-0.3,0.8-0.1,1,0.2
		c0.2,0.3,0.2,0.5,0.2,0.8c0,0.5-0.4,1-0.7,1.2"/>
	<path fill="none" stroke="#703D29" stroke-width="7.993913e-02" d="M37.8,18.1c0.3,0,0.6,0.3,0.6,0.7c0,0.5-0.1,0.7-0.5,1.2
		c-0.3,0.4-1.3,1.1-1.3,1.8c0,0.3,0.2,0.5,0.4,0.5"/>
	<path fill="none" stroke="#703D29" stroke-width="7.993913e-02" stroke-linecap="round" d="M37.9,23.6c-0.2,0.1-0.4-0.1-0.3-0.3
		c0.1-0.2,0.3-0.4,0.6-0.1c0.3,0.2,0.3,1-0.4,1c-0.6,0-1-0.8-0.4-1.5c0.5-0.6,1.5-0.5,2.1,0c0.3,0.2,0.8,0.8,0.9,1.5
		c0.1,0.9,0.1,2-0.8,2.7c-0.4,0.3-0.9,0.4-1.3,0.4c-0.6,0-0.9-0.4-0.9-0.9c0.1-0.5,0.5-0.7,0.9-0.5c0.3,0.2,0.3,0.7-0.1,0.7
		c-0.2,0-0.4-0.2-0.3-0.4"/>
	<path fill="none" stroke="#703D29" stroke-width="7.993913e-02" d="M37.6,23.3c0.1-0.4,0.5-0.5,0.8-0.5c0.8,0,1.4,1,1.4,2
		c0,1.2-0.5,1.9-1.4,2c-0.2,0-0.6-0.1-0.6-0.4"/>
	<path fill="none" stroke="#703D29" stroke-width="7.993913e-02" stroke-linecap="square" d="M38.1,23.1c0.9,0.2,1.2,1,1.2,1.7
		c0,0.6-0.1,1.5-1.3,1.8"/>
	<path fill="none" stroke="#703D29" stroke-width="7.993913e-02" d="M39.5,31.6C39.5,31.5,39.5,31.5,39.5,31.6
		c0-0.4-0.2-0.6-0.5-0.6c-0.3,0-0.5,0.2-0.5,0.5c0,0.2,0.1,0.3,0.2,0.4"/>
	<path fill="none" stroke="#703D29" stroke-width="7.993913e-02" stroke-linecap="round" d="M37.8,30.8c0.2,0.2,0.4,0.5,0.8,0.7"/>
	<path fill="none" stroke="#703D29" stroke-width="7.993913e-02" stroke-linecap="round" d="M38.4,32.9c-0.4-0.3-1.2-0.6-1.9-0.3
		c-0.3,0.1-0.4,0.3-0.5,0.6c-0.2,0.5,0,1,0.2,1.2c0.1,0.1,0.3,0.3,0.6,0.3c0.5,0,0.6-0.3,0.6-0.4c0.1-0.3-0.1-0.5-0.3-0.5
		c-0.1,0-0.3,0-0.4,0.2c0,0.1,0,0.2,0,0.3"/>
	<path fill="none" stroke="#703D29" stroke-width="7.993913e-02" stroke-linecap="round" d="M30.9,39.5c0.1,0.3,0,0.4-0.2,0.4
		c-0.3,0-0.4-0.2-0.4-0.4c0-0.3,0.2-0.6,0.6-0.6c0.3,0,0.5,0.2,0.6,0.4c0,0.1,0.1,0.2,0.1,0.3c0,0.2-0.1,0.4-0.2,0.5
		c-0.2,0.2-0.4,0.3-0.7,0.3c-0.5,0-1-0.5-1-1c0-1,1.4-1.5,2-1.6c0.7-0.2,1.1-0.2,2.3-0.3c0.5,0,0.8,0,1.3-0.1c0.4,0,0.7-0.1,1.1-0.2
		c0.6-0.1,1.1-0.4,1.6-0.8c0.4-0.3,0.6-0.6,0.7-1c0.1-0.4,0.2-1.2-0.2-1.8c-0.3-0.5-0.8-0.8-1.3-0.9c-0.5-0.1-0.9,0.1-1.1,0.6
		c-0.1,0.2-0.1,0.6,0,0.8c0.1,0.2,0.3,0.4,0.6,0.4c0.5,0,0.6-0.3,0.6-0.4c0.1-0.3-0.1-0.5-0.3-0.5c-0.1,0-0.3,0-0.4,0.2
		c0,0.1,0,0.2,0,0.3"/>
	<path fill="none" stroke="#703D29" stroke-width="7.993913e-02" stroke-linecap="round" d="M30.5,38c-0.6,0.3-1.1,0.5-1.4,1.1
		c-0.1,0.2-0.2,0.5-0.2,0.6c0,0.3,0.1,0.7,0.4,1c0.3,0.2,0.5,0.3,0.8,0.3c0.2,0,0.5-0.2,0.5-0.3"/>
	<path fill="none" stroke="#703D29" stroke-width="7.993913e-02" d="M36.6,26.3c-0.3,0.1-0.5,0.5-0.5,1c0,0.5,0.2,0.8,0.5,0.9"/>
	<path fill="none" stroke="#703D29" stroke-width="7.993913e-02" stroke-linecap="round" d="M36.9,27.9c-0.5,0.6-0.8,1-0.8,1.8
		c0,0.7,0.2,1.2,0.6,1.7"/>
	<path fill="none" stroke="#703D29" stroke-width="7.993913e-02" d="M34.1,17.2C34.2,17.2,34.2,17.2,34.1,17.2
		c0.3-0.4,0.6-0.5,0.9-0.3c0.3,0.3,0.4,0.7,0.3,1.1c-0.1,0.3-0.2,0.5-0.5,0.7"/>
	<path fill="none" stroke="#703D29" stroke-width="7.993913e-02" stroke-linecap="round" d="M21.4,17.1c-0.3-0.2-0.6-0.1-0.8,0.1
		c-0.2,0.3-0.2,0.7-0.2,0.9c0.1,0.3,0.2,0.5,0.4,0.7"/>
	<path fill="none" stroke="#703D29" stroke-width="7.993913e-02" d="M20.6,17.2c-0.4-0.3-0.8-0.1-1,0.2c-0.2,0.3-0.2,0.5-0.2,0.8
		c0,0.5,0.4,1,0.7,1.2"/>
	<path fill="none" stroke="#703D29" stroke-width="7.993913e-02" d="M19.4,17.6c-0.4,0.1-0.8,0.4-0.8,0.8c0,0.6,0.1,0.8,0.5,1.2
		c0.3,0.4,1.3,1.2,1.3,2.1c0,0.5-0.2,0.9-0.5,1.1c-0.3,0.1-0.5,0-0.7-0.1c-0.3-0.3-0.2-0.8,0.1-0.9c0.4-0.1,0.5,0.6,0.1,0.5"/>
	<path fill="none" stroke="#703D29" stroke-width="7.993913e-02" d="M18.7,18.1c-0.3,0-0.6,0.3-0.6,0.6c0,0.5,0.2,0.7,0.6,1.2
		c0.3,0.4,1.3,1.1,1.3,1.8c0,0.3-0.2,0.6-0.4,0.5"/>
	<path fill="none" stroke="#703D29" stroke-width="7.993913e-02" stroke-linecap="round" d="M18,27.9c0.2-0.4,0.5-0.2,0.6,0
		c0.1,0.5-0.4,0.6-0.6,0.5c-0.1,0-0.2-0.1-0.3-0.2c-0.1-0.1-0.1-0.3,0-0.5c0-0.1,0.1-0.1,0.1-0.2c0.1-0.1,0.1-0.1,0.2-0.2
		c0.1-0.1,0.2-0.1,0.4-0.1c0.7,0,1.3,0.8,1.5,1.7c0.1,0.3,0.2,0.9,0,1.5c-0.1,0.6-0.4,1.1-0.7,1.4c-0.2,0.2-0.4,0.3-0.7,0.5
		c-0.1,0.1-0.3,0.2-0.5,0.2c-0.2,0.1-0.4,0.1-0.5,0c-0.4-0.1-0.6-0.4-0.4-0.9c0.1-0.3,0.7-0.5,0.9-0.1c0,0,0.1,0.1,0.1,0.2
		c0,0.1,0,0.2-0.1,0.3c-0.2,0.1-0.5,0.1-0.5-0.2"/>
	<path fill="none" stroke="#703D29" stroke-width="7.993913e-02" d="M17.4,32.2c0.1,0.1,0.2,0,0.4,0c0.1,0,0.1-0.1,0.2-0.1
		c0.3-0.2,0.7-0.5,1.1-1.1c0.1-0.2,0.2-0.4,0.2-0.6c0-0.1,0.1-0.3,0.1-0.4c0-0.2,0-0.5-0.1-0.8c-0.1-0.5-0.2-0.7-0.5-1.1
		c-0.1-0.2-0.3-0.3-0.5-0.3"/>
	<path fill="none" stroke="#703D29" stroke-width="7.993913e-02" d="M17,31.6C17,31.5,17,31.5,17,31.6c0-0.4,0.2-0.6,0.5-0.6
		c0.3,0,0.5,0.2,0.5,0.5c0,0.2-0.1,0.3-0.2,0.4"/>
	<path fill="none" stroke="#703D29" stroke-width="7.993913e-02" d="M17.2,31.1c0-0.2,0.2-0.4,0.5-0.4c0.3,0,0.5,0.2,0.5,0.5
		c0,0.1,0,0.2-0.1,0.3"/>
	<path fill="none" stroke="#703D29" stroke-width="7.993913e-02" d="M18.1,31c0.4-0.3,0.8-0.9,0.8-1.6c0-0.5-0.2-1.1-0.5-1.3"/>
	<path fill="none" stroke="#703D29" stroke-width="7.993913e-02" stroke-linecap="round" d="M18.8,30.8c-0.2,0.2-0.4,0.5-0.8,0.7"/>
	<path fill="none" stroke="#703D29" stroke-width="7.993913e-02" d="M20.1,32.6c-0.1-0.3-0.4-0.4-0.7-0.4c-0.4,0-0.7,0.1-1,0.2
		c-0.7,0.4-1,0.7-1.3,1.4c-0.1,0.2-0.1,0.4-0.1,0.7c0,0.5,0.1,1,0.3,1.2c0.1,0.2,0.4,1.1,1.9,1.8c0.9,0.4,2.3,0.5,3.2,0.5
		c1.3,0.1,2.5,0.1,3.2,1"/>
	<path fill="none" stroke="#703D29" stroke-width="7.993913e-02" stroke-linecap="round" d="M18.2,32.9c0.4-0.3,1.2-0.6,1.9-0.3
		c0.3,0.1,0.4,0.3,0.5,0.6c0.2,0.5,0,1-0.2,1.2c-0.1,0.1-0.3,0.3-0.6,0.3c-0.5,0-0.6-0.3-0.6-0.4c-0.1-0.3,0.1-0.5,0.3-0.5
		c0.1,0,0.3,0,0.4,0.2c0,0.1,0,0.2,0,0.3"/>
	<path fill="none" stroke="#703D29" stroke-width="7.993913e-02" d="M19.8,34.1c0-0.1,0-0.3-0.1-0.4c-0.1-0.1-0.5-0.3-0.7-0.1
		c-0.1,0.1-0.2,0.1-0.3,0.3c0,0.1-0.1,0.1-0.1,0.2c-0.1,0.1-0.1,0.3-0.1,0.3c-0.3,0.9,0.2,1.8,0.8,2.2c0.6,0.4,1.1,0.5,1.8,0.5
		c0.3,0,0.5,0,0.8,0.1c0.3,0,0.5,0,0.7,0c0.2,0,0.3,0,0.5,0c0.3,0,0.6,0,0.9,0c0.4,0,0.6,0,1,0.1c0.2,0,0.4,0.1,0.7,0.1
		c0.1,0,0.2,0,0.2,0.1c0.1,0,0.1,0,0.2,0c0.5,0.1,0.9,0.3,1.2,0.5c0.1,0.1,0.2,0.1,0.3,0.2c0.1,0.1,0.1,0.1,0.2,0.2
		c0.2,0.2,0.5,0.5,0.5,0.8c0,0.1,0,0.1,0,0.2c0,0.2-0.2,0.5-0.7,0.6"/>
	<path fill="none" stroke="#703D29" stroke-width="7.993913e-02" d="M25.6,39.5c-0.1,0.3,0,0.4,0.2,0.4c0.3,0,0.4-0.2,0.4-0.4
		c0-0.3-0.2-0.6-0.6-0.6c-0.3,0-0.5,0.2-0.6,0.4c0,0.1-0.1,0.2-0.1,0.3c0,0.2,0.1,0.4,0.2,0.5c0.2,0.2,0.4,0.3,0.7,0.3
		c0.5,0,1-0.5,1-1c0-1-1.4-1.5-2-1.6c-0.7-0.2-1.1-0.2-2.3-0.3c-0.5,0-0.8,0-1.3-0.1c-0.4,0-0.7-0.1-1.1-0.2
		c-0.6-0.1-1.1-0.4-1.6-0.8c-0.4-0.3-0.6-0.6-0.7-1c-0.1-0.4-0.2-1.2,0.2-1.8c0.3-0.5,0.8-0.8,1.3-0.9c0.5-0.1,0.9,0.1,1.1,0.6
		c0.1,0.2,0.1,0.6,0,0.8c-0.1,0.2-0.3,0.4-0.6,0.4c-0.5,0-0.6-0.3-0.6-0.4c-0.1-0.3,0.1-0.5,0.3-0.5c0.1,0,0.3,0,0.4,0.2
		c0,0.1,0,0.2,0,0.3"/>
	<path fill="none" stroke="#703D29" stroke-width="7.993913e-02" stroke-linecap="round" d="M22.4,17.2
		C22.4,17.2,22.4,17.2,22.4,17.2c-0.3-0.4-0.6-0.5-0.9-0.3c-0.3,0.3-0.4,0.7-0.3,1.1c0.1,0.3,0.2,0.5,0.5,0.7"/>
	<path fill="none" stroke="#703D29" stroke-width="7.993913e-02" d="M34.3,18.2c-0.5,0.6-1,0.7-1.8,0.8c-0.2,0-0.7-0.1-1-0.3
		c-0.2-0.1-0.4-0.3-0.2-0.7c0.1-0.2,0.5-0.9,0.5-1.4c0-0.7-0.2-1.1-0.7-1.3c-0.8-0.3-1.6,0.5-2.2,0.7c-0.3,0.1-0.4,0.1-0.6,0.1
		c-0.2,0-0.4,0-0.7-0.1c-0.5-0.2-1.4-1-2.2-0.7c-0.4,0.2-0.7,0.5-0.7,1.3c0,0.5,0.4,1.1,0.5,1.4c0.1,0.4-0.1,0.6-0.2,0.7
		c-0.3,0.2-0.7,0.3-1,0.3c-0.8,0-1.3-0.2-1.8-0.8"/>
	<path fill="none" stroke="#703D29" stroke-width="7.993913e-02" stroke-linecap="round" d="M25.5,37.8c0.1,0,0,0,0.7,0.3
		c0.6,0.3,1,0.5,1.4,1.1c0.1,0.2,0.2,0.5,0.2,0.6c0,0.1,0,0.2,0,0.3"/>
	<path fill="none" stroke="#703D29" stroke-width="7.993913e-02" d="M25.5,40.5c0.1,0.1,0.3,0.1,0.4,0.1c0.5,0,1-0.5,1-1
		c0-0.4-0.2-0.7-0.5-0.9"/>
	<path fill="none" stroke="#703D29" stroke-width="7.993913e-02" stroke-linecap="round" d="M25.6,39.5c-0.1,0.3,0.1,0.4,0.2,0.5
		c0.3,0,0.4-0.2,0.4-0.4c0-0.2-0.1-0.4-0.3-0.5"/>
	<path fill="none" stroke="#703D29" stroke-width="7.993913e-02" d="M37.2,17.6c0.4,0,0.8,0.5,0.8,0.9c0,0.5-0.3,0.9-0.5,1.1
		c-0.2,0.2-0.3,0.4-0.6,0.6"/>
	<path fill="none" stroke="#703D29" stroke-width="7.993913e-02" stroke-linecap="round" d="M36.7,17.1c0.1,0.1,0.3,0.2,0.4,0.3
		c0.2,0.3,0.2,0.5,0.2,0.8c0,0.5-0.4,0.9-0.7,1.1"/>
	<path fill="none" stroke="#703D29" stroke-width="7.993913e-02" stroke-linecap="round" d="M35.9,17.1C36,17.2,36,17.2,35.9,17.1
		c0.3,0.4,0.3,0.8,0.3,1c-0.1,0.3-0.2,0.5-0.5,0.7"/>
	<path fill="none" stroke="#703D29" stroke-width="7.993913e-02" stroke-linecap="round" d="M35.1,17c0.3,0.3,0.4,0.7,0.3,1.1
		c-0.1,0.3-0.3,0.5-0.5,0.7"/>
	<path fill="none" stroke="#703D29" stroke-width="7.993913e-02" stroke-linecap="round" d="M36.3,24c0,0.1,0.1,0.2,0.2,0.2
		c0.2,0.2,0.4,0.4,0.8,0.4c0.3,0.1,0.6,0,0.8-0.1"/>
	<path fill="none" stroke="#703D29" stroke-width="7.993913e-02" stroke-linecap="round" d="M17.4,31.4c0.2,0,0.3,0.1,0.4,0.3
		c0,0,0.1,0.1,0.1,0.2c0,0.1,0,0.2-0.1,0.3c-0.2,0.1-0.5,0.1-0.5-0.3"/>
	<path fill="none" stroke="#703D29" stroke-width="7.993913e-02" d="M18.4,27.2c0.6,0.1,1.2,0.9,1.4,1.7c0.1,0.3,0.2,0.9,0,1.5
		c-0.1,0.6-0.4,1.1-0.7,1.4C19,32,19,32,18.9,32.1l-0.1,0.1"/>
	<path fill="none" stroke="#703D29" stroke-width="7.993913e-02" d="M17.7,30.7c0.3,0,0.5,0.2,0.5,0.5c0,0.1,0,0.2-0.1,0.3"/>
	<path fill="none" stroke="#703D29" stroke-width="7.993913e-02" d="M17.5,31c0.3,0,0.5,0.3,0.5,0.5c0,0.2-0.1,0.3-0.2,0.4"/>
	<path fill="none" stroke="#703D29" stroke-width="7.993913e-02" stroke-linecap="round" d="M20,28.3c0.2,0.3,0.4,0.6,0.5,1"/>
	<path fill="none" stroke="#703D29" stroke-width="7.993913e-02" stroke-linecap="round" d="M20.5,30.3c0,0.2-0.1,0.4-0.2,0.5
		c-0.1,0.2-0.3,0.4-0.4,0.6"/>
	<path fill="none" stroke="#703D29" stroke-width="7.993913e-02" d="M20,26.4c0.2,0.2,0.4,0.4,0.4,0.6"/>
	<path fill="none" stroke="#703D29" stroke-width="7.993913e-02" stroke-linecap="round" d="M20.5,25.7c-0.1,0.2-0.2,0.4-0.4,0.6"/>
	<path fill="none" stroke="#703D29" stroke-width="7.993913e-02" stroke-linecap="round" d="M18.9,24.2l0.3-0.1l0.2-0.1l0.1-0.1
		l0.1-0.2l0-0.2"/>
	<path fill="none" stroke="#703D29" stroke-width="7.993913e-02" d="M18.3,23.2c-0.1,0-0.2,0.1-0.3,0.1c-0.2,0.1-0.3,0.2-0.4,0.4
		c-0.2,0.2-0.2,0.5-0.3,0.8c0,0.1-0.1,0.5,0,0.8c0.1,0.3,0.2,0.5,0.3,0.7c0,0.1,0.1,0.1,0.1,0.2c0.2,0.2,0.3,0.3,0.6,0.2"/>
	<path fill="none" stroke="#703D29" stroke-width="7.993913e-02" stroke-linecap="round" d="M19.9,22c0,0.2-0.1,0.4-0.4,0.3"/>
	<path fill="none" stroke="#703D29" stroke-width="7.993913e-02" d="M18.9,23.1c-0.2-0.2-0.8-0.3-1.3,0c-0.1,0-0.1,0.1-0.2,0.2
		c-0.1,0.1-0.1,0.1-0.2,0.2c-0.1,0.1-0.1,0.2-0.2,0.3C17,23.9,17,24,17,24.1c-0.1,0.4-0.1,0.7-0.1,0.8c0,0.1,0,0.2,0,0.3
		c0.1,0.4,0.2,0.6,0.3,0.8c0.1,0.2,0.4,0.6,1,0.7c0.2,0,0.6-0.1,0.6-0.4"/>
	<path fill="none" stroke="#703D29" stroke-width="7.993913e-02" stroke-linecap="round" d="M33.9,17.9c0-0.2,0.3-0.2,0.4-0.1
		c0.1,0.2,0,0.5-0.2,0.6c-0.1,0-0.3,0-0.5-0.2c-0.1-0.2-0.1-0.4-0.1-0.5c0-0.1,0.1-0.2,0.2-0.3c0.3-0.3,0.9-0.2,1.1,0.2
		c0.2,0.6-0.3,1-0.7,1.3c-0.6,0.4-1.3,0.5-1.8,0.5c-1.2,0-2-0.6-2.6-0.9c-0.1-0.1-0.3-0.1-0.3,0c-0.1,0.1-0.1,0.2,0,0.3"/>
	<path fill="none" stroke="#703D29" stroke-width="7.993913e-02" stroke-linecap="round" d="M34.1,17.7c0.1,0,0.2,0.1,0.2,0.1
		c0.1,0.2,0,0.5-0.3,0.6"/>
	<path fill="none" stroke="#703D29" stroke-width="7.993913e-02" stroke-linecap="round" d="M36.3,24.9c-0.4,0.5,0,1.3,0.3,1.5
		c0.1,0.1,0.2,0,0.3,0.1"/>
	<path fill="none" stroke="#703D29" stroke-width="7.993913e-02" d="M36.3,24c-0.1,0.1-0.2,0.2-0.2,0.4c0,0.2,0,0.3,0.2,0.5
		c0.2,0.3,0.7,0.5,1.2,0.5c0.2,0,0.5,0,0.8-0.2c0.3-0.2,0.4-0.4,0.5-0.7"/>
	<path fill="none" stroke="#703D29" stroke-width="7.993913e-02" d="M36.1,32.3c0,0,0,0.2,0,0.3c0,0.4-0.1,0.6-0.3,0.9
		c-0.2,0.3-0.3,0.5-0.5,0.7c-0.2,0.2-0.4,0.4-0.7,0.5c-0.3,0.2-0.5,0.2-0.8,0.3c-0.3,0.1-0.5,0.1-0.9,0.1c-0.3,0-0.5,0-0.8,0
		c-0.3,0-0.5-0.1-0.9-0.1c-0.3,0-0.4,0-0.7,0c-0.3,0-0.4,0-0.7,0.1c-0.3,0-0.4,0.1-0.7,0.2c-0.3,0.1-0.7,0.4-0.8,0.5
		c-0.1-0.1-0.5-0.3-0.8-0.5c-0.2-0.1-0.4-0.1-0.7-0.2c-0.3,0-0.4-0.1-0.7-0.1c-0.3,0-0.4,0-0.7,0c-0.3,0-0.5,0.1-0.9,0.1
		c-0.3,0-0.5,0-0.8,0c-0.3,0-0.5,0-0.9-0.1c-0.3-0.1-0.5-0.1-0.8-0.3c-0.3-0.2-0.5-0.3-0.7-0.5c-0.2-0.2-0.4-0.4-0.5-0.7
		c-0.2-0.3-0.2-0.5-0.3-0.9c0-0.1,0-0.3,0-0.3v0V19.4h15.6L36.1,32.3L36.1,32.3L36.1,32.3z"/>
	<path fill="#C7B37F" stroke="#C7B37F" stroke-width="4.152544e-02" d="M19.2,34.1c0-0.2,0.1-0.3,0.3-0.3c0.2,0,0.3,0.1,0.3,0.3
		c0,0.2-0.1,0.3-0.3,0.3C19.4,34.4,19.2,34.3,19.2,34.1z"/>
	<path fill="#C7B37F" stroke="#C7B37F" stroke-width="4.152544e-02" d="M17.3,31.9c0-0.2,0.1-0.3,0.2-0.3c0.1,0,0.2,0.1,0.2,0.3
		c0,0.2-0.1,0.3-0.2,0.3S17.3,32,17.3,31.9z"/>
	<path fill="#C7B37F" d="M18.4,26.3c0-0.1,0.1-0.2,0.2-0.2c0.1,0,0.2,0.1,0.2,0.2c0,0.1-0.1,0.2-0.2,0.2
		C18.5,26.5,18.4,26.4,18.4,26.3z"/>
	<path fill="#C7B37F" d="M22.3,18c0-0.1,0.1-0.2,0.2-0.3c0.1,0,0.2,0.1,0.2,0.2c0,0.1-0.1,0.2-0.2,0.3C22.4,18.2,22.3,18.1,22.3,18z
		"/>
	<path fill="none" stroke="#C7B37F" stroke-width="7.993913e-02" stroke-linecap="round" d="M18.1,27.6c0,0-0.1,0-0.1,0.1
		c0,0,0,0-0.1,0.1c0,0,0,0.1,0,0.2"/>
	<path fill="none" stroke="#C7B37F" stroke-width="7.993913e-02" stroke-linecap="round" d="M18.5,31.3c0-0.1,0.1-0.1,0.1-0.1
		c0,0,0.1-0.1,0.1-0.1c0,0,0-0.1,0.1-0.1c0-0.1,0.1-0.1,0.1-0.2"/>
	<path fill="none" stroke="#C7B37F" stroke-width="7.993913e-02" stroke-linecap="round" d="M18.7,32.5c-0.1,0-0.1,0-0.2,0.1
		c-0.1,0-0.1,0-0.1,0.1c-0.1,0-0.1,0.1-0.2,0.1c-0.1,0-0.1,0.1-0.2,0.1"/>
	<path fill="none" stroke="#C7B37F" stroke-width="7.993913e-02" stroke-linecap="round" d="M20,28.1c0,0-0.1-0.1-0.1-0.1
		c0,0-0.1-0.1-0.1-0.1c0,0-0.1-0.1-0.1-0.1"/>
	<path fill="none" stroke="#C7B37F" stroke-width="7.993913e-02" d="M20,26.4c-0.1,0-0.1,0-0.2,0.1c-0.1,0-0.1,0-0.2,0"/>
	<path fill="none" stroke="#C7B37F" stroke-width="7.993913e-02" stroke-linecap="round" d="M17.9,24.4c0,0.1,0,0.1,0.1,0.2
		c0,0.1,0.1,0.1,0.1,0.2c0.1,0.1,0.1,0.1,0.2,0.2c0.1,0.1,0.1,0.1,0.2,0.1c0.1,0,0.1,0.1,0.2,0.1"/>
	<path fill="none" stroke="#C7B37F" stroke-width="7.993913e-02" stroke-linecap="round" d="M18.5,24.5c0.1,0,0.1,0.1,0.2,0.1
		c0.1,0,0.1,0,0.2,0c0.1,0,0.1,0,0.2,0c0.1,0,0.1,0,0.2,0"/>
	<path fill="none" stroke="#C7B37F" stroke-width="7.993913e-02" stroke-linecap="round" d="M20.1,19.4c-0.1-0.1-0.2-0.1-0.3-0.2
		c-0.1-0.1-0.2-0.1-0.2-0.2c-0.1-0.1-0.1-0.1-0.1-0.2c0-0.1-0.1-0.1-0.1-0.2"/>
	<path fill="none" stroke="#C7B37F" stroke-width="7.993913e-02" stroke-linecap="round" d="M20.3,18.2c0,0.1,0,0.1,0.1,0.2
		c0.1,0.1,0.1,0.2,0.2,0.3c0.1,0.1,0.2,0.2,0.3,0.3"/>
	<path fill="none" stroke="#C7B37F" stroke-width="7.993913e-02" stroke-linecap="round" d="M21.1,18.2c0,0.1,0,0.1,0.1,0.2
		c0,0.1,0.1,0.1,0.1,0.2c0.1,0.1,0.1,0.1,0.2,0.2c0.1,0.1,0.1,0.1,0.2,0.1"/>
	<path fill="#703D29" stroke="#703D29" stroke-width="2.240368e-02" d="M30,17.2c0-0.2-0.2-0.2-0.3-0.2c-0.2,0-0.3,0.1-0.6,0.3
		c-0.4,0.2-0.5,0.2-0.8,0.2c-0.3,0-0.5,0-0.9-0.2c-0.3-0.2-0.3-0.3-0.6-0.3c-0.1,0-0.3,0.1-0.3,0.3c0,0,0,0.1,0,0.1c0,0,0,0,0,0
		c0-0.1,0-0.1,0.1-0.2c0.1-0.1,0.2-0.1,0.2-0.1c0.2,0,0.3,0.1,0.6,0.3c0.4,0.2,0.5,0.2,0.8,0.2c0.3,0,0.5,0,0.9-0.2
		c0.3-0.2,0.4-0.3,0.6-0.3C29.9,17,30,17.1,30,17.2c0,0.1,0,0.1,0,0.1c0,0,0,0,0,0C30,17.3,30,17.3,30,17.2z"/>
	<path fill="#703D29" d="M21.3,35.2c0.1-0.1,0.1,0,0.1-0.1c0,0,0,0,0,0c0,0-0.1,0-0.1,0c0,0-0.1,0-0.1,0c0,0-0.1,0-0.1,0
		c0,0,0.1,0,0.1,0.2c0,0,0,0.1-0.1,0.2l-0.3,0.4c0,0,0,0,0,0c0,0,0,0,0,0l0-0.5c0-0.1,0-0.2,0-0.2c0-0.1,0.1,0,0.1,0c0,0,0,0,0,0
		c0,0-0.1,0-0.1,0c0,0-0.1,0-0.1-0.1c0,0-0.1,0-0.1,0c0,0,0,0,0,0c0,0,0.1,0.1,0.1,0.1l0,0.9c0,0.1,0,0.1,0,0.1c0,0,0,0,0.1,0
		L21.3,35.2L21.3,35.2z"/>
	<path fill="#703D29" d="M21.7,35.3c0-0.1,0.1-0.1,0.1-0.1c0,0,0,0,0,0c-0.1,0-0.1,0-0.2,0c0,0-0.1,0-0.1-0.1c0,0,0,0-0.1,0
		c0,0.1,0.1,0.1,0.1,0.2L21.3,36c0,0.1-0.1,0.1-0.1,0.1c0,0,0,0,0,0c0,0,0.1,0,0.1,0c0.1,0,0.1,0.1,0.2,0.1c0,0,0,0,0,0
		c0,0-0.2,0-0.1-0.2L21.7,35.3L21.7,35.3z"/>
	<path fill="#703D29" d="M22.2,35.5c0-0.1,0.1-0.1,0.1-0.1c0.1,0,0.2,0.2,0.1,0.3c0,0.1-0.1,0.2-0.3,0.1c0,0-0.1,0-0.1-0.1
		L22.2,35.5L22.2,35.5z M21.8,36.1c-0.1,0.2-0.1,0.1-0.2,0.1c0,0,0,0,0,0c0.1,0,0.1,0,0.2,0.1c0.1,0,0.1,0,0.1,0c0,0,0,0,0,0
		c0-0.1-0.1,0-0.1-0.2l0.1-0.3c0-0.1,0-0.1,0.1,0c0.1,0,0.1,0,0.1,0.1l0,0.3c0,0.1,0,0.2,0.1,0.2c0.1,0,0.1,0,0.2,0c0,0,0,0,0,0
		c0,0,0,0,0,0c0,0,0,0,0,0c0-0.2-0.1-0.5-0.1-0.5c0,0,0,0,0.1,0c0,0,0.1-0.1,0.1-0.2c0-0.1,0.1-0.3-0.2-0.4c-0.1,0-0.2,0-0.3-0.1
		c-0.1,0-0.1,0-0.2-0.1c0,0,0,0,0,0c0,0.1,0.1,0,0.1,0.2L21.8,36.1L21.8,36.1z"/>
	<path fill="#703D29" d="M22.9,36.4c0,0.2-0.2,0.1-0.2,0.1c0,0,0,0,0,0c0.1,0,0.1,0,0.2,0c0.1,0,0.1,0,0.2,0.1c0,0,0.1,0,0.1,0
		c0,0-0.2,0-0.1-0.2l0.2-0.7c0-0.1,0-0.1,0.1-0.1l0.1,0c0.2,0,0.1,0.2,0.1,0.2c0,0,0-0.1,0-0.1l0-0.1c0,0,0,0,0,0
		c-0.1,0-0.2,0-0.4-0.1c-0.2,0-0.3-0.1-0.4-0.1c0,0,0,0,0,0l-0.1,0.2c0,0,0,0,0,0.1c0.1,0,0.1-0.2,0.2-0.2l0.1,0c0.1,0,0.1,0,0,0.1
		L22.9,36.4L22.9,36.4z"/>
	<path fill="#703D29" d="M24.5,36c0.1-0.1,0.1-0.1,0.1-0.1c0,0,0,0,0,0c0,0-0.1,0-0.1,0c0,0-0.1,0-0.1,0c0,0-0.1,0-0.1,0
		c0,0.1,0.1,0,0.1,0.2c0,0,0,0.1-0.1,0.2L24,36.6c0,0,0,0,0,0c0,0,0,0,0,0l-0.1-0.5c0-0.1,0-0.2,0-0.2c0-0.1,0.1,0,0.1-0.1
		c0,0,0,0,0,0c0,0-0.1,0-0.1,0c0,0-0.1,0-0.1,0c0,0-0.1,0-0.1,0c0,0,0,0,0,0c0.1,0,0.1,0,0.1,0.1l0.2,0.9c0,0.1,0,0.1,0,0.1
		c0,0,0,0,0,0L24.5,36L24.5,36z"/>
	<path fill="#703D29" d="M24.6,36.8C24.6,36.9,24.6,36.9,24.6,36.8c0.1,0.1,0.2,0.1,0.2,0.2c0.2,0,0.3-0.1,0.4-0.3
		c0-0.2,0-0.3-0.2-0.4c-0.2-0.1-0.2-0.1-0.2-0.2c0-0.1,0.1-0.1,0.2-0.1c0.2,0,0.2,0.3,0.2,0.3c0,0,0,0,0,0l0-0.2c0,0,0-0.1,0-0.1
		c0,0-0.1,0-0.1,0c0,0-0.1-0.1-0.2-0.1c-0.2,0-0.3,0.1-0.3,0.3c0,0.2,0,0.2,0.1,0.3c0.2,0.1,0.3,0.2,0.3,0.3c0,0.1-0.1,0.2-0.2,0.2
		c-0.1,0-0.2-0.2-0.2-0.3c0,0,0,0,0,0c0,0,0,0,0,0.1L24.6,36.8z"/>
	<path fill="#703D29" d="M26.6,36.3c0-0.1,0.1-0.1,0.1-0.1c0,0,0,0,0,0c0,0-0.1,0-0.1,0c0,0-0.1,0-0.1,0c0,0-0.1,0-0.1,0
		c0,0.1,0.1,0,0.1,0.1c0,0,0,0.1-0.1,0.2l-0.2,0.4c0,0,0,0,0,0c0,0,0,0,0,0L26,36.4c0-0.1,0-0.2,0-0.2c0-0.1,0.1,0,0.1-0.1
		c0,0,0,0,0,0c0,0-0.1,0-0.1,0c0,0-0.1,0-0.1,0c0,0-0.1,0-0.1,0c0,0,0,0,0,0c0.1,0,0.1,0,0.1,0.1l0.3,0.9c0,0.1,0,0.1,0,0.1
		c0,0,0,0,0,0L26.6,36.3L26.6,36.3z"/>
	<path fill="#703D29" d="M26.8,37c0,0.2-0.1,0.1-0.1,0.2c0,0,0,0,0,0c0,0,0.1,0,0.1,0c0,0,0.1,0,0.2,0c0,0,0.1,0,0.1,0
		C27,37.1,26.8,37.2,26.8,37l0.1-0.6c0,0,0,0,0,0c0,0,0,0,0,0l0.6,0.8c0,0,0,0,0,0c0,0,0,0,0,0l0-0.8c0-0.2,0.1-0.1,0.1-0.2
		c0,0,0,0,0,0c0,0-0.1,0-0.1,0c-0.1,0-0.1,0-0.2,0c0,0,0,0,0,0c0,0,0.2,0,0.2,0.2l0,0.5c0,0,0,0.1,0,0.1c0,0,0,0,0,0l-0.5-0.7
		c0,0,0,0-0.1,0c-0.1,0-0.1,0-0.1,0c0,0-0.1,0-0.1,0c0,0,0,0,0,0c0,0.1,0.2,0,0.1,0.3L26.8,37L26.8,37z"/>
	<path fill="#703D29" d="M28.1,36.3c0-0.1,0.1-0.1,0.1-0.1c0,0,0,0,0,0c-0.1,0-0.1,0-0.2,0c0,0-0.1,0-0.2,0c0,0,0,0,0,0
		c0,0.1,0.1,0,0.1,0.1l0,0.7c0,0.1-0.1,0.1-0.1,0.2c0,0,0,0,0,0c0,0,0.1,0,0.2,0c0.1,0,0.2,0,0.2,0c0,0,0,0,0,0c0,0-0.2,0-0.2-0.2
		L28.1,36.3L28.1,36.3z"/>
	<path fill="#703D29" d="M28.7,37c0,0.2-0.2,0.1-0.2,0.2c0,0,0,0,0,0c0.1,0,0.1,0,0.2,0c0.1,0,0.1,0,0.2,0c0,0,0.1,0,0.1,0
		c0,0-0.2,0-0.2-0.2l0-0.7c0-0.1,0-0.1,0.1-0.1l0.1,0c0.2,0,0.1,0.2,0.2,0.2c0,0,0-0.1,0-0.1l0-0.1c0,0,0,0,0,0c-0.1,0-0.2,0-0.4,0
		c-0.2,0-0.3,0-0.4,0c0,0,0,0,0,0l0,0.2c0,0,0,0.1,0,0.1c0.1,0,0-0.2,0.2-0.2l0.1,0c0.1,0,0.1,0,0.1,0.1L28.7,37L28.7,37z"/>
	<path fill="#703D29" d="M29.5,36.7C29.4,36.8,29.4,36.8,29.5,36.7C29.4,36.7,29.4,36.7,29.5,36.7l0-0.3c0,0,0,0,0,0c0,0,0,0,0,0
		l0.1,0.3c0,0,0,0,0,0.1c0,0,0,0,0,0L29.5,36.7L29.5,36.7z M29.7,36.8c0,0,0,0,0.1,0.1c0,0,0,0.1,0,0.1c0,0.1-0.1,0.1-0.1,0.1
		c0,0,0,0,0,0c0,0,0.1,0,0.1,0c0.1,0,0.1,0,0.2,0c0,0,0,0,0,0c0,0-0.1,0-0.1-0.1l-0.4-0.9c0,0,0,0,0,0c0,0,0,0,0,0.1l-0.3,0.9
		c0,0.1-0.1,0.1-0.1,0.1c0,0,0,0,0,0c0,0,0.1,0,0.1,0c0,0,0.1,0,0.1,0c0,0,0.1,0,0.1,0c0,0-0.1,0-0.2-0.1c0,0,0-0.1,0-0.1
		c0-0.1,0.1-0.1,0.1-0.1L29.7,36.8L29.7,36.8z"/>
	<path fill="#703D29" d="M30.7,36.2c0-0.1,0-0.1,0.2-0.1c0.3,0,0.2,0.2,0.2,0.1c0,0,0-0.1,0-0.1l0-0.1c0,0,0,0,0,0
		c-0.1,0-0.2,0-0.3,0c-0.2,0-0.3,0-0.4,0c0,0,0,0,0,0c0,0.1,0.2,0,0.2,0.1l0.1,0.7c0,0.2-0.1,0.1-0.1,0.2c0,0,0,0,0,0
		c0.1,0,0.1,0,0.2,0c0.1,0,0.1,0,0.2,0c0,0,0.1,0,0.1,0c0,0-0.2,0-0.2-0.1l0-0.2c0-0.1,0-0.1,0-0.1l0.1,0c0.1,0,0.1,0.1,0.2,0.1
		c0,0,0-0.1,0-0.1l0-0.3c0,0,0,0,0,0c0,0,0,0.1-0.1,0.2l-0.1,0c-0.1,0-0.1,0-0.1-0.1L30.7,36.2L30.7,36.2z"/>
	<path fill="#703D29" d="M31.2,36.5c0.1,0.3,0.3,0.5,0.5,0.4c0.4-0.1,0.4-0.5,0.4-0.7c-0.1-0.3-0.3-0.5-0.6-0.4
		C31.3,35.9,31.2,36.2,31.2,36.5L31.2,36.5z M31.4,36.4c0-0.2,0-0.4,0.2-0.5c0.2,0,0.4,0.1,0.4,0.4c0,0.2,0,0.5-0.2,0.5
		C31.6,36.9,31.4,36.6,31.4,36.4L31.4,36.4z"/>
	<path fill="#703D29" d="M32.4,35.9c0-0.1,0-0.1,0.1-0.1c0.1,0,0.2,0.1,0.3,0.2c0,0.1,0,0.2-0.2,0.2c0,0-0.1,0-0.1,0L32.4,35.9
		L32.4,35.9z M32.4,36.6c0,0.2-0.1,0.2-0.1,0.2c0,0,0,0,0,0c0.1,0,0.1,0,0.2-0.1c0.1,0,0.1,0,0.1,0c0,0,0,0,0,0c0-0.1-0.1,0-0.2-0.1
		l-0.1-0.3c0-0.1,0-0.1,0-0.1c0.1,0,0.1,0,0.1,0l0.2,0.2c0.1,0.1,0.1,0.2,0.2,0.1c0.1,0,0.1-0.1,0.1-0.1c0,0,0,0,0,0c0,0,0,0,0,0
		c0,0,0,0-0.1,0c-0.1-0.2-0.3-0.3-0.3-0.4c0,0,0,0,0.1-0.1c0,0,0.1-0.1,0-0.2c0-0.1-0.1-0.3-0.4-0.2c-0.1,0-0.2,0-0.3,0.1
		c-0.1,0-0.1,0-0.2,0c0,0,0,0,0,0c0,0.1,0.1,0,0.2,0.1L32.4,36.6L32.4,36.6z"/>
	<path fill="#703D29" d="M33.5,36.4c0,0.2-0.1,0.1-0.1,0.2c0,0,0,0,0.1,0c0.1,0,0.1,0,0.2-0.1c0.1,0,0.1,0,0.2,0c0,0,0.1,0,0.1,0
		c0,0-0.2,0-0.2-0.1l-0.2-0.7c0-0.1,0-0.1,0-0.1l0.1,0c0.1,0,0.1,0.1,0.2,0.1c0,0,0-0.1,0-0.1l0-0.1c0,0,0,0,0,0
		c-0.1,0-0.2,0.1-0.4,0.1c-0.2,0-0.3,0.1-0.4,0.1c0,0,0,0,0,0l0,0.2c0,0,0,0.1,0,0c0.1,0,0-0.2,0.1-0.2l0.1,0c0.1,0,0.1,0,0.1,0.1
		L33.5,36.4L33.5,36.4z"/>
	<path fill="#703D29" d="M34.2,35.4c0-0.1,0.1-0.1,0.1-0.2c0,0,0,0-0.1,0c-0.1,0-0.1,0-0.2,0.1c0,0-0.1,0-0.1,0c0,0,0,0,0,0
		c0,0.1,0.2,0,0.2,0.1l0.2,0.7c0,0.1-0.1,0.1-0.1,0.2c0,0,0,0,0,0c0,0,0.1,0,0.1,0c0.1,0,0.2,0,0.2,0c0,0,0,0,0,0
		c0,0-0.1,0.1-0.2-0.1L34.2,35.4L34.2,35.4z"/>
	<path fill="#703D29" d="M34.5,35.8c0.1,0.3,0.3,0.4,0.6,0.3c0.4-0.1,0.4-0.5,0.3-0.7c-0.1-0.3-0.4-0.4-0.6-0.3
		C34.5,35.2,34.4,35.5,34.5,35.8L34.5,35.8z M34.6,35.6c-0.1-0.2-0.1-0.4,0.1-0.5c0.2-0.1,0.4,0.1,0.5,0.4c0.1,0.2,0.1,0.5-0.1,0.5
		C34.9,36.1,34.7,35.8,34.6,35.6z"/>
	<path fill="#703D29" d="M35.6,35c0-0.1,0-0.1,0.1-0.1c0.1-0.1,0.2,0,0.3,0.2c0,0.1,0.1,0.2-0.1,0.2c0,0-0.1,0-0.1,0L35.6,35
		L35.6,35z M35.7,35.7c0.1,0.2-0.1,0.2,0,0.2c0,0,0,0,0,0c0.1,0,0.1-0.1,0.2-0.1c0.1,0,0.1,0,0.1,0c0,0,0,0,0,0
		c0-0.1-0.1,0.1-0.2-0.1l-0.1-0.2c0,0,0-0.1,0-0.1c0.1,0,0.1,0,0.1,0l0.2,0.2c0.1,0.1,0.1,0.1,0.2,0.1c0.1,0,0.1-0.1,0.1-0.1
		c0,0,0,0,0,0c0,0,0,0,0,0c0,0,0,0-0.1,0c-0.2-0.1-0.3-0.3-0.4-0.3c0,0,0,0,0.1-0.1c0,0,0-0.1,0-0.2c0-0.1-0.1-0.3-0.4-0.1
		c-0.1,0-0.2,0.1-0.3,0.1c-0.1,0-0.1,0-0.2,0.1c0,0,0,0,0,0c0,0.1,0.1-0.1,0.2,0.1L35.7,35.7L35.7,35.7z"/>
	<path fill="#D52B1E" d="M21.3,20.2h6.7v6.6h-6.7L21.3,20.2z"/>
	<path id="mits" fill="#FFFFFF" d="M24.4,25.4c0,0,0,0.2-0.1,0.4c-0.1,0.2-0.1,0.2-0.1,0.3c-0.1,0.1-0.2,0.2-0.3,0.3
		c-0.2,0.1-0.3,0.2-0.5,0.1c-0.4,0-0.7-0.5-0.8-0.9c-0.1-0.4-0.4-0.6-0.6-0.5c-0.1,0.1-0.1,0.2,0,0.4c0.1,0.2,0.3,0.2,0.3,0.2
		l-0.2,0.3c0,0-0.5-0.1-0.6-0.6c0-0.2,0.1-0.6,0.4-0.7c0.4-0.1,0.7,0.2,0.8,0.4c0.2,0.4,0.3,1,0.8,0.9c0.3-0.1,0.4-0.5,0.4-0.6
		l0.2-0.2L24.4,25.4L24.4,25.4L24.4,25.4z"/>
	<path id="mits_1_" fill="#FFFFFF" d="M24.8,25.4c0,0,0,0.2,0.1,0.4c0.1,0.2,0.1,0.2,0.1,0.3c0.1,0.1,0.2,0.2,0.3,0.3
		c0.2,0.1,0.3,0.2,0.5,0.1c0.4,0,0.7-0.5,0.8-0.9c0.1-0.4,0.4-0.6,0.6-0.5c0.1,0.1,0.1,0.2,0,0.4c-0.1,0.2-0.3,0.2-0.3,0.2l0.2,0.3
		c0,0,0.5-0.1,0.6-0.6c0-0.2-0.1-0.6-0.4-0.7c-0.4-0.1-0.7,0.2-0.8,0.4c-0.2,0.4-0.3,1-0.8,0.9c-0.3-0.1-0.4-0.5-0.4-0.6l-0.2-0.2
		L24.8,25.4L24.8,25.4L24.8,25.4z"/>
	<path fill="#FEDF00" d="M25.2,22.6l0.9-0.9c0,0,0.1-0.1,0.1-0.3l-0.2,0l0-0.1l0-0.1l0.2-0.1c0,0,0-0.1,0-0.1c0,0,0-0.1,0-0.1L26,21
		c0,0,0-0.1,0-0.1c0,0,0-0.1,0-0.1c0,0,0.1,0,0.2,0c0.1,0,0.1,0,0.2,0c0.1-0.3,0.7-0.5,1.2-0.1c0.3,0.3,0.2,0.9-0.2,1.1
		c-0.2,0.1-0.4,0-0.6-0.1l0.2-0.3c0.2,0.1,0.4,0,0.4-0.2c0-0.2-0.2-0.3-0.4-0.4c-0.2,0-0.3,0.1-0.4,0.3c-0.1,0.1,0,0.2,0,0.3
		c0,0.1,0,0.2,0,0.3c0,0.1-0.1,0.2-0.2,0.3l-0.9,1L22,26.6l-0.3-0.2L25.2,22.6L25.2,22.6z"/>
	<path fill="#FFFFFF" d="M22.6,22.9c0,0,0.2,1.1,1,2.7c0.4-0.1,0.6-0.2,1-0.2c0.4,0,0.6,0.1,1,0.2c0.7-1.6,1-2.7,1-2.7l-2-2.5
		L22.6,22.9z"/>
	<path fill="#FEDF00" d="M24.8,21.3l1.4,1.8c0,0-0.2,0.9-0.7,2.1c-0.2,0-0.4-0.1-0.6-0.1L24.8,21.3L24.8,21.3z"/>
	<path fill="#FEDF00" d="M24.4,21.3L23,23c0,0,0.2,0.9,0.7,2.1c0.2,0,0.4-0.1,0.6-0.1L24.4,21.3L24.4,21.3z"/>
	<path fill="#FEDF00" d="M28.6,20.2h6.7v6.6h-6.7L28.6,20.2z"/>
	<path fill="#D52B1E" d="M29.6,20.2h1v6.6h-1V20.2z"/>
	<path fill="#D52B1E" d="M31.5,20.2h1v6.6h-1V20.2z"/>
	<path fill="#D52B1E" d="M33.4,20.2h1v6.6h-1V20.2z"/>
	<path fill="#FEDF00" d="M21.3,32.6c0,0.1,0.1,0.3,0.2,0.5c0.1,0.2,0.1,0.2,0.3,0.5c0.1,0.1,0.3,0.3,0.5,0.4
		c0.2,0.1,0.3,0.1,0.6,0.2c0.5,0.1,0.9,0.1,1.3,0.1c0.3,0,0.6-0.1,0.8-0.1c0.3,0,0.5-0.1,0.9-0.1c0.2,0,0.3,0,0.5,0
		c0.2,0,0.4,0,0.6,0.1c0.4,0.1,0.9,0.3,0.9,0.3l0-6.9l-6.7,0v4.7C21.3,32.3,21.3,32.5,21.3,32.6L21.3,32.6z"/>
	<path fill="#D52B1E" stroke="#D52B1E" stroke-width="4.154891e-02" d="M22.1,33.8l0.3,0.2l0.4,0.2l0-6.6h-0.7L22.1,33.8z"/>
	<path fill="#D52B1E" stroke="#D52B1E" stroke-width="4.154891e-02" d="M25.8,34.1l0-6.6H25v6.7C25,34.2,25.5,34.1,25.8,34.1
		L25.8,34.1z"/>
	<path fill="#D52B1E" stroke="#D52B1E" stroke-width="4.154891e-02" d="M27.2,27.5h-0.7v6.6c0.2,0,0.5,0.1,0.7,0.1L27.2,27.5
		L27.2,27.5z"/>
	<path fill="#D52B1E" stroke="#D52B1E" stroke-width="4.154891e-02" d="M24.3,27.5v6.7c0,0-0.5,0-0.7,0l0-6.7L24.3,27.5z"/>
	<path fill="#FEDF00" d="M35.3,32.6c0,0.1-0.1,0.3-0.2,0.5c-0.1,0.2-0.1,0.2-0.3,0.5c-0.1,0.1-0.3,0.3-0.5,0.4
		c-0.2,0.1-0.3,0.1-0.6,0.2c-0.5,0.1-0.9,0.1-1.3,0.1c-0.3,0-0.6-0.1-0.8-0.1c-0.3,0-0.5-0.1-0.9-0.1c-0.2,0-0.3,0-0.5,0
		c-0.2,0-0.4,0-0.6,0.1c-0.4,0.1-0.9,0.3-0.9,0.3l0-6.9l6.7,0v4.7C35.3,32.3,35.3,32.5,35.3,32.6L35.3,32.6z"/>
	<path fill="#D52B1E" d="M30.3,28.1C30.3,28.1,30.3,28.1,30.3,28.1c-0.1,0-0.1,0.1-0.1,0.1c0,0-0.1,0-0.1,0.1c0,0,0,0,0,0
		c0,0,0,0.1,0,0.1c0,0,0,0-0.1,0.1c0,0-0.1,0-0.1,0.1c0,0,0,0.1-0.1,0.1c0,0,0,0,0,0c0,0,0,0,0,0c0,0,0,0-0.1,0.1c0,0,0,0,0,0
		c0,0,0.1,0.1,0.1,0.1c0,0,0,0.1,0,0.1c0,0,0.1,0,0.1,0c0.1,0,0.1,0,0.2,0c0,0,0.1,0,0.1,0.1c0,0,0.1,0,0.1,0c0,0,0,0,0.1,0
		c0,0,0,0,0.1,0c0,0,0,0,0,0l0,0v0v0h0l0.2,0.1c0,0,0,0,0,0c0,0,0,0.1,0,0.1c0.1,0.2,0.1,0.2,0.1,0.3c0,0,0.1,0.1,0.1,0.1
		c0,0,0,0,0,0c0,0-0.1,0.1-0.1,0.1c-0.1,0.1-0.1,0.1,0,0.2c0,0.1,0.1,0.1,0.1,0.2c0,0.1,0,0.1,0.1,0.2c0,0.1,0,0.1,0,0.2l0.1,0
		l0.1-0.1l0.1-0.1l0-0.1c0,0,0,0,0-0.1c0,0,0,0,0.1-0.1c0,0,0-0.1-0.1-0.1c0-0.1-0.1-0.1-0.1-0.1c0,0,0,0,0-0.1
		c0.1-0.1,0.1-0.1,0.2-0.1c0,0,0,0,0.1,0c0,0,0,0,0.1,0c0,0,0.1,0,0.1,0l0,0c0,0,0,0,0,0.1c0,0.1,0,0.2,0,0.3c0,0,0,0,0,0
		c0,0,0,0,0,0.1c0,0.1,0,0.1,0,0.2c0,0.1,0,0.1,0,0.1c0,0,0,0.1,0,0.1c0,0,0,0-0.1,0.1l0,0.1l0.1,0l0.1,0l0.1,0c0,0,0,0,0-0.1
		c0,0,0,0,0,0c0,0,0.1,0,0.1,0c0,0,0,0,0-0.1c0-0.1,0-0.1,0-0.1c0-0.1,0-0.1,0-0.2c0,0,0-0.1,0-0.1c0-0.1,0-0.1,0.1-0.2
		c0-0.1,0-0.1,0-0.2c0.3,0,0.5,0,0.8,0c0,0,0.1,0,0.1,0c0.1,0.1,0.1,0.1,0.2,0.1c0,0,0,0.1,0,0.1c0,0,0,0,0,0.1c0,0,0,0,0,0
		c0,0,0,0,0.1,0c0,0,0,0,0-0.1c0,0,0,0,0-0.1c0,0,0,0,0.1,0c0,0,0,0,0.1,0c0,0,0,0,0,0c0,0,0,0,0,0.1c0,0,0,0,0,0c0,0,0,0,0,0
		c0,0,0,0,0-0.1c0,0,0-0.1,0-0.1c0,0,0.1,0,0.1,0c0,0,0,0,0,0.1c0,0,0,0,0,0.1c0,0,0,0.1-0.1,0.1c0,0.1,0,0.1-0.1,0.1c0,0,0,0,0,0.1
		c0,0,0,0,0,0.1c0,0,0,0.1-0.1,0.1c-0.1,0-0.1,0-0.2,0.1l0,0.1l0.1,0l0.1,0l0,0c0,0,0,0,0-0.1c0,0,0,0,0.1,0c0,0,0.1,0,0.1,0
		c0,0,0-0.1,0.1-0.1c0.1-0.1,0.1-0.2,0.2-0.3c0,0,0.1-0.1,0.1-0.1c0,0,0,0,0-0.1c0,0,0,0,0-0.1c0,0,0-0.1,0-0.1
		c0.1,0.1,0.1,0.1,0.1,0.1c0,0,0,0.1,0,0.1c0,0.1,0,0.1,0,0.2c0,0.1,0,0.1,0,0.2c0,0.1,0,0.1,0,0.2c0,0.1,0,0.1-0.1,0.1c0,0,0,0,0,0
		l0,0.1l0.1,0l0.1,0l0,0c0-0.1,0-0.1,0-0.1c0,0,0.1,0,0.1,0c0,0,0,0,0-0.1c0-0.2,0-0.3,0.1-0.4c0-0.1,0-0.1,0-0.2c0-0.1,0,0,0-0.1
		c0.1-0.2,0-0.2-0.1-0.3c0-0.1-0.1-0.1-0.1-0.1c0-0.1,0-0.1,0-0.2c0-0.1,0-0.2,0-0.2c0,0,0,0,0,0C34,29,34,29,34.1,28.9
		c0,0,0-0.1,0-0.1c0,0,0-0.1,0-0.1c0,0,0-0.1,0-0.1c0,0,0,0,0-0.1c-0.1-0.1-0.1-0.1-0.2-0.1c-0.1,0-0.2,0-0.3,0c-0.1,0-0.2,0-0.3,0
		c-0.2,0-0.3,0-0.4,0.1c-0.2,0-0.2,0-0.4,0c-0.2,0-0.4,0-0.5,0c-0.2,0-0.2,0.1-0.5,0.1c-0.2,0-0.3,0-0.3,0l-0.2-0.1
		c0.1,0,0.1,0,0.1-0.1c0,0,0-0.1,0-0.1c0,0,0-0.1,0.1-0.1c0,0-0.1,0-0.1,0c0,0,0,0-0.1,0c0,0-0.1,0-0.1,0c0,0-0.1,0-0.1,0
		c0,0-0.1-0.1-0.2-0.1C30.5,28.1,30.5,28.1,30.3,28.1L30.3,28.1z M30.5,29.1L30.5,29.1C30.5,29.1,30.5,29.1,30.5,29.1L30.5,29.1
		L30.5,29.1z"/>
	<path fill="none" stroke="#FEDF00" stroke-width="7.993913e-02" stroke-linecap="round" d="M33.9,29.1L33.9,29.1
		c-0.1,0.1-0.2,0.1-0.3,0.1c-0.2,0-0.3-0.1-0.6-0.1c-0.1,0-0.2,0.1-0.3,0.1c-0.1,0-0.1,0-0.1,0l0-0.1c0,0-0.1,0-0.2,0
		c0,0-0.1,0-0.1,0l0.1-0.1c0,0-0.1,0-0.1,0c0,0-0.1,0-0.1-0.1c0.1,0,0.1,0,0.1,0c0.1,0,0.2-0.1,0.3-0.1c0.1,0,0.2,0,0.6,0.1
		c0.2,0,0.4,0,0.4,0c0.1,0,0.1-0.1,0.1-0.1c0-0.1,0-0.1-0.1-0.1c0,0,0,0-0.1,0"/>
	<path fill="#FCD900" stroke="#FEDF00" stroke-width="4.154891e-02" d="M30.4,28.4c0,0-0.1,0-0.1,0c0,0,0,0.1-0.1,0.1
		c0,0,0.1,0,0.1,0C30.3,28.5,30.3,28.5,30.4,28.4C30.4,28.5,30.4,28.4,30.4,28.4L30.4,28.4L30.4,28.4z"/>
	<path fill="none" stroke="#FEDF00" stroke-width="7.993913e-02" stroke-linecap="round" d="M31.3,29.5
		C31.3,29.5,31.3,29.5,31.3,29.5c0.1,0.1,0.1,0.1,0.1,0.2c0,0.1,0,0.1,0,0.2c0,0,0,0,0,0l0,0.1"/>
	<path fill="none" stroke="#FEDF00" stroke-width="7.993913e-02" stroke-linecap="round" d="M31.9,29.4c0,0,0,0.1,0,0.1
		c0,0.1-0.1,0.2-0.1,0.3c0,0,0,0,0,0.1"/>
	<path fill="none" stroke="#FEDF00" stroke-width="7.993913e-02" stroke-linecap="round" d="M30.9,29.5c0.1,0,0,0.3,0.1,0.3"/>
	<path fill="none" stroke="#FEDF00" stroke-width="7.993913e-02" d="M33.2,29.9L33.2,29.9c0.1-0.1,0.2-0.1,0.2-0.2"/>
	<path fill="none" stroke="#FEDF00" stroke-width="7.993913e-02" stroke-linecap="round" d="M32.6,29.8L32.6,29.8
		c0.3-0.1,0.5-0.2,0.6-0.2"/>
	<path fill="none" stroke="#FEDF00" stroke-width="7.993913e-02" stroke-linecap="round" d="M32.9,29.4
		C32.9,29.4,32.9,29.4,32.9,29.4c0.2,0,0.2,0.1,0.3,0.1c0.2,0.1,0.2,0.2,0.3,0.3c0,0,0,0,0,0l0.1,0"/>
	<path fill="#FCD900" stroke="#FEDF00" stroke-width="4.154891e-02" d="M29.8,28.7C29.8,28.7,29.8,28.7,29.8,28.7c0.1,0,0.1,0,0.1,0
		c0,0,0,0,0.1,0c0,0,0,0,0,0c0,0,0,0,0,0c0,0,0,0,0,0c0,0,0,0,0,0c0,0,0,0,0,0C29.9,28.8,29.9,28.8,29.8,28.7
		C29.8,28.7,29.8,28.7,29.8,28.7L29.8,28.7z"/>
	<path fill="#0065BD" d="M30.4,29.5c-0.1,0-0.2-0.1-0.2-0.1c0,0,0,0,0.1,0c0,0,0-0.1,0-0.1c0,0,0-0.1,0.1-0.1c0,0,0.1,0,0.1,0
		c0,0,0.1,0,0.1,0.1c0,0,0,0.1,0,0.1c0,0,0,0.1,0,0.1c0,0,0,0,0,0.1C30.5,29.5,30.4,29.5,30.4,29.5L30.4,29.5z"/>
	<path fill="#0065BD" d="M30.3,29.6C30.3,29.5,30.3,29.5,30.3,29.6c0.1-0.1,0.1,0,0.1,0C30.4,29.6,30.4,29.6,30.3,29.6
		C30.3,29.6,30.3,29.6,30.3,29.6z"/>
	<path fill="#0065BD" d="M30.2,28.2C30.2,28.2,30.2,28.2,30.2,28.2C30.1,28.2,30.1,28.2,30.2,28.2c-0.1-0.1-0.1-0.2-0.1-0.2
		c0,0,0-0.1,0-0.1c0,0,0,0,0-0.1c0,0,0,0,0-0.1c0,0,0,0,0,0c0,0,0,0,0,0c0,0,0.1,0,0.1,0c0,0,0,0,0.1,0.1c0,0,0,0.1,0,0.1
		c0,0,0,0,0,0.1c0,0,0,0,0,0.1l0,0C30.3,28.1,30.3,28.2,30.2,28.2C30.2,28.2,30.2,28.2,30.2,28.2L30.2,28.2L30.2,28.2z"/>
	<path fill="#0065BD" d="M30.5,29.1l0.2,0.1c0.1-0.1,0.2-0.2,0.3-0.3c0.1-0.1,0.1-0.2,0.1-0.3l-0.1,0l0,0c0,0.1-0.1,0.2-0.1,0.3
		C30.7,28.9,30.6,29,30.5,29.1L30.5,29.1L30.5,29.1z"/>
	<path fill="#0065BD" d="M30.9,30.6c0,0,0-0.1,0.1-0.1c0,0,0.1-0.1,0.1-0.1c0,0,0,0,0,0c0,0,0,0.1,0,0.1c0,0,0,0.1,0,0.1
		c0,0,0,0.1,0,0.1c0,0,0,0,0,0C30.9,30.7,30.9,30.6,30.9,30.6L30.9,30.6z"/>
	<path fill="#0065BD" d="M33.5,30.7c0,0,0.1,0,0.1,0c0,0,0.1,0,0.1,0.1c0,0,0,0,0,0c0,0-0.1,0-0.1,0c0,0-0.1,0-0.1,0
		c0,0-0.1,0-0.1,0c0,0,0,0-0.1,0C33.5,30.8,33.5,30.7,33.5,30.7L33.5,30.7z"/>
	<path fill="#0065BD" d="M32.7,30.5c0,0,0.1,0,0.1,0c0,0,0.1,0,0.1,0.1c0,0,0,0,0,0c0,0-0.1,0-0.1,0c0,0-0.1,0-0.1,0
		c0,0-0.1,0-0.1,0c0,0,0,0-0.1,0C32.7,30.6,32.7,30.6,32.7,30.5L32.7,30.5z"/>
	<path fill="#0065BD" d="M31.3,30.7c0,0,0.1,0,0.1,0c0,0,0.1,0,0.1,0.1c0,0,0,0,0,0c0,0-0.1,0-0.1,0c0,0-0.1,0-0.1,0
		c0,0-0.1,0-0.1,0c0,0,0,0-0.1,0C31.3,30.8,31.3,30.7,31.3,30.7L31.3,30.7z"/>
	<path fill="#0065BD" d="M30.6,28.3c0,0-0.1-0.1-0.1-0.1c0,0,0,0,0,0c0,0,0,0,0-0.1c0,0,0,0,0-0.1c0,0,0-0.1,0-0.1
		c0-0.1,0-0.1,0-0.1c0,0,0.1,0,0.1,0c0,0,0,0,0,0.1c0,0,0,0.1,0,0.1c0,0,0,0.1,0.1,0.1c0,0,0,0.1,0,0.1c0,0,0,0.1,0,0.1
		c0,0,0,0,0,0.1C30.7,28.3,30.7,28.3,30.6,28.3C30.6,28.3,30.6,28.3,30.6,28.3L30.6,28.3z"/>
	<path fill="#D52B1E" d="M30.3,31.1C30.3,31.1,30.3,31.1,30.3,31.1c-0.1,0-0.1,0.1-0.1,0.1c0,0-0.1,0-0.1,0.1c0,0,0,0,0,0
		c0,0,0,0.1,0,0.1c0,0,0,0-0.1,0.1c0,0-0.1,0-0.1,0.1c0,0,0,0.1-0.1,0.1c0,0,0,0,0,0c0,0,0,0,0,0c0,0,0,0-0.1,0.1c0,0,0,0,0,0
		c0,0,0.1,0.1,0.1,0.1c0,0,0,0.1,0,0.1c0,0,0.1,0,0.1,0c0.1,0,0.1,0,0.2,0c0,0,0.1,0,0.1,0.1c0,0,0.1,0,0.1,0c0,0,0,0,0.1,0
		c0,0,0,0,0.1,0c0,0,0,0,0,0l0,0v0v0h0l0.2,0.1c0,0,0,0,0,0c0,0,0,0.1,0,0.1c0.1,0.2,0.1,0.2,0.1,0.3c0,0,0.1,0.1,0.1,0.1
		c0,0,0,0,0,0c0,0-0.1,0.1-0.1,0.1c-0.1,0.1-0.1,0.1,0,0.2c0,0.1,0.1,0.1,0.1,0.2c0,0.1,0,0.1,0.1,0.2c0,0.1,0,0.1,0,0.2l0.1,0
		l0.1-0.1l0.1-0.1l0-0.1c0,0,0,0,0-0.1c0,0,0,0,0.1-0.1c0,0,0-0.1-0.1-0.1c0-0.1-0.1-0.1-0.1-0.1c0,0,0,0,0-0.1
		c0.1-0.1,0.1-0.1,0.2-0.1c0,0,0,0,0.1,0c0,0,0,0,0.1,0c0,0,0.1,0,0.1,0l0,0c0,0,0,0,0,0.1c0,0.1,0,0.2,0,0.3c0,0,0,0,0,0
		c0,0,0,0,0,0.1c0,0.1,0,0.1,0,0.2c0,0.1,0,0.1,0,0.1c0,0,0,0.1,0,0.1c0,0,0,0-0.1,0.1l0,0.1l0.1,0l0.1,0l0.1,0c0,0,0,0,0-0.1
		c0,0,0,0,0,0c0,0,0.1,0,0.1,0c0,0,0,0,0-0.1c0-0.1,0-0.1,0-0.1c0-0.1,0-0.1,0-0.2c0,0,0-0.1,0-0.1c0-0.1,0-0.1,0.1-0.2
		c0-0.1,0-0.1,0-0.2c0.3,0,0.5,0,0.8,0c0,0,0.1,0,0.1,0c0.1,0.1,0.1,0.1,0.2,0.1c0,0,0,0.1,0,0.1c0,0,0,0,0,0.1c0,0,0,0,0,0
		c0,0,0,0,0.1,0c0,0,0,0,0-0.1c0,0,0,0,0-0.1c0,0,0,0,0.1,0c0,0,0,0,0.1,0c0,0,0,0,0,0c0,0,0,0,0,0.1c0,0,0,0,0,0c0,0,0,0,0,0
		c0,0,0,0,0-0.1c0,0,0-0.1,0-0.1c0,0,0.1,0,0.1,0c0,0,0,0,0,0.1c0,0,0,0,0,0.1c0,0,0,0.1-0.1,0.1c0,0.1,0,0.1-0.1,0.1c0,0,0,0,0,0.1
		c0,0,0,0,0,0.1c0,0,0,0.1-0.1,0.1c-0.1,0-0.1,0-0.2,0.1l0,0.1l0.1,0l0.1,0l0,0c0,0,0,0,0-0.1c0,0,0,0,0.1,0c0,0,0.1,0,0.1,0
		c0,0,0-0.1,0.1-0.1c0.1-0.1,0.1-0.2,0.2-0.3c0,0,0.1-0.1,0.1-0.1c0,0,0,0,0-0.1c0,0,0,0,0-0.1c0,0,0-0.1,0-0.1
		c0.1,0.1,0.1,0.1,0.1,0.1c0,0,0,0.1,0,0.1c0,0.1,0,0.1,0,0.2c0,0.1,0,0.1,0,0.2c0,0.1,0,0.1,0,0.2c0,0.1,0,0.1-0.1,0.1c0,0,0,0,0,0
		l0,0.1l0.1,0l0.1,0l0,0c0-0.1,0-0.1,0-0.1c0,0,0.1,0,0.1,0c0,0,0,0,0-0.1c0-0.2,0-0.3,0.1-0.4c0-0.1,0-0.1,0-0.2c0-0.1,0,0,0-0.1
		c0.1-0.2,0-0.2-0.1-0.3c0-0.1-0.1-0.1-0.1-0.1c0-0.1,0-0.1,0-0.2c0-0.1,0-0.2,0-0.2c0,0,0,0,0,0C34,32,34,32,34.1,31.8
		c0,0,0-0.1,0-0.1c0,0,0-0.1,0-0.1c0,0,0-0.1,0-0.1c0,0,0,0,0-0.1c-0.1-0.1-0.1-0.1-0.2-0.1c-0.1,0-0.2,0-0.3,0c-0.1,0-0.2,0-0.3,0
		c-0.2,0-0.3,0-0.4,0.1c-0.2,0-0.2,0-0.4,0c-0.2,0-0.4,0-0.5,0c-0.2,0-0.2,0.1-0.5,0.1c-0.2,0-0.3,0-0.3,0l-0.2-0.1
		c0.1,0,0.1,0,0.1-0.1c0,0,0-0.1,0-0.1c0,0,0-0.1,0.1-0.1c0,0-0.1,0-0.1,0c0,0,0,0-0.1,0c0,0-0.1,0-0.1,0c0,0-0.1,0-0.1,0
		c0,0-0.1-0.1-0.2-0.1C30.5,31.1,30.5,31.1,30.3,31.1L30.3,31.1z M30.5,32L30.5,32C30.5,32,30.5,32,30.5,32L30.5,32L30.5,32z"/>
	<path fill="none" stroke="#FEDF00" stroke-width="7.993913e-02" stroke-linecap="round" d="M33.9,32.1L33.9,32.1
		c-0.1,0.1-0.2,0.1-0.3,0.1c-0.2,0-0.3-0.1-0.6-0.1c-0.1,0-0.2,0.1-0.3,0.1c-0.1,0-0.1,0-0.1,0l0-0.1c0,0-0.1,0-0.2,0
		c0,0-0.1,0-0.1,0l0.1-0.1c0,0-0.1,0-0.1,0c0,0-0.1,0-0.1-0.1c0.1,0,0.1,0,0.1,0c0.1,0,0.2-0.1,0.3-0.1c0.1,0,0.2,0,0.6,0.1
		c0.2,0,0.4,0,0.4,0c0.1,0,0.1-0.1,0.1-0.1c0-0.1,0-0.1-0.1-0.1c0,0,0,0-0.1,0"/>
	<path fill="#FCD900" stroke="#FEDF00" stroke-width="4.154891e-02" d="M30.4,31.4c0,0-0.1,0-0.1,0c0,0,0,0.1-0.1,0.1
		c0,0,0.1,0,0.1,0C30.3,31.5,30.3,31.5,30.4,31.4C30.4,31.4,30.4,31.4,30.4,31.4L30.4,31.4L30.4,31.4z"/>
	<path fill="none" stroke="#FEDF00" stroke-width="7.993913e-02" stroke-linecap="round" d="M31.3,32.4
		C31.3,32.4,31.3,32.5,31.3,32.4c0.1,0.1,0.1,0.1,0.1,0.2c0,0.1,0,0.1,0,0.2c0,0,0,0,0,0l0,0.1"/>
	<path fill="none" stroke="#FEDF00" stroke-width="7.993913e-02" stroke-linecap="round" d="M31.9,32.3c0,0,0,0.1,0,0.1
		c0,0.1-0.1,0.2-0.1,0.3c0,0,0,0,0,0.1"/>
	<path fill="none" stroke="#FEDF00" stroke-width="7.993913e-02" stroke-linecap="round" d="M30.9,32.5c0.1,0,0,0.3,0.1,0.3"/>
	<path fill="none" stroke="#FEDF00" stroke-width="7.993913e-02" d="M33.2,32.9L33.2,32.9c0.1-0.1,0.2-0.1,0.2-0.2"/>
	<path fill="none" stroke="#FEDF00" stroke-width="7.993913e-02" stroke-linecap="round" d="M32.6,32.8L32.6,32.8
		c0.3-0.1,0.5-0.2,0.6-0.2"/>
	<path fill="none" stroke="#FEDF00" stroke-width="7.993913e-02" stroke-linecap="round" d="M32.9,32.4
		C32.9,32.4,32.9,32.4,32.9,32.4c0.2,0,0.2,0.1,0.3,0.1c0.2,0.1,0.2,0.2,0.3,0.3c0,0,0,0,0,0l0.1,0"/>
	<path fill="#FCD900" stroke="#FEDF00" stroke-width="4.154891e-02" d="M29.8,31.7C29.8,31.7,29.8,31.7,29.8,31.7c0.1,0,0.1,0,0.1,0
		c0,0,0,0,0.1,0c0,0,0,0,0,0c0,0,0,0,0,0c0,0,0,0,0,0c0,0,0,0,0,0c0,0,0,0,0,0C29.9,31.7,29.9,31.7,29.8,31.7
		C29.8,31.7,29.8,31.7,29.8,31.7L29.8,31.7z"/>
	<path fill="#0065BD" d="M30.4,32.5c-0.1,0-0.2-0.1-0.2-0.1c0,0,0,0,0.1,0c0,0,0-0.1,0-0.1c0,0,0-0.1,0.1-0.1c0,0,0.1,0,0.1,0
		c0,0,0.1,0,0.1,0.1c0,0,0,0.1,0,0.1c0,0,0,0.1,0,0.1c0,0,0,0,0,0.1C30.5,32.5,30.4,32.5,30.4,32.5L30.4,32.5z"/>
	<path fill="#0065BD" d="M30.3,32.5C30.3,32.5,30.3,32.5,30.3,32.5c0.1-0.1,0.1,0,0.1,0C30.4,32.6,30.4,32.6,30.3,32.5
		C30.3,32.6,30.3,32.6,30.3,32.5z"/>
	<path fill="#0065BD" d="M30.2,31.2C30.2,31.2,30.2,31.2,30.2,31.2C30.1,31.2,30.1,31.1,30.2,31.2c-0.1-0.1-0.1-0.2-0.1-0.2
		c0,0,0-0.1,0-0.1c0,0,0,0,0-0.1c0,0,0,0,0-0.1c0,0,0,0,0,0c0,0,0,0,0,0c0,0,0.1,0,0.1,0c0,0,0,0,0.1,0.1c0,0,0,0.1,0,0.1
		c0,0,0,0,0,0.1c0,0,0,0,0,0.1l0,0C30.3,31.1,30.3,31.1,30.2,31.2C30.2,31.2,30.2,31.2,30.2,31.2L30.2,31.2L30.2,31.2z"/>
	<path fill="#0065BD" d="M30.5,32.1l0.2,0.1c0.1-0.1,0.2-0.2,0.3-0.3c0.1-0.1,0.1-0.2,0.1-0.3l-0.1,0l0,0c0,0.1-0.1,0.2-0.1,0.3
		C30.7,31.9,30.6,32,30.5,32.1L30.5,32.1L30.5,32.1z"/>
	<path fill="#0065BD" d="M30.9,33.5c0,0,0-0.1,0.1-0.1c0,0,0.1-0.1,0.1-0.1c0,0,0,0,0,0c0,0,0,0.1,0,0.1c0,0,0,0.1,0,0.1
		c0,0,0,0.1,0,0.1c0,0,0,0,0,0C30.9,33.6,30.9,33.6,30.9,33.5L30.9,33.5z"/>
	<path fill="#0065BD" d="M33.5,33.7c0,0,0.1,0,0.1,0c0,0,0.1,0,0.1,0.1c0,0,0,0,0,0c0,0-0.1,0-0.1,0c0,0-0.1,0-0.1,0
		c0,0-0.1,0-0.1,0c0,0,0,0-0.1,0C33.5,33.8,33.5,33.7,33.5,33.7L33.5,33.7z"/>
	<path fill="#0065BD" d="M32.7,33.5c0,0,0.1,0,0.1,0c0,0,0.1,0,0.1,0.1c0,0,0,0,0,0c0,0-0.1,0-0.1,0c0,0-0.1,0-0.1,0
		c0,0-0.1,0-0.1,0c0,0,0,0-0.1,0C32.7,33.6,32.7,33.5,32.7,33.5L32.7,33.5z"/>
	<path fill="#0065BD" d="M31.3,33.7c0,0,0.1,0,0.1,0c0,0,0.1,0,0.1,0.1c0,0,0,0,0,0c0,0-0.1,0-0.1,0c0,0-0.1,0-0.1,0
		c0,0-0.1,0-0.1,0c0,0,0,0-0.1,0C31.3,33.8,31.3,33.7,31.3,33.7L31.3,33.7z"/>
	<path fill="#0065BD" d="M30.6,31.3c0,0-0.1-0.1-0.1-0.1c0,0,0,0,0,0c0,0,0,0,0-0.1c0,0,0,0,0-0.1c0,0,0-0.1,0-0.1
		c0-0.1,0-0.1,0-0.1c0,0,0.1,0,0.1,0c0,0,0,0,0,0.1c0,0,0,0.1,0,0.1c0,0,0,0.1,0.1,0.1c0,0,0,0.1,0,0.1c0,0,0,0.1,0,0.1
		c0,0,0,0,0,0.1C30.7,31.3,30.7,31.3,30.6,31.3C30.6,31.3,30.6,31.3,30.6,31.3L30.6,31.3z"/>
	<path fill="none" stroke="#703D29" stroke-width="6.455064e-02" d="M21.3,20.2h6.7v6.6h-6.7L21.3,20.2z"/>
	<path fill="none" stroke="#703D29" stroke-width="6.455064e-02" d="M28.6,20.2h6.7v6.6h-6.7L28.6,20.2z"/>
	<path fill="none" stroke="#703D29" stroke-width="6.455064e-02" d="M21.3,32.6c0,0.1,0.1,0.3,0.2,0.5c0.1,0.2,0.1,0.2,0.3,0.5
		c0.1,0.1,0.3,0.3,0.5,0.4c0.2,0.1,0.3,0.1,0.6,0.2c0.5,0.1,0.9,0.1,1.3,0.1c0.3,0,0.6-0.1,0.8-0.1c0.3,0,0.5-0.1,0.9-0.1
		c0.2,0,0.3,0,0.5,0c0.2,0,0.4,0,0.6,0.1c0.4,0.1,0.9,0.3,0.9,0.3l0-6.9l-6.7,0v4.7C21.3,32.3,21.3,32.5,21.3,32.6L21.3,32.6z"/>
	<path fill="none" stroke="#703D29" stroke-width="6.455064e-02" d="M35.3,32.6c0,0.1-0.1,0.3-0.2,0.5c-0.1,0.2-0.1,0.2-0.3,0.5
		c-0.1,0.1-0.3,0.3-0.5,0.4c-0.2,0.1-0.3,0.1-0.6,0.2c-0.5,0.1-0.9,0.1-1.3,0.1c-0.3,0-0.6-0.1-0.8-0.1c-0.3,0-0.5-0.1-0.9-0.1
		c-0.2,0-0.3,0-0.5,0c-0.2,0-0.4,0-0.6,0.1c-0.4,0.1-0.9,0.3-0.9,0.3l0-6.9l6.7,0v4.7C35.3,32.3,35.3,32.5,35.3,32.6L35.3,32.6z"/>
</g>
</svg>
