<?xml version="1.0" encoding="utf-8"?>
<!-- Generator: Adobe Illustrator 18.1.1, SVG Export Plug-In . SVG Version: 6.00 Build 0)  -->
<!DOCTYPE svg PUBLIC "-//W3C//DTD SVG 1.1//EN" "http://www.w3.org/Graphics/SVG/1.1/DTD/svg11.dtd">
<svg version="1.1" id="Layer_4" xmlns="http://www.w3.org/2000/svg" xmlns:xlink="http://www.w3.org/1999/xlink" x="0px" y="0px"
	 width="56.7px" height="56.7px" viewBox="0 0 56.7 56.7" enable-background="new 0 0 56.7 56.7" xml:space="preserve">
<g>
	<defs>
		<circle id="SVGID_1_" cx="28.3" cy="28.3" r="28.3"/>
	</defs>
	<clipPath id="SVGID_2_">
		<use xlink:href="#SVGID_1_"  overflow="visible"/>
	</clipPath>
	<g clip-path="url(#SVGID_2_)">
		<rect x="-14.2" y="0" fill="#009900" width="85.1" height="56.8"/>
		<rect x="-14.2" y="0" fill="#BF0000" width="56.8" height="56.8"/>
		<rect x="-14.2" y="0" width="28.4" height="56.8"/>
		<g>
			<path fill="#FFFFFF" stroke="#BD6B00" stroke-width="7.094641e-02" d="M31.1,32l1.2,0c0,0.4,0.3,0.9,0.6,1.2h-2.3
				C31,32.9,31.1,32.5,31.1,32L31.1,32z"/>
			<path fill="#FFFFFF" d="M23.6,25.3l0.6,0.7l8.1,0l0.7-0.7l-2.1,0l-1-0.7l-3.2,0l-0.9,0.7L23.6,25.3L23.6,25.3z"/>
			<path fill="#FFFFFF" stroke="#BD6B00" stroke-width="7.094641e-02" d="M26.9,24.5l2.8,0c0.4-0.2,0.5-0.8,0.5-1.2
				c0-1.1-0.7-1.6-1.5-1.6c-0.1,0-0.2-0.1-0.3-0.2c-0.1-0.2-0.1-0.4-0.1-0.4c-0.1,0-0.1,0.1-0.1,0.3c0,0.1-0.2,0.2-0.3,0.2
				c-0.9,0-1.5,0.7-1.5,1.6C26.5,23.9,26.5,24.2,26.9,24.5L26.9,24.5z"/>
			<path fill="#FFFFFF" d="M22.3,34.5h12l-1.1-0.9h-9.8L22.3,34.5L22.3,34.5z"/>
			<path fill="#FFFFFF" stroke="#BD6B00" stroke-width="7.094641e-02" d="M27.8,31.2l0.2,0.7h0.5l-0.4-0.7L27.8,31.2L27.8,31.2z
				 M27.6,31.8l0.1,0.6l0.6,0l-0.2-0.7L27.6,31.8L27.6,31.8z M28.5,31.8l0.4,0.6h0.8l-0.6-0.6L28.5,31.8L28.5,31.8z M23.7,33.3
				c0.4-0.4,0.7-0.8,0.7-1.3h1.1c0,0.3,0.1,0.4,0.3,0.4l1.1,0l0-0.6H26l0-3.5c0-1.2,1.5-2,2.1-2l-3.7,0v-0.1h7.8l0,0.1l-3.8,0
				c1.1,0,2.2,1.1,2.2,2v1h-0.1l0-1c0-1-1.2-1.9-2.2-1.9c-0.9,0-2.2,0.8-2.2,1.9v0.3l2,0l0,0.4l0.3,0.2l0.6,0.2l0,0.5l0.5,0.1l0,0.5
				l0.5,0.2v0.5l0.3,0.2l0,0.6l0.5,0.3h-1.1l0.7,0.8h-1l-0.5-0.8h-0.7l0.3,0.8l-0.7,0l-0.2-0.8h-0.9l0,0.8L23.7,33.3L23.7,33.3z
				 M26.8,31.2v0.6h0.8l-0.2-0.6H26.8z"/>
			<rect x="26.8" y="30" fill="none" stroke="#BD6B00" stroke-width="7.094641e-02" width="0.5" height="1.1"/>
			<path fill="none" stroke="#BD6B00" stroke-width="7.094641e-02" d="M26.2,31.2h0.5l0-0.8c0-0.3,0.3-0.7,0.5-0.7
				c0.2,0,0.4,0.3,0.4,0.7l0,0.8l0.5,0v-2l-1.8,0L26.2,31.2L26.2,31.2z"/>
			<rect x="29.8" y="31.7" fill="none" stroke="#BD6B00" stroke-width="7.094641e-02" width="0.6" height="0.4"/>
			<rect x="29.5" y="30.9" fill="none" stroke="#BD6B00" stroke-width="7.094641e-02" width="0.6" height="0.4"/>
			<rect x="28.9" y="30.1" fill="none" stroke="#BD6B00" stroke-width="7.094641e-02" width="0.6" height="0.4"/>
			<rect x="28.5" y="29.5" fill="none" stroke="#BD6B00" stroke-width="7.094641e-02" width="0.6" height="0.4"/>
			<path fill="none" stroke="#BD6B00" stroke-width="7.094641e-02" d="M28.1,31.2l0.6,0l1,0.9v-0.5l-0.4-0.3v-0.4l-0.5-0.3v-0.5
				L28.3,30v-0.6l-0.3-0.2L28.1,31.2L28.1,31.2z"/>
			<rect x="30.5" y="29.8" fill="#FFFFFF" stroke="#BD6B00" stroke-width="7.094641e-02" width="0.1" height="1"/>
			<path fill="#FFFFFF" stroke="#BD6B00" stroke-width="7.094641e-02" d="M22.3,26.5c-0.2-0.3-0.4,0.4-1.1,0.9
				c-0.3,0.2-0.6,0.8-0.6,1.2c0,0.3,0,0.5,0,0.8c0,0.2-0.2,0.5-0.1,0.6c0.3,0.2,0.7,0.8,0.9,1c0.2,0.1,0.3-0.7,0.4-1.1
				c0.1-0.4,0.1-0.9,0.4-1.3c0.3-0.3,0.9-0.5,0.8-0.6L22.3,26.5L22.3,26.5z"/>
			<path fill="#BF0000" stroke="#BD6B00" stroke-width="7.094641e-02" d="M22.3,28.6c-0.1-0.1-0.1-0.3-0.2-0.4
				c-0.1-0.1-0.2-0.2-0.3-0.3c-0.1,0-0.3-0.1-0.3-0.2c0-0.1-0.1-0.1-0.1-0.2c0-0.1,0-0.2,0-0.3c0,0,0,0,0,0
				c-0.3,0.2-0.6,0.8-0.6,1.2c0,0.1,0,0.2,0,0.3c0,0.1,0,0.1,0.1,0.2c0,0.1,0.1,0.1,0.2,0.1c0.1,0.1,0.3,0.1,0.4,0.1
				c0.1,0,0.3,0.2,0.4,0.3c0.1,0.1,0.2,0.3,0.2,0.4c0,0,0-0.1,0-0.1C22,29.5,22,29,22.3,28.6L22.3,28.6z"/>
			<path fill="none" stroke="#BD6B00" stroke-width="7.094641e-02" d="M21.2,27.3c-0.1,0.5,0.2,0.6,0.4,0.7c0.3,0.1,0.5,0.4,0.6,0.6
				"/>
			<path fill="none" stroke="#BD6B00" stroke-width="7.094641e-02" d="M20.6,28.9c0.1,0.4,0.4,0.4,0.6,0.5c0.3,0.1,0.5,0.4,0.6,0.7"
				/>
			<path fill="#FFFFFF" stroke="#BD6B00" stroke-width="7.094641e-02" d="M22,26.2l0.1-0.1l2.5,4.2l-0.1,0.1L22,26.2L22,26.2z"/>
			<path fill="#FFFFFF" stroke="#BD6B00" stroke-width="7.094641e-02" d="M22.3,26c0,0.2-0.1,0.3-0.3,0.3c-0.2,0-0.3-0.1-0.3-0.3
				l0,0c0-0.2,0.1-0.3,0.3-0.3C22.2,25.7,22.3,25.8,22.3,26z"/>
			<rect x="24.5" y="22.6" fill="#FFFFFF" stroke="#BD6B00" stroke-width="7.094641e-02" width="1" height="0.2"/>
			<rect x="24.5" y="23" fill="#FFFFFF" stroke="#BD6B00" stroke-width="7.094641e-02" width="1" height="2"/>
			<path fill="#FFFFFF" stroke="#BD6B00" stroke-width="7.094641e-02" d="M24.4,22.3l1.1,0c0-0.4-0.3-0.8-0.6-0.8
				C24.8,21.6,24.4,22,24.4,22.3L24.4,22.3z"/>
			<path fill="#BD6B00" d="M27.3,22.1c-0.2,0.1-0.4,0.3-0.5,0.6c-0.1,0.3-0.1,0.6-0.1,0.9v0c0,0.1,0,0.2,0.1,0.2s0.1,0.1,0.1,0.1
				c0,0,0.1,0,0.1,0c0,0,0-0.1,0-0.1c0-0.3,0-0.5,0-0.8c0.1-0.2,0.2-0.4,0.4-0.6c0,0,0.1-0.1,0.1-0.1c0,0,0-0.1,0-0.1
				C27.5,22.1,27.4,22.1,27.3,22.1L27.3,22.1z M27.3,22.2c0.1,0,0.1,0,0.1,0c0,0,0,0,0,0c0,0,0,0,0,0.1c-0.2,0.2-0.4,0.4-0.4,0.7
				s-0.1,0.5,0,0.8c0,0,0,0.1,0,0.1c0,0,0,0,0,0c0,0,0,0-0.1-0.1c0,0,0-0.1-0.1-0.2c0-0.2,0-0.6,0.1-0.8
				C27,22.5,27.1,22.2,27.3,22.2L27.3,22.2z"/>
			<path fill="#BD6B00" d="M27.7,22.4c-0.2,0.1-0.4,0.3-0.4,0.6c-0.1,0.3-0.1,0.6,0,0.8c0,0.2,0.1,0.3,0.2,0.3c0,0,0.1,0,0.1,0
				c0,0,0-0.1,0-0.2c-0.1-0.2-0.1-0.5,0-0.7c0-0.2,0.1-0.5,0.3-0.6c0,0,0.1-0.1,0.1-0.1c0,0,0-0.1,0-0.1
				C27.8,22.4,27.7,22.3,27.7,22.4L27.7,22.4z M27.7,22.4c0.1,0,0.1,0,0.1,0c0,0,0,0,0,0c0,0,0,0,0,0.1c-0.2,0.1-0.3,0.4-0.3,0.6
				c0,0.3,0,0.5,0,0.7c0,0.1,0,0.1,0,0.1c0,0,0,0-0.1,0c-0.1,0-0.1-0.1-0.2-0.2c0-0.2,0-0.5,0-0.8C27.4,22.7,27.5,22.5,27.7,22.4
				L27.7,22.4z"/>
			<rect x="24.4" y="26.6" fill="#FFFFFF" stroke="#BD6B00" stroke-width="7.094641e-02" width="1.1" height="1.6"/>
			<rect x="24.5" y="29.1" fill="#FFFFFF" stroke="#BD6B00" stroke-width="7.094641e-02" width="1.1" height="0.3"/>
			<rect x="24.5" y="29.6" fill="#FFFFFF" stroke="#BD6B00" stroke-width="7.094641e-02" width="1.1" height="1.2"/>
			<rect x="24.4" y="31.1" fill="#FFFFFF" stroke="#BD6B00" stroke-width="7.094641e-02" width="1.2" height="0.7"/>
			<path fill="#FFFFFF" stroke="#BD6B00" stroke-width="7.094641e-02" d="M24.5,28.8h1l0.2-0.3h-1.4L24.5,28.8L24.5,28.8z"/>
			<path fill="#FFFFFF" stroke="#BD6B00" stroke-width="7.094641e-02" d="M25.9,27.6l0-0.9h0.7C26.3,26.9,26,27.2,25.9,27.6z"/>
			<path fill="none" stroke="#BD6B00" stroke-width="7.094641e-02" d="M24.6,27.9c0,0.2,0.2,0.1,0.2,0c0-0.3,0-0.6,0-0.8
				c0-0.1,0.4-0.1,0.4,0c0,0.2,0,0.6,0,0.9c0,0.1,0.2,0.1,0.2,0c0-0.3,0-0.8,0-1c0-0.3-0.8-0.3-0.8,0C24.6,27.2,24.6,27.6,24.6,27.9
				L24.6,27.9z"/>
			<rect x="24.6" y="29.8" fill="none" stroke="#BD6B00" stroke-width="7.094641e-02" width="0.8" height="1"/>
			<rect x="25.1" y="30.2" fill="#FFFFFF" stroke="#BD6B00" stroke-width="7.094641e-02" width="0.3" height="0.2"/>
			<rect x="24.6" y="30.2" fill="#FFFFFF" stroke="#BD6B00" stroke-width="7.094641e-02" width="0.3" height="0.2"/>
			<rect x="24.9" y="29.8" fill="#FFFFFF" stroke="#BD6B00" stroke-width="7.094641e-02" width="0.2" height="0.4"/>
			<rect x="24.9" y="30.4" fill="#FFFFFF" stroke="#BD6B00" stroke-width="7.094641e-02" width="0.2" height="0.4"/>
			<path fill="#FFFFFF" stroke="#BD6B00" stroke-width="7.094641e-02" d="M20.4,19.7c0.1,0.8-0.2,1.2-0.6,1.2
				C19.7,20.4,19.9,20.1,20.4,19.7z"/>
			<path fill="#FFFFFF" stroke="#BD6B00" stroke-width="7.094641e-02" d="M19.5,21.5c-0.4-0.2-0.1-1.6,0-2.2
				C19.6,20,19.8,21.1,19.5,21.5z"/>
			<path fill="#FFFFFF" stroke="#BD6B00" stroke-width="7.094641e-02" d="M19.6,21.5c0.6,0.2,1.1-0.5,1.3-1.2
				C20.4,21,19.5,21,19.6,21.5z"/>
			<path fill="#FFFFFF" stroke="#BD6B00" stroke-width="7.094641e-02" d="M19.1,22.3c-0.5-0.1-0.2-1.7-0.1-2.3
				C19.1,20.6,19.5,22.1,19.1,22.3z"/>
			<path fill="#FFFFFF" stroke="#BD6B00" stroke-width="7.094641e-02" d="M19.3,22.2c0-0.5,0.6-0.4,0.9-0.7
				C20.2,21.8,19.9,22.3,19.3,22.2z"/>
			<path fill="#FFFFFF" stroke="#BD6B00" stroke-width="7.094641e-02" d="M18.7,22.9c-0.5-0.1-0.2-1.8-0.2-2.5
				C18.6,21.1,19.1,22.8,18.7,22.9z"/>
			<path fill="#FFFFFF" stroke="#BD6B00" stroke-width="7.094641e-02" d="M18.9,22.9c0.4,0.1,0.9-0.1,1-0.6
				C19.6,22.5,19,22.3,18.9,22.9z"/>
			<path fill="#FFFFFF" stroke="#BD6B00" stroke-width="7.094641e-02" d="M18.3,23.7c-0.5,0-0.3-1.4-0.3-2.7
				C18.3,22.2,18.7,23.3,18.3,23.7z"/>
			<path fill="#FFFFFF" stroke="#BD6B00" stroke-width="7.094641e-02" d="M18.5,23.6c0.3,0.2,0.9-0.1,1-0.6
				C19,23.2,18.6,23,18.5,23.6z"/>
			<path fill="#FFFFFF" stroke="#BD6B00" stroke-width="7.094641e-02" d="M22.1,20.5c-0.1,0.7-0.4,1.1-0.8,1
				C21.2,21,21.6,20.8,22.1,20.5z"/>
			<path fill="#FFFFFF" stroke="#BD6B00" stroke-width="7.094641e-02" d="M21,22.2c0.7,0.1,0.9-0.4,1.4-1.1
				C21.8,21.6,21,21.7,21,22.2L21,22.2z"/>
			<path fill="#FFFFFF" stroke="#BD6B00" stroke-width="7.094641e-02" d="M20.8,22.1c-0.4-0.5,0-1,0.3-1.5
				C21.1,21.3,21.3,21.7,20.8,22.1z"/>
			<path fill="#FFFFFF" stroke="#BD6B00" stroke-width="7.094641e-02" d="M20.7,22.9c0-0.4,0.7-0.5,1.1-0.8
				C21.6,22.3,21.4,23,20.7,22.9L20.7,22.9z"/>
			<path fill="#FFFFFF" stroke="#BD6B00" stroke-width="7.094641e-02" d="M20.5,22.9c-0.5-0.1-0.3-0.9,0.1-1.4
				C20.4,22.1,20.9,22.6,20.5,22.9z"/>
			<path fill="#FFFFFF" stroke="#BD6B00" stroke-width="7.094641e-02" d="M20.1,23.6c-0.6-0.3-0.2-1,0-1.5
				C20,22.8,20.5,23.2,20.1,23.6z"/>
			<path fill="#FFFFFF" stroke="#BD6B00" stroke-width="7.094641e-02" d="M20.2,23.6c0.3,0.4,0.9-0.1,1-0.7
				C20.8,23.3,20.4,23.2,20.2,23.6z"/>
			<path fill="#FFFFFF" stroke="#BD6B00" stroke-width="7.094641e-02" d="M18.9,26.4c-0.1-0.6,0.4-1.7,0.1-2.3
				c0-0.1,0.1-0.3,0.2-0.2c0.1,0.2,0.3,0.8,0.4,0.6c0.1-0.2,0.1-0.7,0.3-0.7c0.1,0,0.3-0.1,0.3,0.1c-0.1,0.2-0.2,0.5,0,0.5
				c0.1,0,0.3-0.3,0.5-0.4c0.1-0.1,0.4,0.1,0.1,0.2C19.9,24.9,19.3,25.1,18.9,26.4L18.9,26.4z"/>
			<path fill="#FFFFFF" stroke="#BD6B00" stroke-width="7.094641e-02" d="M17.6,35.6C17.6,35.6,17.4,35.6,17.6,35.6
				c0.7,1.1,0.9,1.3,2.1,1.2c1.2-0.2,1.5-0.5,2.3-0.9c0.4-0.3,1.1-0.3,1.6-0.2c0.2,0.1,0.4,0.1,0.2-0.1c-0.2-0.2-0.4-0.4-0.6-0.5
				c-0.4-0.3-1.2-0.5-1.8-0.4c-0.9,0.1-1.6,0.7-2.4,0.9C18.6,35.7,18.1,35.7,17.6,35.6L17.6,35.6z"/>
			<path fill="#FFFFFF" stroke="#BD6B00" stroke-width="7.094641e-02" d="M24.4,37.4c0.1,0,0.2,0.3,0.3,0.1c0.1-0.3,0-0.6-0.1-0.5
				C24.5,37,24.2,37.4,24.4,37.4L24.4,37.4z"/>
			<path fill="#FFFFFF" d="M17.1,26c-0.2-0.2-0.1-0.2,0.1-0.3c0.2,0,0.6,0.1,0.8,0c0.1-0.1,0.1-0.5,0.1-0.7c0-0.1,0.1-0.3,0.3,0
				c0.5,0.8,1.2,1.8,1.4,2.8c0.2,0.5,0,1.4-0.5,2c0-0.5-0.2-0.8-0.4-1.2C18.7,28,17.7,26.5,17.1,26L17.1,26z"/>
			<path fill="#FFFFFF" stroke="#BD6B00" stroke-width="7.094641e-02" d="M19.2,30.3c0.6,0,0.7-0.8,0.7-1
				C19.6,29.4,19.1,29.8,19.2,30.3z"/>
			<path fill="#FFFFFF" stroke="#BD6B00" stroke-width="7.094641e-02" d="M24.1,37.6c0.4,0.1,0.4-0.9,0-1.3
				C24.2,37,23.8,37.5,24.1,37.6z"/>
			<path fill="#FFFFFF" stroke="#BD6B00" stroke-width="7.094641e-02" d="M23.9,37.6c0,0.5-1.1-0.1-1.4-0.4
				C23.2,37.5,23.9,37.3,23.9,37.6z"/>
			<path fill="#FFFFFF" stroke="#BD6B00" stroke-width="7.094641e-02" d="M23.4,37c0,0.4-1,0.1-1.3-0.3C22.8,36.9,23.4,36.6,23.4,37
				z"/>
			<path fill="#FFFFFF" stroke="#BD6B00" stroke-width="7.094641e-02" d="M23.6,37c0.4,0.1,0.3-0.9-0.1-1.3
				C23.7,36.4,23.3,36.9,23.6,37z"/>
			<path fill="#FFFFFF" stroke="#BD6B00" stroke-width="7.094641e-02" d="M23.2,36.4c0.4,0.1,0.2-0.8-0.1-1.1
				C23.1,35.9,22.9,36.4,23.2,36.4z"/>
			<path fill="#FFFFFF" stroke="#BD6B00" stroke-width="7.094641e-02" d="M23,36.4c0,0.5-0.8,0.1-1.1-0.3
				C22.6,36.3,22.9,36.1,23,36.4z"/>
			<path fill="#FFFFFF" stroke="#BD6B00" stroke-width="7.094641e-02" d="M22.8,36.1c0.3-0.2,0-0.7-0.5-0.7
				C22.3,35.7,22.5,36.2,22.8,36.1z"/>
			<path fill="#FFFFFF" stroke="#BD6B00" stroke-width="7.094641e-02" d="M24.7,38.2c0,0.5-1.1,0.2-1.5-0.3
				C24,38,24.7,37.8,24.7,38.2z"/>
			<path fill="#FFFFFF" stroke="#BD6B00" stroke-width="7.094641e-02" d="M20.1,37.3c0,0.5-1.2,0-1.5-0.5
				C19.3,37.1,20.1,37,20.1,37.3z"/>
			<path fill="#FFFFFF" stroke="#BD6B00" stroke-width="7.094641e-02" d="M20.9,37.5c0.3-0.2-0.3-0.7-0.7-0.8
				C20.3,37,20.6,37.7,20.9,37.5z"/>
			<path fill="#FFFFFF" stroke="#BD6B00" stroke-width="7.094641e-02" d="M21,37.8c0,0.4-1.4,0.2-1.7-0.2C20.5,37.9,21,37.5,21,37.8
				z"/>
			<path fill="#FFFFFF" stroke="#BD6B00" stroke-width="7.094641e-02" d="M21.6,38.1c0.2,0.4-1.2,0.3-1.6,0.1
				C20.8,38.2,21.5,37.8,21.6,38.1z"/>
			<path fill="#FFFFFF" stroke="#BD6B00" stroke-width="7.094641e-02" d="M22.3,38.4c0.1,0.3-1.1,0.3-1.7,0.1
				C21.4,38.5,22.1,38.1,22.3,38.4z"/>
			<path fill="#FFFFFF" stroke="#BD6B00" stroke-width="7.094641e-02" d="M23.2,38.6c0.2,0.4-1.1,0.4-1.5,0.2
				C22.4,38.7,23,38.3,23.2,38.6z"/>
			<path fill="#FFFFFF" stroke="#BD6B00" stroke-width="7.094641e-02" d="M21.6,37.9c-0.4,0.3-0.4-0.5-0.7-1
				C21.4,37.3,21.9,37.6,21.6,37.9L21.6,37.9z"/>
			<path fill="#FFFFFF" stroke="#BD6B00" stroke-width="7.094641e-02" d="M22.4,38.2c-0.3,0.3-0.6-0.7-0.9-1.3
				C21.9,37.4,22.7,37.9,22.4,38.2z"/>
			<path fill="#FFFFFF" stroke="#BD6B00" stroke-width="7.094641e-02" d="M23.3,38.5c-0.3,0.3-1.1-1-1.4-1.7
				C22.4,37.3,23.6,38.2,23.3,38.5z"/>
			<path fill="#FFFFFF" stroke="#BD6B00" stroke-width="7.094641e-02" d="M22.5,39.5c-0.1,0.5-2.3-0.5-2.5-1
				C21.2,39.1,22.5,39,22.5,39.5z"/>
			<path fill="#FFFFFF" stroke="#BD6B00" stroke-width="7.094641e-02" d="M15.6,29c-0.1-0.1-0.2,0-0.2,0.2c0,0.2,0.3,1.3,0.9,1.7
				c0.4,0.3,2.4,0.7,3.3,0.9c0.5,0.1,0.9,0.4,1.3,0.8c-0.1-0.5-0.2-0.9-0.4-1.4c-0.2-0.4-0.6-0.9-1.1-0.9c-0.9,0-2-0.1-2.8-0.5
				C16.1,29.6,15.9,29.3,15.6,29L15.6,29z"/>
			<path fill="#FFFFFF" stroke="#BD6B00" stroke-width="7.094641e-02" d="M20.6,33.3c0.3,0.2,0.6-0.5,0.2-1.2
				C20.8,32.8,20.3,33,20.6,33.3z"/>
			<path fill="#FFFFFF" stroke="#BD6B00" stroke-width="7.094641e-02" d="M20.9,34c0.4,0.1,0.5-0.6,0.3-1.1
				C21.2,33.5,20.5,33.8,20.9,34z"/>
			<path fill="#FFFFFF" stroke="#BD6B00" stroke-width="7.094641e-02" d="M21.2,34.5c0.4,0.2,0.5-0.5,0.2-1
				C21.4,34.2,20.9,34.4,21.2,34.5z"/>
			<path fill="#FFFFFF" stroke="#BD6B00" stroke-width="7.094641e-02" d="M21,34.6c-0.1,0.4-1-0.4-1.1-0.8
				C20.4,34.3,21.1,34.2,21,34.6z"/>
			<path fill="#FFFFFF" stroke="#BD6B00" stroke-width="7.094641e-02" d="M20.6,33.9c-0.2,0.4-1.2-0.7-1.5-1.2
				C19.7,33.2,20.8,33.6,20.6,33.9z"/>
			<path fill="#FFFFFF" stroke="#BD6B00" stroke-width="7.094641e-02" d="M20.4,33.2c-0.2,0.5-1.3-0.8-1.7-1.3
				C19.3,32.5,20.6,32.9,20.4,33.2z"/>
			<path fill="#FFFFFF" stroke="#BD6B00" stroke-width="7.094641e-02" d="M20.4,32.8c0.4-0.1,0-0.4-0.5-1
				C19.8,32.4,19.9,32.8,20.4,32.8z"/>
			<path fill="#FFFFFF" stroke="#BD6B00" stroke-width="7.094641e-02" d="M19.7,32.4c0.2-0.2-0.2-0.3-0.6-0.8
				C19,32,19.5,32.6,19.7,32.4z"/>
			<path fill="#FFFFFF" stroke="#BD6B00" stroke-width="7.094641e-02" d="M21.7,34.6c0.2,0.1,0.4-0.3,0.1-0.7
				C21.7,34.3,21.5,34.4,21.7,34.6z"/>
			<path fill="#FFFFFF" stroke="#BD6B00" stroke-width="7.094641e-02" d="M16.8,31.7c-0.5,0.3-1.2-0.9-1.4-1.3
				C15.8,30.9,16.9,31.4,16.8,31.7z"/>
			<path fill="#FFFFFF" stroke="#BD6B00" stroke-width="7.094641e-02" d="M17.2,32.4c-0.3,0.3-1.1-0.5-1.4-0.9
				C16.3,31.8,17.3,31.9,17.2,32.4z"/>
			<path fill="#FFFFFF" stroke="#BD6B00" stroke-width="7.094641e-02" d="M17.7,32.9c-0.1,0.4-1.3-0.5-1.6-0.9
				C16.6,32.5,17.8,32.5,17.7,32.9z"/>
			<path fill="#FFFFFF" stroke="#BD6B00" stroke-width="7.094641e-02" d="M17.5,33.4c-0.2,0.4-1.2-0.5-1.4-1
				C16.7,32.9,17.6,33,17.5,33.4z"/>
			<path fill="#FFFFFF" stroke="#BD6B00" stroke-width="7.094641e-02" d="M17,31.6c0.3-0.3,0.2-0.5,0-1C16.8,31.2,16.6,31.4,17,31.6
				z"/>
			<path fill="#FFFFFF" stroke="#BD6B00" stroke-width="7.094641e-02" d="M17.4,32.3c0.6,0,0-0.7-0.1-1.2
				C17.3,31.7,17.1,32.2,17.4,32.3z"/>
			<path fill="#FFFFFF" stroke="#BD6B00" stroke-width="7.094641e-02" d="M17.8,32.8c0.4-0.1,0.3-0.6,0-1.3
				C17.8,32.2,17.4,32.6,17.8,32.8z"/>
			<path fill="#FFFFFF" stroke="#BD6B00" stroke-width="7.094641e-02" d="M17.6,33.9c-0.1,0.4-1.3-0.6-1.4-1
				C16.8,33.4,17.7,33.6,17.6,33.9z"/>
			<path fill="#FFFFFF" stroke="#BD6B00" stroke-width="7.094641e-02" d="M18.3,34.6c-0.2,0.4-1.3-0.4-1.7-0.9
				C17.3,34.2,18.4,34.1,18.3,34.6z"/>
			<path fill="#FFFFFF" stroke="#BD6B00" stroke-width="7.094641e-02" d="M19,35.3c-0.2,0.6-1.4-0.4-1.8-0.8
				C18,35,19.1,34.8,19,35.3z"/>
			<path fill="#FFFFFF" stroke="#BD6B00" stroke-width="7.094641e-02" d="M17.8,33.7c0.3,0.2,0.5-0.8,0.3-1.4
				C18.1,33,17.4,33.5,17.8,33.7z"/>
			<path fill="#FFFFFF" stroke="#BD6B00" stroke-width="7.094641e-02" d="M18.4,34.4c0.4,0.1,0.3-0.9-0.1-1.5
				C18.3,33.5,18,34.2,18.4,34.4z"/>
			<path fill="#FFFFFF" stroke="#BD6B00" stroke-width="7.094641e-02" d="M19.1,35.1c0.4,0,0.1-0.9-0.2-1.4
				C18.9,34.4,18.7,35.1,19.1,35.1z"/>
			<path fill="#FFFFFF" stroke="#BD6B00" stroke-width="7.094641e-02" d="M18.3,35.5c-0.1,0.2-0.5-0.2-1-0.5
				C17.8,35.1,18.4,35.3,18.3,35.5z"/>
			<path fill="#FFFFFF" stroke="#BD6B00" stroke-width="7.094641e-02" d="M18.1,28c0.4-0.3,0.1-0.9,0-1.4
				C17.9,27.1,17.6,27.8,18.1,28z"/>
			<path fill="#FFFFFF" stroke="#BD6B00" stroke-width="7.094641e-02" d="M18,28.8c-0.6-0.1-0.5-0.9-0.5-1.4
				C17.7,28.1,18.2,28.2,18,28.8z"/>
			<path fill="#FFFFFF" stroke="#BD6B00" stroke-width="7.094641e-02" d="M18.1,28.7c0.5,0,0.5-0.6,0.5-1.2
				C18.4,28,18.1,28.1,18.1,28.7z"/>
			<path fill="#FFFFFF" stroke="#BD6B00" stroke-width="7.094641e-02" d="M18.1,29.4c-0.4,0-0.6-0.4-0.7-1
				C17.8,29,18.1,28.8,18.1,29.4z"/>
			<path fill="#FFFFFF" stroke="#BD6B00" stroke-width="7.094641e-02" d="M18.3,29.4c0.5,0.1,0.4-0.5,0.4-1
				C18.5,28.8,18.1,28.9,18.3,29.4z"/>
			<path fill="#FFFFFF" stroke="#BD6B00" stroke-width="7.094641e-02" d="M17.5,29.1c0,0.4,0.3,1.1,0.7,0.9
				C18.3,29.6,17.8,29.5,17.5,29.1z"/>
			<path fill="#FFFFFF" stroke="#BD6B00" stroke-width="7.094641e-02" d="M18.3,30.1c-0.2-0.3,0.4-0.5,0.5-1
				C18.9,29.8,18.8,30.2,18.3,30.1z"/>
			<path fill="#FFFFFF" stroke="#BD6B00" stroke-width="7.094641e-02" d="M16.6,25.9c0.3-0.4,0-0.9-0.1-1.5
				C16.4,25,16.2,25.7,16.6,25.9z"/>
			<path fill="#FFFFFF" stroke="#BD6B00" stroke-width="7.094641e-02" d="M16.6,26.6c-0.6,0.1-0.7-1.1-0.8-1.6
				C16,25.7,16.7,26,16.6,26.6z"/>
			<path fill="#FFFFFF" stroke="#BD6B00" stroke-width="7.094641e-02" d="M16.7,26.6c0.4-0.2,0.3-0.7,0.4-1
				C16.9,26,16.6,26.1,16.7,26.6z"/>
			<path fill="#FFFFFF" stroke="#BD6B00" stroke-width="7.094641e-02" d="M16.6,27.3c-0.6,0.1-1-1.2-1-1.7
				C15.8,26.3,16.7,26.7,16.6,27.3z"/>
			<path fill="#FFFFFF" stroke="#BD6B00" stroke-width="7.094641e-02" d="M16.7,27.3c0.6-0.1,0.5-0.5,0.4-1.1
				C16.9,26.8,16.6,26.7,16.7,27.3z"/>
			<path fill="#FFFFFF" stroke="#BD6B00" stroke-width="7.094641e-02" d="M16.6,28.1c-0.7,0.1-0.6-0.9-1.1-1.7
				C15.9,27,16.7,27.7,16.6,28.1z"/>
			<path fill="#FFFFFF" stroke="#BD6B00" stroke-width="7.094641e-02" d="M16.7,28.1c0.5,0,0.5-0.7,0.5-1
				C17.1,27.3,16.5,27.6,16.7,28.1z"/>
			<path fill="#FFFFFF" stroke="#BD6B00" stroke-width="7.094641e-02" d="M15.5,27.3c0.2,0.8,0.6,1.6,1,1.5
				C16.8,28.4,16.2,28.3,15.5,27.3z"/>
			<path fill="#FFFFFF" stroke="#BD6B00" stroke-width="7.094641e-02" d="M16.7,28.7c-0.2-0.3,0.4-0.5,0.5-1
				C17.3,28.4,17.3,28.8,16.7,28.7z"/>
			<path fill="#FFFFFF" stroke="#BD6B00" stroke-width="7.094641e-02" d="M15.7,28.2c0.4,0.7,0.5,1.6,1,1.4
				C16.9,29.1,16.2,29,15.7,28.2z"/>
			<path fill="#FFFFFF" stroke="#BD6B00" stroke-width="7.094641e-02" d="M16.8,29.5c-0.2-0.4,0.4-0.5,0.5-1
				C17.4,29.1,17.3,29.6,16.8,29.5z"/>
			<path fill="#FFFFFF" stroke="#BD6B00" stroke-width="7.094641e-02" d="M17.8,24.6c0.3,0.1,0.7-0.3,0.6-0.9
				C18,23.8,17.8,24.2,17.8,24.6z"/>
			<path fill="#FFFFFF" stroke="#BD6B00" stroke-width="7.094641e-02" d="M16.7,24.3c0,0.2,0.2,0.2,0.2-0.1c0-0.2-0.1-0.3,0-0.5
				c0.1-0.2,0.1-0.5,0-0.7c-0.1-0.1-0.3-0.1-0.2,0.1c0.1,0.1,0.1,0.4,0,0.5C16.7,23.9,16.7,24.1,16.7,24.3L16.7,24.3z"/>
			<path fill="#FFFFFF" stroke="#BD6B00" stroke-width="7.094641e-02" d="M20,26.6c-0.1,0.2-0.4,0.1-0.2-0.2
				c0.2-0.2,0.4-0.4,0.4-0.6c0-0.3,0.2-0.7,0.3-0.9c0.2-0.2,0.3,0.1,0.2,0.2c-0.2,0.1-0.3,0.6-0.3,0.8C20.4,26.2,20.1,26.4,20,26.6
				L20,26.6z"/>
			<path fill="#FFFFFF" stroke="#BD6B00" stroke-width="7.094641e-02" d="M19.5,26.3c-0.1,0.2-0.3,0.1-0.2-0.2
				c0.1-0.2,0.1-0.5,0.2-0.7c0.2-0.2,0.4-0.4,0.6-0.6c0.2-0.2,0.3,0,0.1,0.1c-0.2,0.2-0.4,0.4-0.5,0.6
				C19.6,25.8,19.7,26.1,19.5,26.3L19.5,26.3z"/>
			<path fill="#FFFFFF" stroke="#BD6B00" stroke-width="7.094641e-02" d="M17.3,25.2c0,0.3,0.2,0.3,0.2-0.1c0-0.4-0.3-0.8-0.1-1.5
				c0.1-0.3,0.1-0.9,0-1.2c-0.1-0.3-0.3-0.1-0.2,0.1c0.1,0.3,0,0.8-0.1,1.1C16.9,24.5,17.3,24.9,17.3,25.2L17.3,25.2z"/>
			<path fill="#FFFFFF" stroke="#BD6B00" stroke-width="7.094641e-02" d="M17.9,23.7c0,0.3-0.3,0.3-0.2-0.1c0.1-0.3,0.1-0.5,0-0.8
				c-0.1-0.3-0.1-0.8,0-1c0.1-0.2,0.3-0.1,0.2,0.1c-0.1,0.2-0.1,0.6,0,0.8C18,23,18,23.4,17.9,23.7L17.9,23.7z"/>
			<path fill="#FFFFFF" stroke="#BD6B00" stroke-width="7.094641e-02" d="M15.7,28.9c0.1,0.1,0.3,0,0.1-0.1
				c-0.1-0.1-0.1-0.2-0.2-0.4c-0.1-0.2-0.1-0.3-0.2-0.4c-0.1-0.1-0.2,0-0.1,0.1c0.1,0.1,0.1,0.2,0.1,0.3
				C15.6,28.7,15.6,28.8,15.7,28.9L15.7,28.9z"/>
			<path fill="#FFFFFF" stroke="#BD6B00" stroke-width="7.094641e-02" d="M18.6,32.4c0.3,0.2,0.6,0.6,0.6,0.9c0,0.4,0.1,0.7,0.3,1
				c-0.3-0.1-0.4-0.5-0.5-1C19,33,18.8,32.8,18.6,32.4L18.6,32.4z"/>
			<path fill="#FFFFFF" stroke="#BD6B00" stroke-width="7.094641e-02" d="M19.3,33.3c0.2,0.4,0.6,0.6,0.6,0.9c0,0.4,0.1,0.4,0.2,0.8
				c-0.3-0.1-0.4-0.1-0.4-0.7C19.6,33.9,19.3,33.6,19.3,33.3L19.3,33.3z"/>
			<path fill="#FFFFFF" d="M26.8,37.4c0.1,0.3,0.3,0.6,0.6,0.6C27.4,37.7,27,37.6,26.8,37.4z"/>
			<path fill="#FFFFFF" d="M27.2,37.4c0.5,0.2,1,0.2,1.1,0.5C27.8,38,27.6,37.8,27.2,37.4z"/>
			<path fill="#FFFFFF" d="M24.9,35.6c0.4,0.3,0.6,0.6,0.7,1.1c0.1,0.4,0.3,0.7,0.5,1.1c-0.4-0.3-0.6-0.6-0.8-1.1
				C25.3,36.4,25.2,36,24.9,35.6L24.9,35.6z"/>
			<path fill="#FFFFFF" d="M25.4,35.6c0.4,0.3,0.8,0.7,0.9,1.1c0.1,0.4,0.2,0.7,0.5,1.1c-0.4-0.3-0.6-0.7-0.7-1.1
				C25.9,36.4,25.6,36.1,25.4,35.6L25.4,35.6z"/>
			<path fill="#FFFFFF" d="M26.7,36.7c0-0.1,0-0.1,0.1-0.2c0.1,0,0.2-0.1,0.4-0.1c0.1,0,0.2,0.1,0.2,0.1c0,0.1,0,0.2,0,0.3
				c0,0.1,0,0.1-0.1,0.1c-0.1,0-0.2,0-0.3,0.1c-0.1,0.1-0.2,0-0.2-0.1C26.7,36.9,26.7,36.8,26.7,36.7L26.7,36.7z"/>
			<path fill="#FFFFFF" d="M28.2,36.7c0-0.1,0-0.2-0.1-0.2c-0.1,0-0.2-0.1-0.3-0.1c-0.1,0-0.2,0-0.2,0.1c0,0.1,0,0.2,0,0.3
				c0,0.1,0,0.1,0.1,0.1c0.1,0,0.3,0,0.3,0.1c0.1,0.1,0.2,0,0.2-0.1C28.2,36.9,28.2,36.8,28.2,36.7L28.2,36.7z"/>
			<path fill="#FFFFFF" stroke="#BD6B00" stroke-width="7.094641e-02" d="M34.4,26.5c0.2-0.3,0.4,0.4,1.1,0.9
				c0.3,0.2,0.6,0.8,0.6,1.2c0,0.3,0,0.5,0,0.8c0,0.2,0.2,0.5,0.1,0.6c-0.3,0.2-0.7,0.8-0.9,1c-0.2,0.1-0.3-0.7-0.4-1.1
				c-0.1-0.4-0.1-0.9-0.4-1.3c-0.3-0.3-0.9-0.5-0.8-0.6L34.4,26.5L34.4,26.5z"/>
			<path fill="#BF0000" stroke="#BD6B00" stroke-width="7.094641e-02" d="M34.4,28.6c0.1-0.1,0.1-0.3,0.2-0.4
				c0.1-0.1,0.2-0.2,0.3-0.3c0.1,0,0.3-0.1,0.3-0.2c0-0.1,0.1-0.1,0.1-0.2c0-0.1,0-0.2,0-0.3c0,0,0,0,0,0c0.3,0.2,0.6,0.8,0.6,1.2
				c0,0.1,0,0.2,0,0.3c0,0.1,0,0.1-0.1,0.2c0,0.1-0.1,0.1-0.2,0.1c-0.1,0.1-0.3,0.1-0.4,0.1c-0.1,0-0.3,0.2-0.4,0.3
				c-0.1,0.1-0.2,0.3-0.2,0.4c0,0,0-0.1,0-0.1C34.7,29.5,34.7,29,34.4,28.6L34.4,28.6z"/>
			<path fill="none" stroke="#BD6B00" stroke-width="7.094641e-02" d="M35.5,27.3c0.1,0.5-0.2,0.6-0.4,0.7c-0.3,0.1-0.5,0.4-0.6,0.6
				"/>
			<path fill="none" stroke="#BD6B00" stroke-width="7.094641e-02" d="M36.1,28.9c-0.1,0.4-0.4,0.4-0.6,0.5
				c-0.3,0.1-0.5,0.4-0.6,0.7"/>
			<path fill="#FFFFFF" stroke="#BD6B00" stroke-width="7.094641e-02" d="M34.6,26.2l-0.1-0.1L32,30.3l0.1,0.1L34.6,26.2L34.6,26.2z
				"/>
			<path fill="#FFFFFF" stroke="#BD6B00" stroke-width="7.094641e-02" d="M34.4,26c0,0.2,0.1,0.3,0.3,0.3c0.2,0,0.3-0.1,0.3-0.3l0,0
				c0-0.2-0.1-0.3-0.3-0.3C34.5,25.7,34.4,25.8,34.4,26z"/>
			<rect x="31.2" y="22.6" fill="#FFFFFF" stroke="#BD6B00" stroke-width="7.094641e-02" width="1" height="0.2"/>
			<rect x="31.2" y="23" fill="#FFFFFF" stroke="#BD6B00" stroke-width="7.094641e-02" width="1" height="2"/>
			<path fill="#FFFFFF" stroke="#BD6B00" stroke-width="7.094641e-02" d="M32.3,22.3l-1.1,0c0-0.4,0.3-0.8,0.6-0.8
				C31.9,21.6,32.3,22,32.3,22.3L32.3,22.3z"/>
			<path fill="#BD6B00" d="M29.4,22.1c0.2,0.1,0.4,0.3,0.5,0.6C30,23,30,23.3,30,23.6v0c0,0.1,0,0.2-0.1,0.2s-0.1,0.1-0.1,0.1
				c0,0-0.1,0-0.1,0c0,0,0-0.1,0-0.1c0-0.3,0-0.5,0-0.8c-0.1-0.2-0.2-0.4-0.4-0.6c0,0-0.1-0.1-0.1-0.1c0,0,0-0.1,0-0.1
				C29.2,22.1,29.3,22.1,29.4,22.1L29.4,22.1z M29.4,22.2c-0.1,0-0.1,0-0.1,0c0,0,0,0,0,0c0,0,0,0,0,0.1c0.2,0.2,0.4,0.4,0.4,0.7
				s0.1,0.5,0,0.8c0,0,0,0.1,0,0.1c0,0,0,0,0,0c0,0,0,0,0.1-0.1c0,0,0-0.1,0.1-0.2c0-0.2,0-0.6-0.1-0.8
				C29.7,22.5,29.6,22.2,29.4,22.2L29.4,22.2z"/>
			<path fill="#BD6B00" d="M29,22.4c0.2,0.1,0.4,0.3,0.4,0.6c0.1,0.3,0.1,0.6,0,0.8c0,0.2-0.1,0.3-0.2,0.3c0,0-0.1,0-0.1,0
				c0,0,0-0.1,0-0.2c0.1-0.2,0.1-0.5,0-0.7c0-0.2-0.1-0.5-0.3-0.6c0,0-0.1-0.1-0.1-0.1c0,0,0-0.1,0-0.1C28.9,22.4,29,22.3,29,22.4
				L29,22.4z M29,22.4c-0.1,0-0.1,0-0.1,0c0,0,0,0,0,0c0,0,0,0,0,0.1c0.2,0.1,0.3,0.4,0.3,0.6c0,0.3,0,0.5,0,0.7c0,0.1,0,0.1,0,0.1
				c0,0,0,0,0.1,0c0.1,0,0.1-0.1,0.2-0.2c0-0.2,0-0.5,0-0.8C29.3,22.7,29.2,22.5,29,22.4L29,22.4z"/>
			<rect x="31.1" y="26.6" fill="#FFFFFF" stroke="#BD6B00" stroke-width="7.094641e-02" width="1.1" height="1.6"/>
			<rect x="31.1" y="29.1" fill="#FFFFFF" stroke="#BD6B00" stroke-width="7.094641e-02" width="1.1" height="0.3"/>
			<rect x="31.1" y="29.6" fill="#FFFFFF" stroke="#BD6B00" stroke-width="7.094641e-02" width="1.1" height="1.2"/>
			<rect x="31.1" y="31.1" fill="#FFFFFF" stroke="#BD6B00" stroke-width="7.094641e-02" width="1.2" height="0.7"/>
			<path fill="#FFFFFF" stroke="#BD6B00" stroke-width="7.094641e-02" d="M32.2,28.8h-1L31,28.4h1.4L32.2,28.8L32.2,28.8z"/>
			<path fill="#FFFFFF" stroke="#BD6B00" stroke-width="7.094641e-02" d="M30.8,27.6l0-0.9h-0.7C30.4,26.9,30.7,27.2,30.8,27.6z"/>
			<path fill="none" stroke="#BD6B00" stroke-width="7.094641e-02" d="M32.1,27.9c0,0.2-0.2,0.1-0.2,0c0-0.3,0-0.6,0-0.8
				c0-0.1-0.4-0.1-0.4,0c0,0.2,0,0.6,0,0.9c0,0.1-0.2,0.1-0.2,0c0-0.3,0-0.8,0-1c0-0.3,0.8-0.3,0.8,0C32.1,27.2,32.1,27.6,32.1,27.9
				L32.1,27.9z"/>
			<rect x="31.3" y="29.8" fill="none" stroke="#BD6B00" stroke-width="7.094641e-02" width="0.8" height="1"/>
			<rect x="31.3" y="30.2" fill="#FFFFFF" stroke="#BD6B00" stroke-width="7.094641e-02" width="0.3" height="0.2"/>
			<rect x="31.8" y="30.2" fill="#FFFFFF" stroke="#BD6B00" stroke-width="7.094641e-02" width="0.3" height="0.2"/>
			<rect x="31.6" y="29.8" fill="#FFFFFF" stroke="#BD6B00" stroke-width="7.094641e-02" width="0.2" height="0.4"/>
			<rect x="31.6" y="30.4" fill="#FFFFFF" stroke="#BD6B00" stroke-width="7.094641e-02" width="0.2" height="0.4"/>
			<path fill="#FFFFFF" stroke="#BD6B00" stroke-width="7.094641e-02" d="M36.3,19.7c-0.1,0.8,0.2,1.2,0.6,1.2
				C37,20.4,36.8,20.1,36.3,19.7z"/>
			<path fill="#FFFFFF" stroke="#BD6B00" stroke-width="7.094641e-02" d="M37.2,21.5c0.4-0.2,0.1-1.6,0-2.2
				C37.1,20,36.9,21.1,37.2,21.5z"/>
			<path fill="#FFFFFF" stroke="#BD6B00" stroke-width="7.094641e-02" d="M37.1,21.5c-0.6,0.2-1.1-0.5-1.3-1.2
				C36.3,21,37.1,21,37.1,21.5z"/>
			<path fill="#FFFFFF" stroke="#BD6B00" stroke-width="7.094641e-02" d="M37.6,22.3c0.5-0.1,0.2-1.7,0.1-2.3
				C37.6,20.6,37.2,22.1,37.6,22.3z"/>
			<path fill="#FFFFFF" stroke="#BD6B00" stroke-width="7.094641e-02" d="M37.4,22.2c0-0.5-0.6-0.4-0.9-0.7
				C36.5,21.8,36.8,22.3,37.4,22.2z"/>
			<path fill="#FFFFFF" stroke="#BD6B00" stroke-width="7.094641e-02" d="M38,22.9c0.5-0.1,0.2-1.8,0.2-2.5
				C38.1,21.1,37.6,22.8,38,22.9z"/>
			<path fill="#FFFFFF" stroke="#BD6B00" stroke-width="7.094641e-02" d="M37.8,22.9c-0.4,0.1-0.9-0.1-1-0.6
				C37.1,22.5,37.7,22.3,37.8,22.9z"/>
			<path fill="#FFFFFF" stroke="#BD6B00" stroke-width="7.094641e-02" d="M38.3,23.7c0.5,0,0.3-1.4,0.3-2.7
				C38.4,22.2,38,23.3,38.3,23.7z"/>
			<path fill="#FFFFFF" stroke="#BD6B00" stroke-width="7.094641e-02" d="M38.2,23.6c-0.3,0.2-0.9-0.1-1-0.6
				C37.7,23.2,38.1,23,38.2,23.6z"/>
			<path fill="#FFFFFF" stroke="#BD6B00" stroke-width="7.094641e-02" d="M34.5,20.5c0.1,0.7,0.4,1.1,0.8,1
				C35.4,21,35.1,20.8,34.5,20.5z"/>
			<path fill="#FFFFFF" stroke="#BD6B00" stroke-width="7.094641e-02" d="M35.7,22.2c-0.7,0.1-0.9-0.4-1.4-1.1
				C34.9,21.6,35.7,21.7,35.7,22.2L35.7,22.2z"/>
			<path fill="#FFFFFF" stroke="#BD6B00" stroke-width="7.094641e-02" d="M35.9,22.1c0.4-0.5,0-1-0.3-1.5
				C35.6,21.3,35.4,21.7,35.9,22.1z"/>
			<path fill="#FFFFFF" stroke="#BD6B00" stroke-width="7.094641e-02" d="M36,22.9c0-0.4-0.7-0.5-1.1-0.8C35.1,22.3,35.3,23,36,22.9
				L36,22.9z"/>
			<path fill="#FFFFFF" stroke="#BD6B00" stroke-width="7.094641e-02" d="M36.2,22.9c0.5-0.1,0.3-0.9-0.1-1.4
				C36.3,22.1,35.8,22.6,36.2,22.9z"/>
			<path fill="#FFFFFF" stroke="#BD6B00" stroke-width="7.094641e-02" d="M36.6,23.6c0.6-0.3,0.2-1,0-1.5
				C36.7,22.8,36.2,23.2,36.6,23.6z"/>
			<path fill="#FFFFFF" stroke="#BD6B00" stroke-width="7.094641e-02" d="M36.5,23.6c-0.3,0.4-0.9-0.1-1-0.7
				C35.9,23.3,36.3,23.2,36.5,23.6z"/>
			<path fill="#FFFFFF" stroke="#BD6B00" stroke-width="7.094641e-02" d="M37.8,26.4c0.1-0.6-0.4-1.7-0.1-2.3c0-0.1-0.1-0.3-0.2-0.2
				c-0.1,0.2-0.3,0.8-0.4,0.6c-0.1-0.2-0.1-0.7-0.3-0.7c-0.1,0-0.3-0.1-0.3,0.1c0.1,0.2,0.2,0.5,0,0.5c-0.1,0-0.3-0.3-0.5-0.4
				c-0.1-0.1-0.4,0.1-0.1,0.2C36.8,24.9,37.4,25.1,37.8,26.4L37.8,26.4z"/>
			<path fill="#FFFFFF" stroke="#BD6B00" stroke-width="7.094641e-02" d="M39.1,35.6C39.1,35.6,39.2,35.6,39.1,35.6
				c-0.7,1.1-0.9,1.3-2.1,1.2c-1.2-0.2-1.5-0.5-2.3-0.9c-0.4-0.3-1.1-0.3-1.6-0.2c-0.2,0.1-0.4,0.1-0.2-0.1c0.2-0.2,0.4-0.4,0.6-0.5
				c0.4-0.3,1.2-0.5,1.8-0.4c0.9,0.1,1.6,0.7,2.4,0.9C38.1,35.7,38.6,35.7,39.1,35.6L39.1,35.6z"/>
			<path fill="#FFFFFF" stroke="#BD6B00" stroke-width="7.094641e-02" d="M32.3,37.4c-0.1,0-0.2,0.3-0.3,0.1c-0.1-0.3,0-0.6,0.1-0.5
				C32.2,37,32.5,37.4,32.3,37.4L32.3,37.4z"/>
			<path fill="#FFFFFF" d="M39.6,26c0.2-0.2,0.1-0.2-0.1-0.3c-0.2,0-0.6,0.1-0.8,0c-0.1-0.1-0.1-0.5-0.1-0.7c0-0.1-0.1-0.3-0.3,0
				c-0.5,0.8-1.2,1.8-1.4,2.8c-0.2,0.5,0,1.4,0.5,2c0-0.5,0.2-0.8,0.4-1.2C38,28,39,26.5,39.6,26L39.6,26z"/>
			<path fill="#FFFFFF" stroke="#BD6B00" stroke-width="7.094641e-02" d="M37.5,30.3c-0.6,0-0.7-0.8-0.7-1
				C37.1,29.4,37.6,29.8,37.5,30.3z"/>
			<path fill="#FFFFFF" stroke="#BD6B00" stroke-width="7.094641e-02" d="M32.6,37.6c-0.4,0.1-0.4-0.9,0-1.3
				C32.4,37,32.9,37.5,32.6,37.6z"/>
			<path fill="#FFFFFF" stroke="#BD6B00" stroke-width="7.094641e-02" d="M32.8,37.6c0,0.5,1.1-0.1,1.4-0.4
				C33.5,37.5,32.8,37.3,32.8,37.6z"/>
			<path fill="#FFFFFF" stroke="#BD6B00" stroke-width="7.094641e-02" d="M33.3,37c0,0.4,1,0.1,1.3-0.3C33.9,36.9,33.3,36.6,33.3,37
				z"/>
			<path fill="#FFFFFF" stroke="#BD6B00" stroke-width="7.094641e-02" d="M33.1,37c-0.4,0.1-0.3-0.9,0.1-1.3
				C32.9,36.4,33.4,36.9,33.1,37z"/>
			<path fill="#FFFFFF" stroke="#BD6B00" stroke-width="7.094641e-02" d="M33.5,36.4c-0.4,0.1-0.2-0.8,0.1-1.1
				C33.6,35.9,33.8,36.4,33.5,36.4z"/>
			<path fill="#FFFFFF" stroke="#BD6B00" stroke-width="7.094641e-02" d="M33.7,36.4c0,0.5,0.8,0.1,1.1-0.3
				C34.1,36.3,33.8,36.1,33.7,36.4z"/>
			<path fill="#FFFFFF" stroke="#BD6B00" stroke-width="7.094641e-02" d="M33.9,36.1c-0.3-0.2,0-0.7,0.5-0.7
				C34.4,35.7,34.2,36.2,33.9,36.1z"/>
			<path fill="#FFFFFF" stroke="#BD6B00" stroke-width="7.094641e-02" d="M32,38.2c0,0.5,1.1,0.2,1.5-0.3C32.7,38,32,37.8,32,38.2z"
				/>
			<path fill="#FFFFFF" stroke="#BD6B00" stroke-width="7.094641e-02" d="M36.6,37.3c0,0.5,1.2,0,1.5-0.5
				C37.4,37.1,36.6,37,36.6,37.3z"/>
			<path fill="#FFFFFF" stroke="#BD6B00" stroke-width="7.094641e-02" d="M35.8,37.5c-0.3-0.2,0.3-0.7,0.7-0.8
				C36.4,37,36.1,37.7,35.8,37.5z"/>
			<path fill="#FFFFFF" stroke="#BD6B00" stroke-width="7.094641e-02" d="M35.7,37.8c0,0.4,1.4,0.2,1.7-0.2
				C36.2,37.9,35.7,37.5,35.7,37.8z"/>
			<path fill="#FFFFFF" stroke="#BD6B00" stroke-width="7.094641e-02" d="M35,38.1c-0.2,0.4,1.2,0.3,1.6,0.1
				C35.9,38.2,35.2,37.8,35,38.1z"/>
			<path fill="#FFFFFF" stroke="#BD6B00" stroke-width="7.094641e-02" d="M34.4,38.4c-0.1,0.3,1.1,0.3,1.7,0.1
				C35.3,38.5,34.6,38.1,34.4,38.4z"/>
			<path fill="#FFFFFF" stroke="#BD6B00" stroke-width="7.094641e-02" d="M33.5,38.6C33.3,39,34.6,39,35,38.8
				C34.3,38.7,33.7,38.3,33.5,38.6z"/>
			<path fill="#FFFFFF" stroke="#BD6B00" stroke-width="7.094641e-02" d="M35.1,37.9c0.4,0.3,0.4-0.5,0.7-1
				C35.3,37.3,34.8,37.6,35.1,37.9L35.1,37.9z"/>
			<path fill="#FFFFFF" stroke="#BD6B00" stroke-width="7.094641e-02" d="M34.3,38.2c0.3,0.3,0.6-0.7,0.9-1.3
				C34.8,37.4,34,37.9,34.3,38.2z"/>
			<path fill="#FFFFFF" stroke="#BD6B00" stroke-width="7.094641e-02" d="M33.4,38.5c0.3,0.3,1.1-1,1.4-1.7
				C34.3,37.3,33.1,38.2,33.4,38.5z"/>
			<path fill="#FFFFFF" stroke="#BD6B00" stroke-width="7.094641e-02" d="M34.2,39.5c0.1,0.5,2.3-0.5,2.5-1
				C35.5,39.1,34.2,39,34.2,39.5z"/>
			<path fill="#FFFFFF" stroke="#BD6B00" stroke-width="7.094641e-02" d="M41.1,29c0.1-0.1,0.2,0,0.2,0.2c0,0.2-0.3,1.3-0.9,1.7
				C40,31.1,38,31.6,37,31.8c-0.5,0.1-0.9,0.4-1.3,0.8c0.1-0.5,0.2-0.9,0.4-1.4c0.2-0.4,0.6-0.9,1.1-0.9c0.9,0,2-0.1,2.8-0.5
				C40.6,29.6,40.8,29.3,41.1,29L41.1,29z"/>
			<path fill="#FFFFFF" stroke="#BD6B00" stroke-width="7.094641e-02" d="M36.1,33.3c-0.3,0.2-0.6-0.5-0.2-1.2
				C35.9,32.8,36.4,33,36.1,33.3z"/>
			<path fill="#FFFFFF" stroke="#BD6B00" stroke-width="7.094641e-02" d="M35.8,34c-0.4,0.1-0.5-0.6-0.3-1.1
				C35.5,33.5,36.2,33.8,35.8,34z"/>
			<path fill="#FFFFFF" stroke="#BD6B00" stroke-width="7.094641e-02" d="M35.5,34.5c-0.4,0.2-0.5-0.5-0.2-1
				C35.2,34.2,35.8,34.4,35.5,34.5z"/>
			<path fill="#FFFFFF" stroke="#BD6B00" stroke-width="7.094641e-02" d="M35.7,34.6c0.1,0.4,1-0.4,1.1-0.8
				C36.3,34.3,35.6,34.2,35.7,34.6z"/>
			<path fill="#FFFFFF" stroke="#BD6B00" stroke-width="7.094641e-02" d="M36.1,33.9c0.2,0.4,1.2-0.7,1.5-1.2
				C37,33.2,35.9,33.6,36.1,33.9z"/>
			<path fill="#FFFFFF" stroke="#BD6B00" stroke-width="7.094641e-02" d="M36.3,33.2c0.2,0.5,1.3-0.8,1.7-1.3
				C37.4,32.5,36.1,32.9,36.3,33.2z"/>
			<path fill="#FFFFFF" stroke="#BD6B00" stroke-width="7.094641e-02" d="M36.3,32.8c-0.4-0.1,0-0.4,0.5-1
				C36.8,32.4,36.8,32.8,36.3,32.8z"/>
			<path fill="#FFFFFF" stroke="#BD6B00" stroke-width="7.094641e-02" d="M37,32.4c-0.2-0.2,0.2-0.3,0.6-0.8
				C37.6,32,37.2,32.6,37,32.4z"/>
			<path fill="#FFFFFF" stroke="#BD6B00" stroke-width="7.094641e-02" d="M35,34.6c-0.2,0.1-0.4-0.3-0.1-0.7
				C35,34.3,35.2,34.4,35,34.6z"/>
			<path fill="#FFFFFF" stroke="#BD6B00" stroke-width="7.094641e-02" d="M39.9,31.7c0.5,0.3,1.2-0.9,1.4-1.3
				C40.9,30.9,39.8,31.4,39.9,31.7z"/>
			<path fill="#FFFFFF" stroke="#BD6B00" stroke-width="7.094641e-02" d="M39.5,32.4c0.3,0.3,1.1-0.5,1.4-0.9
				C40.4,31.8,39.3,31.9,39.5,32.4z"/>
			<path fill="#FFFFFF" stroke="#BD6B00" stroke-width="7.094641e-02" d="M39,32.9c0.1,0.4,1.3-0.5,1.6-0.9
				C40.1,32.5,38.9,32.5,39,32.9z"/>
			<path fill="#FFFFFF" stroke="#BD6B00" stroke-width="7.094641e-02" d="M39.2,33.4c0.2,0.4,1.2-0.5,1.4-1C40,32.9,39,33,39.2,33.4
				z"/>
			<path fill="#FFFFFF" stroke="#BD6B00" stroke-width="7.094641e-02" d="M39.7,31.6c-0.3-0.3-0.2-0.5,0-1
				C39.9,31.2,40.1,31.4,39.7,31.6z"/>
			<path fill="#FFFFFF" stroke="#BD6B00" stroke-width="7.094641e-02" d="M39.3,32.3c-0.6,0,0-0.7,0.1-1.2
				C39.4,31.7,39.6,32.2,39.3,32.3z"/>
			<path fill="#FFFFFF" stroke="#BD6B00" stroke-width="7.094641e-02" d="M38.9,32.8c-0.4-0.1-0.3-0.6,0-1.3
				C38.9,32.2,39.3,32.6,38.9,32.8z"/>
			<path fill="#FFFFFF" stroke="#BD6B00" stroke-width="7.094641e-02" d="M39.1,33.9c0.1,0.4,1.3-0.6,1.4-1
				C39.9,33.4,39,33.6,39.1,33.9z"/>
			<path fill="#FFFFFF" stroke="#BD6B00" stroke-width="7.094641e-02" d="M38.4,34.6c0.2,0.4,1.3-0.4,1.7-0.9
				C39.4,34.2,38.3,34.1,38.4,34.6z"/>
			<path fill="#FFFFFF" stroke="#BD6B00" stroke-width="7.094641e-02" d="M37.7,35.3c0.2,0.6,1.4-0.4,1.8-0.8
				C38.7,35,37.6,34.8,37.7,35.3z"/>
			<path fill="#FFFFFF" stroke="#BD6B00" stroke-width="7.094641e-02" d="M38.9,33.7c-0.3,0.2-0.5-0.8-0.3-1.4
				C38.6,33,39.3,33.5,38.9,33.7z"/>
			<path fill="#FFFFFF" stroke="#BD6B00" stroke-width="7.094641e-02" d="M38.3,34.4c-0.4,0.1-0.3-0.9,0.1-1.5
				C38.4,33.5,38.7,34.2,38.3,34.4z"/>
			<path fill="#FFFFFF" stroke="#BD6B00" stroke-width="7.094641e-02" d="M37.6,35.1c-0.4,0-0.1-0.9,0.2-1.4
				C37.8,34.4,38,35.1,37.6,35.1z"/>
			<path fill="#FFFFFF" stroke="#BD6B00" stroke-width="7.094641e-02" d="M38.4,35.5c0.1,0.2,0.5-0.2,1-0.5
				C38.9,35.1,38.3,35.3,38.4,35.5z"/>
			<path fill="#FFFFFF" stroke="#BD6B00" stroke-width="7.094641e-02" d="M38.6,28c-0.4-0.3-0.1-0.9,0-1.4
				C38.8,27.1,39.1,27.8,38.6,28z"/>
			<path fill="#FFFFFF" stroke="#BD6B00" stroke-width="7.094641e-02" d="M38.6,28.8c0.6-0.1,0.5-0.9,0.5-1.4
				C39,28.1,38.5,28.2,38.6,28.8z"/>
			<path fill="#FFFFFF" stroke="#BD6B00" stroke-width="7.094641e-02" d="M38.5,28.7c-0.5,0-0.5-0.6-0.5-1.2
				C38.3,28,38.6,28.1,38.5,28.7z"/>
			<path fill="#FFFFFF" stroke="#BD6B00" stroke-width="7.094641e-02" d="M38.6,29.4c0.4,0,0.6-0.4,0.7-1
				C38.9,29,38.5,28.8,38.6,29.4z"/>
			<path fill="#FFFFFF" stroke="#BD6B00" stroke-width="7.094641e-02" d="M38.4,29.4c-0.5,0.1-0.4-0.5-0.4-1
				C38.2,28.8,38.6,28.9,38.4,29.4z"/>
			<path fill="#FFFFFF" stroke="#BD6B00" stroke-width="7.094641e-02" d="M39.2,29.1c0,0.4-0.3,1.1-0.7,0.9
				C38.4,29.6,38.9,29.5,39.2,29.1z"/>
			<path fill="#FFFFFF" stroke="#BD6B00" stroke-width="7.094641e-02" d="M38.4,30.1c0.2-0.3-0.4-0.5-0.5-1
				C37.8,29.8,37.9,30.2,38.4,30.1z"/>
			<path fill="#FFFFFF" stroke="#BD6B00" stroke-width="7.094641e-02" d="M40.1,25.9c-0.3-0.4,0-0.9,0.1-1.5
				C40.3,25,40.5,25.7,40.1,25.9z"/>
			<path fill="#FFFFFF" stroke="#BD6B00" stroke-width="7.094641e-02" d="M40.1,26.6c0.6,0.1,0.7-1.1,0.8-1.6
				C40.7,25.7,40,26,40.1,26.6z"/>
			<path fill="#FFFFFF" stroke="#BD6B00" stroke-width="7.094641e-02" d="M40,26.6c-0.4-0.2-0.3-0.7-0.4-1
				C39.8,26,40.1,26.1,40,26.6z"/>
			<path fill="#FFFFFF" stroke="#BD6B00" stroke-width="7.094641e-02" d="M40.1,27.3c0.6,0.1,1-1.2,1-1.7
				C40.9,26.3,40,26.7,40.1,27.3z"/>
			<path fill="#FFFFFF" stroke="#BD6B00" stroke-width="7.094641e-02" d="M40,27.3c-0.6-0.1-0.5-0.5-0.4-1.1
				C39.8,26.8,40.1,26.7,40,27.3z"/>
			<path fill="#FFFFFF" stroke="#BD6B00" stroke-width="7.094641e-02" d="M40.1,28.1c0.7,0.1,0.6-0.9,1.1-1.7
				C40.8,27,40,27.7,40.1,28.1z"/>
			<path fill="#FFFFFF" stroke="#BD6B00" stroke-width="7.094641e-02" d="M40,28.1c-0.5,0-0.5-0.7-0.5-1
				C39.6,27.3,40.1,27.6,40,28.1z"/>
			<path fill="#FFFFFF" stroke="#BD6B00" stroke-width="7.094641e-02" d="M41.1,27.3c-0.2,0.8-0.6,1.6-1,1.5
				C39.9,28.4,40.5,28.3,41.1,27.3z"/>
			<path fill="#FFFFFF" stroke="#BD6B00" stroke-width="7.094641e-02" d="M40,28.7c0.2-0.3-0.4-0.5-0.5-1
				C39.4,28.4,39.4,28.8,40,28.7z"/>
			<path fill="#FFFFFF" stroke="#BD6B00" stroke-width="7.094641e-02" d="M41,28.2c-0.4,0.7-0.5,1.6-1,1.4
				C39.8,29.1,40.5,29,41,28.2z"/>
			<path fill="#FFFFFF" stroke="#BD6B00" stroke-width="7.094641e-02" d="M39.9,29.5c0.2-0.4-0.4-0.5-0.5-1
				C39.3,29.1,39.3,29.6,39.9,29.5z"/>
			<path fill="#FFFFFF" stroke="#BD6B00" stroke-width="7.094641e-02" d="M38.9,24.6c-0.3,0.1-0.7-0.3-0.6-0.9
				C38.7,23.8,38.9,24.2,38.9,24.6z"/>
			<path fill="#FFFFFF" stroke="#BD6B00" stroke-width="7.094641e-02" d="M40,24.3c0,0.2-0.2,0.2-0.2-0.1c0-0.2,0.1-0.3,0-0.5
				c-0.1-0.2-0.1-0.5,0-0.7c0.1-0.1,0.3-0.1,0.2,0.1c-0.1,0.1-0.1,0.4,0,0.5C40,23.9,40,24.1,40,24.3L40,24.3z"/>
			<path fill="#FFFFFF" stroke="#BD6B00" stroke-width="7.094641e-02" d="M36.7,26.6c0.1,0.2,0.4,0.1,0.2-0.2
				c-0.2-0.2-0.4-0.4-0.4-0.6c0-0.3-0.2-0.7-0.3-0.9c-0.2-0.2-0.3,0.1-0.2,0.2c0.2,0.1,0.3,0.6,0.3,0.8
				C36.3,26.2,36.6,26.4,36.7,26.6L36.7,26.6z"/>
			<path fill="#FFFFFF" stroke="#BD6B00" stroke-width="7.094641e-02" d="M37.2,26.3c0.1,0.2,0.3,0.1,0.2-0.2
				c-0.1-0.2-0.1-0.5-0.2-0.7c-0.2-0.2-0.4-0.4-0.6-0.6c-0.2-0.2-0.3,0-0.1,0.1c0.2,0.2,0.4,0.4,0.5,0.6
				C37.1,25.8,37,26.1,37.2,26.3L37.2,26.3z"/>
			<path fill="#FFFFFF" stroke="#BD6B00" stroke-width="7.094641e-02" d="M39.4,25.2c0,0.3-0.2,0.3-0.2-0.1c0-0.4,0.3-0.8,0.1-1.5
				c-0.1-0.3-0.1-0.9,0-1.2c0.1-0.3,0.3-0.1,0.2,0.1c-0.1,0.3,0,0.8,0.1,1.1C39.8,24.5,39.4,24.9,39.4,25.2L39.4,25.2z"/>
			<path fill="#FFFFFF" stroke="#BD6B00" stroke-width="7.094641e-02" d="M38.8,23.7c0,0.3,0.3,0.3,0.2-0.1c-0.1-0.3-0.1-0.5,0-0.8
				c0.1-0.3,0.1-0.8,0-1c-0.1-0.2-0.3-0.1-0.2,0.1c0.1,0.2,0.1,0.6,0,0.8C38.7,23,38.7,23.4,38.8,23.7L38.8,23.7z"/>
			<path fill="#FFFFFF" stroke="#BD6B00" stroke-width="7.094641e-02" d="M41,28.9c-0.1,0.1-0.3,0-0.1-0.1c0.1-0.1,0.1-0.2,0.2-0.4
				c0.1-0.2,0.1-0.3,0.2-0.4c0.1-0.1,0.2,0,0.1,0.1c-0.1,0.1-0.1,0.2-0.1,0.3C41.1,28.7,41.1,28.8,41,28.9L41,28.9z"/>
			<path fill="#FFFFFF" stroke="#BD6B00" stroke-width="7.094641e-02" d="M38.1,32.4c-0.3,0.2-0.6,0.6-0.6,0.9c0,0.4-0.1,0.7-0.3,1
				c0.3-0.1,0.4-0.5,0.5-1C37.7,33,37.9,32.8,38.1,32.4L38.1,32.4z"/>
			<path fill="#FFFFFF" stroke="#BD6B00" stroke-width="7.094641e-02" d="M37.4,33.3c-0.2,0.4-0.6,0.6-0.6,0.9
				c0,0.4-0.1,0.4-0.2,0.8c0.3-0.1,0.4-0.1,0.4-0.7C37.1,33.9,37.4,33.6,37.4,33.3L37.4,33.3z"/>
			<path fill="#FFFFFF" d="M29.9,37.4c-0.1,0.3-0.3,0.6-0.6,0.6C29.3,37.7,29.6,37.6,29.9,37.4z"/>
			<path fill="#FFFFFF" d="M29.5,37.4c-0.5,0.2-1,0.2-1.1,0.5C28.9,38,29.1,37.8,29.5,37.4z"/>
			<path fill="#FFFFFF" d="M31.8,35.6c-0.4,0.3-0.6,0.6-0.7,1.1c-0.1,0.4-0.3,0.7-0.5,1.1c0.4-0.3,0.6-0.6,0.8-1.1
				C31.4,36.4,31.5,36,31.8,35.6L31.8,35.6z"/>
			<path fill="#FFFFFF" d="M31.3,35.6c-0.4,0.3-0.8,0.7-0.9,1.1c-0.1,0.4-0.2,0.7-0.5,1.1c0.4-0.3,0.6-0.7,0.7-1.1
				C30.8,36.4,31.1,36.1,31.3,35.6L31.3,35.6z"/>
			<path fill="#FFFFFF" d="M30,36.7c0-0.1,0-0.1-0.1-0.2c-0.1,0-0.2-0.1-0.4-0.1c-0.1,0-0.2,0.1-0.2,0.1c0,0.1,0,0.2,0,0.3
				c0,0.1,0,0.1,0.1,0.1c0.1,0,0.2,0,0.3,0.1c0.1,0.1,0.2,0,0.2-0.1C30,36.9,30,36.8,30,36.7L30,36.7z"/>
			<path fill="#FFFFFF" d="M28.5,36.7c0-0.1,0-0.2,0.1-0.2c0.1,0,0.2-0.1,0.3-0.1c0.1,0,0.2,0,0.2,0.1c0,0.1,0,0.2,0,0.3
				c0,0.1,0,0.1-0.1,0.1c-0.1,0-0.3,0-0.3,0.1c-0.1,0.1-0.2,0-0.2-0.1C28.5,36.9,28.5,36.8,28.5,36.7L28.5,36.7z"/>
			<path fill="#FFFFFF" d="M32.4,40.7c0,0.2,0,0.3,0.1,0.4c-0.6-0.2-1.4-0.1-2,0.2c-0.2,0.1-0.6-0.1-0.3-0.4
				C30.7,40.5,31.7,40.7,32.4,40.7L32.4,40.7z M24.2,40.7c0,0.2,0,0.3-0.1,0.4c0.6-0.3,1.3,0,1.9,0.2c0.4,0.2,0.5-0.1,0.4-0.2
				c-0.1-0.2-0.4-0.4-0.7-0.4C25.6,40.7,24.7,40.7,24.2,40.7L24.2,40.7z M24.8,37.6c-0.2-0.1-0.4,0-0.6,0.2
				c-0.6,0.6-1.3,1.2-1.9,1.6c-0.2,0.2-0.4,0.5,0.5,0.9c0,0,0.7,0.3,1.1,0.3c0.2,0,0.2,0.3,0.1,0.3c-0.1,0.1,0,0.2-0.2,0.3
				c-0.2,0.1,0,0.3,0.1,0.2c0.5-0.5,1.4-0.2,2.2,0.1c0.2,0.1,0.5,0,0.5-0.2c0-0.3,0.2-0.5,0.3-0.5c0.3,0.1,2,0.1,2.5,0
				c0.3,0,0.3,0.4,0.5,0.6c0.1,0.1,0.5,0.1,0.8,0c0.6-0.3,1.4-0.3,1.8,0c0.1,0.1,0.3,0,0.2-0.1c-0.1-0.2-0.1-0.2-0.2-0.3
				c-0.1-0.3,0-0.3,0.1-0.4c1.6-0.2,2.1-0.7,1.6-1.2c-0.6-0.5-1.3-1.1-1.9-1.7c-0.2-0.2-0.3-0.2-0.6-0.1c-1,0.5-2.3,0.8-3.6,0.8
				C27.1,38.4,25.4,37.9,24.8,37.6L24.8,37.6z"/>
			<path fill="#BD6B00" d="M32.1,37.7c-0.1,0-0.2,0-0.2,0.1c-1.3,0.4-2.4,0.8-3.6,0.8c-1.2,0-2.4-0.3-3.5-0.8c-0.1,0-0.1,0-0.2,0
				c-0.1,0-0.1,0.1-0.2,0.1c-0.5,0.5-1.1,1-1.7,1.5c-0.1,0.1-0.1,0.2,0.1,0.3h0c1.2,0.4,2.3,1.2,5.6,1.2c3.3,0,4.5-0.8,5.6-1.2
				c0.1,0,0.2-0.1,0.2-0.1c0,0,0-0.1,0-0.1c0,0,0-0.1-0.1-0.1h0c-0.6-0.5-1.2-0.9-1.7-1.5C32.3,37.7,32.2,37.7,32.1,37.7L32.1,37.7z
				 M32.1,37.7c0.1,0,0.1,0,0.2,0c0.4,0.6,1.1,1,1.7,1.5c0,0,0.1,0.1,0.1,0.1c0,0,0,0,0,0.1c0,0-0.1,0.1-0.2,0.1
				c-1.1,0.4-2.2,1.1-5.5,1.2c-3.3,0-4.4-0.8-5.6-1.2c-0.1,0-0.1-0.2-0.1-0.2c0.6-0.5,1.2-1,1.7-1.5c0,0,0.1-0.1,0.2-0.1
				c0.1,0,0.1,0,0.2,0c1.1,0.5,2.4,0.8,3.6,0.8c1.2,0,2.4-0.3,3.7-0.8C32,37.8,32.1,37.7,32.1,37.7L32.1,37.7z"/>
			<path fill="#FFFFFF" d="M24,16.3c0-0.2,0.3-0.2,0.3,0.1c0,0.3,0.6,1.2,0.7,1.7c0,0.4-0.2,0.7-0.4,0.8c-0.3,0.2-0.8,0.2-1,0.1
				c-0.1-0.1-0.2-0.5-0.1-0.6c0,0,0.2,0.5,0.5,0.5c0.5,0,0.8-0.4,0.9-0.7C24.8,17.7,24.1,16.8,24,16.3L24,16.3z"/>
			<path fill="#FFFFFF" d="M25.4,17.6c0.1-0.1,0.2,0.2,0.1,0.2C25.4,17.9,25.3,17.7,25.4,17.6z"/>
			<path fill="#FFFFFF" d="M25.6,17.1C25.6,17.1,25.5,17.1,25.6,17.1c0-0.2,0.2-0.4,0.4-0.5c0.1,0,0.1,0.1,0.1,0.1
				C26,16.8,25.8,17,25.6,17.1L25.6,17.1z"/>
			<path fill="#FFFFFF" d="M27.4,15.7c0-0.1,0.3-0.2,0.4-0.3c0.1-0.1,0.1,0.1,0.1,0.1c0,0.1-0.3,0.2-0.4,0.2
				C27.4,15.8,27.4,15.7,27.4,15.7L27.4,15.7z"/>
			<path fill="#FFFFFF" d="M28,15.7c0.1-0.2,0.2-0.4,0.4-0.5c0.1,0,0.2,0,0.2,0.1c0,0.1-0.3,0.4-0.4,0.5C28.1,15.8,28,15.8,28,15.7z
				"/>
			<path fill="#FFFFFF" d="M27.5,16.1c0,0,0,0.1,0,0.1c0.1,0,0.2,0,0.3,0c0.1-0.1,0-0.4-0.1-0.2C27.6,16.1,27.6,16.1,27.5,16.1
				L27.5,16.1z"/>
			<path fill="#FFFFFF" d="M26.4,16.9c-0.2-0.1,0.1-0.3,0.2-0.2c0.4,0.3-0.6,1.4-1.1,1.9c-0.1,0.1-0.2-0.2-0.1-0.3
				c0.4-0.3,0.7-0.7,1-1.1C26.6,17.2,26.6,17,26.4,16.9L26.4,16.9z"/>
			<path fill="#FFFFFF" d="M28.6,16c0-0.1-0.2,0-0.2-0.2c0-0.1,0.3-0.2,0.4-0.1c0.2,0.2,0,0.5-0.3,0.5c-0.3,0-0.7,0.4-0.6,0.5
				c0.1,0.1,0.8,0.2,1.2,0.1c0.3,0,0.2,0.2-0.1,0.2c-0.2,0-0.5,0-0.7,0.1c-0.3,0.1-0.4,0.4-0.5,0.6c0,0-0.1-0.1-0.1-0.2
				c0.1-0.2,0.3-0.4,0.5-0.5c0.1,0-0.3-0.1-0.5-0.1c-0.1,0-0.1-0.2,0-0.3c0.1-0.1,0.5-0.6,0.7-0.5C28.4,16.1,28.6,16.1,28.6,16
				L28.6,16z"/>
			<path fill="#FFFFFF" d="M29.3,16c0.1-0.1,0.1-0.2,0.2-0.3c0,0,0.1,0,0.1,0.1c0,0.1-0.1,0.2-0.2,0.2C29.4,16.1,29.3,16,29.3,16z"
				/>
			<path fill="#FFFFFF" d="M30.3,15.7c0.1,0,0.1,0.2,0,0.3C30.2,16,30.1,15.7,30.3,15.7z"/>
			<path fill="#FFFFFF" d="M29.9,16.4c0,0.2,0.1,0.2,0.3,0.2c0.2,0,0.3,0,0.3-0.2c0-0.2-0.1-0.3-0.1-0.2c0,0.1,0,0.3-0.1,0.2
				c-0.1-0.1,0-0.1-0.2,0c-0.1,0.1-0.1,0-0.1-0.1C30,16.3,29.9,16.4,29.9,16.4L29.9,16.4z"/>
			<path fill="#FFFFFF" d="M28.6,17.4c0,0.3,0,0.6,0.1,0.6c0.2,0,0.5-0.6,0.7-0.9c0.1-0.2,0.3-0.2,0.2,0c-0.1,0.3-0.1,0.9,0,1
				c0.1,0.1,0.4-0.1,0.5-0.2c0.1-0.2,0-0.7,0.1-0.9c0-0.2,0.2-0.2,0.2,0c0,0.3,0,0.8,0,1.1c0,0.1,0.4,0.3,0.5-0.1
				c0-0.3,0.2-0.5,0-0.8c-0.1-0.2,0.2-0.2,0.3,0.1c0.1,0.2-0.1,0.5-0.1,0.7c0,0.3-0.2,0.5-0.4,0.5c-0.2,0-0.3-0.2-0.4-0.2
				c-0.2,0-0.3,0.2-0.4,0.2c-0.5,0-0.2-0.8-0.4-0.8c-0.2,0-0.4,0.7-0.6,0.7c-0.2,0-0.4-0.6-0.3-0.8C28.5,17.3,28.7,17.3,28.6,17.4
				L28.6,17.4z"/>
			<path fill="#FFFFFF" d="M31,16.3c-0.2-0.1,0-0.5,0.1-0.4c0.2,0.3,0.5,0.9,0.6,1c0.1,0,0.1-0.5,0.2-0.7c0-0.2,0.3-0.1,0.2,0.1
				c0,0.1-0.3,0.9-0.3,0.9c0.2,0.4,0.4,0.7,0.5,1.1c0,0.2-0.2,0.1-0.2,0c-0.1-0.2-0.3-0.9-0.3-0.9c-0.1,0.5-0.1,0.7-0.2,1.1
				c0,0.1-0.2,0.1-0.2-0.1c0-0.2,0.3-1.2,0.3-1.2C31.5,16.8,31.3,16.4,31,16.3L31,16.3z"/>
			<path fill="#FFFFFF" d="M31.5,18.6c-0.1,0-0.2,0.1,0.2,0.2c0.4,0.1,0.9-0.1,1.1-0.5c0.2-0.5,0.3-1,0.4-1.2
				c0.1-0.2,0.3-0.2,0.1-0.5c-0.1-0.2-0.2-0.2-0.2,0c-0.1,0.3-0.4,1.4-0.5,1.6C32.4,18.5,32,18.7,31.5,18.6L31.5,18.6z"/>
			<path fill="#FFFFFF" d="M32.4,16.9c0-0.1-0.2,0-0.1,0.1c0,0.1,0.1,0.2,0.2,0.2c0.1,0,0.3,0,0.3-0.2c0-0.1-0.1-0.2-0.2-0.1
				C32.5,17,32.4,17,32.4,16.9L32.4,16.9z"/>
			<path fill="#FFFFFF" d="M32.5,16.5c0,0,0,0.2,0,0.1c0.1,0,0.4-0.1,0.5-0.1c0,0,0-0.1,0-0.1C32.8,16.4,32.6,16.4,32.5,16.5
				L32.5,16.5z"/>
			<path fill="#FFFFFF" d="M33.7,16.8c0.1-0.2,0.4-0.2,0.3,0.1c-0.1,0.2-0.8,1.6-0.9,1.7c-0.1,0.2-0.2,0.1-0.1-0.1
				C33.1,18.3,33.7,16.8,33.7,16.8z"/>
			<path fill="#FFFFFF" d="M32.6,18.9c0-0.1-0.2-0.3-0.2,0c0,0.5,0.8,0.4,1,0.2c0.2-0.2,0,0.6,0.3,0.7c0.2,0,0.4-0.2,0.6-0.3
				c0.4-0.5,0.6-1.2,1-1.7c0.1-0.2-0.1-0.3-0.2-0.2c-0.3,0.5-0.7,1.6-1.2,1.9c-0.4,0.2-0.3-0.3-0.3-0.5c0-0.1-0.2-0.3-0.3-0.1
				c-0.1,0.1-0.3,0.2-0.5,0.2C32.8,19.1,32.7,19.1,32.6,18.9L32.6,18.9z"/>
			<path fill="#FFFFFF" d="M34,17.9c0,0-0.2,0-0.1,0.1c0,0.1,0.1,0.1,0.2,0.1C34.2,18,33.9,18,34,17.9L34,17.9z"/>
			<path fill="#FFFFFF" d="M33.6,18.5c0,0-0.1,0.1,0,0.2c0.1,0,0.5,0,0.6,0c0.1,0,0.1-0.1,0-0.1C34,18.5,33.8,18.5,33.6,18.5
				L33.6,18.5z"/>
			<path fill="#FFFFFF" d="M24.9,16.1c0.1,0,0.2,0.2,0.2,0.3c0,0-0.2,0-0.2,0C24.8,16.3,24.8,16.1,24.9,16.1z M24.1,17.6
				c-0.1,0.1,0,0.2,0.1,0.2c0.4-0.3,1-0.5,1.1-1.1c0-0.2,0.2-0.4,0.4-0.5c0.2-0.1,0.4,0.3,0.5,0c0.1-0.1,0.4,0.1,0.4-0.1
				c0.1-0.2,0-0.3,0-0.5c0-0.1-0.1-0.2-0.2,0c0,0.1,0,0.2,0,0.2c0,0-0.1,0.1-0.1,0c0,0,0-0.1-0.1-0.1c0,0-0.1,0-0.1,0
				c-0.1,0.2-0.2,0.4-0.3,0.2c-0.1-0.2-0.2-0.5-0.3-0.1c0,0.1-0.2,0.3-0.4,0.3c-0.2,0-0.1-0.4-0.5-0.3c-0.2,0-0.2,0.4-0.1,0.5
				c0,0.2,0.6,0,0.5,0.2C25.1,17,24.6,17.4,24.1,17.6L24.1,17.6z"/>
			<path fill="#FFFFFF" d="M20.9,19.5c0,0.1,0.1,0.2,0.2,0.3c0.1,0,0.1-0.2,0.1-0.3C21.1,19.5,20.9,19.5,20.9,19.5L20.9,19.5z"/>
			<path fill="#FFFFFF" d="M21.3,20.2c-0.1-0.1-0.2,0.1-0.1,0.2c0.1,0.1,0.4,0.2,0.4,0c0.1-0.2-0.1-0.8,0-0.9
				c0.1-0.1,0.4,0.4,0.6,0.4c0.4,0.1,0.3-0.7,0.7-0.6c0.3,0,0.3-0.3,0.3-0.5c0-0.2-0.4-0.5-0.5-0.7c-0.2-0.2-0.3,0.1-0.2,0.2
				c0.2,0.1,0.5,0.4,0.5,0.6c0,0.1-0.2,0.3-0.3,0.2c-0.2-0.1-0.4-0.6-0.5-0.7c-0.1,0-0.2,0-0.1,0.2c0.1,0.1,0.4,0.4,0.4,0.5
				c0,0.1-0.1,0.5-0.3,0.5c-0.1,0-0.4-0.4-0.5-0.6c0-0.1-0.2-0.1-0.2,0c0,0.2,0,0.6,0.1,0.8C21.6,20.3,21.4,20.3,21.3,20.2
				L21.3,20.2z"/>
			<path fill="#FFFFFF" d="M20.8,19c0,0.1,0.1,0.2,0.1,0.1c0.1-0.1,0.3-0.3,0.3-0.4c0-0.1-0.4-0.3-0.4-0.2c-0.1,0.2,0.3,0.2,0.2,0.3
				C21,18.8,20.8,18.9,20.8,19z"/>
			<path fill="#FFFFFF" d="M21.4,17.8c0,0,0.1,0.4,0.2,0.2C21.6,17.9,21.4,17.8,21.4,17.8z"/>
			<path fill="#FFFFFF" d="M21.5,18.3c0,0-0.1,0.1-0.1,0.1c0.1,0.1,0.4,0.1,0.3-0.1c0-0.1,0.4,0,0.3-0.3c0-0.1-0.2-0.2-0.3-0.2
				c0,0-0.2,0.1-0.1,0.1c0.1,0,0.3,0.2,0.2,0.2c-0.1,0.1-0.2,0-0.3,0c-0.1,0,0,0.2-0.1,0.2C21.6,18.4,21.6,18.3,21.5,18.3L21.5,18.3
				z"/>
			<path fill="#FFFFFF" d="M22.3,17c-0.1,0-0.2,0.2-0.2,0.3c0,0,0,0.1,0.1,0.1C22.3,17.3,22.4,17.2,22.3,17C22.4,17,22.3,17,22.3,17
				L22.3,17z"/>
			<path fill="#FFFFFF" d="M22.7,17c-0.1-0.1,0.1-0.4,0.2-0.1c0.1,0.2,0.8,1.1,0.9,1.4c0.1,0.2,0,0.3-0.1,0.1
				C23.4,18,23.1,17.4,22.7,17L22.7,17z"/>
			<path fill="#FFFFFF" d="M23.4,17c0.1-0.1,0.4-0.4,0.3-0.6c-0.1-0.1-0.2-0.1-0.2-0.1c-0.2,0.2,0.1,0.1,0.1,0.2
				C23.5,16.7,23.4,16.7,23.4,17C23.4,16.9,23.4,17,23.4,17L23.4,17z"/>
			<path fill="#FFFFFF" d="M34.5,17.4c-0.1-0.1,0.1-0.4,0.2-0.3c0.3,0.4,0.5,1.7,0.6,2.6c0,0-0.2,0.1-0.2,0.1
				C35.1,19.3,34.9,17.8,34.5,17.4L34.5,17.4z"/>
			<path fill="#FFFFFF" d="M26.9,16.2c-0.1-0.2,0.2-0.3,0.2-0.2c0.2,0.8,0.6,1.4,1,2c0.1,0.2,0,0.3-0.2,0.1
				c-0.2-0.1-0.4-0.6-0.4-0.6c-0.2,0-0.5,0.7-1.3,0.5C26,18,26,17.4,26,17.2c0-0.1,0.1-0.2,0.1,0c0,0.2,0,0.7,0.3,0.7
				c0.2,0,0.8-0.3,0.9-0.6C27.4,17,27.1,16.5,26.9,16.2L26.9,16.2z"/>
			<path fill="#FFFFFF" d="M34.7,19.6c0.1-0.2,0.9-1.5,1-1.8c0.1-0.1,0.3,0.2,0.1,0.5c-0.2,0.2-0.8,1.1-0.9,1.5
				C34.8,19.9,34.6,19.8,34.7,19.6L34.7,19.6z"/>
			<path fill="#FFFFFF" d="M36,18.3c0.1-0.6,0.5,0.1,0.2,0.4c-0.5,0.5-0.6,1.4-1.4,1.5c-0.2,0-0.6-0.1-0.7-0.2c0,0,0-0.2,0.2-0.1
				c0.2,0.1,0.6,0.2,0.8,0C35.5,19.6,35.9,19,36,18.3L36,18.3z"/>
			<path fill="#FFFFFF" d="M28,20.2c0,0-0.1,0-0.2,0.1c0,0.2,0,0.3,0,0.5c0,0.2-0.2,0.2-0.2,0c0-0.2,0.2-0.5,0.1-0.5
				c-0.1,0-0.1-0.1-0.1-0.2C27.7,20,27.8,20,28,20.2C28,20.1,28,20.1,28,20.2L28,20.2z"/>
			<path fill="#FFFFFF" d="M27.8,19.9c-0.2,0.2-0.4,0.3-0.6,0.5c-0.1,0.1-0.1,0.2-0.1,0.3c0,0.1-0.2,0.2-0.2,0.1
				c-0.1-0.1-0.1-0.3-0.2-0.2c-0.1,0.1-0.1,0.3-0.2,0.3c-0.1,0-0.3-0.2-0.2-0.2c0.3,0,0.3-0.3,0.4-0.3c0.1,0,0.1,0.2,0.2,0.2
				c0.1,0,0.1-0.3,0.2-0.4c0.2-0.2,0.4-0.3,0.6-0.5C27.9,19.6,28,19.8,27.8,19.9L27.8,19.9z"/>
			<path fill="#FFFFFF" d="M28.6,20.6c-0.2,0-0.1,0.2-0.1,0.3c0.1,0,0.2,0.1,0.2-0.2c0-0.1,0,0.5,0.3,0.3c0.1-0.1,0.4,0,0.6-0.1
				c0.1-0.1,0.1-0.2,0-0.4c0-0.1-0.1,0-0.1,0.1c0,0.1-0.1,0.2-0.2,0.2c-0.1,0,0-0.3,0-0.3c0,0-0.1,0-0.1,0c0,0.1,0,0.3-0.1,0.3
				c-0.2,0-0.1-0.2-0.1-0.2C28.7,20.4,28.7,20.5,28.6,20.6L28.6,20.6z"/>
			<path fill="#FFFFFF" d="M29.9,20.2c0.1,0,0.1,0,0.3-0.2c0.1-0.1,0.1,0.1,0.1,0.2c0,0.1-0.1,0-0.2,0.1c-0.1,0.1,0,0.4-0.1,0.5
				c0,0.1-0.1,0.1-0.1,0c0-0.1,0-0.3,0-0.5C29.9,20.3,29.8,20.2,29.9,20.2L29.9,20.2z"/>
			<path fill="#FFFFFF" d="M29.2,19.8c0,0.1,0,0.2,0,0.3c0,0.1,0.1,0,0.1,0C29.3,20,29.3,19.9,29.2,19.8
				C29.3,19.8,29.2,19.8,29.2,19.8L29.2,19.8z"/>
			<path fill="#FFFFFF" d="M28.3,18.5l-0.2,0.8l-0.3-0.5v0.5l-0.6-0.7l0.2,0.8l-0.6-0.5l0.3,0.5l-1-0.6l0.6,0.7L26,19.1l0.6,0.5
				l-1.3-0.5l1.3,0.6c0.5-0.2,1.1-0.4,1.8-0.4c0.7,0,1.3,0.1,1.8,0.4c0,0,0,0,0,0l1.2-0.6L30,19.6l0.6-0.5l-0.8,0.4l0.6-0.7l-1,0.6
				l0.3-0.5l-0.6,0.5l0.2-0.8l-0.6,0.7l0-0.5l-0.3,0.5L28.3,18.5L28.3,18.5z"/>
		</g>
		<path fill="#FFFFFF" d="M27.2,35.7c0,0.1,0,0.2,0,0.4h-0.1c0-0.1,0-0.2,0-0.2c0-0.1,0-0.1-0.1-0.2c0-0.1,0-0.1-0.1-0.2
			c0,0-0.1-0.1-0.1-0.2l0.1-0.3C27,35,27,35.1,27,35.1c0,0,0.1,0.1,0.1,0.2c0,0.1,0,0.1,0.1,0.2C27.2,35.6,27.2,35.6,27.2,35.7"/>
		<path fill="#FFFFFF" d="M28.1,35.1c0,0.1,0,0.2-0.1,0.2c0,0-0.1,0.1-0.2,0.1c0,0.1,0,0.1,0,0.2c0,0,0,0.1,0,0.2c0,0,0,0.1,0,0.1
			c0,0,0,0.1,0,0.2h-0.1c0-0.1,0-0.1,0-0.2c0,0,0-0.1,0-0.1c0,0,0-0.1-0.1-0.1c0-0.1-0.1-0.1-0.1-0.2c0-0.1-0.1-0.1-0.1-0.2l0.1-0.3
			c0,0.1,0.1,0.1,0.1,0.1c0,0,0.1,0,0.1,0c0.1,0,0.2-0.1,0.2-0.2h0.1C28.1,35,28.1,35,28.1,35.1C28.1,35.1,28.1,35.1,28.1,35.1"/>
		<path fill="#FFFFFF" d="M29,35.8l-0.1,0.3c0,0-0.1,0-0.1-0.1c0,0,0-0.1,0-0.2c0-0.1,0-0.1,0-0.2c-0.1,0-0.1,0-0.1,0
			c-0.1,0-0.1,0-0.2-0.1c0,0-0.1-0.1-0.1-0.1c0-0.1,0-0.2,0.1-0.3c0.1-0.1,0.1-0.1,0.2-0.1c0.1,0,0.1,0,0.1,0c0,0,0,0.1,0,0.1
			c0,0,0,0.1,0,0.3c0,0.1,0,0.2,0,0.3C28.9,35.7,28.9,35.7,29,35.8 M28.7,35.3c0-0.1,0-0.1-0.1-0.1c0,0-0.1,0-0.1,0s0,0,0,0
			C28.5,35.3,28.5,35.3,28.7,35.3C28.6,35.3,28.7,35.3,28.7,35.3"/>
		<path fill="#FFFFFF" d="M29.9,35.7l0,0.3c-0.1,0-0.1-0.1-0.2-0.3c-0.1-0.1-0.1-0.3-0.2-0.6c-0.1,0.2-0.1,0.4-0.1,0.5
			c0,0.1-0.1,0.2-0.1,0.2c0,0-0.1,0.1-0.1,0.1l0-0.3c0.1-0.1,0.1-0.2,0.1-0.2c0-0.1,0.1-0.1,0.1-0.2c0-0.1,0-0.2,0.1-0.4h0.1
			c0,0.1,0.1,0.3,0.1,0.4c0,0.1,0.1,0.2,0.1,0.2C29.7,35.6,29.8,35.6,29.9,35.7"/>
		<path fill="#BF0000" d="M32.5,39c0,0.1,0.1,0.1,0.1,0.2c0,0.1,0,0.1,0,0.2l-0.1,0c0-0.1-0.1-0.2-0.1-0.2c0,0-0.1-0.1-0.2-0.2
			c-0.1-0.1-0.1-0.1-0.2-0.2c-0.1-0.1-0.2-0.1-0.3-0.2c0,0-0.1-0.1-0.1-0.1c0,0,0-0.1,0-0.1c0-0.1,0-0.1,0-0.2l0.4,0.3
			c0.1,0.1,0.2,0.2,0.3,0.3C32.3,38.8,32.4,38.9,32.5,39 M31.2,38.2l0,0.3l-0.4,0l0-0.3L31.2,38.2 M32.3,39.4l-1,0.3l-0.2-0.3
			l0.9-0.3c0-0.1-0.1-0.1-0.1-0.1c0,0-0.1-0.1-0.1-0.1c0,0,0,0.1-0.1,0.1c0,0-0.1,0.1-0.1,0.1c-0.1,0-0.2,0-0.2,0
			c-0.1,0-0.1-0.1-0.2-0.1c-0.1-0.1-0.1-0.2-0.1-0.3c0-0.1,0-0.2,0.1-0.2c0.1,0,0.2,0,0.4,0.1c0.2,0.1,0.3,0.2,0.4,0.3L32.3,39.4
			 M31.5,38.8c0,0-0.1,0-0.1,0c0,0-0.1,0-0.1,0c0,0,0,0-0.1,0c0,0,0,0,0,0.1c0,0,0,0,0.1,0c0,0,0.1,0,0.1,0
			C31.4,38.9,31.5,38.9,31.5,38.8C31.5,38.9,31.5,38.9,31.5,38.8 M30.4,38.6l-0.1,0.3l-0.4,0l0.1-0.3L30.4,38.6 M31.4,39.7l-0.2,0.1
			c-0.1,0-0.2,0-0.2,0c-0.1,0-0.1,0-0.2-0.1c0,0.1-0.1,0.1-0.2,0.2c-0.1,0-0.1,0.1-0.2,0.1l-0.2,0l-0.1-0.3l0.2,0c0.1,0,0.1,0,0.2,0
			c0,0,0.1,0,0.1-0.1c-0.1,0-0.1-0.1-0.1-0.1c0,0-0.1,0-0.1,0c0,0,0,0,0,0c0,0,0,0,0,0l-0.1,0c-0.1-0.1-0.1-0.2,0-0.3
			c0-0.1,0.1-0.1,0.3-0.1c0.1,0,0.3,0,0.4,0c0.1,0,0.2,0.1,0.2,0.1c0,0,0,0.1,0,0.1c0,0,0,0.1-0.1,0.2c0,0,0,0,0.1,0
			c0,0,0.1,0,0.1,0l0.2-0.1L31.4,39.7 M30.4,39.9l-0.2,0c-0.1,0-0.2,0-0.3-0.1c-0.1-0.1-0.2-0.2-0.2-0.3l-0.1-0.3
			c0-0.1-0.1-0.1-0.1-0.1c0,0-0.1,0-0.1-0.1l0.1-0.3c0.1,0,0.1,0.1,0.2,0.1c0.1,0.1,0.1,0.1,0.1,0.2l0.1,0.2
			c0.1,0.1,0.1,0.2,0.2,0.3c0,0,0.1,0.1,0.1,0l0.2,0L30.4,39.9 M29.4,38.9l-0.1,0.2l-0.4-0.1l0.1-0.3L29.4,38.9 M29.7,40l-1,0.1
			l-0.1-0.3l0.8-0.1c0,0-0.1-0.1-0.1-0.1c0,0-0.1,0-0.1-0.1l0.1-0.3c0.1,0.1,0.2,0.1,0.2,0.2c0,0.1,0.1,0.2,0.1,0.3L29.7,40
			 M28.9,40.2c-0.1,0-0.2,0-0.3,0c-0.1,0-0.2,0-0.2-0.1c-0.1,0-0.1,0-0.2,0.1c0,0-0.1,0-0.2,0l-0.3,0c-0.1,0-0.1,0-0.2,0
			c0,0-0.1-0.1-0.1-0.1c-0.1,0.1-0.1,0.1-0.2,0.1c-0.1,0-0.1,0-0.2,0l-0.2,0l0-0.3l0.2,0c0.1,0,0.2,0,0.3-0.1
			c0.1-0.1,0.2-0.1,0.2-0.2l0.1,0c0,0,0,0,0,0.1c0,0,0,0.1,0,0.1c0,0,0,0.1,0,0.1c0,0,0.1,0,0.1,0l0.2,0c0.1,0,0.2,0,0.3,0
			c0.1,0,0.1-0.1,0.1-0.2c0,0,0,0,0,0c0,0,0,0,0.1,0l0.1,0c0,0,0,0,0,0.1c0,0,0,0,0,0c0,0,0,0.1,0,0.2c0,0,0.1,0,0.1,0
			c0,0,0.1,0,0.2,0c0,0,0-0.1,0-0.1c0,0,0-0.1,0-0.1c0,0,0,0,0,0c0,0,0,0,0,0l0.1-0.1c0,0,0,0.1,0.1,0.1c0,0,0,0.1,0,0.1L28.9,40.2
			 M27.4,39l-0.3,0.2l-0.2-0.1l-0.2,0.1L26.5,39l0.2-0.2l0.2,0.1l0.2-0.1L27.4,39 M27,40.1l-1-0.2l0.1-0.3l0.8,0.1c0,0,0-0.1,0-0.1
			c0,0,0-0.1-0.1-0.1l0.2-0.2c0.1,0.1,0.1,0.1,0.1,0.2c0,0.1,0,0.2-0.1,0.3L27,40.1 M26.1,40l-0.2-0.1c-0.1,0-0.2-0.1-0.2-0.2
			c0-0.1,0-0.2,0.1-0.4l0.2-0.3c0-0.1,0.1-0.1,0-0.2c0,0,0-0.1,0-0.1l0.3-0.2c0,0.1,0,0.1,0,0.2c0,0.1,0,0.1-0.1,0.2l-0.1,0.2
			c-0.1,0.1-0.1,0.2-0.1,0.3c0,0,0,0.1,0.1,0.1l0.2,0.1L26.1,40 M25.6,38.9L25.3,39l-0.2-0.2l0.3-0.1L25.6,38.9 M25.5,39.8
			c-0.1,0.1-0.1,0.1-0.2,0.2c-0.1,0-0.1,0.1-0.2,0.1c-0.1,0-0.2,0-0.3,0c-0.1,0-0.3-0.1-0.4-0.1c-0.2-0.1-0.4-0.2-0.5-0.3
			c-0.1-0.1-0.1-0.2,0-0.3c0.1-0.1,0.2-0.2,0.3-0.2c0.1-0.1,0.3-0.1,0.5-0.2l0.1,0.1c-0.2,0.1-0.3,0.1-0.4,0.2
			c-0.1,0-0.1,0.1-0.2,0.1c-0.1,0.1,0,0.1,0,0.2c0.1,0.1,0.2,0.1,0.4,0.2c0.2,0.1,0.3,0.1,0.5,0.1c0.2,0,0.3,0,0.3-0.1
			c0,0,0.1-0.1,0.1-0.1c0,0,0-0.1,0-0.2l0.3-0.2c0,0.1,0,0.2,0,0.2c0,0.1-0.1,0.1-0.1,0.2L25.5,39.8"/>
	</g>
</g>
</svg>
