<?xml version="1.0" encoding="iso-8859-1"?>
<!-- Generator: Adobe Illustrator 18.1.1, SVG Export Plug-In . SVG Version: 6.00 Build 0)  -->
<svg version="1.1" id="Layer_23" xmlns="http://www.w3.org/2000/svg" xmlns:xlink="http://www.w3.org/1999/xlink" x="0px" y="0px"
	 viewBox="0 0 56.692 56.692" style="enable-background:new 0 0 56.692 56.692;" xml:space="preserve">
<g>
	<defs>
		<circle id="SVGID_1_" cx="28.346" cy="28.345" r="28.347"/>
	</defs>
	<clipPath id="SVGID_2_">
		<use xlink:href="#SVGID_1_"  style="overflow:visible;"/>
	</clipPath>
	<rect x="-14.173" y="0" style="clip-path:url(#SVGID_2_);fill:#000066;" width="85.04" height="56.693"/>
	<g style="clip-path:url(#SVGID_2_);">
		<polygon style="fill:#FFFFFF;" points="28.347,0 22.656,0 11.238,7.754 11.238,0 2.77,0 2.77,7.752 -8.641,0 -14.173,0 
			-14.173,3.337 -5.163,9.459 -14.173,9.459 -14.173,18.89 -5.169,18.89 -14.173,25.004 -14.173,28.347 -8.649,28.347 2.77,20.593 
			2.77,28.347 11.238,28.347 11.238,20.597 22.647,28.347 28.347,28.347 28.347,25.125 19.169,18.89 28.347,18.89 28.347,9.459 
			19.175,9.459 28.347,3.232 		"/>
		<g>
			<polygon style="fill:#CC0000;" points="0.011,9.459 -13.911,0 -14.173,0 -14.173,2.001 -3.198,9.459 			"/>
			<polygon style="fill:#CC0000;" points="14.072,9.459 28.264,0 25.012,0 10.819,9.459 			"/>
			<path style="fill:#CC0000;" d="M9.615,11.242V0H4.55v11.242h-18.724c0,0,0.01,5.578,0.024,5.641L4.55,16.894v11.453h5.064V16.894
				v-0.012h18.732v-5.641H9.615z"/>
			<polygon style="fill:#CC0000;" points="13.699,18.679 27.931,28.347 28.347,28.347 28.347,26.449 16.907,18.679 			"/>
			<polygon style="fill:#CC0000;" points="0.177,18.679 -14.173,28.24 -14.173,28.347 -11.078,28.347 3.431,18.679 			"/>
		</g>
	</g>
	<g style="clip-path:url(#SVGID_2_);">
		<path style="fill:#CCCC33;" d="M31.2,21.098c0,13.229,1.055,17.926,4.676,21.553c3.621,3.627,4.992,4.198,6.002,4.754
			c1.165-0.641,2.506-1.345,5.788-4.627c3.246-3.246,4.815-7.924,4.815-21.907c-2.361,1.011-3.536,1.344-5.601,1.338
			c-1.529,0.15-3.888-0.83-5.298-1.471c-0.922,0.587-2.259,1.287-4.662,1.365C34.144,22.221,33.264,21.773,31.2,21.098L31.2,21.098z
			"/>
		<path style="fill:#FFFFFF;" d="M31.839,21.934c0,4.093-0.242,9.67,0.623,12.898c0.868,3.241,1.068,3.716,1.721,4.847l15.218-0.113
			c0.94-1.628,0.988-2.637,1.685-5.239c0.695-2.592,0.87-8.371,0.89-12.675c-1.53,0.775-3.534,1.325-5.479,1.084
			c-1.559-0.113-3-0.453-4.678-1.357c-1.455,0.831-1.963,1.211-4.366,1.308C35.581,22.774,34.066,22.919,31.839,21.934
			L31.839,21.934z"/>
		<path style="fill:#99CCFF;" d="M34.215,39.589c1.083,2.173,6.189,6.338,7.683,7.2c1.704-0.984,6.209-5.099,7.464-7.2H34.215
			L34.215,39.589z"/>
		<path style="fill:#FF9900;" d="M42.189,27.993c0.481,1.079,2.024,2.271,2.448,2.855c-0.54,0.584-0.648,0.52-0.577,1.605
			c0.939-0.936,0.956-1.034,1.559-0.892c1.323,1.258,0.237,3.961-0.856,4.548c-1.093,0.627-0.894-0.022-2.532,0.764
			c0.751,0.612,1.621-0.09,2.332,0.098c0.386,0.437-0.184,1.234,0.117,1.984c0.628-0.058,0.553-1.267,0.699-1.706
			c0.459-1.607,3.219-2.727,3.359-4.201c0.582-0.26,1.164-0.081,1.871,0.297c-0.352-1.381-1.518-1.366-1.831-1.797
			c-0.744-1.084-1.403-2.32-2.992-2.64c-1.206-0.243-1.116,0.073-1.889-0.429C43.418,28.121,41.956,27.445,42.189,27.993
			L42.189,27.993z"/>
		<path style="fill:#FF9900;" d="M38.333,32.571c0.776-0.91,1.16-2.767,1.504-3.397c0.794,0.182,0.785,0.303,1.758-0.264
			c-1.307-0.354-1.405-0.322-1.556-0.898c0.549-1.703,3.563-2.05,4.618-1.403c1.092,0.628,0.398,0.764,1.891,1.778
			c0.217-0.919-0.841-1.325-0.999-2.012c0.225-0.53,1.23-0.421,1.785-1.025c-0.347-0.503-1.433,0.126-1.909,0.207
			c-1.705,0.364-4.033-1.439-5.465-0.869c-0.513-0.369-0.619-0.943-0.598-1.716c-1.116,0.942-0.558,1.918-0.811,2.383
			c-0.657,1.133-1.496,2.266-1.051,3.755c0.338,1.13,0.589,0.906,0.484,1.793C37.878,31.476,37.934,33.024,38.333,32.571
			L38.333,32.571z"/>
		<path style="fill:#FF9900;" d="M44.638,33.21c-1.218-0.163-3.084,0.485-3.827,0.53c-0.247-0.742-0.134-0.797-1.146-1.298
			c0.358,1.249,0.437,1.313-0.001,1.734c-1.812,0.433-3.683-1.846-3.648-3.042c-0.001-1.216,0.48-0.72,0.617-2.463
			c-0.937,0.298-0.754,1.371-1.289,1.855c-0.592,0.091-1.014-0.785-1.844-0.926c-0.272,0.543,0.855,1.104,1.173,1.45
			c1.208,1.203,0.794,4.035,2.047,4.909c-0.066,0.61-0.526,0.993-1.231,1.376c1.423,0.423,2.01-0.537,2.559-0.57
			c1.357-0.05,2.808,0.048,3.915-1.085c0.84-0.86,0.509-0.95,1.359-1.322C43.89,34.148,45.251,33.302,44.638,33.21L44.638,33.21z"/>
		<ellipse style="fill:#FFFFFF;" cx="45.407" cy="29.22" rx="0.251" ry="0.24"/>
		<path style="fill:#FFFFFF;" d="M37.746,29.397c-0.065-0.117-0.018-0.262,0.105-0.324c0.123-0.062,0.275-0.017,0.34,0.1
			s0.018,0.262-0.105,0.324C37.963,29.559,37.811,29.514,37.746,29.397z"/>
		<path style="fill:#FFFFFF;" d="M42.093,35.331c-0.071,0.113-0.226,0.15-0.345,0.082c-0.119-0.068-0.157-0.215-0.086-0.329
			s0.226-0.15,0.345-0.082C42.126,35.071,42.164,35.218,42.093,35.331z"/>
	</g>
</g>
</svg>
