<?xml version="1.0" encoding="utf-8"?>
<!-- Generator: Adobe Illustrator 18.1.1, SVG Export Plug-In . SVG Version: 6.00 Build 0)  -->
<!DOCTYPE svg PUBLIC "-//W3C//DTD SVG 1.1//EN" "http://www.w3.org/Graphics/SVG/1.1/DTD/svg11.dtd">
<svg version="1.1" id="Layer_23" xmlns="http://www.w3.org/2000/svg" xmlns:xlink="http://www.w3.org/1999/xlink" x="0px" y="0px"
	 width="56.7px" height="56.7px" viewBox="0 0 56.7 56.7" enable-background="new 0 0 56.7 56.7" xml:space="preserve">
<g>
	<defs>
		<circle id="SVGID_1_" cx="28.3" cy="28.3" r="28.3"/>
	</defs>
	<clipPath id="SVGID_2_">
		<use xlink:href="#SVGID_1_"  overflow="visible"/>
	</clipPath>
	<g clip-path="url(#SVGID_2_)">
		<rect x="-14.6" y="-0.8" fill="#E41E20" width="85.9" height="61.3"/>
		<path d="M45,37c-0.5-0.6-1.1-0.7-1.9,0.1c-0.8,0-1.3,0-2.1,0.1c0.4-0.4,0.6-0.6,1.1-1c0.7,0.2,1.3,0.1,1.6-0.6
			c0.2-0.2,0.4-0.4,1-0.4c-0.4-0.3-0.7-0.4-1.4-0.1c-1-0.4-1.1,0.2-1.3,0.6c-0.7,0.4-1.2,0.8-1.9,1.3c-1.4-0.4-2.5-0.6-3.9-1
			c0.3-0.3,0.6-0.6,0.9-0.9c0.1-0.3-0.1-0.4-0.3-0.4c-2.2-0.4-3.5-1.3-4.3-3.5c-0.3-0.9,0.4-1.2,0.6-0.6c0.3,0.8,0.7,1.7,1.7,2.3
			c0.3,0.2,1.4,0,0.8-0.5c-0.6-0.5-0.9-0.7-1.2-1.9c0-0.6,0.6-0.9,1-0.3c0.4,1.2,0.4,1.7,1.1,2.5c0.5,0.6,1.2,1,1.6,1
			c0.6,0,1.2-0.7,0.4-1.1c-1.2-0.5-1.7-1.1-1.8-1.7c-0.2-1.1,0-1.6,0.7-1.1c0.9,1,2.7,3,3.7,3.9c1.1,0.8,2.3,0.8,3.2,0
			c0.6-0.6,0.4-1.3-0.5-1.1c-1.9,0.2-3.4-0.8-5-3.3c-0.3-0.6-0.4-1.4,0.3-0.8c0.8,1.1,2,2,3.1,2.4c1.1,0.4,2.1,0.3,2.4-0.2
			c0.4-0.7,0.3-1.5-0.4-1.2c-0.6,0.2-1.5,0.3-2.3-0.1S40,28,39,26.8c-0.3-0.7-0.2-1.3,0.5-0.9c1.6,1.3,3.7,2.4,4.7,1.8
			c0.8-0.5,0.8-1.7-0.2-1.6c-2,0.3-2.7-0.2-4.6-1.8c-0.4-0.3-0.4-1.1,0.3-0.6c1.6,1,3.8,1.4,4.7,0.9c0.8-0.5,0.7-1.9-0.6-1.4
			c-1,0.6-2.2,0.6-4.5-1c-0.6-0.5-0.1-1.1,0.3-0.8c1.9,1,4.6,1.5,5.3-0.6c0.3-0.8-0.2-1.3-1-0.7c-1.6,1.4-3.4,0.7-4.4,0
			c-0.3,0-0.8-1,0.1-0.9c2.4,0.5,4.8,0.1,5.2-1.6c0.3-0.5-0.2-1.5-1.1-0.7c-1.2,1.1-2.4,1.2-3.9,1.2c-0.8-0.2-0.8-1-0.1-1.1
			c1.2,0,2.4-0.5,3.4-1c0.9-0.5,1.7-1.3,2-2.3c0.2-0.9-0.8-1.9-1.3-0.9c-0.8,1.4-2.6,2.8-4.6,3c-0.1-0.2-0.4-0.6-0.7-0.5
			c-1.2,0.4-2.8,1.2-4.1,1.9c-0.3,0.2,0.1,0.9,0.1,1.2c0.1,0.8-0.2,1.2-0.4,1.5s-0.9,0.5-1.3,0.4c-0.7-0.2-1.1-0.8-1-2
			c0-0.1,0.1-0.7,0.7-1.4c0.3-0.4,0.7-0.8,1.4-1.2s1.7-0.6,2.9-0.8c0.7-0.1,1.1-0.4,1.2-0.7c-0.4,0.1-0.9,0.4-1.3,0.3
			c-0.4-0.1-0.6-0.3-0.7-0.4c0.3-0.1,0.8,0,1.3,0c0.5,0,0.9-0.1,1.1-0.1c0.6-0.1,1-0.3,1.3-0.8c0.1-0.6-0.3-0.7-0.6-0.3
			c-0.3,0.3-0.4,0.4-0.5,0.6c-0.2,0.1-0.5,0.3-0.7,0.3c-0.5,0.1-0.9,0.2-1.5,0c0.1-0.1,0.4-0.4,0.6-0.5c0.2-0.1,0.5-0.2,0.7-0.2
			c0.1,0,0.3,0.2,0.5,0.4c0.1-0.6-0.1-1.3-1.7-1c0-0.5-1-0.7-1.6-0.6l0,0c-0.3,0-1,0.2-1.5,0.4c-0.8,0.2-1.6,0.4-2.5,0.5
			c0.5,0.4,0.6,0.5,1.2,0.9c-0.8,0.3-1.4,0.9-1.7,1.3c0.7,0,0.9,0,1.2,0.1c-1,0.3-1.4,0.5-2,1c0.2,0,0.5,0.1,0.6,0.1
			c0.1,0,0.1,0.1,0,0.2c-0.2,0.1-1.1,1.2-1.3,1.4c-0.3-0.2-1.1-1.3-1.3-1.4c-0.1-0.1-0.1-0.2,0-0.2c0.1,0,0.4-0.1,0.6-0.1
			c-0.5-0.5-1-0.7-2-1c0.2-0.1,0.5,0,1.2-0.1c-0.3-0.4-0.9-1-1.7-1.3c0.5-0.4,0.6-0.4,1.2-0.9c-0.9-0.1-1.7-0.2-2.5-0.5
			c-0.5-0.2-1.2-0.4-1.5-0.4l0,0c-0.6,0-1.6,0.2-1.6,0.6c-1.7-0.3-1.8,0.4-1.7,1c0.2-0.2,0.4-0.4,0.5-0.4c0.2,0,0.5,0,0.7,0.2
			c0.2,0.1,0.5,0.4,0.6,0.5c-0.6,0.1-1,0-1.5,0c-0.2,0-0.5-0.2-0.7-0.3c-0.2-0.1-0.2-0.3-0.5-0.6c-0.3-0.4-0.7-0.3-0.6,0.3
			c0.3,0.5,0.7,0.7,1.3,0.8c0.3,0,0.7,0.1,1.1,0.1s1-0.1,1.3,0c-0.2,0.1-0.4,0.3-0.7,0.4c-0.4,0.1-1-0.2-1.3-0.3
			c0,0.3,0.4,0.6,1.2,0.7c1.2,0.3,2.2,0.5,2.9,0.8c0.7,0.4,1.1,0.8,1.4,1.2c0.6,0.7,0.6,1.3,0.7,1.4c0.1,1.1-0.3,1.8-1,2
			c-0.4,0.1-1-0.1-1.3-0.4s-0.5-0.8-0.4-1.5c0.1-0.3,0.4-1.1,0.1-1.2c-1.3-0.7-3-1.5-4.1-1.9c-0.3-0.1-0.6,0.3-0.7,0.5
			c-2-0.2-3.8-1.6-4.6-3c-0.5-1-1.5,0-1.3,0.9c0.2,1,1,1.8,2,2.3c1,0.5,2.2,1.1,3.4,1c0.7,0.1,0.7,1-0.1,1.1c-1.5,0-2.8,0-3.9-1.2
			c-0.9-0.8-1.4,0.2-1.1,0.7c0.4,1.7,2.8,2.1,5.2,1.6c0.9-0.2,0.4,0.8,0.1,0.9c-1,0.7-2.8,1.4-4.4,0c-0.7-0.6-1.2-0.1-1,0.7
			c0.7,2.1,3.4,1.7,5.3,0.6c0.5-0.3,0.9,0.4,0.3,0.8c-2.3,1.6-3.5,1.6-4.5,1c-1.3-0.5-1.4,0.9-0.6,1.4c0.9,0.5,3.1,0.1,4.7-0.9
			c0.7-0.5,0.7,0.3,0.3,0.6c-1.9,1.6-2.7,2.1-4.6,1.8c-1-0.1-1,1.1-0.2,1.6c1.1,0.6,3.1-0.4,4.7-1.8c0.7-0.4,0.8,0.2,0.5,0.9
			c-1,1.2-1.9,2-2.8,2.3s-1.7,0.3-2.3,0.1c-0.7-0.3-0.8,0.5-0.4,1.2c0.2,0.4,1.3,0.6,2.4,0.2c1.1-0.4,2.3-1.3,3.1-2.4
			c0.7-0.6,0.6,0.2,0.3,0.8c-1.6,2.6-3.1,3.5-5,3.3c-0.9-0.1-1.1,0.5-0.5,1.1c1,0.8,2.2,0.8,3.2,0c0.9-0.9,2.7-2.9,3.7-3.9
			c0.7-0.5,0.9,0,0.7,1.1c-0.2,0.6-0.6,1.3-1.8,1.7c-0.8,0.5-0.2,1.1,0.4,1.1c0.3,0,1-0.4,1.6-1c0.7-0.8,0.7-1.3,1.1-2.5
			c0.4-0.6,1-0.3,1,0.3c-0.3,1.2-0.6,1.4-1.2,1.9c-0.6,0.6,0.4,0.8,0.8,0.5c1-0.7,1.4-1.5,1.7-2.3c0.2-0.6,0.9-0.3,0.6,0.6
			c-0.8,2.2-2,3.1-4.3,3.5c-0.2,0-0.4,0.2-0.3,0.4c0.3,0.3,0.6,0.6,0.9,0.9c-1.4,0.4-2.5,0.6-3.9,1c-0.7-0.4-1.2-0.8-1.9-1.3
			c-0.2-0.4-0.3-1-1.3-0.6c-0.7-0.3-1-0.2-1.4,0.1c0.5,0,0.8,0.2,1,0.4c0.3,0.7,0.9,0.8,1.6,0.6c0.4,0.4,0.6,0.6,1.1,1
			c-0.8,0-1.3,0-2.1-0.1c-0.8-0.8-1.4-0.8-1.9-0.1c-0.4,0.1-0.6,0.1-0.9,0.6c0.4-0.2,0.7-0.2,0.9,0c0.8,0.5,1.3,0.4,1.7,0
			c0.8,0,1.5,0.1,2.2,0.1c-0.3,0.2-0.7,0.4-1,0.6c-1.2-0.3-1.8,0.1-2,1.1c-0.2,0.4-0.2,0.8-0.2,1.2c0.1-0.4,0.3-0.7,0.6-0.9
			c1,0.3,1.4-0.2,1.5-0.8c0.5-0.4,1.3-0.5,1.7-0.9c0.6,0.2,0.9,0.3,1.4,0.5c0.2,0.6,0.7,0.9,1.4,0.7c0.9,0,0.8,0.4,0.8,0.7
			c0.2-0.4,0.2-0.8-0.3-1.2c-0.2-0.6-0.7-0.8-1.2-0.5c-0.6-0.2-0.7-0.4-1.3-0.5c1.4-0.4,2.4-0.5,3.8-1c0.4,0.3,0.6,0.6,1,0.9
			c0.2,0.1,0.4,0.1,0.5,0c0.9-1.3,1.3-2.4,2.1-3.2c0.3-0.3,0.7-0.8,1.1-0.9c0.2-0.1,0.5,0,0.7,0.2s0.3,0.5,0.2,1
			c-0.1,0.7-0.3,1-0.5,1.4s-0.5,0.7-0.7,1.1c-0.5,0.7-1.2,1.1-1.6,1.3c-0.8,0.5-1.2,0.3-1.8,0.3c-0.8,0.1-1,0.5-0.4,1
			c0.6,0.3,1.2,0.4,1.6,0.3c0.4-0.1,0.8-0.6,1.2-0.8c0.4-0.4,1,0.1,0.6,0.6c-0.8,0.9-1.5,1.5-2.4,1.5c-1,0.1-0.8,0.7-0.1,0.9
			c1.2,0.5,2.2-0.4,2.8-1c0.4-0.5,0.7-0.5,0.6,0.2c-0.4,1.3-1,1.8-1.9,1.8c-0.7-0.1-0.7,0.5-0.2,0.9c1.2,0.9,2.1-0.6,2.5-1.5
			c0.3-0.8,0.8-0.4,0.8,0.2c0,0.9-0.4,1.6-1.4,2.5c0.8,1.3,1.8,2.6,2.6,3.9v0l0,0v0v0c0.8-1.3,1.8-2.6,2.6-3.9
			c-1.1-0.9-1.5-1.6-1.4-2.5c0-0.7,0.5-1,0.8-0.2c0.4,0.9,1.3,2.3,2.5,1.5c0.5-0.4,0.5-1-0.2-0.9c-0.9-0.1-1.5-0.6-1.9-1.8
			c-0.1-0.7,0.2-0.7,0.6-0.2c0.5,0.6,1.6,1.5,2.8,1c0.6-0.3,0.8-0.8-0.1-0.9c-0.9,0-1.7-0.6-2.4-1.5c-0.4-0.5,0.2-1,0.6-0.6
			c0.3,0.3,0.8,0.8,1.2,0.8c0.5,0.1,1,0,1.6-0.3c0.7-0.5,0.4-0.9-0.4-1c-0.6,0-1,0.3-1.8-0.3c-0.4-0.3-1.1-0.7-1.6-1.3
			c-0.3-0.3-0.5-0.6-0.7-1.1c-0.2-0.4-0.4-0.7-0.5-1.4c-0.1-0.5,0.1-0.9,0.2-1s0.4-0.2,0.7-0.2c0.4,0.1,0.8,0.6,1.1,0.9
			c0.8,0.8,1.2,2,2.1,3.2c0.1,0.1,0.3,0.1,0.5,0c0.4-0.3,0.6-0.5,1-0.9c1.4,0.4,2.4,0.5,3.8,1c-0.6,0.2-0.7,0.4-1.3,0.5
			c-0.6-0.3-1-0.1-1.2,0.5c-0.6,0.4-0.6,0.8-0.3,1.2c0.1-0.3-0.1-0.7,0.8-0.7c0.8,0.2,1.2-0.1,1.4-0.7c0.6-0.2,0.9-0.3,1.4-0.5
			c0.5,0.4,1.2,0.5,1.7,0.9c0.1,0.6,0.4,1,1.5,0.8c0.3,0.2,0.5,0.5,0.6,0.9c0.1-0.4,0-0.8-0.2-1.2c-0.2-0.9-0.8-1.4-2-1.1
			c-0.3-0.2-0.7-0.4-1-0.6c0.8-0.1,1.5-0.1,2.2-0.1c0.4,0.4,0.9,0.5,1.7,0c0.2-0.2,0.5-0.1,0.9,0C45.6,37.1,45.4,37.1,45,37z
			 M34.4,12.7c0.5,0,0.8,0.2,0.8,0.4c0,0.2-0.3,0.4-0.8,0.4c-0.5,0-0.8-0.2-0.8-0.4C33.6,12.8,33.9,12.7,34.4,12.7z M22.3,13.4
			c-0.5,0-0.8-0.2-0.8-0.4c0-0.2,0.3-0.4,0.8-0.4c0.5,0,0.8,0.2,0.8,0.4C23.1,13.2,22.8,13.4,22.3,13.4z"/>
	</g>
</g>
</svg>
