<?xml version="1.0" encoding="utf-8"?>
<!-- Generator: Adobe Illustrator 18.1.1, SVG Export Plug-In . SVG Version: 6.00 Build 0)  -->
<!DOCTYPE svg PUBLIC "-//W3C//DTD SVG 1.1//EN" "http://www.w3.org/Graphics/SVG/1.1/DTD/svg11.dtd">
<svg version="1.1" id="Layer_150" xmlns="http://www.w3.org/2000/svg" xmlns:xlink="http://www.w3.org/1999/xlink" x="0px" y="0px"
	 width="56.7px" height="56.7px" viewBox="0 0 56.7 56.7" enable-background="new 0 0 56.7 56.7" xml:space="preserve">
<path fill="#CE1126" d="M0,28.1h56.6C56.6,13.2,44,0,28.3,0C12.7,0,0,13.2,0,28.1z"/>
<path d="M56.6,28.3c0,0,0-0.2,0-0.2H0c0,0,0,0.2,0,0.2C0,44,12.8,56.7,28.3,56.7C43.9,56.7,56.6,44,56.6,28.3z"/>
<g>
	<path fill="#F9D616" d="M29.5,17.4c6.1,0.6,10.5,6.1,9.8,12.2c-0.6,6.1-6.1,10.5-12.2,9.8c-2.1-0.2-4.2-1.1-5.9-2.4l-1.6,2
		c5.8,4.8,14.4,3.9,19.1-1.9c4.8-5.8,3.9-14.4-1.9-19.1c-2.1-1.7-4.6-2.7-7.2-3L29.5,17.4z"/>
	<path id="s" fill="#F9D616" d="M43,26.9c0.1,1,0.1,1.9,0,2.9l-2.8-0.3c0.1-0.8,0.1-1.6,0-2.3L43,26.9z"/>
	<path id="s_1_" fill="#F9D616" d="M42.5,32.6c-0.3,0.9-0.7,1.8-1.1,2.7L38.8,34c0.4-0.7,0.7-1.4,0.9-2.2L42.5,32.6z"/>
	<path id="s_2_" fill="#F9D616" d="M39.7,37.7c-0.6,0.7-1.3,1.4-2,2l-1.8-2.2c0.6-0.5,1.2-1,1.7-1.7L39.7,37.7z"/>
	<path id="s_3_" fill="#F9D616" d="M32.6,14.2c0.9,0.3,1.8,0.7,2.7,1.1L34,17.8c-0.7-0.4-1.4-0.7-2.2-0.9L32.6,14.2z"/>
	<path id="s_4_" fill="#F9D616" d="M37.7,17c0.7,0.6,1.4,1.3,2,2l-2.2,1.8c-0.5-0.6-1-1.2-1.7-1.7L37.7,17z"/>
	<path id="s_5_" fill="#F9D616" d="M41.3,21.4c0.5,0.9,0.8,1.7,1.1,2.7l-2.7,0.8c-0.2-0.7-0.5-1.5-0.9-2.2L41.3,21.4z"/>
	<path id="s_6_" fill="#F9D616" d="M35.3,41.3c-0.9,0.5-1.7,0.8-2.7,1.1l-0.8-2.7c0.7-0.2,1.5-0.5,2.2-0.9L35.3,41.3z"/>
	<path id="s_7_" fill="#F9D616" d="M29.8,43c-1,0.1-1.9,0.1-2.9,0l0.3-2.8c0.8,0.1,1.6,0.1,2.3,0L29.8,43z"/>
	<path id="s_8_" fill="#F9D616" d="M24.1,42.5c-0.9-0.3-1.8-0.7-2.7-1.1l1.3-2.5c0.7,0.4,1.4,0.7,2.2,0.9L24.1,42.5z"/>
	<path fill="#F9D616" d="M23.5,21.7h9.7l-7.9,5.7l3-9.2l3,9.2L23.5,21.7z"/>
	<path fill="#F9D616" d="M40.2,40.9c0.7,0.7,1.7,1.4,2.4,2c0.7,0.6,1.3,1.2,1.7,1.9c0.6,1-0.1,2.2-1.1,1.5c-0.5-0.4-0.9-1.4-1.7-2.2
		c-0.6-0.5-1.1-1.1-2.6-1.3c-0.1,0-0.1-0.2,0-0.2L40.2,40.9z"/>
	<path d="M29.5,37.4l3.8,2.3l0.8,3.2l4.4-0.3l1.9-2.3l-7.2-5L29.5,37.4z"/>
	<path fill="#F9D616" d="M38.7,42.3c-4.9-3.3-8-5-12.8-7.7c-1.9-1.1-4.7-3.7-2.5-8.1c0.1,2.9,11.6,10.9,16.5,14.4L38.7,42.3z"/>
	<path fill="none" stroke="#000000" stroke-width="0.2835" stroke-linecap="round" d="M26.7,31.7c3.8,3.6,8.6,6.5,12.8,9.7"/>
	<circle id="c" cx="40.7" cy="42" r="0.2"/>
	<circle id="c_1_" cx="42.1" cy="43.2" r="0.2"/>
	<circle id="c_2_" cx="43.3" cy="44.5" r="0.2"/>
</g>
</svg>
