<?xml version="1.0" encoding="iso-8859-1"?>
<!-- Generator: Adobe Illustrator 18.1.1, SVG Export Plug-In . SVG Version: 6.00 Build 0)  -->
<svg version="1.1" id="Layer_204" xmlns="http://www.w3.org/2000/svg" xmlns:xlink="http://www.w3.org/1999/xlink" x="0px" y="0px"
	 viewBox="0 0 56.692 56.692" style="enable-background:new 0 0 56.692 56.692;" xml:space="preserve">
<g>
	<defs>
		<circle id="SVGID_1_" cx="28.346" cy="28.347" r="28.347"/>
	</defs>
	<clipPath id="SVGID_2_">
		<use xlink:href="#SVGID_1_"  style="overflow:visible;"/>
	</clipPath>
	<g style="clip-path:url(#SVGID_2_);">
		<rect x="-2.835" y="-2.834" style="fill:#75AADB;" width="62.361" height="62.361"/>
		<rect x="-2.835" y="17.954" style="fill:#FFFFFF;" width="62.361" height="20.787"/>
	</g>
	<g style="clip-path:url(#SVGID_2_);">
		<path style="fill:#843511;" d="M37.144,28.337c-0.002-0.089-0.064-0.188-0.201-0.195l-4.64-0.187
			c0.737-0.229,1.362-0.406,1.747-0.406c0.039,0,0.075,0,0.107,0.004c0.089,0.011,0.181,0.015,0.272,0.015
			c0.595,0,1.088-0.226,1.448-0.391c0.136-0.062,0.252-0.115,0.349-0.146c0.101-0.032,0.199-0.047,0.296-0.047
			c0.146,0,0.26,0.035,0.313,0.067c0.034,0.02,0.069,0.03,0.104,0.03c0.074,0,0.14-0.045,0.165-0.111
			c0.026-0.075,0-0.155-0.07-0.216c-0.109-0.093-0.387-0.251-0.732-0.251c-0.089,0-0.175,0.01-0.257,0.029
			c-0.171,0.041-0.323,0.103-0.487,0.17c-0.303,0.123-0.614,0.251-1.078,0.251c-0.133,0-0.276-0.011-0.421-0.032
			c-0.069-0.011-0.145-0.015-0.226-0.015c-0.464,0-1.119,0.158-1.831,0.346l4.361-2.014c0.093-0.047,0.138-0.143,0.116-0.235
			c-0.022-0.088-0.098-0.148-0.189-0.148c-0.027,0-0.054,0.004-0.082,0.013l-4.357,1.605c0.65-0.541,1.208-0.982,1.56-1.081
			c0.695-0.198,1.129-0.666,1.445-1.006c0.102-0.109,0.188-0.203,0.267-0.27c0.237-0.201,0.462-0.217,0.524-0.217
			c0.017,0,0.032,0.001,0.047,0.002c0.011,0.002,0.021,0.002,0.03,0.002c0.093,0,0.168-0.062,0.183-0.147
			c0.011-0.071-0.021-0.166-0.146-0.206c-0.038-0.012-0.146-0.043-0.307-0.043c-0.177,0-0.442,0.039-0.692,0.219
			c-0.142,0.101-0.26,0.218-0.384,0.339c-0.299,0.298-0.606,0.604-1.303,0.776c-0.454,0.115-1.089,0.573-1.773,1.094l3.26-3.531
			c0.058-0.067,0.07-0.153,0.036-0.226c-0.032-0.07-0.101-0.115-0.176-0.115c-0.052,0-0.101,0.02-0.146,0.06l-3.411,3.149
			c0.395-0.75,0.741-1.37,1.026-1.597c0.569-0.448,0.791-1.046,0.952-1.483c0.052-0.14,0.097-0.26,0.143-0.35
			c0.142-0.275,0.354-0.393,0.448-0.417c0.095-0.025,0.154-0.107,0.142-0.198c-0.01-0.082-0.079-0.164-0.217-0.153
			c-0.189,0.015-0.61,0.147-0.855,0.544c-0.09,0.148-0.156,0.301-0.224,0.463c-0.163,0.388-0.33,0.789-0.906,1.215
			c-0.376,0.28-0.786,0.944-1.221,1.69l1.661-4.511c0.022-0.069,0.013-0.14-0.025-0.193c-0.039-0.052-0.1-0.084-0.161-0.084
			c-0.077,0-0.145,0.047-0.183,0.127l-1.949,4.215c0.078-0.845,0.161-1.548,0.34-1.867c0.353-0.632,0.327-1.269,0.312-1.735
			c-0.007-0.147-0.011-0.276-0.002-0.378c0.023-0.309,0.176-0.499,0.251-0.556c0.068-0.051,0.097-0.133,0.071-0.207
			c-0.024-0.072-0.089-0.116-0.164-0.116c-0.036,0-0.072,0.007-0.109,0.028c-0.167,0.086-0.505,0.37-0.582,0.83
			c-0.026,0.172-0.028,0.338-0.029,0.513c-0.002,0.42-0.004,0.854-0.372,1.47c-0.241,0.403-0.365,1.174-0.48,2.027l-0.192-4.802
			c-0.009-0.131-0.109-0.2-0.204-0.2c-0.088,0-0.187,0.065-0.195,0.202l-0.188,4.641c-0.249-0.81-0.442-1.492-0.401-1.854
			c0.086-0.72-0.182-1.301-0.376-1.723c-0.062-0.136-0.115-0.251-0.146-0.348c-0.094-0.294-0.027-0.527,0.021-0.61
			c0.037-0.062,0.039-0.133,0.005-0.191c-0.028-0.054-0.086-0.086-0.146-0.086c-0.058,0-0.113,0.028-0.159,0.082
			c-0.122,0.144-0.325,0.535-0.221,0.988c0.041,0.169,0.105,0.322,0.17,0.485c0.16,0.389,0.324,0.792,0.219,1.5
			c-0.068,0.465,0.111,1.225,0.331,2.057l-2.016-4.363c-0.038-0.075-0.107-0.12-0.187-0.12c-0.062,0-0.123,0.03-0.159,0.081
			c-0.04,0.055-0.047,0.124-0.022,0.196l1.604,4.357c-0.541-0.652-0.979-1.207-1.08-1.559c-0.195-0.698-0.664-1.13-1.006-1.448
			c-0.109-0.101-0.202-0.187-0.268-0.267c-0.2-0.236-0.228-0.477-0.215-0.571c0.009-0.058-0.007-0.113-0.043-0.154
			c-0.032-0.038-0.079-0.061-0.129-0.061c-0.065,0-0.144,0.041-0.181,0.15c-0.058,0.178-0.097,0.619,0.177,0.997
			c0.101,0.142,0.217,0.26,0.341,0.385c0.297,0.298,0.601,0.608,0.776,1.302c0.113,0.456,0.571,1.087,1.093,1.773l-3.531-3.259
			c-0.041-0.036-0.091-0.054-0.143-0.054c-0.077,0-0.147,0.045-0.18,0.116c-0.035,0.072-0.02,0.155,0.041,0.224l3.149,3.412
			c-0.75-0.396-1.369-0.74-1.595-1.027c-0.449-0.567-1.047-0.79-1.483-0.952c-0.14-0.051-0.259-0.097-0.351-0.142
			c-0.274-0.143-0.394-0.354-0.417-0.447c-0.022-0.087-0.093-0.145-0.177-0.145c-0.047,0-0.09,0.019-0.123,0.053
			c-0.026,0.029-0.057,0.081-0.051,0.165c0.016,0.189,0.149,0.61,0.544,0.855c0.147,0.092,0.303,0.156,0.464,0.223
			c0.387,0.165,0.788,0.331,1.214,0.907c0.281,0.376,0.945,0.787,1.691,1.22l-4.512-1.66c-0.023-0.008-0.047-0.012-0.072-0.012
			c-0.095,0-0.177,0.062-0.198,0.155c-0.021,0.091,0.026,0.18,0.12,0.226l4.216,1.949c-0.844-0.079-1.547-0.161-1.867-0.338
			c-0.514-0.288-1.038-0.32-1.388-0.32c-0.123,0-0.243,0.004-0.346,0.009c-0.15,0.004-0.288,0.008-0.379,0.002
			c-0.309-0.026-0.499-0.178-0.557-0.253c-0.038-0.051-0.092-0.08-0.152-0.08c-0.06,0-0.113,0.03-0.146,0.082
			c-0.034,0.056-0.032,0.129,0.002,0.2c0.086,0.168,0.372,0.507,0.831,0.582c0.171,0.028,0.338,0.028,0.514,0.03
			c0.421,0,0.855,0.002,1.47,0.372c0.401,0.241,1.173,0.365,2.026,0.48l-4.804,0.192c-0.13,0.01-0.198,0.112-0.196,0.205
			c0,0.087,0.062,0.186,0.2,0.195l4.641,0.186c-0.738,0.228-1.363,0.407-1.747,0.407c-0.039,0-0.075-0.001-0.107-0.005
			c-0.09-0.012-0.183-0.017-0.272-0.017c-0.596,0-1.09,0.227-1.45,0.393c-0.136,0.062-0.25,0.116-0.349,0.146
			c-0.099,0.032-0.199,0.047-0.296,0.047c-0.146,0-0.258-0.035-0.314-0.069c-0.031-0.017-0.066-0.028-0.101-0.028
			c-0.075,0-0.142,0.045-0.165,0.112c-0.028,0.074,0,0.154,0.07,0.217c0.108,0.092,0.385,0.25,0.731,0.25
			c0.088,0,0.174-0.01,0.258-0.03c0.17-0.04,0.324-0.102,0.488-0.168c0.301-0.124,0.612-0.252,1.078-0.252
			c0.131,0,0.274,0.011,0.419,0.032c0.069,0.008,0.146,0.015,0.227,0.015l0,0c0.462,0,1.117-0.159,1.831-0.346l-4.364,2.015
			c-0.09,0.046-0.137,0.14-0.113,0.234c0.021,0.088,0.097,0.149,0.188,0.149l0,0c0.027,0,0.053-0.004,0.081-0.013l4.359-1.605
			c-0.652,0.541-1.21,0.982-1.559,1.081c-0.696,0.197-1.131,0.666-1.448,1.005c-0.101,0.109-0.187,0.203-0.265,0.27
			c-0.238,0.201-0.463,0.217-0.524,0.217c-0.018,0-0.034-0.001-0.049-0.003c-0.009-0.001-0.02-0.002-0.03-0.002
			c-0.09,0-0.168,0.062-0.182,0.148c-0.01,0.069,0.021,0.165,0.148,0.206c0.038,0.013,0.145,0.042,0.305,0.042l0,0
			c0.179,0,0.443-0.038,0.693-0.218c0.141-0.101,0.259-0.218,0.383-0.342c0.299-0.296,0.608-0.602,1.302-0.775
			c0.456-0.114,1.09-0.572,1.775-1.093l-3.262,3.531c-0.056,0.067-0.07,0.152-0.035,0.226c0.032,0.071,0.101,0.115,0.175,0.115
			c0.052,0,0.101-0.02,0.146-0.059l3.411-3.149c-0.394,0.75-0.738,1.368-1.026,1.594c-0.567,0.449-0.789,1.049-0.951,1.485
			c-0.052,0.139-0.097,0.258-0.143,0.35c-0.142,0.275-0.354,0.393-0.447,0.417c-0.095,0.024-0.154,0.107-0.144,0.197
			c0.01,0.078,0.073,0.153,0.194,0.153l0,0c0.008,0,0.017,0,0.023,0c0.189-0.015,0.61-0.147,0.856-0.543
			c0.091-0.149,0.155-0.301,0.225-0.463c0.161-0.388,0.329-0.788,0.904-1.215c0.377-0.28,0.788-0.944,1.22-1.688l-1.658,4.509
			c-0.023,0.07-0.013,0.14,0.025,0.193c0.038,0.052,0.098,0.082,0.16,0.082l0,0c0.076,0,0.145-0.046,0.184-0.125l1.949-4.215
			c-0.08,0.844-0.161,1.548-0.342,1.867c-0.35,0.632-0.328,1.27-0.31,1.735c0.006,0.147,0.011,0.276,0.003,0.377
			c-0.026,0.31-0.178,0.5-0.254,0.557c-0.066,0.052-0.095,0.133-0.07,0.208c0.023,0.071,0.088,0.117,0.165,0.117
			c0.034,0,0.07-0.011,0.108-0.029c0.167-0.085,0.506-0.37,0.581-0.831c0.028-0.17,0.028-0.337,0.03-0.512
			c0.001-0.42,0.004-0.854,0.371-1.47c0.241-0.403,0.365-1.174,0.481-2.027l0.191,4.802c0.011,0.131,0.111,0.198,0.204,0.198l0,0
			c0.088,0,0.187-0.062,0.197-0.2l0.185-4.64c0.252,0.81,0.445,1.491,0.402,1.853c-0.084,0.72,0.183,1.3,0.376,1.723
			c0.062,0.135,0.116,0.251,0.146,0.348c0.095,0.295,0.03,0.528-0.019,0.61c-0.037,0.062-0.039,0.133-0.007,0.191
			c0.03,0.054,0.086,0.086,0.147,0.086c0.057,0,0.113-0.028,0.157-0.081c0.124-0.144,0.327-0.536,0.222-0.99
			c-0.04-0.169-0.104-0.323-0.17-0.485c-0.159-0.389-0.322-0.793-0.218-1.5c0.067-0.464-0.113-1.224-0.33-2.056l2.014,4.363
			c0.038,0.074,0.108,0.121,0.187,0.121l0,0c0.064,0,0.123-0.03,0.159-0.081c0.041-0.055,0.047-0.123,0.024-0.196l-1.604-4.358
			c0.541,0.652,0.981,1.207,1.08,1.559c0.198,0.696,0.666,1.13,1.007,1.448c0.108,0.099,0.203,0.187,0.27,0.264
			c0.2,0.236,0.228,0.479,0.214,0.574c-0.01,0.057,0.005,0.113,0.042,0.153c0.034,0.038,0.08,0.06,0.131,0.06
			c0.062,0,0.144-0.04,0.179-0.149c0.06-0.179,0.099-0.619-0.175-0.997c-0.103-0.142-0.219-0.261-0.341-0.385
			c-0.297-0.298-0.602-0.608-0.778-1.302c-0.113-0.456-0.57-1.089-1.094-1.774l3.532,3.26c0.043,0.037,0.093,0.054,0.142,0.054
			c0.08,0,0.15-0.045,0.183-0.116c0.032-0.071,0.018-0.155-0.043-0.223l-3.149-3.412c0.75,0.396,1.369,0.74,1.597,1.027
			c0.447,0.567,1.046,0.79,1.482,0.952c0.14,0.051,0.259,0.094,0.35,0.143c0.275,0.142,0.394,0.354,0.417,0.446
			c0.022,0.087,0.093,0.145,0.177,0.145l0,0c0.047,0,0.092-0.018,0.123-0.055c0.027-0.027,0.057-0.08,0.051-0.163
			c-0.016-0.189-0.146-0.61-0.544-0.855c-0.149-0.093-0.301-0.157-0.463-0.225c-0.388-0.162-0.787-0.33-1.215-0.906
			c-0.281-0.376-0.943-0.787-1.688-1.22l4.51,1.66c0.024,0.01,0.049,0.012,0.072,0.012l0,0c0.096,0,0.179-0.064,0.198-0.155
			c0.021-0.09-0.024-0.18-0.119-0.227l-4.217-1.948c0.845,0.079,1.549,0.161,1.867,0.341c0.514,0.286,1.038,0.318,1.388,0.318
			c0.125,0,0.243-0.004,0.349-0.009c0.149-0.004,0.285-0.009,0.376-0.001c0.309,0.025,0.5,0.175,0.556,0.253
			c0.039,0.052,0.095,0.08,0.153,0.08l0,0c0.06,0,0.115-0.03,0.146-0.082c0.034-0.056,0.034-0.129-0.002-0.2
			c-0.086-0.168-0.369-0.507-0.829-0.583c-0.172-0.028-0.338-0.03-0.515-0.03c-0.42-0.002-0.854-0.004-1.469-0.372
			c-0.403-0.24-1.173-0.365-2.028-0.481l4.803-0.191C37.078,28.53,37.144,28.43,37.144,28.337z"/>
		<path style="fill:#FCBF49;" d="M36.302,26.64c0.307,0,0.554,0.142,0.642,0.217c0.026,0.021,0.037,0.046,0.03,0.062
			c-0.009,0.023-0.038,0.03-0.066,0.013c-0.095-0.055-0.236-0.088-0.385-0.088c-0.111,0-0.226,0.018-0.339,0.054
			c-0.105,0.035-0.224,0.088-0.363,0.153c-0.349,0.161-0.825,0.38-1.391,0.38c-0.086,0-0.172-0.004-0.258-0.015
			c-0.036-0.004-0.079-0.006-0.122-0.006c-0.466,0-1.239,0.243-2.138,0.522c-0.009,0.002-0.015,0.004-0.023,0.007l-0.016-0.001
			c-0.005-0.047-0.012-0.095-0.018-0.14c0.004-0.002,0.01-0.004,0.014-0.004c1.032-0.323,1.848-0.576,2.321-0.522
			c0.589,0.069,1.089-0.133,1.471-0.307c-0.403,0.166-0.86,0.351-1.643,0.236c-0.455-0.069-1.3,0.15-2.202,0.392
			c-0.011-0.047-0.022-0.094-0.034-0.141c0.801-0.215,1.551-0.411,2.052-0.411c0.075,0,0.144,0.006,0.204,0.015
			c0.154,0.021,0.303,0.034,0.442,0.034c0.49,0,0.831-0.14,1.131-0.262c0.158-0.064,0.307-0.125,0.466-0.163
			C36.149,26.649,36.224,26.64,36.302,26.64z M29.655,25.203c-0.417-0.172-0.854-0.261-1.302-0.261c-1.384,0-2.621,0.826-3.15,2.106
			c-0.35,0.84-0.35,1.766,0,2.607c0.349,0.841,1.004,1.496,1.844,1.844c0.417,0.173,0.855,0.26,1.305,0.26
			c1.383,0,2.618-0.825,3.149-2.104c0.348-0.841,0.348-1.767,0-2.607C31.152,26.206,30.497,25.551,29.655,25.203z M31.515,26.75
			c0.021,0.042,0.041,0.083,0.061,0.125l3.628-1.375l-3.537,1.593c0.017,0.046,0.033,0.092,0.049,0.139l4.591-2.119
			c0.047-0.026,0.043-0.065,0.039-0.079c-0.003-0.008-0.014-0.042-0.054-0.042c-0.011,0-0.024,0.003-0.037,0.005l-4.72,1.738
			C31.528,26.741,31.522,26.745,31.515,26.75z M33.112,24.976c-0.476,0.119-1.182,0.652-1.934,1.23
			c0.028,0.039,0.056,0.077,0.083,0.118c0.744-0.569,1.438-1.096,1.887-1.208c0.766-0.192,1.117-0.539,1.427-0.846
			c-0.286,0.307-0.673,0.685-1.24,0.847c-0.459,0.13-1.114,0.677-1.946,1.369c-0.004,0.004-0.009,0.008-0.013,0.013
			c0.023,0.04,0.048,0.08,0.071,0.12l0.017-0.004c0.007-0.006,0.013-0.012,0.018-0.018c0.786-0.653,1.463-1.219,1.892-1.34
			c0.657-0.187,1.078-0.638,1.384-0.967c0.103-0.112,0.193-0.208,0.277-0.28c0.274-0.232,0.539-0.25,0.614-0.25
			c0.023,0,0.045,0.001,0.066,0.004c0.032,0.004,0.054-0.013,0.056-0.031c0.005-0.021-0.017-0.04-0.052-0.052
			c-0.025-0.008-0.12-0.035-0.264-0.035c-0.157,0-0.394,0.033-0.61,0.19c-0.133,0.096-0.247,0.21-0.369,0.33
			C34.179,24.459,33.844,24.792,33.112,24.976z M30.663,25.66c0.034,0.029,0.07,0.059,0.103,0.091l2.826-2.659l-2.658,2.824
			c0.032,0.035,0.066,0.072,0.099,0.109l3.429-3.716c0.027-0.032,0.02-0.061,0.013-0.075c-0.008-0.021-0.027-0.034-0.049-0.034
			c-0.017,0-0.034,0.007-0.054,0.023l-3.696,3.413C30.67,25.645,30.666,25.652,30.663,25.66z M30.14,25.289
			c0.043,0.024,0.084,0.049,0.123,0.075c0.47-0.81,0.91-1.564,1.282-1.839c0.634-0.471,0.827-0.926,0.994-1.328
			c-0.146,0.392-0.358,0.892-0.821,1.257c-0.375,0.296-0.771,1.053-1.274,2.009c-0.004,0.007-0.006,0.013-0.008,0.018
			c0.036,0.028,0.074,0.055,0.109,0.085l0.017-0.015c0.005-0.006,0.007-0.013,0.011-0.02c0.476-0.904,0.884-1.688,1.233-1.964
			c0.537-0.424,0.752-1.001,0.909-1.422c0.052-0.144,0.099-0.269,0.149-0.365c0.164-0.32,0.414-0.457,0.534-0.488
			c0.032-0.009,0.043-0.03,0.041-0.047c-0.002-0.028-0.041-0.032-0.056-0.032c-0.004,0-0.009,0-0.012,0.002
			c-0.132,0.009-0.525,0.116-0.749,0.477c-0.086,0.138-0.148,0.288-0.213,0.444c-0.163,0.386-0.347,0.823-0.951,1.273
			C31.065,23.701,30.615,24.464,30.14,25.289z M29.457,24.981c0.043,0.015,0.086,0.029,0.129,0.045l1.597-3.542l-1.377,3.632
			c0.044,0.019,0.088,0.04,0.131,0.062l1.749-4.749c0.009-0.024,0.006-0.048-0.008-0.065c-0.012-0.015-0.031-0.026-0.048-0.026
			c-0.03,0-0.049,0.026-0.059,0.046l-2.109,4.566C29.459,24.962,29.459,24.972,29.457,24.981z M29.457,22.667
			c0.406-0.679,0.408-1.172,0.412-1.609c0.014,0.42,0.008,0.961-0.278,1.478c-0.234,0.417-0.311,1.267-0.408,2.343
			c0,0.007-0.002,0.016-0.002,0.022c0.045,0.012,0.09,0.024,0.133,0.037l0.011-0.023c0.002-0.007,0.002-0.016,0.002-0.023
			c0.093-1.018,0.172-1.897,0.389-2.287c0.334-0.598,0.312-1.212,0.295-1.663c-0.007-0.151-0.011-0.283-0.002-0.395
			c0.029-0.354,0.208-0.579,0.309-0.655c0.028-0.022,0.024-0.045,0.021-0.051c-0.002-0.009-0.011-0.021-0.032-0.021
			c-0.015,0-0.029,0.004-0.045,0.013c-0.118,0.059-0.441,0.307-0.509,0.729c-0.027,0.159-0.027,0.321-0.028,0.491
			c-0.002,0.418-0.004,0.895-0.391,1.54c-0.254,0.421-0.374,1.302-0.499,2.245c0.048,0.006,0.095,0.014,0.143,0.022
			C29.099,23.93,29.219,23.065,29.457,22.667z M28.222,24.805l0.117-3.882l0.119,3.882c0.047,0.002,0.096,0.004,0.146,0.008
			l-0.202-5.057c-0.004-0.051-0.038-0.069-0.066-0.069c-0.016,0-0.054,0.006-0.058,0.069l-0.201,5.027
			c0.003,0.01,0.005,0.021,0.01,0.03C28.131,24.811,28.175,24.807,28.222,24.805z M26.828,21.081
			c0.158,0.388,0.337,0.826,0.228,1.573c-0.071,0.487,0.152,1.346,0.397,2.265c0.047-0.012,0.095-0.022,0.142-0.033
			c-0.243-0.907-0.464-1.752-0.396-2.211c0.117-0.78-0.069-1.24-0.233-1.644c0.172,0.382,0.374,0.884,0.308,1.472
			c-0.056,0.475,0.196,1.289,0.52,2.322c0.002,0.007,0.004,0.014,0.006,0.023c0.045-0.008,0.093-0.014,0.138-0.019l0.002-0.026
			c-0.003-0.006-0.007-0.015-0.008-0.023c-0.306-0.974-0.567-1.816-0.517-2.26c0.081-0.681-0.176-1.24-0.364-1.648
			c-0.063-0.137-0.119-0.258-0.151-0.364c-0.109-0.341-0.029-0.615,0.032-0.723c0.016-0.025,0.011-0.043,0.005-0.052
			c-0.002-0.005-0.011-0.017-0.026-0.017c-0.015,0-0.034,0.012-0.053,0.032c-0.085,0.101-0.288,0.455-0.192,0.869
			C26.703,20.776,26.763,20.923,26.828,21.081z M26.735,25.159c0.007,0.007,0.013,0.015,0.018,0.024
			c0.04-0.021,0.082-0.04,0.124-0.059l-1.378-3.633l1.595,3.542c0.046-0.017,0.093-0.034,0.141-0.049l-2.124-4.596
			c-0.019-0.036-0.048-0.043-0.063-0.043c-0.019,0-0.038,0.009-0.047,0.024c-0.014,0.021-0.01,0.049-0.003,0.069L26.735,25.159z
			 M24.164,22.216c0.293,0.296,0.627,0.634,0.811,1.364c0.118,0.477,0.655,1.186,1.234,1.941c0.039-0.03,0.079-0.059,0.117-0.086
			c-0.571-0.744-1.1-1.44-1.212-1.89c-0.191-0.767-0.538-1.119-0.846-1.429c0.308,0.287,0.684,0.673,0.847,1.24
			c0.13,0.46,0.677,1.117,1.37,1.947c0.005,0.006,0.011,0.012,0.015,0.018c0.039-0.022,0.08-0.046,0.12-0.069l-0.008-0.024
			c-0.007-0.005-0.011-0.012-0.016-0.018c-0.652-0.784-1.22-1.463-1.342-1.893c-0.188-0.657-0.639-1.076-0.968-1.384
			c-0.111-0.102-0.208-0.192-0.279-0.277c-0.231-0.273-0.264-0.557-0.247-0.681c0.002-0.017,0-0.033-0.01-0.043
			c-0.007-0.009-0.016-0.013-0.024-0.013c-0.02,0-0.038,0.019-0.047,0.051c-0.043,0.127-0.095,0.529,0.154,0.876
			C23.929,21.98,24.042,22.095,24.164,22.216z M25.635,26.018c0.011,0.004,0.022,0.011,0.03,0.014
			c0.028-0.032,0.06-0.066,0.09-0.099l-2.664-2.832l2.829,2.663c0.037-0.033,0.073-0.065,0.11-0.098l-3.722-3.435
			c-0.013-0.012-0.032-0.019-0.05-0.019c-0.023,0-0.046,0.013-0.056,0.036c-0.012,0.027,0.005,0.055,0.02,0.072L25.635,26.018z
			 M21.691,24.068c0.139,0.086,0.287,0.149,0.444,0.215c0.385,0.161,0.823,0.346,1.272,0.949c0.292,0.396,1.059,0.847,1.887,1.322
			c0.023-0.042,0.05-0.083,0.075-0.123c-0.814-0.471-1.568-0.913-1.844-1.285c-0.473-0.634-0.928-0.827-1.328-0.997
			c0.392,0.148,0.891,0.361,1.256,0.824c0.296,0.375,1.053,0.771,2.011,1.273c0.006,0.004,0.015,0.009,0.023,0.012
			c0.028-0.035,0.054-0.072,0.081-0.108l-0.018-0.021c-0.007-0.003-0.014-0.007-0.021-0.012c-0.904-0.473-1.685-0.883-1.964-1.233
			c-0.423-0.537-1.001-0.752-1.422-0.907c-0.144-0.054-0.268-0.1-0.365-0.15c-0.318-0.165-0.457-0.415-0.488-0.535
			c-0.008-0.03-0.027-0.042-0.043-0.042c-0.005,0-0.015,0.003-0.024,0.01c-0.009,0.011-0.015,0.033-0.011,0.06
			C21.222,23.453,21.33,23.845,21.691,24.068z M20.384,25.121l4.567,2.112c0.011,0,0.021,0.001,0.034,0.002
			c0.014-0.043,0.028-0.083,0.045-0.126l-3.547-1.598l3.636,1.378c0.021-0.045,0.04-0.088,0.062-0.133l-4.752-1.749
			c-0.008-0.003-0.018-0.004-0.027-0.004c-0.035,0-0.058,0.023-0.062,0.047C20.332,25.08,20.349,25.106,20.384,25.121z
			 M20.56,26.941c0.161,0.025,0.322,0.027,0.492,0.027c0.418,0.002,0.893,0.005,1.541,0.391c0.421,0.253,1.301,0.375,2.244,0.501
			c0.007-0.05,0.016-0.097,0.024-0.144c-0.931-0.124-1.799-0.243-2.196-0.481c-0.679-0.405-1.171-0.409-1.606-0.413
			c0.419-0.013,0.959-0.007,1.476,0.281c0.417,0.232,1.267,0.309,2.344,0.406c0.009,0.003,0.018,0.003,0.026,0.003
			c0.012-0.045,0.023-0.089,0.035-0.134l-0.025-0.012c-0.009,0-0.017-0.001-0.023-0.001c-1.019-0.093-1.897-0.171-2.286-0.389
			c-0.48-0.269-0.958-0.303-1.321-0.303c-0.121,0-0.237,0.005-0.342,0.008c-0.153,0.007-0.297,0.011-0.394,0.002
			c-0.356-0.03-0.58-0.208-0.657-0.309c-0.011-0.016-0.023-0.024-0.041-0.024c-0.011,0-0.021,0.006-0.025,0.015
			c-0.011,0.015-0.008,0.039,0.006,0.066C19.892,26.552,20.141,26.872,20.56,26.941z M24.782,28.616
			c0.011-0.004,0.021-0.006,0.031-0.008c-0.003-0.046-0.007-0.091-0.007-0.137l-3.885-0.119l3.885-0.117
			c0-0.048,0.004-0.098,0.007-0.147l-5.059,0.203c-0.047,0.003-0.068,0.035-0.068,0.065c0,0.016,0.009,0.054,0.068,0.057
			L24.782,28.616z M20.617,30.027c0.156-0.038,0.305-0.098,0.464-0.162c0.301-0.123,0.64-0.262,1.132-0.262
			c0.138,0,0.288,0.011,0.44,0.034c0.061,0.011,0.13,0.013,0.206,0.013c0.502,0,1.255-0.196,2.059-0.411
			c-0.013-0.047-0.023-0.094-0.034-0.142c-0.907,0.243-1.753,0.464-2.211,0.395c-0.78-0.115-1.239,0.071-1.642,0.236
			c0.383-0.174,0.883-0.376,1.47-0.307c0.475,0.056,1.289-0.2,2.322-0.521c0.007-0.003,0.015-0.005,0.022-0.007
			c-0.008-0.045-0.014-0.092-0.018-0.138h-0.026c-0.007,0.003-0.015,0.004-0.021,0.007c-0.898,0.281-1.674,0.522-2.138,0.522
			c-0.045,0-0.086-0.002-0.125-0.007c-0.083-0.009-0.169-0.016-0.255-0.016c-0.565,0-1.044,0.22-1.393,0.381
			c-0.139,0.065-0.258,0.118-0.363,0.153c-0.113,0.034-0.228,0.054-0.339,0.054c-0.146,0-0.29-0.033-0.385-0.088
			c-0.011-0.006-0.02-0.008-0.03-0.008c-0.016,0-0.03,0.007-0.035,0.021c-0.007,0.016,0.005,0.038,0.031,0.06
			c0.088,0.077,0.334,0.219,0.64,0.219C20.466,30.054,20.54,30.045,20.617,30.027z M25.181,29.94
			c-0.021-0.041-0.04-0.083-0.06-0.123l-3.633,1.378l3.542-1.596c-0.017-0.045-0.031-0.092-0.047-0.139l-4.598,2.124
			c-0.049,0.024-0.043,0.064-0.04,0.077c0.003,0.009,0.015,0.042,0.054,0.042c0.012,0,0.024-0.002,0.036-0.005l4.721-1.739
			C25.165,29.953,25.173,29.946,25.181,29.94z M23.579,31.718c0.478-0.12,1.185-0.654,1.938-1.232
			c-0.028-0.039-0.057-0.078-0.084-0.119c-0.743,0.571-1.441,1.099-1.889,1.21c-0.767,0.193-1.119,0.54-1.429,0.847
			c0.288-0.307,0.675-0.685,1.242-0.847c0.46-0.13,1.114-0.678,1.944-1.37c0.006-0.005,0.013-0.011,0.017-0.015
			c-0.024-0.04-0.045-0.079-0.068-0.121l-0.023,0.009c-0.005,0.005-0.011,0.01-0.018,0.015c-0.784,0.654-1.462,1.22-1.891,1.341
			c-0.659,0.187-1.078,0.637-1.384,0.967c-0.103,0.112-0.193,0.209-0.278,0.282c-0.274,0.231-0.54,0.249-0.613,0.249
			c-0.025,0-0.047-0.001-0.068-0.003c-0.002-0.001-0.007-0.001-0.011-0.001c-0.025,0-0.043,0.015-0.045,0.031
			c-0.002,0.021,0.017,0.04,0.054,0.052c0.024,0.008,0.118,0.035,0.262,0.035l0,0c0.158,0,0.394-0.033,0.612-0.19
			c0.132-0.096,0.246-0.209,0.367-0.33C22.511,32.234,22.848,31.901,23.579,31.718z M26.029,31.033
			c-0.033-0.03-0.068-0.06-0.102-0.092l-2.827,2.66l2.66-2.826c-0.033-0.036-0.066-0.072-0.098-0.109l-3.433,3.718
			c-0.026,0.032-0.02,0.061-0.014,0.075c0.009,0.021,0.03,0.034,0.05,0.034c0.018,0,0.036-0.008,0.054-0.023l3.697-3.412
			C26.019,31.048,26.024,31.041,26.029,31.033z M26.55,31.407c-0.043-0.026-0.083-0.052-0.124-0.078
			c-0.467,0.81-0.909,1.564-1.281,1.839c-0.634,0.472-0.827,0.926-0.995,1.328c0.149-0.393,0.359-0.892,0.823-1.257
			c0.374-0.295,0.771-1.053,1.272-2.009c0.004-0.007,0.006-0.013,0.008-0.018c-0.036-0.027-0.074-0.055-0.109-0.085l-0.015,0.013
			c-0.005,0.009-0.009,0.015-0.013,0.021c-0.473,0.906-0.884,1.688-1.233,1.964c-0.537,0.424-0.752,1.001-0.907,1.424
			c-0.054,0.142-0.099,0.267-0.15,0.363c-0.163,0.318-0.412,0.458-0.535,0.487c-0.03,0.01-0.043,0.03-0.04,0.047
			c0.004,0.028,0.04,0.032,0.057,0.032c0.005,0,0.008-0.001,0.012-0.001c0.131-0.01,0.525-0.117,0.75-0.478
			c0.084-0.14,0.146-0.288,0.213-0.445c0.161-0.384,0.346-0.822,0.951-1.272C25.626,32.993,26.076,32.229,26.55,31.407z
			 M27.234,31.716c-0.043-0.015-0.086-0.029-0.131-0.047l-1.593,3.539l1.375-3.629c-0.045-0.021-0.088-0.042-0.133-0.062
			l-1.747,4.745c-0.006,0.024-0.004,0.049,0.009,0.066c0.011,0.015,0.03,0.026,0.048,0.026c0.029,0,0.049-0.026,0.06-0.045
			l2.109-4.568C27.234,31.732,27.234,31.725,27.234,31.716z M27.236,34.026c-0.406,0.678-0.41,1.172-0.413,1.607
			c-0.014-0.419-0.009-0.958,0.279-1.476c0.232-0.417,0.309-1.267,0.406-2.343c0.002-0.007,0.002-0.011,0.002-0.016
			c-0.045-0.012-0.09-0.026-0.135-0.039l-0.009,0.018c0,0.008,0,0.015-0.002,0.024c-0.093,1.019-0.172,1.897-0.389,2.287
			c-0.334,0.598-0.312,1.213-0.293,1.663c0.005,0.152,0.009,0.283,0,0.394c-0.029,0.356-0.207,0.579-0.309,0.654
			c-0.028,0.022-0.023,0.046-0.021,0.052c0.004,0.008,0.01,0.021,0.034,0.021c0.013,0,0.027-0.004,0.045-0.013
			c0.118-0.059,0.441-0.307,0.507-0.729c0.028-0.159,0.028-0.321,0.03-0.491c0-0.42,0.002-0.894,0.391-1.54
			c0.251-0.421,0.373-1.296,0.497-2.236c-0.048-0.007-0.095-0.015-0.144-0.026C27.592,32.767,27.472,33.631,27.236,34.026z
			 M28.468,31.897l-0.117,3.876l-0.116-3.878c-0.05,0-0.099-0.003-0.146-0.007l0.201,5.05c0.003,0.049,0.04,0.067,0.065,0.067l0,0
			c0.018,0,0.054-0.007,0.059-0.069l0.201-5.027c-0.002-0.007-0.004-0.015-0.006-0.02C28.562,31.893,28.516,31.895,28.468,31.897z
			 M29.863,35.613c-0.156-0.388-0.337-0.826-0.228-1.573c0.071-0.483-0.149-1.337-0.395-2.254c-0.047,0.012-0.093,0.021-0.142,0.034
			c0.242,0.901,0.461,1.742,0.395,2.198c-0.116,0.783,0.068,1.242,0.234,1.646c-0.175-0.384-0.376-0.884-0.308-1.472
			c0.056-0.475-0.198-1.289-0.521-2.321c-0.002-0.005-0.003-0.007-0.004-0.013c-0.047,0.007-0.095,0.013-0.142,0.018v0.015
			c0.001,0.006,0.004,0.014,0.007,0.023c0.305,0.975,0.569,1.818,0.516,2.26c-0.08,0.681,0.178,1.24,0.365,1.648
			c0.065,0.137,0.118,0.259,0.152,0.364c0.108,0.34,0.03,0.614-0.034,0.723c-0.016,0.025-0.009,0.043-0.005,0.052
			c0.002,0.005,0.011,0.017,0.027,0.017c0.016,0,0.035-0.012,0.053-0.032c0.086-0.101,0.287-0.455,0.19-0.869
			C29.988,35.919,29.927,35.771,29.863,35.613z M29.957,31.535c-0.004-0.005-0.009-0.01-0.011-0.014
			c-0.043,0.021-0.084,0.041-0.127,0.06l1.373,3.623l-1.592-3.533c-0.045,0.018-0.091,0.033-0.138,0.048l2.118,4.587
			c0.02,0.036,0.048,0.041,0.062,0.041l0,0c0.02,0,0.039-0.008,0.047-0.023c0.016-0.021,0.011-0.049,0.005-0.068L29.957,31.535z
			 M32.529,34.477c-0.294-0.296-0.629-0.634-0.811-1.364c-0.12-0.475-0.651-1.179-1.227-1.93c-0.039,0.029-0.078,0.058-0.118,0.085
			c0.568,0.741,1.091,1.435,1.203,1.88c0.191,0.767,0.539,1.119,0.846,1.429c-0.307-0.286-0.685-0.672-0.846-1.242
			c-0.129-0.46-0.677-1.115-1.369-1.944c-0.004-0.002-0.006-0.007-0.009-0.009c-0.04,0.025-0.081,0.049-0.122,0.072l0.004,0.012
			c0.005,0.006,0.011,0.012,0.016,0.018c0.653,0.784,1.22,1.461,1.341,1.892c0.187,0.658,0.64,1.077,0.969,1.384
			c0.111,0.103,0.208,0.192,0.279,0.277c0.23,0.273,0.264,0.557,0.245,0.68c-0.003,0.018,0.002,0.034,0.011,0.044
			c0.006,0.009,0.017,0.013,0.025,0.013c0.02,0,0.036-0.02,0.047-0.052c0.041-0.127,0.093-0.528-0.156-0.876
			C32.761,34.713,32.648,34.599,32.529,34.477z M31.055,30.676c-0.006-0.003-0.011-0.005-0.017-0.008
			c-0.03,0.035-0.061,0.069-0.093,0.103l2.655,2.822l-2.82-2.656c-0.037,0.035-0.071,0.067-0.11,0.098l3.711,3.425
			c0.015,0.013,0.032,0.018,0.049,0.018c0.026,0,0.048-0.013,0.058-0.032c0.012-0.028-0.006-0.056-0.021-0.075L31.055,30.676z
			 M34.999,32.625c-0.137-0.086-0.287-0.149-0.442-0.215c-0.387-0.161-0.822-0.346-1.273-0.95c-0.29-0.393-1.052-0.84-1.874-1.317
			c-0.024,0.043-0.049,0.084-0.075,0.125c0.808,0.468,1.558,0.908,1.833,1.278c0.473,0.634,0.926,0.827,1.327,0.995
			c-0.392-0.146-0.889-0.359-1.257-0.822c-0.296-0.375-1.05-0.77-2.009-1.273c-0.004-0.002-0.008-0.004-0.011-0.006
			c-0.028,0.039-0.058,0.077-0.087,0.114l0.009,0.009c0.008,0.004,0.014,0.008,0.021,0.013c0.905,0.473,1.687,0.883,1.965,1.232
			c0.424,0.539,1.002,0.751,1.423,0.909c0.143,0.052,0.267,0.098,0.363,0.149c0.32,0.164,0.458,0.415,0.488,0.535
			c0.008,0.03,0.027,0.041,0.043,0.041c0.006,0,0.016-0.001,0.023-0.009c0.011-0.013,0.015-0.033,0.013-0.06
			C35.468,33.242,35.363,32.849,34.999,32.625z M36.308,31.573l-4.567-2.112c-0.007,0-0.013-0.001-0.021-0.001
			c-0.015,0.044-0.03,0.087-0.045,0.131l3.534,1.592l-3.625-1.374c-0.018,0.045-0.04,0.089-0.061,0.133l4.74,1.746
			c0.008,0.001,0.019,0.003,0.026,0.003c0.037,0,0.059-0.024,0.064-0.048C36.36,31.614,36.342,31.587,36.308,31.573z M36.13,29.753
			c-0.16-0.026-0.32-0.028-0.491-0.028c-0.419-0.002-0.893-0.004-1.539-0.391c-0.419-0.252-1.294-0.375-2.234-0.499
			c-0.007,0.048-0.016,0.096-0.024,0.144c0.927,0.121,1.788,0.242,2.184,0.478c0.679,0.405,1.173,0.41,1.607,0.413
			c-0.42,0.013-0.959,0.007-1.475-0.281c-0.418-0.232-1.267-0.309-2.344-0.406c-0.006-0.002-0.01-0.002-0.015-0.002
			c-0.011,0.047-0.024,0.093-0.036,0.138l0.015,0.006c0.007,0.001,0.016,0.001,0.024,0.002c1.016,0.092,1.894,0.17,2.285,0.389
			c0.479,0.268,0.956,0.303,1.319,0.303c0.123,0,0.238-0.005,0.344-0.008c0.088-0.004,0.174-0.006,0.25-0.006
			c0.056,0,0.102,0,0.144,0.004c0.356,0.03,0.58,0.208,0.655,0.309c0.011,0.016,0.025,0.024,0.041,0.024l0,0
			c0.013,0,0.021-0.006,0.027-0.015c0.009-0.015,0.006-0.039-0.009-0.067C36.799,30.142,36.551,29.822,36.13,29.753z M36.936,28.279
			l-5.027-0.201c-0.007,0.002-0.014,0.003-0.02,0.005c0.003,0.046,0.006,0.092,0.009,0.14l3.873,0.118l-3.873,0.117
			c-0.003,0.048-0.006,0.097-0.009,0.145l5.049-0.201c0.045-0.003,0.066-0.035,0.066-0.065
			C37.004,28.32,36.998,28.282,36.936,28.279z"/>
		<path style="fill:#843511;" d="M29.038,28.939c0-0.039-0.011-0.074-0.029-0.104c0.054,0.046,0.087,0.113,0.087,0.188
			c0,0.135-0.108,0.246-0.245,0.246c-0.083,0-0.158-0.043-0.203-0.107c-0.081,0.066-0.187,0.107-0.301,0.107
			c-0.116,0-0.22-0.041-0.303-0.107c-0.045,0.063-0.118,0.107-0.202,0.107c-0.135,0-0.245-0.111-0.245-0.246
			c0-0.075,0.034-0.142,0.089-0.188c-0.02,0.03-0.033,0.065-0.033,0.104c0,0.104,0.085,0.189,0.189,0.189
			c0.083,0,0.152-0.054,0.176-0.129c0.086,0.079,0.201,0.129,0.329,0.129c0.127,0,0.24-0.05,0.326-0.129
			c0.026,0.075,0.095,0.129,0.178,0.129C28.955,29.128,29.038,29.044,29.038,28.939z M27.191,28.11c-0.23,0-0.499-0.063-0.686-0.252
			c0.082-0.066,0.359-0.341,0.717-0.32c0.304,0.018,0.469,0.215,0.559,0.361C27.708,27.985,27.449,28.11,27.191,28.11z
			 M27.302,28.047c0.109-0.022,0.226-0.07,0.348-0.145c-0.09-0.13-0.197-0.209-0.32-0.236c0.048,0.045,0.078,0.109,0.078,0.18
			C27.408,27.929,27.367,28.002,27.302,28.047z M27.023,28.055c-0.071-0.044-0.116-0.122-0.116-0.209
			c0-0.06,0.021-0.116,0.055-0.158c-0.108,0.034-0.212,0.09-0.311,0.167C26.752,27.959,26.878,28.03,27.023,28.055z M27.781,28.004
			c-0.126,0.121-0.346,0.213-0.59,0.213c-0.267,0-0.484-0.075-0.676-0.208c0.139,0.204,0.377,0.324,0.676,0.324
			C27.458,28.333,27.708,28.167,27.781,28.004z M27.712,27.649c0.073,0.073,0.181,0.153,0.274,0.153c0,0-0.109-0.062-0.239-0.221
			c-0.193-0.238-0.384-0.286-0.604-0.286c-0.372,0-0.734,0.301-0.868,0.537c0,0,0.379-0.393,0.929-0.393
			C27.363,27.439,27.543,27.484,27.712,27.649z M27.986,27.348c0.298,0.495,0.111,1.154-0.164,1.394
			c0.351-0.13,0.61-0.861,0.29-1.533c-0.423-0.409-1.359-0.755-2.017,0.438C26.636,26.961,27.429,26.857,27.986,27.348z
			 M28.84,30.014c-0.129,0.095-0.294,0.148-0.494,0.148l0,0c-0.202,0-0.367-0.054-0.496-0.148c-0.142-0.104-0.251-0.126-0.374-0.108
			c0.095,0,0.215,0.087,0.302,0.161c0.124,0.101,0.276,0.23,0.566,0.23h0.002c0.29,0,0.444-0.129,0.567-0.23
			c0.086-0.074,0.206-0.161,0.303-0.161C29.094,29.887,28.982,29.91,28.84,30.014z M29.547,27.295c-0.217,0-0.41,0.048-0.603,0.286
			c-0.129,0.159-0.236,0.221-0.236,0.221c0.09,0,0.198-0.08,0.273-0.153c0.168-0.165,0.351-0.211,0.508-0.211
			c0.549,0,0.93,0.393,0.93,0.393C30.284,27.596,29.919,27.295,29.547,27.295z M30.185,27.858c-0.187,0.189-0.454,0.252-0.683,0.252
			c-0.261,0-0.519-0.125-0.591-0.211c0.088-0.146,0.255-0.343,0.556-0.361C29.827,27.517,30.104,27.792,30.185,27.858z
			 M29.388,28.047c-0.062-0.045-0.104-0.118-0.104-0.202c0-0.071,0.028-0.134,0.075-0.18c-0.121,0.027-0.229,0.106-0.319,0.236
			C29.163,27.977,29.279,28.024,29.388,28.047z M29.669,28.055c0.142-0.025,0.269-0.096,0.37-0.2
			c-0.1-0.077-0.202-0.134-0.312-0.167c0.036,0.042,0.058,0.098,0.058,0.158C29.786,27.933,29.739,28.011,29.669,28.055z
			 M28.579,27.208c-0.32,0.672-0.059,1.403,0.29,1.533c-0.274-0.24-0.46-0.898-0.161-1.394c0.556-0.491,1.347-0.387,1.888,0.298
			C29.938,26.453,29.002,26.799,28.579,27.208z M28.009,29.886c0.094,0.021,0.201,0.088,0.337,0.088s0.24-0.066,0.337-0.088
			c0.143-0.031,0.275,0.006,0.435-0.009c-0.173-0.015-0.226-0.097-0.512-0.073c-0.093,0.009-0.131,0.045-0.26,0.045
			c-0.131,0-0.167-0.037-0.262-0.045c-0.286-0.024-0.338,0.058-0.51,0.073C27.733,29.893,27.867,29.855,28.009,29.886z
			 M28.332,30.354c-0.269,0-0.486,0.23-0.486,0.496c0,0.021,0,0.041,0.005,0.059c0.026-0.242,0.232-0.418,0.482-0.418
			c0.249,0,0.455,0.176,0.483,0.418c0.002-0.018,0.004-0.039,0.004-0.059C28.819,30.584,28.6,30.354,28.332,30.354z M28.912,28.004
			c0.07,0.163,0.319,0.329,0.591,0.329c0.298,0,0.537-0.12,0.674-0.324c-0.19,0.132-0.408,0.208-0.674,0.208
			C29.255,28.217,29.036,28.125,28.912,28.004z M28.907,29.602c-0.133-0.122-0.378-0.15-0.561-0.034
			c-0.185-0.117-0.428-0.088-0.562,0.034c-0.094,0.085-0.225,0.246-0.366,0.289c0.092,0.03,0.36-0.175,0.409-0.197
			c0.268-0.127,0.321,0.017,0.519,0.017c0.196,0,0.251-0.144,0.519-0.017c0.046,0.022,0.315,0.228,0.408,0.197
			C29.13,29.847,29.001,29.686,28.907,29.602z"/>
	</g>
</g>
</svg>
