<?xml version="1.0" encoding="iso-8859-1"?>
<!-- Generator: Adobe Illustrator 18.1.1, SVG Export Plug-In . SVG Version: 6.00 Build 0)  -->
<svg version="1.1" id="Layer_30" xmlns="http://www.w3.org/2000/svg" xmlns:xlink="http://www.w3.org/1999/xlink" x="0px" y="0px"
	 viewBox="0 0 56.692 56.692" style="enable-background:new 0 0 56.692 56.692;" xml:space="preserve">
<g>
	<defs>
		<circle id="SVGID_1_" cx="28.346" cy="28.346" r="28.347"/>
	</defs>
	<clipPath id="SVGID_2_">
		<use xlink:href="#SVGID_1_"  style="overflow:visible;"/>
	</clipPath>
	<rect x="-14.174" y="-0.001" style="clip-path:url(#SVGID_2_);fill:#002B7F;" width="85.04" height="56.695"/>
	<g style="clip-path:url(#SVGID_2_);">
		<polygon style="fill:#FFFFFF;" points="30.18,-0.001 24.244,-0.001 12.332,7.258 12.332,-0.001 3.5,-0.001 3.5,7.256 
			-8.402,-0.001 -14.174,-0.001 -14.174,3.124 -4.774,8.854 -14.174,8.854 -14.174,17.684 -4.78,17.684 -14.174,23.407 
			-14.174,26.539 -8.412,26.539 3.5,19.28 3.5,26.539 12.332,26.539 12.332,19.282 24.234,26.539 30.18,26.539 30.18,23.52 
			20.607,17.684 30.18,17.684 30.18,8.854 20.613,8.854 30.18,3.024 		"/>
		<g>
			<polygon style="fill:#E8112D;" points="0.622,8.854 -13.9,-0.001 -14.174,-0.001 -14.174,1.874 -2.725,8.854 			"/>
			<polygon style="fill:#E8112D;" points="15.289,8.854 30.095,-0.001 26.701,-0.001 11.896,8.854 			"/>
			<path style="fill:#E8112D;" d="M10.639,10.524V-0.001h-5.28v10.525h-19.532c0,0,0.01,5.223,0.025,5.281l19.507,0.01v10.724h5.28
				V15.815v-0.01H30.18v-5.281H10.639z"/>
			<polygon style="fill:#E8112D;" points="14.9,17.487 29.747,26.539 30.18,26.539 30.18,24.76 18.248,17.487 			"/>
			<polygon style="fill:#E8112D;" points="0.795,17.487 -14.174,26.438 -14.174,26.539 -10.945,26.539 4.189,17.487 			"/>
		</g>
	</g>
	<g style="clip-path:url(#SVGID_2_);">
		<polygon style="fill:#FFFFFF;" points="7.963,38.588 11.857,37.33 9.873,40.909 13.285,43.168 9.251,43.85 9.612,47.926 
			6.564,45.196 3.602,48.02 3.835,43.932 -0.219,43.379 3.122,41.014 1.027,37.499 4.959,38.635 6.402,34.805 		"/>
		<polygon style="fill:#FFFFFF;" points="39.815,21.674 41.749,21.047 40.763,22.827 42.459,23.952 40.453,24.29 40.634,26.317 
			39.118,24.96 37.646,26.364 37.763,24.333 35.747,24.057 37.406,22.879 36.364,21.133 38.319,21.698 39.036,19.793 		"/>
		<polygon style="fill:#FFFFFF;" points="50.376,7.321 52.31,6.696 51.325,8.477 53.022,9.6 51.017,9.938 51.196,11.965 
			49.681,10.608 48.207,12.012 48.324,9.981 46.308,9.705 47.968,8.528 46.929,6.78 48.881,7.346 49.6,5.44 		"/>
		<polygon style="fill:#FFFFFF;" points="62.831,16.688 64.767,16.061 63.781,17.84 65.476,18.965 63.471,19.303 63.651,21.331 
			62.136,19.973 60.663,21.377 60.779,19.346 58.763,19.071 60.422,17.893 59.383,16.147 61.338,16.713 62.054,14.807 		"/>
		<polygon style="fill:#FFFFFF;" points="43.916,47.03 45.85,46.403 44.865,48.182 46.562,49.305 44.556,49.643 44.735,51.67 
			43.221,50.313 41.746,51.717 41.864,49.686 39.848,49.412 41.509,48.235 40.467,46.487 42.422,47.053 43.139,45.149 		"/>
		<polygon style="fill:#FFFFFF;" points="58.833,27.856 59.818,27.967 59.132,28.68 59.332,29.651 58.439,29.217 57.579,29.708 
			57.714,28.727 56.983,28.061 57.958,27.885 58.366,26.983 		"/>
	</g>
</g>
</svg>
