<?xml version="1.0" encoding="iso-8859-1"?>
<!-- Generator: Adobe Illustrator 18.1.1, SVG Export Plug-In . SVG Version: 6.00 Build 0)  -->
<svg version="1.1" id="Layer_177" xmlns="http://www.w3.org/2000/svg" xmlns:xlink="http://www.w3.org/1999/xlink" x="0px" y="0px"
	 viewBox="0 0 56.692 56.692" style="enable-background:new 0 0 56.692 56.692;" xml:space="preserve">
<g>
	<defs>
		<circle id="SVGID_1_" cx="28.346" cy="28.347" r="28.346"/>
	</defs>
	<clipPath id="SVGID_2_">
		<use xlink:href="#SVGID_1_"  style="overflow:visible;"/>
	</clipPath>
	<rect x="-14.174" y="0" style="clip-path:url(#SVGID_2_);fill:#0098C3;" width="85.04" height="18.898"/>
	<rect x="-14.174" y="18.898" style="clip-path:url(#SVGID_2_);fill:#E00034;" width="85.04" height="18.898"/>
	<rect x="-14.174" y="37.796" style="clip-path:url(#SVGID_2_);fill:#00AE65;" width="85.04" height="18.896"/>
	<g style="clip-path:url(#SVGID_2_);">
		<path style="fill:#FFFFFF;" d="M28.344,35.429c-3.911,0-7.082-3.17-7.082-7.082c0-3.91,3.171-7.082,7.082-7.082
			c2.127,0,4.029,0.943,5.327,2.428c-1.521-2.322-4.14-3.857-7.121-3.857c-4.701,0-8.513,3.811-8.513,8.512s3.811,8.512,8.513,8.512
			c2.981,0,5.602-1.535,7.122-3.857C32.373,34.486,30.471,35.429,28.344,35.429z"/>
		<polygon style="fill:#FFFFFF;" points="36.001,23.666 36.896,26.185 39.312,25.037 38.164,27.451 40.683,28.347 38.164,29.244 
			39.312,31.658 36.896,30.509 36.001,33.029 35.105,30.509 32.69,31.658 33.838,29.244 31.319,28.347 33.838,27.451 32.69,25.037 
			35.105,26.185 		"/>
	</g>
</g>
</svg>
