<?xml version="1.0" encoding="iso-8859-1"?>
<!-- Generator: Adobe Illustrator 18.1.1, SVG Export Plug-In . SVG Version: 6.00 Build 0)  -->
<svg version="1.1" id="Layer_50" xmlns="http://www.w3.org/2000/svg" xmlns:xlink="http://www.w3.org/1999/xlink" x="0px" y="0px"
	 viewBox="0 0 56.692 56.692" style="enable-background:new 0 0 56.692 56.692;" xml:space="preserve">
<g>
	<defs>
		<circle id="SVGID_1_" cx="28.346" cy="28.345" r="28.347"/>
	</defs>
	<clipPath id="SVGID_2_">
		<use xlink:href="#SVGID_1_"  style="overflow:visible;"/>
	</clipPath>
	<g style="clip-path:url(#SVGID_2_);">
		<polygon style="fill:#002395;" points="58.436,56.693 -14.173,56.693 -14.173,0 1.723,0 		"/>
		<rect x="58.436" y="0" style="fill:#002395;" width="12.43" height="56.693"/>
	</g>
	<polygon style="clip-path:url(#SVGID_2_);fill:#FECB00;" points="1.723,0 58.436,56.693 58.436,0 	"/>
	<g style="clip-path:url(#SVGID_2_);">
		<path style="fill:#FFFFFF;" d="M30.848,46.144l1.193-3.631l-3.203-2.383h3.984l1.202-3.662l1.23,3.662h3.983l-3.229,2.383
			l1.194,3.631l-3.177-2.158L30.848,46.144z M19.88,29.863l3.177,2.158l-1.194-3.631l3.229-2.383h-3.983l-1.229-3.662l-1.202,3.662
			h-3.984l3.203,2.383l-1.193,3.631L19.88,29.863z M26.944,36.904l3.177,2.159l-1.194-3.632l3.228-2.383h-3.983l-1.23-3.662
			l-1.202,3.662h-3.984l3.203,2.383l-1.193,3.632L26.944,36.904z M-8.538,1.529l3.177,2.158l-1.194-3.631L-6.478,0h-4.121
			l0.076,0.057l-1.193,3.631L-8.538,1.529z M42.38,47.214l-1.23-3.662l-1.202,3.662h-3.984l3.203,2.383l-1.193,3.632l3.179-2.159
			l3.177,2.159l-1.194-3.632l3.229-2.383H42.38z M-0.184,4.757l-1.229-3.662l-1.202,3.662H-6.6l3.203,2.383l-1.193,3.631
			l3.179-2.158l3.177,2.158L0.571,7.14l3.228-2.383H-0.184z M12.797,22.781l3.177,2.158l-1.194-3.631l3.229-2.383h-3.983
			l-1.229-3.662l-1.202,3.662H7.609l3.203,2.383l-1.193,3.631L12.797,22.781z M50.222,56.693l-0.004-0.012l3.229-2.383h-3.983
			l-1.23-3.662l-1.202,3.662h-3.984l3.203,2.383l-0.004,0.012H50.222z M5.671,15.697l3.177,2.158l-1.194-3.631l3.228-2.383H6.899
			L5.669,8.179l-1.202,3.662H0.483l3.203,2.383l-1.193,3.631L5.671,15.697z"/>
	</g>
</g>
</svg>
