<?xml version="1.0" encoding="iso-8859-1"?>
<!-- Generator: Adobe Illustrator 18.1.1, SVG Export Plug-In . SVG Version: 6.00 Build 0)  -->
<svg version="1.1" id="Layer_92" xmlns="http://www.w3.org/2000/svg" xmlns:xlink="http://www.w3.org/1999/xlink" x="0px" y="0px"
	 viewBox="0 0 56.692 56.692" style="enable-background:new 0 0 56.692 56.692;" xml:space="preserve">
<g>
	<defs>
		<circle id="SVGID_1_" cx="28.346" cy="28.345" r="28.347"/>
	</defs>
	<clipPath id="SVGID_2_">
		<use xlink:href="#SVGID_1_"  style="overflow:visible;"/>
	</clipPath>
	<g style="clip-path:url(#SVGID_2_);">
		<rect x="-14.173" y="0" style="fill:#00267F;" width="28.346" height="56.693"/>
		<rect x="14.172" y="0" style="fill:#FFC726;" width="28.348" height="56.693"/>
		<rect x="42.52" y="0" style="fill:#00267F;" width="28.346" height="56.693"/>
	</g>
	<g style="clip-path:url(#SVGID_2_);">
		<path d="M40.485,18.371c-5.5,8.938-5.68,14.375-5.531,16.76c0,0-4.656-0.916-5.166-0.626c-1.428,0.366,0-2.653,0-2.653
			s1.666,0.144,3.072,0.363c1.094-8.406,2.617-10.441,2.617-10.441l-1.398-0.143C34.079,21.629,36.563,18.855,40.485,18.371z"/>
		<path d="M32.114,21.5c-2.207-2.301-3.223-5.566-3.767-6.992l-0.002,6.551H26.86v20.812h2.938V21.177
			C30.377,21.173,31.127,21.246,32.114,21.5z"/>
		<path d="M16.207,18.371c5.5,8.938,5.678,14.375,5.531,16.76c0,0,4.656-0.916,5.166-0.626c1.428,0.366,0-2.653,0-2.653
			s-1.666,0.144-3.072,0.363c-1.094-8.406-2.619-10.441-2.619-10.441l1.399-0.143C22.612,21.629,20.129,18.855,16.207,18.371z"/>
		<path d="M24.577,21.5c2.209-2.301,3.225-5.566,3.77-6.992l0.002,6.551h1.484v20.812h-2.938V21.177
			C26.315,21.173,25.563,21.246,24.577,21.5z"/>
	</g>
</g>
</svg>
