<?xml version="1.0" encoding="iso-8859-1"?>
<!-- Generator: Adobe Illustrator 18.1.1, SVG Export Plug-In . SVG Version: 6.00 Build 0)  -->
<svg version="1.1" id="Layer_153" xmlns="http://www.w3.org/2000/svg" xmlns:xlink="http://www.w3.org/1999/xlink" x="0px" y="0px"
	 viewBox="0 0 56.692 56.692" style="enable-background:new 0 0 56.692 56.692;" xml:space="preserve">
<g>
	<defs>
		<circle id="SVGID_1_" cx="28.346" cy="28.346" r="28.346"/>
	</defs>
	<clipPath id="SVGID_2_">
		<use xlink:href="#SVGID_1_"  style="overflow:visible;"/>
	</clipPath>
	<rect x="-5.745" y="0" style="clip-path:url(#SVGID_2_);fill:#FFFFFF;" width="85.189" height="56.693"/>
	<path style="clip-path:url(#SVGID_2_);fill:#CE1126;" d="M16.058,11.336c0,0,7.93,3.505,12.832,5.666
		c-4.902,2.169-12.832,5.67-12.832,5.67s7.93,3.506,12.832,5.672c-4.902,2.161-12.832,5.667-12.832,5.667s7.93,3.503,12.832,5.668
		c-4.902,2.165-12.832,5.67-12.832,5.67s7.93,3.505,12.832,5.668c-4.902,2.163-12.832,5.668-12.832,5.668s0.016,0.007,0.017,0.009
		h63.369V0H16.058c0,0,7.93,3.503,12.832,5.667C23.987,7.829,16.058,11.336,16.058,11.336z"/>
</g>
</svg>
