<?xml version="1.0" encoding="iso-8859-1"?>
<!-- Generator: Adobe Illustrator 18.1.1, SVG Export Plug-In . SVG Version: 6.00 Build 0)  -->
<svg version="1.1" id="Layer_23" xmlns="http://www.w3.org/2000/svg" xmlns:xlink="http://www.w3.org/1999/xlink" x="0px" y="0px"
	 viewBox="0 0 56.692 56.692" style="enable-background:new 0 0 56.692 56.692;" xml:space="preserve">
<g>
	<defs>
		<circle id="SVGID_1_" cx="28.346" cy="28.345" r="28.347"/>
	</defs>
	<clipPath id="SVGID_2_">
		<use xlink:href="#SVGID_1_"  style="overflow:visible;"/>
	</clipPath>
	<path style="clip-path:url(#SVGID_2_);fill:#CF142B;" d="M0,56.742V0.05h56.692v56.692H0z"/>
	<rect x="0" y="0" style="clip-path:url(#SVGID_2_);fill:#00247D;" width="28.346" height="28.346"/>
	<g style="clip-path:url(#SVGID_2_);">
		<polygon style="fill:#FFFFFF;" points="28.347,0 22.656,0 11.238,7.754 11.238,0 2.77,0 2.77,7.752 -8.641,0 -14.173,0 
			-14.173,3.337 -5.163,9.459 -14.173,9.459 -14.173,18.89 -5.169,18.89 -14.173,25.004 -14.173,28.347 -8.649,28.347 2.77,20.593 
			2.77,28.347 11.238,28.347 11.238,20.597 22.647,28.347 28.347,28.347 28.347,25.125 19.169,18.89 28.347,18.89 28.347,9.459 
			19.175,9.459 28.347,3.232 		"/>
		<g>
			<polygon style="fill:#CC0000;" points="0.011,9.459 -13.911,0 -14.173,0 -14.173,2.001 -3.198,9.459 			"/>
			<polygon style="fill:#CF142B;" points="14.072,9.459 28.264,0 25.012,0 10.819,9.459 			"/>
			<path style="fill:#CF142B;" d="M9.615,11.242V0H4.55v11.242h-18.724c0,0,0.01,5.578,0.024,5.641L4.55,16.894v11.453h5.064V16.894
				v-0.012h18.732v-5.641H9.615z"/>
			<polygon style="fill:#CF142B;" points="13.699,18.679 27.931,28.347 28.347,28.347 28.347,26.449 16.907,18.679 			"/>
			<polygon style="fill:#CF142B;" points="0.177,18.679 -14.173,28.24 -14.173,28.347 -11.078,28.347 3.431,18.679 			"/>
		</g>
	</g>
	<g style="clip-path:url(#SVGID_2_);">
		<path style="fill:#FFFFFF;" d="M31.996,23.406v17.077c0.202,2.445,5.298,3.984,8.851,6.581c4.66-3.125,9.179-3.758,9.361-7.262
			l0.057-16.396L31.996,23.406L31.996,23.406z"/>
		<g>
			<path style="fill:#2F8F22;stroke:#000000;stroke-width:0.0307;" d="M31.994,40.238l0.191,0.975l0.636,0.763l4.601,2.968
				l3.371,2.099l6.573-3.583l2.269-1.739l0.445-2.269l-0.276-0.53l0.064,0.551l-0.17,0.445l-0.191-0.127l-0.127-0.827l-0.021,0.615
				l-0.318,0.361l-0.064-0.445l0.085-0.318l-0.127-0.36l-0.042,0.721l-0.17,0.318l-0.149-0.212l0.064-0.318l-0.021-0.297
				l-0.106-0.149l-0.021,0.318l-0.063,0.106l0.021,0.191l-0.127,0.127l-0.085-0.254l0.042-0.233l-0.042-0.212l-0.085-0.233
				l0.021,0.382l-0.212,0.466l-0.17,0.106l-0.106-0.127l0.021-0.445l-0.149-0.254l0.042,0.551l-0.212,0.488l-0.127-0.149
				l-0.064-0.148v-0.233l0.233-0.594l-0.233,0.212l-0.191,0.509l-0.085,0.148l-0.106-0.254l0.148-0.573l-0.085-0.106l-0.191,0.7
				l-0.17,0.106l-0.127-0.042l-0.085,0.042l-10.262,0.573l-0.276-0.403l-0.064,0.403l-0.17,0.148l-0.17-0.742l-0.127,0.785
				l-0.17-0.382l0.085-0.869l-0.085-0.064l-0.127,0.466v0.657l-0.064,0.445l-0.127-0.085l-0.17-0.403l-0.021-0.657l0.064-0.466
				l-0.17,0.551v0.679l-0.021,0.339l-0.212-0.466l-0.106-0.382l-0.212-0.445l0.127,0.573v0.297l-0.36-0.318l-0.191-0.89
				l-0.042,0.657l0.085,0.318l-0.106,0.127l-0.212-0.382l-0.127-0.509l-0.148-0.488v0.784l0.106,0.424l-0.085,0.106l-0.17-0.085
				l-0.064-0.467l-0.042-0.678l-0.17,0.466L32.46,39.58l-0.064,0.382l-0.106,0.255L31.994,40.238L31.994,40.238z"/>
			<path style="fill:none;stroke:#4DCF4A;stroke-width:0.0615;" d="M39.314,45.419c-0.055-1.002,0.851-2.004-1.588-3.007"/>
			<path style="fill:none;stroke:#38BB26;stroke-width:0.0768;" d="M41.641,44.852c0-1.324-0.756-1.891-2.269-1.702"/>
			<path style="fill:none;stroke:#51C757;stroke-width:0.0615;" d="M42.435,45.419c-0.8-0.963-1.867-0.851-3.12,0"/>
			<path style="fill:none;stroke:#51C757;stroke-width:0.0615;" d="M44.42,44.171c-0.304-0.566-1.412-0.193-2.61,0.284"/>
			<path style="fill:none;stroke:#7ACB73;stroke-width:0.0553;" d="M48.449,42.355c-0.303-0.87-0.832-1.362-1.589-1.475"/>
			<path style="fill:none;stroke:#4CB135;stroke-width:0.0768;" d="M49.47,40.994c-0.201-0.449-0.411-0.88-0.908-0.738"/>
			<path style="fill:none;stroke:#60C85A;stroke-width:0.086;" d="M37.272,44.568c0.264-0.907-0.022-1.264-0.511-1.418"/>
			<path style="fill:none;stroke:#71CE5B;stroke-width:0.0799;" d="M32.96,41.221c0.505-0.219,0.908-0.642,1.645-0.397"/>
			<path style="fill:none;stroke:#71CE5B;stroke-width:0.0799;" d="M32.336,40.653c0.412,0.009,0.7,0.17,0.794,0.567"/>
		</g>
		<g>
			<path style="stroke:#000000;stroke-width:0.0307;" d="M41.29,23.776c-0.238,0.219-0.483,0.421-0.827,0.334
				c-0.235,0.096-0.007,0.651-0.39,0.537c-0.372-0.294-0.273,0.351-0.511,0.486c-0.218,0.07-0.622,0.177-0.302,0.435
				c0.195,0.191,0.383,0.523,0.063,0.689c-0.185,0.349-0.225-0.322-0.5,0.072c-0.089,0.398,0.592,0.312,0.275,0.62
				c-0.053,0.185-0.242-0.455-0.434,0.054c-0.149,0.211-0.155,0.521,0.131,0.615c0.244,0.14,0.755-0.073,0.451,0.338
				c0,0.243-0.4,0.645-0.248,0.189c0.274-0.318-0.124-0.406-0.303-0.189c-0.369,0.252-0.216,0.812,0.145,0.974
				c0.107,0.224,0.215,0.283-0.055,0.552c0.037,0.27-0.019,0.502-0.375,0.485c-0.199,0.188-0.332,0.503-0.71,0.455
				c-0.363,0.146-0.454-0.092-0.522-0.38c-0.117-0.286-0.597-0.45-0.772-0.134c-0.21-0.085-0.483-0.484-0.698-0.091
				c-0.191,0.262-0.494-0.153-0.697,0.188c-0.235,0.258,0.146,0.5,0.202,0.697c0.315,0.254,0.145,0.404,0.078,0.731
				c-0.114,0.297,0.416,0.481,0.252,0.719c-0.236,0.184-0.615,0.397-0.524,0.749c-0.334,0.118-0.289,0.501-0.186,0.767
				c0.168,0.379,0.881,0.336,0.847-0.128c0.189-0.027,0.41,0.383,0.548,0.581c-0.133,0.14-0.566-0.029-0.804,0.092
				c-0.313-0.032-0.581,0.308-0.894,0.354c-0.226,0.134-0.528,0.309-0.453,0.634c0.056,0.274,0.16,0.546,0.119,0.827
				c-0.15,0.249-0.279,0.512-0.266,0.813c-0.132,0.439,0.163,0.967-0.212,1.326c-0.106,0.324,0.182,0.323,0.31,0.116
				c0.174,0.076,0.284-0.221,0.267-0.349c0.152,0.278,0.205-0.076,0.342,0.185c0.279-0.093-0.063-0.896,0.111-0.56
				c0.133,0.195,0.204,0.61,0.395,0.639c0.213-0.084,0.105-0.869,0.259-0.259c0.166,0.544,0.253,1.118,0.527,1.618
				c0.161,0.47,0.587,0.91,1.125,0.818c0.153,0.145-0.237,0.444-0.311,0.648c-0.241,0.182-0.538-0.053-0.792-0.063
				c-0.255,0.099-0.548,0.153-0.73,0.373c-0.116,0.255-0.205,0.478-0.231,0.731c-0.06,0.358,0.009,0.769,0.366,0.946
				c0.089-0.274,0.022-0.507,0.403-0.483c0.267,0.153-0.029,0.546,0.208,0.786c0.12,0.25,0.466,0.562,0.351,0.069
				c-0.136-0.387,0.226-0.39,0.445-0.55c0.289-0.305,0.335-0.008,0.296,0.29c0.162,0.212,0.486-0.197,0.564-0.38
				c0.112-0.212,0.007-0.668,0.206-0.576c0.256-0.066,0.422-0.301,0.624-0.467c0.181-0.353,0.521-0.005,0.788,0.046
				c0.333,0.144,0.779,0.093,0.929,0.496c-0.256-0.127-0.556,0.11-0.462,0.43c0.13,0.328,0.526,0.232,0.764,0.186
				c0.24,0.099,0.51-0.202,0.768,0.02c0.252-0.055,0.531-0.021,0.768-0.147c0.233-0.192,0.138-0.625-0.204-0.559
				c0.156-0.231,0.511-0.296,0.747-0.457c0.271-0.025,0.507-0.325,0.745-0.281c0.338,0.234,0.507,0.612,0.797,0.883
				c0.285,0.033,0.021,0.429,0.052,0.672c-0.076,0.293,0.087,0.697,0.332,0.298c0.147-0.266,0.552-0.19,0.574-0.539
				c0.113-0.295,0.189,0.431,0.478,0.392c0.019,0.225-0.066,0.777,0.274,0.414c0.298-0.274,0.348-0.693,0.242-1.064
				c0.048-0.304,0.487,0.183,0.408,0.401c0.068,0.281,0.416-0.242,0.465-0.402c0.038-0.41,0.05-0.894-0.26-1.208
				c-0.236-0.117-0.333-0.483-0.67-0.47c-0.232,0.128-0.497,0.371-0.595-0.055c-0.306-0.272,0.207-0.291,0.379-0.416
				c0.345-0.218,0.534-0.592,0.604-0.981c0.125-0.357,0.233-0.719,0.315-1.089c0.27-0.097,0.523-0.295,0.673-0.458
				c0.307-0.576,0.013,0.432-0.095,0.669c0.234,0.104,0.54-0.084,0.641-0.332c0.151-0.167,0.184-0.825,0.263-0.298
				c0.035,0.182-0.29,0.724-0.027,0.628c0.272-0.087,0.49-0.349,0.615-0.601c0.109-0.338,0.217-0.749,0.08-1.075
				c0.219-0.15-0.016-0.776-0.253-0.435c-0.304-0.057-0.216-0.5-0.272-0.718c0.249-0.352,0.041-1.035-0.443-1.018
				c-0.245-0.14-0.44-0.203-0.691-0.298c-0.326,0.102-0.559-0.206-0.883-0.153c-0.49,0.024,0.041-0.536,0.231-0.343
				c0.222,0.286,0.693,0.422,0.922,0.072c-0.011-0.264-0.01-0.628-0.246-0.834c-0.047-0.295-0.126-0.574-0.329-0.805
				c-0.249-0.367,0.209-0.452,0.36-0.68c0.067-0.295-0.112-0.619-0.289-0.861c0.19-0.19,0.382-0.543,0.177-0.785
				c0.076-0.23-0.443-0.27-0.61-0.248c-0.336-0.022-0.618,0.284-0.953,0.307c-0.286,0.234-0.633,0.363-1.001,0.27
				c-0.26-0.065-0.465-0.351-0.604-0.521c-0.34,0.186-0.062-0.367-0.337-0.529c-0.191-0.262-0.586-0.205-0.442,0.178
				c-0.25,0.305-0.032-0.41-0.188-0.556c-0.203-0.49-0.12-0.138,0.154-0.004c0.305,0.209,0.749,0.082,0.825-0.292
				c-0.15-0.222,0.018-0.661-0.32-0.63c-0.247,0.038-0.259,0.639-0.398,0.147c-0.038-0.271-0.191-0.497-0.328-0.73
				c0.184,0.323,0.54,0.672,0.935,0.473c0.212-0.139,0.287-0.483,0.16-0.69c0.012-0.714-0.401,0.379-0.59-0.186
				c-0.438-0.13,0.839-0.601,0.315-0.757c-0.178,0.248-0.565,0.131-0.606-0.129c0.221-0.124,0.431-0.6,0.285-0.758
				c-0.319-0.181-0.442-0.454-0.371-0.82c-0.187-0.2-0.664,0.152-0.692-0.298c-0.016-0.418-0.396,0.055-0.605-0.096
				C41.598,23.984,41.438,23.892,41.29,23.776L41.29,23.776z"/>
			<g>
				<path style="fill:#D40000;stroke:#000000;stroke-width:0.0307;" d="M41.205,26.731c-0.021,0.463-0.419,0.366-0.532,0.239
					C40.563,26.547,41.198,26.431,41.205,26.731z"/>
				<path style="fill:#D40000;stroke:#000000;stroke-width:0.0307;" d="M41.421,26.704c0.041,0.366,0.461,0.417,0.54,0.263
					C42.1,26.619,41.579,26.397,41.421,26.704z"/>
				<path style="fill:#D40000;stroke:#000000;stroke-width:0.0307;stroke-linejoin:round;" d="M41.163,26.351v0.08l-0.044,0.008
					l-0.016-0.02l-0.012-0.124l-0.024-0.012v-0.056l0.056-0.004v-0.052h-0.068l-0.024,0.052l-0.012,0.072l0.028,0.06l-0.028,0.048
					l-0.052,0.028L40.894,26.5l-0.048,0.024l-0.112,0.012l-0.092-0.044l-0.092-0.088c0,0-0.04-0.064-0.044-0.08
					c-0.004-0.016-0.028-0.072-0.028-0.072l-0.024-0.06l-0.044-0.048l-0.068-0.008l-0.02,0.084l-0.024,0.032l-0.056,0.008
					l-0.06-0.052l-0.04-0.068l-0.044-0.088l-0.036-0.06l-0.052-0.076l-0.024-0.044l-0.024-0.104l-0.06-0.076l-0.04-0.064
					l-0.064-0.052l-0.068-0.052h-0.08l-0.052-0.04l-0.076-0.072l-0.056-0.076l-0.036-0.044l0.008-0.04l0.028-0.036l0.06-0.036
					l0.06-0.004l0.068-0.016l0.068-0.036l0.012-0.048l0.012-0.08l0.072-0.128l0.032-0.092l0.004-0.072l0.104-0.016l0.1,0.012
					l0.072,0.02l0.076,0.024l0.088-0.044l0.072-0.092l0.024-0.16l0.032-0.148l0.036-0.084h0.185l0.064,0.044l0.052-0.024
					l0.048-0.024l0.116,0.012h0.06c0,0,0.048-0.076,0.068-0.088c0.02-0.012,0.116-0.14,0.116-0.14l0.124-0.032l0.064,0.008
					l0.088,0.1l0.072,0.044l0.064,0.004l0.152,0.1c0,0,0.048,0.04,0.064,0.032c0.016-0.008,0.153-0.068,0.153-0.068l0.12-0.008
					l0.128-0.044l0.044,0.1c0,0,0.064,0.152,0.084,0.169c0.02,0.016,0.1,0.168,0.1,0.168s0.04-0.02,0.06-0.024
					c0.02-0.004,0.112,0.02,0.112,0.02l0.265,0.012l0.036-0.04l0.028,0.048l-0.036,0.185l0.016,0.14l0.048,0.189l0.06,0.088
					l0.08,0.004l0.104,0.088l0.004,0.088l-0.08,0.028l-0.072-0.024l-0.092,0.052l-0.144,0.084l-0.12,0.12l-0.104,0.148l-0.068,0.148
					l-0.068,0.048l-0.06-0.024l-0.06,0.004l-0.028,0.072l-0.06,0.072l-0.052,0.185l-0.112,0.124l-0.116,0.056l-0.084,0.064h-0.056
					l-0.096-0.092l-0.044-0.04l-0.012-0.144l-0.092-0.072h-0.068l0.1,0.08l0.004,0.108l-0.056,0.048l-0.028-0.008l-0.028-0.056
					h-0.032l-0.004,0.108l-0.12,0.14l-0.12-0.1l-0.004-0.128L41.163,26.351L41.163,26.351z"/>
				<path style="fill:#D40000;stroke:#000000;stroke-width:0.0307;" d="M39.199,25.339l0.179,0.006l0.093,0.139l0.081,0.087
					l0.081,0.064l0.069,0.011l0.133,0.197v0.023l0.104,0.093l0.029,0.121l0.012,0.04l-0.006,0.052l-0.058,0.035l-0.069-0.012
					l-0.04-0.029l-0.127,0.11l-0.081,0.11l-0.052,0.012l-0.139,0.15l-0.069,0.023l-0.11,0.081l-0.173-0.006l-0.11-0.133
					l-0.023-0.052l-0.006-0.104l0.098-0.069l0.046,0.052l-0.023,0.052l0.006,0.064l0.058,0.023l0.058-0.006l0.208-0.179l0.052-0.029
					l0.121-0.121l0.075-0.04l-0.006-0.075l-0.087-0.133l-0.029-0.093l-0.023-0.087l-0.023-0.064l-0.081-0.092l-0.046-0.052
					l-0.017-0.052l-0.081-0.064l-0.023-0.012L39.199,25.339L39.199,25.339L39.199,25.339z"/>
				<path style="fill:#AA0000;stroke:#000000;stroke-width:0.0307;" d="M42.68,26.015h0.093l0.098-0.046l0.075-0.064h0.069
					l0.046,0.046l0.075-0.006l0.046-0.058l0.017-0.069l0.064-0.087l0.017-0.087l0.058-0.121l0.017-0.087l-0.145-0.006l-0.168,0.145
					l-0.127,0.006l-0.104,0.11l-0.081,0.011l-0.087,0.127l-0.029,0.075l0.012,0.075L42.68,26.015L42.68,26.015z"/>
				<path style="fill:#D40000;stroke:#000000;stroke-width:0.0307;stroke-linejoin:round;" d="M40.893,27.178l-0.11,0.11
					l-0.029,0.098l0.046,0.098l0.104,0.017l0.075-0.04l0.069,0.081l0.012,0.139l0.139,0.15l0.064,0.017l0.052-0.058l0.058-0.058
					l0.006-0.058l0.093-0.04l0.023-0.173l0.052,0.064l0.087-0.052l0.11-0.011v-0.145l-0.04-0.098l-0.087-0.064l-0.133-0.058
					l-0.145-0.052l-0.069,0.006l-0.127,0.075l-0.139,0.046L40.893,27.178L40.893,27.178z"/>
				<path style="fill:#D40000;stroke:#000000;stroke-width:0.0307;stroke-linejoin:round;" d="M41.764,27.142l0.209-0.01
					c0.143-0.093,0.205-0.471,0.304-0.721c0.153-0.198,0.341-0.258,0.57-0.152l0.133,0.038l0.171,0.133h0.123l0.086,0.019
					l0.133,0.01l0.237-0.19l-0.009,0.199l-0.161,0.142l-0.332,0.123l-0.256-0.152L42.96,26.62l0.551,0.607h0.047l0.095,0.095
					l0.047-0.038l0.01-0.161l0.19-0.171l0.019,0.247l0.066,0.123v0.237l-0.18,0.228l-0.285,0.038l-0.332-0.209l-0.009-0.095
					l-0.304-0.351v0.152l0.18,0.37l0.028,0.142l0.066,0.066l0.048,0.114v0.142l0.085,0.199l0.152,0.019l0.038-0.095v-0.133
					l0.161-0.161l0.104-0.009l0.038,0.057l-0.048,0.047l-0.019,0.104v0.066l0.133,0.18l0.038,0.114l-0.199,0.304l-0.133,0.038
					l-0.237-0.038l-0.142-0.095h-0.076l-0.218-0.332l-0.028-0.161l-0.294-0.465l-0.01,0.095l0.114,0.142l0.057,0.218l0.057,0.389
					l0.171,0.332l0.009,0.617l0.057,0.066h0.076l0.095-0.076l0.076-0.104l-0.019-0.361h0.104l0.18,0.104l0.133,0.218l0.047,0.095
					v0.199l-0.066,0.009l-0.133,0.142l-0.218,0.095h-0.38l-0.085-0.076h-0.076l-0.057-0.057H42.58l-0.294-0.418l-0.009-0.693
					l0.038-0.152v-0.209h-0.047v0.209l-0.048,0.133l-0.009,0.19l0.009,0.522l0.313,0.503l0.228,0.114l0.066,0.076h-0.104l0.01,0.076
					l-0.086-0.019l-0.019,0.038l-0.047-0.019l-0.086-0.057l-0.114,0.019l-0.076,0.038h-0.199l-0.086-0.171l-0.066-0.133
					l-0.228-0.209h-0.171l-0.038-0.123l0.029-0.218l0.048-0.199v-0.532l-0.038,0.608l-0.104,0.342l-0.038,0.029l-0.01,0.389
					l0.066,0.18l0.266,0.294l-0.18,0.019l-0.133-0.057l-0.142,0.028l-0.218-0.047l-0.247-0.085l-0.161-0.161l-0.076-0.18
					l-0.029-0.18l-0.038-0.19l0.038-0.152l0.019-0.152l-0.076,0.171v0.408l-0.104-0.028v-0.114l-0.085-0.114l-0.019-0.152
					l-0.029-0.228l-0.01-0.37l0.01-0.228l0.047-0.256l-0.038-0.01l-0.029,0.323l-0.019,0.636l-0.066,0.019l-0.152,0.209h-0.342
					l-0.133-0.114l0.256-0.275l-0.028-0.218l-0.029-0.256l-0.028-0.437L39.4,28.576l-0.332,0.237h-0.285l-0.161-0.199l-0.029-0.228
					l0.019-0.161l0.171-0.228l0.123-0.019l0.048-0.048l0.028,0.038l-0.066,0.19l-0.066,0.142l0.057,0.133l0.162,0.019l0.209-0.323
					l0.161-0.38l0.123-0.19v-0.104l-0.114,0.085l-0.133,0.029l-0.389,0.01l-0.228-0.142l-0.038-0.114l0.009-0.104l0.01-0.142
					l0.247-0.161l0.009,0.342l0.162-0.133v-0.066l0.209-0.275l0.503-0.446h0.304l0.18,0.133l0.076,0.019l0.218,0.209l0.009,0.266
					l0.256,0.209l-0.152,0.18l0.009,0.095l0.143,0.104l0.133-0.038l0.057,0.351l0.161,0.095l0.085,0.009l0.323-0.38l0.142-0.019
					l0.085-0.19l-0.038-0.152L41.764,27.142L41.764,27.142z"/>
				<path style="fill:#D40000;stroke:#000000;stroke-width:0.0307;" d="M38.115,30.441v0.056l0.112,0.151l-0.008,0.159l-0.566,0.287
					l-0.247,0.016l-0.128,0.119l-0.327,0.104l-0.143-0.032l0.024-0.08l0.016-0.135l-0.016-0.08l-0.103-0.056v-0.128l0.127-0.04
					l-0.04-0.056l-0.072-0.008l0.016-0.167l0.032-0.064l0.008-0.04l-0.008-0.08l-0.032-0.072l-0.088-0.024l-0.255,0.104l-0.04-0.04
					l-0.119,0.127l-0.064,0.008l-0.008-0.104l-0.127-0.167V30.17l-0.239-0.04l-0.167,0.215h-0.119l-0.088-0.064h-0.072l-0.079,0.048
					l-0.048-0.016l-0.072,0.127h-0.04l-0.048-0.104l-0.064-0.103l-0.024-0.064l0.032-0.127l0.103-0.064l0.127-0.064l0.096-0.016
					l0.111,0.064l0.048,0.103l0.143-0.135l0.143-0.159l0.119-0.048l0.151,0.024l0.167,0.223l0.159,0.016l0.191-0.135l0.072-0.04
					l0.175,0.024l0.175,0.096l0.183,0.271l0.032,0.263l0.04,0.072l0.319-0.024l0.334-0.064L38.115,30.441L38.115,30.441z"/>
				<path style="fill:#D40000;" d="M38.306,30.083l-0.088,0.39l0.103,0.111l-0.008,0.127l0.056,0.056l0.104-0.056l0.103-0.072
					l0.103-0.04l0.119-0.064l0.016-0.072l0.127-0.064l0.135-0.04l0.175-0.048l0.175-0.024l-0.127-0.088l-0.366-0.239l-0.151-0.016
					l-0.056,0.048l-0.215,0.008l-0.119,0.032L38.306,30.083L38.306,30.083z"/>
				<path style="fill:#D40000;stroke:#000000;stroke-width:0.0307;" d="M40.066,29.692l-0.255-0.008h-0.167l-0.135-0.056
					l-0.111-0.111l-0.016-0.104l-0.08-0.127l-0.08-0.08h-0.119l-0.167,0.111l-0.072,0.143l-0.016,0.231l0.095,0.199l0.319,0.239
					l0.183,0.04l0.128-0.056l0.287-0.127l0.183-0.119l0.064-0.104L40.066,29.692L40.066,29.692z"/>
				<path style="fill:#D40000;stroke:#000000;stroke-width:0.0307;" d="M39.453,29.326l0.143-0.151l0.008-0.343l-0.04-0.032
					l0.04-0.135l0.016-0.111h-0.056l-0.311,0.295l-0.215,0.032l-0.111,0.064l-0.008,0.08l0.088,0.056l0.159-0.016l0.088,0.008
					L39.453,29.326L39.453,29.326z"/>
				<path style="fill:#D40000;stroke:#000000;stroke-width:0.0307;" d="M39.581,30.226l0.279-0.024l0.223,0.016l0.111,0.032
					l0.223,0.119l0.127,0.064l0.247-0.016l-0.096-0.119L40.6,30.178l-0.064-0.119l-0.016-0.119l-0.056,0.016l-0.064-0.016
					l-0.08-0.103l-0.048-0.151l-0.032-0.199l-0.064-0.008l-0.048,0.096l0.048,0.048l0.048,0.096l-0.08,0.103l-0.008,0.08
					l-0.103,0.08l-0.143,0.064l-0.135,0.056l-0.151,0.056L39.581,30.226L39.581,30.226L39.581,30.226z"/>
				<path style="fill:#D40000;stroke:#000000;stroke-width:0.0307;" d="M41.62,29.86l0.008,0.342l0.119,0.104h0.111l0.088-0.048
					l0.024-0.072l-0.08-0.048l-0.032-0.096l-0.167-0.183L41.62,29.86L41.62,29.86L41.62,29.86z"/>
				<path style="fill:#D40000;stroke:#000000;stroke-width:0.0307;" d="M42.918,30.13l0.342,0.231l0.104,0.032l0.096-0.032
					l0.159-0.127l0.08-0.175l0.008-0.127l-0.08-0.008l-0.127,0.088l-0.183,0.016l-0.143,0.024h-0.112l-0.112,0.024L42.918,30.13
					L42.918,30.13z"/>
				<path style="fill:#D40000;stroke:#000000;stroke-width:0.0307;" d="M43.905,29.868l-0.064,0.104l-0.064,0.159l-0.143,0.151
					l0.008,0.111h-0.064l0.008,0.088l0.111,0.087l0.311,0.048l0.247-0.318V30.21l-0.135-0.159l-0.096-0.024L43.905,29.868
					L43.905,29.868z"/>
				<path style="fill:#D40000;stroke:#000000;stroke-width:0.0307;" d="M45.355,30.76l0.159,0.08v0.056l-0.064,0.088l-0.04,0.167
					l-0.016,0.104l-0.191,0.008l-0.199-0.072l-0.112-0.072h-0.103l-0.056-0.048l-0.095-0.064l-0.12-0.08l-0.127-0.167l-0.088-0.111
					v-0.08l0.119-0.151l0.119-0.04h0.534l0.247-0.088l0.199-0.167l0.239-0.048l0.056-0.064l0.159-0.032l0.398-0.207l0.223,0.04
					l0.223-0.008l0.191,0.056l0.072,0.064l-0.04,0.024l-0.103-0.008l-0.119,0.064l-0.016,0.215l0.096,0.175l-0.024,0.048
					l-0.119-0.008l-0.08-0.04l-0.04-0.072V30.25l-0.079-0.111l-0.064-0.024h-0.143l-0.048,0.303h-0.072l-0.135-0.119l-0.199-0.024
					l-0.135,0.119l0.048,0.159l0.199,0.191h0.103l0.096,0.111l-0.008,0.088l-0.143-0.032l-0.143-0.032l-0.119-0.056l-0.096,0.016
					l-0.111-0.064l-0.111-0.048l-0.072-0.032L45.355,30.76L45.355,30.76z"/>
				<path style="fill:#D40000;stroke:#000000;stroke-width:0.0307;" d="M45.892,34.318l-0.127,0.115l-0.085,0.163l-0.03,0.169
					l-0.054,0.211l-0.024,0.163l0.024,0.356l0.012,0.193l0.115,0.181l0.06,0.018l0.072,0.145l0.103-0.284l0.048,0.036l0.03,0.211
					l0.169,0.145c0,0-0.157-0.078-0.193-0.078c-0.036,0-0.042,0.042-0.042,0.042l0.042,0.09l0.096,0.097l0.169,0.066l0.314,0.006
					l-0.072,0.072h-0.217l-0.054,0.042l0.079,0.115l0.096,0.151l0.175,0.085l0.181-0.048h0.06l-0.03,0.072l0.09,0.066l0.078,0.072
					l0.072,0.078l0.06,0.012v0.09l-0.109,0.272l-0.024,0.127l-0.06,0.103l-0.036,0.157l-0.109,0.187l-0.012,0.066h0.054l0.078-0.103
					l0.115-0.048l0.139-0.181c0,0,0.078,0.024,0.097-0.012c0.018-0.036,0.103-0.29,0.103-0.29l0.084-0.018l0.042-0.265l0.072,0.247
					l0.06,0.314l-0.024,0.265l-0.157,0.289l-0.042,0.048l0.024,0.096h0.115l0.133-0.139l0.229-0.308l0.091-0.308l0.048-0.597
					l0.103,0.278l0.097,0.271l0.048,0.211l-0.072,0.278l-0.09,0.326l0.121-0.085l0.253-0.284l0.199-0.295l0.054-0.217l0.048-0.416
					l-0.03-0.326l0.012-0.121l0.042-0.066l-0.006-0.217l-0.042-0.09l-0.145,0.193l-0.06,0.012l-0.169-0.115l-0.042-0.012
					l-0.097-0.139l-0.066-0.223l0.006-0.253h-0.036c0,0,0.018-0.211,0.036-0.265c0.018-0.054,0.042-0.157,0.042-0.157l-0.03-0.223
					l-0.115-0.211l-0.139-0.121l-0.223-0.066l-0.26-0.072l-0.151-0.121l-0.284-0.03l-0.145,0.018l-0.271-0.127l-0.175-0.066
					l-0.223-0.006l-0.211-0.024L45.892,34.318L45.892,34.318z"/>
				<path style="fill:#D40000;stroke:#000000;stroke-width:0.0307;" d="M36.185,34.331l-0.556-0.011l-0.089-0.045l-0.133,0.111
					H35.15l-0.278,0.156l-0.189,0.145l-0.1-0.011l-0.39,0.356l0.056,0.289l0.044,0.078l0.022,0.278l0.011,0.4l-0.089,0.067
					l-0.134,0.334l-0.078,0.289l-0.067,0.568l0.056,0.423l-0.078,0.223l-0.156,0.245l-0.033,0.122l0.133-0.089l-0.022-0.045
					l0.067,0.1l0.167-0.3l0.067,0.111l0.067,0.011v-0.378l-0.078-0.59l0.189,0.612l0.045,0.223l0.033-0.011l0.022-0.501l0.122,0.278
					l0.011,0.245l0.056,0.045l0.034-0.067v-0.367l-0.2-0.59l-0.1-0.545l0.267,0.712l0.156,0.145l0.145,0.39l0.123,0.223l0.022,0.145
					l0.089-0.056l0.034-0.056l-0.078-0.056l0.056-0.044l-0.011-0.2l-0.067-0.467h-0.067l-0.234-0.49l0.211,0.301h0.089l0.011-0.078
					l-0.1-0.2l-0.022-0.234l0.2,0.289l0.067-0.033l-0.111-0.323l-0.022-0.367l0.067,0.156l-0.011,0.178l0.145,0.178l0.145,0.078
					l0.111-0.133l-0.078-0.056l-0.033-0.156l-0.111-0.134v-0.178l0.156,0.278l0.145,0.1l0.145,0.033l0.145-0.1l0.245-0.278
					l-0.033-0.033l-0.256,0.011l-0.2-0.134l-0.178-0.167v-0.145l0.033,0.022l0.078,0.156l0.145,0.145l0.167,0.022l0.212,0.011
					l0.234-0.211l0.123-0.401l0.033-0.223l-0.045-0.278l-0.145-0.323l-0.089-0.145L36.185,34.331L36.185,34.331z"/>
				<path style="fill:#D40000;stroke:#000000;stroke-width:0.0307;" d="M44.376,40.497l-0.59,0.612l-0.078-0.022l-0.211,0.178
					l-0.011,0.189l0.2,0.156l0.078,0.145l0.056-0.011l0.2,0.245l0.189,0.267l0.078,0.045l0.056,0.122l-0.1,0.145l0.033,0.089
					l0.156-0.022l0.178,0.011l0.111,0.067l0.045,0.2v0.078l0.122-0.067l0.1-0.145L45,42.422l-0.022-0.1l0.033-0.267l0.033,0.356
					l0.078,0.111l0.056-0.045l0.067,0.234l0.145,0.145l0.078,0.133l0.011-0.089l-0.011-0.178l0.078-0.2l0.089-0.234l0.089-0.056
					l0.078,0.034l0.111,0.111l-0.011,0.045l0.1-0.011l-0.022-0.267l-0.145-0.2l-0.223-0.144L45.5,41.688l-0.1-0.178l0.156,0.089
					l0.167,0.156l0.156,0.078l0.111,0.022l0.189,0.367l0.122,0.178l0.022-0.245l0.089-0.278l0.089-0.122l0.111-0.011l0.145,0.045
					l-0.033-0.167l-0.111-0.211l-0.223-0.2l-0.234-0.178l-0.2-0.089l-0.178,0.156l-0.056,0.022l-0.1,0.089l-0.078-0.033
					l-0.256-0.245l-0.067-0.044l-0.111-0.267l-0.167-0.078l-0.256,0.022L44.376,40.497L44.376,40.497z"/>
				<path style="fill:#D40000;stroke:#000000;stroke-width:0.0307;" d="M37.688,40.352L37.688,40.352l0.078,0.133l0.067,0.211
					l0.111,0.123l-0.011,0.067l0.156,0.133l0.156,0.245l0.256,0.211l-0.189,0.167l-0.445,0.334l-0.145,0.045l-0.189-0.112
					l0.022,0.267l0.078,0.123l-0.2-0.045l-0.234,0.022L37.053,42.4l-0.033,0.122l-0.056-0.089l-0.078-0.123l-0.022-0.022
					l-0.044,0.033l0.033,0.022l0.011,0.223l-0.056,0.045l-0.011,0.067l-0.256,0.167l-0.067-0.167l-0.089-0.189l-0.156-0.078
					l-0.167,0.022l-0.189,0.111l0.056-0.156l0.111-0.178l0.211-0.178l0.211-0.133l0.167-0.067l0.045-0.022l-0.056-0.056
					l-0.311,0.089l-0.223,0.145l-0.234,0.167l-0.178,0.256l-0.089,0.067v-0.189l-0.1-0.256l-0.033-0.167l-0.1-0.122h-0.122
					l-0.167,0.033l0.122-0.211l0.245-0.133l0.111-0.189l0.2-0.167l0.167-0.033l0.245,0.033l0.122,0.067l0.234,0.011l0.145-0.011
					l0.178-0.089l0.145-0.267l0.2-0.289l0.234-0.122L37.688,40.352L37.688,40.352z"/>
			</g>
			<path style="stroke:#000000;stroke-width:0.0307;" d="M40.449,25.301v0.14l-0.052,0.084h-0.092l-0.056,0.06l-0.016,0.048
				l0.104,0.096l0.096,0.068l0.04,0.048l0.024,0.012l0.401-0.004l0.048,0.048l0.088-0.064l0.108-0.164l0.341,0.004l0.18,0.132
				l0.012,0.108l0.04,0.016l0.096-0.084l0.08-0.004l0.04,0.052h0.072l0.237-0.213l0.04-0.056l0.088-0.004l-0.012-0.068l-0.096-0.024
				l-0.084-0.084l-0.024-0.14l-0.076-0.012l-0.132,0.068l-0.229,0.112l-0.076,0.056l-0.068,0.004c0,0-0.028-0.024-0.044-0.024H41.44
				l-0.072,0.06h-0.056l-0.02-0.02l-0.309-0.024l-0.257-0.064l-0.133-0.088l-0.084-0.068l-0.024-0.024L40.449,25.301L40.449,25.301z
				"/>
			<g>
				<path style="fill:#FFFFFF;stroke:#000000;stroke-width:0.0307;" d="M40.642,25.67h0.176l0.044,0.036v0.048l-0.084,0.036
					l-0.149,0.008l-0.104-0.016l-0.072-0.064l-0.016-0.128l0.096-0.108h0.092l0.008,0.036L40.642,25.67L40.642,25.67z"/>
				<path style="fill:#FFFFFF;stroke:#000000;stroke-width:0.0307;" d="M41.821,25.662l-0.028,0.024v0.048l0.036,0.024l0.177,0.008
					l0.193-0.152l0.004-0.06l-0.116-0.1h-0.1l-0.016,0.028l0.024,0.052l0.032,0.048l-0.032,0.064L41.821,25.662L41.821,25.662z"/>
			</g>
			<g>
				<path style="fill:#5656A6;stroke:#000000;stroke-width:0.0307;" d="M35.503,30.433l0.104,0.183l-0.008,0.327l-0.04,0.04
					l-0.151-0.127l-0.08-0.111l-0.08-0.135v-0.119l0.08-0.064l0.103-0.024L35.503,30.433L35.503,30.433z"/>
				<path style="fill:#5656A6;stroke:#000000;stroke-width:0.0307;" d="M35.821,30.959l0.231-0.478v-0.127l-0.088-0.128h-0.119
					l-0.127,0.119v0.422L35.821,30.959L35.821,30.959z"/>
				<path style="fill:#5656A6;stroke:#000000;stroke-width:0.0307;" d="M36.219,30.959l0.127-0.056l0.311-0.295l0.048-0.088
					l-0.024-0.072l-0.088-0.064l-0.056-0.016l-0.127,0.056l-0.072,0.072l-0.143,0.255L36.219,30.959L36.219,30.959L36.219,30.959z"
					/>
				<path style="fill:#5656A6;stroke:#000000;stroke-width:0.0307;" d="M36.769,31.166l-0.112,0.08l-0.127-0.008l-0.231-0.159
					l0.008-0.032l0.143-0.024l0.127-0.056l0.127,0.008l0.072,0.064l0.024,0.072L36.769,31.166L36.769,31.166L36.769,31.166z"/>
				<path style="fill:#48489C;stroke:#000000;stroke-width:0.0307;" d="M45.642,30.935h0.183l0.103,0.056h0.207v0.08l-0.119,0.087
					l-0.231,0.064l-0.104,0.048l-0.08-0.008l-0.056-0.072v-0.111l0.048-0.096L45.642,30.935L45.642,30.935z"/>
				<path style="fill:#48489C;stroke:#000000;stroke-width:0.0307;" d="M46.908,30.688L46.908,30.688c0,0,0.127-0.072,0.151-0.127
					c0.024-0.056,0.08-0.175,0.08-0.175l0.048-0.207l-0.064-0.175l-0.119-0.032L46.9,29.979l-0.056,0.056l-0.016,0.151l0.056,0.127
					l0.048,0.072l-0.008,0.135L46.908,30.688L46.908,30.688z"/>
				<path style="fill:#48489C;stroke:#000000;stroke-width:0.0307;" d="M46.43,30.752L46.43,30.752l0.127-0.064l0.079-0.151
					l0.008-0.167l-0.064-0.127l-0.088-0.095h-0.119l-0.032,0.223l0.088,0.088L46.43,30.752L46.43,30.752L46.43,30.752z"/>
				<path style="fill:#48489C;stroke:#000000;stroke-width:0.0307;" d="M46.279,30.895l0.048-0.056l0.024-0.119l-0.048-0.175
					l-0.072-0.08l-0.087-0.08l-0.096-0.064h-0.135l-0.088,0.072l0.024,0.143l0.159,0.119l0.127,0.024L46.279,30.895L46.279,30.895z"
					/>
				<path style="fill:#48489C;stroke:#000000;stroke-width:0.0307;" d="M46.861,30.516v0.144l-0.144,0.021l-0.01-0.195
					L46.861,30.516z"/>
				<path style="fill:#4F4D9F;stroke:#000000;stroke-width:0.0307;" d="M45.756,42.478l-0.122,0.167v0.278l0.056,0.134l-0.056,0.523
					l0.278-0.389l0.1-0.2l-0.011-0.267L45.923,42.6l-0.089-0.078L45.756,42.478z"/>
				<path style="fill:#4F4D9F;stroke:#000000;stroke-width:0.0307;" d="M46.68,41.899l-0.089,0.022l-0.1,0.211l-0.022,0.278
					l0.056,0.145v0.2l0.022,0.122l0.1-0.144l0.145-0.245l0.022-0.178v-0.245l-0.067-0.111L46.68,41.899z"/>
				<path style="fill:#4F4D9F;stroke:#000000;stroke-width:0.0307;" d="M44.254,43.346l0.145-0.1l0.111-0.078l0.145-0.189
					l-0.022-0.145l-0.089-0.067l-0.111-0.045l-0.1,0.011l-0.111,0.156l0.011,0.312L44.254,43.346L44.254,43.346L44.254,43.346z"/>
				<path style="fill:#4748A5;stroke:#000000;stroke-width:0.0307;" d="M37.476,42.367l0.111,0.044v0.301l-0.189,0.211l-0.211,0.156
					l0.011-0.2l-0.056-0.066V42.6l0.045-0.056v-0.1l0.189-0.1L37.476,42.367z"/>
				<path style="fill:#4748A5;stroke:#000000;stroke-width:0.0307;" d="M36.03,42.544l0.156-0.011l0.167,0.1l0.067,0.189l-0.1,0.089
					l-0.056,0.089l-0.033,0.145l0.022,0.234l0.011,0.211l-0.189-0.234l-0.156-0.245l-0.011-0.245l0.056-0.211L36.03,42.544
					L36.03,42.544z"/>
				<path style="fill:#4748A5;stroke:#000000;stroke-width:0.0307;" d="M35.495,42.266l-0.045,0.156l-0.056,0.033l-0.067,0.089
					v0.334l-0.111-0.066l-0.122-0.156l-0.067-0.167l0.022-0.423l0.056-0.178l0.134-0.045l0.134,0.045l0.111,0.256L35.495,42.266
					L35.495,42.266z"/>
				<path style="fill:#4748A5;stroke:#000000;stroke-width:0.0307;" d="M35.507,41.187l-0.067,0.167l-0.178,0.133
					C35.235,41.309,35.326,41.216,35.507,41.187L35.507,41.187z"/>
			</g>
		</g>
		<g>
			<g>
				<path style="fill:#DFDA4D;stroke:#000000;stroke-width:0.0307;" d="M35.917,31.222l0.215,0.199l0.159,0.103l0.127,0.048
					l0.159,0.088h0.335l0.303-0.032l0.151-0.056l0.295-0.008l0.239-0.111l0.175-0.119l0.175-0.008l0.096-0.096h0.127l0.255-0.191
					l0.359-0.159l0.374-0.135l0.406-0.08l0.167,0.008l0.064,0.048l0.08,0.135l0.032,0.064l-0.04,0.135l-0.151,0.088l-0.032-0.096
					l0.095-0.08l-0.024-0.048l-0.151-0.024h-0.104l-0.095,0.096l-0.016,0.215l0.127,0.111l0.135,0.088l0.119,0.008l0.143-0.087
					l0.191-0.167l0.111-0.191l-0.032-0.279l-0.064-0.175l-0.191-0.143l-0.239-0.096l-0.414,0.008l-0.247,0.064l-0.096,0.032
					l-0.263,0.175l-0.119,0.008l-0.263,0.175l-0.104,0.04l-0.119,0.048l-0.183,0.08l-0.351,0.159l-0.239,0.143l-0.119,0.016
					l-0.279,0.175l-0.398,0.032l-0.072-0.04l-0.183-0.024l-0.119-0.048l-0.119-0.064l-0.167-0.199l-0.048-0.032h-0.151l-0.048,0.064
					L35.917,31.222L35.917,31.222z"/>
				<path style="fill:#D9D24D;stroke:#000000;stroke-width:0.0307;" d="M40.552,30.553l0.048,0.398l-0.088,0.247l0.183,0.008h0.215
					l0.191-0.04l0.183-0.016l0.167,0.008l0.135,0.016l0.167-0.064l0.008-0.127l-0.04-0.111l0.08-0.247l-0.032-0.056L40.552,30.553
					L40.552,30.553z"/>
				<path style="fill:#D9D34A;stroke:#000000;stroke-width:0.0307;" d="M42.44,30.991l-0.048,0.032l-0.072-0.032l-0.04-0.111
					l0.08-0.072l0.175,0.008l0.159,0.143v0.207L42.48,31.27l-0.223,0.056l-0.247-0.072l-0.151-0.207l-0.04-0.143l0.032-0.247
					l0.04-0.159l0.215-0.159l0.231-0.072l0.271-0.04l0.311,0.08l0.629,0.239l0.422,0.191l0.47,0.247l0.279,0.127l0.366,0.175
					l0.223,0.08l0.255-0.032l0.111,0.008l0.223-0.072l0.151-0.016l0.334-0.39l0.135-0.08l-0.016,0.175l-0.223,0.247l-0.191,0.215
					l-0.08,0.008l-0.104,0.087l-0.199-0.008l-0.462,0.024l-0.223-0.072l-0.35-0.072l-0.414-0.183l-0.327-0.167l-0.159-0.024
					l-0.247-0.127l-0.151-0.016l-0.088-0.064l-0.271-0.08l-0.223-0.08l-0.215-0.024L42.408,30.6l-0.08,0.048l-0.08,0.111
					l-0.04,0.151l0.056,0.183l0.096,0.016l0.088-0.04l0.032-0.064L42.44,30.991L42.44,30.991z"/>
				<path style="fill:#DDD457;stroke:#000000;stroke-width:0.0307;" d="M37.735,39.769l-0.102,0.101l-0.16-0.101l0.073-0.189
					l0.261-0.044l0.145,0.218l-0.058,0.218l-0.203,0.203l-0.247,0.073l-0.247,0.029l-0.29-0.014l-0.392-0.087l-0.305-0.363
					l-0.232-0.465l-0.174-0.392L35.6,38.157l-0.102-0.334l-0.044-0.305l-0.218-0.421l0.087-0.073l0.755-0.668h0.044l0.16-0.145
					l0.276-0.523l0.029-0.029l0.087-0.319l-0.015-0.552l-0.073-0.261l-0.174-0.29c0,0-0.058-0.102,0-0.087
					c0.058,0.015-0.16-0.247-0.16-0.247l-0.262-0.276v-0.058l-0.189-0.189l-0.131-0.073h-0.102l-0.044-0.058l-0.189-0.058
					l-0.087,0.087l-0.058,0.189v0.073l0.131,0.058l0.044-0.029l-0.044-0.073l0.015-0.087l0.102-0.073l0.116,0.087l-0.015,0.218
					l-0.087,0.102l-0.218,0.015l-0.174-0.087l-0.073-0.145l-0.058-0.218l0.058-0.131l0.087-0.073l0.145,0.029l0.232-0.058
					l0.073-0.029l0.189,0.029l0.131,0.131l0.145,0.087l0.363,0.407l0.102,0.102l0.189,0.276l0.232,0.523l0.058,0.363l-0.029,0.363
					l-0.189,0.523l-0.218,0.334l-0.305,0.378l-0.523,0.436L35.6,37.01l-0.116,0.145l0.203,0.436l0.319,1.336l0.261,0.552
					l0.378,0.392l0.29,0.16l0.378,0.044l0.334-0.087l0.145-0.13L37.735,39.769L37.735,39.769z"/>
				<path style="fill:#DBD45D;stroke:#000000;stroke-width:0.0307;" d="M38.345,40.074l-0.044,0.072l0.058,0.116l0.145,0.029
					l0.102-0.131v-0.145l-0.087-0.16l-0.116-0.029l-0.131,0.015l-0.189,0.131l-0.102,0.116l-0.058,0.276l0.145,0.45l0.232,0.305
					l0.581,0.378l0.624,0.232l0.392,0.058l0.291,0.291l0.145,0.348l-0.131,0.218l-0.174,0.014v-0.087l0.073-0.015l0.087-0.087
					l-0.044-0.087l-0.174-0.102l-0.145,0.116l-0.015,0.261l0.131,0.131l0.189,0.043l0.145-0.058l0.145-0.16l0.015-0.189
					l-0.058-0.276l-0.247-0.348l-0.261-0.131l-0.653-0.232l-0.421-0.16l-0.305-0.218l-0.276-0.29l-0.16-0.421l0.073-0.276
					l0.16-0.116l0.087,0.029L38.345,40.074L38.345,40.074z"/>
				<path style="fill:#E5DC5E;stroke:#000000;stroke-width:0.0307;" d="M43.616,40.089l0.116,0.073l0.015,0.116l-0.131,0.058
					l-0.174-0.029v-0.174l0.102-0.218l0.291-0.015l0.131,0.16l0.087,0.305l-0.087,0.32L43.63,40.96l-0.465,0.32l-0.508,0.218
					l-0.755,0.363l-0.218,0.16l-0.189,0.349l0.116,0.203l0.145,0.029v-0.073l-0.044-0.058l0.029-0.16l0.087-0.087l0.174,0.102
					l0.044,0.218l-0.16,0.16l-0.174,0.029l-0.276-0.131l-0.087-0.145l-0.014-0.204l0.116-0.189l0.232-0.232l0.363-0.204l0.523-0.218
					l0.769-0.377l0.537-0.581v-0.232l-0.116-0.145L43.616,40.089L43.616,40.089z"/>
				<path style="fill:#D7D643;stroke:#000000;stroke-width:0.0307;" d="M44.283,39.668v0.13h0.102l0.102-0.014l0.044-0.174
					l-0.087-0.116l-0.116-0.015l-0.145,0.029l-0.16,0.116l-0.015,0.232l0.072,0.16l0.145,0.218l0.261,0.131l0.261,0.073l0.392-0.029
					l0.45-0.218l0.421-0.305l0.174-0.421l0.218-0.77l0.276-0.973l0.174-0.363l0.145-0.131l-0.044-0.058h-0.131l-0.334-0.247
					l-0.348-0.218l-0.45-0.537l-0.232-0.45l-0.073-0.639l0.131-0.624l0.276-0.465l0.45-0.378l0.407-0.29l0.407-0.014l0.058,0.16
					l-0.058,0.131l-0.087-0.073l-0.131-0.015l-0.058,0.218l0.145,0.073l0.261-0.029l0.073-0.174l-0.029-0.247l-0.189-0.174
					l-0.334,0.029l-0.247,0.029l-0.305,0.174l-0.319,0.334l-0.218,0.319l-0.276,0.45l-0.087,0.407l0.015,0.712l0.363,0.769
					l0.319,0.407l0.624,0.421l0.102,0.073l-0.189,0.421l-0.276,0.886l-0.174,0.711l-0.145,0.305l-0.465,0.407l-0.523,0.203
					l-0.45-0.014l-0.218-0.16l-0.058-0.145l-0.015-0.218L44.283,39.668L44.283,39.668z"/>
			</g>
			<g>
				<path style="fill:#44B3CC;stroke:#000000;stroke-width:0.0307;" d="M40.314,32.796l-0.022,0.223l0.067,0.49l0.245,1.347h0.122
					l0.011-0.211L40.314,32.796L40.314,32.796z"/>
				<path style="fill:#50AECE;stroke:#000000;stroke-width:0.0307;" d="M40.937,34.754l-0.445-1.948l0.334,1.981L40.937,34.754
					L40.937,34.754z"/>
				<path style="fill:#50AFCE;stroke:#000000;stroke-width:0.0307;" d="M41.015,34.732l0.156-0.056l-0.579-1.87L41.015,34.732
					L41.015,34.732z"/>
				<path style="fill:#50ABCE;stroke:#000000;stroke-width:0.0307;" d="M40.759,32.696l0.679,1.948l-0.134,0.044L40.759,32.696z"/>
				<path style="fill:#50B0CE;stroke:#000000;stroke-width:0.0307;" d="M41.538,34.598l-0.657-1.97l0.835,1.948L41.538,34.598
					L41.538,34.598L41.538,34.598z"/>
				<path style="fill:#50B3CE;stroke:#000000;stroke-width:0.0307;" d="M41.783,34.498l-0.779-1.881l0.968,1.903L41.783,34.498
					L41.783,34.498L41.783,34.498z"/>
				<path style="fill:#64B4D1;stroke:#000000;stroke-width:0.0307;" d="M35.683,31.055l-0.105,0.016l-0.129,0.105l-0.057,0.137
					l0.008,0.25l0.089,0.153l0.153,0.162L35.716,32l-0.04,0.218l-0.218,0.137l-0.234,0.17l-0.089,0.137l-0.032,0.153l0.008,0.162
					l0.032,0.04l0.178-0.008l0.105-0.032l0.161-0.016l0.153,0.024l0.234,0.162l0.331,0.299l0.145,0.17l-0.105-0.25l-0.056-0.299
					l-0.04-0.299l0.049-0.178l0.081-0.113l0.089,0.049l0.073-0.04l0.097,0.048l0.081-0.048l0.129,0.04l0.161-0.081l0.242-0.186h0.17
					l0.049,0.04l0.097-0.04l0.057,0.081l0.202-0.154l0.161-0.081l0.161,0.065l0.21,0.048l0.081-0.073l0.17-0.008l0.234-0.032
					l0.113,0.081l0.113,0.274l0.081,0.089l0.121,0.024l0.065,0.032l0.113,0.283l0.081,0.226l0.04,0.274l-0.016,0.073l0.073-0.008
					l0.113,0.113l0.097,0.049l0.081,0.089l0.024,0.145l0.065-0.008l0.057-0.073l0.113,0.024l0.097,0.105l0.097,0.008l-0.17-1.122
					l-0.161-0.089l-0.008-0.258l0.379-0.137l0.008-0.097l-0.056-0.162l-0.073-0.145l-0.145,0.016l0.113-0.363l0.283,0.291
					l-0.129,0.016l0.113,0.444l0.485-0.081l0.089,0.121l-0.032,0.105l0.04,0.073l0.024,0.129l0.145,0.186l0.379,0.823l0.363,0.743
					l0.162-0.17l0.17-0.04l0.186-0.129l0.113-0.04l0.081-0.105l0.21-0.008l0.315,0.283l0.049-0.073l0.299-0.016l0.097,0.194
					l0.016,0.081l0.121-0.048l0.331,0.073l0.202,0.162l0.153,0.064l0.04,0.081l0.089-0.105l0.065,0.008l0.105,0.024l0.331-0.024
					l0.17-0.339c0,0,0.153-0.315,0.226-0.396c0.073-0.081,0.371-0.404,0.371-0.404l0.363-0.242l0.274-0.153l0.258-0.032l0.242-0.008
					l-0.008-0.218l-0.097-0.21l-0.242-0.315l-0.048-0.25v-0.154l0.21-0.137l0.25-0.202l0.008-0.21l-0.073-0.258l-0.145-0.218
					l-0.048-0.04l-0.081-0.016l-0.113,0.073l-0.226,0.315l-0.25,0.25l-0.307,0.186l-0.355,0.04L44.96,31.58l-0.396-0.121
					l-0.493-0.186l-0.517-0.242l-0.283-0.057l-0.428-0.21l-0.161-0.008l-0.008,0.073l0.129,0.129l-0.032,0.226l-0.113,0.121
					l-0.21,0.008c0,0,0.024,0.016-0.097,0.048c-0.121,0.032-0.226,0-0.226,0l-0.202-0.121l-0.194-0.032h-0.387l-0.428,0.04
					l-0.485,0.04l-0.242,0.21l-0.21,0.032l-0.226-0.057l-0.234-0.274l0.008-0.153l0.17-0.21l-0.089-0.008l-0.533,0.194l-0.331,0.186
					l-0.178,0.113l-0.129-0.008l-0.17,0.153l-0.21,0.016l-0.121,0.129l-0.04-0.016l-0.339,0.089l-0.307,0.056
					c0,0-0.388,0.057-0.428,0.057c-0.04,0-0.412-0.048-0.412-0.048l-0.275-0.137l-0.129-0.145l-0.121-0.081l-0.161-0.169
					l0.008-0.129L35.683,31.055L35.683,31.055z"/>
				<path style="fill:#5DB7D2;stroke:#000000;stroke-width:0.0307;" d="M40.51,35.084l-0.011,0.252l0.183-0.046l-0.023-0.241
					L40.51,35.084L40.51,35.084L40.51,35.084z"/>
				<path style="fill:#5DB7D2;stroke:#000000;stroke-width:0.0307;" d="M40.75,35.015v0.206h0.08v-0.218L40.75,35.015L40.75,35.015z
					"/>
				<path style="fill:#5DB7D2;stroke:#000000;stroke-width:0.0307;" d="M40.934,34.969v0.229l0.114-0.034l-0.011-0.206
					L40.934,34.969L40.934,34.969z"/>
				<path style="fill:#5DB7D2;stroke:#000000;stroke-width:0.0307;" d="M41.174,34.923l0.012,0.172h0.103l0.012-0.206L41.174,34.923
					L41.174,34.923z"/>
				<path style="fill:#5DB7D2;stroke:#000000;stroke-width:0.0307;" d="M41.403,34.877v0.183h0.16l-0.023-0.206L41.403,34.877z"/>
				<path style="fill:#5DB7D2;stroke:#000000;stroke-width:0.0307;" d="M41.655,34.82v0.172l0.138-0.034l-0.034-0.183L41.655,34.82z
					"/>
			</g>
			<g>
				<path style="fill:#FFFCFC;stroke:#000000;stroke-width:0.0307;" d="M45.886,36.906v0.181l0.042,0.024l0.012,0.06l0.187,0.03
					l-0.018-0.06l-0.121-0.115l-0.03-0.085L45.886,36.906L45.886,36.906z"/>
				<path style="fill:#CCCCCC;stroke:#000000;stroke-width:0.0307;" d="M42.069,34.498l-0.031-0.062l0.103-0.113l0.195-0.041
					l0.154-0.123l0.195-0.123l0.205-0.051l0.267,0.226l-0.092,0.072l-0.093-0.01l-0.174,0.113l-0.133,0.082l-0.113-0.021
					l-0.103-0.031l-0.061,0.051h-0.093l-0.072,0.041L42.069,34.498L42.069,34.498z"/>
				<path style="fill:#CCCCCC;stroke:#000000;stroke-width:0.0307;" d="M43.321,34.21l0.103-0.041h0.154l0.082,0.226v0.072
					l0.133-0.041h0.246l0.174,0.082l0.154,0.154l0.164,0.092h0.133v-0.072h0.133l0.031,0.041l0.144,0.02l0.103-0.031l0.031,0.092
					l-0.021,0.123l-0.031,0.093l0.041,0.39l0.185,0.667l0.349,0.564l-0.133-0.062l-0.298-0.041l-0.092,0.041l-0.123-0.01
					l-0.144,0.133l-0.072,0.01l-0.061,0.051l-0.113-0.154l-0.431-0.575l-0.113-0.123l-0.246-0.533l-0.339-0.729l-0.021-0.298
					l-0.082-0.082l-0.041-0.01L43.321,34.21L43.321,34.21L43.321,34.21z"/>
				<path style="fill:#CCCCCC;stroke:#000000;stroke-width:0.0307;" d="M43.197,38.181l0.175,0.082l-0.01-0.082l0.123,0.082
					c0,0,0.113,0.021,0.174,0.01c0.061-0.01,0.195-0.144,0.195-0.144l0.041-0.277l0.267-0.462l0.195-0.113l0.062-0.01l0.185-0.205
					l0.349-0.185l0.164-0.062l0.267,0.051l0.195,0.092l0.041,0.164l0.031,0.441l0.123,0.093l0.103-0.051l0.092-0.113l0.226-0.082
					l0.164,0.02l-0.01,0.205l-0.072,0.38l-0.113,0.4l-0.185,0.636l-0.174,0.452l-0.431,0.328l-0.339,0.215H44.49l-0.164-0.154
					l0.205-0.051l0.072-0.123l0.021-0.216l-0.185-0.133l-0.185,0.01l-0.246,0.144l-0.093,0.123l-0.051,0.144h-0.092l-0.205-0.01
					l-0.154,0.103L43.3,40.028l-0.031,0.216l0.051,0.154l0.113,0.072l0.205-0.01l0.051-0.041h0.041l-0.185,0.205l-0.236,0.246
					l-0.308,0.205l-0.205,0.061l-0.339,0.123l-0.246,0.113l-0.277,0.01l-0.287,0.256l-0.195,0.154l-0.133,0.185l-0.062,0.318v0.236
					l0.154,0.205l-0.02,0.062l-0.092-0.011l-0.051-0.041h-0.226l-0.062-0.092l-0.113,0.021l-0.164,0.051l-0.072,0.072l-0.123-0.062
					l0.072-0.185l0.01-0.174l-0.051-0.236l-0.154-0.308l-0.133-0.143l-0.236-0.144l-0.451-0.133l-0.492-0.184l-0.359-0.175
					l-0.133-0.205l-0.051-0.256l0.082,0.082l-0.072-0.287l0.103,0.133l0.072,0.01l0.205,0.257l0.164,0.031l0.041,0.02h0.051
					l0.01-0.02l0.154,0.082l0.175,0.051h0.246l-0.215-0.051l-0.267-0.123l-0.277-0.154l-0.154-0.205l-0.021-0.092l-0.082-0.01
					l0.01-0.062l0.062-0.072l0.082,0.01l0.021,0.061l0.082-0.031l0.133,0.103l0.226,0.02l0.164,0.021l-0.143-0.082l-0.226-0.123
					l-0.226-0.205l-0.072-0.01l-0.226-0.349l-0.123-0.339L38.385,38.9v-0.421l0.133-0.338l0.195-0.308l0.113-0.103l0.092,0.031
					l0.236-0.174l0.164-0.051l0.216,0.01l0.164,0.051l0.236,0.072l0.113,0.144l0.113,0.01l0.031,0.082l-0.061,0.021l0.082,0.113
					l-0.031,0.072l0.072,0.092l-0.01,0.133l-0.133,0.154l0.092,0.154l-0.01,0.051l0.113,0.123l0.103,0.154l0.174,0.031l0.41,0.01
					l0.297-0.031l0.175-0.01l-0.072-0.082l0.123-0.031l0.154-0.031l0.277-0.215c0,0,0.216-0.37,0.257-0.421
					c0.041-0.051,0.123-0.226,0.123-0.226l0.349-0.359l0.133-0.051l0.308-0.154h0.318l0.082,0.092l0.133,0.021l0.123,0.154
					l0.061,0.421l-0.195,0.133h-0.164l-0.113-0.072l-0.031,0.062L43.197,38.181L43.197,38.181z"/>
				<path style="fill:#CCCCCC;stroke:#000000;stroke-width:0.0307;" d="M38.218,39.694c0,0,0.024-0.048,0.048-0.048
					c0.024,0,0.078-0.006,0.078-0.006l0.006-0.314c0,0-0.042-0.024-0.048-0.048c-0.006-0.024-0.006-0.139-0.006-0.139l-0.042-0.042
					l-0.006-1.267l-0.121-0.326l-0.103-0.175l-0.084-0.066l-0.133-0.012l-0.151,0.097l-0.09,0.048l-0.193-0.042l-0.072-0.048
					l-0.115-0.006l-0.103-0.187l-0.211-0.066l-0.096-0.03l-0.29-0.024l-0.084-0.006l-0.109,0.072l-0.127,0.151l-0.09,0.175
					l-0.012,0.284l0.066,0.09v0.133l0.03,0.054v0.115l-0.097-0.115l-0.097-0.235l-0.048-0.145l-0.042,0.06l0.012,0.193l0.006,0.157
					l0.054,0.145l0.054,0.205l0.09,0.259l0.072,0.278l0.066,0.265l0.127,0.241l0.109,0.151l0.247,0.247l0.157,0.109l0.241,0.085
					l0.271-0.006l0.084-0.061l-0.109-0.102c0,0-0.018-0.066-0.018-0.09c0-0.024,0.036-0.145,0.036-0.145l0.115-0.121l0.332-0.06
					l0.115,0.085l0.151,0.169L38.218,39.694L38.218,39.694z"/>
				<path style="fill:#CCCCCC;stroke:#000000;stroke-width:0.0307;" d="M41.85,34.763v0.172l0.103-0.023l-0.023-0.149H41.85
					L41.85,34.763z"/>
				<path style="fill:#CCCCCC;stroke:#000000;stroke-width:0.0307;" d="M42.022,34.717v0.137h0.069v-0.149L42.022,34.717z"/>
				<path style="fill:#CCCCCC;stroke:#000000;stroke-width:0.0307;" d="M42.171,34.706l0.011,0.126l0.115-0.023l-0.011-0.149
					L42.171,34.706L42.171,34.706L42.171,34.706z"/>
				<path style="fill:#CCCCCC;stroke:#000000;stroke-width:0.0307;" d="M42.4,34.614v0.172h0.069l0.023-0.172H42.4z"/>
				<path style="fill:#CCCCCC;stroke:#000000;stroke-width:0.0307;" d="M42.595,34.58v0.149l0.092,0.011l-0.023-0.16L42.595,34.58
					L42.595,34.58L42.595,34.58z"/>
				<path style="fill:#CCCCCC;stroke:#000000;stroke-width:0.0307;" d="M42.778,34.534v0.172l0.092,0.011v-0.149L42.778,34.534z"/>
				<path style="fill:#CCCCCC;stroke:#000000;stroke-width:0.0307;" d="M42.961,34.476l-0.034,0.195h0.103l-0.012-0.149
					L42.961,34.476z"/>
				<path style="fill:#CCCCCC;stroke:#000000;stroke-width:0.0307;" d="M43.099,34.476v0.16l0.149-0.069l-0.023-0.172L43.099,34.476
					L43.099,34.476z"/>
			</g>
			<path style="fill:#76401B;" d="M40.259,31.583l-0.1,0.3l0.345-0.056L40.259,31.583L40.259,31.583z"/>
			<g>
				<path style="fill:#784421;stroke:#000000;stroke-width:0.0307;" d="M43.096,37.303l-0.323,0.089l-0.223,0.178l-0.289,0.3
					l-0.234,0.423l-0.267,0.323l-0.49,0.2l-0.445,0.011l-0.345-0.1l-0.122-0.189l-0.033-0.245l-0.045-0.301l-0.1-0.189l-0.156-0.189
					l-0.178-0.122l0.189-0.801l0.056-0.178v-0.234l0.033-0.311l0.167-0.278l0.167-0.156l0.289-0.134l0.512-0.133l0.512-0.167
					l0.534-0.122l0.601-0.145l0.256-0.022l-0.022,0.334l0.067,0.122l-0.011,0.868l-0.056,0.768L43.096,37.303L43.096,37.303z"/>
				<path style="fill:#784421;stroke:#000000;stroke-width:0.0307;" d="M43.219,37.292l0.312,0.067l0.245,0.145l0.1,0.145
					l0.134-0.111l0.056-0.189l0.234-0.133l0.356-0.312l-0.301-0.456l-0.156-0.223l-0.211-0.245l-0.256-0.467l-0.289-0.634h-0.156
					l-0.022,1.257l0.011,0.456L43.219,37.292L43.219,37.292z"/>
				<path style="fill:#A05A2C;stroke:#000000;stroke-width:0.0307;" d="M40.047,32.44l0.011,0.234l0.957-0.3v-0.089L40.047,32.44z"
					/>
			</g>
			<g>
				<path style="fill:none;stroke:#000000;stroke-width:0.0307;" d="M37.328,37.828l0.043,0.216l0.144,0.259l0.274,0.238
					l-0.23-0.166l0.173,0.231l-0.295-0.187l0.288,0.187l-0.302-0.432L37.328,37.828L37.328,37.828L37.328,37.828z"/>
				<path style="fill:none;stroke:#000000;stroke-width:0.0307;" d="M36.976,38.785l-0.108,0.115l-0.187-0.029l0.007,0.238
					l0.259,0.382l-0.259-0.36l0.007-0.245l0.18,0.014L36.976,38.785L36.976,38.785L36.976,38.785z"/>
				<path style="fill:none;stroke:#000000;stroke-width:0.0307;" d="M36.666,39.448l-0.058-0.166v-0.187L36.666,39.448
					L36.666,39.448z"/>
			</g>
			<g>
				<path style="fill:#666666;stroke:#000000;stroke-width:0.0307;" d="M40.072,38.526l-0.086,0.086l-0.144,0.036
					c0,0-0.144-0.014-0.173-0.036c-0.029-0.021-0.187-0.115-0.187-0.115l0.187,0.101H40L40.072,38.526L40.072,38.526z"/>
				<path style="fill:#666666;stroke:#000000;stroke-width:0.0307;" d="M40.302,38.865l0.036,0.209l0.144,0.252l0.094,0.123
					L40.302,38.865L40.302,38.865L40.302,38.865z"/>
				<path style="fill:#808080;stroke:#000000;stroke-width:0.0307;" d="M40.799,39.455l-0.137-0.043l-0.122-0.115l-0.173-0.309
					l0.18,0.23L40.799,39.455L40.799,39.455L40.799,39.455z"/>
				<path style="fill:#666666;stroke:#000000;stroke-width:0.0092;" d="M39.597,38.613l0.022,0.612l0.058,0.238l0.086,0.173
					l0.115,0.18l0.029-0.072l0.122,0.086l0.036-0.036l-0.123-0.122l-0.122-0.166l-0.072-0.173l-0.079-0.295l-0.029-0.317h0.101
					l-0.029-0.058L39.597,38.613L39.597,38.613z"/>
				<path style="fill:#808080;stroke:#000000;stroke-width:0.0092;" d="M42.319,39.578l0.23-0.022l0.216-0.18l0.036-0.123
					l0.101-0.072l-0.014,0.209l0.05,0.108l0.137,0.043l0.086,0.079l0.151,0.014l0.216-0.137l0.158-0.166l0.137-0.122l0.101-0.043
					l0.036-0.202h0.065l0.014-0.094l-0.029-0.18l-0.065-0.173l-0.086-0.115l-0.144-0.13l-0.065,0.029l0.158,0.151l0.13,0.166
					l0.007,0.259L43.91,38.98l-0.194,0.223l-0.252,0.274l-0.122,0.058l-0.259-0.036l-0.094-0.122l-0.022-0.086l-0.029-0.086v-0.101
					l0.036-0.072l-0.266,0.302l-0.108,0.007L42.319,39.578L42.319,39.578z"/>
				<path style="fill:#808080;stroke:#000000;stroke-width:0.0154;" d="M45.782,37.691l0.058-0.05l0.065,0.094l0.015,0.259
					l0.007,0.007v0.173l-0.101,0.187l-0.216,0.23l-0.252,0.108l-0.231,0.029l-0.158-0.036l-0.058-0.094l-0.036-0.094v-0.216
					l0.043-0.086l0.014,0.043l-0.007,0.238l0.079,0.094l0.166,0.05l0.151-0.05l0.18-0.05l0.151-0.086l0.007-0.05l-0.058-0.007
					l0.014-0.022h0.086l0.108-0.216l0.036-0.18v-0.144l-0.043-0.043l-0.022-0.036L45.782,37.691L45.782,37.691L45.782,37.691z"/>
				<path style="fill:#666666;stroke:#000000;stroke-width:0.0307;" d="M40.079,41.025l-0.36,0.173l-0.331,0.101l-0.18-0.029
					l0.353,0.13l0.137-0.108l0.216-0.108L40.079,41.025L40.079,41.025L40.079,41.025z"/>
				<path style="fill:#999999;stroke:#000000;stroke-width:0.0123;" d="M40.36,41.752l0.194,0.058l0.094,0.036l0.202,0.029
					l-0.151,0.093l0.194,0.043c0,0-0.187,0.022-0.216,0.022s-0.13,0.065-0.13,0.065s-0.022,0.115,0.043,0.108
					c0.065-0.007,0.158-0.022,0.194-0.022c0.036,0,0.151,0.022,0.151,0.022l0.072,0.058l-0.043,0.065l-0.302,0.007l0.043,0.036
					h0.245l-0.238,0.158l0.288-0.007l0.23,0.094v0.058l-0.223,0.05l-0.05-0.087l-0.288,0.079l-0.058,0.072l-0.108-0.072l0.086-0.187
					l-0.007-0.194l-0.043-0.151l-0.101-0.223L40.36,41.752L40.36,41.752z"/>
			</g>
			<g>
				<path style="fill:#E4CB5E;stroke:#000000;stroke-width:0.0154;" d="M38.834,32.138l-0.232,0.028l-0.164,0.02l-0.108,0.064
					l-0.088-0.052L38.19,32.23l-0.196-0.104l-0.228,0.124l-0.108,0.096H37.59l-0.052-0.068l-0.104,0.072l-0.06-0.06l-0.064-0.036
					l-0.432,0.312l-0.156-0.052l-0.068,0.06l-0.028,0.024l-0.016,0.068l-0.064-0.168l-0.056,0.04l-0.096-0.032l-0.068,0.096
					l-0.016,0.252l0.04,0.316l0.104,0.348l0.096,0.144l0.08,0.016l0.024-0.1l0.044,0.188l0.064,0.064l0.02,0.34l0.26,0.584
					l0.024,0.3l0.012,0.52l-0.096,0.116l-0.124,0.188l0.004,0.056l-0.128,0.244l0.008,0.372l0.028,0.032l0.008,0.356l0.1,0.008
					l0.08,0.088l0.176-0.016v-0.108l0.024,0.124l0.14,0.184l0.12,0.096l0.084,0.004l0.044-0.064l-0.004-0.4l0.028,0.44l0.088-0.004
					l0.112-0.1l0.148-0.02l0.048,0.004c0,0,0.04,0.024,0.06,0.06c0.02,0.036,0.092,0.068,0.092,0.068l0.052,0.108l0.064,0.024
					l0.032-0.068l-0.044-0.852l-0.044-0.696l-0.048-0.884l-0.048-1.128l-0.008-0.36l-0.056-0.048l0.004-0.116l0.136-0.04l0.08-0.024
					l-0.036-0.108l-0.04-0.36v-0.136l0.048-0.04l0.096-0.004l0.068,0.08l0.132,0.548l0.068,0.024l0.24-0.004l0.544,0.86l0.192,0.288
					l0.264,0.492l0.344,0.492l0.108,0.144l0.072,0.008l0.024-0.524l0.152-0.132l-0.128-0.904l-0.104-0.02l-0.144-0.132l-0.08,0.012
					l-0.08,0.132l-0.1-0.112l-0.012-0.128l-0.092-0.06h-0.068l-0.088-0.12l-0.048-0.012l-0.056,0.052l-0.012-0.408l-0.088-0.192
					l-0.016-0.116l-0.164-0.232l-0.172-0.04c0,0-0.076-0.172-0.076-0.196c0-0.024-0.032-0.108-0.032-0.108L38.834,32.138
					L38.834,32.138z"/>
				<path style="fill:#DCC56A;stroke:#000000;stroke-width:0.0307;" d="M38.978,37.611l-0.116-0.148l-0.04-0.156l-0.016-0.336
					l-0.036-0.32l-0.064-0.496l-0.104-0.612l-0.084-0.496l-0.032-0.292l-0.068-0.344l-0.028-0.236l-0.028-0.196l-0.024-0.28
					l0.08,0.252l0.132,0.588l0.148,0.408l0.06,0.276v0.156l0.104,0.224l0.068,0.284l0.14,0.6l0.148,0.492l0.076,0.356l0.012,0.136
					l-0.156,0.052l-0.076,0.036L38.978,37.611L38.978,37.611z"/>
				<path style="fill:#E2CC75;stroke:#000000;stroke-width:0.0307;" d="M39.758,37.491l0.084-0.404l0.1-0.308l0.044-0.208
					l0.032-0.168l-0.008-0.252l-0.068-0.148l-0.312-0.628l-0.188-0.38l-0.076-0.196l-0.14-0.244l-0.188-0.392l-0.168-0.292
					l-0.14-0.24l-0.132-0.176l-0.04,0.036l0.12,0.448l0.1,0.384l0.096,0.424l0.16,0.556l0.092,0.384l0.092,0.236l0.088,0.332
					l0.244,0.792l0.048,0.208l0.12,0.24L39.758,37.491L39.758,37.491L39.758,37.491z"/>
				<path style="fill:#DDD690;stroke:#000000;stroke-width:0.0307;" d="M38.505,37.707l-0.126,0.126l0.011,0.046h0.149l0.046-0.103
					L38.505,37.707z"/>
				<path style="fill:#DDD690;stroke:#000000;stroke-width:0.0307;" d="M38.356,37.535l0.023,0.138l0.103-0.011l0.057-0.103
					l-0.011-0.08l-0.103,0.023L38.356,37.535L38.356,37.535z"/>
				<path style="fill:#DDD690;stroke:#000000;stroke-width:0.0307;" d="M38.608,37.478l0.034,0.092h0.195v-0.069l-0.08-0.034
					L38.608,37.478L38.608,37.478z"/>
				<path style="fill:#DDD690;stroke:#000000;stroke-width:0.0307;" d="M38.585,37.306l0.011,0.103h0.138l0.069-0.092l-0.08-0.069
					L38.585,37.306L38.585,37.306z"/>
				<path style="fill:#DDD690;stroke:#000000;stroke-width:0.0307;" d="M38.31,37.34l-0.023,0.069l0.069,0.034l0.149-0.034v-0.057
					L38.31,37.34L38.31,37.34z"/>
				<path style="fill:#DDD690;stroke:#000000;stroke-width:0.0307;" d="M38.31,37.169v0.08l0.149,0.011l0.046-0.069l-0.057-0.046
					L38.31,37.169z"/>
				<path style="fill:#DDD690;stroke:#000000;stroke-width:0.0307;" d="M38.608,37.1l-0.023,0.069l0.137,0.034l0.069-0.057
					l-0.103-0.069L38.608,37.1L38.608,37.1z"/>
				<path style="fill:#DDD690;stroke:#000000;stroke-width:0.0307;" d="M38.322,36.917l-0.023,0.103l0.092,0.011l0.08-0.057
					l0.011-0.08l-0.092-0.012L38.322,36.917L38.322,36.917L38.322,36.917z"/>
				<path style="fill:#DDD690;stroke:#000000;stroke-width:0.0307;" d="M38.574,36.871v0.103l0.149,0.034v-0.149l-0.069-0.023
					L38.574,36.871L38.574,36.871z"/>
				<path style="fill:#DDD690;stroke:#000000;stroke-width:0.0307;" d="M38.436,36.699h-0.137l-0.012,0.16l0.16-0.069L38.436,36.699
					z"/>
				<path style="fill:#DDD690;stroke:#000000;stroke-width:0.0307;" d="M38.551,36.653l-0.057,0.115h0.16l0.069-0.149l-0.092-0.023
					L38.551,36.653L38.551,36.653z"/>
				<path style="fill:#DDD690;stroke:#000000;stroke-width:0.0307;" d="M38.516,36.458l0.012,0.092l0.149-0.023l-0.057-0.114
					L38.516,36.458L38.516,36.458z"/>
				<path style="fill:#DDD690;stroke:#000000;stroke-width:0.0307;" d="M38.367,36.493l-0.103-0.023l0.012,0.126l0.149-0.023
					L38.367,36.493L38.367,36.493L38.367,36.493z"/>
				<path style="fill:#DDD690;stroke:#000000;stroke-width:0.0307;" d="M38.264,36.287l-0.011,0.115h0.183l-0.034-0.115H38.264
					L38.264,36.287z"/>
				<path style="fill:#DDD690;stroke:#000000;stroke-width:0.0307;" d="M38.482,36.229v0.138h0.172l-0.034-0.138H38.482
					L38.482,36.229z"/>
				<path style="fill:#DDD690;stroke:#000000;stroke-width:0.0307;" d="M38.39,36.126l-0.114,0.137l-0.046-0.114l0.08-0.138
					L38.39,36.126L38.39,36.126L38.39,36.126z"/>
				<path style="fill:#DDD690;stroke:#000000;stroke-width:0.0307;" d="M38.493,36.023l-0.023,0.115h0.149v-0.115l-0.057-0.034
					L38.493,36.023z"/>
				<path style="fill:#DDD690;stroke:#000000;stroke-width:0.0307;" d="M38.31,35.886h-0.08l-0.011,0.092h0.137L38.31,35.886
					L38.31,35.886z"/>
				<path style="fill:#E2D67E;stroke:#000000;stroke-width:0.0307;" d="M38.47,35.851l-0.023,0.103h0.115v-0.103H38.47z"/>
				<path style="fill:#E2D67E;stroke:#000000;stroke-width:0.0307;" d="M38.436,35.645l-0.023,0.103h0.16l0.012-0.092L38.436,35.645
					z"/>
				<path style="fill:#E2D67E;stroke:#000000;stroke-width:0.0307;" d="M38.253,35.691L38.23,35.84l0.137-0.057v-0.08L38.253,35.691
					L38.253,35.691z"/>
				<path style="fill:#E2D67E;stroke:#000000;stroke-width:0.0307;" d="M38.241,35.485l-0.046,0.092l0.069,0.034l0.057-0.08
					l-0.023-0.069L38.241,35.485L38.241,35.485L38.241,35.485z"/>
				<path style="fill:#E2D67E;stroke:#000000;stroke-width:0.0307;" d="M38.43,35.407l-0.036,0.076l0.059,0.102l0.083-0.02
					l0.003-0.116l-0.093-0.046L38.43,35.407L38.43,35.407z"/>
				<path style="fill:#E2D67E;stroke:#000000;stroke-width:0.0307;" d="M38.236,35.292l-0.03,0.083l0.06,0.053
					c0,0,0.049-0.02,0.049-0.036c0-0.016,0.017-0.069,0.017-0.069l-0.066-0.04L38.236,35.292L38.236,35.292z"/>
				<path style="fill:#E2D67E;stroke:#000000;stroke-width:0.0307;" d="M38.394,35.249l-0.02,0.093l0.046,0.03l0.083,0.007
					c0,0,0.003-0.063,0.003-0.086c0-0.023-0.06-0.05-0.06-0.05L38.394,35.249L38.394,35.249z"/>
				<path style="fill:#E2D67E;stroke:#000000;stroke-width:0.0307;" d="M38.219,35.123l-0.007,0.093l0.069,0.017
					c0,0,0.036-0.036,0.036-0.049c0-0.013-0.033-0.073-0.033-0.073L38.219,35.123L38.219,35.123z"/>
				<path style="fill:#E2D67E;stroke:#000000;stroke-width:0.0307;" d="M38.374,35.097l-0.013,0.076c0,0,0.027,0.036,0.06,0.036
					c0.033,0,0.046-0.033,0.046-0.046c0-0.013-0.013-0.069-0.013-0.069L38.374,35.097L38.374,35.097z"/>
				<path style="fill:#E2D67E;stroke:#000000;stroke-width:0.0307;" d="M38.212,34.994l-0.023,0.076l0.066,0.03l0.05-0.066
					l-0.053-0.036L38.212,34.994L38.212,34.994z"/>
				<path style="fill:#E2D67E;stroke:#000000;stroke-width:0.0307;" d="M38.368,34.948l-0.01,0.069c0,0,0.046,0.033,0.063,0.023
					c0.017-0.01,0.036-0.053,0.036-0.053l-0.06-0.04H38.368L38.368,34.948z"/>
				<path style="fill:#E2D67E;stroke:#000000;stroke-width:0.0307;" d="M38.166,34.799l-0.016,0.086c0,0,0.049,0.046,0.063,0.04
					c0.013-0.007,0.083-0.027,0.083-0.027l-0.036-0.086c0,0-0.043-0.01-0.056-0.01C38.189,34.802,38.163,34.802,38.166,34.799z"/>
				<path style="fill:#E2D67E;stroke:#000000;stroke-width:0.0307;" d="M38.338,34.756l-0.02,0.083l0.112,0.02
					c0,0,0.017-0.093-0.006-0.093C38.401,34.766,38.345,34.76,38.338,34.756z"/>
				<path style="fill:#E2D67E;stroke:#000000;stroke-width:0.0307;" d="M38.176,34.644l-0.02,0.05l0.056,0.043l0.046-0.026
					l-0.03-0.063L38.176,34.644z"/>
				<path style="fill:#E2D67E;stroke:#000000;stroke-width:0.0307;" d="M38.345,34.611l-0.043,0.066l0.069,0.03l0.059-0.046
					L38.345,34.611L38.345,34.611z"/>
				<path style="fill:#E2D67E;stroke:#000000;stroke-width:0.0307;" d="M38.179,34.465l-0.03,0.05l0.033,0.053l0.053-0.043
					L38.179,34.465z"/>
				<path style="fill:#E2D67E;stroke:#000000;stroke-width:0.0307;" d="M38.298,34.432l-0.026,0.036l0.04,0.053l0.066-0.036
					l0.007-0.03l-0.03-0.036L38.298,34.432L38.298,34.432z"/>
				<path style="fill:#E2D67E;stroke:#000000;stroke-width:0.0307;" d="M38.163,34.33l-0.03,0.069l0.066,0.036l0.037-0.046
					l-0.023-0.053L38.163,34.33L38.163,34.33z"/>
				<path style="fill:#E2D67E;stroke:#000000;stroke-width:0.0307;" d="M38.288,34.264l-0.036,0.046l0.05,0.05l0.063-0.036
					l-0.043-0.053L38.288,34.264L38.288,34.264z"/>
				<path style="fill:#E2D67E;stroke:#000000;stroke-width:0.0307;" d="M38.163,34.214h-0.026v0.056l0.076-0.007l-0.013-0.056
					L38.163,34.214z"/>
				<path style="fill:#E2D67E;stroke:#000000;stroke-width:0.0307;" d="M38.265,34.148l-0.003,0.063l0.069-0.01l-0.003-0.056
					L38.265,34.148z"/>
				<path style="fill:#E2D67E;stroke:#000000;stroke-width:0.0307;" d="M38.146,34.099l-0.023,0.033l0.04,0.053l0.04-0.036
					c0,0,0.013-0.049,0-0.049H38.146z"/>
				<path style="fill:#E2D67E;stroke:#000000;stroke-width:0.0307;" d="M38.153,33.99l-0.03,0.026l0.036,0.036l0.046-0.023
					L38.153,33.99L38.153,33.99L38.153,33.99z"/>
				<path style="fill:#E2D67E;stroke:#000000;stroke-width:0.0307;" d="M38.163,33.907l-0.036,0.053h0.063L38.163,33.907z"/>
				<path style="fill:#E2D67E;stroke:#000000;stroke-width:0.0307;" d="M38.245,33.937l0.007,0.053h0.053L38.245,33.937z"/>
				<path style="fill:#E2D67E;stroke:#000000;stroke-width:0.0307;" d="M38.249,34.023c0,0-0.013,0.069,0,0.069
					c0.013,0,0.05-0.01,0.05-0.01L38.249,34.023z"/>
				<path style="fill:#D3C55F;stroke:#000000;stroke-width:0.0307;" d="M40.007,35.619l-0.073,0.099l0.007,0.103l0.096,0.089
					l0.089-0.126L40.007,35.619L40.007,35.619z"/>
				<path style="fill:#D3C75F;stroke:#000000;stroke-width:0.0307;" d="M40.136,35.477l-0.089,0.129l0.086,0.135l0.089-0.056
					c0,0,0.013-0.113-0.003-0.132C40.202,35.533,40.132,35.473,40.136,35.477z"/>
				<path style="fill:#E2D67E;stroke:#000000;stroke-width:0.0307;" d="M39.97,35.295c0,0-0.04,0.059-0.04,0.073
					c0,0.013,0.023,0.109,0.023,0.109l0.056,0.073c0,0,0.063-0.02,0.069-0.04c0.007-0.02,0.03-0.096,0.03-0.096l-0.076-0.099
					L39.97,35.295L39.97,35.295z"/>
				<path style="fill:#D3C95F;stroke:#000000;stroke-width:0.0307;" d="M39.832,35.437l-0.017,0.033c0,0-0.01,0.079,0.01,0.093
					c0.02,0.013,0.079,0.076,0.079,0.076s0.053-0.033,0.053-0.05c0-0.017-0.04-0.119-0.04-0.119l-0.046-0.046L39.832,35.437
					L39.832,35.437z"/>
				<path style="fill:#E2D67E;stroke:#000000;stroke-width:0.0307;" d="M39.696,35.209l-0.026,0.063l0.033,0.086l0.063,0.063
					c0,0,0.069-0.013,0.069-0.027v-0.093l-0.043-0.073l-0.073-0.033L39.696,35.209L39.696,35.209z"/>
				<path style="fill:#E2D67E;stroke:#000000;stroke-width:0.0307;" d="M39.845,35.149l-0.016,0.05c0,0,0.007,0.069,0.02,0.076
					c0.013,0.007,0.066,0.033,0.066,0.033l0.046-0.076l-0.046-0.096L39.845,35.149z"/>
				<path style="fill:#E2D67E;stroke:#000000;stroke-width:0.0307;" d="M39.772,34.991l-0.033,0.073l0.02,0.053l0.046,0.023
					c0,0,0.053-0.026,0.053-0.04v-0.069l-0.059-0.036L39.772,34.991L39.772,34.991z"/>
				<path style="fill:#E2D67E;stroke:#000000;stroke-width:0.0307;" d="M39.62,35.044L39.577,35.1l0.017,0.069l0.073,0.023
					l0.05-0.06l-0.04-0.079L39.62,35.044L39.62,35.044z"/>
				<path style="fill:#E2D67E;stroke:#000000;stroke-width:0.0307;" d="M39.564,34.895l-0.036,0.033v0.043l0.056,0.043l0.053-0.026
					l-0.013-0.06l-0.026-0.04L39.564,34.895z"/>
				<path style="fill:#E2D67E;stroke:#000000;stroke-width:0.0307;" d="M39.709,34.852l-0.023,0.053l0.033,0.069l0.053-0.03
					l-0.01-0.06L39.709,34.852L39.709,34.852L39.709,34.852z"/>
				<path style="fill:#E2D67E;stroke:#000000;stroke-width:0.0307;" d="M39.61,34.71l-0.013,0.119l0.082-0.013l0.02-0.063
					l-0.03-0.046L39.61,34.71L39.61,34.71L39.61,34.71z"/>
				<path style="fill:#E2D67E;stroke:#000000;stroke-width:0.0307;" d="M39.524,34.736c-0.013,0.003-0.059,0.007-0.059,0.007
					l0.013,0.119l0.053-0.006l0.02-0.043l-0.007-0.053L39.524,34.736z"/>
				<path style="fill:#E2D67E;stroke:#000000;stroke-width:0.0307;" d="M39.425,34.617l-0.04,0.05l0.04,0.066l0.036-0.007
					l0.023-0.049L39.425,34.617L39.425,34.617L39.425,34.617z"/>
				<path style="fill:#E2D67E;stroke:#000000;stroke-width:0.0307;" d="M39.554,34.584l-0.033,0.036l0.027,0.04l0.033,0.003
					l0.033-0.04l-0.03-0.036L39.554,34.584L39.554,34.584z"/>
				<path style="fill:#E2D67E;stroke:#000000;stroke-width:0.0307;" d="M39.343,34.499l-0.023,0.063l0.063,0.017l0.016-0.04
					l-0.02-0.036L39.343,34.499L39.343,34.499z"/>
				<path style="fill:#E2D67E;stroke:#000000;stroke-width:0.0307;" d="M39.452,34.465l-0.007,0.073l0.069-0.007l-0.007-0.059
					L39.452,34.465L39.452,34.465L39.452,34.465z"/>
				<path style="fill:#E2D67E;stroke:#000000;stroke-width:0.0307;" d="M39.263,34.383l0.003,0.063h0.069
					c0,0,0.023-0.073-0.007-0.069C39.3,34.38,39.27,34.386,39.263,34.383z"/>
				<path style="fill:#E2D67E;stroke:#000000;stroke-width:0.0307;" d="M39.396,34.353v0.063l0.073-0.01l-0.016-0.056L39.396,34.353
					z"/>
				<path style="fill:#E2D67E;stroke:#000000;stroke-width:0.0307;" d="M39.3,34.287h-0.073l0.01,0.063l0.066-0.007L39.3,34.287z"/>
				<path style="fill:#E2D67E;stroke:#000000;stroke-width:0.0307;" d="M39.346,34.244l-0.01,0.06l0.076-0.003v-0.056H39.346z"/>
				<path style="fill:#E2D67E;stroke:#000000;stroke-width:0.0307;" d="M39.273,34.148l-0.003,0.069c0,0,0.083,0.013,0.083,0
					c0-0.013-0.017-0.059-0.017-0.059L39.273,34.148L39.273,34.148z"/>
				<path style="fill:#E2D67E;stroke:#000000;stroke-width:0.0307;" d="M39.227,34.155h-0.066l0.007,0.076h0.079l0.01-0.053
					L39.227,34.155z"/>
				<path style="fill:#E2D67E;stroke:#000000;stroke-width:0.0307;" d="M39.072,33.93l-0.033,0.033l0.103,0.162h0.063l-0.059-0.083
					c0,0,0.01-0.04-0.007-0.046c-0.016-0.007-0.03-0.007-0.03-0.007L39.072,33.93z"/>
				<path style="fill:#E2D67E;stroke:#000000;stroke-width:0.0307;" d="M39.085,33.867l-0.023,0.03l0.122,0.083v0.069l0.056,0.053
					l0.046,0.013l-0.016-0.056l-0.023-0.063L39.2,33.96L39.168,33.9c0,0-0.017-0.003-0.03-0.007
					c-0.013-0.003-0.026-0.023-0.026-0.023L39.085,33.867L39.085,33.867z"/>
			</g>
			<g>
				<path style="stroke:#000000;stroke-width:0.0307;" d="M37.669,32.712l-0.012,0.538l0.034,0.172v0.298l0.011,0.458v0.309
					l-0.264-0.321l0.275,0.344l0.046,0.332l0.069,0.126l-0.046,0.172l0.011,0.286v0.813l-0.264-0.642l0.023,1.329l0.023-0.767
					l0.092-0.138l0.149,0.378l0.023,0.172l-0.034-0.642"/>
				<path style="fill:none;stroke:#000000;stroke-width:0.0307;" d="M36.592,32.666l-0.046,0.344l0.092,0.24l0.012,0.332
					l-0.012-0.367l-0.092-0.183L36.592,32.666z"/>
				<path style="fill:none;stroke:#000000;stroke-width:0.0307;" d="M36.924,32.873v0.435l0.08,0.103l-0.023,0.458l0.069,0.137
					v0.756"/>
				<path style="fill:none;stroke:#000000;stroke-width:0.0307;" d="M37.393,32.357l-0.092,0.172l0.034,0.309l0.023,0.218
					L37.325,33.4"/>
				<path style="fill:none;stroke:#000000;stroke-width:0.0307;" d="M39.479,33.193l-0.012,0.527l0.057,0.286l0.046,0.309"/>
				<path style="fill:none;stroke:#000000;stroke-width:0.0307;" d="M39.971,33.961l0.103,1.146"/>
				<path style="fill:none;stroke:#000000;stroke-width:0.0307;" d="M37.027,35.668l0.023,0.664l0.046,0.286l0.011,0.309"/>
			</g>
			<g>
				<path style="fill:#D38D5F;stroke:#000000;stroke-width:0.0307;" d="M40.475,36.894v-0.115l0.504-0.115l-0.08,0.057l0.011,0.344"
					/>
				<path style="fill:#D38D5F;stroke:#000000;stroke-width:0.0307;" d="M41.85,36.607v-0.149l0.504-0.092l-0.115,0.023l0.023,0.355"
					/>
				<path style="fill:#D38D5F;stroke:#000000;stroke-width:0.0307;" d="M40.762,37.719v-0.115l0.424-0.08l-0.012,0.424"/>
				<path style="fill:#D38D5F;stroke:#000000;stroke-width:0.0307;" d="M41.77,37.558v-0.183l0.458-0.08l0.023,0.401"/>
				<path style="fill:#D38D5F;stroke:#000000;stroke-width:0.0307;" d="M40.281,36.057v0.286l-0.103,0.023v-0.138L40.281,36.057z"/>
				<path style="fill:#D38D5F;stroke:#000000;stroke-width:0.0307;" d="M40.521,36.011l0.011,0.286h-0.08l-0.023-0.252
					L40.521,36.011z"/>
				<path style="fill:#D38D5F;stroke:#000000;stroke-width:0.0307;" d="M40.704,35.954L40.624,36v0.229l0.115-0.023L40.704,35.954z"
					/>
				<path style="fill:#D38D5F;stroke:#000000;stroke-width:0.0307;" d="M40.922,35.874l-0.08,0.069v0.206l0.126-0.011L40.922,35.874
					z"/>
				<path style="fill:#D38D5F;stroke:#000000;stroke-width:0.0307;" d="M41.174,35.817l-0.115,0.046v0.229l0.126-0.023
					L41.174,35.817z"/>
				<path style="fill:#D38D5F;stroke:#000000;stroke-width:0.0307;" d="M41.415,35.748l-0.103,0.012v0.286l0.126-0.023
					L41.415,35.748L41.415,35.748z"/>
				<path style="fill:#D38D5F;stroke:#000000;stroke-width:0.0307;" d="M41.724,35.691l-0.114,0.046l0.011,0.195l0.114-0.034
					L41.724,35.691z"/>
				<path style="fill:#D38D5F;stroke:#000000;stroke-width:0.0307;" d="M42.01,35.611l-0.114,0.057v0.195h0.103L42.01,35.611
					L42.01,35.611z"/>
				<path style="fill:#D38D5F;stroke:#000000;stroke-width:0.0307;" d="M42.239,35.542l-0.092,0.046v0.218h0.115L42.239,35.542
					L42.239,35.542z"/>
				<path style="fill:#D38D5F;stroke:#000000;stroke-width:0.0307;" d="M42.491,35.519L42.4,35.576v0.172h0.126L42.491,35.519
					L42.491,35.519z"/>
				<path style="fill:#D38D5F;stroke:#000000;stroke-width:0.0307;" d="M42.766,35.427l-0.103,0.046l0.012,0.172l0.103-0.023
					L42.766,35.427L42.766,35.427L42.766,35.427z"/>
				<path style="fill:#D38D5F;stroke:#000000;stroke-width:0.0307;" d="M43.064,35.359l-0.115,0.057v0.183l0.138-0.011
					L43.064,35.359z"/>
			</g>
			<g>
				<path style="fill:#FFFCFC;stroke:#000000;stroke-width:0.0615;" d="M40.361,38.463l1.776-0.401"/>
				<path style="fill:#C87137;stroke:#000000;stroke-width:0.0615;" d="M39.925,37.352l0.183,0.023l3.024-0.687"/>
				<path style="fill:#C87137;stroke:#000000;stroke-width:0.0584;" d="M40.097,36.573l0.47-0.069l2.612-0.687"/>
				<path style="fill:none;stroke:#000000;stroke-width:0.0799;" d="M43.293,35.714l0.447-0.08"/>
				<path style="fill:#FFFCFC;stroke:#000000;stroke-width:0.0891;" d="M43.293,36.653l0.985-0.263"/>
			</g>
		</g>
		<path style="fill:none;stroke:#000000;stroke-width:0.5532;" d="M31.996,23.406v17.077c0.202,2.445,5.298,3.984,8.851,6.581
			c4.66-3.125,9.179-3.758,9.361-7.262l0.057-16.396L31.996,23.406L31.996,23.406z"/>
	</g>
</g>
</svg>
