<?xml version="1.0" encoding="iso-8859-1"?>
<!-- Generator: Adobe Illustrator 18.1.1, SVG Export Plug-In . SVG Version: 6.00 Build 0)  -->
<svg version="1.1" id="Layer_179" xmlns="http://www.w3.org/2000/svg" xmlns:xlink="http://www.w3.org/1999/xlink" x="0px" y="0px"
	 viewBox="0 0 56.692 56.692" style="enable-background:new 0 0 56.692 56.692;" xml:space="preserve">
<g>
	<defs>
		<circle id="SVGID_1_" cx="28.346" cy="28.347" r="28.346"/>
	</defs>
	<clipPath id="SVGID_2_">
		<use xlink:href="#SVGID_1_"  style="overflow:visible;"/>
	</clipPath>
	<g style="clip-path:url(#SVGID_2_);">
		<rect x="-28.347" y="0" style="fill:#F7E017;" width="113.386" height="56.693"/>
		<path style="fill:#FFFFFF;" d="M-28.347,3.937v25.197L85.039,40.945V27.559L-28.347,3.937z"/>
		<path d="M-28.347,17.323v11.811L85.039,52.756V40.945L-28.347,17.323z"/>
		<g>
			<path style="fill:#CF1126;" d="M26.436,44.86c-1.524-0.202-2.922-0.687-3.893-1.352c-0.188-0.129-0.365-0.235-0.393-0.235
				c-0.028,0-0.051,0.143-0.051,0.32c0,0.502-0.202,0.754-0.709,0.886c-0.485,0.126-1.225-0.128-1.825-0.626
				c-0.621-0.516-1.339-0.909-1.946-1.067c-0.5-0.131-1.164-0.109-1.643,0.051c-0.223,0.075-0.476,0.18-0.565,0.235
				c-0.087,0.054-0.186,0.098-0.217,0.098c-0.085,0-0.073-0.539,0.016-0.712c0.117-0.226,0.406-0.449,0.743-0.572
				c0.17-0.062,0.309-0.142,0.309-0.177c0-0.035-0.057-0.165-0.128-0.287c-0.228-0.4-0.135-0.787,0.264-1.092
				c0.408-0.312,1.098-0.365,1.709-0.133c0.154,0.058,0.297,0.106,0.318,0.106c0.08,0,0.031-0.113-0.19-0.435
				c-0.255-0.373-0.306-0.557-0.274-1.002c0.041-0.562,0.499-1.022,1.061-1.063c0.458-0.033,0.743,0.121,1.42,0.765
				c2.02,1.926,4.216,2.987,6.777,3.275c0.646,0.072,1.947,0.034,2.71-0.081c2.305-0.347,4.627-1.506,6.44-3.214
				c0.502-0.473,0.744-0.598,1.156-0.6c0.358-0.002,0.609,0.114,0.866,0.398c0.234,0.26,0.313,0.506,0.288,0.901
				c-0.017,0.253-0.057,0.377-0.208,0.622c-0.222,0.361-0.184,0.394,0.255,0.224c0.594-0.231,1.325-0.124,1.72,0.25
				c0.347,0.33,0.38,0.66,0.11,1.107c-0.098,0.164-0.179,0.317-0.179,0.342c0,0.045,0.075,0.066,0.435,0.124
				c0.472,0.076,0.742,0.426,0.742,0.961c0,0.161-0.02,0.291-0.044,0.291c-0.024,0-0.202-0.065-0.397-0.146
				c-0.55-0.227-0.862-0.285-1.505-0.281c-0.489,0.003-0.657,0.026-0.998,0.137c-0.522,0.171-1.08,0.5-1.535,0.906
				c-0.502,0.447-0.817,0.588-1.306,0.584c-0.454-0.005-0.764-0.136-0.928-0.395c-0.087-0.139-0.1-0.223-0.079-0.536
				c0.014-0.204,0.011-0.371-0.006-0.371c-0.017,0-0.194,0.112-0.393,0.25c-0.523,0.359-0.856,0.537-1.454,0.774
				C31.086,44.814,28.452,45.127,26.436,44.86L26.436,44.86z"/>
			<path style="fill:#CF1126;" d="M27.271,41.352c-3.038-0.292-5.944-1.874-7.712-4.382c-1.919-2.617-2.524-6.072-1.938-9.231
				c0.311-1.438,0.939-2.878,2.011-3.902c-0.854,1.811-1.143,3.887-0.687,5.85c0.708,3.918,4.019,7.234,7.98,7.808
				c1.567,0.454,3.188-0.025,4.685-0.511c3.302-1.164,5.817-4.298,6.124-7.801c0.263-1.896-0.028-3.867-0.882-5.584
				c0.487,0.257,1.101,1.267,1.464,1.945c1.26,2.441,1.318,5.367,0.576,7.972c-1.006,3.315-3.541,6.219-6.891,7.274
				C30.479,41.285,28.863,41.436,27.271,41.352L27.271,41.352z"/>
			<g id="hand">
				<path style="fill:#CF1126;" d="M11.97,37c-0.199-0.031-0.419,0.165-0.344,0.37c0.144,0.207,0.391,0.309,0.614,0.408
					c0.535,0.214,1.116,0.298,1.691,0.284c-0.198,0,0.068,0.002,0.142,0c0.455,0.001,0.907-0.081,1.334-0.235
					c0.238-0.084,0.54-0.159,0.638-0.422c0.095-0.171-0.077-0.342-0.251-0.308c-0.242,0.053-0.468,0.163-0.708,0.225
					c-0.518,0.146-1.063,0.202-1.599,0.158c-0.392-0.048-0.772-0.173-1.135-0.326C12.227,37.098,12.109,37.017,11.97,37L11.97,37z"
					/>
				<path style="fill:#CF1126;" d="M12.191,36.183c-0.201-0.03-0.375,0.202-0.291,0.386c0.155,0.224,0.415,0.344,0.658,0.449
					c0.423,0.169,0.882,0.24,1.337,0.226c-0.173,0,0.059,0.002,0.123,0c0.386,0,0.771-0.076,1.128-0.223
					c0.218-0.085,0.486-0.167,0.577-0.408c0.071-0.132,0.017-0.324-0.15-0.334c-0.152-0.008-0.283,0.089-0.423,0.133
					c-0.511,0.211-1.073,0.301-1.623,0.253c-0.343-0.044-0.671-0.171-0.982-0.317C12.428,36.291,12.323,36.203,12.191,36.183
					L12.191,36.183z"/>
				<path style="fill:#CF1126;" d="M12.463,35.399c-0.173-0.021-0.291,0.174-0.262,0.329c0.026,0.136,0.148,0.228,0.25,0.312
					c0.42,0.307,0.951,0.438,1.467,0.42c-0.2-0.001,0.268,0.003,0.126-0.001c0.326-0.001,0.649-0.081,0.942-0.222
					c0.196-0.085,0.426-0.184,0.492-0.408c0.032-0.104,0.051-0.254-0.066-0.313c-0.123-0.069-0.245,0.037-0.357,0.08
					c-0.377,0.192-0.797,0.299-1.221,0.297c-0.366,0.012-0.711-0.142-1.029-0.308C12.688,35.528,12.593,35.426,12.463,35.399
					L12.463,35.399z"/>
				<path style="fill:#CF1126;" d="M9.569,23.835c-0.256,0.257-0.061,0.73-0.075,1.066c0.133,1.036,0.298,2.085,0.685,3.061
					c0.474,0.953,1.48,1.462,2.089,2.305c0.218,0.406,0.141,0.894,0.186,1.338c0.036,1.21,0.025,2.421,0.004,3.631
					c0.546,0.274,1.14,0.55,1.768,0.445c0.372-0.089,1.064-0.144,1.141-0.515c-0.03-2.087-0.05-4.174-0.077-6.26
					c-0.212-0.639-0.862-0.97-1.349-1.379c-0.402-0.396-0.775-0.822-1.117-1.268c-0.206-0.348-1.013-0.473-0.721,0.132
					c0.171,0.524,0.608,0.914,0.717,1.465c0.024,0.302,0.384,0.857,0.077,1.033c-0.196-0.332-0.479-0.615-0.841-0.784
					c-0.349-0.26-0.926-0.369-1.052-0.828c-0.092-0.652-0.426-1.243-0.857-1.731c0.111-0.586,0-1.318-0.506-1.692L9.569,23.835
					L9.569,23.835L9.569,23.835z"/>
				<path style="fill:#CF1126;" d="M10.349,23.952c-0.233,0.038-0.225,0.335-0.117,0.491c0.115,0.338,0.146,0.704,0.084,1.056
					c0.415,0.486,0.736,1.066,0.833,1.704c0.002,0.24,0.255,0.319,0.418,0.437c0.384,0.244,0.815,0.421,1.156,0.727
					c0.072,0.077,0.126,0.16,0.075,0.003c-0.053-0.2-0.081-0.422-0.238-0.574c-0.215-0.231-0.484-0.438-0.798-0.509
					c-0.026-0.324-0.18-0.622-0.323-0.908c-0.158-0.274-0.323-0.567-0.594-0.745c0.011-0.48,0.003-0.984-0.204-1.427
					C10.582,24.094,10.492,23.959,10.349,23.952L10.349,23.952z"/>
				<path style="fill:#CF1126;" d="M11.002,24.143c-0.163,0.048-0.131,0.249-0.08,0.371c0.078,0.34,0.09,0.691,0.084,1.038
					c0.299,0.236,0.485,0.579,0.655,0.912c0.107,0.223,0.208,0.453,0.248,0.698c0.242,0.08,0.454,0.232,0.643,0.4
					c-0.075-0.227-0.242-0.403-0.355-0.61c-0.122-0.216-0.239-0.44-0.291-0.684c-0.233-0.249-0.361-0.601-0.31-0.941
					c0.01-0.376-0.111-0.765-0.363-1.048C11.171,24.217,11.096,24.148,11.002,24.143L11.002,24.143z"/>
				<path style="fill:#CF1126;" d="M11.745,24.25c-0.088,0.016-0.142,0.1-0.189,0.168c-0.018,0.069,0.066,0.143,0.079,0.217
					c0.103,0.259,0.142,0.544,0.112,0.821c-0.007,0.197,0.064,0.389,0.164,0.556c0.029-0.123,0.143-0.212,0.267-0.224
					c0.045-0.008,0.111,0.015,0.085-0.054c-0.031-0.377-0.089-0.756-0.221-1.112c-0.051-0.127-0.109-0.261-0.219-0.348
					C11.8,24.259,11.773,24.246,11.745,24.25L11.745,24.25z"/>
			</g>
			<g transform="matrix(-1,0,0,1,1440,0)">
				<g id="hand_1_">
					<path style="fill:#CF1126;" d="M44.723,37c0.199-0.031,0.419,0.165,0.344,0.37c-0.144,0.207-0.391,0.309-0.614,0.408
						c-0.535,0.214-1.116,0.298-1.691,0.284c0.198,0-0.068,0.002-0.142,0c-0.455,0.001-0.907-0.081-1.334-0.235
						c-0.238-0.084-0.54-0.159-0.638-0.422c-0.095-0.171,0.077-0.342,0.251-0.308c0.242,0.053,0.468,0.163,0.708,0.225
						c0.518,0.146,1.063,0.202,1.599,0.158c0.392-0.048,0.772-0.173,1.135-0.326C44.465,37.098,44.583,37.017,44.723,37L44.723,37z"
						/>
					<path style="fill:#CF1126;" d="M44.501,36.183c0.201-0.03,0.375,0.202,0.291,0.386c-0.155,0.224-0.415,0.344-0.658,0.449
						c-0.423,0.169-0.882,0.24-1.337,0.226c0.173,0-0.059,0.002-0.123,0c-0.386,0-0.771-0.076-1.128-0.223
						c-0.218-0.085-0.486-0.167-0.577-0.408c-0.071-0.132-0.017-0.324,0.15-0.334c0.152-0.008,0.283,0.089,0.423,0.133
						c0.511,0.211,1.073,0.301,1.623,0.253c0.343-0.044,0.671-0.171,0.982-0.317C44.264,36.291,44.37,36.203,44.501,36.183
						L44.501,36.183z"/>
					<path style="fill:#CF1126;" d="M44.23,35.399c0.173-0.021,0.291,0.174,0.262,0.329c-0.026,0.136-0.148,0.228-0.25,0.312
						c-0.42,0.307-0.951,0.438-1.467,0.42c0.2-0.001-0.268,0.003-0.126-0.001c-0.326-0.001-0.649-0.081-0.942-0.222
						c-0.196-0.085-0.426-0.184-0.492-0.408c-0.032-0.104-0.051-0.254,0.066-0.313c0.123-0.069,0.245,0.037,0.357,0.08
						c0.377,0.192,0.797,0.299,1.221,0.297c0.366,0.012,0.711-0.142,1.029-0.308C44.005,35.528,44.1,35.426,44.23,35.399
						L44.23,35.399z"/>
					<path style="fill:#CF1126;" d="M47.123,23.835c0.256,0.257,0.061,0.73,0.075,1.066c-0.133,1.036-0.298,2.085-0.685,3.061
						c-0.474,0.953-1.48,1.462-2.089,2.305c-0.218,0.406-0.141,0.894-0.186,1.338c-0.036,1.21-0.025,2.421-0.004,3.631
						c-0.546,0.274-1.14,0.55-1.768,0.445c-0.372-0.089-1.064-0.144-1.141-0.515c0.03-2.087,0.05-4.174,0.077-6.26
						c0.212-0.639,0.862-0.97,1.349-1.379c0.402-0.396,0.775-0.822,1.117-1.268c0.206-0.348,1.013-0.473,0.721,0.132
						c-0.171,0.524-0.608,0.914-0.717,1.465c-0.024,0.302-0.384,0.857-0.077,1.033c0.196-0.332,0.479-0.615,0.841-0.784
						c0.349-0.26,0.926-0.369,1.052-0.828c0.092-0.652,0.426-1.243,0.857-1.731c-0.111-0.586,0-1.318,0.506-1.692L47.123,23.835
						L47.123,23.835L47.123,23.835z"/>
					<path style="fill:#CF1126;" d="M46.343,23.952c0.233,0.038,0.225,0.335,0.117,0.491c-0.115,0.338-0.146,0.704-0.084,1.056
						c-0.415,0.486-0.736,1.066-0.833,1.704c-0.002,0.24-0.255,0.319-0.418,0.437c-0.384,0.244-0.815,0.421-1.156,0.727
						c-0.072,0.077-0.126,0.16-0.075,0.003c0.053-0.2,0.081-0.422,0.238-0.574c0.215-0.231,0.484-0.438,0.798-0.509
						c0.026-0.324,0.18-0.622,0.323-0.908c0.158-0.274,0.323-0.567,0.594-0.745c-0.011-0.48-0.003-0.984,0.204-1.427
						C46.111,24.094,46.2,23.959,46.343,23.952L46.343,23.952z"/>
					<path style="fill:#CF1126;" d="M45.69,24.143c0.163,0.048,0.131,0.249,0.08,0.371c-0.078,0.34-0.09,0.691-0.084,1.038
						c-0.299,0.236-0.485,0.579-0.655,0.912c-0.107,0.223-0.208,0.453-0.248,0.698c-0.242,0.08-0.454,0.232-0.643,0.4
						c0.075-0.227,0.242-0.403,0.355-0.61c0.122-0.216,0.239-0.44,0.291-0.684c0.233-0.249,0.361-0.601,0.31-0.941
						c-0.01-0.376,0.111-0.765,0.363-1.048C45.521,24.217,45.597,24.148,45.69,24.143L45.69,24.143z"/>
					<path style="fill:#CF1126;" d="M44.948,24.25c0.088,0.016,0.142,0.1,0.189,0.168c0.018,0.069-0.066,0.143-0.079,0.217
						c-0.103,0.259-0.142,0.544-0.112,0.821c0.007,0.197-0.064,0.389-0.164,0.556c-0.029-0.123-0.143-0.212-0.267-0.224
						c-0.045-0.008-0.111,0.015-0.085-0.054c0.031-0.377,0.089-0.756,0.221-1.112c0.051-0.127,0.109-0.261,0.219-0.348
						C44.893,24.259,44.919,24.246,44.948,24.25L44.948,24.25z"/>
				</g>
			</g>
			<path style="fill:#CF1126;" d="M28.005,37.479c-1.062-0.101-2.021-0.876-2.349-1.89c0.018-0.175,0.235,0.098,0.338,0.116
				c0.193,0.107,0.402,0.195,0.624,0.209c0.28,0.12,0.453,0.396,0.721,0.54c0.124,0.097,0.563,0.287,0.482-0.021
				c-0.103-0.161-0.174-0.364-0.085-0.548c0.149-0.327,0.378-0.611,0.609-0.884c0.17-0.057,0.283,0.278,0.404,0.39
				c0.168,0.258,0.37,0.573,0.271,0.894c-0.096,0.119-0.159,0.476,0.098,0.356c0.317-0.139,0.576-0.373,0.839-0.592
				c0.23-0.161,0.524-0.172,0.765-0.313c0.112-0.028,0.344-0.252,0.393-0.128c-0.132,0.353-0.353,0.67-0.589,0.961
				c-0.383,0.437-0.9,0.766-1.479,0.858C28.703,37.492,28.352,37.505,28.005,37.479L28.005,37.479z"/>
			<path style="fill:#CF1126;" d="M29.254,36.238c0.023-0.213-0.025-0.431-0.134-0.625c-0.167-0.341-0.403-0.643-0.634-0.942
				c-0.217-0.127-0.338,0.288-0.482,0.407c-0.225,0.337-0.507,0.682-0.521,1.105c-0.127,0.197-0.363-0.161-0.464-0.278
				c-0.194-0.275-0.341-0.6-0.317-0.944c-0.023-0.554,0.083-1.106,0.285-1.621c0.152-0.44,0.4-0.867,0.375-1.347
				c0.018-0.361-0.056-0.76-0.349-1.004c-0.279-0.219,0.18-0.265,0.326-0.152c0.249,0.017,0.384,0.429,0.612,0.327
				c0.091-0.215,0.109-0.472,0.296-0.64c0.184-0.252,0.376,0.107,0.439,0.275c0.13,0.147-0.007,0.512,0.203,0.522
				c0.252-0.177,0.432-0.474,0.755-0.539c0.131-0.075,0.355-0.01,0.182,0.141c-0.239,0.224-0.443,0.504-0.487,0.837
				c-0.073,0.418,0.031,0.842,0.214,1.218c0.35,0.739,0.621,1.574,0.444,2.397c-0.082,0.366-0.331,0.681-0.632,0.893
				C29.327,36.292,29.267,36.29,29.254,36.238L29.254,36.238z"/>
			<path style="fill:#CF1126;" d="M28.876,30.68c-0.115-0.207-0.254-0.41-0.447-0.551c-0.187,0-0.303,0.236-0.431,0.36
				c-0.089,0.166-0.198,0.444-0.418,0.227c-0.35-0.204-0.412-0.652-0.41-1.02c-0.022-0.598,0.219-1.155,0.432-1.7
				c0.136-0.341,0.103-0.724,0.02-1.074c-0.104-0.401-0.426-0.679-0.674-0.992c0.017-0.121,0.333-0.055,0.453-0.032
				c0.264,0.067,0.423,0.301,0.62,0.467c0.14-0.042,0.083-0.326,0.148-0.459c0.005-0.188,0.255-0.435,0.358-0.166
				c0.154,0.171-0.005,0.509,0.194,0.615c0.19-0.07,0.284-0.278,0.462-0.372c0.176-0.12,0.423-0.133,0.612-0.039
				c0.067,0.174-0.208,0.319-0.287,0.471c-0.319,0.394-0.431,0.938-0.294,1.426c0.108,0.383,0.3,0.741,0.367,1.137
				c0.08,0.445,0.077,0.913-0.038,1.351c-0.069,0.266-0.299,0.444-0.537,0.555C28.947,30.828,28.916,30.748,28.876,30.68
				L28.876,30.68z"/>
			<path style="fill:#CF1126;" d="M27.686,25.739c-0.265-0.194-0.352-0.379-0.352-0.745c0-0.187,0.035-0.289,0.158-0.459
				c0.182-0.252,0.149-0.331-0.109-0.257c-0.414,0.119-0.612,0.01-0.626-0.343c-0.006-0.172,0.03-0.246,0.262-0.524
				c0.186-0.224,0.254-0.341,0.217-0.378c-0.036-0.036-0.256,0.154-0.707,0.613c-0.36,0.366-0.765,0.74-0.899,0.831
				c-0.775,0.523-1.515,0.604-1.853,0.202c-0.173-0.206-0.164-0.321,0.036-0.446c0.092-0.057,0.247-0.187,0.346-0.291
				c0.232-0.242,0.924-0.741,1.268-0.914c0.279-0.141,0.345-0.236,0.164-0.236c-0.235,0-0.987,0.49-1.558,1.014
				c-0.168,0.155-0.409,0.328-0.536,0.383c-0.285,0.126-0.845,0.172-1.094,0.091c-0.176-0.058-0.496-0.361-0.496-0.469
				c0-0.028,0.073-0.091,0.162-0.139c0.089-0.047,0.249-0.163,0.354-0.255c0.457-0.401,1.322-0.813,2.009-0.957
				c0.218-0.046,0.138-0.156-0.106-0.145c-0.472,0.02-1.408,0.459-1.967,0.92c-0.655,0.54-1.643,0.489-1.961-0.102
				c-0.055-0.102-0.087-0.197-0.072-0.212c0.015-0.015,0.209-0.073,0.432-0.13c0.241-0.061,0.718-0.258,1.174-0.486
				c0.717-0.357,0.93-0.434,1.424-0.513c0.222-0.035,0.234-0.144,0.018-0.169c-0.278-0.033-0.704,0.106-1.457,0.476
				c-0.967,0.476-1.238,0.557-1.747,0.528c-0.465-0.028-0.727-0.147-1.104-0.504c-0.246-0.234-0.596-0.828-0.528-0.896
				c0.017-0.017,0.13,0,0.252,0.035c0.135,0.04,0.524,0.067,0.991,0.068c0.654,0.002,0.828-0.016,1.177-0.117
				c0.583-0.169,1.359-0.563,1.89-0.959c1.015-0.759,1.843-1.064,2.898-1.069c0.974-0.004,1.594,0.221,2.143,0.778
				c0.186,0.188,0.344,0.31,0.37,0.284c0.024-0.024,0.051-0.354,0.059-0.731c0,0,0.287-0.028,0.347,0.053
				c0,0.613,0.007,0.661,0.096,0.661c0.058,0,0.12-0.06,0.159-0.153c0.083-0.201,0.392-0.476,0.722-0.643
				c0.713-0.361,1.946-0.372,2.936-0.027c0.417,0.146,0.88,0.408,1.321,0.748c0.443,0.34,1.347,0.795,1.882,0.947
				c0.541,0.154,1.494,0.192,1.983,0.081c0.202-0.046,0.391-0.083,0.42-0.083c0.18,0-0.127,0.601-0.487,0.953
				c-0.659,0.644-1.517,0.641-2.723-0.009c-0.752-0.405-1.651-0.626-1.651-0.406c0,0.046,0.047,0.076,0.117,0.076
				c0.261,0,0.766,0.176,1.47,0.509c0.761,0.362,1.189,0.515,1.443,0.515c0.184,0,0.19,0.114,0.018,0.366
				c-0.182,0.269-0.491,0.402-0.927,0.401c-0.417-0.002-0.648-0.093-1.02-0.402c-0.623-0.518-2.175-1.096-2.115-0.787
				c0.012,0.061,0.087,0.099,0.246,0.124c0.54,0.083,1.174,0.385,1.823,0.871c0.2,0.15,0.408,0.298,0.461,0.33
				c0.089,0.052,0.091,0.068,0.02,0.199c-0.117,0.217-0.41,0.386-0.728,0.419c-0.412,0.043-0.77-0.08-1.141-0.391
				c-0.783-0.655-1.52-1.129-1.757-1.129c-0.193,0-0.106,0.106,0.234,0.287c0.447,0.237,0.907,0.557,1.246,0.869
				c0.16,0.148,0.34,0.294,0.4,0.327c0.142,0.076,0.136,0.187-0.02,0.391c-0.159,0.208-0.422,0.299-0.763,0.263
				c-0.68-0.072-1.211-0.4-2.045-1.265c-0.326-0.338-0.617-0.614-0.646-0.614c-0.111,0-0.046,0.15,0.169,0.391
				c0.266,0.298,0.317,0.465,0.217,0.707c-0.089,0.214-0.237,0.264-0.541,0.182c-0.311-0.084-0.36-0.008-0.156,0.246
				c0.304,0.379,0.259,0.843-0.113,1.161c-0.116,0.098-0.237,0.18-0.27,0.18c-0.032,0-0.114-0.084-0.183-0.187
				c-0.239-0.364-0.45-0.361-0.683,0.006c-0.081,0.128-0.15,0.232-0.152,0.231C27.925,25.914,27.815,25.835,27.686,25.739
				L27.686,25.739z"/>
			<path style="fill:#CF1126;" d="M28.871,18.349l-0.404,0.32l-0.362-0.273v2.184l0.766,0.009V18.349z"/>
			<path style="fill:#CF1126;" d="M26.369,16.083c-0.08,1.032-0.343,1.753-0.707,2.547l0.874-0.81l0.608,0.722l0.658-0.735
				l0.672,0.62l0.646-0.646l0.671,0.785l0.583-0.646l0.987,0.709c-0.358-0.794-0.843-1.468-0.783-2.586
				C29.621,16.755,27.348,16.883,26.369,16.083L26.369,16.083z"/>
			<path style="fill:#CF1126;" d="M28.106,15.556c-0.351,0.006-0.721,0.011-1.054,0.076c-0.231,0.046-0.44,0.12-0.615,0.244
				c0.028,0.672,3.228,0.952,4.087,0.013c-0.18-0.131-0.401-0.209-0.643-0.257c-0.32-0.062-0.675-0.069-1.011-0.074
				c0,0.184,0.002,0.369,0.002,0.554l-0.765-0.002V15.556L28.106,15.556z"/>
			<path style="fill:#CF1126;" d="M28.732,12.124l-0.497,0.004v3.888l0.507,0.002L28.732,12.124z"/>
			<path style="fill:#CF1126;" d="M28.731,12.224l-0.19,1.861l1.915,0.935l-0.969-1.296l1.324-0.429L28.731,12.224z"/>
			<path style="fill:#CF1126;" d="M28.518,11.739c-0.291,0-0.506,0.109-0.506,0.238c0,0.129,0.215,0.239,0.506,0.239
				c0.291,0,0.504-0.109,0.504-0.239C29.022,11.847,28.808,11.739,28.518,11.739z"/>
		</g>
		<g>
			<path style="fill:#F7E017;" d="M27.641,44.395c0.314-0.104,0.493-0.294,0.621-0.661c0.064-0.183,0.107-0.372,0.096-0.422
				c-0.027-0.117-0.162-0.111-0.312,0.013c-0.102,0.086-0.115,0.129-0.086,0.304c0.075,0.441-0.082,0.55-0.917,0.64
				c-0.083,0.009-0.322-0.006-0.533-0.031c-0.397-0.05-0.539-0.01-0.394,0.109c0.043,0.036,0.154,0.085,0.245,0.108
				C26.585,44.513,27.403,44.474,27.641,44.395L27.641,44.395z"/>
			<path style="fill:#F7E017;" d="M29.371,44.322c0.047-0.043,0.209-0.118,0.361-0.167c0.202-0.065,0.306-0.134,0.391-0.261
				c0.245-0.365,0.199-0.679-0.161-1.102c-0.195-0.23-0.282-0.224-0.438,0.031c-0.135,0.22-0.131,0.235,0.062,0.285
				c0.102,0.026,0.199,0.101,0.253,0.193c0.211,0.365,0.149,0.591-0.164,0.594c-0.283,0.002-0.361,0.043-0.438,0.226
				c-0.04,0.095-0.072,0.197-0.072,0.226C29.165,44.424,29.272,44.411,29.371,44.322L29.371,44.322z"/>
			<path style="fill:#F7E017;" d="M28.804,43.909c0.054-0.145,0.072-0.406,0.066-0.937c-0.004-0.405-0.02-0.748-0.035-0.764
				c-0.047-0.047-0.28,0.103-0.311,0.2c-0.016,0.05,0.01,0.167,0.057,0.258c0.072,0.141,0.082,0.272,0.06,0.824
				C28.612,44.189,28.658,44.306,28.804,43.909L28.804,43.909z"/>
			<path style="fill:#F7E017;" d="M27.471,43.577c0.028-0.13,0.065-0.396,0.081-0.591c0.017-0.194,0.057-0.44,0.088-0.546
				c0.08-0.272-0.001-0.344-0.216-0.191l-0.16,0.114l0.033,0.391c0.031,0.353-0.025,1.01-0.106,1.265
				c-0.022,0.068,0.009,0.05,0.098-0.054C27.362,43.883,27.444,43.707,27.471,43.577z"/>
			<path style="fill:#F7E017;" d="M26.289,43.767c0.288-0.241,0.254-0.651,0.318-0.986c-0.007-0.222,0.142-0.489,0.046-0.684
				c-0.269,0.049-0.434,0.304-0.297,0.557c0.011,0.294,0.001,0.615-0.15,0.875c-0.124,0.17-0.515,0.128-0.497-0.113
				c0.098-0.363-0.336-0.186-0.506-0.091c-0.131,0.091-0.408,0.098-0.312-0.13c-0.064-0.304-0.455-0.114-0.668-0.115
				c-0.201-0.004-0.017-0.407-0.305-0.336c-0.536-0.042-1.127,0.005-1.591-0.319c-0.272-0.131-0.231-0.457-0.09-0.668
				c0.169-0.289,0.217-0.65,0.485-0.873c0.265-0.254-0.25-0.147-0.366-0.061c-0.258,0.141-0.018,0.506-0.23,0.708
				c-0.124,0.21-0.286,0.499-0.572,0.459c-0.413-0.078-0.65-0.462-0.946-0.719c-0.253-0.051-0.111,0.411,0.02,0.508
				c0.259,0.194,0.561,0.335,0.873,0.419c0.311-0.05,0.321,0.357,0.586,0.421c0.487,0.227,1.03,0.295,1.562,0.323
				c0.209,0.017,0.091,0.389,0.366,0.316c0.153,0.04,0.5-0.057,0.517,0.121c-0.232,0.276,0.223,0.27,0.392,0.22
				c0.216-0.033,0.492-0.115,0.549,0.181c0.18,0.19,0.511,0.162,0.731,0.053C26.234,43.812,26.263,43.791,26.289,43.767
				L26.289,43.767z"/>
			<path style="fill:#F7E017;" d="M21.584,41.383c0.087-0.111,0.218-0.335,0.291-0.499c0.072-0.165,0.18-0.351,0.239-0.415
				c0.139-0.15,0.061-0.242-0.162-0.192c-0.118,0.026-0.166,0.069-0.186,0.172c-0.067,0.334-0.188,0.676-0.296,0.835
				c-0.195,0.288-0.2,0.3-0.12,0.3C21.391,41.583,21.497,41.494,21.584,41.383L21.584,41.383z"/>
			<path style="fill:#F7E017;" d="M18.634,39.535c-0.22,0-0.23,0.139-0.015,0.214c0.104,0.036,0.192,0.124,0.263,0.266
				c0.209,0.417,0.332,0.491,0.888,0.539l0.357,0.032l0.017,0.217c0.009,0.12,0.037,0.219,0.065,0.219
				c0.028,0,0.165-0.06,0.305-0.131c0.261-0.132,0.509-0.441,0.509-0.632c0-0.125-0.209-0.261-0.398-0.261
				c-0.084,0-0.245,0.068-0.372,0.16c-0.397,0.287-0.821,0.229-1.054-0.145C19.009,39.704,18.81,39.535,18.634,39.535L18.634,39.535
				z M20.56,40.302c0.106,0,0.131,0.078,0.074,0.227c-0.039,0.102-0.168,0.106-0.206,0.005
				C20.382,40.415,20.446,40.302,20.56,40.302L20.56,40.302z"/>
			<path style="fill:#F7E017;" d="M35.499,39.818c-0.144,0.006-0.187,0.037-0.278,0.172c-0.15,0.222-0.165,0.703-0.027,0.873
				c0.086,0.106,0.098,0.108,0.28,0.032c0.254-0.106,0.296-0.102,0.295,0.034c-0.002,0.348-0.501,1.019-1.024,1.376
				c-0.141,0.096-0.267,0.203-0.28,0.239c-0.038,0.099,0.156,0.077,0.394-0.044c0.324-0.165,0.75-0.6,0.925-0.943
				c0.139-0.273,0.158-0.366,0.175-0.844c0.015-0.44,0.003-0.569-0.072-0.716c-0.083-0.165-0.11-0.18-0.32-0.18
				C35.543,39.818,35.52,39.817,35.499,39.818L35.499,39.818z M35.516,40.125c0.109,0,0.128,0.024,0.14,0.18
				c0.011,0.129-0.012,0.208-0.083,0.272c-0.098,0.088-0.106,0.087-0.192-0.044C35.26,40.348,35.334,40.125,35.516,40.125
				L35.516,40.125z"/>
			<path style="fill:#F7E017;" d="M33.126,43.486c0.461-0.227,0.732-0.482,0.907-0.851c0.083-0.176,0.15-0.341,0.15-0.369
				c0-0.064-0.227-0.169-0.363-0.169c-0.135,0-0.163-0.094-0.105-0.353c0.057-0.253-0.012-0.569-0.123-0.569
				c-0.04,0-0.111,0.059-0.158,0.131c-0.072,0.111-0.076,0.158-0.023,0.32c0.079,0.239,0.017,0.418-0.198,0.571
				c-0.102,0.072-0.157,0.156-0.157,0.237c0,0.069,0.009,0.124,0.019,0.124c0.011,0,0.123-0.058,0.249-0.128l0.23-0.128l0.135,0.106
				c0.074,0.058,0.135,0.154,0.135,0.212c0,0.28-0.799,0.751-1.348,0.795c-0.292,0.024-0.342,0.013-0.443-0.087
				c-0.083-0.083-0.106-0.152-0.086-0.25c0.016-0.075,0.044-0.211,0.063-0.302c0.05-0.244-0.054-0.211-0.235,0.074
				c-0.149,0.235-0.193,0.487-0.109,0.619c0.069,0.108,0.524,0.211,0.846,0.191C32.714,43.646,32.914,43.59,33.126,43.486
				L33.126,43.486z"/>
			<path style="fill:#F7E017;" d="M36.2,41.771c0.29-0.289,0.413-0.641,0.414-1.185l0.001-0.409l0.239-0.113
				c0.311-0.148,0.606-0.443,0.606-0.606c0-0.169-0.075-0.16-0.21,0.024c-0.098,0.133-0.23,0.213-0.711,0.435
				c-0.121,0.056-0.129,0.086-0.157,0.594c-0.032,0.587-0.112,0.806-0.439,1.207c-0.201,0.244-0.208,0.276-0.069,0.276
				C35.931,41.994,36.078,41.894,36.2,41.771z"/>
			<path style="fill:#F7E017;" d="M33.044,41.443c0.028-0.084-0.132-0.144-0.202-0.076c-0.029,0.029-0.037,0.08-0.017,0.112
				C32.871,41.553,33.015,41.528,33.044,41.443L33.044,41.443z"/>
			<path style="fill:#F7E017;" d="M37.396,40.317c0.028-0.084-0.132-0.144-0.201-0.076c-0.03,0.03-0.038,0.08-0.018,0.113
				C37.223,40.427,37.367,40.402,37.396,40.317L37.396,40.317z"/>
			<path style="fill:#F7E017;" d="M32.158,37.266c-0.113,0.054-0.171,0.175-0.249,0.268c-0.056,0.038-0.011,0.074,0.021,0.11
				c0.199,0.214,0.283,0.503,0.377,0.772c0.093,0.318,0.209,0.66,0.112,0.991c-0.038,0.127-0.138,0.258-0.287,0.216
				c-0.239-0.015-0.473-0.078-0.713-0.076c-0.213,0.011-0.378,0.205-0.595,0.184c-0.139,0.009-0.133-0.285-0.263-0.206
				c-0.064,0.153-0.032,0.324-0.04,0.487c0.024,0.023,0.092,0.003,0.132,0.01h0.429c0.03,0.148,0.027,0.318,0.133,0.436
				c0.149,0.053,0.316,0.007,0.458-0.051c0.152-0.071,0.172-0.253,0.215-0.395c0.046-0.153,0.245-0.113,0.363-0.173
				c0.289-0.084,0.478-0.384,0.461-0.679c-0.019-0.451-0.191-0.874-0.321-1.301c-0.066-0.188-0.111-0.384-0.187-0.567
				C32.195,37.276,32.177,37.263,32.158,37.266L32.158,37.266z M31.444,39.843c0.16-0.01,0.23,0.187,0.196,0.317
				c-0.06,0.178-0.278,0.064-0.323-0.064C31.236,39.981,31.286,39.827,31.444,39.843L31.444,39.843z"/>
			<path style="fill:#F7E017;" d="M25.507,38.364c-0.072-0.002-0.152,0.025-0.231,0.081c-0.418,0.293-0.525,0.639-0.241,0.775
				c0.209,0.1,0.156,0.217-0.172,0.382c-0.47,0.235-0.885,0.206-1.673-0.12c-0.194-0.08-0.244-0.05-0.199,0.128
				c0.043,0.174,0.202,0.269,0.598,0.359c0.425,0.098,0.939,0.066,1.27-0.076c0.161-0.069,0.353-0.215,0.514-0.391l0.256-0.281
				l0.298,0.037c0.367,0.045,0.374,0.049,0.374,0.224c0,0.139,0.008,0.143,0.345,0.174c0.19,0.018,0.439,0.035,0.556,0.035
				c0.149,0.001,0.233,0.027,0.283,0.096c0.066,0.092,0.106,0.097,0.66,0.047c0.518-0.047,0.62-0.043,0.854,0.036
				c0.166,0.057,0.349,0.08,0.487,0.065c0.397-0.045,0.944-0.369,1.024-0.608c0.009-0.029,0.154-0.08,0.32-0.113
				c0.401-0.08,0.418-0.168,0.044-0.214c-0.162-0.02-0.406-0.08-0.541-0.133c-0.136-0.054-0.322-0.098-0.413-0.098
				c-0.202,0-0.391,0.126-0.391,0.256c0,0.085,0.03,0.094,0.269,0.069c0.224-0.023,0.29-0.01,0.408,0.083
				c0.078,0.061,0.13,0.134,0.113,0.16c-0.053,0.086-0.521,0.299-0.728,0.332c-0.139,0.022-0.25,0.007-0.359-0.049
				c-0.182-0.094-0.45-0.109-0.5-0.028c-0.021,0.035-0.079,0.013-0.157-0.061l-0.123-0.116l-0.278,0.116
				c-0.283,0.117-0.387,0.113-0.387-0.022c0-0.061-0.083-0.069-0.499-0.042c-0.459,0.03-0.507,0.022-0.593-0.074
				c-0.08-0.088-0.081-0.119-0.024-0.209c0.052-0.083,0.052-0.12,0.002-0.169c-0.05-0.05-0.114-0.049-0.295,0
				c-0.457,0.122-0.586,0.054-0.586-0.303C25.787,38.496,25.664,38.366,25.507,38.364L25.507,38.364z M25.393,38.691
				c0.024,0,0.045,0.015,0.076,0.046c0.04,0.04,0.061,0.11,0.044,0.155c-0.041,0.106-0.235,0.102-0.276-0.005
				c-0.02-0.052,0.006-0.11,0.064-0.153C25.343,38.706,25.369,38.691,25.393,38.691L25.393,38.691z"/>
			<path style="fill:#F7E017;" d="M24.574,39.024c0.278-0.176,0.272-0.163,0.312-0.653c0.028-0.346,0.023-0.372-0.071-0.372
				c-0.136,0-0.207,0.15-0.207,0.435c0,0.183-0.028,0.265-0.126,0.361c-0.231,0.231-0.806,0.126-0.879-0.161
				c-0.024-0.098,0.007-0.187,0.128-0.358c0.251-0.357,0.194-0.444-0.113-0.173c-0.212,0.185-0.25,0.191-0.209,0.031
				c0.037-0.147-0.04-0.206-0.213-0.162c-0.088,0.022-0.136,0.077-0.157,0.184c-0.02,0.105-0.069,0.163-0.152,0.183
				c-0.139,0.035-0.377-0.097-0.377-0.209c0-0.083,0.356-0.518,0.813-0.992c0.172-0.18,0.313-0.346,0.313-0.372
				c0-0.025-0.092-0.046-0.205-0.046c-0.165,0-0.205,0.018-0.205,0.094c0,0.052-0.23,0.354-0.512,0.671
				c-0.587,0.661-0.636,0.799-0.346,0.976c0.234,0.143,0.534,0.132,0.769-0.028l0.191-0.13v0.235c0,0.301,0.06,0.409,0.296,0.534
				C23.921,39.229,24.28,39.21,24.574,39.024L24.574,39.024z"/>
			<path style="fill:#F7E017;" d="M36.902,34.936c-0.218,0.13-0.047,0.403-0.014,0.585c-0.089,0.248-0.407,0.314-0.639,0.36
				c-0.329,0.054-0.561,0.329-0.687,0.621c-0.068,0.19-0.231,0.484-0.409,0.195c-0.155-0.157-0.44-0.281-0.623-0.098
				c-0.139,0.132-0.174,0.327-0.226,0.504c-0.082-0.136-0.119-0.338-0.293-0.381c-0.278,0.039-0.177,0.389-0.047,0.534
				c0.119,0.168,0.233,0.39,0.116,0.59c-0.103,0.24-0.457,0.402-0.666,0.197c-0.195-0.103-0.064-0.47-0.256-0.49
				c-0.095,0.068-0.103,0.452-0.254,0.244c-0.11-0.178-0.051-0.421-0.185-0.581c-0.158,0.02-0.286,0.292-0.233,0.439
				c0.211,0.285,0.298,0.642,0.38,0.982c0.051,0.136-0.007,0.412,0.12,0.465c0.088-0.219,0.006-0.467,0.076-0.688
				c0.206-0.026,0.435,0.068,0.652,0.018c0.309-0.04,0.548-0.301,0.657-0.579c0.033-0.209-0.006-0.421-0.012-0.631
				c0.244,0.038,0.498,0.037,0.733,0.116c0.117,0.179-0.037,0.429-0.069,0.624c-0.123,0.398-0.434,0.687-0.737,0.953
				c-0.127,0.075-0.144,0.274,0.043,0.167c0.407-0.174,0.711-0.543,0.886-0.942c0.127-0.307,0.025-0.649,0.108-0.964
				c0.123-0.236,0.419-0.186,0.638-0.185c0.227-0.009,0.42-0.273,0.344-0.493c-0.072-0.256,0.198-0.379,0.383-0.47
				c0.245-0.124,0.433-0.375,0.414-0.658C37.091,35.224,37.098,34.95,36.902,34.936L36.902,34.936z M36.033,36.413
				c0.262,0.07-0.048,0.571-0.187,0.253C35.804,36.545,35.906,36.408,36.033,36.413z M34.815,36.772
				c0.342-0.02,0.219,0.479-0.07,0.252C34.596,36.949,34.646,36.762,34.815,36.772z"/>
			<path style="fill:#F7E017;" d="M22.449,38.699c0.009-0.05-0.016-0.085-0.061-0.085c-0.095,0-0.153,0.083-0.108,0.156
				C22.326,38.845,22.429,38.802,22.449,38.699L22.449,38.699z"/>
			<path style="fill:#F7E017;" d="M26.452,38.252c0-0.073-0.028-0.101-0.089-0.089c-0.134,0.025-0.149,0.195-0.017,0.195
				C26.419,38.358,26.452,38.325,26.452,38.252z"/>
			<path style="fill:#F7E017;" d="M21.498,35.849c-0.16-0.033-0.26,0.102-0.315,0.231c-0.119,0.201-0.265,0.406-0.48,0.513
				c-0.154,0.043-0.322-0.016-0.455-0.095c-0.159-0.079-0.123-0.27-0.191-0.402c-0.115-0.09-0.318,0.039-0.314,0.179
				c-0.013,0.188,0.163,0.296,0.309,0.369c0.124,0.076,0.304,0.118,0.353,0.272c-0.003,0.131,0.049,0.28,0.208,0.23
				c0.178-0.003,0.224,0.214,0.152,0.344c-0.073,0.147-0.123,0.318-0.088,0.482c0.085,0.072,0.172-0.12,0.233-0.175
				c0.042-0.056,0.084-0.112,0.126-0.167c0.315,0.017,0.629,0.057,0.945,0.046c0.224-0.004,0.416-0.143,0.558-0.305
				c0.202-0.211,0.368-0.459,0.598-0.641c0.164-0.04,0.076-0.349-0.095-0.26c-0.154,0.058-0.203,0.232-0.31,0.344
				c-0.182,0.221-0.368,0.445-0.598,0.618c-0.167,0.069-0.36,0.039-0.532,0c-0.072-0.063,0.142-0.114,0.172-0.183
				c0.099-0.098,0.216-0.192,0.273-0.321c-0.055-0.119-0.222-0.129-0.34-0.131c-0.29,0.035-0.512,0.278-0.805,0.301
				c-0.222,0.008-0.107-0.233-0.006-0.315c0.196-0.233,0.408-0.452,0.613-0.678c0.058-0.07,0.268-0.136,0.134-0.235
				C21.598,35.85,21.547,35.85,21.498,35.849L21.498,35.849z M21.641,37.027c0.146,0.082-0.093,0.217-0.194,0.199
				c-0.132,0.04-0.135-0.095-0.017-0.122C21.495,37.069,21.565,37.033,21.641,37.027L21.641,37.027z M21.191,37.335
				c0.083-0.002,0.258,0.078,0.094,0.13C21.17,37.553,21.041,37.375,21.191,37.335z"/>
			<path style="fill:#F7E017;" d="M24.736,37.539c0-0.111-0.199-0.095-0.221,0.017c-0.014,0.072,0.009,0.09,0.102,0.076
				C24.682,37.623,24.736,37.581,24.736,37.539z"/>
			<path style="fill:#F7E017;" d="M33.559,36.757c0.02-0.106-0.128-0.177-0.206-0.099s-0.006,0.226,0.099,0.206
				C33.501,36.854,33.549,36.806,33.559,36.757L33.559,36.757z"/>
			<path style="fill:#F7E017;" d="M19.828,35.676c0.139-0.119,0.14-0.127,0.08-0.388c-0.085-0.366-0.08-0.406,0.06-0.44
				c0.176-0.045,0.624,0.195,0.724,0.387c0.077,0.149,0.075,0.159-0.056,0.28c-0.141,0.13-0.14,0.282,0.001,0.282
				c0.117,0,0.439-0.305,0.439-0.414c0-0.152-0.357-0.511-0.64-0.643c-0.175-0.082-0.35-0.12-0.552-0.12
				c-0.362,0-0.411,0.078-0.313,0.499c0.115,0.494-0.041,0.561-0.439,0.188c-0.295-0.276-0.412-0.564-0.41-1.017
				c0.001-0.486,0.187-0.726,0.606-0.783c0.278-0.037,0.271-0.102-0.015-0.145c-0.417-0.063-0.77,0.216-0.904,0.713
				c-0.149,0.552,0.192,1.224,0.795,1.571C19.519,35.829,19.645,35.835,19.828,35.676z"/>
			<path style="fill:#F7E017;" d="M36.272,35.071c0.034-0.034,0.061-0.11,0.061-0.169s0.057-0.186,0.128-0.281
				c0.071-0.095,0.128-0.193,0.128-0.217c0-0.097-0.16-0.094-0.286,0.006c-0.129,0.101-0.226,0.103-0.226,0.005
				c0-0.024,0.061-0.075,0.137-0.112c0.187-0.091,0.203-0.182,0.045-0.254c-0.203-0.092-0.407,0.076-0.428,0.354
				c-0.013,0.186,0.002,0.218,0.145,0.302c0.131,0.077,0.155,0.118,0.133,0.228C36.071,35.125,36.151,35.192,36.272,35.071
				L36.272,35.071z"/>
			<path style="fill:#F7E017;" d="M37.818,34.896c0.113-0.102,0.206-0.217,0.206-0.256s0.098-0.141,0.217-0.227
				c0.339-0.244,0.414-0.491,0.262-0.869c-0.059-0.149-0.245-0.354-0.649-0.718c-0.31-0.28-0.596-0.509-0.633-0.509
				c-0.11,0-0.091,0.406,0.021,0.441c0.202,0.065,0.324,0.147,0.641,0.433c0.369,0.333,0.539,0.644,0.446,0.817
				c-0.089,0.168-0.207,0.116-0.532-0.233c-0.171-0.183-0.34-0.333-0.375-0.333c-0.038,0.001-0.065,0.067-0.065,0.16
				c0,0.117,0.062,0.228,0.231,0.415c0.275,0.306,0.302,0.489,0.095,0.651c-0.074,0.058-0.15,0.106-0.169,0.106
				c-0.018,0-0.079-0.091-0.134-0.202c-0.115-0.233-0.818-0.976-0.924-0.976c-0.048,0-0.072,0.06-0.072,0.178
				c0,0.143,0.028,0.193,0.142,0.251c0.139,0.072,0.484,0.42,0.831,0.839c0.099,0.12,0.197,0.217,0.218,0.217
				C37.596,35.081,37.705,34.998,37.818,34.896L37.818,34.896z"/>
			<path style="fill:#F7E017;" d="M38.508,32.922c-0.046-0.147-0.989-1.118-1.086-1.118c-0.05,0-0.066,0.06-0.054,0.214
				c0.013,0.187,0.034,0.22,0.163,0.254c0.08,0.021,0.329,0.217,0.552,0.433c0.222,0.217,0.417,0.381,0.433,0.365
				C38.531,33.054,38.528,32.987,38.508,32.922L38.508,32.922z"/>
			<path style="fill:#F7E017;" d="M32.874,43.85c0,0.071-0.063,0.129-0.14,0.129s-0.14-0.058-0.14-0.129
				c0-0.071,0.063-0.129,0.14-0.129S32.874,43.779,32.874,43.85z"/>
			<path style="fill:#F7E017;" d="M33.369,43.684c0,0.071-0.063,0.129-0.14,0.129c-0.077,0-0.14-0.058-0.14-0.129
				c0-0.071,0.063-0.129,0.14-0.129C33.306,43.556,33.369,43.613,33.369,43.684z"/>
		</g>
	</g>
</g>
</svg>
