<?xml version="1.0" encoding="iso-8859-1"?>
<!-- Generator: Adobe Illustrator 18.1.1, SVG Export Plug-In . SVG Version: 6.00 Build 0)  -->
<svg version="1.1" id="Layer_94" xmlns="http://www.w3.org/2000/svg" xmlns:xlink="http://www.w3.org/1999/xlink" x="0px" y="0px"
	 viewBox="0 0 56.692 56.692" style="enable-background:new 0 0 56.692 56.692;" xml:space="preserve">
<g>
	<defs>
		<circle id="SVGID_1_" cx="28.346" cy="28.347" r="28.347"/>
	</defs>
	<clipPath id="SVGID_2_">
		<use xlink:href="#SVGID_1_"  style="overflow:visible;"/>
	</clipPath>
	<rect x="-14.174" y="0" style="clip-path:url(#SVGID_2_);fill:#009B3A;" width="85.04" height="56.693"/>
	<polygon style="clip-path:url(#SVGID_2_);fill:#FEDF00;" points="-5.256,28.306 28.416,6.798 61.948,28.306 28.416,49.894 	"/>
	<g style="clip-path:url(#SVGID_2_);">
		<circle style="fill:none;stroke:#00ADEE;stroke-width:0.0278;" cx="28.346" cy="28.345" r="14.174"/>
		<circle style="fill:#002776;" cx="28.346" cy="28.345" r="14.174"/>
		<g>
			<polygon style="fill:#FFFFFF;" points="16.799,25.203 16.924,25.589 17.33,25.587 17,25.826 17.127,26.212 16.799,25.972 
				16.471,26.212 16.598,25.826 16.268,25.587 16.676,25.589 			"/>
			<polygon style="fill:#FFFFFF;" points="28.387,34.099 28.512,34.488 28.918,34.486 28.588,34.724 28.715,35.111 28.387,34.872 
				28.059,35.111 28.186,34.724 27.856,34.486 28.262,34.488 			"/>
			<polygon style="fill:#FFFFFF;" points="22.713,35.248 22.838,35.634 23.244,35.632 22.914,35.872 23.041,36.257 22.713,36.017 
				22.385,36.257 22.512,35.872 22.182,35.632 22.588,35.634 			"/>
			<polygon style="fill:#FFFFFF;" points="20.615,34.15 20.699,34.408 20.969,34.406 20.75,34.564 20.834,34.822 20.615,34.663 
				20.399,34.822 20.483,34.564 20.264,34.406 20.533,34.408 			"/>
			<polygon style="fill:#FFFFFF;" points="26.981,31.437 27.065,31.695 27.334,31.695 27.115,31.851 27.199,32.109 26.981,31.949 
				26.764,32.109 26.848,31.851 26.629,31.695 26.899,31.695 			"/>
			<polygon style="fill:#FFFFFF;" points="32.289,27.216 32.373,27.474 32.643,27.474 32.424,27.63 32.506,27.888 32.289,27.728 
				32.071,27.888 32.156,27.63 31.936,27.474 32.207,27.474 			"/>
			<polygon style="fill:#FFFFFF;" points="27.701,32.543 27.754,32.706 27.922,32.703 27.785,32.8 27.836,32.962 27.701,32.863 
				27.565,32.962 27.619,32.8 27.481,32.703 27.651,32.706 			"/>
			<polygon style="fill:#FFFFFF;" points="19.434,30.578 19.487,30.74 19.655,30.738 19.518,30.835 19.569,30.998 19.434,30.898 
				19.297,30.998 19.352,30.835 19.213,30.738 19.383,30.74 			"/>
			<polygon style="fill:#FFFFFF;" points="28.346,39.187 28.387,39.314 28.52,39.314 28.412,39.39 28.453,39.517 28.346,39.439 
				28.238,39.517 28.281,39.39 28.172,39.314 28.305,39.314 			"/>
			<polygon style="fill:#FFFFFF;" points="40.303,33.056 40.387,33.314 40.656,33.314 40.438,33.47 40.52,33.728 40.303,33.568 
				40.084,33.728 40.17,33.47 39.949,33.314 40.221,33.314 			"/>
			<polygon style="fill:#FFFFFF;" points="35.465,35.751 35.549,36.009 35.819,36.009 35.6,36.166 35.682,36.423 35.465,36.263 
				35.246,36.423 35.332,36.166 35.112,36.009 35.383,36.009 			"/>
			<polygon style="fill:#FFFFFF;" points="36.883,36.087 36.967,36.345 37.237,36.345 37.018,36.501 37.102,36.759 36.883,36.599 
				36.666,36.759 36.75,36.501 36.531,36.345 36.801,36.345 			"/>
			<polygon style="fill:#FFFFFF;" points="33.856,36.257 33.94,36.515 34.209,36.515 33.99,36.671 34.074,36.929 33.856,36.769 
				33.639,36.929 33.723,36.671 33.504,36.515 33.774,36.515 			"/>
			<polygon style="fill:#FFFFFF;" points="31.537,35.921 31.621,36.179 31.891,36.179 31.672,36.335 31.754,36.593 31.537,36.433 
				31.319,36.593 31.405,36.335 31.184,36.179 31.455,36.179 			"/>
			<polygon style="fill:#FFFFFF;" points="35.465,38.515 35.549,38.773 35.819,38.773 35.6,38.929 35.682,39.187 35.465,39.027 
				35.246,39.187 35.332,38.929 35.112,38.773 35.383,38.773 			"/>
			<polygon style="fill:#FFFFFF;" points="18.076,31.097 18.201,31.484 18.608,31.482 18.278,31.72 18.405,32.107 18.076,31.867 
				17.748,32.107 17.875,31.72 17.545,31.482 17.951,31.484 			"/>
			<polygon style="fill:#FFFFFF;" points="38.321,32.753 38.446,33.14 38.852,33.138 38.522,33.376 38.649,33.763 38.321,33.523 
				37.992,33.763 38.119,33.376 37.789,33.138 38.197,33.14 			"/>
			<polygon style="fill:#FFFFFF;" points="32.801,23.304 32.926,23.691 33.332,23.689 33.002,23.927 33.129,24.314 32.801,24.074 
				32.473,24.314 32.6,23.927 32.27,23.689 32.678,23.691 			"/>
			<polygon style="fill:#FFFFFF;" points="38.039,35.181 38.149,35.521 38.504,35.519 38.217,35.728 38.326,36.066 38.039,35.855 
				37.752,36.066 37.863,35.728 37.574,35.519 37.932,35.521 			"/>
			<polygon style="fill:#FFFFFF;" points="38.852,34.043 38.961,34.382 39.317,34.38 39.03,34.589 39.139,34.927 38.852,34.716 
				38.565,34.927 38.676,34.589 38.387,34.38 38.744,34.382 			"/>
			<polygon style="fill:#FFFFFF;" points="35.465,36.986 35.574,37.326 35.93,37.324 35.643,37.533 35.752,37.872 35.465,37.663 
				35.178,37.872 35.289,37.533 35,37.324 35.358,37.326 			"/>
			<polygon style="fill:#FFFFFF;" points="32.643,37.343 32.752,37.683 33.108,37.681 32.819,37.89 32.93,38.228 32.643,38.017 
				32.356,38.228 32.467,37.89 32.178,37.681 32.533,37.683 			"/>
			<polygon style="fill:#FFFFFF;" points="23.018,28.347 23.127,28.687 23.483,28.685 23.194,28.894 23.305,29.232 23.018,29.021 
				22.731,29.232 22.842,28.894 22.553,28.685 22.908,28.687 			"/>
			<polygon style="fill:#FFFFFF;" points="30,31.331 30.11,31.669 30.465,31.668 30.178,31.876 30.287,32.214 30,32.005 
				29.713,32.214 29.824,31.876 29.535,31.668 29.893,31.669 			"/>
			<polygon style="fill:#FFFFFF;" points="28.387,30.111 28.496,30.451 28.852,30.449 28.563,30.658 28.674,30.997 28.387,30.788 
				28.1,30.997 28.211,30.658 27.922,30.449 28.278,30.451 			"/>
			<polygon style="fill:#FFFFFF;" points="20.969,32.611 21.078,32.951 21.434,32.949 21.147,33.158 21.256,33.497 20.969,33.288 
				20.682,33.497 20.793,33.158 20.504,32.949 20.862,32.951 			"/>
			<polygon style="fill:#FFFFFF;" points="16.268,32.507 16.377,32.847 16.733,32.845 16.446,33.054 16.555,33.392 16.268,33.181 
				15.981,33.392 16.092,33.054 15.803,32.845 16.16,32.847 			"/>
		</g>
		<path style="fill:#FFFFFF;" d="M15.387,22.622c-0.309,0.694-0.553,1.421-0.746,2.169c1.822-0.318,3.693-0.494,5.605-0.494
			c8.314,0,15.893,3.135,21.629,8.284c0.226-0.728,0.381-1.483,0.49-2.255c-5.982-5.024-13.695-8.053-22.119-8.053
			C18.596,22.273,16.975,22.396,15.387,22.622z"/>
		<g>
			<path style="fill:#009B3A;" d="M16.094,22.865c-0.334,0.039-0.566,0.373-0.522,0.742c0.045,0.371,0.352,0.637,0.686,0.596
				c0.332-0.039,0.566-0.372,0.519-0.742C16.733,23.089,16.426,22.824,16.094,22.865z M16.227,23.956
				c-0.195,0.022-0.377-0.146-0.406-0.378c-0.027-0.232,0.107-0.441,0.303-0.465c0.195-0.024,0.377,0.144,0.406,0.377
				C16.559,23.722,16.422,23.931,16.227,23.956z M18.051,22.679l-0.768,0.055l0.074,1.348l0.25-0.018l-0.035-0.5l0.52-0.037
				c0.142,0.131,0.17,0.359,0.18,0.49l0.23-0.016c-0.012-0.152-0.039-0.443-0.191-0.549c0.123-0.08,0.205-0.221,0.193-0.379
				C18.488,22.839,18.285,22.664,18.051,22.679z M18.074,23.277l-0.519,0.037l-0.024-0.346l0.52-0.037
				c0.096-0.006,0.178,0.066,0.184,0.162C18.242,23.189,18.17,23.271,18.074,23.277z M19.68,22.615l-0.635,0.012l0.023,1.35
				l0.637-0.012c0.318-0.006,0.572-0.27,0.566-0.588l-0.002-0.193C20.264,22.863,20,22.609,19.68,22.615z M19.68,23.714
				l-0.365,0.006l-0.016-0.848l0.367-0.008c0.201-0.004,0.369,0.158,0.373,0.361l0.002,0.115
				C20.043,23.543,19.883,23.71,19.68,23.714z M21.022,23.716l0.983,0.033l-0.008,0.252l-1.215-0.043l0.047-1.35l1.156,0.041
				l-0.008,0.25l-0.926-0.031l-0.008,0.27l0.77,0.027l-0.008,0.23l-0.772-0.027L21.022,23.716z M23.487,22.763l0.336,0.029
				l-0.117,1.344l-0.23-0.02l0.08-0.922l-0.35,0.898l-0.211-0.017l-0.189-0.947l-0.08,0.924l-0.23-0.021l0.117-1.344l0.336,0.029
				l0.189,0.945L23.487,22.763z M25.496,23.15l0.975,0.166l-0.039,0.228l-0.746-0.127l-0.035,0.209l0.627,0.108l-0.039,0.226
				l-0.627-0.107l-0.053,0.305l0.77,0.133l-0.039,0.227l-0.998-0.17L25.496,23.15z M28.957,23.742l-0.746-0.193l-0.357,1.301
				l0.244,0.065l0.125-0.486l0.524,0.135c0.226,0.06,0.457-0.076,0.516-0.305C29.321,24.031,29.184,23.8,28.957,23.742z
				 M28.789,24.316l-0.504-0.131l0.088-0.336l0.504,0.131c0.092,0.023,0.149,0.117,0.123,0.211
				C28.977,24.283,28.883,24.339,28.789,24.316z M30.67,24.242l-0.734-0.23l-0.426,1.281l0.24,0.074l0.15-0.478l0.496,0.158
				c0.086,0.172,0.027,0.396-0.012,0.521l0.221,0.068c0.045-0.146,0.127-0.426,0.021-0.58c0.145-0.031,0.271-0.131,0.32-0.281
				C31.018,24.55,30.895,24.312,30.67,24.242z M30.473,24.806l-0.498-0.156l0.105-0.33l0.496,0.156
				c0.092,0.027,0.143,0.125,0.113,0.217C30.66,24.785,30.565,24.835,30.473,24.806z M32.184,24.769
				c-0.314-0.119-0.676,0.07-0.807,0.418c-0.131,0.35,0.02,0.729,0.332,0.846c0.315,0.117,0.676-0.07,0.807-0.42
				C32.647,25.263,32.496,24.886,32.184,24.769z M32.281,25.525c-0.082,0.222-0.299,0.342-0.484,0.273
				c-0.184-0.07-0.267-0.302-0.186-0.523c0.082-0.219,0.299-0.342,0.484-0.271C32.28,25.072,32.363,25.306,32.281,25.525z
				 M35.619,26.273l-0.691-0.344l-0.619,1.199l0.225,0.111l0.223-0.449l0.467,0.232c0.059,0.186-0.035,0.396-0.094,0.514
				l0.207,0.104c0.068-0.139,0.191-0.402,0.113-0.57c0.148-0.008,0.289-0.086,0.359-0.229
				C35.914,26.632,35.828,26.376,35.619,26.273z M35.567,26.72c-0.043,0.086-0.146,0.121-0.233,0.078l-0.465-0.232l0.154-0.311
				l0.465,0.232C35.574,26.531,35.61,26.634,35.567,26.72z M36.58,27.062l-0.135,0.234l0.672,0.379l-0.113,0.203l-0.672-0.381
				l-0.17,0.303l0.855,0.484l-0.123,0.217l-1.059-0.598l0.666-1.174l1.006,0.568l-0.123,0.219L36.58,27.062z M38.807,28.591
				l-0.248-0.158c0.078-0.123-0.008-0.24-0.137-0.322c-0.127-0.08-0.229-0.117-0.305,0c-0.125,0.19,0.711,0.545,0.455,0.947
				c-0.189,0.297-0.52,0.168-0.738,0.027c-0.188-0.119-0.467-0.4-0.285-0.684l0.258,0.162c-0.072,0.115,0,0.242,0.162,0.346
				c0.164,0.104,0.274,0.1,0.32,0.025c0.148-0.229-0.705-0.568-0.441-0.973c0.227-0.348,0.613-0.076,0.76,0.016
				C38.754,28.072,38.99,28.312,38.807,28.591z M40.252,29.601l-0.24-0.172c0.084-0.117,0.006-0.238-0.119-0.328
				c-0.123-0.086-0.223-0.129-0.305-0.016c-0.135,0.182,0.682,0.582,0.404,0.971c-0.203,0.285-0.525,0.139-0.738-0.012
				c-0.18-0.129-0.443-0.423-0.248-0.699l0.248,0.178c-0.078,0.109-0.012,0.24,0.145,0.352c0.158,0.111,0.269,0.115,0.318,0.043
				c0.16-0.223-0.674-0.605-0.391-0.994c0.244-0.336,0.619-0.045,0.76,0.055C40.227,29.081,40.449,29.334,40.252,29.601z
				 M41.463,30.019c-0.262-0.209-0.662-0.141-0.895,0.15c-0.232,0.291-0.207,0.697,0.055,0.906c0.264,0.209,0.664,0.141,0.896-0.15
				C41.752,30.634,41.727,30.228,41.463,30.019z M41.322,30.769c-0.145,0.184-0.389,0.232-0.543,0.109
				c-0.154-0.121-0.16-0.369-0.016-0.553c0.146-0.184,0.391-0.233,0.545-0.111C41.463,30.337,41.469,30.585,41.322,30.769z
				 M33.24,25.914c-0.094,0.215-0.021,0.453,0.158,0.531c0.127,0.055,0.271,0.014,0.379-0.088l-0.197-0.086l0.076-0.178l0.238,0.105
				c0-0.002,0-0.002,0-0.002l0.053,0.023l0.178,0.078l-0.27,0.619l-0.176-0.078l0.08-0.184c-0.146,0.068-0.309,0.086-0.461,0.02
				c-0.307-0.135-0.436-0.52-0.287-0.861c0.148-0.342,0.518-0.512,0.826-0.377c0.238,0.104,0.365,0.361,0.34,0.633l-0.25-0.109
				c-0.014-0.13-0.078-0.244-0.191-0.295C33.557,25.587,33.334,25.699,33.24,25.914z"/>
		</g>
	</g>
</g>
</svg>
