<?xml version="1.0" encoding="iso-8859-1"?>
<!-- Generator: Adobe Illustrator 18.1.1, SVG Export Plug-In . SVG Version: 6.00 Build 0)  -->
<svg version="1.1" id="Layer_179" xmlns="http://www.w3.org/2000/svg" xmlns:xlink="http://www.w3.org/1999/xlink" x="0px" y="0px"
	 viewBox="0 0 56.692 56.692" style="enable-background:new 0 0 56.692 56.692;" xml:space="preserve">
<g>
	<defs>
		<circle id="SVGID_1_" cx="28.346" cy="28.347" r="28.346"/>
	</defs>
	<clipPath id="SVGID_2_">
		<use xlink:href="#SVGID_1_"  style="overflow:visible;"/>
	</clipPath>
	<g style="clip-path:url(#SVGID_2_);">
		<rect x="-14.174" y="0" style="fill:#FFD520;" width="85.04" height="56.693"/>
		<path style="fill:#FF4E12;" d="M-14.174,56.693h85.04V0L-14.174,56.693z"/>
		<g>
			<g>
				<path style="fill:#FFFFFF;stroke:#000000;stroke-width:0.0351;" d="M30.445,20.99c-0.336-0.119-0.553,0.054-0.542,0.488
					c0.011,0.434,0.238,0.683,0.574,0.52L30.445,20.99L30.445,20.99z"/>
				<path style="fill:#FFFFFF;stroke:#000000;stroke-width:0.0351;" d="M30.74,20.178c-0.28-0.221-0.541-0.126-0.67,0.288
					c-0.129,0.414,0.006,0.723,0.377,0.677L30.74,20.178L30.74,20.178z"/>
				<path style="fill:#FFFFFF;stroke:#000000;stroke-width:0.0351;" d="M31.206,19.393c-0.241-0.263-0.514-0.211-0.708,0.177
					c-0.194,0.388-0.109,0.715,0.264,0.729L31.206,19.393L31.206,19.393z"/>
				<path style="fill:#FFFFFF;stroke:#000000;stroke-width:0.0351;" d="M30.9,23.212c-0.412,0.152-0.455,0.715-0.195,1.062
					c0.26,0.347,0.737,0.412,0.997,0L30.9,23.212L30.9,23.212z"/>
				<path style="fill:#FFFFFF;stroke:#000000;stroke-width:0.0351;" d="M30.423,22.02c-0.39-0.13-0.742,0.394-0.802,0.867
					c-0.076,0.596-0.921,0.791-0.455,1.691c0.097-0.574,0.477-0.889,0.78-0.91c0.304-0.022,0.759-0.087,0.954-0.455L30.423,22.02
					L30.423,22.02z"/>
				<path style="fill:#FFFFFF;stroke:#000000;stroke-width:0.0351;" d="M31.659,24.34c-0.455,0.108-0.52,0.715-0.195,1.149
					c0.278,0.371,1.149,0.282,1.127-0.087L31.659,24.34L31.659,24.34z"/>
				<path style="fill:#FFFFFF;stroke:#000000;stroke-width:0.0351;" d="M32.949,27.992c0.022-0.39-0.607-0.542-0.91-0.466
					c-0.304,0.076-0.883-0.011-1.019-0.336c-0.108,0.26,0.049,0.542,0.488,0.683c0.332,0.107,0.325,0.347,0.228,0.455
					C31.984,28.372,32.721,28.372,32.949,27.992L32.949,27.992z"/>
				<path style="fill:#FFFFFF;stroke:#000000;stroke-width:0.0351;" d="M32.591,25.5c-0.444-0.195-0.708,0.102-0.878,0.39
					c-0.249,0.423-1.019-0.119-1.279,0.444c0.352-0.152,0.711,0.172,0.878,0.282c0.477,0.314,1.398,0.217,1.528-0.52L32.591,25.5
					L32.591,25.5z"/>
				<path style="fill:#FFFFFF;stroke:#000000;stroke-width:0.0351;" d="M32.851,26.019c-0.444,0.336-0.618,0.737-0.607,1.008
					c0.011,0.271,0.39,0.867,0.802,0.9C33.285,27.439,33.404,26.41,32.851,26.019L32.851,26.019z"/>
				<path style="fill:#FFFFFF;stroke:#000000;stroke-width:0.0351;" d="M31.009,28.112c0-0.163,0.238-0.228,0.401-0.173
					c0.163,0.054,0.412,0.217,0.325,0.39L31.009,28.112L31.009,28.112z"/>
				<path style="fill:#FFFFFF;stroke:#000000;stroke-width:0.0351;" d="M28.559,27.223c-0.043-0.195,0.271-0.531,0.694-0.347
					c0.423,0.184,0.477,0.542,0.303,0.683L28.559,27.223L28.559,27.223z"/>
				<path style="fill:#FFFFFF;stroke:#000000;stroke-width:0.0351;" d="M29.588,27.58c-0.033-0.108,0.272-0.325,0.791-0.195
					c0.52,0.13,0.648,0.465,0.629,0.726L29.588,27.58L29.588,27.58z"/>
				<path style="fill:#FFFFFF;stroke:#000000;stroke-width:0.0351;" d="M28.505,27.223c0.271-0.206,0.168-0.596-0.076-0.715
					c-0.444-0.217-0.282-0.78-0.564-0.889c-0.282-0.108-0.553-0.304-0.564-0.499c-0.141,0.271-0.054,0.52,0.141,0.694
					c0.195,0.173-0.152,0.878,0.097,1.062L28.505,27.223L28.505,27.223z"/>
				<path style="fill:#FFFFFF;stroke:#000000;stroke-width:0.0351;" d="M22.695,27.071c-0.228-0.358-0.77-0.293-0.997-0.043
					c-0.228,0.249-0.195,0.618,0.022,0.78L22.695,27.071L22.695,27.071z"/>
				<path style="fill:#FFFFFF;stroke:#000000;stroke-width:0.0351;" d="M23.996,26.54c-0.087-0.477-0.661-0.531-0.976-0.412
					c-0.314,0.119-0.531,0.596-0.325,0.943L23.996,26.54L23.996,26.54z"/>
				<path style="fill:#FFFFFF;stroke:#000000;stroke-width:0.0351;" d="M24.863,26.475c0.206-0.401-0.195-0.997-0.65-1.084
					c-0.38-0.072-0.829-0.07-0.976-0.444c-0.092,0.325,0.152,0.531,0.434,0.715c0.282,0.184-0.054,0.661,0.401,0.932L24.863,26.475
					L24.863,26.475z"/>
				<path style="fill:#FFFFFF;stroke:#000000;stroke-width:0.0351;" d="M24.82,26.489c-0.095-0.287,0.098-0.67,0.487-0.643
					c0.389,0.027,0.611,0.31,0.44,0.664L24.82,26.489L24.82,26.489z"/>
				<path style="fill:#FFFFFF;stroke:#000000;stroke-width:0.0351;" d="M25.686,26.51c-0.054-0.298,0.191-0.649,0.572-0.568
					s0.562,0.393,0.342,0.719L25.686,26.51L25.686,26.51z"/>
				<path style="fill:#FFFFFF;stroke:#000000;stroke-width:0.0351;" d="M26.548,26.647c-0.039-0.3,0.223-0.639,0.6-0.539
					c0.377,0.1,0.541,0.42,0.306,0.735L26.548,26.647L26.548,26.647z"/>
				<path style="fill:#FFFFFF;stroke:#000000;stroke-width:0.0351;" d="M20.007,31.613c-0.726,0-0.904,0.173-1.008,0.921
					C18.869,33.466,20.137,33.575,20.007,31.613z"/>
				<path style="fill:#FFFFFF;stroke:#000000;stroke-width:0.0351;" d="M20.332,30.637c-1.116-0.423-1.723,1.344-2.829,1.03
					c0.396,0.629,1.355,0.001,1.713,0.065C19.823,31.84,21.134,31.613,20.332,30.637L20.332,30.637z"/>
				<path style="fill:#FFFFFF;stroke:#000000;stroke-width:0.0351;" d="M19.606,33.054c-0.553-0.249-1.149,0.596-1.041,0.965
					C18.703,34.487,19.963,34.106,19.606,33.054z"/>
				<path style="fill:#FFFFFF;stroke:#000000;stroke-width:0.0351;" d="M17.026,36.696c0.304,0.086,0.672,0.26,0.607,0.845
					c-0.065,0.585-1.171,1.778-2.168,1.843c-0.997,0.065-1.355,1.268-2.211,0.932c0.802-0.151,0.802-1.062,1.431-1.344
					c-0.455-0.163-0.694,0.867-1.279,0.867c-0.585,0-0.867,0.932-1.583,0.867c-0.715-0.065-0.791,1.135-2.222,1.149
					c-1.095,0.011-2.45,1.29-2.937,0.737c1.062-0.152,1.491-0.74,2.124-1.388c1.019-1.04,2.168-0.574,2.558-1.496
					c-0.466,0.314-1.008,0.466-1.539,0.455c-0.667-0.014-1.398,1.062-2.146,0.585c0.434-0.054,0.715-0.238,1.171-0.715
					c0.466-0.488,1.15-0.173,1.691-0.672c0.845-0.781,1.572-0.13,2.385-1.106c-0.228-0.108-0.715-0.033-1.171,0.206
					c-0.455,0.238-1.041-0.163-1.561,0.119c0.065-0.639,1.279-0.274,2.038-0.715c0.856-0.499,1.566-0.352,2.244-0.293
					c-0.943-0.005-1.312-0.9-2.612-0.64c-0.567,0.114-1.019-0.78-1.583-0.325c0.016-0.336,0.607-0.607,1.214-0.282
					c0.607,0.325,0.852-0.285,2.059,0.477c0.499,0.314,1.355-0.195,1.897,0.141c-0.07-0.206-0.379-0.336-0.742-0.309
					C14.918,36.171,16.387,36.23,17.026,36.696L17.026,36.696z"/>
				<path style="fill:#FFFFFF;stroke:#000000;stroke-width:0.0351;" d="M17.991,35.991c-0.477-0.369-1.138,0.076-1.593-0.098
					c0,0.303,0.152,0.759,0.65,0.932C17.2,36.718,17.883,36.122,17.991,35.991L17.991,35.991z"/>
				<path style="fill:#FFFFFF;stroke:#000000;stroke-width:0.0351;" d="M18.739,34.94c-0.748-0.379-0.878,0.564-1.463,0.369
					c0.022,0.271,0.238,0.607,0.715,0.683L18.739,34.94L18.739,34.94z"/>
				<path style="fill:#FFFFFF;stroke:#000000;stroke-width:0.0351;" d="M19.183,34.084c-1.106-0.434-1.247,0.629-1.897,0.423
					c0.152,0.369,1.084,0.564,1.561,0.434L19.183,34.084L19.183,34.084z"/>
				<path style="fill:#FFFFFF;stroke:#000000;stroke-width:0.0351;" d="M20.7,29.434c-0.293-0.412-0.91-0.076-1.008,0.412
					c-0.098,0.488,0.141,1.171,0.553,1.019L20.7,29.434L20.7,29.434z"/>
				<path style="fill:#FFFFFF;stroke:#000000;stroke-width:0.0351;" d="M21.448,28.133c-0.509-0.119-1.095-0.065-1.03,0.434
					c-0.195,0.087-0.249,0.726,0.282,0.867L21.448,28.133L21.448,28.133z"/>
				<path style="fill:#FFFFFF;stroke:#000000;stroke-width:0.0351;" d="M21.784,27.797c-0.499-0.585-1.055-0.572-1.366-0.325
					c-0.574,0.455-1.133,0.195-1.149,0.65c0.347-0.266,0.65,0.054,0.932-0.043c0.282-0.098,0.488,0.444,1.268,0.217L21.784,27.797
					L21.784,27.797z"/>
				<path style="fill:#FFFFFF;stroke:#000000;stroke-width:0.0351;" d="M20.581,36.545c0.076,0.141,0.542,0.206,0.77-0.033
					c0.302-0.316-0.033-1.192-0.509-1.257C20.364,35.19,20.321,36.241,20.581,36.545L20.581,36.545z"/>
				<path style="fill:#FFFFFF;stroke:#000000;stroke-width:0.0351;" d="M20.039,36.567c0.683,0.249,0.976-0.315,0.607-0.672
					C20.549,36.014,20.191,36.447,20.039,36.567z"/>
				<path style="fill:#FFFFFF;stroke:#000000;stroke-width:0.0351;" d="M17.481,37.498c-0.13,0.39-0.802,0.455-1.561,1.669
					c-0.759,1.214-1.485,0.705-1.669,1.539c0.91-0.737,1.626-0.247,2.168-0.976c0.824-1.106,1.502-0.947,1.821-1.691
					c0.455-1.062,2.45-1.041,2.558-2.71C20.126,35.201,18.001,37,17.481,37.498L17.481,37.498z"/>
				<path style="fill:#FFFFFF;stroke:#000000;stroke-width:0.0351;" d="M34.586,21.11c0.867,0.282,0.889,1.409,1.886,1.778
					c0.997,0.369,1.095,1.257,1.908,1.041c-0.759-0.206-0.705-1.084-1.496-1.301c-0.928-0.254-1.279-1.669-2.016-1.886"/>
				<path style="fill:#FFFFFF;stroke:#000000;stroke-width:0.0351;" d="M38.564,26.995c0.152,0.347,0.13,0.965-0.412,1.127
					c0.293,0.184,0.726,0.011,0.965-0.39c-0.358,0.791-0.119,1.507,0.444,1.648c-0.271-0.553,0.336-0.813,0.141-1.171
					c0.358,0.152,0.672,0.64,0.661,0.943c0.466-0.52-0.347-1.214-0.195-1.702L38.564,26.995L38.564,26.995z"/>
				<path style="fill:#FFFFFF;stroke:#000000;stroke-width:0.0351;" d="M32.949,32.566c-0.531-0.466-0.758,0.122-1.019-0.081
					c-0.244-0.19-0.569-0.217-0.694-0.027c0.455,0.016,0.233,0.369,1.116,0.455c-0.883,0.06-0.721,1.046-1.312,0.997
					c0.629,0.596,0.954-0.531,1.463-0.347c-0.152,0.043,0.238,0.401-0.033,0.878c0.439-0.011,0.618-0.618,0.672-0.932L32.949,32.566
					L32.949,32.566z"/>
				<path style="fill:#FFFFFF;stroke:#000000;stroke-width:0.0351;" d="M21.253,37.628c-0.195-0.162-0.759-0.238-0.976-0.108
					c-0.217,0.13-0.141,0.162,0.119,0.184c0.26,0.022,0.596,0.442,0.033,0.466c-0.26,0.011-0.173,0.639-0.715,0.683
					c0.222,0.271,0.856,0.092,1.084-0.206c-0.043,0.244,0.282,0.466,0.152,0.759c0.401,0.043,0.168-0.813,0.802-0.77
					c-0.26,0.033-0.152,0.618,0.303,0.466c-0.271,0.13-0.13,0.444,0.173,0.369c-0.195,0.065-0.26,0.314,0.011,0.455
					C22.5,39.569,22.207,38.29,21.253,37.628L21.253,37.628z"/>
				<path style="fill:#FFFFFF;stroke:#000000;stroke-width:0.0351;" d="M44.861,25.669c0.83,0,1.502-0.673,1.502-1.502
					c0-0.83-0.672-1.502-1.502-1.502c-0.83,0-1.502,0.673-1.502,1.502C43.359,24.996,44.032,25.669,44.861,25.669z"/>
				<path style="fill:#FFFFFF;stroke:#000000;stroke-width:0.0351;" d="M37.014,27.483c0.455-0.434,1.149-0.65,1.626-0.325
					c0.477,0.325,2.06,0.715,2.84,0.173c0.78-0.542,1.149-0.824,1.496-0.759c0.26,0.39,0.575,0.574,0.965,0.607
					c0.119,0.13,0.542,0.238,0.781,0.206c0.347,0.087,0.77-0.022,1.105-0.39c0.52,0.076,1.008-0.314,1.192-0.9
					c0.553-0.065,0.585-0.683,0.238-1.095c-0.325-0.065-0.076-1.16-1.257-0.943c0.499,0.303,0.119,0.91,0.531,1.192
					c-0.282,0-0.645,0.119-0.732,0.542c0.108-0.293-0.016-0.488-0.092-0.553c0.011-0.249-0.542-0.862-1.062-0.64
					c0.374,0.081,0.163,0.683,0.434,0.91c-0.195,0.011-0.401,0.108-0.52,0.282c-0.141-0.249-0.639-0.509-0.943-0.531
					c0-0.087-0.016-0.26-0.054-0.347c-0.136-0.26-0.249-0.569-0.195-0.965c-0.26,0.282-0.477,0.672-0.607,0.954
					c-0.412-0.282-1.431,0.13-1.908,0.238c-0.477,0.108-2.081-0.152-2.45-0.542c-0.368-0.39-1.084-0.629-1.756-0.824
					c-0.924-0.268-0.932-1.279-1.951-1.973C34.673,23.061,36.581,27.05,37.014,27.483L37.014,27.483z"/>
				<path style="fill:#FFFFFF;stroke:#000000;stroke-width:0.0351;" d="M26.391,37.065c0.802,0,1.452-0.65,1.452-1.452
					c0-0.802-0.65-1.452-1.452-1.452c-0.802,0-1.452,0.65-1.452,1.452C24.939,36.414,25.589,37.065,26.391,37.065L26.391,37.065z"/>
				<path style="fill:#FFFFFF;stroke:#000000;stroke-width:0.0351;" d="M22.922,35.948c0.293,0.379,0.791,0.358,0.997,0.325
					c0.173,0.455,0.726,0.444,0.965,0.694c0.238,0.249,1.051,0.228,1.29,0.087c-0.217-0.022-0.498-0.152-0.769-0.379
					c-0.327-0.275-0.173-0.824-0.434-1.019c0.195-0.217,0.228-0.574,0.184-0.715c0.206-0.119,0.358-0.314,0.379-0.412
					c0.358-0.022,0.672-0.206,0.802-0.347c0.184,0.173,0.65-0.054,0.9,0.238c0.054-0.715-0.629-1.095-1.084-0.856
					c-0.184-0.098-0.672-0.033-0.759,0.098c-0.152-0.065-0.574,0.152-0.77,0.293c0.217-0.119,0.249-0.477,0.163-0.607
					c0.184-0.076,0.39-0.325,0.412-0.509c0.26,0.043,0.65-0.13,0.824-0.087c-0.282-0.369-0.748-0.499-1.225-0.466
					c-0.493,0.027-0.705,0.374-0.77,0.748c-0.293,0.173-0.39,0.759-0.282,0.965c-0.168-0.005-0.325,0.157-0.39,0.249
					c-0.228-0.098-0.553-0.168-0.786-0.168"/>
				<path style="fill:#FFFFFF;stroke:#000000;stroke-width:0.0351;" d="M22.673,33.488c-0.098-0.282,0.032-0.536,0.098-0.759
					c0.168-0.569,0.065-0.715-0.444-0.639C22.283,32.361,22.543,33.25,22.673,33.488L22.673,33.488z"/>
				<path style="fill:#FFFFFF;stroke:#000000;stroke-width:0.0351;" d="M22.3,32.122c0.13,0.13,0.591,0.19,0.64-0.222
					c0.056-0.473-0.135-0.656-0.547-0.472C22.359,31.537,22.321,31.981,22.3,32.122L22.3,32.122z"/>
				<path style="fill:#FFFFFF;stroke:#000000;stroke-width:0.0351;" d="M22.397,31.412c0.173,0.07,0.547,0.211,0.753-0.19
					c0.173-0.336-0.054-0.596-0.412-0.574C22.652,30.746,22.479,31.092,22.397,31.412L22.397,31.412z"/>
				<path style="fill:#FFFFFF;stroke:#000000;stroke-width:0.0351;" d="M22.717,30.616c0.043,0.13,0.488,0.564,0.813,0.249
					c0.325-0.314,0.325-0.78-0.163-0.954C23.237,29.933,22.847,30.388,22.717,30.616L22.717,30.616z"/>
				<path style="fill:#FFFFFF;stroke:#000000;stroke-width:0.0351;" d="M23.367,29.911c0.098,0.271,0.401,0.737,0.965,0.52
					c0.564-0.217,0.325-0.921,0.065-1.062C24.245,29.38,23.627,29.662,23.367,29.911L23.367,29.911z"/>
				<path style="fill:#FFFFFF;stroke:#000000;stroke-width:0.0351;" d="M24.397,29.369c-0.043,0.238,0,0.889,0.77,0.878
					c0.769-0.011,0.553-0.91,0.358-1.041C25.21,29.207,24.679,29.218,24.397,29.369L24.397,29.369z"/>
				<path style="fill:#FFFFFF;stroke:#000000;stroke-width:0.0351;" d="M25.556,29.239c-0.087,0.184-0.282,1.397,1.225,1.062
					C26.976,30.258,27.486,29.141,25.556,29.239z"/>
				<path style="fill:#FFFFFF;stroke:#000000;stroke-width:0.0351;" d="M26.38,29.347c-0.152,0.152,0.238,1.377,1.257,1.171
					C28.656,30.312,27.8,29.152,26.38,29.347z"/>
				<path style="fill:#FFFFFF;stroke:#000000;stroke-width:0.0351;" d="M27.247,29.532c-0.162,0.336,0.082,1.333,1.339,1.333
					C29.725,30.865,28.526,29.553,27.247,29.532z"/>
				<path style="fill:#FFFFFF;stroke:#000000;stroke-width:0.0351;" d="M28.234,29.824c-0.082,0.186-0.182,1.244,1.301,1.333
					C30.607,31.223,30.347,29.705,28.234,29.824z"/>
				<path style="fill:#FFFFFF;stroke:#000000;stroke-width:0.0351;" d="M29.827,30.269c-0.184,0.325-0.379,1.138,1.247,1.203
					C32.116,31.514,31.475,30.291,29.827,30.269z"/>
				<path style="fill:#FFFFFF;stroke:#000000;stroke-width:0.0351;" d="M31.182,30.518c-0.238,0.325-0.063,0.963,0.542,1.084
					c0.759,0.152,0.867-0.564,0.347-0.91C31.551,30.345,31.182,30.518,31.182,30.518L31.182,30.518z"/>
				<path style="fill:#FFFFFF;stroke:#000000;stroke-width:0.0351;" d="M31.919,30.669c-0.173,0.304-0.066,1.041,1.084,1.041
					C33.242,31.71,34.152,30.778,31.919,30.669z"/>
				<path style="fill:#FFFFFF;stroke:#000000;stroke-width:0.0351;" d="M23.021,44.805c0.931,0,1.686-0.755,1.686-1.686
					c0-0.931-0.755-1.686-1.686-1.686c-0.931,0-1.686,0.755-1.686,1.686C21.334,44.05,22.089,44.805,23.021,44.805z"/>
				<path style="fill:#FFFFFF;stroke:#000000;stroke-width:0.0351;" d="M35.388,20.286c-0.13,0.13-0.401,0.52-0.455,0.672
					c-0.564,1.691,0.941,2.954,1.821,4.769c0.694,1.431,0.607,3.685-0.477,5.116c-0.371,0.489-0.26,0.629-0.737,1.127
					c-0.183,0.191-0.39,0.434-0.325,1.127c0.304-0.108,0.737,0.173,0.824,0.412c0.217-0.108,0.52-0.065,0.629,0.065
					c0.368-0.173,0.672-0.087,0.997,0.26c0.282-0.043,0.586,0,0.867,0.303c0.152-0.303,0.455-0.412,0.672-0.347
					c-0.022-0.39,0.369-0.672,0.715-0.52c-0.108-0.52,0.369-0.911,0.824-0.759c0.39-0.304,1.17-0.325,1.561,0.13
					c-0.694-0.195-0.672,0.542-1.257,0.477c0.152,0.434-0.238,0.683-0.628,0.824c0.249-0.119,0.52-0.26,0.607-0.108
					c0.217-0.19,0.65-0.119,0.759-0.022c0.287-0.092,0.564-0.022,0.694,0.325c0.39,0.238,0.65,0.845,0.369,1.301
					c-0.087-0.477-0.412-0.455-0.542-0.65c-0.304,0.108-0.607,0.108-0.694-0.087c-0.173,0.173-0.759,0.325-1.019,0.065
					c-0.098,0.39-0.434,0.715-0.824,0.715c0.109,0.303-0.195,0.824-0.433,1.084c0.369,0.195,0.26,0.629,0.173,0.889
					c0.564,0.087,0.087,0.585,1.062,0.91c-0.477,0.152-1.409,0-1.539-0.585c-0.477-0.022-0.802-0.499-0.78-0.997
					c-0.369-0.347-0.423-0.845,0.087-1.192c-0.434,0.13-0.672-0.564-1.301-0.282c-0.313,0.14-1.138-0.098-1.127-0.39
					c-0.13,0.217-0.921,0.13-1.03-0.238c-0.26,0.141-0.867-0.098-0.856-0.455c-0.336,0.152-0.791-0.119-0.77-0.466
					c-0.314-0.043-0.347-0.325-0.325-0.564c-0.282-0.13-0.206-0.401-0.098-0.726c-0.195-0.217-0.108-0.52,0.043-0.802
					c-0.217-0.217-0.173-0.477-0.109-0.78c-1.041-0.087-2.344-0.338-5.333-1.257c-4.509-1.387-5.723,1.864-4.726,3.902
					c1.151,2.351-0.13,2.862,0.26,4.618c0.412,0.087,0.629,0.433,0.607,0.802c0.244,0.011,0.417,0.238,0.331,0.672
					c0.206-0.038,0.472,0.022,0.645,0.195c0.152-0.282,0.65-0.347,0.911-0.022c0.563-0.043,0.845,0.412,0.824,0.976
					c0.303,0.542,0.195,1.203-0.13,1.626c0.033-0.228,0-0.553-0.011-0.748c-0.02-0.359-0.52-0.434-0.466-0.726
					c-0.26,0.022-0.509-0.119-0.596-0.314c-0.152,0.13-0.369,0.173-0.553,0.108c0.293,0.13,0.52,0.65,0.434,0.997
					c0.152,0.26,0.119,0.737-0.065,0.943c-0.087,0.423-0.412,0.574-0.835,0.39c0.238-0.152,0.325-0.423,0.314-0.65
					c-0.152-0.13-0.228-0.379-0.238-0.531c-0.423,0.065-1.008-0.293-1.116-0.434c-0.931,0-1.686,0.755-1.686,1.686
					c-0.043-0.347-0.482-0.689-0.428-0.981c-0.26-0.802,0.108-1.55,1.171-1.702c-0.13-0.304,0.325-0.618,0.152-0.965
					c-0.222-0.443-0.629-1.019-1.236-1.691c0.369-0.629,0.26-1.474,0.043-1.994c-0.311-0.747-0.607-0.564-1.713,0.65
					c-1.802,1.978-4.206,1.431-6.33,2.731c-0.565,0.346-1.127,0.477-0.52-0.13c0.607-0.607,2.211-1.214,3.252-1.734
					c1.949-0.974,3.599-2.601,4.249-5.766c1.528-7.438,7.153-4.986,10.709-3.599c3.338,1.303,2.731-1.648,1.041-3.425
					c-2.032-2.137-1.626-3.815-0.672-5.159C32.764,19.116,36.049,19.712,35.388,20.286L35.388,20.286z"/>
				<path style="fill:#FFFFFF;stroke:#000000;stroke-width:0.0351;" d="M41.425,38.557c1.025,0,1.855-0.83,1.855-1.855
					c0-1.025-0.831-1.855-1.855-1.855c-1.025,0-1.855,0.831-1.855,1.855C39.57,37.726,40.401,38.557,41.425,38.557L41.425,38.557z"
					/>
			</g>
			<g>
				<path style="fill:none;stroke:#000000;stroke-width:0.0351;" d="M34.347,20.372c-0.412,1.821-0.065,2.645,0.542,3.447
					c1.254,1.658,2.255,5.441,0.824,7.912"/>
				<g>
					<path style="fill:none;stroke:#000000;stroke-width:0.0351;stroke-linecap:round;" d="M36.515,29.597
						c0.173-0.065,0.499-0.271,0.575-0.629"/>
					<path style="fill:none;stroke:#000000;stroke-width:0.0351;stroke-linecap:round;" d="M36.645,28.806
						c0.054-0.314,0.542-0.45,0.553-0.786"/>
					<path style="fill:none;stroke:#000000;stroke-width:0.0351;stroke-linecap:round;" d="M36.656,27.58
						c-0.033-0.325,0.488-0.618,0.412-0.943"/>
					<path style="fill:none;stroke:#000000;stroke-width:0.0351;stroke-linecap:round;" d="M36.374,26.41
						c-0.043-0.184,0.433-0.531,0.304-0.824"/>
					<path style="fill:none;stroke:#000000;stroke-width:0.0351;stroke-linecap:round;" d="M36.017,25.272
						c-0.098-0.206,0.228-0.444,0.087-0.661"/>
					<path style="fill:none;stroke:#000000;stroke-width:0.0351;stroke-linecap:round;" d="M35.496,24.361
						c-0.033-0.141,0.168-0.45,0.06-0.634"/>
					<path style="fill:none;stroke:#000000;stroke-width:0.0351;stroke-linecap:round;" d="M34.976,23.288
						c0.043-0.054,0.217-0.184,0.146-0.347"/>
					<path style="fill:none;stroke:#000000;stroke-width:0.0351;stroke-linecap:round;" d="M34.618,22.503
						c0.07-0.038,0.282-0.103,0.255-0.26"/>
					<path style="fill:none;stroke:#000000;stroke-width:0.0351;stroke-linecap:round;stroke-linejoin:round;" d="M23.768,42.94
						c-0.434-0.152-0.976,0.065-1.084,0.434"/>
					<path style="fill:none;stroke:#000000;stroke-width:0.0351;stroke-linecap:round;stroke-linejoin:round;" d="M23.009,43.709
						c0.054-0.368,0.618-0.531,0.791-0.358c-0.358-0.195-0.531,0.499-0.217,0.52"/>
					<path style="fill:none;stroke:#000000;stroke-width:0.0351;stroke-linecap:round;stroke-linejoin:round;" d="M26.5,35.136
						c-0.26,0.13-0.336,0.607,0,0.965"/>
					<path style="fill:none;stroke:#000000;stroke-width:0.0351;stroke-linecap:round;stroke-linejoin:round;" d="M26.89,35.244
						c-0.184,0.152-0.173,0.607,0.098,0.715c-0.228-0.163,0-0.444,0.163-0.455c0.162-0.011,0.271,0.184,0.076,0.379"/>
					<path style="fill:none;stroke:#000000;stroke-width:0.0351;stroke-linecap:round;stroke-linejoin:round;" d="M42.119,36.317
						c-0.607-0.162-1.095,0.542-0.542,1.171c-0.011-0.607,0.423-1.008,0.954-0.9"/>
					<path style="fill:none;stroke:#000000;stroke-width:0.0351;stroke-linecap:round;stroke-linejoin:round;" d="M42.287,37.008
						c-0.149,0-0.233,0.117-0.233,0.23c0,0.119,0.103,0.233,0.271,0.233c0.109,0,0.195-0.125,0.195-0.222"/>
					<path style="fill:none;stroke:#000000;stroke-width:0.0351;stroke-linecap:round;stroke-linejoin:round;" d="M44.427,23.7
						c0.098,0.369,0.607,0.52,1.008,0.434"/>
					<path style="fill:none;stroke:#000000;stroke-width:0.0351;stroke-linecap:round;stroke-linejoin:round;" d="M45.435,23.895
						c-0.314,0.011-0.574-0.282-0.553-0.531c0,0.184,0.423,0.271,0.553,0.152"/>
					<path style="fill:none;stroke:#000000;stroke-width:0.0351;stroke-linecap:round;" d="M23.92,36.274
						c-0.087-0.217,0.26-0.434,0.271-0.64c0.011-0.206,0.39-0.369,0.78,0.022"/>
					<path style="fill:none;stroke:#000000;stroke-width:0.0351;stroke-linecap:round;" d="M24.787,33.347
						c-0.076,0.033-0.141,0.076-0.206,0.098"/>
					<path style="fill:none;stroke:#000000;stroke-width:0.0351;stroke-linecap:round;" d="M25.535,34.528
						c-0.092,0.005-0.282-0.005-0.385-0.076"/>
					<path style="fill:none;stroke:#000000;stroke-width:0.0351;stroke-linecap:round;" d="M25.156,34.94
						c-0.076,0.038-0.244,0.103-0.341,0.125"/>
					<path style="fill:none;stroke:#000000;stroke-width:0.0351;stroke-linecap:round;" d="M21.438,41.487
						c-0.011,0.195,0.184,0.477,0.293,0.564"/>
					<path style="fill:none;stroke:#000000;stroke-width:0.0351;stroke-linecap:round;" d="M22.283,41.021
						c-0.108,0.162-0.173,0.444-0.108,0.639"/>
					<path style="fill:none;stroke:#000000;stroke-width:0.0351;stroke-linecap:round;" d="M23.898,41.672
						c-0.195-0.13-0.065-0.466-0.087-0.683c-0.022-0.217,0.228-0.564,0.715-0.271"/>
					<path style="fill:none;stroke:#000000;stroke-width:0.0351;stroke-linecap:round;" d="M22.077,40.436
						c0.195-0.033,0.401-0.022,0.531,0.032"/>
					<path style="fill:none;stroke:#000000;stroke-width:0.0351;stroke-linecap:round;" d="M24.548,39.818
						c-0.087,0.119-0.108,0.249-0.119,0.336"/>
					<path style="fill:none;stroke:#000000;stroke-width:0.0351;stroke-linecap:round;" d="M25.459,39.796
						c-0.152,0-0.282,0.108-0.347,0.217"/>
					<path style="fill:none;stroke:#000000;stroke-width:0.0351;stroke-linecap:round;" d="M23.356,34.247
						c0.173,0.06,0.623,0.336,0.64,0.623"/>
					<path style="fill:none;stroke:#000000;stroke-width:0.0351;stroke-linecap:round;" d="M25.199,32.838
						c-0.531-0.011-0.737-0.553-0.336-0.553"/>
					<path style="fill:none;stroke:#000000;stroke-width:0.0351;stroke-linecap:round;" d="M26.153,33.563
						c-0.206,0.087-0.108,0.444,0.184,0.618"/>
					<path style="fill:none;stroke:#000000;stroke-width:0.0351;stroke-linecap:round;" d="M24.884,36.967
						c-0.103-0.13,0.033-0.509,0.369-0.396"/>
					<path style="fill:none;stroke:#000000;stroke-width:0.0351;stroke-linecap:round;" d="M25.676,40.924
						c0.022-0.33,0.439-0.526,0.607-0.152"/>
					<path style="fill:none;stroke:#000000;stroke-width:0.0351;stroke-linecap:round;" d="M24.136,41.866
						c-0.027-0.363,0.157-0.482,0.32-0.504c0.163-0.022,0.396,0.114,0.504,0.352"/>
					<path style="fill:none;stroke:#000000;stroke-width:0.0351;stroke-linecap:round;" d="M20.906,42.138
						c0.022-0.217,0.206-0.444,0.401-0.412"/>
					<path style="fill:none;stroke:#000000;stroke-width:0.0351;stroke-linecap:round;" d="M40.742,32.512
						c-0.141,0.103-0.233,0.564,0.303,0.607"/>
					<path style="fill:none;stroke:#000000;stroke-width:0.0351;stroke-linecap:round;" d="M39.919,33.271
						c0,0.054,0.07,0.13,0.114,0.163"/>
					<path style="fill:none;stroke:#000000;stroke-width:0.0351;stroke-linecap:round;" d="M42.477,34.138
						c-0.141-0.108-0.504,0.331-0.173,0.65"/>
					<path style="fill:none;stroke:#000000;stroke-width:0.0351;stroke-linecap:round;" d="M39.03,37.781
						c-0.081-0.309,0.206-0.39,0.477-0.325"/>
					<path style="fill:none;stroke:#000000;stroke-width:0.0351;stroke-linecap:round;" d="M38.336,35.591
						c0.162-0.108,0.325-0.228,0.531-0.282"/>
					<path style="fill:none;stroke:#000000;stroke-width:0.0351;stroke-linecap:round;" d="M38.249,36.783
						c0-0.26,0.13-0.477,0.249-0.542"/>
					<path style="fill:none;stroke:#000000;stroke-width:0.0351;stroke-linecap:round;" d="M39.203,33.792
						c-0.022,0.314,0.109,0.618,0.206,0.78"/>
					<path style="fill:none;stroke:#000000;stroke-width:0.0351;stroke-linecap:round;" d="M41.783,33.813
						c-0.157,0.049-0.298,0.108-0.358,0.238"/>
					<path style="fill:none;stroke:#000000;stroke-width:0.0351;stroke-linecap:round;" d="M41.609,34.702
						c0.076-0.065,0.163-0.141,0.201-0.195"/>
					<path style="fill:none;stroke:#000000;stroke-width:0.0351;stroke-linecap:round;" d="M45.707,25.239
						c0,0.303-0.379,0.466-0.628,0.271"/>
					<path style="fill:none;stroke:#000000;stroke-width:0.0351;stroke-linecap:round;" d="M46.531,25.25
						c0.168,0.13,0.748,0.005,0.612-0.331"/>
					<path style="fill:none;stroke:#000000;stroke-width:0.0351;stroke-linecap:round;" d="M45.826,26.995
						c-0.119-0.022-0.325-0.152-0.412-0.26"/>
					<path style="fill:none;stroke:#000000;stroke-width:0.0351;stroke-linecap:round;" d="M47.018,26.096
						c-0.195,0.043-0.325,0-0.423-0.043"/>
					<path style="fill:none;stroke:#000000;stroke-width:0.0351;stroke-linecap:round;" d="M43.94,27.18
						c0.108,0,0.368-0.043,0.547-0.135"/>
					<path style="fill:none;stroke:#000000;stroke-width:0.0351;stroke-linecap:round;" d="M43.614,25.261
						c-0.141-0.016-0.244,0.011-0.325,0.065"/>
					<path style="fill:none;stroke:#000000;stroke-width:0.0351;stroke-linecap:round;" d="M45.799,25.792
						c-0.038,0.136-0.136,0.347-0.255,0.439"/>
					<path style="fill:none;stroke:#000000;stroke-width:0.0351;stroke-linecap:round;stroke-linejoin:round;" d="M43.246,26.269
						c0.271-0.119,0.607,0.802,1.257,0.477"/>
					<path style="fill:none;stroke:#000000;stroke-width:0.0351;stroke-linecap:round;stroke-linejoin:round;" d="M44.558,25.792
						c-0.087,0.119-0.141,0.304-0.152,0.466"/>
				</g>
				<path style="fill:none;stroke:#000000;stroke-width:0.0351;" d="M31.594,24.383c0.087-0.011,0.238-0.043,0.271-0.152"/>
				<path style="fill:none;stroke:#000000;stroke-width:0.0351;" d="M20.441,34.474c0.325,0.184,0.553,0.499,0.412,0.965"/>
				<path style="fill:none;stroke:#000000;stroke-width:0.0351;" d="M35.344,23.386c0.098,0.065,0.466,0.065,0.672-0.011"/>
				<path style="fill:none;stroke:#000000;stroke-width:0.0351;" d="M36.277,23.603c-0.011,0.152,0.033,0.726-0.26,0.845"/>
				<path style="fill:none;stroke:#000000;stroke-width:0.0351;" d="M36.125,24.373c0.271,0.087,0.813,0.054,0.986-0.444"/>
				<path style="fill:none;stroke:#000000;stroke-width:0.0351;" d="M36.732,24.35c0.141,0.217,0.184,0.64-0.238,0.867"/>
				<path style="fill:none;stroke:#000000;stroke-width:0.0351;" d="M36.84,24.709c0.314,0.108,1.041,0.119,0.965-0.499"/>
				<path style="fill:none;stroke:#000000;stroke-width:0.0351;" d="M37.556,24.709c0.217,0.303,1.171,0.661,1.019,0.033"/>
				<path style="fill:none;stroke:#000000;stroke-width:0.0351;" d="M36.678,25.586c0.368,0.087,0.889-0.163,0.672-0.813"/>
				<path style="fill:none;stroke:#000000;stroke-width:0.0351;" d="M38.39,25.098c0.054,0.249,1.268,0.509,1.106-0.054"/>
				<path style="fill:none;stroke:#000000;stroke-width:0.0351;" d="M39.268,25.37c0.228,0.52,1.431,0.477,1.052-0.217"/>
				<path style="fill:none;stroke:#000000;stroke-width:0.0351;" d="M40.125,25.694c0.238,0.293,1.301,0.119,0.878-0.585"/>
				<path style="fill:none;stroke:#000000;stroke-width:0.0351;" d="M40.991,25.683c0.661,0.499,1.431-0.217,0.596-0.737"/>
				<path style="fill:none;stroke:#000000;stroke-width:0.0351;" d="M41.967,25.521c0.586,0.466,1.301-0.379,0.791-0.618"/>
				<path style="fill:none;stroke:#000000;stroke-width:0.0351;" d="M37.338,25.326c0.184,0.054,0.575,0.033,0.661-0.303"/>
				<path style="fill:none;stroke:#000000;stroke-width:0.0351;" d="M37.853,25.25c-0.022,0.493,0.808,0.683,1.019,0.114"/>
				<path style="fill:none;stroke:#000000;stroke-width:0.0351;" d="M38.596,25.673c0.152,0.325,0.878,0.455,0.997-0.011"/>
				<path style="fill:none;stroke:#000000;stroke-width:0.0351;" d="M39.474,25.879c0.119,0.325,0.748,0.293,0.921-0.043"/>
				<path style="fill:none;stroke:#000000;stroke-width:0.0351;" d="M40.168,26.052c0.195,0.423,0.997,0.423,1.181-0.195"/>
				<path style="fill:none;stroke:#000000;stroke-width:0.0351;" d="M41.209,26.128c0.314,0.195,0.986,0.119,0.932-0.488"/>
				<path style="fill:none;stroke:#000000;stroke-width:0.0351;" d="M42.011,26.074c0.466,0.379,1.127,0.011,0.802-0.629"/>
				<path style="fill:none;stroke:#000000;stroke-width:0.0351;" d="M42.78,26.572c0.249-0.043,0.379-0.542,0.119-0.672"/>
				<path style="fill:none;stroke:#000000;stroke-width:0.0351;" d="M37.003,26.659c0.52-0.282,0.618-0.759,0.26-1.225"/>
				<path style="fill:none;stroke:#000000;stroke-width:0.0351;" d="M37.447,26.182c0.325,0.195,0.943-0.011,1.051-0.488"/>
				<path style="fill:none;stroke:#000000;stroke-width:0.0351;" d="M37.892,26.236c0.184,0.238,0.217,0.531-0.022,0.802"/>
				<path style="fill:none;stroke:#000000;stroke-width:0.0351;" d="M38.043,26.54c0.574-0.358,1.29,0.304,0.759,0.705"/>
				<path style="fill:none;stroke:#000000;stroke-width:0.0351;" d="M38.705,26.508c0.13-0.033,0.358-0.271,0.379-0.542"/>
				<path style="fill:none;stroke:#000000;stroke-width:0.0351;" d="M38.964,26.757c0.238-0.249,1.865,0.26,0.835,0.78"/>
				<path style="fill:none;stroke:#000000;stroke-width:0.0351;" d="M39.723,26.074c0.314,0.119,0.477,0.564,0,0.715"/>
				<path style="fill:none;stroke:#000000;stroke-width:0.0351;" d="M40.135,27.158c0.347-0.358,1.431-0.13,1.041,0.325"/>
				<path style="fill:none;stroke:#000000;stroke-width:0.0351;" d="M40.916,27.017c0.195-0.661,1.355-0.249,0.976,0.022"/>
				<path style="fill:none;stroke:#000000;stroke-width:0.0351;" d="M40.677,26.355c0.033,0.13,0.043,0.455-0.173,0.629"/>
				<path style="fill:none;stroke:#000000;stroke-width:0.0351;" d="M41.653,26.226c0.043,0.108,0.033,0.314-0.065,0.444"/>
				<path style="fill:none;stroke:#000000;stroke-width:0.0351;" d="M42.39,26.236c0.065,0.119,0.173,0.347-0.065,0.531"/>
				<path style="fill:none;stroke:#000000;stroke-width:0.0351;" d="M33.112,21.25c0.011,0.618,0.228,1.03,1.062,0.639"/>
				<path style="fill:none;stroke:#000000;stroke-width:0.0351;" d="M33.372,21.988c-0.412,0.553,0.054,1.149,0.867,0.553"/>
				<path style="fill:none;stroke:#000000;stroke-width:0.0351;" d="M32.103,22.258c0.564,0.607,1.572,0.163,0.921-0.759"/>
				<path style="fill:none;stroke:#000000;stroke-width:0.0351;" d="M33.708,22.779c-0.109,0.596,0.379,0.715,0.78,0.444"/>
				<path style="fill:none;stroke:#000000;stroke-width:0.0351;" d="M31.605,22.356c0.103,0.599,0.715,1.073,1.312,0.705"/>
				<path style="fill:none;stroke:#000000;stroke-width:0.0351;" d="M32.342,23.18c0,0.856,1.181,0.954,1.452,0.065"/>
				<path style="fill:none;stroke:#000000;stroke-width:0.0351;" d="M33.372,23.787c0.379,0.78,1.203,0.466,1.474-0.011"/>
				<path style="fill:none;stroke:#000000;stroke-width:0.0351;" d="M32.537,22.54c0.152,0.379,0.455,0.802,1.16,0.488"/>
				<path style="fill:none;stroke:#000000;stroke-width:0.0351;" d="M30.369,22.356c0.098,0.314,0.661,0.694,1.312,0.26"/>
				<path style="fill:none;stroke:#000000;stroke-width:0.0351;" d="M30.77,22.757c-0.347,0.509,0.347,0.986,1.181,0.228"/>
				<path style="fill:none;stroke:#000000;stroke-width:0.0351;" d="M31.182,23.386c0.141,0.715,0.423,1.29,1.441,0.369"/>
				<path style="fill:none;stroke:#000000;stroke-width:0.0351;" d="M32.114,24.123c0.369,0.455,0.932,0.737,1.463-0.033"/>
				<path style="fill:none;stroke:#000000;stroke-width:0.0351;" d="M33.968,24.253c-0.033,0.542,0.076,0.813,0.499,0.791
					c0.333-0.017,0.65-0.282,0.835-0.564"/>
				<path style="fill:none;stroke:#000000;stroke-width:0.0351;" d="M34.391,25.045c-0.011,0.618,0.477,1.106,1.387,0.477"/>
				<path style="fill:none;stroke:#000000;stroke-width:0.0351;" d="M34.77,25.77c-0.173,0.466,0.347,1.225,1.366,0.835"/>
				<path style="fill:none;stroke:#000000;stroke-width:0.0351;" d="M32.613,24.535c-0.065,0.596,0.488,0.997,1.377,0.228"/>
				<path style="fill:none;stroke:#000000;stroke-width:0.0351;" d="M33.047,25.196c0.033,0.488,0.585,1.073,1.398,0.228"/>
				<path style="fill:none;stroke:#000000;stroke-width:0.0351;" d="M33.436,25.814c-0.065,0.835,0.705,1.073,1.355,0.434"/>
				<path style="fill:none;stroke:#000000;stroke-width:0.0351;" d="M32.277,25.196c0.173,0.011,0.314-0.141,0.401-0.249"/>
				<path style="fill:none;stroke:#000000;stroke-width:0.0351;" d="M32.645,25.803c0.152,0.033,0.412-0.108,0.499-0.282"/>
				<path style="fill:none;stroke:#000000;stroke-width:0.0351;" d="M33.025,26.789c0.173,0.184,0.759,0.054,0.834-0.195"/>
				<path style="fill:none;stroke:#000000;stroke-width:0.0351;" d="M33.675,26.778c0.325,0.759,1.192,0.726,1.55-0.13"/>
				<path style="fill:none;stroke:#000000;stroke-width:0.0351;" d="M35.063,26.952c0.162,0.444,0.575,0.726,1.247,0.574"/>
				<path style="fill:none;stroke:#000000;stroke-width:0.0351;" d="M35.388,27.407c-0.379,0.618,0.119,1.344,0.965,0.629"/>
				<path style="fill:none;stroke:#000000;stroke-width:0.0351;" d="M35.594,28.328c-0.043,0.39,0.314,0.835,0.802,0.889"/>
				<path style="fill:none;stroke:#000000;stroke-width:0.0351;" d="M33.989,27.19c-0.13,0.878,0.499,1.301,1.29,0.835"/>
				<path style="fill:none;stroke:#000000;stroke-width:0.0351;" d="M33.068,27.613c0.206,0.163,0.575,0.184,0.921,0.054"/>
				<path style="fill:none;stroke:#000000;stroke-width:0.0351;" d="M34.412,28.177c-0.195,0.737,0.564,1.268,1.214,0.444"/>
				<path style="fill:none;stroke:#000000;stroke-width:0.0351;" d="M33.361,27.732c0.011,0.379,0.38,0.791,1.019,0.672"/>
				<path style="fill:none;stroke:#000000;stroke-width:0.0351;" d="M36.168,29.163c-0.434,0.293-0.52,0.813,0.087,1.149"/>
				<path style="fill:none;stroke:#000000;stroke-width:0.0351;" d="M35.106,29.011c0.022,0.444,0.228,0.694,0.715,0.737"/>
				<path style="fill:none;stroke:#000000;stroke-width:0.0351;" d="M34.467,28.784c-0.65,0.596-0.011,1.29,0.759,0.705"/>
				<path style="fill:none;stroke:#000000;stroke-width:0.0351;" d="M34.922,29.672c-0.217,0.683,0.596,1.095,1.03,0.401"/>
				<path style="fill:none;stroke:#000000;stroke-width:0.0351;" d="M33.578,28.22c-0.238,0.672,0.065,1.116,0.618,1.073"/>
				<path style="fill:none;stroke:#000000;stroke-width:0.0351;" d="M32.721,28.09c0.033,0.401,0.379,0.542,0.77,0.455"/>
				<path style="fill:none;stroke:#000000;stroke-width:0.0351;" d="M32.97,28.513c-0.293,0.564,0.152,0.867,0.737,0.65"/>
				<path style="fill:none;stroke:#000000;stroke-width:0.0351;" d="M35.485,30.42c-0.098,0.358-0.043,0.618,0.488,0.737"/>
				<path style="fill:none;stroke:#000000;stroke-width:0.0351;" d="M35.518,30.93c-0.64,0.293-0.694,0.911-0.195,1.312"/>
				<path style="fill:none;stroke:#000000;stroke-width:0.0351;" d="M35.003,30.242c-0.336,0.304-0.271,0.829,0.098,1.035"/>
				<path style="fill:none;stroke:#000000;stroke-width:0.0351;" d="M32.158,28.264c-0.369,0.363-0.016,1.366,0.796,0.818"/>
				<path style="fill:none;stroke:#000000;stroke-width:0.0351;" d="M34.271,29.532c-0.499,0.412-0.271,1.16,0.553,0.954"/>
				<path style="fill:none;stroke:#000000;stroke-width:0.0351;" d="M33.447,29.217c-0.26,0.737-0.011,0.997,0.575,1.008"/>
				<path style="fill:none;stroke:#000000;stroke-width:0.0351;" d="M31.616,28.231c-0.444,0.336-0.325,0.813-0.13,1.03
					c0.195,0.217,0.563,0.119,0.683-0.163"/>
				<path style="fill:none;stroke:#000000;stroke-width:0.0351;" d="M30.683,27.938c-0.499,0.64,0,1.398,0.705,1.171"/>
				<path style="fill:none;stroke:#000000;stroke-width:0.0351;" d="M33.35,29.835c-0.509,0.184-0.898,0.647-0.586,1.051
					c0.184,0.238,0.986,0.271,1.214-0.65"/>
				<path style="fill:none;stroke:#000000;stroke-width:0.0351;" d="M32.428,29.239c-0.293,0.423-0.195,0.824,0.347,1.03"/>
				<path style="fill:none;stroke:#000000;stroke-width:0.0351;" d="M32.396,30.031c-0.314,0.173-0.52,0.379-0.444,0.759"/>
				<path style="fill:none;stroke:#000000;stroke-width:0.0351;" d="M31.692,29.369c-0.119,0.509,0.022,0.824,0.336,0.976"/>
				<path style="fill:none;stroke:#000000;stroke-width:0.0351;" d="M31.681,29.976c-0.488-0.033-0.737,0.173-0.575,0.65"/>
				<path style="fill:none;stroke:#000000;stroke-width:0.0351;" d="M31.15,30.095c-0.477-0.173-0.553-0.585-0.347-1.019"/>
				<path style="fill:none;stroke:#000000;stroke-width:0.0351;" d="M30.738,29.716c-0.52,0.022-0.748,0.282-0.748,0.64"/>
				<path style="fill:none;stroke:#000000;stroke-width:0.0351;" d="M30.033,27.689c-0.379,0.163-0.499,0.672-0.358,0.954
					c0.141,0.282,0.586,0.304,0.857,0.119"/>
				<path style="fill:none;stroke:#000000;stroke-width:0.0351;" d="M28.971,27.288c-0.347,0.39,0.054,1.149,0.672,0.965"/>
				<path style="fill:none;stroke:#000000;stroke-width:0.0351;" d="M28.082,26.984c-0.325,0.455,0.033,1.214,0.867,0.997"/>
				<path style="fill:none;stroke:#000000;stroke-width:0.0351;" d="M28.992,30.095c-0.087-0.542,0.477-0.9,1.171-0.195"/>
				<path style="fill:none;stroke:#000000;stroke-width:0.0351;" d="M29.827,28.806c-0.206,0.184-0.303,0.477-0.271,0.715"/>
				<path style="fill:none;stroke:#000000;stroke-width:0.0351;" d="M27.193,26.724c-0.358,0.607,0.076,1.16,0.846,0.943"/>
				<path style="fill:none;stroke:#000000;stroke-width:0.0351;" d="M29.199,28.231c-0.509,0.509-0.336,1.019,0.043,1.312"/>
				<path style="fill:none;stroke:#000000;stroke-width:0.0351;" d="M28.873,28.827c-0.77,0.011-0.813,0.9-0.184,1.181"/>
				<path style="fill:none;stroke:#000000;stroke-width:0.0351;" d="M28.288,27.938c-0.314,0.217-0.412,0.813,0.13,1.051"/>
				<path style="fill:none;stroke:#000000;stroke-width:0.0351;" d="M28.267,29.272c-0.325-0.152-0.715,0.033-0.683,0.412"/>
				<path style="fill:none;stroke:#000000;stroke-width:0.0351;" d="M27.778,29.282c-0.293-0.694-1.149-0.574-1.073,0.141"/>
				<path style="fill:none;stroke:#000000;stroke-width:0.0351;" d="M28.017,28.426c-0.184,0.033-0.553,0.141-0.694,0.423"/>
				<path style="fill:none;stroke:#000000;stroke-width:0.0351;" d="M27.378,27.646c-0.347,0.39-0.076,0.856,0.206,0.954"/>
				<path style="fill:none;stroke:#000000;stroke-width:0.0351;" d="M26.348,26.551c-0.065,0.466,0.119,0.694,0.705,0.65"/>
				<path style="fill:none;stroke:#000000;stroke-width:0.0351;" d="M26.554,27.147c-0.228,0.564,0.076,0.813,0.661,0.78"/>
				<path style="fill:none;stroke:#000000;stroke-width:0.0351;" d="M26.684,27.841c-0.347,0.412-0.108,0.856,0.228,1.041"/>
				<path style="fill:none;stroke:#000000;stroke-width:0.0351;" d="M26.521,28.361c-0.618-0.076-0.715,0.639-0.509,0.976"/>
				<path style="fill:none;stroke:#000000;stroke-width:0.0351;" d="M26.022,26.497c-0.379,0.163-0.596,0.639-0.39,0.932
					c0.206,0.293,0.618,0.195,0.845,0.043"/>
				<path style="fill:none;stroke:#000000;stroke-width:0.0351;" d="M25.763,27.559c-0.314,0.477-0.033,0.835,0.304,0.976"/>
				<path style="fill:none;stroke:#000000;stroke-width:0.0351;" d="M24.548,26.442c-0.249,0.26-0.098,0.791,0.509,0.802
					c0.489,0.009,0.737-0.455,0.585-0.78"/>
				<path style="fill:none;stroke:#000000;stroke-width:0.0351;" d="M24.971,27.244c-0.195,0.434-0.076,0.9,0.661,0.824"/>
				<path style="fill:none;stroke:#000000;stroke-width:0.0351;" d="M25.947,28.751c-0.455-0.206-1.062,0-0.802,0.542"/>
				<path style="fill:none;stroke:#000000;stroke-width:0.0351;" d="M25.08,27.982c-0.184,0.26-0.119,0.629,0.087,0.856"/>
				<path style="fill:none;stroke:#000000;stroke-width:0.0351;" d="M25.047,28.675c-0.304,0.054-0.596,0.217-0.412,0.694"/>
				<path style="fill:none;stroke:#000000;stroke-width:0.0351;" d="M24.592,28.979c-0.39-0.119-0.889,0.163-0.585,0.564"/>
				<path style="fill:none;stroke:#000000;stroke-width:0.0351;" d="M23.942,29.163c-0.336-0.054-0.737,0.303-0.412,0.661"/>
				<path style="fill:none;stroke:#000000;stroke-width:0.0351;" d="M23.4,29.532c-0.304,0.076-0.661,0.423-0.347,0.694"/>
				<path style="fill:none;stroke:#000000;stroke-width:0.0351;" d="M24.928,27.83c-0.434,0.195-0.477,0.683-0.271,1.041"/>
				<path style="fill:none;stroke:#000000;stroke-width:0.0351;" d="M24.472,26.93c-0.65,0.249-0.639,1.116,0.076,1.387"/>
				<path style="fill:none;stroke:#000000;stroke-width:0.0351;" d="M24.245,28.122c-0.39,0.228-0.466,0.661-0.206,0.943"/>
				<path style="fill:none;stroke:#000000;stroke-width:0.0351;" d="M23.562,26.605c-0.26,0.087-0.238,0.889,0.455,0.867"/>
				<path style="fill:none;stroke:#000000;stroke-width:0.0351;" d="M22.847,26.876c-0.52,0.347,0.108,1.225,0.954,0.596"/>
				<path style="fill:none;stroke:#000000;stroke-width:0.0351;" d="M23.334,27.689c-0.076,0.358,0.022,0.748,0.596,0.791"/>
				<path style="fill:none;stroke:#000000;stroke-width:0.0351;" d="M23.367,28.166c-0.412,0.152-0.488,0.997,0.26,1.062"/>
				<path style="fill:none;stroke:#000000;stroke-width:0.0351;" d="M22.056,27.396c-0.531,0.488,0.434,0.91,0.791,0.206"/>
				<path style="fill:none;stroke:#000000;stroke-width:0.0351;" d="M21.319,28.209c-0.26,0.314,0.65,1.138,1.051-0.238"/>
				<path style="fill:none;stroke:#000000;stroke-width:0.0351;" d="M22.467,27.949c0.022,0.325,0.217,0.52,0.618,0.542"/>
				<path style="fill:none;stroke:#000000;stroke-width:0.0351;" d="M23.075,28.806c-0.639,0.098-0.845,0.9-0.13,1.073"/>
				<path style="fill:none;stroke:#000000;stroke-width:0.0351;" d="M21.893,28.697c-0.022,0.303,0.293,0.553,0.65,0.499"/>
				<path style="fill:none;stroke:#000000;stroke-width:0.0351;" d="M22.869,29.857c-0.585,0.13-0.661,0.889-0.141,0.845"/>
				<path style="fill:none;stroke:#000000;stroke-width:0.0351;" d="M22.456,31.407c-0.488-0.146-0.499-0.726-0.065-0.943"/>
				<path style="fill:none;stroke:#000000;stroke-width:0.0351;" d="M22.056,30.897c-0.412,0.249-0.249,0.845-0.033,0.932
					c0.217,0.087,0.39-0.022,0.412-0.206"/>
				<path style="fill:none;stroke:#000000;stroke-width:0.0351;" d="M22.403,32.458c0.043,0.282-1.003,0.173-0.466-0.705"/>
				<path style="fill:none;stroke:#000000;stroke-width:0.0351;" d="M21.931,32.507c-0.352,0.553,0.222,1.003,0.585,0.531"/>
				<path style="fill:none;stroke:#000000;stroke-width:0.0351;" d="M21.98,33.174c-0.141,0.444,0.396,0.764,0.742,0.417"/>
				<path style="fill:none;stroke:#000000;stroke-width:0.0351;" d="M20.809,29.011c-0.195,0.401,0.78,0.553,0.845-0.271"/>
				<path style="fill:none;stroke:#000000;stroke-width:0.0351;" d="M20.538,29.608c-0.195,0.78,1.279,0.618,0.9-0.39"/>
				<path style="fill:none;stroke:#000000;stroke-width:0.0351;" d="M21.47,29.738c0.206,0.119,0.824,0.13,0.976-0.531"/>
				<path style="fill:none;stroke:#000000;stroke-width:0.0351;" d="M22.001,29.759c0.043,0.206,0.228,0.455,0.401,0.531"/>
				<path style="fill:none;stroke:#000000;stroke-width:0.0351;" d="M21.297,29.965c-0.065,0.423,0.358,0.77,0.845,0.737"/>
				<path style="fill:none;stroke:#000000;stroke-width:0.0351;" d="M21.372,30.377c-0.238,0.325-0.314,0.954,0.434,0.997"/>
				<path style="fill:none;stroke:#000000;stroke-width:0.0351;" d="M20.234,30.486c-0.119,0.336,0.585,0.683,0.997,0.13"/>
				<path style="fill:none;stroke:#000000;stroke-width:0.0351;" d="M20.018,31.341c-0.06,0.255,0.574,0.596,0.932-0.488"/>
				<path style="fill:none;stroke:#000000;stroke-width:0.0351;" d="M20.668,31.407c0.152,0.271,0.661,0.488,0.976-0.043"/>
				<path style="fill:none;stroke:#000000;stroke-width:0.0351;" d="M21.134,31.689c-0.13,0.379,0.228,0.737,0.661,0.629"/>
				<path style="fill:none;stroke:#000000;stroke-width:0.0351;" d="M20.321,31.602c-0.087,0.542,0.542,0.856,0.932,0.574"/>
				<path style="fill:none;stroke:#000000;stroke-width:0.0351;" d="M19.909,31.84c-0.184,0.694,0.705,0.954,1.041,0.434"/>
				<path style="fill:none;stroke:#000000;stroke-width:0.0351;" d="M20.723,32.48c0.033,0.39,0.64,0.726,1.116,0.401"/>
				<path style="fill:none;stroke:#000000;stroke-width:0.0351;" d="M19.639,32.805c-0.043,0.173,0.683,0.347,0.791-0.26"/>
				<path style="fill:none;stroke:#000000;stroke-width:0.0351;" d="M20.061,32.957c0.173,0.444,0.759,0.553,1.095,0.011"/>
				<path style="fill:none;stroke:#000000;stroke-width:0.0351;" d="M20.961,33.184c0.076,0.412,0.607,0.639,1.073,0.358"/>
				<path style="fill:none;stroke:#000000;stroke-width:0.0351;" d="M22.229,33.705c-0.119,0.553,0.455,0.997,0.813,0.694"/>
				<path style="fill:none;stroke:#000000;stroke-width:0.0351;" d="M21.308,33.607c-0.173,0.607,0.585,0.954,1.008,0.618"/>
				<path style="fill:none;stroke:#000000;stroke-width:0.0351;" d="M20.397,33.304c-0.043,0.564,0.401,0.9,0.91,0.65"/>
				<path style="fill:none;stroke:#000000;stroke-width:0.0351;" d="M19.433,33.358c-0.152,0.369,0.65,0.672,1.03,0.358"/>
				<path style="fill:none;stroke:#000000;stroke-width:0.0351;" d="M18.934,34.366c0.206,0.238,0.921,0,0.986-0.531"/>
				<path style="fill:none;stroke:#000000;stroke-width:0.0351;" d="M19.725,34.225c0.26,0.304,0.878,0.466,1.127-0.184"/>
				<path style="fill:none;stroke:#000000;stroke-width:0.0351;" d="M20.636,34.377c-0.011,0.466,0.824,0.802,1.095-0.054"/>
				<path style="fill:none;stroke:#000000;stroke-width:0.0351;" d="M22.711,34.491c-0.076,0.228,0.103,0.591,0.477,0.634"/>
				<path style="fill:none;stroke:#000000;stroke-width:0.0351;" d="M22.023,34.35c-0.054,0.26,0.325,0.623,0.726,0.477"/>
				<path style="fill:none;stroke:#000000;stroke-width:0.0351;" d="M22.825,34.935c-0.108,0.282-0.016,0.688,0.363,0.683"/>
				<path style="fill:none;stroke:#000000;stroke-width:0.0351;" d="M22.863,35.461c-0.282,0.238-0.163,0.661,0.244,0.678"/>
				<path style="fill:none;stroke:#000000;stroke-width:0.0351;" d="M22.717,35.862c-0.401,0.271-0.26,0.867,0.271,0.835"/>
				<path style="fill:none;stroke:#000000;stroke-width:0.0351;" d="M21.503,34.713c0,0.585,0.726,0.672,0.867,0.13"/>
				<path style="fill:none;stroke:#000000;stroke-width:0.0351;" d="M22.088,35.19c-0.108,0.347,0.173,0.683,0.618,0.585"/>
				<path style="fill:none;stroke:#000000;stroke-width:0.0351;" d="M22.175,39.374c0.098,0.141,0.499-0.097,0.39-0.336
					c-0.108-0.238-0.533-0.109-0.488,0.141"/>
				<path style="fill:none;stroke:#000000;stroke-width:0.0351;" d="M22.467,38.94c0.054-0.477-0.509-0.553-0.65-0.141"/>
				<path style="fill:none;stroke:#000000;stroke-width:0.0351;" d="M22.023,38.561c0.141-0.238-0.336-0.564-0.531-0.217"/>
				<path style="fill:none;stroke:#000000;stroke-width:0.0351;" d="M21.665,38.203c0.13-0.347-0.412-0.499-0.455-0.184"/>
				<path style="fill:none;stroke:#000000;stroke-width:0.0351;" d="M21.091,37.563c0.065-0.173,0.672-0.065,0.412,0.293"/>
				<path style="fill:none;stroke:#000000;stroke-width:0.0351;" d="M21.969,38.29c0.238-0.217-0.163-0.661-0.412-0.499"/>
				<path style="fill:none;stroke:#000000;stroke-width:0.0351;" d="M23.573,38.951c-0.19,0.022-0.385,0.146-0.244,0.547
					c0.098,0.278,0.515,0.293,0.574,0.125"/>
				<path style="fill:none;stroke:#000000;stroke-width:0.0351;" d="M23.297,39.151c-0.184-0.119-0.585,0.081-0.401,0.472
					c0.139,0.294,0.488,0.173,0.542,0.022"/>
				<path style="fill:none;stroke:#000000;stroke-width:0.0351;" d="M22.261,39.71c0.092,0.162,0.553,0.092,0.634-0.087"/>
				<path style="fill:none;stroke:#000000;stroke-width:0.0351;" d="M22.576,39.173c0.098-0.065,0.276,0.016,0.314,0.097"/>
				<path style="fill:none;stroke:#000000;stroke-width:0.0351;" d="M22.543,36.501c-0.314,0.206-0.119,0.835,0.369,0.672"/>
				<path style="fill:none;stroke:#000000;stroke-width:0.0351;" d="M22.446,37.011c-0.249,0.195-0.022,0.802,0.444,0.575"/>
				<path style="fill:none;stroke:#000000;stroke-width:0.0351;" d="M22.522,37.585c-0.173,0.173-0.005,0.656,0.444,0.564"/>
				<path style="fill:none;stroke:#000000;stroke-width:0.0351;" d="M22.456,37.824c-0.098-0.043-0.352-0.011-0.461,0.152"/>
				<path style="fill:none;stroke:#000000;stroke-width:0.0351;" d="M22.175,35.629c-0.238,0.228-0.125,0.694,0.32,0.732"/>
				<path style="fill:none;stroke:#000000;stroke-width:0.0351;" d="M22.088,36.105c-0.341,0.168-0.341,0.845,0.341,0.872"/>
				<path style="fill:none;stroke:#000000;stroke-width:0.0351;" d="M22.061,36.87c-0.19,0.152-0.098,0.737,0.39,0.661"/>
				<path style="fill:none;stroke:#000000;stroke-width:0.0351;" d="M22.218,37.509c-0.071,0.07-0.081,0.249-0.022,0.325"/>
				<path style="fill:none;stroke:#000000;stroke-width:0.0351;" d="M22.001,37.287c-0.173,0.005-0.401,0.13-0.461,0.309"/>
				<path style="fill:none;stroke:#000000;stroke-width:0.0351;" d="M21.226,36.967c0.065-0.173,0.602-0.162,0.64,0.347"/>
				<path style="fill:none;stroke:#000000;stroke-width:0.0351;" d="M21.92,36.707c-0.076,0.016-0.222,0.087-0.26,0.233"/>
				<path style="fill:none;stroke:#000000;stroke-width:0.0351;" d="M21.687,35.12c-0.233,0.211-0.347,0.878,0.363,1.008"/>
				<path style="fill:none;stroke:#000000;stroke-width:0.0351;" d="M21.216,36.496c0-0.179,0.482-0.331,0.65-0.065"/>
				<path style="fill:none;stroke:#000000;stroke-width:0.0351;" d="M20.906,35.526c0.07,0.136,0.406,0.32,0.612,0.168"/>
				<path style="fill:none;stroke:#000000;stroke-width:0.0351;" d="M19.161,34.464c-0.011,0.314,0.249,0.596,0.607,0.553
					c0.358-0.043,0.434-0.358,0.325-0.564"/>
				<path style="fill:none;stroke:#000000;stroke-width:0.0351;" d="M19.822,35.027c-0.238,0.293,0.054,0.705,0.325,0.585"/>
				<path style="fill:none;stroke:#000000;stroke-width:0.0351;" d="M20.094,34.821c0.141-0.054,0.607-0.119,0.748,0.098"/>
				<path style="fill:none;stroke:#000000;stroke-width:0.0351;" d="M18.587,34.908c-0.108,0.163,0.564,0.325,0.791,0.011"/>
				<path style="fill:none;stroke:#000000;stroke-width:0.0351;" d="M19.15,35.081c-0.022,0.217,0.087,0.585,0.639,0.434"/>
				<path style="fill:none;stroke:#000000;stroke-width:0.0351;" d="M19.877,35.851c0.087-0.184-0.325-0.488-0.64-0.152
					c-0.314,0.336,0.043,0.715,0.238,0.585"/>
				<path style="fill:none;stroke:#000000;stroke-width:0.0351;" d="M18.435,35.125c-0.163,0.282,0.466,0.797,0.824,0.32"/>
				<path style="fill:none;stroke:#000000;stroke-width:0.0351;" d="M18.018,35.612c-0.228,0.233,0.054,0.661,0.396,0.531
					c0.341-0.13,0.309-0.488,0.228-0.58"/>
				<path style="fill:none;stroke:#000000;stroke-width:0.0351;" d="M17.579,36.046c-0.184,0.168-0.005,0.564,0.249,0.564
					c0.255,0,0.412-0.2,0.363-0.455"/>
				<path style="fill:none;stroke:#000000;stroke-width:0.0351;" d="M18.614,36.014c-0.033,0.249,0.336,0.423,0.574,0.19"/>
				<path style="fill:none;stroke:#000000;stroke-width:0.0351;" d="M19.2,35.748c0.033-0.054,0.005-0.146-0.049-0.19"/>
				<path style="fill:none;stroke:#000000;stroke-width:0.0351;" d="M17.184,36.382c-0.211,0.168,0.244,0.634,0.531,0.206"/>
				<path style="fill:none;stroke:#000000;stroke-width:0.0351;" d="M18.814,36.29c-0.136,0.13,0.081,0.471,0.298,0.368"/>
				<path style="fill:none;stroke:#000000;stroke-width:0.0351;" d="M18.072,36.528c0.033,0.233,0.488,0.406,0.775,0.049"/>
				<path style="fill:none;stroke:#000000;stroke-width:0.0351;" d="M18.322,36.761c-0.07,0.146,0.071,0.38,0.244,0.347"/>
				<path style="fill:none;stroke:#000000;stroke-width:0.0351;" d="M22.636,38.1c-0.168,0.33,0.369,0.715,0.759,0.314"/>
				<path style="fill:none;stroke:#000000;stroke-width:0.0351;" d="M23.025,38.593c-0.081,0.179,0.016,0.428,0.163,0.52"/>
				<path style="fill:none;stroke:#000000;stroke-width:0.0351;" d="M22.516,38.967c0.038-0.163,0.271-0.314,0.482-0.238"/>
				<path style="fill:none;stroke:#000000;stroke-width:0.0351;" d="M22.234,38.539c0.033-0.146,0.228-0.293,0.374-0.254"/>
				<path style="fill:none;stroke:#000000;stroke-width:0.0351;" d="M34.997,31.775c-0.77,0.011-0.444,1.247,0.217,0.997"/>
				<path style="fill:none;stroke:#000000;stroke-width:0.0351;" d="M34.748,32.686c-0.152,0.249,0.141,0.645,0.466,0.412"/>
				<path style="fill:none;stroke:#000000;stroke-width:0.0351;" d="M35.128,33.147c-0.228,0.379,0.585,0.959,0.91,0.363"/>
				<path style="fill:none;stroke:#000000;stroke-width:0.0351;" d="M35.778,33.737c0.011,0.358,1.051,0.585,0.9-0.13"/>
				<path style="fill:none;stroke:#000000;stroke-width:0.0351;" d="M36.58,33.997c0.249,0.423,1.181,0.466,1.084-0.163"/>
				<path style="fill:none;stroke:#000000;stroke-width:0.0351;" d="M37.458,34.268c0.195,0.282,1.106,0.455,1.073-0.13"/>
				<path style="fill:none;stroke:#000000;stroke-width:0.0351;" d="M33.762,30.702c0.13,0.336,0.574,0.455,1.062,0.26"/>
				<path style="fill:none;stroke:#000000;stroke-width:0.0351;" d="M33.48,30.941c0.304,0.195-0.141,1.084-0.607,0.726"/>
				<path style="fill:none;stroke:#000000;stroke-width:0.0351;" d="M33.48,31.494c0.336,0.163,0.748,0.043,0.867-0.434"/>
				<path style="fill:none;stroke:#000000;stroke-width:0.0351;" d="M34.141,31.428c0.033,0.249,0.39,0.444,0.856,0.347"/>
				<path style="fill:none;stroke:#000000;stroke-width:0.0351;" d="M33.306,31.689c0.434,0.369-0.195,1.127-0.477,0.78"/>
				<path style="fill:none;stroke:#000000;stroke-width:0.0351;" d="M33.469,31.97c0.206,0.152,0.737,0.065,0.791-0.336"/>
				<path style="fill:none;stroke:#000000;stroke-width:0.0351;" d="M34.022,31.97c0.043,0.26,0.249,0.358,0.542,0.369"/>
				<path style="fill:none;stroke:#000000;stroke-width:0.0351;" d="M33.35,32.328c0.217,0.304,0.759,0.39,0.997-0.011"/>
				<path style="fill:none;stroke:#000000;stroke-width:0.0351;" d="M34.108,32.545c-0.022,0.293,0.304,0.531,0.64,0.466"/>
				<path style="fill:none;stroke:#000000;stroke-width:0.0351;" d="M32.927,33.195c0.282,0.141,0.585-0.39,0.347-0.759"/>
				<path style="fill:none;stroke:#000000;stroke-width:0.0351;" d="M33.253,33.759c0.336,0.022,0.379-0.488,0.065-0.77"/>
				<path style="fill:none;stroke:#000000;stroke-width:0.0351;" d="M34.022,34.225c0.282-0.065,0.195-0.683-0.488-0.737"/>
				<path style="fill:none;stroke:#000000;stroke-width:0.0351;" d="M34.878,34.681c0.271-0.076,0.054-0.759-0.694-0.715"/>
				<path style="fill:none;stroke:#000000;stroke-width:0.0351;" d="M35.908,34.919c0.184-0.282-0.423-0.759-0.921-0.509"/>
				<path style="fill:none;stroke:#000000;stroke-width:0.0351;" d="M36.417,35.309c0.336,0.098,0.564-0.791-0.499-0.65"/>
				<path style="fill:none;stroke:#000000;stroke-width:0.0351;" d="M37.035,35.309c0.293-0.076,0.499-0.607-0.357-0.434"/>
				<path style="fill:none;stroke:#000000;stroke-width:0.0351;" d="M37.686,35.353c0.26,0.13,0.379-0.629-0.412-0.423"/>
				<path style="fill:none;stroke:#000000;stroke-width:0.0351;" d="M33.317,32.989c0.325,0.184,0.835-0.033,0.791-0.444"/>
				<path style="fill:none;stroke:#000000;stroke-width:0.0351;" d="M33.978,32.903c0.109,0.195,0.065,0.574-0.141,0.672"/>
				<path style="fill:none;stroke:#000000;stroke-width:0.0351;" d="M34.011,33.358c0.217,0.087,0.509,0.011,0.683-0.336"/>
				<path style="fill:none;stroke:#000000;stroke-width:0.0351;" d="M34.391,33.358c0.065,0.152,0.087,0.455-0.054,0.607"/>
				<path style="fill:none;stroke:#000000;stroke-width:0.0351;" d="M34.445,33.618c0.238,0.13,0.52-0.043,0.639-0.293"/>
				<path style="fill:none;stroke:#000000;stroke-width:0.0351;" d="M34.933,33.542c0.173,0.108,0.325,0.618,0.033,0.824"/>
				<path style="fill:none;stroke:#000000;stroke-width:0.0351;" d="M35.128,34.128c0.206,0.011,0.509,0.011,0.705-0.249"/>
				<path style="fill:none;stroke:#000000;stroke-width:0.0351;" d="M35.691,34.019c0.184,0.054,0.401,0.358,0.325,0.629"/>
				<path style="fill:none;stroke:#000000;stroke-width:0.0351;" d="M36.027,34.55c0.206-0.022,0.564-0.163,0.661-0.412"/>
				<path style="fill:none;stroke:#000000;stroke-width:0.0351;" d="M36.591,34.301c0.174,0.098,0.293,0.303,0.271,0.542"/>
				<path style="fill:none;stroke:#000000;stroke-width:0.0351;" d="M36.862,34.669c0.206-0.011,0.39-0.119,0.444-0.347"/>
				<path style="fill:none;stroke:#000000;stroke-width:0.0351;" d="M37.252,34.474c0.152,0.054,0.336,0.228,0.347,0.434"/>
				<path style="fill:none;stroke:#000000;stroke-width:0.0351;" d="M37.577,34.777c0.152-0.022,0.26-0.119,0.358-0.271"/>
				<path style="fill:none;stroke:#000000;stroke-width:0.0351;" d="M38.347,34.485c0.195,0.195-0.065,0.846-0.466,0.726"/>
				<path style="fill:none;stroke:#000000;stroke-width:0.0351;" d="M34.185,21.348c-0.401,0.238-1.539,0.163-0.976-0.78"/>
				<path style="fill:none;stroke:#000000;stroke-width:0.0351;" d="M34.293,20.708c-0.791,0.314-1.767-0.293-0.748-0.954"/>
				<path style="fill:none;stroke:#000000;stroke-width:0.0351;" d="M33.274,19.538c-0.661,0-1.106,1.062-0.217,1.431"/>
				<path style="fill:none;stroke:#000000;stroke-width:0.0351;" d="M30.705,19.982c-0.173,0.336,0.444,0.705,0.867,0.369
					c0.327-0.26,0.303-0.965,0.108-1.236"/>
				<path style="fill:none;stroke:#000000;stroke-width:0.0351;" d="M30.369,20.784c-0.217,0.715,1.377,0.759,1.127-0.379"/>
				<path style="fill:none;stroke:#000000;stroke-width:0.0351;" d="M30.283,21.847c0.054,0.542,1.528,0.369,1.051-0.726"/>
				<path style="fill:none;stroke:#000000;stroke-width:0.0351;" d="M31.507,20.817c0.119,0.163,0.444,0.444,0.997,0.39"/>
				<path style="fill:none;stroke:#000000;stroke-width:0.0351;" d="M31.767,20.047c0.049,0.195,0.379,0.347,0.802,0.201"/>
				<path style="fill:none;stroke:#000000;stroke-width:0.0351;" d="M16.978,36.539c-0.374,0.266,0.201,0.683,0.412,0.222"/>
				<path style="fill:none;stroke:#000000;stroke-width:0.0351;" d="M16.685,36.745c-0.374,0.265,0.201,0.683,0.412,0.222"/>
				<path style="fill:none;stroke:#000000;stroke-width:0.0351;" d="M16.376,36.946c-0.374,0.266,0.2,0.683,0.412,0.222"/>
				<path style="fill:none;stroke:#000000;stroke-width:0.0351;" d="M16.05,37.13c-0.358,0.19,0.06,0.656,0.423,0.244"/>
				<path style="fill:none;stroke:#000000;stroke-width:0.0351;" d="M15.698,37.309c-0.358,0.189,0.06,0.656,0.423,0.244"/>
				<path style="fill:none;stroke:#000000;stroke-width:0.0351;" d="M17.514,36.75c-0.005,0.276,0.52,0.39,0.71-0.022"/>
				<path style="fill:none;stroke:#000000;stroke-width:0.0351;" d="M17.845,37.006c-0.163,0.206,0.136,0.461,0.298,0.368"/>
				<path style="fill:none;stroke:#000000;stroke-width:0.0351;" d="M17.145,36.967c-0.016,0.233,0.439,0.369,0.661,0.114"/>
				<path style="fill:none;stroke:#000000;stroke-width:0.0351;" d="M17.395,37.212c-0.146,0.19,0.141,0.444,0.325,0.368"/>
				<path style="fill:none;stroke:#000000;stroke-width:0.0351;" d="M16.842,37.179c0.016,0.184,0.276,0.396,0.558,0.276"/>
				<path style="fill:none;stroke:#000000;stroke-width:0.0351;" d="M17.01,37.428c-0.108,0.098-0.054,0.325,0.098,0.396"/>
				<path style="fill:none;stroke:#000000;stroke-width:0.0351;" d="M16.446,37.412c-0.043,0.168,0.244,0.466,0.537,0.271"/>
				<path style="fill:none;stroke:#000000;stroke-width:0.0351;" d="M16.506,37.607c-0.173,0.136-0.152,0.341,0.07,0.368"/>
				<path style="fill:none;stroke:#000000;stroke-width:0.0351;" d="M16.089,37.585c-0.022,0.114,0.125,0.298,0.309,0.276"/>
				<path style="fill:none;stroke:#000000;stroke-width:0.0351;" d="M15.162,37.574c-0.173,0.092,0.271,0.564,0.547,0.125"/>
				<path style="fill:none;stroke:#000000;stroke-width:0.0351;" d="M14.733,37.769c-0.217,0.103,0.32,0.623,0.558,0.092"/>
				<path style="fill:none;stroke:#000000;stroke-width:0.0351;" d="M16.137,37.748c-0.168,0.038-0.276,0.282-0.136,0.379"/>
				<path style="fill:none;stroke:#000000;stroke-width:0.0351;" d="M15.59,37.834c-0.022,0.098,0.184,0.26,0.352,0.201"/>
				<path style="fill:none;stroke:#000000;stroke-width:0.0351;" d="M15.449,37.878c-0.163,0.103-0.076,0.39,0.114,0.347"/>
				<path style="fill:none;stroke:#000000;stroke-width:0.0351;" d="M14.869,38.067c-0.152,0.114-0.049,0.341,0.163,0.287"/>
				<path style="fill:none;stroke:#000000;stroke-width:0.0351;" d="M15.145,38.051c0.005,0.059,0.141,0.152,0.255,0.114"/>
				<path style="fill:none;stroke:#000000;stroke-width:0.0351;" d="M14.344,37.954c-0.19,0.081-0.179,0.558,0.461,0.298"/>
				<path style="fill:none;stroke:#000000;stroke-width:0.0351;" d="M13.915,38.143c-0.266,0.13-0.179,0.488,0.401,0.146"/>
				<path style="fill:none;stroke:#000000;stroke-width:0.0351;" d="M14.365,38.317c-0.07,0.054-0.146,0.293,0.119,0.2"/>
				<path style="fill:none;stroke:#000000;stroke-width:0.0351;" d="M13.878,38.43c-0.108,0.098-0.038,0.298,0.201,0.222"/>
				<path style="fill:none;stroke:#000000;stroke-width:0.0351;" d="M13.319,38.463c-0.195,0.114,0.233,0.266,0.52-0.038"/>
				<path style="fill:none;stroke:#000000;stroke-width:0.0351;" d="M13.449,38.604c-0.087,0.087-0.087,0.341,0.141,0.249"/>
				<path style="fill:none;stroke:#000000;stroke-width:0.0351;" d="M12.897,38.707c-0.13,0.098,0.092,0.228,0.499,0.049"/>
				<path style="fill:none;stroke:#000000;stroke-width:0.0351;" d="M13.059,38.848c-0.152,0.125-0.136,0.282,0.087,0.233"/>
				<path style="fill:none;stroke:#000000;stroke-width:0.0351;" d="M12.609,38.918c-0.168,0.152,0.076,0.255,0.369,0.13"/>
				<path style="fill:none;stroke:#000000;stroke-width:0.0351;" d="M12.614,39.087c-0.287,0.13-0.163,0.368,0.016,0.276"/>
				<path style="fill:none;stroke:#000000;stroke-width:0.0351;" d="M22.207,39.916c-0.067,0.143,0.152,0.26,0.358,0.228
					c0.198-0.031,0.387-0.194,0.238-0.423"/>
				<path style="fill:none;stroke:#000000;stroke-width:0.0351;" d="M22.814,40.003c0.195,0.152,0.542-0.022,0.542-0.249"/>
			</g>
			<g>
				<path style="fill:#FFFFFF;stroke:#000000;stroke-width:0.0351;" d="M34.77,17.034c-0.867-0.434-2.666-1.236-3.176-0.585
					c0.466-0.195,1.832,0.011,2.959,1.051L34.77,17.034L34.77,17.034z"/>
				<path style="fill:#FFFFFF;stroke:#000000;stroke-width:0.0351;" d="M35.296,16.988c-1.003-1.168-1.593-0.907-2.314-1.309
					c-0.677-0.378-1.756-0.455-1.965,0.146c0.99-0.482,1.898,0.259,2.456,0.349c0.766,0.123,1.199,0.716,1.423,0.988L35.296,16.988
					L35.296,16.988z"/>
				<path style="fill:#FFFFFF;stroke:#000000;stroke-width:0.0351;" d="M39.073,16.839c-0.52-1.192-1.633-0.881-2.125-1.387
					c-0.715-0.737-2.525-1.42-3.273-0.91c1.647-0.087,2.349,1.136,3.23,1.561C37.534,16.405,38.206,17.055,39.073,16.839
					L39.073,16.839z"/>
				<path style="fill:#FFFFFF;stroke:#000000;stroke-width:0.0351;" d="M37.122,16.709c-0.889-1.106-2.255-2.081-2.883-1.713
					c0.824,0.043,1.084,0.618,1.669,0.986C36.494,16.351,36.233,16.882,37.122,16.709z"/>
				<path style="fill:#FFFFFF;stroke:#000000;stroke-width:0.0351;" d="M32.894,18.66c-0.932-0.347-2.753-0.52-3.599,0.542
					C30.705,19.44,32.829,19.31,32.894,18.66z"/>
				<path style="fill:#FFFFFF;stroke:#000000;stroke-width:0.0351;" d="M32.721,19.072c-0.932-0.434-1.66,0.172-2.536,0.087
					c-1.669-0.163-2.861-0.065-3.013,0.737c0.954-0.856,2.558-0.152,3.208-0.325c0.65-0.173,3.057-0.022,3.815,0.303
					C33.805,19.397,33.198,19.267,32.721,19.072L32.721,19.072z"/>
				<path style="fill:#FFFFFF;stroke:#000000;stroke-width:0.0351;" d="M35.648,16.59c-0.217-0.715-0.206-1.474,0.867-1.42
					c-0.271-0.336-1.268-0.509-1.431,0.748c-1.181-0.867-2.471-1.019-2.71-0.271c0.607-0.52,1.55-0.141,2.677,1.138
					C35.149,16.73,35.409,16.622,35.648,16.59L35.648,16.59z"/>
				<path style="fill:#FFFFFF;stroke:#000000;stroke-width:0.0351;" d="M34.022,17.576c-0.672-0.434-1.583-1.138,0.011-1.42
					c-0.683-0.369-1.68-0.206-1.572,1.051c-1.821-0.737-3.129-0.488-3.404,0.238c-0.304,0.802,0.824,1.247,1.019,0.737
					c-0.206,0.087-0.91-0.152-0.542-0.607c0.369-0.455,2.257-0.113,4.054,0.824C34.087,18.66,35.8,18.617,34.022,17.576
					L34.022,17.576z"/>
				<path style="fill:#FFFFFF;stroke:#000000;stroke-width:0.0351;" d="M33.545,18.768c-0.518-1.059-2.2-0.098-2.539-1.123
					C30.542,19.148,33.397,18.316,33.545,18.768z"/>
				<path style="fill:#FFFFFF;stroke:#000000;stroke-width:0.0351;" d="M44.243,19.917c0.353,0.175,0.658-0.1,0.118-0.316
					c0.353,0.175,0.661-0.094,0.121-0.31c0.353,0.175,0.661-0.094,0.121-0.31C44.46,19.126,44.254,19.657,44.243,19.917
					L44.243,19.917z"/>
				<path style="fill:#FFFFFF;stroke:#000000;stroke-width:0.0351;" d="M44.427,17.88c0.781-0.824-0.065-1.106,0.889-1.951
					c0.781-0.692,0.149-1.153,0.889-1.691c0.238-0.173,0.759-0.52,0.802-0.867c0.314,0.78-0.976,0.889-0.889,2.146
					c0.055,0.801-0.486,0.731-0.694,2.081C45.381,17.88,45.186,18.508,44.427,17.88L44.427,17.88z"/>
				<path style="fill:#FFFFFF;stroke:#000000;stroke-width:0.0351;" d="M44.775,18.248c0.433-0.932,0.931-0.914,1.17-1.279
					c0.455-0.694,1.42,0.119,2.233-0.499c-0.141,0.878-1.236,0.564-1.712,1.127C45.989,18.161,45.598,18.421,44.775,18.248
					L44.775,18.248z"/>
				<path style="fill:#FFFFFF;stroke:#000000;stroke-width:0.0351;" d="M44.883,18.552c0.759-0.607,1.318-0.202,1.843-0.52
					c1.322-0.802,1.854,0.163,3.035-0.217c-0.314,0.759-2.06,0.108-2.818,0.672C46.184,19.05,43.517,19.592,44.883,18.552
					L44.883,18.552z"/>
				<path style="fill:#FFFFFF;stroke:#000000;stroke-width:0.0351;" d="M42.672,22.876c-0.011-0.347-0.336-0.791-0.791-0.845
					c-0.455-0.054-0.65-0.531-0.997-0.553c-0.347-0.022-0.575-0.715-1.052-0.705c-0.477,0.011-0.672,0.629,0.444,1.192
					C41.393,22.53,42.628,23.18,42.672,22.876L42.672,22.876z"/>
				<path style="fill:#FFFFFF;stroke:#000000;stroke-width:0.0351;" d="M41.263,23.169c-0.477,0.022-0.542,0.715-0.997,0.737
					c0.628,0.336,1.084-0.152,1.409-0.585L41.263,23.169L41.263,23.169z"/>
				<path style="fill:#FFFFFF;stroke:#000000;stroke-width:0.0351;" d="M41.653,23.255c-0.412,0.347-0.531,1.073,0.065,1.279
					c-0.358-0.493,0.629-0.715,0.325-1.171L41.653,23.255L41.653,23.255z"/>
				<path style="fill:#FFFFFF;stroke:#000000;stroke-width:0.0351;" d="M42.064,23.278c-0.325,0.629,0.509,0.705,0.293,1.181
					c0.477-0.108,0.553-1.008,0.119-1.247L42.064,23.278L42.064,23.278z"/>
				<path style="fill:#FFFFFF;stroke:#000000;stroke-width:0.0351;" d="M38.878,21.933c0.781-0.043,1.494,0.379,1.973,1.062
					c0.304,0.434,1.322,0.607,1.669,0.26c0.347-0.347,0.152-1.084-0.715-0.845c-0.217-0.369-0.846-0.238-1.149-0.542
					C40.352,21.565,39.181,20.697,38.878,21.933L38.878,21.933z"/>
				<path style="fill:#FFFFFF;stroke:#000000;stroke-width:0.0351;stroke-linecap:round;" d="M41.805,22.41
					c-0.206,0.043-0.271,0.401-0.141,0.585"/>
				<path style="fill:#FFFFFF;stroke:#000000;stroke-width:0.0351;stroke-linecap:round;" d="M42.249,22.627
					c0.065,0.108,0.022,0.26-0.011,0.336"/>
				<path style="fill:#FFFFFF;stroke:#000000;stroke-width:0.0351;stroke-linecap:round;" d="M40.114,21.966
					c0.401,0.022,0.477,0.314,0.91,0.423"/>
				<path style="fill:#FFFFFF;stroke:#000000;stroke-width:0.0351;" d="M39.849,20.98c1.385,0.347,2.484,0.65,3.166,1.041
					c0.681,0.39,1.737,0.499,2.66,0.238c0.923-0.26,2.704-0.499,2.616,0.65c0.484-0.574-0.132-1.192-1.363-1.301
					c0.022-0.564-0.581-1.073-1.015-0.737c0.401-0.054,0.747,0.694-0.044,0.997c0.154-0.564-0.407-1.073-0.989-0.824
					c0.374,0.108,0.752,0.735-0.084,0.976c-0.528,0.152-1.297-0.043-1.868-0.39C42.355,21.283,39.145,20.026,39.849,20.98
					L39.849,20.98z"/>
				<path style="fill:#FFFFFF;stroke:#000000;stroke-width:0.0351;" d="M43.344,20.416c-0.433,0.195-0.152,0.65-0.824,0.91
					c-0.672,0.26-1.138,0.856-0.986,1.366c0.455-0.997,1.257-0.954,1.539-1.344C43.355,20.958,43.767,20.384,43.344,20.416
					L43.344,20.416z"/>
				<path style="fill:#FFFFFF;stroke:#000000;stroke-width:0.0351;" d="M43.463,20.481c-0.022,0.791-0.644,0.503-0.401,1.615
					c0.076,0.347,0.217,0.91-0.022,1.474c0.699-0.509,0.249-1.58,0.564-1.984c0.152-0.195,0.347-0.499,0.423-0.759
					c-0.163,0.455-0.152,1.301,0.293,1.517c-0.358-0.846,0.965-1.539,0.054-2.515C44.243,20.069,43.831,20.492,43.463,20.481
					L43.463,20.481z"/>
				<path style="fill:#FFFFFF;stroke:#000000;stroke-width:0.0351;" d="M41.252,19.69c0.109,0.163,0.217,0.574,0.119,0.802
					c0.217-0.13,0.531-0.466,0.629-0.694c0.444,0.065,0.618,0.618,0.195,0.856c0.26,0,0.705,0,0.954-0.293
					C42.845,20.026,41.902,19.505,41.252,19.69L41.252,19.69z"/>
				<path style="fill:#FFFFFF;stroke:#000000;stroke-width:0.0351;" d="M34.51,18.135c-0.07-0.064-0.189-0.125-0.401-0.168
					c-0.656-0.135-0.317-0.726,0.241-0.721c1.192-1.301,1.861-0.298,3.314-0.71c0.508-0.144,0.857-0.102,1.134,0.018
					c0.65-0.434,1.413-0.312,1.966,0.197c0.061-0.098,0.144-0.172,0.26-0.204c0.509-0.141,0.921,0.293,1.062,0.856
					c0.397-0.074,0.85,0.123,1.149,0.394c0.413-0.212,0.697-0.222,0.802-0.003c0.369-0.173,0.846-0.282,1.085,0.303
					c0.238,0.585-0.564,0.412-0.694,1.648c-0.08,0.762-0.932,1.062-1.604,0.607c-1.075-0.728-2.124-0.845-2.645,0.26
					c-0.52,1.106-0.928,1.748-2.189,1.387c-0.455-0.13-1.041,0.043-1.409,0.542c-0.369,0.499-0.932,0.033-1.604,0.087
					c0.845-0.13,0.522-0.343,1.257-0.39c0.672-0.043,0.499-0.672,0.932-0.759c-1.691,0.434-1.626-0.195-3.013,0.238
					c0.607-0.78,1.561-0.347,2.038-0.802c-1.257-0.022-1.82-0.843-2.385-0.499c-0.889,0.542-0.499,2.085-2.818,1.951
					c-1.127-0.065-1.843,0.087-2.515,0.759c1.171-2.428,2.763-1.094,3.534-1.864c0.455-0.455,0.802-0.802,1.041-1.236
					c0.084-0.153,0.198-0.24,0.339-0.274C31.457,19.145,32.624,18.2,34.51,18.135L34.51,18.135z"/>
				<path style="fill:#FFFFFF;stroke:#000000;stroke-width:0.0351;stroke-linecap:round;" d="M44.036,17.793
					c0.029,0.061,0.045,0.14,0.045,0.238c0,0.477-0.715,0.499-0.759,1.203c-0.023,0.369-0.065,0.574-0.314,0.531
					c-0.249-0.043-0.466-0.434-0.228-0.889"/>
				<path style="fill:#FFFFFF;stroke:#000000;stroke-width:0.0351;" d="M34.867,17.424c-0.18-0.126-0.359-0.177-0.52-0.179"/>
				<path style="fill:#FFFFFF;stroke:#000000;stroke-width:0.0351;" d="M38.794,16.55c0.574,0.249,0.854,0.845,1.688,0.874
					c0.803,0.028,1.301,1.192,2.645,0.434c0.036-0.021,0.072-0.04,0.107-0.057"/>
				<path style="fill:#FFFFFF;stroke:#000000;stroke-width:0.0351;" d="M40.764,16.751c-0.12,0.19-0.147,0.456-0.114,0.69"/>
				<path style="fill:#FFFFFF;stroke:#000000;stroke-width:0.0351;" d="M38.141,19.202c-1.019,0-1.279,0.52-1.279,1.019
					c0,0.499,0.477,1.149,1.323,1.149c0.845,0,1.301-0.52,1.301-1.084C39.485,19.722,38.965,19.202,38.141,19.202L38.141,19.202z"/>
				<path style="fill:#FFFFFF;stroke:#000000;stroke-width:0.0351;" d="M38.325,21.348c-0.022-0.282-0.531-0.238-0.509-0.455
					c0.022-0.217,0.282-0.304,0.282-0.607c0-0.304,0.455-0.325,0.607-0.087c0.152,0.238,0.607,0.705,0.705,0.466"/>
				<path style="fill:#FFFFFF;stroke:#000000;stroke-width:0.0351;" d="M38.705,20.199c-0.238,0.238-0.347,0.726-0.033,1.106"/>
				<path style="fill:#FFFFFF;stroke:#000000;stroke-width:0.0351;" d="M39.03,20.568c-0.076,0.163-0.097,0.412-0.011,0.564"/>
				<path style="fill:none;stroke:#000000;stroke-width:0.0351;" d="M43.078,19.771c0.797,0.065,0.932-0.813,0.336-0.867"/>
				<path style="fill:none;stroke:#000000;stroke-width:0.0351;" d="M42.097,17.403c-0.276-0.352-0.91-0.471-0.921,0.276"/>
				<path style="fill:#FFFFFF;stroke:#000000;stroke-width:0.0351;" d="M41.1,18.53c-0.271-0.672-0.965-0.77-1.333-0.434
					c-0.307,0.28-0.314,1.008,0.347,1.16C40.341,18.985,40.786,18.628,41.1,18.53L41.1,18.53z"/>
				<path style="fill:#FFFFFF;stroke:#000000;stroke-width:0.0351;" d="M40.802,18.107c-0.39-0.347-0.965,0.309-0.444,0.91"/>
				<path style="fill:#FFFFFF;stroke:#000000;stroke-width:0.0351;" d="M33.379,19.749c0.261-0.062,0.643,0.066,1.229,0.341
					c0.369,0.173,1.474,0.542,2.168,0.173c-0.715,0.26-1.257-0.824-1.799-0.694c-0.542,0.13-1.534,0.331-1.951-0.065
					c1.019,0.065,1.567-0.742,2.731-0.043c0.325,0.195,0.737,0.325,1.106,0.304c-0.954-1.149-2.211-0.412-2.341-1.344
					c0.575,0.618,1.978-0.141,2.694,1.019"/>
				<path style="fill:#FFFFFF;stroke:#000000;stroke-width:0.0351;" d="M34.727,18.595c-0.134-0.167-0.074-0.333-0.217-0.465"/>
			</g>
			<path d="M42.097,17.403c-0.238-0.255-0.759-0.054-0.612,0.461C41.599,17.625,41.843,17.425,42.097,17.403z"/>
			<path d="M40.624,18.791c0.164-0.119,0.334-0.217,0.476-0.261c-0.078-0.193-0.191-0.338-0.32-0.44
				C40.656,18.004,40.299,18.483,40.624,18.791L40.624,18.791z"/>
			<g>
				<path style="fill:none;stroke:#000000;stroke-width:0.0351;stroke-linecap:round;" d="M39.983,17.912
					c-0.39-0.26-0.748-0.238-0.867-0.022c-0.282-0.011-0.515,0.195-0.526,0.607"/>
				<path style="fill:none;stroke:#000000;stroke-width:0.0351;stroke-linecap:round;" d="M39.192,18.671
					c-0.466-0.32-1.106-0.2-1.062,0.515"/>
				<path style="fill:none;stroke:#000000;stroke-width:0.0351;stroke-linecap:round;" d="M37.848,19.592
					c0.228-0.184,0.553-0.314,0.802,0.011"/>
				<path style="fill:none;stroke:#000000;stroke-width:0.0351;stroke-linecap:round;" d="M41.328,18.888
					c-0.087,0.119-0.152,0.303-0.011,0.585c-0.173-0.228-0.607-0.228-1.073,0.379"/>
				<path style="fill:none;stroke:#000000;stroke-width:0.0351;stroke-linecap:round;" d="M42.357,18.855
					c-0.564,0.065-0.553,0.434-0.098,0.596"/>
				<path style="fill:none;stroke:#000000;stroke-width:0.0351;stroke-linecap:round;" d="M38.347,17.478
					c-0.477-0.098-0.824,0.184-0.162,0.423"/>
				<path style="fill:none;stroke:#000000;stroke-width:0.0351;stroke-linecap:round;" d="M39.257,17.153
					c-0.672-0.163-0.943,0.011-0.64,0.163"/>
				<path style="fill:none;stroke:#000000;stroke-width:0.0351;stroke-linecap:round;" d="M37.317,19.852
					c-0.022,0.238,0.108,0.553,0.499,0.195"/>
				<path style="fill:none;stroke:#000000;stroke-width:0.0351;stroke-linecap:round;" d="M37.447,20.568
					c0,0.065-0.011,0.141-0.054,0.195"/>
				<path style="fill:none;stroke:#000000;stroke-width:0.0351;stroke-linecap:round;" d="M35.886,17.391
					c-0.412-0.119-0.488-0.499-0.011-0.466"/>
				<path style="fill:none;stroke:#000000;stroke-width:0.0351;stroke-linecap:round;" d="M35.745,18.269
					c-0.455-0.152-0.455-0.596-0.076-0.553"/>
				<path style="fill:none;stroke:#000000;stroke-width:0.0351;stroke-linecap:round;" d="M36.591,18.042
					c-0.531-0.13-0.553-0.499-0.151-0.444"/>
				<path style="fill:none;stroke:#000000;stroke-width:0.0351;stroke-linecap:round;" d="M36.656,16.915
					c-0.282-0.022-0.715,0.293,0.011,0.477"/>
				<path style="fill:none;stroke:#000000;stroke-width:0.0351;stroke-linecap:round;" d="M37.447,17.544
					c-0.661-0.098-0.65,0.173-0.26,0.347"/>
				<path style="fill:none;stroke:#000000;stroke-width:0.0351;stroke-linecap:round;" d="M37.946,16.915
					c-0.509-0.098-0.683,0.206-0.336,0.336"/>
				<path style="fill:none;stroke:#000000;stroke-width:0.0351;stroke-linecap:round;" d="M36.342,18.79
					c-0.125-0.103-0.228-0.596,0.368-0.45"/>
				<path style="fill:none;stroke:#000000;stroke-width:0.0351;stroke-linecap:round;" d="M37.577,18.638
					c-0.401-0.108-0.78,0.282-0.412,0.509"/>
				<path style="fill:none;stroke:#000000;stroke-width:0.0351;stroke-linecap:round;" d="M38.108,18.173
					c-0.423-0.076-0.78,0.043-0.553,0.195"/>
			</g>
			<path style="fill:#FFFFFF;stroke:#000000;stroke-width:0.0351;" d="M42.075,17.403c-0.238,0.044-0.452,0.184-0.59,0.461"/>
		</g>
	</g>
</g>
</svg>
