<?xml version="1.0" encoding="iso-8859-1"?>
<!-- Generator: Adobe Illustrator 18.1.1, SVG Export Plug-In . SVG Version: 6.00 Build 0)  -->
<svg version="1.1" id="Layer_179" xmlns="http://www.w3.org/2000/svg" xmlns:xlink="http://www.w3.org/1999/xlink" x="0px" y="0px"
	 viewBox="0 0 56.692 56.692" style="enable-background:new 0 0 56.692 56.692;" xml:space="preserve">
<g>
	<defs>
		<circle id="SVGID_1_" cx="28.346" cy="28.347" r="28.346"/>
	</defs>
	<clipPath id="SVGID_2_">
		<use xlink:href="#SVGID_1_"  style="overflow:visible;"/>
	</clipPath>
	<g style="clip-path:url(#SVGID_2_);">
		<rect x="-0.001" y="0" style="fill:#C8313E;" width="113.386" height="56.693"/>
		<rect x="-0.001" y="37.795" style="fill:#4AA657;" width="113.386" height="18.898"/>
		<rect x="-0.001" y="0" style="fill:#FFFFFF;" width="12.598" height="56.693"/>
		<g id="h">
			<g id="q" transform="scale(5.304347826,9)">
				<path style="fill:#C8313E;" d="M0.413,0h0.31v0.103h0.103v0.103h0.103V0.31h0.103v0.103h0.103v0.103H1.033V0.62H0.929v0.103
					H0.826v0.103H0.723v0.103H0.619v0.103H0.516V0.929H0.413V0.826H0.31V0.723H0.206V0.62H0.103V0.516H0V0.413h0.103V0.31h0.103
					V0.207H0.31V0.103h0.103V0z M0.516,0.207h0.103V0.31h0.103v0.103h0.103v0.103H0.723V0.62H0.619v0.103H0.516V0.62H0.413V0.516
					H0.31V0.413h0.103V0.31h0.103V0.207z M0.516,0.413h0.103v0.103H0.516V0.413z M0,0.103h0.103v0.103H0V0.103z M0,0.723h0.103
					v0.103H0V0.723z M1.136,0h0.062v0.207H1.136V0z M1.136,0.723h0.062v0.207H1.136V0.723z M0.206,0.929H0.31v0.103h0.103v0.103
					h0.103v0.103H0.413v0.103H0.31v0.103H0.206V1.342H0.103V1.239H0V1.136h0.103V1.033h0.103V0.929z M0.206,1.136H0.31v0.103H0.206
					V1.136z M0.826,0.929h0.103v0.103h0.103v0.103h0.103v0.103H1.033v0.103H0.929v0.103H0.826V1.342H0.723V1.239H0.619V1.136h0.103
					V1.033h0.103V0.929z M0.826,1.136h0.103v0.103H0.826V1.136z M0,1.549h0.103v0.103H0V1.549z M1.136,1.446h0.062v0.207H1.136
					V1.446z"/>
				<path style="fill:#C8313E;" d="M0,1.859h0.103V1.756h0.103V1.652H0.31V1.549h0.103V1.446h0.103V1.342h0.103v0.103h0.103v0.103
					h0.103v0.103h0.103v0.103h0.103v0.103h0.103v0.103h0.062v0.413H1.136v0.103H1.033v0.103H0.929v0.103H0.826v0.103H0.723v0.103
					H0.619V3.16H0.413V3.098H0.31V2.995H0.206V2.891H0.103V2.788H0v-0.31h0.103v0.103h0.103v0.103H0.31v0.103h0.103V2.685h0.103
					V2.582h0.103V2.478h0.103V2.375h0.103V2.272h0.103V2.169H0.826V2.065H0.723V1.962h-0.31v0.103h0.207v0.103H0.516v0.103H0.413
					v0.103H0.31V2.272H0.206V2.169H0.103V2.065H0V1.859z M0,2.272h0.103v0.103H0V2.272z M1.136,2.582h0.062v0.103H1.136V2.582z
					 M0.929,2.788h0.103v0.103h0.103v0.103h0.062V3.16H1.136V3.098H1.033V2.995H0.929V2.788z M0.723,3.098h0.103V3.16H0.723V3.098z"
					/>
			</g>
			<g transform="translate(122,0) scale(-1,1)">
				<g id="q_1_" transform="scale(5.304347826,9)">
					<path style="fill:#C8313E;" d="M1.962,0h-0.31v0.103H1.549v0.103H1.446V0.31H1.342v0.103H1.239v0.103h0.103V0.62h0.103v0.103
						h0.103v0.103h0.103v0.103h0.103v0.103h0.103V0.929h0.103V0.826h0.103V0.723h0.103V0.62h0.103V0.516h0.103V0.413H2.272V0.31
						H2.168V0.207H2.065V0.103H1.962V0z M1.859,0.207H1.755V0.31H1.652v0.103H1.549v0.103h0.103V0.62h0.103v0.103h0.103V0.62h0.103
						V0.516h0.103V0.413H1.962V0.31H1.859V0.207z M1.859,0.413H1.755v0.103h0.103V0.413z M2.375,0.103H2.272v0.103h0.103V0.103z
						 M2.375,0.723H2.272v0.103h0.103V0.723z M1.239,0H1.177v0.207h0.062V0z M1.239,0.723H1.177v0.207h0.062V0.723z M2.168,0.929
						H2.065v0.103H1.962v0.103H1.859v0.103h0.103v0.103h0.103v0.103h0.103V1.342h0.103V1.239h0.103V1.136H2.272V1.033H2.168V0.929z
						 M2.168,1.136H2.065v0.103h0.103V1.136z M1.549,0.929H1.446v0.103H1.342v0.103H1.239v0.103h0.103v0.103h0.103v0.103h0.103
						V1.342h0.103V1.239h0.103V1.136H1.652V1.033H1.549V0.929z M1.549,1.136H1.446v0.103h0.103V1.136z M2.375,1.549H2.272v0.103
						h0.103V1.549z M1.239,1.446H1.177v0.207h0.062V1.446z"/>
					<path style="fill:#C8313E;" d="M2.375,1.859H2.272V1.756H2.168V1.652H2.065V1.549H1.962V1.446H1.859V1.342H1.755v0.103H1.652
						v0.103H1.549v0.103H1.446v0.103H1.342v0.103H1.239v0.103H1.177v0.413h0.062v0.103h0.103v0.103h0.103v0.103h0.103v0.103h0.103
						v0.103h0.103V3.16h0.207V3.098h0.103V2.995h0.103V2.891h0.103V2.788h0.103v-0.31H2.272v0.103H2.168v0.103H2.065v0.103H1.962
						V2.685H1.859V2.582H1.755V2.478H1.652V2.375H1.549V2.272H1.446V2.169h0.103V2.065h0.103V1.962h0.31v0.103H1.755v0.103h0.103
						v0.103h0.103v0.103h0.103V2.272h0.103V2.169h0.103V2.065h0.103V1.859z M2.375,2.272H2.272v0.103h0.103V2.272z M1.239,2.582
						H1.177v0.103h0.062V2.582z M1.446,2.788H1.342v0.103H1.239v0.103H1.177V3.16h0.062V3.098h0.103V2.995h0.103V2.788z
						 M1.652,3.098H1.549V3.16h0.103V3.098z"/>
				</g>
			</g>
		</g>
		<g>
			<g id="h_1_">
				<g id="q_2_" transform="scale(5.304347826,9)">
					<path style="fill:#C8313E;" d="M0.413,6.299h0.31V6.196h0.103V6.093h0.103V5.989h0.103V5.886h0.103V5.783H1.033V5.68H0.929
						V5.576H0.826V5.473H0.723V5.37H0.619V5.267H0.516V5.37H0.413v0.103H0.31v0.103H0.206V5.68H0.103v0.103H0v0.103h0.103v0.103
						h0.103v0.103H0.31v0.103h0.103V6.299z M0.516,6.093h0.103V5.989h0.103V5.886h0.103V5.783H0.723V5.68H0.619V5.576H0.516V5.68
						H0.413v0.103H0.31v0.103h0.103v0.103h0.103V6.093z M0.516,5.886h0.103V5.783H0.516V5.886z M0,6.196h0.103V6.093H0V6.196z
						 M0,5.576h0.103V5.473H0V5.576z M1.136,6.299h0.062V6.093H1.136V6.299z M1.136,5.576h0.062V5.37H1.136V5.576z M0.206,5.37H0.31
						V5.267h0.103V5.163h0.103V5.06H0.413V4.957H0.31V4.853H0.206v0.103H0.103V5.06H0v0.103h0.103v0.103h0.103V5.37z M0.206,5.163
						H0.31V5.06H0.206V5.163z M0.826,5.37h0.103V5.267h0.103V5.163h0.103V5.06H1.033V4.957H0.929V4.853H0.826v0.103H0.723V5.06
						H0.619v0.103h0.103v0.103h0.103V5.37z M0.826,5.163h0.103V5.06H0.826V5.163z M0,4.75h0.103V4.647H0V4.75z M1.136,4.853h0.062
						V4.647H1.136V4.853z"/>
					<path style="fill:#C8313E;" d="M0,4.44h0.103v0.103h0.103v0.103H0.31V4.75h0.103v0.103h0.103v0.103h0.103V4.853h0.103V4.75
						h0.103V4.647h0.103V4.544h0.103V4.44h0.103V4.337h0.062V3.924H1.136V3.821H1.033V3.718H0.929V3.614H0.826V3.511H0.723V3.408
						H0.619V3.139H0.413v0.062H0.31v0.103H0.206v0.103H0.103v0.103H0v0.31h0.103V3.718h0.103V3.614H0.31V3.511h0.103v0.103h0.103
						v0.103h0.103v0.103h0.103v0.103h0.103v0.103h0.103v0.103H0.826v0.103H0.723v0.103h-0.31V4.234h0.207V4.131H0.516V4.027H0.413
						V3.924H0.31v0.103H0.206v0.103H0.103v0.103H0V4.44z M0,4.027h0.103V3.924H0V4.027z M1.136,3.718h0.062V3.614H1.136V3.718z
						 M0.929,3.511h0.103V3.408h0.103V3.305h0.062V3.139H1.136v0.062H1.033v0.103H0.929V3.511z M0.723,3.201h0.103V3.139H0.723
						V3.201z"/>
				</g>
				<g transform="translate(0,549) scale(1,-1)">
					<g id="q_3_" transform="scale(5.304347826,9)">
						<path style="fill:#C8313E;" d="M1.962,6.299h-0.31V6.196H1.549V6.093H1.446V5.989H1.342V5.886H1.239V5.783h0.103V5.68h0.103
							V5.576h0.103V5.473h0.103V5.37h0.103V5.267h0.103V5.37h0.103v0.103h0.103v0.103h0.103V5.68h0.103v0.103h0.103v0.103H2.272
							v0.103H2.168v0.103H2.065v0.103H1.962V6.299z M1.859,6.093H1.755V5.989H1.652V5.886H1.549V5.783h0.103V5.68h0.103V5.576h0.103
							V5.68h0.103v0.103h0.103v0.103H1.962v0.103H1.859V6.093z M1.859,5.886H1.755V5.783h0.103V5.886z M2.375,6.196H2.272V6.093
							h0.103V6.196z M2.375,5.576H2.272V5.473h0.103V5.576z M1.239,6.299H1.177V6.093h0.062V6.299z M1.239,5.576H1.177V5.37h0.062
							V5.576z M2.168,5.37H2.065V5.267H1.962V5.163H1.859V5.06h0.103V4.957h0.103V4.853h0.103v0.103h0.103V5.06h0.103v0.103H2.272
							v0.103H2.168V5.37z M2.168,5.163H2.065V5.06h0.103V5.163z M1.549,5.37H1.446V5.267H1.342V5.163H1.239V5.06h0.103V4.957h0.103
							V4.853h0.103v0.103h0.103V5.06h0.103v0.103H1.652v0.103H1.549V5.37z M1.549,5.163H1.446V5.06h0.103V5.163z M2.375,4.75H2.272
							V4.647h0.103V4.75z M1.239,4.853H1.177V4.647h0.062V4.853z"/>
						<path style="fill:#C8313E;" d="M2.375,4.44H2.272v0.103H2.168v0.103H2.065V4.75H1.962v0.103H1.859v0.103H1.755V4.853H1.652
							V4.75H1.549V4.647H1.446V4.544H1.342V4.44H1.239V4.337H1.177V3.924h0.062V3.821h0.103V3.718h0.103V3.614h0.103V3.511h0.103
							V3.408h0.103V3.139h0.207v0.062h0.103v0.103h0.103v0.103h0.103v0.103h0.103v0.31H2.272V3.718H2.168V3.614H2.065V3.511H1.962
							v0.103H1.859v0.103H1.755v0.103H1.652v0.103H1.549v0.103H1.446v0.103h0.103v0.103h0.103v0.103h0.31V4.234H1.755V4.131h0.103
							V4.027h0.103V3.924h0.103v0.103h0.103v0.103h0.103v0.103h0.103V4.44z M2.375,4.027H2.272V3.924h0.103V4.027z M1.239,3.718
							H1.177V3.614h0.062V3.718z M1.446,3.511H1.342V3.408H1.239V3.305H1.177V3.139h0.062v0.062h0.103v0.103h0.103V3.511z
							 M1.652,3.201H1.549V3.139h0.103V3.201z"/>
					</g>
				</g>
			</g>
		</g>
	</g>
</g>
</svg>
