<?xml version="1.0" encoding="iso-8859-1"?>
<!-- Generator: Adobe Illustrator 18.1.1, SVG Export Plug-In . SVG Version: 6.00 Build 0)  -->
<svg version="1.1" id="Layer_212" xmlns="http://www.w3.org/2000/svg" xmlns:xlink="http://www.w3.org/1999/xlink" x="0px" y="0px"
	 viewBox="0 0 56.692 56.692" style="enable-background:new 0 0 56.692 56.692;" xml:space="preserve">
<g>
	<defs>
		<path id="SVGID_1_" d="M56.692,28.349c0,15.654-12.689,28.344-28.344,28.344C12.689,56.692,0,44.003,0,28.349
			C0,12.69,12.689,0,28.349,0C44.003,0,56.692,12.69,56.692,28.349z"/>
	</defs>
	<clipPath id="SVGID_2_">
		<use xlink:href="#SVGID_1_"  style="overflow:visible;"/>
	</clipPath>
	<rect x="10.282" y="-7.344" style="clip-path:url(#SVGID_2_);fill:#FFFFFF;" width="36.128" height="71.383"/>
	<rect x="46.41" y="-7.344" style="clip-path:url(#SVGID_2_);fill:#EB0000;" width="17.627" height="71.383"/>
	<rect x="-7.344" y="-7.344" style="clip-path:url(#SVGID_2_);fill:#EB0000;" width="17.626" height="71.383"/>
	<path style="clip-path:url(#SVGID_2_);fill:#EB0000;" d="M43.495,28.429c-2.938-0.751-1.682-2.228-1.21-6.125
		c-4.931,0.816-5.473,1.333-5.159-2.014c-1.546,1.401-3.216,4.592-4.43,5.48c-0.837,0.656-0.992-0.075-0.805-0.566
		c0.185-0.489,2.531-5.559,2.819-8.461c-2.752,1.817-3.936,0.587-6.364-5.157c-2.43,5.744-3.613,6.974-6.365,5.157
		c0.288,2.902,2.631,7.972,2.819,8.461c0.187,0.491,0.032,1.222-0.807,0.566c-1.212-0.888-2.882-4.079-4.43-5.48
		c0.316,3.347-0.226,2.83-5.157,2.014c0.47,3.897,1.727,5.374-1.21,6.125c7.004,6.272,7.52,6.862,4.753,9.669
		C23.712,37.455,27.623,36,27.623,36c0.375-0.132,0.292,0.205,0.292,0.548l-0.222,8.561l0.652-0.005l0.653,0.005l-0.225-8.561
		c0-0.344-0.083-0.68,0.292-0.548c0,0,3.913,1.455,9.674,2.098C35.975,35.291,36.49,34.701,43.495,28.429z"/>
</g>
</svg>
