<?xml version="1.0" encoding="iso-8859-1"?>
<!-- Generator: Adobe Illustrator 18.1.1, SVG Export Plug-In . SVG Version: 6.00 Build 0)  -->
<svg version="1.1" id="Layer_47" xmlns="http://www.w3.org/2000/svg" xmlns:xlink="http://www.w3.org/1999/xlink" x="0px" y="0px"
	 viewBox="0 0 56.692 56.692" style="enable-background:new 0 0 56.692 56.692;" xml:space="preserve">
<g>
	<defs>
		<circle id="SVGID_1_" cx="28.346" cy="28.345" r="28.347"/>
	</defs>
	<clipPath id="SVGID_2_">
		<use xlink:href="#SVGID_1_"  style="overflow:visible;"/>
	</clipPath>
	<rect x="-14.173" y="0" style="clip-path:url(#SVGID_2_);fill:#00247D;" width="85.039" height="56.693"/>
	<g style="clip-path:url(#SVGID_2_);">
		<polygon style="fill:#FFFFFF;" points="48.435,8.177 49.274,10.656 51.993,10.656 49.788,12.269 50.602,14.728 48.436,13.267 
			46.266,14.728 47.08,12.269 44.895,10.656 47.613,10.656 		"/>
		<polygon style="fill:#FFFFFF;" points="56.611,9.908 56.37,12.515 58.854,13.621 56.183,14.199 55.93,16.775 54.542,14.558 
			51.966,15.013 53.708,13.097 52.368,10.736 54.85,11.839 		"/>
		<polygon style="fill:#FFFFFF;" points="63.432,14.873 62.143,17.152 63.955,19.179 61.284,18.611 59.996,20.859 59.639,18.267 
			57.103,17.626 59.478,16.593 59.223,13.888 61.034,15.914 		"/>
		<polygon style="fill:#FFFFFF;" points="67.583,22.089 65.482,23.652 66.319,26.238 64.106,24.638 62.018,26.172 62.742,23.658 
			60.682,22.047 63.272,22.062 64.133,19.484 64.97,22.072 		"/>
		<polygon style="fill:#FFFFFF;" points="68.457,30.369 65.905,30.947 65.622,33.65 64.246,31.293 61.717,31.849 63.395,29.843 
			62.165,27.535 64.526,28.599 66.358,26.591 66.076,29.294 		"/>
		<polygon style="fill:#FFFFFF;" points="65.881,38.318 63.313,37.812 61.96,40.172 61.659,37.457 59.12,36.943 61.465,35.789 
			61.274,33.179 63.003,35.107 65.491,34.013 64.139,36.371 		"/>
		<polygon style="fill:#FFFFFF;" points="60.341,44.507 58.197,43.006 56.004,44.615 56.826,42.009 54.713,40.511 57.326,40.406 
			58.209,37.943 59.007,40.406 61.727,40.412 59.536,42.019 		"/>
		<polygon style="fill:#FFFFFF;" points="52.685,47.945 51.332,45.705 48.677,46.289 50.483,44.24 49.159,42.013 51.589,42.974 
			53.393,41.082 53.128,43.656 55.61,44.761 52.956,45.343 		"/>
		<polygon style="fill:#FFFFFF;" points="40.258,9.908 40.498,12.515 38.016,13.621 40.685,14.199 40.938,16.775 42.326,14.558 
			44.902,15.013 43.16,13.097 44.5,10.736 42.018,11.839 		"/>
		<polygon style="fill:#FFFFFF;" points="33.437,14.873 34.725,17.152 32.913,19.179 35.585,18.611 36.873,20.859 37.229,18.267 
			39.765,17.626 37.391,16.593 37.647,13.888 35.834,15.914 		"/>
		<polygon style="fill:#FFFFFF;" points="29.286,22.089 31.386,23.652 30.549,26.238 32.762,24.638 34.85,26.172 34.127,23.658 
			36.187,22.047 33.596,22.062 32.737,19.484 31.898,22.072 		"/>
		<polygon style="fill:#FFFFFF;" points="28.411,30.369 30.964,30.947 31.246,33.65 32.622,31.293 35.152,31.849 33.473,29.843 
			34.704,27.535 32.342,28.599 30.512,26.591 30.794,29.294 		"/>
		<polygon style="fill:#FFFFFF;" points="30.987,38.318 33.557,37.812 34.908,40.172 35.211,37.457 37.75,36.943 35.405,35.789 
			35.594,33.179 33.865,35.107 31.377,34.013 32.731,36.371 		"/>
		<polygon style="fill:#FFFFFF;" points="36.528,44.507 38.672,43.006 40.864,44.615 40.043,42.009 42.157,40.511 39.543,40.406 
			38.66,37.943 37.861,40.406 35.143,40.412 37.334,42.019 		"/>
		<polygon style="fill:#FFFFFF;" points="44.183,47.945 45.536,45.705 48.192,46.289 46.385,44.24 47.711,42.013 45.281,42.974 
			43.475,41.082 43.741,43.656 41.258,44.761 43.913,45.343 		"/>
	</g>
	<g style="clip-path:url(#SVGID_2_);">
		<rect x="-14.173" y="0" style="fill:#00247D;" width="40.508" height="24.691"/>
		<polygon style="fill:#FFFFFF;" points="26.334,0 20.913,0 10.035,6.754 10.035,0 1.968,0 1.968,6.75 -8.902,0 -14.173,0 
			-14.173,2.906 -5.589,8.236 -14.173,8.236 -14.173,16.453 -5.594,16.453 -14.173,21.777 -14.173,24.691 -8.912,24.691 
			1.968,17.937 1.968,24.691 10.035,24.691 10.035,17.939 20.905,24.691 26.334,24.691 26.334,21.882 17.592,16.453 26.334,16.453 
			26.334,8.236 17.598,8.236 26.334,2.814 		"/>
		<g>
			<g>
				<polygon style="fill:#CF142B;" points="-0.66,8.236 -13.924,0 -14.173,0 -14.173,1.744 -3.716,8.236 				"/>
			</g>
			<g>
				<polygon style="fill:#CF142B;" points="12.735,8.236 26.257,0 23.158,0 9.637,8.236 				"/>
			</g>
			<g>
				<path style="fill:#CF142B;" d="M8.488,9.793V0H3.664v9.793h-17.838c0,0,0.01,4.857,0.023,4.91l17.814,0.012v9.977h4.823v-9.977
					v-0.012h17.847v-4.91H8.488z"/>
			</g>
			<g>
				<polygon style="fill:#CF142B;" points="12.38,16.269 25.94,24.691 26.334,24.691 26.334,23.037 15.437,16.269 				"/>
			</g>
			<g>
				<polygon style="fill:#CF142B;" points="-0.503,16.269 -14.173,24.599 -14.173,24.691 -11.225,24.691 2.598,16.269 				"/>
			</g>
		</g>
	</g>
</g>
</svg>
