<?xml version="1.0" encoding="iso-8859-1"?>
<!-- Generator: Adobe Illustrator 18.1.1, SVG Export Plug-In . SVG Version: 6.00 Build 0)  -->
<svg version="1.1" id="Layer_135" xmlns="http://www.w3.org/2000/svg" xmlns:xlink="http://www.w3.org/1999/xlink" x="0px" y="0px"
	 viewBox="0 0 56.692 56.692" style="enable-background:new 0 0 56.692 56.692;" xml:space="preserve">
<g>
	<defs>
		<circle id="SVGID_1_" cx="28.346" cy="28.346" r="28.347"/>
	</defs>
	<clipPath id="SVGID_2_">
		<use xlink:href="#SVGID_1_"  style="overflow:visible;"/>
	</clipPath>
	<rect x="-0.001" y="0.001" style="clip-path:url(#SVGID_2_);fill:#DE2910;" width="56.693" height="56.691"/>
	<g style="clip-path:url(#SVGID_2_);">
		<polygon style="fill:#FFDC00;" points="21.946,18.508 23.873,24.204 30.117,24.204 25.056,27.909 26.929,33.557 21.949,30.198 
			16.964,33.557 18.835,27.909 13.814,24.204 20.06,24.204 		"/>
		<polygon style="fill:#FFDC00;" points="41.98,29.866 42.605,31.711 44.626,31.711 42.987,32.913 43.593,34.743 41.98,33.657 
			40.365,34.743 40.972,32.913 39.347,31.711 41.369,31.711 		"/>
		<polygon style="fill:#FFDC00;" points="40.623,21.456 42.003,22.833 43.814,21.936 42.878,23.737 44.232,25.108 42.306,24.85 
			41.339,26.54 41.074,24.631 39.082,24.274 40.897,23.381 		"/>
		<polygon style="fill:#FFDC00;" points="34.023,16.629 35.855,17.295 37.119,15.717 37.033,17.747 38.837,18.415 36.984,18.997 
			36.824,20.934 35.775,19.321 33.82,19.84 35.084,18.26 		"/>
		<polygon style="fill:#FFDC00;" points="34.023,36.668 35.855,37.335 37.119,35.754 37.033,37.784 38.837,38.454 36.984,39.036 
			36.824,40.975 35.775,39.358 33.82,39.877 35.084,38.299 		"/>
	</g>
</g>
</svg>
