<?xml version="1.0" encoding="utf-8"?>
<!-- Generator: Adobe Illustrator 18.1.1, SVG Export Plug-In . SVG Version: 6.00 Build 0)  -->
<!DOCTYPE svg PUBLIC "-//W3C//DTD SVG 1.1//EN" "http://www.w3.org/Graphics/SVG/1.1/DTD/svg11.dtd">
<svg version="1.1" id="Layer_209" xmlns="http://www.w3.org/2000/svg" xmlns:xlink="http://www.w3.org/1999/xlink" x="0px" y="0px"
	 width="56.7px" height="56.7px" viewBox="0 0 56.7 56.7" enable-background="new 0 0 56.7 56.7" xml:space="preserve">
<path fill="#CE1126" d="M0,28.3c0,3.2,0.5,6.3,1.5,9.1h53.7c1-2.9,1.5-5.9,1.5-9.1c0-3.2-0.5-6.3-1.5-9.1H1.5
	C0.5,22.1,0,25.2,0,28.3z"/>
<path fill="#FFFFFF" d="M1.5,19.2h53.7c-1.3-3.7-3.2-7-5.8-9.9H7.3C4.8,12.2,2.8,15.5,1.5,19.2z"/>
<path fill="#FFFFFF" d="M55.2,37.5H1.5c1.3,3.7,3.2,7,5.8,9.9h42.1C51.9,44.5,53.9,41.2,55.2,37.5z"/>
<path fill="#FFFFFF" d="M7.3,47.4h42.1c2.6-2.8,4.6-6.2,5.8-9.9H1.5C2.8,41.2,4.8,44.5,7.3,47.4z"/>
<path fill="#002B7F" d="M7.3,9.3h42.1C44.2,3.6,36.7,0,28.3,0C20,0,12.5,3.6,7.3,9.3z"/>
<path fill="#002B7F" d="M49.4,47.4H7.3c5.2,5.7,12.7,9.3,21,9.3C36.7,56.7,44.2,53.1,49.4,47.4z"/>
</svg>
