<?xml version="1.0" encoding="iso-8859-1"?>
<!-- Generator: Adobe Illustrator 18.1.1, SVG Export Plug-In . SVG Version: 6.00 Build 0)  -->
<svg version="1.1" id="Layer_125" xmlns="http://www.w3.org/2000/svg" xmlns:xlink="http://www.w3.org/1999/xlink" x="0px" y="0px"
	 viewBox="0 0 56.692 56.692" style="enable-background:new 0 0 56.692 56.692;" xml:space="preserve">
<g>
	<defs>
		<circle id="SVGID_1_" cx="28.346" cy="28.347" r="28.347"/>
	</defs>
	<clipPath id="SVGID_2_">
		<use xlink:href="#SVGID_1_"  style="overflow:visible;"/>
	</clipPath>
	<rect x="-15.173" y="0.05" style="clip-path:url(#SVGID_2_);fill:#081873;" width="85.038" height="56.592"/>
	<rect x="-8.37" y="28.345" style="clip-path:url(#SVGID_2_);fill:#FFFFFF;" width="85.038" height="14.039"/>
	<rect x="-8.37" y="32.802" style="clip-path:url(#SVGID_2_);fill:#DE3929;" width="85.038" height="4.82"/>
	<g style="clip-path:url(#SVGID_2_);">
		<polygon style="fill:#FFCE08;" points="30.831,21.083 29.179,22.302 29.794,24.16 28.155,23.059 26.517,24.16 27.134,22.302 
			25.481,21.083 27.536,21.083 28.155,19.212 28.776,21.083 		"/>
		<polygon style="fill:#FFCE08;" points="30.831,47.964 29.179,49.184 29.794,51.041 28.155,49.939 26.517,51.041 27.134,49.184 
			25.481,47.964 27.536,47.964 28.155,46.093 28.776,47.964 		"/>
		<polygon style="fill:#FFCE08;" points="22.894,23.833 21.241,25.052 21.856,26.91 20.218,25.809 18.579,26.91 19.196,25.052 
			17.544,23.833 19.599,23.833 20.218,21.962 20.839,23.833 		"/>
		<polygon style="fill:#FFCE08;" points="18.087,30.382 16.435,31.601 17.05,33.458 15.413,32.357 13.774,33.458 14.39,31.601 
			12.737,30.382 14.794,30.382 15.413,28.511 16.034,30.382 		"/>
		<polygon style="fill:#FFCE08;" points="43.65,30.382 41.998,31.601 42.613,33.458 40.975,32.357 39.336,33.458 39.953,31.601 
			38.301,30.382 40.355,30.382 40.975,28.511 41.596,30.382 		"/>
		<polygon style="fill:#FFCE08;" points="18.087,38.82 16.435,40.039 17.05,41.896 15.413,40.794 13.774,41.896 14.39,40.039 
			12.737,38.82 14.794,38.82 15.413,36.949 16.034,38.82 		"/>
		<polygon style="fill:#FFCE08;" points="43.65,38.82 41.998,40.039 42.613,41.896 40.975,40.794 39.336,41.896 39.953,40.039 
			38.301,38.82 40.355,38.82 40.975,36.949 41.596,38.82 		"/>
		<polygon style="fill:#FFCE08;" points="38.768,23.833 37.115,25.052 37.73,26.91 36.094,25.809 34.455,26.91 35.07,25.052 
			33.419,23.833 35.475,23.833 36.094,21.962 36.715,23.833 		"/>
		<polygon style="fill:#FFCE08;" points="22.894,45.49 21.241,46.708 21.856,48.566 20.218,47.464 18.579,48.566 19.196,46.708 
			17.544,45.49 19.599,45.49 20.218,43.619 20.839,45.49 		"/>
		<polygon style="fill:#FFCE08;" points="38.768,45.49 37.115,46.708 37.73,48.566 36.094,47.464 34.455,48.566 35.07,46.708 
			33.419,45.49 35.475,45.49 36.094,43.619 36.715,45.49 		"/>
	</g>
</g>
</svg>
