<?xml version="1.0" encoding="iso-8859-1"?>
<!-- Generator: Adobe Illustrator 18.1.1, SVG Export Plug-In . SVG Version: 6.00 Build 0)  -->
<svg version="1.1" id="Layer_164" xmlns="http://www.w3.org/2000/svg" xmlns:xlink="http://www.w3.org/1999/xlink" x="0px" y="0px"
	 viewBox="0 0 56.692 56.692" style="enable-background:new 0 0 56.692 56.692;" xml:space="preserve">
<g>
	<defs>
		<circle id="SVGID_1_" cx="28.346" cy="28.345" r="28.346"/>
	</defs>
	<clipPath id="SVGID_2_">
		<use xlink:href="#SVGID_1_"  style="overflow:visible;"/>
	</clipPath>
	<rect x="-14.173" y="0" style="clip-path:url(#SVGID_2_);fill:#FFFFFF;" width="85.039" height="56.693"/>
	<path style="clip-path:url(#SVGID_2_);fill:#FFC60A;" d="M13.876,23.679c0.221,0.154,1.045,0.279,1.949-0.279
		c0.904-0.557,0.451-1.488,2.064-1.338c0.722,0.067,1.705-0.556,2.321-0.576c0.616-0.018,1.038,0.687,1.53,0.662
		c0.492-0.023,1.211-0.273,1.392-0.939c0.428-2.178,0.674-1.639,0.73-2.088c0.057-0.448-0.166-1.234,0-1.357
		c0.166-0.123,0.205,0.06,0.592,0.383c0.387,0.322,2.152,0.291,2.644,0.557c0.492,0.266,3.803,0.463,4.28,0.66
		c0.478,0.199,1.452,0.185,1.949,0.035c0.497-0.148,0.831-0.742,1.078-0.695c0.247,0.047,0.146,0.283,1.079,0.242
		c0.934-0.039,0.973-0.684,1.531-0.799c0.559-0.115,1.621,0.105,2.262,0.033c0.641-0.07,0.123-0.34,0.452-0.416
		c0.329-0.076,0.503,0.092,1.174,0c0.671-0.091,0.688-0.738,0.984-0.697c0.296,0.043,0.474,0.221,0.939,0
		c1.169-0.613,0.872-1.488,1.149-1.6c0.52-0.139,0.807,0.492,1.53,0.348c0.724-0.142,1.047-0.922,1.74-1.078
		c0.693-0.156,0.901-0.147,1.253-0.383c0.352-0.236,1.123-0.787,1.427-0.765c0.304,0.021,0.571-0.353,0.766-0.245
		c0.194,0.109-0.942,0.799-1.069,1.079c-0.127,0.28-0.336,0.112-0.81,0.313c-0.474,0.201-1.132,1.168-1.357,1.426
		c-0.226,0.261-0.664,0-0.801,0.141c-0.137,0.141-0.63,0.662-1.113,1.078c-0.483,0.417-0.544-0.083-0.975,0.174
		c-0.431,0.258-0.329,0.557-0.661,0.695c-0.332,0.141-0.152-0.133-0.695,0.105c-0.543,0.238-1.139,1.662-1.497,1.809
		c-0.358,0.148-1.212-0.139-1.496-0.034c-0.284,0.104-1.113,1.456-1.003,2.323c0.11,0.865,1.055,1.537,1.246,1.713
		c0.191,0.178-0.082,0.273,0.07,0.592c0.152,0.32,0.154,0.119,0.372,0.312c0.218,0.195,0.147,0.561,0.393,0.766
		c0.246,0.205,0.434,0.348,0.668,0.602c0.234,0.254,0.125,0.875-0.047,0.844c-0.382-0.07-0.516-0.312-1.188-0.438
		c-0.672-0.125-1.149,0.064-1.328,0.297c-0.179,0.232-0.562,0.766-0.984,0.375c-0.719-0.703-1.344-0.922-2.062-1.016
		c-0.719-0.094-1.364,0.461-1.672,1.016c-0.308,0.555,0.066,1.762-0.451,2.045c-0.518,0.283-0.111,0.512-0.486,0.521
		c-0.375,0.012,0.012-0.426-0.627-0.277c-0.639,0.148-2.497,1.639-3.264,1.82s-3.427-0.045-4.391,0.156
		c-0.964,0.199-1.297,2.767-1.844,2.719c-0.547-0.047-1.331-2.205-1.775-2.469c-0.444-0.266-1.478-0.142-1.91,0.066
		c-0.433,0.211-1.816,0.293-2.207-0.098c-0.69-0.652-1.054-0.486-1.416-0.525c-0.362-0.041-0.587-0.408-0.836-0.488
		c-0.249-0.08-0.048-0.266-0.139-0.416c-0.091-0.152-0.628,0.168-0.975-0.313c-0.347-0.483,0.135-1.059-0.174-1.601
		c-0.309-0.541-0.556-0.742-0.696-1.219c-0.141-0.477,0.083-1.068,0-1.148c-0.375-0.246-0.535-0.334-0.592-0.662
		c-0.057-0.326,0.279-0.363,0.209-0.766c-0.07-0.402-1.211-1.101-0.904-1.67C12.515,22.623,13.656,23.523,13.876,23.679z"/>
	<path style="clip-path:url(#SVGID_2_);fill:#2B8401;" d="M36.977,38.263c0.347-0.316,0.651-0.654,0.918-1.006
		c0.218-0.035,0.884-0.186,1.396-0.758c0.508-0.566,0.679-1.635,0.679-1.635s-1.03,0.272-1.551,0.854
		c-0.479,0.536-0.577,1.166-0.597,1.426c-0.288,0.367-0.625,0.715-1.015,1.043c0.178-0.224,0.357-0.527,0.446-0.91
		c0.173-0.742-0.19-1.762-0.19-1.762s-0.773,0.734-0.95,1.494c-0.175,0.745,0.083,1.375,0.18,1.576
		c-0.405,0.301-0.839,0.588-1.306,0.859c0.225-0.225,0.514-0.594,0.642-1.109c0.184-0.74-0.165-1.764-0.165-1.764
		s-0.784,0.723-0.972,1.48c-0.186,0.742,0.064,1.377,0.158,1.578c-0.466,0.26-0.947,0.508-1.446,0.742
		c0.236-0.199,0.515-0.508,0.685-0.939c0.278-0.709,0.068-1.77,0.068-1.77s-0.872,0.613-1.158,1.341
		c-0.278,0.7-0.123,1.353-0.055,1.575c-0.521,0.234-1.048,0.461-1.577,0.675c0.24-0.179,0.516-0.442,0.711-0.825
		c0.346-0.678,0.238-1.754,0.238-1.754s-0.927,0.527-1.281,1.223c-0.346,0.674-0.252,1.342-0.205,1.566
		c-0.485,0.189-0.967,0.375-1.435,0.551c0.24-0.186,0.516-0.459,0.705-0.854c0.328-0.688,0.193-1.76,0.193-1.76
		s-0.913,0.551-1.25,1.254c-0.32,0.666-0.223,1.312-0.169,1.553c-0.85,0.318-1.648,0.615-2.337,0.898
		c-0.69-0.283-1.488-0.58-2.338-0.898c0.054-0.24,0.15-0.887-0.169-1.553c-0.337-0.703-1.25-1.254-1.25-1.254
		s-0.135,1.072,0.193,1.76c0.188,0.395,0.465,0.668,0.705,0.854c-0.469-0.176-0.95-0.361-1.435-0.551
		c0.046-0.225,0.141-0.893-0.206-1.566c-0.354-0.695-1.281-1.223-1.281-1.223s-0.107,1.076,0.238,1.754
		c0.194,0.383,0.47,0.646,0.712,0.825c-0.529-0.214-1.058-0.441-1.578-0.675c0.068-0.223,0.223-0.875-0.055-1.575
		c-0.286-0.728-1.158-1.341-1.158-1.341s-0.21,1.061,0.068,1.77c0.17,0.432,0.449,0.74,0.686,0.939
		c-0.5-0.234-0.981-0.482-1.447-0.742c0.094-0.201,0.344-0.836,0.158-1.578c-0.188-0.758-0.972-1.48-0.972-1.48
		s-0.349,1.023-0.165,1.764c0.128,0.516,0.417,0.885,0.643,1.109c-0.468-0.271-0.901-0.559-1.307-0.859
		c0.097-0.201,0.354-0.831,0.18-1.576c-0.177-0.76-0.95-1.494-0.95-1.494s-0.363,1.02-0.19,1.762c0.09,0.383,0.269,0.687,0.445,0.91
		c-0.389-0.328-0.725-0.676-1.014-1.043c-0.02-0.26-0.117-0.89-0.597-1.426c-0.52-0.582-1.551-0.854-1.551-0.854
		s0.171,1.068,0.679,1.635c0.512,0.572,1.178,0.723,1.396,0.758c0.267,0.352,0.571,0.689,0.918,1.006
		c-0.243-0.119-0.55-0.221-0.906-0.238c-0.779-0.041-1.698,0.5-1.698,0.5s0.88,0.631,1.64,0.67c0.773,0.037,1.352-0.336,1.525-0.463
		c0.398,0.312,0.823,0.611,1.28,0.891c-0.304-0.088-0.74-0.158-1.227-0.043c-0.759,0.182-1.489,0.959-1.489,0.959
		s1.021,0.359,1.762,0.182c0.753-0.18,1.204-0.703,1.335-0.873c0.459,0.266,0.935,0.521,1.428,0.762
		c-0.305-0.041-0.711-0.045-1.137,0.109c-0.734,0.264-1.372,1.117-1.372,1.117s1.054,0.242,1.769-0.016
		c0.695-0.25,1.081-0.779,1.211-0.986c0.497,0.232,1.001,0.455,1.507,0.666c-0.275-0.029-0.607-0.021-0.96,0.09
		c-0.744,0.236-1.415,1.064-1.415,1.064s1.044,0.281,1.769,0.053c0.706-0.225,1.113-0.74,1.251-0.941
		c0.484,0.198,0.963,0.385,1.434,0.568c-0.289-0.006-0.641,0.033-1.003,0.195c-0.713,0.318-1.288,1.217-1.288,1.217
		s1.069,0.164,1.765-0.146c0.634-0.283,0.98-0.795,1.115-1.037c0.662,0.258,1.297,0.504,1.878,0.746
		c-0.553,0.242-1.025,0.477-1.362,0.707c-0.163,0.18,0.021,0.422,0.193,0.314c0.441-0.273,1.006-0.543,1.638-0.818
		c0.631,0.275,1.195,0.545,1.637,0.818c0.172,0.107,0.356-0.135,0.193-0.314c-0.337-0.23-0.809-0.465-1.361-0.707
		c0.58-0.242,1.215-0.488,1.877-0.746c0.135,0.242,0.481,0.754,1.115,1.037c0.695,0.311,1.765,0.146,1.765,0.146
		s-0.575-0.898-1.288-1.217c-0.362-0.162-0.714-0.201-1.003-0.195c0.471-0.184,0.949-0.37,1.434-0.568
		c0.138,0.201,0.544,0.717,1.251,0.941c0.725,0.229,1.769-0.053,1.769-0.053s-0.671-0.828-1.415-1.064
		c-0.352-0.111-0.685-0.119-0.96-0.09c0.507-0.211,1.01-0.434,1.507-0.666c0.131,0.207,0.516,0.736,1.211,0.986
		c0.716,0.258,1.77,0.016,1.77,0.016s-0.638-0.854-1.372-1.117c-0.427-0.154-0.831-0.15-1.136-0.109
		c0.492-0.24,0.968-0.496,1.428-0.762c0.129,0.17,0.58,0.693,1.334,0.873c0.741,0.178,1.762-0.182,1.762-0.182
		s-0.73-0.777-1.489-0.959c-0.486-0.115-0.923-0.045-1.226,0.043c0.457-0.279,0.883-0.578,1.28-0.891
		c0.174,0.127,0.752,0.5,1.525,0.463c0.76-0.039,1.64-0.67,1.64-0.67s-0.919-0.541-1.698-0.5
		C37.527,38.043,37.221,38.144,36.977,38.263z"/>
</g>
</svg>
