<?xml version="1.0" encoding="utf-8"?>
<!-- Generator: Adobe Illustrator 18.1.1, SVG Export Plug-In . SVG Version: 6.00 Build 0)  -->
<!DOCTYPE svg PUBLIC "-//W3C//DTD SVG 1.1//EN" "http://www.w3.org/Graphics/SVG/1.1/DTD/svg11.dtd">
<svg version="1.1" id="Layer_179" xmlns="http://www.w3.org/2000/svg" xmlns:xlink="http://www.w3.org/1999/xlink" x="0px" y="0px"
	 width="56.7px" height="56.7px" viewBox="0 0 56.7 56.7" enable-background="new 0 0 56.7 56.7" xml:space="preserve">
<g>
	<defs>
		<circle id="SVGID_1_" cx="28.3" cy="28.3" r="28.3"/>
	</defs>
	<clipPath id="SVGID_2_">
		<use xlink:href="#SVGID_1_"  overflow="visible"/>
	</clipPath>
	<g clip-path="url(#SVGID_2_)">
		<g>
			<rect x="-28.3" y="0" fill="#006B3F" width="113.3" height="56.7"/>
			<rect x="21.3" y="0" fill="#FCD116" width="7.1" height="56.7"/>
			<rect x="-28.3" y="21.2" fill="#FCD116" width="113.3" height="7.1"/>
			<rect x="28.3" y="0" fill="#FFFFFF" width="7.1" height="56.7"/>
			<rect x="-28.3" y="28.3" fill="#FFFFFF" width="113.3" height="7.1"/>
			<rect x="26" y="0" width="4.7" height="56.7"/>
			<rect x="-28.3" y="26" width="113.3" height="4.7"/>
		</g>
		<circle fill="#D41C30" cx="28.3" cy="28.3" r="14.2"/>
		<path id="star" fill="#006B3F" stroke="#000000" stroke-width="9.442582e-02" d="M27.9,17.1l0.5-1.3l0.4,1.3l1.4,0L29,18l0.5,1.4
			l-1.2-0.9l-1.2,0.8l0.5-1.4l-1.1-0.8L27.9,17.1z"/>
		<path id="star_1_" fill="#006B3F" stroke="#000000" stroke-width="9.442582e-02" d="M28.8,39.5l-0.5,1.3l-0.4-1.3l-1.4,0l1.1-0.8
			l-0.5-1.4l1.2,0.9l1.2-0.8l-0.5,1.4l1.1,0.8L28.8,39.5z"/>
		<path id="star_2_" fill="#006B3F" stroke="#000000" stroke-width="9.442582e-02" d="M34.6,19l1.1-0.8l-0.4,1.3l1.1,0.8l-1.4,0
			l-0.4,1.4l-0.5-1.4l-1.4,0l1.2-0.8l-0.4-1.3L34.6,19z"/>
		<path id="star_3_" fill="#006B3F" stroke="#000000" stroke-width="9.442582e-02" d="M22.1,37.6L21,38.4l0.4-1.3l-1.1-0.8l1.4,0
			l0.4-1.4l0.5,1.4l1.4,0l-1.2,0.8l0.4,1.3L22.1,37.6z"/>
		<path id="star_4_" fill="#006B3F" stroke="#000000" stroke-width="9.442582e-02" d="M38.8,24.4l1.4,0l-1.1,0.8l0.4,1.3l-1.1-0.8
			l-1.2,0.9l0.5-1.4l-1.2-0.9l1.5,0l0.4-1.3L38.8,24.4z"/>
		<path id="star_5_" fill="#006B3F" stroke="#000000" stroke-width="9.442582e-02" d="M17.9,32.2l-1.4,0l1.1-0.8l-0.4-1.3l1.1,0.8
			l1.2-0.9L19,31.4l1.2,0.9l-1.5,0l-0.4,1.3L17.9,32.2z"/>
		<path id="star_6_" fill="#006B3F" stroke="#000000" stroke-width="9.442582e-02" d="M39.1,31.4l1.1,0.8l-1.3,0l-0.4,1.3L38,32.2
			l-1.5,0l1.2-0.9L37.2,30l1.2,0.9l1.1-0.8L39.1,31.4z"/>
		<path id="star_7_" fill="#006B3F" stroke="#000000" stroke-width="9.442582e-02" d="M17.6,25.3l-1.1-0.8l1.3,0l0.4-1.3l0.5,1.3
			l1.5,0L19,25.3l0.4,1.4l-1.2-0.9l-1.1,0.8L17.6,25.3z"/>
		<path id="star_8_" fill="#006B3F" stroke="#000000" stroke-width="9.442582e-02" d="M35.3,37.1l0.4,1.3l-1.1-0.8l-1.1,0.8l0.4-1.3
			l-1.2-0.9l1.5,0l0.5-1.4l0.4,1.4l1.3,0L35.3,37.1z"/>
		<path id="star_9_" fill="#006B3F" stroke="#000000" stroke-width="9.442582e-02" d="M21.4,19.5L21,18.2l1.1,0.8l1.1-0.8l-0.4,1.3
			l1.2,0.9l-1.5,0l-0.5,1.4l-0.4-1.4l-1.3,0L21.4,19.5z"/>
		<path fill="#006B3F" stroke="#000000" stroke-width="0.2361" d="M30,27.9c0.5,0,1,1.8,1.1,4.1c0.2,2.3-0.1,4.2-0.5,4.3
			c-0.5,0-1-1.8-1.1-4.1C29.3,29.9,29.5,28,30,27.9z"/>
		<path fill="#006B3F" stroke="#000000" stroke-width="0.2361" d="M30.8,27.9c0.5-0.1,1,1.8,1.2,4.1c0.2,2.3-0.1,4.2-0.6,4.3
			c-0.5,0.1-1-1.8-1.2-4.1S30.3,28,30.8,27.9z"/>
		<path fill="#006B3F" stroke="#000000" stroke-width="0.2361" d="M30.4,27.7c0.4,0,0.9,2,1,4.5s0,4.6-0.4,4.7c-0.4,0-0.9-2-1-4.5
			S30,27.7,30.4,27.7z"/>
		<path fill="#9C4A00" stroke="#000000" stroke-width="6.206609e-02" d="M24.2,34.2c0.7,0,0.4-0.4,0.8-0.6c0.4-0.2,0.9-0.1,1,0.2
			c0.2,0.3,0,0.5,0.2,0.5c0.2,0,5.7-0.2,5.9,0c0.2,0.2,0.2,0.6,0,0.8c-0.2,0.2-7.1,0.2-7.3,0.1C24.5,35,24.2,34.3,24.2,34.2z"/>
		<path fill="#FCD116" stroke="#000000" stroke-width="5.973377e-02" d="M28,34.8c0,0.5,0.8,0.4,0.8,0.8c0,0.5-1.4,0-1.4-0.9
			c0.1-0.9,1.4-1.3,1.4-0.8C28.8,34.4,28,34.2,28,34.8z"/>
		<path fill="#FCD116" stroke="#000000" stroke-width="5.973377e-02" d="M28.5,34.8c0,0.5,0.8,0.4,0.8,0.8c0,0.5-1.4,0-1.4-0.9
			c0.1-0.9,1.4-1.3,1.4-0.8C29.3,34.4,28.5,34.2,28.5,34.8z"/>
		<path fill="#FCD116" stroke="#000000" stroke-width="5.973377e-02" d="M29,34.8c0,0.5,0.8,0.4,0.8,0.8c0,0.5-1.4,0-1.4-0.9
			c0.1-0.9,1.4-1.3,1.4-0.8C29.8,34.4,29,34.2,29,34.8z"/>
		<path fill="#FCD116" stroke="#000000" stroke-width="5.973377e-02" d="M29.5,34.8c0,0.5,0.8,0.4,0.8,0.8c0,0.5-1.4,0-1.4-0.9
			c0.1-0.9,1.4-1.3,1.4-0.8C30.3,34.4,29.5,34.2,29.5,34.8z"/>
		
			<ellipse transform="matrix(2.104623e-02 -0.9998 0.9998 2.104623e-02 -3.5911 65.7135)" fill="#9C4A00" stroke="#000000" stroke-width="3.768535e-02" cx="31.8" cy="34.7" rx="0.5" ry="0.5"/>
		<path fill="#006B3F" stroke="#000000" stroke-width="0.2361" d="M28.9,32.2c0.2,0,0.5,0.3,0.5,0.8s-0.1,0.9-0.3,1
			c-0.2,0-0.5-0.3-0.5-0.8S28.7,32.3,28.9,32.2z"/>
		<path fill="#006B3F" stroke="#000000" stroke-width="0.2361" d="M28.2,32.2c0.2,0,0.5,0.3,0.5,0.8c0.1,0.5-0.1,0.9-0.3,1
			c-0.2,0-0.5-0.3-0.5-0.8C27.8,32.6,28,32.2,28.2,32.2z"/>
		<path fill="#006B3F" stroke="#000000" stroke-width="0.2361" d="M27.7,31.3c0.2,0,0.5,0.3,0.5,0.8c0.1,0.5-0.1,0.9-0.3,1
			c-0.2,0-0.5-0.3-0.5-0.8C27.3,31.7,27.5,31.3,27.7,31.3z"/>
		<path fill="#006B3F" stroke="#000000" stroke-width="0.2361" d="M28.4,31.1c0.2,0,0.4,0.4,0.5,0.9s-0.1,1-0.3,1.1
			c-0.2,0-0.4-0.4-0.5-0.9C28.1,31.7,28.2,31.2,28.4,31.1z"/>
		<path fill="#006B3F" stroke="#000000" stroke-width="0.2361" d="M29.4,31.2c0.2,0,0.4,0.4,0.5,0.9c0.1,0.5-0.1,1-0.3,1
			s-0.4-0.4-0.5-0.9C29,31.7,29.2,31.3,29.4,31.2z"/>
		<path fill="#006B3F" stroke="#000000" stroke-width="0.2361" d="M28.8,30.9c0.2,0,0.4,0.4,0.5,0.9c0.1,0.5-0.1,1-0.3,1
			s-0.4-0.4-0.5-0.9C28.5,31.4,28.6,30.9,28.8,30.9z"/>
		<path fill="#006B3F" stroke="#000000" stroke-width="0.2361" d="M28.2,30.4c0.2,0,0.4,0.4,0.5,0.9c0.1,0.5-0.1,1-0.3,1
			s-0.4-0.4-0.5-0.9C27.8,30.9,28,30.5,28.2,30.4z"/>
		<path fill="#006B3F" stroke="#000000" stroke-width="0.2361" d="M27.5,30.2c0.2,0,0.4,0.4,0.5,0.9c0.1,0.5-0.1,1-0.3,1
			c-0.2,0-0.4-0.4-0.5-0.9C27.2,30.6,27.3,30.2,27.5,30.2z"/>
		<path fill="#9461C9" stroke="#000000" stroke-width="5.428540e-02" d="M27,23.4c0,0-1.4,1.2-1.2,4.5c0.2,3.3,3.1,4.8,3.1,4.8
			s0.7-0.9,0.6-3.6c-0.2-3.8-1.6-5.5-1.6-5.5L27,23.4z"/>
		<path fill="#006B3F" stroke="#000000" stroke-width="0.2361" d="M30.1,32.3c0.2,0,0.4,0.4,0.3,0.9c0,0.5-0.3,0.9-0.5,0.9
			s-0.4-0.4-0.3-0.9C29.7,32.7,29.9,32.3,30.1,32.3z"/>
		<path fill="#006B3F" stroke="#000000" stroke-width="0.2361" d="M29.5,32.1c0.2,0,0.4,0.4,0.3,0.9c0,0.5-0.3,0.9-0.5,0.9
			c-0.2,0-0.4-0.4-0.3-0.9C29,32.5,29.2,32.1,29.5,32.1z"/>
		<path fill="#006B3F" stroke="#000000" stroke-width="0.2361" d="M29.1,31.2c0.2,0,0.4,0.4,0.3,0.9c0,0.5-0.3,0.9-0.5,0.9
			c-0.2,0-0.4-0.4-0.3-0.9C28.7,31.6,28.9,31.2,29.1,31.2z"/>
		<path fill="#006B3F" stroke="#000000" stroke-width="0.2361" d="M29.8,31.2c0.2,0,0.4,0.5,0.3,1c0,0.6-0.3,1-0.5,1
			c-0.2,0-0.4-0.5-0.3-1C29.4,31.6,29.6,31.2,29.8,31.2z"/>
		<path fill="#006B3F" stroke="#000000" stroke-width="0.2361" d="M30.8,31.4c0.2,0,0.4,0.4,0.3,0.9c0,0.5-0.2,0.9-0.5,0.9
			s-0.4-0.4-0.3-0.9C30.4,31.8,30.6,31.4,30.8,31.4z"/>
		<path fill="#006B3F" stroke="#000000" stroke-width="0.2361" d="M30.3,31c0.2,0,0.4,0.4,0.3,0.9c0,0.5-0.2,0.9-0.5,0.9
			s-0.4-0.4-0.3-0.9C29.9,31.4,30.1,31,30.3,31z"/>
		<path fill="#006B3F" stroke="#000000" stroke-width="0.2361" d="M29.7,30.4c0.2,0,0.4,0.4,0.3,0.9c0,0.5-0.2,0.9-0.5,0.9
			c-0.2,0-0.4-0.4-0.3-0.9C29.3,30.8,29.5,30.4,29.7,30.4z"/>
		<path fill="#006B3F" stroke="#000000" stroke-width="0.2361" d="M29.2,30c0.2,0,0.4,0.4,0.3,0.9c0,0.5-0.2,0.9-0.5,0.9
			c-0.2,0-0.4-0.4-0.3-0.9C28.8,30.5,29,30,29.2,30z"/>
		<path fill="#D41C30" stroke="#000000" stroke-width="9.442582e-02" d="M28.5,25.6c0.6-0.2,1.7,1.1,2.5,2.9
			c0.8,1.8,0.9,3.5,0.3,3.7c-0.6,0.2-1.7-1.1-2.5-2.9C28,27.5,27.9,25.9,28.5,25.6z"/>
		
			<ellipse transform="matrix(1.780209e-02 -0.9998 0.9998 1.780209e-02 2.9102 54.101)" fill="#006B3F" stroke="#000000" stroke-width="0.1382" cx="29" cy="25.6" rx="0.4" ry="0.5"/>
		
			<ellipse transform="matrix(1.780209e-02 -0.9998 0.9998 1.780209e-02 3.9218 53.8594)" fill="#006B3F" stroke="#000000" stroke-width="0.146" cx="29.4" cy="24.9" rx="0.4" ry="0.5"/>
		
			<ellipse transform="matrix(1.780209e-02 -0.9998 0.9998 1.780209e-02 3.3283 53.2334)" fill="#006B3F" stroke="#000000" stroke-width="0.146" cx="28.8" cy="24.9" rx="0.4" ry="0.5"/>
		
			<ellipse transform="matrix(1.780209e-02 -0.9998 0.9998 1.780209e-02 3.9272 52.9116)" fill="#006B3F" stroke="#000000" stroke-width="0.1473" cx="28.9" cy="24.5" rx="0.4" ry="0.5"/>
		
			<ellipse transform="matrix(1.780209e-02 -0.9998 0.9998 1.780209e-02 4.4072 52.3336)" fill="#006B3F" stroke="#000000" stroke-width="0.1473" cx="28.8" cy="23.9" rx="0.4" ry="0.5"/>
		
			<ellipse transform="matrix(1.780209e-02 -0.9998 0.9998 1.780209e-02 3.1101 52.2927)" fill="#006B3F" stroke="#000000" stroke-width="0.146" cx="28.2" cy="24.6" rx="0.4" ry="0.5"/>
		
			<ellipse transform="matrix(1.780209e-02 -0.9998 0.9998 1.780209e-02 3.8209 51.8648)" fill="#006B3F" stroke="#000000" stroke-width="0.1475" cx="28.3" cy="24" rx="0.4" ry="0.5"/>
		
			<ellipse transform="matrix(1.780209e-02 -0.9998 0.9998 1.780209e-02 3.0665 51.125)" fill="#006B3F" stroke="#000000" stroke-width="0.1382" cx="27.6" cy="24" rx="0.4" ry="0.5"/>
		
			<ellipse transform="matrix(1.780209e-02 -0.9998 0.9998 1.780209e-02 4.7314 51.3296)" fill="#006B3F" stroke="#000000" stroke-width="0.1473" cx="28.5" cy="23.3" rx="0.4" ry="0.5"/>
		
			<ellipse transform="matrix(1.780209e-02 -0.9998 0.9998 1.780209e-02 4.0241 50.7705)" fill="#006B3F" stroke="#000000" stroke-width="0.1475" cx="27.9" cy="23.3" rx="0.4" ry="0.5"/>
		
			<ellipse transform="matrix(1.780209e-02 -0.9998 0.9998 1.780209e-02 2.3846 50.4804)" fill="#006B3F" stroke="#000000" stroke-width="0.146" cx="26.9" cy="24" rx="0.4" ry="0.5"/>
		
			<ellipse transform="matrix(1.780209e-02 -0.9998 0.9998 1.780209e-02 2.8757 50.3095)" fill="#006B3F" stroke="#000000" stroke-width="0.1475" cx="27" cy="23.7" rx="0.4" ry="0.5"/>
		
			<ellipse transform="matrix(1.780209e-02 -0.9998 0.9998 1.780209e-02 3.4364 50.1391)" fill="#006B3F" stroke="#000000" stroke-width="0.1475" cx="27.2" cy="23.3" rx="0.4" ry="0.5"/>
		<path fill="#006B3F" stroke="#000000" stroke-width="0.2403" d="M28.5,24.5c0.8-0.3,2.2,1.3,3.1,3.4c0.9,2.2,1.1,4.1,0.3,4.4
			c-0.8,0.3-2.2-1.3-3.1-3.4S27.8,24.7,28.5,24.5z"/>
		<path fill="#006B3F" stroke="#000000" stroke-width="0.2361" d="M31.1,28.2c0.1-0.1,0.4,0.2,0.6,0.7c0.2,0.5,0.2,0.9,0.1,0.9
			c-0.1,0.1-0.4-0.2-0.6-0.7C31,28.7,30.9,28.3,31.1,28.2z"/>
		<path fill="#006B3F" stroke="#000000" stroke-width="5.428540e-02" d="M31.3,29.1c1.2,1.5,1.1,2.4,0.9,3.2c-0.4-0.9-0.6-1.5-1.8-3
			c-1.2-1.5-0.6-2.5-0.5-3.1C30.1,26.7,30.1,27.6,31.3,29.1z"/>
		<path fill="#006B3F" stroke="#000000" stroke-width="5.428540e-02" d="M31.4,30.3c1.2,1.5,1.1,2.4,0.9,3.2c-0.4-0.9-0.6-1.5-1.8-3
			S30,28,30,27.4C30.2,27.9,30.2,28.8,31.4,30.3z"/>
		<path fill="#006B3F" stroke="#000000" stroke-width="5.428540e-02" d="M31.5,31.2c1.2,1.4,1.1,2.4,1,3.2c-0.4-0.9-0.6-1.5-1.9-2.9
			c-1.2-1.4-0.7-2.5-0.6-3C30.2,28.9,30.2,29.8,31.5,31.2z"/>
		<path fill="#006B3F" stroke="#000000" stroke-width="0.1311" d="M30,26.2c0.3-0.1,0.8,0.5,1.2,1.3c0.4,0.8,0.4,1.5,0.1,1.6
			c-0.3,0.1-0.8-0.5-1.2-1.3C29.7,27,29.7,26.3,30,26.2z"/>
		<path fill="#006B3F" stroke="#000000" stroke-width="0.1548" d="M29.6,27.3c0.3,0,0.7,0.5,1,1.1c0.3,0.7,0.3,1.2,0,1.3
			c-0.3,0-0.7-0.5-1-1.1C29.4,27.9,29.4,27.3,29.6,27.3z"/>
		<path fill="#006B3F" stroke="#000000" stroke-width="0.1548" d="M29.1,27.8c0.3,0,0.7,0.5,0.9,1.1c0.3,0.7,0.3,1.2,0,1.3
			s-0.7-0.5-0.9-1.1C28.8,28.4,28.8,27.9,29.1,27.8z"/>
		<path fill="#006B3F" stroke="#000000" stroke-width="0.198" d="M29.6,26.1c0.2,0,0.6,0.3,0.8,0.8c0.2,0.5,0.3,0.9,0.1,1
			c-0.2,0-0.6-0.3-0.8-0.8C29.4,26.6,29.4,26.2,29.6,26.1z"/>
		<path fill="#006B3F" stroke="#000000" stroke-width="0.198" d="M29.2,26.5c0.2,0,0.5,0.4,0.7,0.9c0.2,0.5,0.2,0.9,0,1
			c-0.2,0-0.5-0.4-0.7-0.9S29,26.5,29.2,26.5z"/>
		<path fill="#006B3F" stroke="#000000" stroke-width="5.428540e-02" d="M29.2,26.8c0.4,0.9,0.5,1.7,0.3,1.8c-0.2,0.1-0.6-0.5-1-1.4
			"/>
		<path fill="#006B3F" stroke="#000000" stroke-width="0.198" d="M29.1,25.5c0.2,0,0.5,0.4,0.7,0.9c0.2,0.5,0.2,0.9,0,1
			c-0.2,0-0.5-0.4-0.7-0.9C28.9,25.9,28.9,25.5,29.1,25.5z"/>
		<path fill="#006B3F" stroke="#000000" stroke-width="0.198" d="M28.5,25.7c0.2,0,0.5,0.4,0.7,0.9c0.2,0.5,0.2,0.9,0,1
			c-0.2,0-0.5-0.4-0.7-0.9S28.3,25.8,28.5,25.7z"/>
		<path fill="#006B3F" stroke="#000000" stroke-width="5.428540e-02" d="M28.5,25.7c0.3,0.6,0.5,1.1,0.4,1.2
			c-0.1,0.1-0.5-0.3-0.8-0.9"/>
		<path fill="#006B3F" stroke="#000000" stroke-width="5.428540e-02" d="M28.8,25.3c0.3,0.6,0.5,1.1,0.4,1.2
			c-0.1,0.1-0.5-0.3-0.8-0.9"/>
		<path fill="#006B3F" stroke="#000000" stroke-width="5.428540e-02" d="M29.9,25.3c0.5,0.8,0.7,1.6,0.6,1.7
			c-0.2,0.1-0.7-0.4-1.2-1.2"/>
		<path fill="#006B3F" stroke="#000000" stroke-width="5.428540e-02" d="M29.1,24.9c0.3,0.7,0.5,1.3,0.4,1.4c-0.1,0.1-0.5-0.4-0.8-1
			"/>
		<path fill="#9461C9" stroke="#000000" stroke-width="5.575845e-02" d="M29.1,24c-0.2,0.2,0,0.7,0.2,0.8c0.2,0.2,1.6,1.6,2.5,0.4
			C31.1,25.2,29.7,23.5,29.1,24z"/>
		<path fill="#9461C9" stroke="#000000" stroke-width="5.575845e-02" d="M28.9,23.3c-0.2,0.2,0,0.7,0.2,0.8c0.2,0.2,1.6,1.6,2.5,0.4
			C30.9,24.5,29.5,22.8,28.9,23.3z"/>
		<path fill="#9461C9" stroke="#000000" stroke-width="5.575845e-02" d="M28.7,22.6c-0.2,0.2,0,0.7,0.2,0.8c0.2,0.2,1.6,1.6,2.5,0.4
			C30.7,23.9,29.3,22.1,28.7,22.6z"/>
		<path fill="#9461C9" stroke="#000000" stroke-width="5.575845e-02" d="M28.3,21.8c-0.2,0.2,0,0.7,0.2,0.8c0.2,0.2,1.6,1.6,2.5,0.4
			C30.3,23.1,28.8,21.3,28.3,21.8z"/>
		<path fill="#9461C9" stroke="#000000" stroke-width="5.926165e-02" d="M26.6,21.1c0.5-0.4,1.4-0.5,2-0.1c0.6,0.3,1.5,1.4,2.2,1.7
			c-0.5,0.1-0.8,0-1.1-0.1c-0.6,0.5-0.9,0.5-1.5,0.6c-0.9,0.1-1.7-0.1-1.9-0.6C26.1,22.2,26.2,21.4,26.6,21.1z"/>
		<ellipse fill="#D41C30" stroke="#000000" stroke-width="0.2361" cx="27.6" cy="21.8" rx="0.4" ry="0.2"/>
		
			<ellipse transform="matrix(-0.3478 -0.9376 0.9376 -0.3478 14.1842 55.4475)" fill="#FCD116" stroke="#000000" stroke-width="0.2361" cx="26.4" cy="22.8" rx="0.4" ry="0.6"/>
		<ellipse cx="27.6" cy="21.8" rx="0.1" ry="0.1"/>
		<path fill="#FCD116" stroke="#000000" stroke-width="6.910082e-02" d="M26.7,22.1c0,0.2-0.1,0.4-0.4,0.5c-0.3,0.1-0.5,0.4-0.7,0.9
			c-0.5-1.1-0.2-1.5,0.3-1.6C26.4,21.8,26.7,21.8,26.7,22.1z"/>
		<ellipse cx="26.3" cy="22.2" rx="0.1" ry="0.1"/>
	</g>
</g>
</svg>
