<?xml version="1.0" encoding="iso-8859-1"?>
<!-- Generator: Adobe Illustrator 18.1.1, SVG Export Plug-In . SVG Version: 6.00 Build 0)  -->
<svg version="1.1" id="Layer_73" xmlns="http://www.w3.org/2000/svg" xmlns:xlink="http://www.w3.org/1999/xlink" x="0px" y="0px"
	 viewBox="0 0 56.692 56.692" style="enable-background:new 0 0 56.692 56.692;" xml:space="preserve">
<g>
	<defs>
		<circle id="SVGID_1_" cx="28.346" cy="28.346" r="28.347"/>
	</defs>
	<clipPath id="SVGID_2_">
		<use xlink:href="#SVGID_1_"  style="overflow:visible;"/>
	</clipPath>
	<rect x="28.081" y="0" style="clip-path:url(#SVGID_2_);fill:#FFFFFF;" width="42.785" height="56.693"/>
	<rect x="-14.173" y="0" style="clip-path:url(#SVGID_2_);fill:#006233;" width="42.254" height="56.693"/>
	<polygon style="clip-path:url(#SVGID_2_);fill:#D21034;" points="36.211,21.733 36.298,26.71 41.224,28.283 36.296,29.931 
		36.353,34.857 33.269,30.956 28.494,32.346 31.39,28.364 28.365,24.176 33.29,25.75 	"/>
	<path style="clip-path:url(#SVGID_2_);fill:#D21034;" d="M32.119,39.766c-6.336,0-11.471-5.136-11.471-11.471
		c0-6.336,5.135-11.471,11.471-11.471c2.703,0,5.185,0.941,7.146,2.507c-2.594-3.134-6.515-5.131-10.9-5.131
		c-7.812,0-14.145,6.333-14.145,14.147c0,7.812,6.333,14.146,14.145,14.146c4.501,0,8.502-2.108,11.093-5.385
		C37.467,38.766,34.91,39.766,32.119,39.766z"/>
</g>
</svg>
