<?xml version="1.0" encoding="utf-8"?>
<!-- Generator: Adobe Illustrator 18.1.1, SVG Export Plug-In . SVG Version: 6.00 Build 0)  -->
<!DOCTYPE svg PUBLIC "-//W3C//DTD SVG 1.1//EN" "http://www.w3.org/Graphics/SVG/1.1/DTD/svg11.dtd">
<svg version="1.1" id="Layer_179" xmlns="http://www.w3.org/2000/svg" xmlns:xlink="http://www.w3.org/1999/xlink" x="0px" y="0px"
	 width="56.7px" height="56.7px" viewBox="0 0 56.7 56.7" enable-background="new 0 0 56.7 56.7" xml:space="preserve">
<path d="M55.1,38H1.6C5.5,49,16,56.9,28.3,56.9C40.7,56.9,51.2,49,55.1,38z"/>
<path fill="#FFFFFF" d="M0,28.5C0,31.8,0.6,35,1.6,38h53.5c1-3,1.6-6.2,1.6-9.5c0-3.3-0.6-6.5-1.6-9.5H1.6C0.6,22,0,25.2,0,28.5z"/>
<path fill="#CE1126" d="M1.6,19h53.5C51.2,8,40.7,0,28.4,0h0C16,0,5.5,8,1.6,19z"/>
<g>
	<path fill="#FFFFFF" stroke="#C09300" stroke-width="0.12" stroke-linejoin="round" d="M28.4,28.6l6.5,6l-0.5-10.9
		c-0.1-1.7-1.5-1.3-2.5-0.7c-1.1,0.7-2.3,0.7-3.5,0.2c-1.3,0.4-2.5,0.4-3.5-0.2c-1-0.6-2.5-1-2.5,0.7l-0.5,10.9L28.4,28.6L28.4,28.6
		z"/>
	<path fill="#C09300" d="M23,23.3l-0.4,10.6l-0.8,0.7l0.5-10.9C22.5,23.5,22.9,23.3,23,23.3L23,23.3z"/>
	<path fill="#C09300" d="M23.9,24.1l-0.4,8.9l-0.8,0.8l0.5-10.3C23.4,23.6,23.8,24,23.9,24.1L23.9,24.1z"/>
	<path fill="#C09300" d="M24.7,24.7l-0.3,7.4l-0.6,0.6l0.4-8.4C24.4,24.4,24.7,24.6,24.7,24.7L24.7,24.7z"/>
	<path fill="#C09300" d="M25.6,25.1l-0.3,6.3l-0.6,0.5l0.3-7C25.2,24.9,25.5,25.1,25.6,25.1L25.6,25.1z"/>
	<path fill="#C09300" d="M26.5,25.1l-0.2,5.3L25.6,31l0.2-5.8C26,25.2,26.4,25.2,26.5,25.1L26.5,25.1z"/>
	<path fill="#C09300" d="M33.7,23.3l0.4,10.6l0.8,0.7l-0.5-10.9C34.2,23.5,33.8,23.3,33.7,23.3L33.7,23.3z"/>
	<path fill="#C09300" d="M32.8,24.1l0.4,8.9l0.8,0.8l-0.5-10.3C33.3,23.6,32.9,24,32.8,24.1L32.8,24.1z"/>
	<path fill="#C09300" d="M32,24.7l0.3,7.4l0.6,0.6l-0.4-8.4C32.3,24.4,32,24.6,32,24.7L32,24.7z"/>
	<path fill="#C09300" d="M31.1,25.1l0.3,6.3l0.6,0.5l-0.3-7C31.5,24.9,31.2,25.1,31.1,25.1L31.1,25.1z"/>
	<path fill="#C09300" d="M30.2,25.1l0.2,5.3l0.6,0.6l-0.2-5.8C30.7,25.2,30.3,25.2,30.2,25.1L30.2,25.1z"/>
	<path fill="#C09300" stroke="#C09300" stroke-width="0.1015" d="M28.6,29.8l0.9,4.1l-0.3,0.3L28.9,34l-0.5-3.7l0.2,3.7l-0.3,0.4
		L28,34l0.2-3.7L27.8,34l-0.3,0.2l-0.3-0.3l0.9-4.1H28.6L28.6,29.8z"/>
	<path fill="#FFFFFF" stroke="#C09300" stroke-width="0.1123" stroke-linejoin="round" d="M26.3,28l-1.8,6.4l2.5,0.4l1.1-4.8
		L26.3,28L26.3,28z"/>
	<path fill="none" stroke="#C09300" stroke-width="0.12" stroke-linejoin="round" d="M25.7,30.1l0.2,0.5l1.2-1.1"/>
	<path fill="none" stroke="#C09300" stroke-width="0.12" stroke-linejoin="round" d="M26.5,28.8l0.2,2.3l0.7-1"/>
	<path fill="none" stroke="#C09300" stroke-width="0.12" stroke-linejoin="round" d="M27.2,30.5l0.4,1.4"/>
	<path fill="none" stroke="#C09300" stroke-width="0.12" stroke-linejoin="round" d="M27.8,31.4L27,32.7 M27.2,33.9L27,32.7
		l-0.2-1.3l-0.6,0.7l-0.2-0.9l-0.8,0.8l0.4,1.4l0.5-0.9l0.3,0.9l0.6-0.9"/>
	<path fill="none" stroke="#C09300" stroke-width="0.12" stroke-linejoin="round" d="M25,34.2l0.5-0.7l0.3,1.1l0.4-0.8l0.3,0.9"/>
	<path fill="#FFFFFF" stroke="#C09300" stroke-width="0.1123" stroke-linejoin="round" d="M30.4,28l1.8,6.4l-2.5,0.4l-1.1-4.8
		L30.4,28L30.4,28z"/>
	<path fill="none" stroke="#C09300" stroke-width="0.12" stroke-linejoin="round" d="M31,30.1l-0.2,0.5l-1.2-1.1"/>
	<path fill="none" stroke="#C09300" stroke-width="0.12" stroke-linejoin="round" d="M30.2,28.8l-0.2,2.3l-0.7-1"/>
	<path fill="none" stroke="#C09300" stroke-width="0.12" stroke-linejoin="round" d="M29.5,30.5l-0.4,1.4"/>
	<path fill="none" stroke="#C09300" stroke-width="0.12" stroke-linejoin="round" d="M28.9,31.4l0.8,1.3 M29.5,33.9l0.3-1.2l0.2-1.3
		l0.6,0.7l0.2-0.9l0.8,0.8l-0.4,1.4l-0.5-0.9l-0.3,0.9l-0.6-0.9"/>
	<path fill="none" stroke="#C09300" stroke-width="0.12" stroke-linejoin="round" d="M31.7,34.2l-0.5-0.7l-0.3,1.1l-0.4-0.8
		l-0.3,0.9"/>
	<path fill="#FFFFFF" stroke="#C09300" stroke-width="0.2247" stroke-linecap="round" stroke-linejoin="round" d="M28.3,37.2
		c1.9,0,3.7-0.1,4.7-0.4c0.4-0.1,0.4-0.3,0.4-0.6c0.4-0.1,0.2-0.7,0.5-0.7c-0.3,0.1-0.4-0.5-0.8-0.4c0-0.5-0.5-0.6-1-0.4
		c-0.9,0.3-2.5,0.4-4,0.4c-1.5-0.1-3.1-0.1-4-0.4c-0.4-0.1-1-0.1-1,0.4c-0.4-0.1-0.4,0.5-0.8,0.4c0.3,0,0.1,0.5,0.5,0.7
		c0,0.3,0,0.5,0.5,0.6C24.7,37.1,26.5,37.2,28.3,37.2L28.3,37.2z"/>
	<path fill="#FFFFFF" stroke="#C09300" stroke-width="0.12" stroke-linecap="round" stroke-linejoin="round" d="M25.8,34.4
		c0.6,0.1,1.3,0.1,1.8,0.1c0.3,0,0.5,0.5-0.1,0.6c-0.5,0.1-1.4,0-1.8-0.1c-0.4-0.1-1.2-0.2-1.7-0.4c-0.5-0.2-0.1-0.7,0.1-0.6
		C24.6,34.1,25.2,34.3,25.8,34.4L25.8,34.4z"/>
	<path fill="#FFFFFF" stroke="#C09300" stroke-width="0.12" stroke-linecap="round" stroke-linejoin="round" d="M30.9,34.4
		c-0.6,0.1-1.3,0.1-1.8,0.1c-0.3,0-0.5,0.5,0.1,0.6c0.5,0.1,1.4,0,1.8-0.1c0.4-0.1,1.2-0.2,1.7-0.4c0.5-0.2,0.1-0.7-0.1-0.6
		C32.1,34.1,31.5,34.3,30.9,34.4L30.9,34.4z"/>
	<path fill="#FFFFFF" stroke="#C09300" stroke-width="0.12" stroke-linecap="round" stroke-linejoin="round" d="M23.9,34.1
		c-0.5-0.1-0.7,0.4-0.5,0.7c0.1-0.1,0.4-0.1,0.4-0.3C23.9,34.3,23.8,34.3,23.9,34.1L23.9,34.1z"/>
	<path fill="#FFFFFF" stroke="#C09300" stroke-width="0.12" stroke-linecap="round" stroke-linejoin="round" d="M25.7,35.4
		c0-0.3,0.3-0.3,0.3-0.6c0-0.1-0.1-0.4-0.2-0.4c-0.1,0-0.3,0.1-0.3,0.3C25.4,35.1,25.7,35.1,25.7,35.4z"/>
	<path fill="#FFFFFF" stroke="#C09300" stroke-width="0.12" stroke-linecap="round" stroke-linejoin="round" d="M27.9,34.6
		c0.4,0,0.4,0.6,0.2,0.9c0-0.2-0.4-0.3-0.4-0.4C27.7,34.8,28,34.8,27.9,34.6L27.9,34.6z"/>
	<path fill="#FFFFFF" stroke="#C09300" stroke-width="0.12" stroke-linecap="round" stroke-linejoin="round" d="M32.8,34.1
		c0.5-0.1,0.7,0.4,0.5,0.7c-0.1-0.1-0.4-0.1-0.4-0.3C32.8,34.3,32.9,34.3,32.8,34.1L32.8,34.1z"/>
	<path fill="#FFFFFF" stroke="#C09300" stroke-width="0.12" stroke-linecap="round" stroke-linejoin="round" d="M31,35.4
		c0-0.3-0.3-0.3-0.3-0.6c0-0.1,0.1-0.4,0.2-0.4c0.1,0,0.3,0.1,0.3,0.3C31.3,35.1,31,35.1,31,35.4L31,35.4z"/>
	<path fill="#FFFFFF" stroke="#C09300" stroke-width="0.12" stroke-linecap="round" stroke-linejoin="round" d="M28.8,34.6
		c-0.4,0-0.4,0.6-0.2,0.9c0-0.2,0.4-0.3,0.4-0.4C29,34.8,28.7,34.8,28.8,34.6z"/>
	<path fill="#FFFFFF" stroke="#C09300" stroke-width="8.423620e-02" stroke-linecap="round" stroke-linejoin="round" d="M24.1,34.2
		c0.1,0,0.4,0.1,0.4,0.1L24.1,34.2L24.1,34.2z"/>
	<path fill="#FFFFFF" stroke="#C09300" stroke-width="8.423620e-02" stroke-linecap="round" stroke-linejoin="round" d="M24.8,34.4
		c0.1,0,0.4,0.1,0.5,0.1L24.8,34.4L24.8,34.4z"/>
	<path fill="#FFFFFF" stroke="#C09300" stroke-width="8.423620e-02" stroke-linecap="round" stroke-linejoin="round" d="M27.5,34.7
		c-0.1,0-0.4,0-0.5,0.1L27.5,34.7L27.5,34.7z"/>
	<path fill="#FFFFFF" stroke="#C09300" stroke-width="8.423620e-02" stroke-linecap="round" stroke-linejoin="round" d="M26.7,34.7
		c-0.1-0.1-0.4-0.1-0.5,0H26.7L26.7,34.7z"/>
	<path fill="#FFFFFF" stroke="#C09300" stroke-width="8.423620e-02" stroke-linecap="round" stroke-linejoin="round" d="M32.6,34.2
		c-0.1,0-0.4,0.1-0.4,0.1L32.6,34.2z"/>
	<path fill="#FFFFFF" stroke="#C09300" stroke-width="8.423620e-02" stroke-linecap="round" stroke-linejoin="round" d="M31.9,34.4
		c-0.1,0-0.4,0.1-0.5,0.1L31.9,34.4L31.9,34.4z"/>
	<path fill="#FFFFFF" stroke="#C09300" stroke-width="8.423620e-02" stroke-linecap="round" stroke-linejoin="round" d="M29.2,34.7
		c0.1,0,0.4,0,0.5,0.1L29.2,34.7L29.2,34.7z"/>
	<path fill="#FFFFFF" stroke="#C09300" stroke-width="8.423620e-02" stroke-linecap="round" stroke-linejoin="round" d="M30,34.7
		c0.1-0.1,0.4-0.1,0.5,0H30L30,34.7z"/>
	<path fill="#C09300" d="M23.9,35.4C23.9,35.4,23.9,35.3,23.9,35.4c0-0.2,0-0.2,0-0.2c0,0,0.1,0.1,0.1,0.1
		C24.1,35.3,24,35.4,23.9,35.4C24,35.4,24,35.4,23.9,35.4C24,35.4,24,35.4,23.9,35.4L23.9,35.4z"/>
	<path fill="#C09300" d="M29.1,35.8C29.1,35.8,29.1,35.7,29.1,35.8c0-0.1,0-0.2,0-0.2c0,0,0.1,0,0.1,0c0,0,0,0.1,0,0.1
		C29.2,35.8,29.2,35.8,29.1,35.8L29.1,35.8z"/>
	<path fill="#C09300" d="M29.2,36C29.1,36,29.1,36,29.2,36c-0.1-0.1-0.1-0.1,0-0.2l0,0l0,0c0,0,0.1,0,0.1,0.1
		C29.3,35.9,29.3,36,29.2,36C29.2,36,29.2,36,29.2,36L29.2,36z"/>
	<path fill="#C09300" d="M24.4,35c0,0-0.1,0-0.1,0c-0.1,0-0.1,0.1-0.2,0c-0.1,0-0.1,0-0.1,0.1c0,0.1,0.1,0.1,0.2,0.1
		c0-0.1,0.1-0.1,0.2,0c0,0.1,0,0.2-0.1,0.2c0,0,0,0.1,0,0.1c0,0-0.1,0-0.1,0c-0.1,0-0.1,0-0.2,0.1c0,0.1-0.1,0.1-0.1,0.2
		c0,0.1,0.1,0.1,0.1,0.1c0.1,0,0.1,0,0.2,0.1c0.1,0,0.2,0.1,0.3,0.1c0.1,0,0.3,0.1,0.5,0.1c0,0,0,0,0,0c0.1,0,0.1-0.1,0.1-0.1
		c0-0.1,0.1-0.2,0.1-0.3c0,0,0-0.1,0-0.1c0,0-0.1,0.1-0.2,0.1c-0.1,0,0,0.1,0,0.1c0,0.1,0,0.1,0,0.2c0,0-0.1,0-0.2,0
		c-0.1,0-0.2,0-0.1-0.1c0-0.1,0-0.1,0-0.2c0-0.1,0-0.1,0-0.2c0-0.1-0.1,0-0.1,0c0,0-0.2,0-0.1,0.1c0.1,0,0,0.1,0,0.2
		c0,0.1-0.1,0.1-0.1,0.1c-0.1,0-0.1,0-0.1-0.1c0-0.1,0-0.1,0-0.2c0-0.1,0-0.1,0.1-0.2c0-0.1,0-0.1,0.1-0.2
		C24.3,35.1,24.4,35.1,24.4,35C24.4,35,24.4,35,24.4,35L24.4,35z M24,35.7C24,35.7,24,35.7,24,35.7C24.1,35.7,24.1,35.7,24,35.7
		C24,35.7,24,35.7,24,35.7C24,35.7,24,35.7,24,35.7C23.9,35.7,24,35.7,24,35.7C24,35.7,24,35.7,24,35.7L24,35.7z"/>
	<path fill="#C09300" d="M23.9,36.1c0,0,0-0.1,0-0.1c0,0,0,0,0.1,0c0.1,0,0.1,0.1,0,0.1C24,36.2,24,36.2,23.9,36.1
		C23.9,36.2,23.9,36.2,23.9,36.1L23.9,36.1z"/>
	<path fill="#C09300" d="M24.2,36.2c0,0-0.1-0.1-0.1-0.1c0,0,0,0,0.1,0c0.1,0,0.1,0,0.1,0.1C24.3,36.2,24.3,36.2,24.2,36.2
		C24.3,36.2,24.2,36.2,24.2,36.2L24.2,36.2z"/>
	<path fill="#C09300" d="M32.6,36.2C32.6,36.2,32.6,36.2,32.6,36.2c0-0.1,0-0.1,0-0.1c0.1,0,0.1,0,0.1,0c0,0.1,0,0.1,0,0.1
		C32.8,36.2,32.8,36.2,32.6,36.2C32.7,36.2,32.6,36.2,32.6,36.2L32.6,36.2z"/>
	<path fill="#C09300" d="M24.6,36.3C24.6,36.3,24.5,36.3,24.6,36.3c-0.1-0.1-0.1-0.1,0-0.1c0,0,0,0,0.1,0c0,0,0,0,0.1,0
		c0.1,0,0.1,0.1,0,0.1C24.7,36.3,24.6,36.3,24.6,36.3L24.6,36.3z"/>
	<path fill="#C09300" d="M26.7,36.4C26.7,36.4,26.6,36.4,26.7,36.4c0-0.1,0-0.1,0-0.2c0,0,0-0.1,0-0.1c0-0.1,0-0.2,0-0.3
		c0,0,0-0.1,0-0.1c0-0.1,0-0.1,0-0.2c0,0,0-0.1,0.1-0.1c0,0.1,0.1,0.1,0.1,0.1c0,0,0,0.1,0,0.1c0,0,0,0.1,0,0.1c0,0,0,0.1,0,0.1
		c0,0.1,0,0.1,0,0.2c0,0.1,0,0.1,0,0.2c0,0,0,0.1,0,0.1c0,0,0,0.1,0,0.1C26.7,36.5,26.7,36.5,26.7,36.4L26.7,36.4z"/>
	<path fill="#C09300" d="M29.5,35.5c0,0-0.1,0.1-0.1,0.1c-0.1,0,0,0.1,0.1,0.1c0,0.1,0,0.1,0,0.2c0,0.1,0,0.1,0,0.2
		c0,0.1-0.1,0-0.1,0.1c0,0-0.1,0.1-0.1,0.1c0,0,0,0.1,0,0.2c0,0,0,0.1,0,0.1c0,0,0,0,0,0c0,0,0,0,0,0c0,0,0.1,0,0.1,0
		c0.1,0,0.2,0,0.3,0c0.1,0,0.1,0,0.2,0c0.1,0,0.1,0,0.1-0.1c0-0.1,0-0.1,0-0.2c0-0.1,0-0.1,0-0.2c0-0.1-0.1-0.1-0.1,0
		c0,0-0.1,0-0.1,0.1c0,0.1,0.1,0.1,0.1,0.1c0,0,0,0.1,0,0.1c0,0.1-0.1,0.1-0.1,0.1c-0.1,0-0.1,0-0.2,0c0,0,0-0.1,0-0.1
		c0-0.1,0-0.2,0-0.3c0-0.1,0-0.2,0-0.3C29.5,35.6,29.5,35.5,29.5,35.5L29.5,35.5z M29.4,36.3L29.4,36.3L29.4,36.3L29.4,36.3
		L29.4,36.3C29.4,36.4,29.4,36.4,29.4,36.3C29.4,36.4,29.4,36.4,29.4,36.3C29.3,36.3,29.3,36.3,29.4,36.3
		C29.4,36.3,29.4,36.3,29.4,36.3L29.4,36.3z"/>
	<path fill="#C09300" d="M26.6,35.4c0,0-0.1,0.1-0.1,0.1c-0.1,0-0.1,0.1,0,0.1c0,0,0,0.1,0,0.1c0,0.1,0,0.1,0,0.2c0,0.1,0,0.2,0,0.2
		c0,0.1,0,0.2,0,0.3c0,0.1-0.1,0.1-0.1,0c0,0,0-0.1,0-0.1c0-0.1,0-0.1-0.1-0.1c-0.1,0-0.1,0-0.1-0.1c0,0,0.1,0,0.1,0
		c0.1,0,0.1-0.1,0-0.1c0-0.1-0.1-0.1-0.1-0.1c0-0.1,0-0.2-0.1-0.2c-0.1,0-0.2,0.1-0.2,0.2c0,0-0.1,0-0.1,0c-0.1,0-0.2,0.1-0.1,0.2
		c0.1,0,0.2,0,0.1,0.1c0,0.1-0.1,0.1-0.2,0.1c-0.1,0-0.1,0-0.1-0.1c0-0.1,0-0.1,0-0.2c0-0.1-0.1-0.1-0.1,0c-0.1,0.1-0.1,0.1,0,0.2
		c0,0.1,0,0.1,0,0.2c0,0.1-0.1,0.1-0.2,0.1c0,0-0.2,0-0.1,0.1c0.1,0,0.2,0,0.2,0c0.1,0,0.1-0.1,0.2-0.1c0.1-0.1,0.1,0,0.2,0
		c0.1,0,0.1,0.1,0.2,0c0-0.1,0.1-0.1,0.1-0.1c0,0.1,0.1,0.1,0.1,0.1c0.1,0,0.1,0.1,0.1,0.1c0,0.1,0.1,0.1,0.1,0.2c0,0,0.1,0,0.1,0
		c0.1,0,0.1-0.1,0.2-0.1c0-0.1,0-0.1,0.1-0.2c0-0.1,0-0.2,0-0.3c0-0.1,0-0.2,0-0.3C26.6,35.6,26.6,35.5,26.6,35.4
		C26.6,35.4,26.6,35.4,26.6,35.4L26.6,35.4z M25.9,35.8C25.9,35.8,26,35.8,25.9,35.8c0,0.1,0,0.1,0.1,0.1c0,0,0,0,0,0c0,0,0,0-0.1,0
		c-0.1,0-0.1,0-0.1,0l0,0l0,0C25.8,35.9,25.9,35.8,25.9,35.8C25.9,35.8,25.9,35.8,25.9,35.8L25.9,35.8z"/>
	<path fill="#C09300" d="M32.2,35c-0.1,0-0.1,0-0.2,0c-0.1,0-0.1,0.1-0.1,0.1c0.1,0.1,0.1,0,0.2,0c0.1,0,0.1,0.2,0.2,0.3
		c0,0.1,0,0.2,0.1,0.3c0.1,0.1-0.1,0.2-0.1,0.1c-0.1-0.1-0.2-0.1-0.3-0.1C32,35.9,32,36,31.9,36c-0.1,0-0.1-0.1-0.2-0.2
		c-0.1-0.1-0.2-0.1-0.2-0.1c0-0.1,0-0.2-0.1-0.3c-0.1,0-0.2,0.2-0.1,0.2c0.1,0.1,0,0.1-0.1,0.2c-0.1,0.1-0.1,0.2-0.1,0.3
		c-0.1,0.1-0.1-0.1-0.2-0.2c0-0.1-0.1-0.1-0.2,0c-0.1,0-0.1,0.1-0.2,0.2c0,0.1,0,0.1,0,0.2c0,0.1,0.1,0,0.2,0c0.1,0,0.1,0.1,0.1,0.1
		c-0.1,0.1-0.2,0-0.2,0.1c0.1,0,0.1,0,0.2,0c0.1,0,0.2-0.1,0.2-0.2c0-0.1,0.2-0.1,0.2-0.1c0.1,0,0.2,0,0.2,0.1
		c0.1,0.1,0.2,0.1,0.3,0.1c0.1,0,0.1-0.1,0.1-0.2c0-0.1,0.1-0.1,0.2,0c0,0.1,0.2,0.1,0.3,0c0.1-0.1,0.1-0.2,0.2-0.2
		c0.2-0.1,0.3-0.1,0.5-0.1c0.1,0,0-0.1-0.1-0.2c-0.1-0.1-0.2,0.2-0.3,0.1c-0.1-0.1-0.1-0.2-0.1-0.3c0-0.1,0-0.3-0.1-0.4
		C32.3,35.1,32.3,35,32.2,35L32.2,35z M31.5,35.9C31.5,35.9,31.6,35.9,31.5,35.9c0.1,0,0.1,0.1,0.1,0.1c0,0,0,0,0,0c0,0,0,0,0,0
		c0,0-0.1,0-0.1,0C31.5,36.1,31.5,36,31.5,35.9C31.5,36,31.5,36,31.5,35.9C31.5,36,31.5,35.9,31.5,35.9z M32.1,36
		C32.2,36,32.2,36,32.1,36c0.1,0.1,0.1,0.1,0,0.1c0,0,0,0,0,0c0,0,0,0,0,0C32.1,36.1,32.1,36.1,32.1,36C32.1,36,32.1,36,32.1,36z
		 M31.3,36C31.3,36,31.3,36,31.3,36C31.4,36,31.4,36,31.3,36c0.1,0.1,0.1,0.1,0.1,0.1c0,0,0,0-0.1,0C31.2,36.1,31.2,36.1,31.3,36
		C31.2,36,31.2,36,31.3,36C31.3,36,31.3,36,31.3,36z M30.8,36.1C30.8,36.1,30.8,36.1,30.8,36.1C30.8,36.2,30.8,36.2,30.8,36.1
		c0,0.1-0.1,0.1-0.1,0.1C30.7,36.2,30.7,36.2,30.8,36.1C30.7,36.2,30.7,36.2,30.8,36.1C30.7,36.2,30.7,36.2,30.8,36.1
		C30.7,36.2,30.7,36.2,30.8,36.1C30.7,36.1,30.8,36.1,30.8,36.1L30.8,36.1z M31.7,36.2C31.7,36.2,31.7,36.2,31.7,36.2
		C31.7,36.3,31.7,36.3,31.7,36.2C31.7,36.3,31.6,36.3,31.7,36.2C31.6,36.3,31.6,36.3,31.7,36.2C31.6,36.3,31.6,36.3,31.7,36.2
		C31.6,36.2,31.6,36.2,31.7,36.2L31.7,36.2z"/>
	<path fill="#C09300" d="M30,36.7C30,36.7,30,36.7,30,36.7C30,36.6,30.1,36.6,30,36.7c0.1-0.1,0.2-0.1,0.2-0.2c0,0,0,0,0-0.1
		c0,0,0-0.1,0-0.1c0,0,0-0.1-0.1-0.1c0,0-0.1,0-0.1-0.1c0,0,0-0.1,0-0.1c0,0,0-0.1,0.1-0.1c0,0,0.1,0,0.1,0c0,0,0,0.1,0,0.1
		c0,0,0.1,0.1,0.1,0.1c0,0,0,0.1,0,0.1c0,0,0,0.1,0,0.1c0,0.1,0,0.1,0,0.2c0,0,0,0-0.1,0.1c0,0-0.1,0.1-0.1,0.1c0,0,0,0-0.1,0
		C30.1,36.7,30.1,36.7,30,36.7C30,36.7,30,36.7,30,36.7L30,36.7z"/>
	<path fill="#C09300" d="M29.4,36.7C29.4,36.7,29.4,36.7,29.4,36.7c0-0.1,0-0.1,0-0.1c0,0,0.1,0,0.1,0c0.1,0,0.1,0,0.1,0
		c0,0,0,0,0.1,0c0,0,0,0,0.1,0c0,0,0,0,0,0.1c0,0,0,0,0,0.1c0,0,0,0-0.1,0c0,0-0.1,0-0.1-0.1c0,0,0,0,0,0c0,0,0,0,0,0
		c0,0-0.1,0-0.1,0C29.5,36.8,29.5,36.8,29.4,36.7C29.4,36.8,29.4,36.8,29.4,36.7L29.4,36.7z"/>
	<path fill="#C09300" d="M27.5,35.9c-0.1,0-0.1,0.1-0.1,0.1c0,0.1,0.1,0.1,0,0.2c0,0.1-0.1,0.1-0.1,0.1c0-0.1-0.1-0.2-0.1-0.3
		c-0.1,0-0.1,0.1-0.2,0.1c0,0.1,0.1,0.1,0.1,0.2c0,0.1,0,0.2-0.1,0.2c-0.1,0.1-0.2,0-0.2,0.1c-0.1,0.1,0.1,0.1,0.1,0.1
		c0.1,0,0.2,0,0.3-0.1c0.1,0,0.1-0.2,0.2-0.2c0.2,0,0.3,0,0.4,0c0.1,0,0.2,0,0.3,0.1c0,0.1,0.1,0.2,0.2,0.2c0,0,0.1,0,0.1-0.1
		c0.1,0,0.1-0.1,0.1-0.2c0.2,0,0.3,0,0.5,0c0,0,0,0,0.1-0.1c0-0.1,0-0.1,0-0.2c0-0.1,0-0.2-0.1-0.2c-0.1,0-0.1,0.1-0.2,0.1
		c-0.1,0-0.2,0.1-0.2,0.2c-0.1,0.1-0.1,0-0.1-0.1c0,0,0-0.1,0-0.1c0-0.1-0.1,0-0.2,0c-0.1,0-0.2,0-0.3,0c-0.1,0-0.2,0-0.3,0
		C27.6,36.1,27.6,36,27.5,35.9C27.6,35.9,27.5,35.9,27.5,35.9L27.5,35.9z M27.7,36.2C27.7,36.2,27.8,36.2,27.7,36.2
		c0.1,0,0.2,0,0.2,0c0.1,0,0.2,0,0.3,0c0,0,0,0,0.1,0c0,0.1,0,0.1,0,0.2c0,0,0,0.1,0,0.1c0,0,0,0,0,0c0,0-0.1,0-0.1,0
		c0,0,0-0.1,0-0.1c0,0,0,0,0,0c0,0,0,0-0.1,0c-0.1,0-0.2,0-0.2,0c-0.1,0-0.1,0-0.2,0c0,0-0.1,0-0.1,0C27.6,36.3,27.6,36.3,27.7,36.2
		C27.6,36.2,27.7,36.2,27.7,36.2L27.7,36.2z M28.8,36.3C28.8,36.3,28.8,36.3,28.8,36.3C28.8,36.3,28.8,36.3,28.8,36.3
		c0,0.1,0,0.1,0,0.1C28.7,36.4,28.7,36.4,28.8,36.3C28.7,36.3,28.7,36.3,28.8,36.3C28.7,36.3,28.8,36.3,28.8,36.3L28.8,36.3z"/>
	<path fill="#FFFFFF" stroke="#C09300" stroke-width="0.1087" d="M28.3,30.9c3.1-2.4,2.8-5.8,2.8-5.8c-0.1,0-0.2,0-0.2,0
		c-0.6,0-2.2-0.4-2.6-0.8c-0.4,0.4-2,0.8-2.6,0.8c-0.1,0-0.2,0-0.2,0C25.5,25.1,25.3,28.5,28.3,30.9L28.3,30.9z"/>
	<path fill="#FFFFFF" stroke="#C09300" stroke-width="8.652282e-02" d="M30.9,25.3C30.9,25.3,30.9,25.3,30.9,25.3
		c-0.7,0-2-0.3-2.6-0.7c-0.5,0.4-1.9,0.8-2.5,0.8c0,0-0.1,0-0.1,0c0,0.1,0,0.3,0,0.4c0,0.5,0.1,0.9,0.2,1.4c0.4,1.4,1.2,2.6,2.3,3.5
		c1.1-0.9,1.9-2.1,2.3-3.5c0.1-0.4,0.2-0.9,0.2-1.4C30.9,25.6,30.9,25.5,30.9,25.3L30.9,25.3z"/>
	<path fill="#C09300" d="M27.3,25c-0.6,0.2-1.2,0.3-1.5,0.3c0,0-0.1,0-0.1,0c0,0.1,0,0.3,0,0.4c0,0.5,0.1,0.9,0.2,1.4
		c0.3,0.9,0.7,1.8,1.3,2.5L27.3,25L27.3,25z"/>
	<path fill="#C09300" d="M29.3,25v4.7c0.6-0.7,1.1-1.6,1.4-2.6c0.1-0.4,0.2-0.9,0.2-1.4c0-0.1,0-0.3,0-0.4c0,0-0.1,0-0.1,0
		C30.5,25.3,29.9,25.2,29.3,25L29.3,25z"/>
	<path fill="#FFFFFF" stroke="#C09300" stroke-width="0.1151" d="M29.5,23.9c0.1,0-0.1-0.3-0.1-0.3c0.2,0.2,0.8,0.2,0.8,0.2
		c-0.4-0.2-0.8-1.4-0.7-2.4c0-1-0.1-1.4-0.3-1.6c-0.2-0.2-0.8-0.4-1.2-0.4c-0.2,0-0.2,0.2-0.2,0.2c-0.4-0.1-0.8-0.1-1,0
		c-0.2,0.1-0.2,0.7-0.1,0.6c0.3-0.3,0.6,0,0.8,0.3c0.2,0.2,0.2,0.9-0.1,1.7c-0.3,0.8-0.9,1.7-0.9,1.7c0.4,0,0.9-0.3,0.9-0.3L27.2,24
		c0.4-0.2,0.7-0.5,0.7-0.5l0.4,0.4c0.1-0.2,0.4-0.4,0.4-0.4S29,23.9,29.5,23.9L29.5,23.9z"/>
	<path fill="none" stroke="#C09300" stroke-width="0.12" d="M28,21.5c0,0-0.2,1.6-0.6,2"/>
	<path fill="none" stroke="#C09300" stroke-width="0.12" d="M28.3,21.5c0,0-0.1,1.6-0.4,2.1"/>
	<path fill="none" stroke="#C09300" stroke-width="0.12" d="M28.6,21.5c0,0,0,1.7,0.1,2"/>
	<path fill="none" stroke="#C09300" stroke-width="0.12" d="M29,21.6c0,0,0.1,1.4,0.4,2"/>
	<path fill="#C09300" stroke="#C09300" stroke-width="3.346771e-02" d="M27.6,20.8c0-0.1-0.1-0.2-0.1-0.3c-0.2-0.3-0.5-0.5-0.8-0.3
		c0,0,0.1-0.3,0.3-0.3c0.2,0,0.6,0.1,0.9,0.7c0,0-0.3-0.1-0.3,0C27.5,20.7,27.6,20.8,27.6,20.8L27.6,20.8z"/>
	<path fill="#C09300" stroke="#C09300" stroke-width="3.346771e-02" d="M26.7,19.8c0-0.1,0.1-0.2,0.1-0.2c0.2-0.1,0.6-0.1,1,0
		c0,0,0-0.2,0.2-0.2c0.4,0,1,0.2,1.2,0.4c0,0,0.1,0.1,0.1,0.2h0c-0.1-0.1-0.4-0.1-0.4-0.1c-0.1,0-0.2,0-0.3,0c-0.1,0-0.2,0-0.2,0.1
		c0,0-0.1,0.2-0.1,0.2c-0.1,0-0.1,0-0.1-0.1c0,0-0.1-0.1-0.1-0.1c-0.1,0-0.3-0.1-0.5-0.2c-0.2-0.2-0.3-0.2-0.6-0.2
		C26.8,19.6,26.7,19.8,26.7,19.8L26.7,19.8L26.7,19.8z"/>
	<circle fill="#FFFFFF" cx="28.2" cy="19.9" r="0.1"/>
</g>
</svg>
