<?xml version="1.0" encoding="iso-8859-1"?>
<!-- Generator: Adobe Illustrator 18.1.1, SVG Export Plug-In . SVG Version: 6.00 Build 0)  -->
<svg version="1.1" id="Layer_165" xmlns="http://www.w3.org/2000/svg" xmlns:xlink="http://www.w3.org/1999/xlink" x="0px" y="0px"
	 viewBox="0 0 56.692 56.692" style="enable-background:new 0 0 56.692 56.692;" xml:space="preserve">
<g>
	<defs>
		<circle id="SVGID_1_" cx="28.346" cy="28.345" r="28.346"/>
	</defs>
	<clipPath id="SVGID_2_">
		<use xlink:href="#SVGID_1_"  style="overflow:visible;"/>
	</clipPath>
	<g style="clip-path:url(#SVGID_2_);">
		<rect x="-14.174" y="37.771" style="fill:#DA121A;" width="85.04" height="18.922"/>
		<rect x="-14.174" y="18.834" style="fill:#FCDD09;" width="85.04" height="18.923"/>
		<rect x="-14.174" y="0" style="fill:#078930;" width="85.04" height="18.923"/>
	</g>
	<circle style="clip-path:url(#SVGID_2_);fill:#0F47AF;" cx="28.334" cy="28.353" r="18.93"/>
	<path style="clip-path:url(#SVGID_2_);fill:#FCDD09;" d="M28.338,17.242l-0.656-2.035l0.664-2.023l3.39,10.412h8.093l-1.717,1.246
		H26.354l0.405-1.246h3.646l-2.065-6.363L28.338,17.242z M24.521,24.841l-1.135,3.463l1.099,0.799l1.384-4.262h0.001l0.405-1.246
		h-0.001l1.821-5.609l-0.657-2.037l-2.508,7.646H13.812l1.712,1.234L24.521,24.841z M32.295,25.314h-1.331l1.073,3.309l0.005,0.002
		l2.536,7.824l1.758,1.277l-2.495-7.666l8.847-6.465h-2.076l-7.175,5.225L32.295,25.314z M26.887,33.023l1.115-0.81l-3.67-2.638
		l0.004-0.012l-1.101-0.799l-0.006,0.018l-4.825-3.469h-2.209l6.608,4.766l-3.429,10.453l1.823-1.312l2.712-8.344L26.887,33.023z
		 M29.451,33.269l2.922-2.135l-0.404-1.244l-9.49,6.881l-0.648,1.994l6.516-4.689l8.904,6.457l-0.671-2.061L29.451,33.269z
		 M27.93,43.517h0.641v-8.248H27.93V43.517z M37.557,16.25l-0.517-0.381l-4.888,6.643l0.517,0.381L37.557,16.25z M34.961,30.168
		l-0.196,0.609l7.848,2.537l0.197-0.611L34.961,30.168z M21.696,30.168l-7.85,2.535l0.197,0.611l7.848-2.537L21.696,30.168z
		 M24.525,22.511l-4.888-6.643l-0.517,0.381l4.888,6.643L24.525,22.511z"/>
</g>
</svg>
