<?xml version="1.0" encoding="iso-8859-1"?>
<!-- Generator: Adobe Illustrator 18.1.1, SVG Export Plug-In . SVG Version: 6.00 Build 0)  -->
<svg version="1.1" id="Layer_220" xmlns="http://www.w3.org/2000/svg" xmlns:xlink="http://www.w3.org/1999/xlink" x="0px" y="0px"
	 viewBox="0 0 56.692 56.692" style="enable-background:new 0 0 56.692 56.692;" xml:space="preserve">
<g>
	<defs>
		<circle id="SVGID_1_" cx="28.346" cy="28.347" r="28.347"/>
	</defs>
	<clipPath id="SVGID_2_">
		<use xlink:href="#SVGID_1_"  style="overflow:visible;"/>
	</clipPath>
	<rect x="-14.174" y="0" style="clip-path:url(#SVGID_2_);fill:#0E1B8D;" width="85.039" height="56.692"/>
	<g style="clip-path:url(#SVGID_2_);">
		<path style="fill:#FFDC3C;" d="M50.454,16.903l-2.176,1.605l0.811,2.447l-2.159-1.452l-2.158,1.452l0.811-2.447l-2.176-1.605
			h2.707l0.817-2.467l0.817,2.467H50.454z M29.387,48.884l-0.816-2.468l-0.816,2.468h-2.707l2.176,1.606l-0.81,2.447l2.16-1.455
			l2.158,1.455l-0.812-2.447l2.176-1.606H29.387z M50.542,27.553l-0.814-2.467l-0.816,2.467h-2.709l2.176,1.606l-0.809,2.446
			l2.158-1.453l2.158,1.453l-0.812-2.446l2.178-1.606H50.542z M46.93,40.733l2.159,1.453l-0.811-2.447l2.176-1.606h-2.707
			l-0.817-2.468l-0.817,2.468h-2.707l2.176,1.606l-0.811,2.447L46.93,40.733z M39.916,45.955L39.1,43.487l-0.816,2.468h-2.707
			l2.176,1.605l-0.81,2.447l2.16-1.455l2.158,1.455l-0.812-2.447l2.176-1.605H39.916z M11.25,39.739l2.176-1.606h-2.707
			l-0.818-2.468l-0.814,2.468H6.377l2.176,1.606l-0.81,2.447l2.16-1.453l2.158,1.453L11.25,39.739z M16.356,10.677l-0.809,2.448
			l2.158-1.454l2.158,1.454l-0.81-2.448l2.176-1.604h-2.707l-0.816-2.468l-0.816,2.468h-2.707L16.356,10.677z M10.719,16.903
			l-0.818-2.467l-0.816,2.467H6.377l2.176,1.606l-0.81,2.446l2.16-1.452l2.158,1.452l-0.81-2.446l2.176-1.606H10.719z M6.969,30.152
			l2.156,1.453l-0.809-2.447l2.174-1.605H7.785l-0.818-2.467l-0.816,2.467H3.444l2.176,1.605l-0.811,2.447L6.969,30.152z
			 M18.522,45.955l-0.816-2.468l-0.816,2.468h-2.707l2.174,1.605l-0.809,2.447l2.158-1.455l2.158,1.455l-0.81-2.447l2.176-1.605
			H18.522z"/>
		<path style="fill:#FFDC3C;" d="M40.336,10.677l0.81,2.448l-2.158-1.453l-2.158,1.453l0.811-2.448l-2.178-1.604h2.707l0.818-2.468
			l0.817,2.468h2.707L40.336,10.677z"/>
		<polygon style="fill:#FFDC3C;" points="32.094,6.223 29.918,7.828 30.729,10.275 28.571,8.823 26.412,10.275 27.223,7.828 
			25.047,6.223 27.754,6.223 28.571,3.756 29.389,6.223 		"/>
	</g>
</g>
</svg>
