<?xml version="1.0" encoding="iso-8859-1"?>
<!-- Generator: Adobe Illustrator 18.1.1, SVG Export Plug-In . SVG Version: 6.00 Build 0)  -->
<svg version="1.1" id="Layer_23" xmlns="http://www.w3.org/2000/svg" xmlns:xlink="http://www.w3.org/1999/xlink" x="0px" y="0px"
	 viewBox="0 0 56.692 56.692" style="enable-background:new 0 0 56.692 56.692;" xml:space="preserve">
<g>
	<defs>
		<circle id="SVGID_1_" cx="28.346" cy="28.345" r="28.347"/>
	</defs>
	<clipPath id="SVGID_2_">
		<use xlink:href="#SVGID_1_"  style="overflow:visible;"/>
	</clipPath>
	<path style="clip-path:url(#SVGID_2_);fill:#68BFE5;" d="M0,56.742V0.05h56.692v56.692H0z"/>
	<rect x="0" y="0" style="clip-path:url(#SVGID_2_);fill:#00247D;" width="28.346" height="28.346"/>
	<g style="clip-path:url(#SVGID_2_);">
		<polygon style="fill:#FFFFFF;" points="28.347,0 22.656,0 11.238,7.754 11.238,0 2.77,0 2.77,7.752 -8.641,0 -14.173,0 
			-14.173,3.337 -5.163,9.459 -14.173,9.459 -14.173,18.89 -5.169,18.89 -14.173,25.004 -14.173,28.347 -8.649,28.347 2.77,20.593 
			2.77,28.347 11.238,28.347 11.238,20.597 22.647,28.347 28.347,28.347 28.347,25.125 19.169,18.89 28.347,18.89 28.347,9.459 
			19.175,9.459 28.347,3.232 		"/>
		<g>
			<polygon style="fill:#CC0000;" points="0.011,9.459 -13.911,0 -14.173,0 -14.173,2.001 -3.198,9.459 			"/>
			<polygon style="fill:#CF142B;" points="14.072,9.459 28.264,0 25.012,0 10.819,9.459 			"/>
			<path style="fill:#CF142B;" d="M9.615,11.242V0H4.55v11.242h-18.724c0,0,0.01,5.578,0.024,5.641L4.55,16.894v11.453h5.064V16.894
				v-0.012h18.732v-5.641H9.615z"/>
			<polygon style="fill:#CF142B;" points="13.699,18.679 27.931,28.347 28.347,28.347 28.347,26.449 16.907,18.679 			"/>
			<polygon style="fill:#CF142B;" points="0.177,18.679 -14.173,28.24 -14.173,28.347 -11.078,28.347 3.431,18.679 			"/>
		</g>
	</g>
	<g id="coa" style="clip-path:url(#SVGID_2_);">
		<path style="fill:#FFFFFF;" d="M32.006,23.103v15.506c0,5.072,9.163,8.083,9.163,8.083s9.163-3.012,9.163-8.083V23.103H32.006z"/>
		<path style="fill:#D21034;" d="M39.899,28.552v6.982h-7.893v2.54h7.893v8.135l1.27,0.484l1.27-0.484v-8.135h7.893v-2.54h-7.893
			v-6.982H39.899z"/>
		<path style="fill:#D21034;" d="M32.006,23.103h18.327v5.988H32.006L32.006,23.103z"/>
		<g id="lion">
			<g>
				
					<ellipse style="fill:#FFFFFF;stroke:#000000;stroke-width:0.0607;stroke-miterlimit:3;" cx="33.475" cy="26.753" rx="1.03" ry="0.829"/>
				
					<ellipse style="fill:#FFFFFF;stroke:#000000;stroke-width:0.0609;stroke-miterlimit:3;" cx="33.475" cy="26.323" rx="0.916" ry="0.463"/>
				
					<ellipse style="fill:#FFFFFF;stroke:#000000;stroke-width:0.0609;stroke-miterlimit:3;" cx="33.475" cy="27.249" rx="0.916" ry="0.463"/>
				
					<ellipse style="fill:#FFFFFF;stroke:#000000;stroke-width:0.0609;stroke-miterlimit:3;" cx="33.475" cy="26.753" rx="0.916" ry="0.463"/>
			</g>
			<path style="fill:#FFD100;stroke:#000000;stroke-width:0.0907;stroke-miterlimit:3;" d="M49.879,27.904l-0.15-0.414
				c0,0-0.411-0.168-0.442-0.386c-0.073-0.582-0.281-0.8-0.592-0.883c-0.312-0.083-0.519,0.052-0.519,0.052
				c-0.094,0.135-0.561,0.135-0.821,0.145c-0.26,0.011-0.264-0.113-0.264-0.113c-0.202,0.001-0.287-0.147-0.287-0.147
				c-0.132-0.264-0.23-0.362-0.295-0.396c0.337,0.005,0.591-0.151,0.971-0.55c0.415-0.436,0.712-0.268,0.712-0.268
				c-0.202,0.407,0.067,0.371,0.067,0.371c0.55-0.28,0.073-0.987-0.094-0.956c-0.166,0.031-0.214-0.081-0.214-0.081
				c0.005,0.127-0.184,0.177-0.184,0.177c0.142-0.807-0.339-1.021-0.339-1.021c-0.073,0.073-0.115,0.218-0.115,0.218
				c-0.135,0.488-0.581,0.416-1.08,0.177c-0.498-0.239-1.828,0.249-2.243,0.416c-0.416,0.166-1.174,0.426-1.86,0.042
				c-0.685-0.385-0.852-0.312-1.122-0.239c-0.27,0.073-0.748,0.187-0.924,0.093c-0.177-0.093-0.378-0.099-0.378-0.099
				c0.048-0.027-0.027-0.14-0.027-0.14c-0.208-0.28,0.027-0.452,0.027-0.452s-0.387,0.109-0.233,0.769l0.071,0.099
				c0,0,0.052,0.208,0.166,0.27l-0.004,0.045c0,0,0.098-0.045,0.129,0.089c0.032,0.135,0.177,0.01,0.239-0.104
				c0,0-0.104,0.603,0.644,0.748c0,0-0.084-0.094-0.052-0.156c0.031-0.062-0.093-0.115-0.083-0.208
				c0.01-0.093-0.187-0.135-0.031-0.208c0.156-0.073,0.229-0.218,0.561-0.021c0.332,0.197,0.592,0.156,0.592,0.156
				s-0.203-0.416-0.091-0.416c0.112,0,0.614,0.622,0.861,0.591c0.247-0.03,0.725-0.311,0.964-0.207c0,0,0.021-0.125,0.934-0.281
				c0.914-0.156,2.042-0.611,2.465-0.212c0,0,0.049,0.316,0.226,0.399c0,0-0.032,0.654-1.163,0.291l-0.411-0.108
				c0,0-0.063-0.199-2.216,0.355c0,0-0.127,0.044-0.21,0.107c-0.083,0.062-0.198-0.031-0.624,0.124
				c-0.426,0.156-2.015,0.676-2.991,0.488l-0.001,0.003c-0.215-0.064-0.416-0.031-0.425-0.065c-0.011-0.042,0.114,0.011,0.114,0.011
				c-0.073-0.083-0.104-0.09-0.104-0.09c-0.821-0.09-0.676-0.461-0.676-0.461l0.042,0.114c0.135-0.176-0.052-0.592-0.052-0.592
				l-0.008,0.001c-0.002-0.013-0.004-0.025-0.008-0.038l0.068-0.047c0.395-0.333,0.852-0.395,0.852-0.395
				c-0.27-0.332-0.842-0.156-0.842-0.156c0.011-0.405-0.156-0.873-0.156-0.873c-0.561,0.062-0.883,0.53-0.883,0.53
				c-0.021-0.415-0.551-0.654-0.551-0.654c0.197,0.239,0.073,0.81,0.073,0.81l0.021,0.01c-0.033-0.001-0.052,0-0.052,0l-0.012,0.122
				l-0.019-0.008c0,0-0.197,0.073-0.426,0.592c0,0-0.023,0.123-0.111,0.233c-0.001-0.014,0.001-0.027-0.001-0.042
				c0,0-0.255,0.334-0.845,0c0,0-0.801-0.475-1.083-0.458c-0.282,0.018-0.467,0.15-0.449,0.229c0,0-0.643-0.053-0.863,0.317
				c0,0-0.484,0.176-0.07,0.572c0,0,0.055,0.172,0.176,0.264c0,0-0.017-0.362,0.071-0.255c0,0,0.023,0.036,0.066,0.061
				c0.012,0.051,0.05,0.192,0.136,0.263l0.062-0.02c0.009-0.09,0.029-0.204,0.049-0.252c0.009,0.001,0.017,0.002,0.02,0.003
				c-0.003,0.003-0.005,0.004-0.008,0.007l0.114,0.176l0.132-0.07c0.062-0.009,0.141,0.053,0.141,0.053l0.15-0.123
				c-0.001-0.001-0.002-0.002-0.003-0.003c0.147,0.025,0.188-0.261,0.188-0.261c0.132,0.035,0.256-0.004,0.362-0.068
				c0.064,0.237,0.589,0.491,0.589,0.491s0.009-0.001,0.023-0.002c-0.044,0.028-0.071,0.05-0.071,0.05
				c0.239,0.166,0.686,0.125,0.686,0.125c-0.187,0.073-0.161,0.419-0.161,0.419c-0.109,0.045-0.12,0.153-0.12,0.153
				c0.364,0.145,0.612,0.025,0.612,0.025c0.02,0.118-0.009,0.131-0.009,0.131c-0.145,0.312-0.208,0.613-0.208,0.613
				c0.003,0.001,0.007,0.002,0.01,0.003c-0.004,0.008-0.01,0.016-0.013,0.024c0,0-0.634,0.22-0.916,0.528
				c0,0-0.026-0.088-0.106-0.088c-0.079,0-0.326-0.202-0.44-0.238c-0.114-0.035-0.282,0.035-0.326-0.017
				c-0.04-0.048-0.022-0.409-0.098-0.467l0.001,0l-0.079-0.22c-0.053,0.114-0.273,0.088-0.273,0.088
				c-0.009,0.005-0.043,0.03-0.09,0.066c-0.044,0.002-0.094-0.013-0.094-0.013c-0.023,0.005-0.045,0.068-0.061,0.13
				c-0.009,0.007-0.018,0.013-0.027,0.02v-0.062c-0.044,0.035-0.132-0.018-0.167-0.018c-0.017,0-0.039,0.05-0.056,0.102
				c-0.09,0.017-0.208,0.021-0.208,0.021c-0.035,0.018-0.009,0.291-0.009,0.291c-0.255,0.141-0.132,0.352-0.132,0.352
				c0.141,0.687,1.312,0.379,1.4,0.467c0.088,0.088,0.291,0.105,0.396,0.105c0.105,0,0.237,0.255,0.387,0.282
				c0.15,0.026,0-0.202,0.694-0.368c0.694-0.166,0.925-0.45,0.925-0.45c0.217-0.042,0.278-0.306,0.294-0.413
				c0.002,0.049,0.008,0.104,0.016,0.166c0.031,0.239-0.134,0.326-0.134,0.326l0.601-0.181c0.239-0.062,0.208-0.27,0.208-0.27
				c0.228,0.655,0.644,0.696,0.644,0.696c0.083-0.249,0.073-0.322,0.073-0.322l0.187-0.01c0.008-0.141-0.117-0.244-0.189-0.292
				l0.293,0.177l0.114-0.021c0,0.104,0.156,0.197,0.156,0.197l0.021-0.135c0.135,0.177,0.384,0.114,0.384,0.114
				c-0.005-0.031-0.013-0.064-0.022-0.097c0.532,0.329,1.383-0.09,1.383-0.09c0.228,0.052,0.26-0.083,0.26-0.083
				c0.26,0.031,0.32-0.146,0.32-0.146c0.611-0.053,1.041-0.487,1.041-0.487c0.301-0.021,0.311-0.236,0.311-0.236
				s0.302,0.06,0.593-0.304c0.675-0.966,1.684-0.463,1.684-0.463l-0.584,0.037c-1.527-0.01-0.894,1.028-0.894,1.028l0.094-0.01
				c0.145,0.031,0.644,0.426,0.46,0.72c-0.003,0.005-0.007,0.01-0.01,0.015c-0.311,0.426-0.888,0.02-1.052-0.34
				c-0.166-0.363-0.499-0.28-0.499-0.28s-0.862,0.145-0.509,0.831l0.013,0c0.007,0.167,0.112,0.358,0.419,0.547
				c0.173,0.244,0.741,0.27,1.158,0.179c0.194-0.042,1.218-0.483,1.218-0.483c0.075-0.223,0.33-0.172,0.558-0.494
				c0.228-0.322-0.322-0.436-0.447-0.613c-0.125-0.177,0.031-0.146,0.031-0.146c0.498,0.27,0.54-0.592,0.54-0.592
				c0.052,0.498,0.488,0.634,0.488,0.634c0.27-0.27,0.073-0.82,0.073-0.82c0.644,1.153,1.034,0.969,1.034,0.969
				c-0.347-0.215-0.172-0.502-0.172-0.502c0.311,1.226,1.589,0.156,1.589,0.156c-0.062,0.176,0,0.28,0.114,0.394
				c0.114,0.114,0.249,0.166,0.187,0.374c-0.063,0.208-0.654,0.166-0.654,0.166s-0.582-0.031-0.53,0.457
				c0.03,0.114,0.415,0.156,0.561,0.125c0,0-0.06,0.013,0.155,0.042c0.072,0.009,0.159,0.011,0.248,0.008
				c0.248-0.008,0.512-0.05,0.512-0.05c0.332-0.072,0.28-0.187,0.28-0.187C49.827,28.247,49.879,27.904,49.879,27.904L49.879,27.904
				z"/>
			<g>
				<path d="M33,25.776c0-0.001,0.027-0.064,0.079-0.072c0.04-0.006,0.088,0.023,0.138,0.085l0.028-0.021
					c-0.001-0.002-0.137-0.2-0.083-0.34c0.024-0.062,0.084-0.105,0.178-0.126l-0.008-0.034c-0.106,0.024-0.174,0.074-0.203,0.148
					c-0.011,0.028-0.015,0.057-0.015,0.086c0,0.068,0.024,0.138,0.049,0.191c-0.031-0.019-0.061-0.027-0.089-0.023
					c-0.052,0.008-0.078,0.045-0.091,0.07L33,25.776z"/>
				<path d="M49.032,28.497c-0.347,0.055-0.856,0.086-0.897-0.019c-0.007-0.019-0.008-0.094,0.276-0.279l-0.033-0.051
					c-0.237,0.154-0.333,0.266-0.299,0.351c0.073,0.189,0.816,0.081,0.965,0.057L49.032,28.497z"/>
				<path d="M42.394,28.697c-0.079-0.121-0.044-0.287,0.106-0.493l-0.049-0.035c-0.166,0.228-0.202,0.418-0.108,0.562L42.394,28.697
					z"/>
				<path d="M41.925,28.175c0.008,0.209,0.155,0.404,0.438,0.577l0.032-0.052c-0.265-0.162-0.402-0.34-0.41-0.527
					c-0.01-0.288,0.294-0.511,0.297-0.513l-0.035-0.049C42.234,27.62,41.913,27.854,41.925,28.175L41.925,28.175z"/>
				<path d="M47.844,28.253c-0.095,0.141-0.063,0.311-0.062,0.318l0.06-0.012c-0.001-0.002-0.028-0.153,0.053-0.272
					c0.049-0.072,0.127-0.118,0.234-0.139l-0.011-0.06C47.995,28.112,47.903,28.167,47.844,28.253z"/>
				<path d="M34.283,25.595l-0.019-0.005l-0.003,0.019c-0.001,0.002-0.027,0.186-0.111,0.236c-0.023,0.014-0.049,0.016-0.078,0.005
					l-0.142-0.086c-0.028-0.025-0.053-0.043-0.094-0.031c-0.008-0.011-0.041-0.055-0.041-0.126c0-0.008,0.001-0.016,0.002-0.025
					c0.01-0.083,0.068-0.163,0.173-0.238l-0.02-0.028c-0.114,0.081-0.177,0.17-0.188,0.263c-0.013,0.108,0.05,0.182,0.053,0.185
					l0.008,0.01l0.012-0.005c0.032-0.014,0.041-0.006,0.071,0.022l0.153,0.093c0.039,0.014,0.075,0.012,0.108-0.008
					c0.087-0.052,0.117-0.203,0.124-0.245c0.369,0.079,0.665-0.369,0.678-0.388l-0.029-0.019
					C34.939,25.228,34.636,25.687,34.283,25.595L34.283,25.595z"/>
				<path d="M33.399,25.526c-0.018,0.075-0.006,0.148,0.037,0.218c0.041,0.066,0.081,0.102,0.123,0.107
					c0.051,0.007,0.092-0.031,0.128-0.064c0.026-0.024,0.051-0.047,0.071-0.046l0.032,0.022l0.027-0.022l-0.057-0.035
					c-0.036-0.003-0.066,0.025-0.098,0.055c-0.032,0.029-0.065,0.06-0.099,0.055c-0.03-0.004-0.063-0.035-0.098-0.091
					c-0.038-0.062-0.049-0.126-0.033-0.191c0.04-0.164,0.236-0.285,0.239-0.287l-0.018-0.03
					C33.645,25.223,33.442,25.347,33.399,25.526z"/>
				<path d="M32.892,27.874c0.018-0.064,0.067-0.118,0.145-0.161c-0.016,0.001,0.077,0.077,0.156,0.068c0,0,0.032-0.017,0.052-0.028
					c0.021,0.018,0.159,0.143,0.159,0.302c0,0.033-0.006,0.068-0.021,0.102l0.032,0.014c0.101-0.238-0.152-0.449-0.155-0.452
					l-0.009-0.007l-0.016,0.01l-0.045,0.024c-0.065,0.007-0.15-0.062-0.15-0.063c-0.107,0.047-0.161,0.108-0.181,0.181
					L32.892,27.874z"/>
				<path d="M34.066,27.266c-0.076,0.006-0.287,0.047-0.356,0.157c-0.025,0.04-0.029,0.084-0.011,0.131l0.028,0.074
					c0.066,0.177,0.134,0.36,0.209,0.402l0.017-0.03c-0.063-0.035-0.132-0.22-0.193-0.383l-0.028-0.074
					c-0.014-0.037-0.012-0.07,0.007-0.1c0.057-0.09,0.247-0.133,0.33-0.14c0.048-0.004,0.064,0.175,0.074,0.282l0.035-0.003
					C34.163,27.422,34.149,27.259,34.066,27.266L34.066,27.266z"/>
				<path d="M33.486,27.44c-0.044,0.04-0.035,0.1-0.035,0.102c0,0.016,0.02,0.459,0.23,0.55l0.014-0.032
					c-0.19-0.083-0.209-0.518-0.209-0.522c0-0.003-0.006-0.047,0.024-0.073c0.032-0.028,0.095-0.03,0.183-0.006l0.009-0.033
					C33.6,27.398,33.528,27.403,33.486,27.44L33.486,27.44z"/>
				<path d="M33.32,27.476c-0.093,0.065-0.089,0.249-0.089,0.257l0.035-0.001c0-0.002-0.003-0.174,0.074-0.228
					c0.029-0.02,0.067-0.021,0.114-0.002l0.013-0.032C33.408,27.447,33.359,27.449,33.32,27.476L33.32,27.476z"/>
			</g>
			<g>
				<path d="M38.321,25.035c0.002,0.003,0.099,0.223,0.099,0.401c0,0.032-0.015,0.054-0.022,0.082
					c-0.004-0.01-0.038-0.103-0.038-0.103l-0.029,0.075c-0.001,0.004-0.04,0.105,0.029,0.218c0.091,0.15,0.317,0.245,0.672,0.284h0
					c0,0,0.004,0.004,0.004,0.004c-0.014,0.003-0.025,0.007-0.029,0.01l-0.014,0.012l0.002,0.03
					c0.009,0.037,0.051,0.039,0.135,0.042c0.014,0.001,0.037,0.004,0.053,0.005c0.021,0.006,0.042,0.012,0.042,0.012
					s-0.006-0.007-0.007-0.008c0.081,0.006,0.172,0.025,0.271,0.062c-0.022,0.006-0.075,0.019-0.075,0.019l0.088,0.035
					c0.007,0.003,0.654,0.263,0.922,0.476c-0.076,0.066-0.401,0.308-0.963,0.17l-0.094-0.023l0.064,0.073
					c0.004,0.004,0.37,0.424,0.446,0.679c-0.128,0.001-0.619-0.003-0.791-0.149l-0.044,0.04c0.002,0.004,0.236,0.346,0.288,0.613
					c-0.067,0.009-0.227,0.015-0.321-0.108l-0.044-0.057c0,0-0.018,0.115-0.024,0.154c-0.046-0.034-0.103-0.086-0.103-0.141v-0.036
					c0,0-0.12,0.022-0.139,0.025c-0.016-0.01-0.215-0.131-0.285-0.173c-0.024-0.016-0.04-0.025-0.046-0.028l-0.003-0.002
					l-0.002-0.001l-0.029,0.053c0,0,0.034,0.02,0.044,0.026c0.061,0.04,0.165,0.126,0.176,0.241c-0.045,0.003-0.185,0.01-0.185,0.01
					l0.003,0.032v0.005c0,0.019-0.006,0.099-0.064,0.278c-0.088-0.021-0.406-0.132-0.594-0.671l-0.059,0.015
					c0,0.001,0.001,0.009,0.001,0.02c0,0.049-0.017,0.172-0.186,0.216c-0.001,0-0.314,0.094-0.488,0.146
					c0.033-0.047,0.062-0.11,0.062-0.203c0-0.02-0.001-0.041-0.004-0.063c-0.011-0.078-0.017-0.144-0.017-0.198
					c0-0.114,0.028-0.181,0.106-0.229l-0.027-0.054c-0.007,0.003-0.727,0.289-1.084,0.17c0.016-0.07,0.077-0.315,0.199-0.576
					L36.2,26.962c0.023-0.01,0.047-0.047,0.028-0.164l-0.007-0.04l-0.037,0.018c-0.002,0.001-0.231,0.103-0.561-0.018
					c0.007-0.027,0.024-0.076,0.093-0.104l0.02-0.008l-0.002-0.022c0,0-0.001-0.016-0.001-0.04c0-0.089,0.014-0.298,0.142-0.348
					l-0.014-0.059c-0.004,0.001-0.39,0.031-0.624-0.099c0.061-0.042,0.19-0.12,0.341-0.142l0.024-0.003l0.002-0.024
					c0-0.001,0.001-0.008,0.001-0.02c0-0.03-0.012-0.092-0.039-0.154c0.089,0.025,0.196,0.047,0.234,0.019l0.013-0.01l-0.011-0.234
					l-0.061,0.003c0,0,0.007,0.155,0.009,0.194c-0.038,0.002-0.135-0.017-0.229-0.047l-0.093-0.03l0.06,0.077
					c0.049,0.063,0.055,0.141,0.056,0.176c-0.211,0.039-0.376,0.17-0.383,0.176l-0.031,0.025l0.033,0.023
					c0.181,0.126,0.465,0.137,0.611,0.134c-0.086,0.097-0.1,0.259-0.1,0.34c0,0.017,0.001,0.021,0.001,0.029
					c-0.103,0.056-0.119,0.16-0.119,0.165l-0.002,0.023l0.021,0.009c0.312,0.124,0.525,0.064,0.597,0.038
					c0.001,0.01,0.003,0.023,0.003,0.03c0,0.029-0.005,0.037-0.005,0.037c-0.153,0.321-0.217,0.626-0.218,0.629l-0.005,0.025
					l0.024,0.009c0.289,0.116,0.809-0.042,1.04-0.124c-0.03,0.052-0.048,0.111-0.048,0.184c0,0.061,0.007,0.13,0.018,0.206
					c0.003,0.019,0.004,0.037,0.004,0.055c0,0.172-0.116,0.238-0.122,0.241l0.023,0.056l0.601-0.181
					c0.139-0.036,0.191-0.118,0.213-0.188c0.237,0.563,0.61,0.613,0.626,0.615l0.024,0.002l0.008-0.023
					c0.058-0.173,0.071-0.261,0.074-0.303c0.04-0.002,0.186-0.01,0.186-0.01l0.002-0.027c0-0.005,0-0.009,0-0.014
					c0-0.05-0.016-0.094-0.037-0.133c0.038,0.023,0.104,0.063,0.104,0.063s0.069-0.013,0.1-0.018
					c0.026,0.101,0.145,0.179,0.161,0.189l0.039,0.023c0,0,0.014-0.092,0.02-0.132c0.149,0.133,0.359,0.093,0.369,0.091l0.027-0.007
					l-0.004-0.027c-0.03-0.203-0.167-0.445-0.247-0.574c0.264,0.12,0.745,0.111,0.768,0.111l0.036-0.001l-0.007-0.035
					c-0.043-0.214-0.309-0.55-0.421-0.684c0.62,0.117,0.953-0.205,0.967-0.22l0.022-0.023l-0.024-0.021
					c-0.208-0.182-0.689-0.392-0.882-0.473c0.011-0.003,0.068-0.017,0.068-0.017l-0.067-0.037c-0.161-0.091-0.333-0.102-0.448-0.107
					l-0.001-0.001c-0.073-0.084-0.111-0.097-0.12-0.1c-0.419-0.046-0.573-0.164-0.629-0.254c-0.005-0.007-0.002-0.013-0.006-0.02
					c0.009-0.012,0.018-0.024,0.018-0.024c0.04-0.053,0.055-0.123,0.055-0.198c0-0.193-0.098-0.413-0.103-0.425L38.321,25.035
					L38.321,25.035z"/>
				<path d="M36.391,24.912c-0.001,0.006-0.046,0.236-0.242,0.343c-0.147,0.081-0.342,0.074-0.578-0.02l-0.027-0.011l0.003,0.028
					c0.001,0.006,0.016,0.141,0.143,0.24c0.106,0.083,0.258,0.112,0.448,0.091c-0.064,0.075-0.268,0.337-0.268,0.59
					c0,0.013,0.001,0.027,0.002,0.04c0.026,0.019,0.346,0.105,0.495-0.084c0.005,0.081,0.029,0.342,0.13,0.444
					c0.056,0.055,0.069,0.136,0.069,0.201c0,0.058-0.011,0.103-0.011,0.104l-0.012,0.046l0.039-0.028
					c0.012-0.009,0.307-0.225,0.401-0.507c0,0.001,0.047-0.071,0.138-0.1c-0.002,0.012-0.003,0.025-0.003,0.043
					c0,0.109,0.048,0.307,0.366,0.429l0.026,0.01l-0.002-0.028c0-0.001-0.002-0.022-0.002-0.055c0-0.08,0.011-0.226,0.087-0.302
					c0.05-0.05,0.065-0.106,0.065-0.155c0-0.038-0.008-0.069-0.017-0.092c0.064,0.016,0.216,0.065,0.278,0.181
					c0.09,0.168,0.404,0.034,0.417,0.029l-0.011-0.033c-0.001,0-0.132,0.03-0.214-0.027c-0.036-0.025-0.058-0.063-0.066-0.114
					l-0.015-0.175c-0.003-0.079-0.014-0.129-0.054-0.172c0.042-0.004,0.125-0.002,0.16,0.076c0.055,0.122,0.246,0.134,0.254,0.135
					l0.065,0.003L38.4,26.006c-0.002-0.001-0.166-0.11-0.138-0.252l0.024-0.104c0.045-0.188,0.12-0.501,0.059-0.694l-0.033,0.011
					c0.015,0.048,0.021,0.105,0.021,0.166c0,0.171-0.048,0.374-0.081,0.509l-0.024,0.105c-0.003,0.014-0.004,0.028-0.004,0.041
					c0,0.092,0.06,0.162,0.106,0.204c-0.056-0.012-0.134-0.039-0.163-0.104c-0.046-0.1-0.168-0.105-0.227-0.093L37.9,25.804
					l0.035,0.023c0.055,0.037,0.057,0.08,0.061,0.173l0.015,0.178c0.009,0.061,0.036,0.107,0.08,0.138
					c0.039,0.026,0.084,0.03,0.126,0.033c-0.093,0.024-0.221,0.039-0.267-0.047c-0.087-0.161-0.324-0.204-0.334-0.206l-0.036-0.006
					l0.018,0.032c0.002,0.003,0.027,0.049,0.027,0.108c0,0.041-0.013,0.089-0.055,0.131c-0.084,0.085-0.097,0.239-0.097,0.325
					c0,0.017,0.001,0.019,0.001,0.029c-0.272-0.114-0.32-0.283-0.32-0.379c0-0.041,0.008-0.068,0.009-0.071l0.008-0.027
					l-0.028,0.005c-0.132,0.022-0.187,0.129-0.189,0.134c-0.075,0.226-0.28,0.405-0.355,0.465c0.002-0.019,0.005-0.041,0.005-0.068
					c0-0.071-0.015-0.161-0.079-0.225c-0.108-0.108-0.123-0.452-0.123-0.455l-0.002-0.062l-0.03,0.054
					c-0.12,0.214-0.469,0.111-0.472,0.11c-0.015-0.271,0.292-0.617,0.295-0.62l0.032-0.036l-0.047,0.007
					c-0.201,0.029-0.356,0.002-0.463-0.08c-0.084-0.065-0.114-0.147-0.124-0.189c0.233,0.087,0.428,0.091,0.578,0.009
					c0.21-0.116,0.256-0.353,0.258-0.363c0.22-0.499,0.413-0.578,0.415-0.579l-0.012-0.033
					C36.818,24.314,36.62,24.392,36.391,24.912L36.391,24.912z"/>
				<path d="M36.894,24.172l-0.015,0.001L36.7,24.417l0.053,0.005c0.97,0.094,1.483,0.68,1.488,0.686l0.022,0.026l0.176-0.191
					l-0.013-0.02C37.935,24.149,36.904,24.171,36.894,24.172L36.894,24.172z M36.91,24.232c0.12,0,1.003,0.028,1.451,0.705
					c-0.022,0.024-0.071,0.077-0.097,0.106c-0.105-0.109-0.602-0.573-1.454-0.673C36.843,24.325,36.898,24.249,36.91,24.232
					L36.91,24.232z"/>
				<path d="M36.754,24.684c-0.083,0.113-0.16,0.28-0.16,0.359c0,0.015,0.003,0.027,0.009,0.034
					c0.001,0.001,0.003,0.001,0.004,0.002c-0.101,0.091-0.161,0.242-0.161,0.413c0,0.094,0.017,0.192,0.052,0.285l0.019,0.053
					c0.095,0.259,0.177,0.483,0.589,0.351c0.396-0.127,0.412-0.152,0.512-0.317l0.026-0.043c0.054-0.088,0.114-0.106,0.177-0.125
					c0.075-0.023,0.154-0.046,0.222-0.181l0.067-0.1c0.072-0.099,0.162-0.222,0.173-0.38l-0.035-0.002
					c-0.01,0.147-0.097,0.266-0.166,0.361l-0.07,0.105c-0.062,0.122-0.13,0.142-0.201,0.164c-0.067,0.02-0.135,0.04-0.197,0.14
					l-0.026,0.043c-0.096,0.158-0.108,0.179-0.492,0.302c-0.38,0.121-0.45-0.068-0.546-0.33l-0.019-0.053
					c-0.108-0.289-0.024-0.58,0.117-0.684l0.048-0.036c0,0-0.06,0.007-0.067,0.008c-0.001-0.003-0.002-0.005-0.002-0.01
					c0-0.047,0.052-0.197,0.154-0.338c0.088-0.119,0.294-0.238,0.296-0.239l-0.017-0.03C37.052,24.44,36.845,24.558,36.754,24.684
					L36.754,24.684z"/>
				<path d="M36.569,25.728c0.068,0.047,0.164,0.044,0.279,0c0.001,0.041,0.01,0.128,0.081,0.192
					c0.084,0.075,0.224,0.089,0.416,0.043l-0.008-0.034c-0.18,0.043-0.309,0.031-0.385-0.035c-0.081-0.071-0.07-0.185-0.069-0.186
					l0.003-0.03l-0.028,0.012c-0.116,0.05-0.207,0.053-0.27,0.009c-0.113-0.079-0.105-0.284-0.104-0.286l-0.035-0.002
					C36.45,25.42,36.44,25.638,36.569,25.728L36.569,25.728z"/>
				<path d="M36.789,25.451c-0.05,0.012-0.063,0.053-0.063,0.085c0,0.008,0.001,0.015,0.002,0.021
					c0.009,0.089,0.106,0.149,0.194,0.174c0.086,0.025,0.191,0.026,0.233-0.027c0.017-0.021,0.029-0.06-0.008-0.122
					C37.015,25.358,36.801,25.446,36.789,25.451L36.789,25.451z M36.932,25.698c-0.077-0.022-0.162-0.072-0.169-0.146
					c-0.002-0.007-0.01-0.057,0.034-0.067l0.003-0.001c0.008-0.004,0.197-0.086,0.317,0.117c0.021,0.036,0.025,0.064,0.01,0.083
					C37.102,25.717,37.017,25.723,36.932,25.698L36.932,25.698z M36.786,25.452l0.003-0.001L36.786,25.452z"/>
				<path d="M36.909,25.904c-0.022,0.19-0.009,0.195,0.005,0.199l0.012,0.004l0.014-0.016l0.11-0.145l-0.138-0.066L36.909,25.904
					L36.909,25.904z M36.941,25.932c0.02,0.009,0.038,0.018,0.056,0.026c-0.015,0.019-0.043,0.056-0.064,0.084
					C36.933,26.014,36.936,25.974,36.941,25.932L36.941,25.932z"/>
				<path d="M36.622,25.751l-0.007,0.18l0.151-0.182l-0.143-0.016L36.622,25.751L36.622,25.751z M36.656,25.771
					c0.013,0.002,0.023,0.002,0.042,0.004c-0.015,0.018-0.024,0.03-0.044,0.053C36.655,25.801,36.656,25.786,36.656,25.771
					L36.656,25.771z"/>
				<path d="M36.522,25.694c0.001,0.002,0.112,0.219,0.132,0.298c0.013,0.05,0.077,0.108,0.153,0.136
					c0.076,0.029,0.148,0.024,0.201-0.013l0.1-0.083c0.033-0.032,0.044-0.041,0.071-0.036l0.006-0.034
					c-0.045-0.008-0.068,0.014-0.101,0.046l-0.096,0.08c-0.059,0.041-0.131,0.024-0.169,0.009c-0.071-0.026-0.123-0.078-0.132-0.112
					c-0.021-0.083-0.13-0.296-0.135-0.305L36.522,25.694L36.522,25.694z"/>
				<path d="M36.666,25.043c-0.122,0.057-0.174,0.205-0.176,0.211l0.033,0.011c0.001-0.001,0.049-0.141,0.158-0.191
					c0.053-0.024,0.112-0.023,0.177,0.002l0.013-0.032C36.797,25.015,36.728,25.015,36.666,25.043z"/>
				<path d="M37.489,25.434c0.01,0.007,0.241,0.183,0.108,0.396l0.029,0.018c0.15-0.241-0.114-0.441-0.117-0.443L37.489,25.434
					L37.489,25.434z"/>
				<path d="M36.794,25.468c0,0-0.036,0.131,0.148,0.177c0,0-0.173-0.001-0.184-0.046C36.746,25.554,36.759,25.455,36.794,25.468z"
					/>
				<path d="M37.356,25.624c0,0.011-0.009,0.021-0.021,0.021c-0.011,0-0.021-0.009-0.021-0.021c0-0.011,0.009-0.021,0.021-0.021
					C37.347,25.604,37.356,25.613,37.356,25.624z"/>
				<path d="M37.377,25.706c0,0.011-0.009,0.021-0.021,0.021s-0.02-0.009-0.02-0.021c0-0.011,0.009-0.02,0.02-0.02
					S37.377,25.695,37.377,25.706z"/>
				<circle cx="37.238" cy="25.665" r="0.02"/>
				<path d="M37.294,25.788c0,0.011-0.009,0.02-0.021,0.02c-0.011,0-0.02-0.009-0.02-0.02c0-0.011,0.009-0.021,0.02-0.021
					C37.285,25.767,37.294,25.777,37.294,25.788z"/>
				<path d="M36.757,25.235c0,0.011-0.009,0.021-0.021,0.021c-0.011,0-0.021-0.009-0.021-0.021c0-0.011,0.009-0.021,0.021-0.021
					C36.748,25.214,36.757,25.224,36.757,25.235z"/>
				<circle cx="36.757" cy="25.317" r="0.02"/>
				<circle cx="36.64" cy="25.276" r="0.02"/>
				<path d="M36.695,25.399c0,0.011-0.009,0.021-0.021,0.021c-0.011,0-0.02-0.009-0.02-0.021c0-0.011,0.009-0.021,0.02-0.021
					C36.686,25.378,36.695,25.387,36.695,25.399z"/>
				<path d="M37.054,24.677c0,0,0.266,0.164,0.01,0.471c0,0,0.126-0.094,0.139-0.254C37.216,24.733,37.111,24.605,37.054,24.677z"/>
				<path d="M38.075,25.118c-0.086,0.044-0.209-0.037-0.271-0.114c-0.062-0.077-0.189-0.097-0.268,0.044
					c-0.079,0.141-0.194,0.194-0.194,0.194s0.112-0.066,0.227-0.189c0.114-0.123,0.18-0.024,0.293,0.035
					c0.112,0.059,0.13,0.072,0.209,0.042L38.075,25.118L38.075,25.118z"/>
				<path d="M38.053,25.139c-0.035,0.026-0.099,0.048-0.167-0.007c-0.068-0.055-0.125-0.13-0.211-0.086
					c-0.086,0.044-0.249,0.167-0.249,0.167s0.264-0.183,0.315-0.143c0.05,0.04,0.17,0.136,0.242,0.108
					C38.055,25.149,38.053,25.139,38.053,25.139L38.053,25.139z"/>
				<path d="M37.85,25.251c-0.084-0.064-0.167,0.075-0.238,0.057c-0.07-0.018-0.128-0.134-0.128-0.134s0.066,0.123,0.159,0.095
					c0.093-0.028,0.156-0.086,0.213-0.042C37.914,25.27,37.85,25.251,37.85,25.251z"/>
				<path d="M37.719,25.268c-0.165,0.017-0.181-0.137-0.181-0.139c0,0,0.052,0.135,0.198,0.11L37.719,25.268z"/>
				<path d="M37.714,25.163c0.011,0.042,0.008,0.061-0.036,0.061c-0.044,0-0.075-0.015-0.075-0.058
					C37.603,25.123,37.707,25.136,37.714,25.163z"/>
				<path d="M37.121,24.934c0,0.029-0.024,0.052-0.053,0.052c-0.029,0-0.035-0.02-0.035-0.048s0.006-0.055,0.035-0.055
					S37.121,24.906,37.121,24.934z"/>
				<path d="M36.939,24.749c0,0,0.283,0.003,0.143,0.357c0,0,0.108-0.176,0.04-0.303c-0.068-0.127-0.174-0.095-0.174-0.095
					S36.922,24.733,36.939,24.749z"/>
				<path d="M36.931,24.891c-0.001,0.071,0.047,0.144,0.14,0.217l0.022-0.027c-0.085-0.066-0.128-0.13-0.127-0.19
					c0.001-0.059,0.046-0.095,0.047-0.095l-0.021-0.028C36.989,24.77,36.932,24.814,36.931,24.891L36.931,24.891z"/>
				<path d="M36.993,24.95c0.012,0.041,0.044,0.071,0.094,0.092L37.1,25.01c-0.04-0.016-0.065-0.039-0.074-0.069
					c-0.018-0.06,0.03-0.13,0.031-0.131l-0.028-0.02C37.027,24.793,36.971,24.875,36.993,24.95L36.993,24.95z"/>
				<path d="M37.381,25.147c0,0,0.053,0.114-0.024,0.238c-0.077,0.123-0.075,0.117-0.075,0.117s0.093-0.169,0.057-0.24
					C37.304,25.191,37.381,25.147,37.381,25.147L37.381,25.147z"/>
				<path d="M38.481,26.341c0.291,0.055,0.946,0.569,0.953,0.574l0.038-0.048c-0.028-0.021-0.674-0.528-0.979-0.585L38.481,26.341
					L38.481,26.341z"/>
				<path d="M38.739,27.066c0.019,0.258,0.3,0.418,0.312,0.424l0.03-0.053c-0.003-0.001-0.264-0.151-0.281-0.376L38.739,27.066z"/>
				<path d="M38.043,27.12c0,0.289,0.271,0.639,0.283,0.654l0.048-0.038c-0.003-0.003-0.27-0.348-0.27-0.616H38.043L38.043,27.12z"
					/>
				<path d="M37.124,27.152c0.048,0.095,0.043,0.144,0.03,0.167c-0.014,0.027-0.044,0.031-0.045,0.031l0.007,0.061
					c0.022-0.003,0.067-0.018,0.091-0.062c0.029-0.053,0.019-0.128-0.029-0.224L37.124,27.152L37.124,27.152z"/>
			</g>
			<g>
				<path style="fill:#FFFFFF;stroke:#000000;stroke-width:0.0272;stroke-miterlimit:3;" d="M32.993,25.726
					c0,0,0.018,0.194,0.167,0.308c0,0-0.018-0.212,0.026-0.299C33.187,25.735,33.108,25.647,32.993,25.726L32.993,25.726z"/>
				<path style="fill:#FFFFFF;stroke:#000000;stroke-width:0.0272;stroke-miterlimit:3;" d="M33.292,25.849
					c0,0,0.035,0.176,0.141,0.255l0.062-0.018c0,0,0.026-0.22,0.062-0.247C33.591,25.814,33.407,25.92,33.292,25.849z"/>
				<path style="fill:#FFFFFF;stroke:#000000;stroke-width:0.0272;stroke-miterlimit:3;" d="M33.556,25.84l0.114,0.176l0.132-0.07
					l-0.026-0.211C33.776,25.735,33.697,25.717,33.556,25.84L33.556,25.84z"/>
				<path style="fill:#FFFFFF;stroke:#000000;stroke-width:0.0272;stroke-miterlimit:3;" d="M34.093,25.876l-0.15,0.123
					c0,0-0.079-0.062-0.141-0.053l0.027-0.194C33.829,25.753,33.935,25.673,34.093,25.876L34.093,25.876z"/>
				<path style="fill:#FFFFFF;stroke:#000000;stroke-width:0.0272;stroke-miterlimit:3;" d="M33.028,27.698
					c0,0-0.026-0.273,0.009-0.291c0,0,0.105,0.035,0.15-0.009c0,0,0.062,0.22,0.044,0.308C33.213,27.795,33.107,27.76,33.028,27.698
					L33.028,27.698z"/>
				<path style="fill:#FFFFFF;stroke:#000000;stroke-width:0.0272;stroke-miterlimit:3;" d="M33.706,27.416
					c0,0-0.009-0.229,0.035-0.255c0,0,0.22,0.026,0.273-0.088l0.079,0.22C34.093,27.293,33.847,27.266,33.706,27.416z"/>
				<path style="fill:#FFFFFF;stroke:#000000;stroke-width:0.0265;stroke-miterlimit:3;" d="M33.469,27.46
					c0,0,0.044-0.238,0.088-0.246c0,0,0.114,0.035,0.15-0.009l-0.009,0.291C33.698,27.495,33.706,27.372,33.469,27.46L33.469,27.46z
					"/>
				<path style="fill:#FFFFFF;stroke:#000000;stroke-width:0.0265;stroke-miterlimit:3;" d="M33.213,27.495
					c0,0,0.053-0.211,0.088-0.211c0.035,0,0.123,0.053,0.167,0.018v0.159c0,0-0.194-0.044-0.22,0.22L33.213,27.495L33.213,27.495z"
					/>
			</g>
		</g>
		<g id="sugarcanes">
			<path style="fill:#00A651;stroke:#000000;stroke-width:0.059;stroke-miterlimit:4.8;" d="M36.645,31.878
				c0,0,0.598,0.556,0.442,1.04c0,0,0.385-0.827-0.028-1.069C36.645,31.607,36.631,31.793,36.645,31.878L36.645,31.878z"/>
			<path style="fill:#964B36;stroke:#000000;stroke-width:0.059;stroke-miterlimit:4.8;" d="M35.889,32.419
				c0,0-0.157,0.214,0.014,0.371c0,0-0.185,0.27-0.042,0.499c0,0-0.114,0.242-0.086,0.499c0,0-0.1,0.399,0.114,0.584
				c0,0,0.228,0.114,0.328,0.014c0,0,0.199-0.299,0.071-0.613c0,0,0.143-0.256-0.014-0.584c0,0,0.043-0.185-0.085-0.399
				c0,0,0.085-0.143,0.014-0.257C36.203,32.533,35.918,32.234,35.889,32.419L35.889,32.419z"/>
			<path style="fill:#00A651;stroke:#000000;stroke-width:0.059;stroke-miterlimit:4.8;" d="M36.06,31.721
				c0,0-0.712-1.368-1.211-1.425c-0.499-0.057-0.527-0.541-0.527-0.541s0.057,0.228,0.456,0.228c0.399,0,1.169,0.556,1.254,0.983
				c0.085,0.427,0.171,0.371,0.171,0.371L36.06,31.721L36.06,31.721z"/>
			<path style="fill:#00A651;stroke:#000000;stroke-width:0.059;stroke-miterlimit:4.8;" d="M36.06,31.621
				c0,0,0.257-1.724,1.383-1.753c1.125-0.029,0.755,0.085,1.026-0.1c0,0-0.755,0.399-1.225,0.456
				c-0.47,0.057-0.855,0.969-0.841,1.14c0.014,0.171-0.256,0.499-0.385,0.385C35.89,31.635,36.06,31.621,36.06,31.621L36.06,31.621z
				"/>
			<path style="fill:#00A651;stroke:#000000;stroke-width:0.059;stroke-miterlimit:4.8;" d="M36.317,32.263
				c0,0,0.256-0.684,0.698-0.456c0,0-0.342-0.656-0.955-0.086C36.06,31.721,36.331,32.092,36.317,32.263L36.317,32.263z"/>
			<path style="fill:#00A651;stroke:#000000;stroke-width:0.059;stroke-miterlimit:4.8;" d="M35.462,31.578
				c0,0,0.371,1.525-0.2,1.995c0,0,0.014-0.783-0.328-1.254C34.593,31.849,35.276,31.336,35.462,31.578L35.462,31.578z"/>
			<path style="fill:#00A651;stroke:#000000;stroke-width:0.059;stroke-miterlimit:4.8;" d="M35.505,31.849
				c0,0,0.67,0.641,0.713,0.855c0.043,0.214,0.199-0.641-0.114-0.883c-0.314-0.243-0.656-0.285-0.656-0.285L35.505,31.849z"/>
			<path style="fill:#964B36;stroke:#000000;stroke-width:0.059;stroke-miterlimit:4.8;" d="M34.269,33.53
				c0,0,0.061,0.269,0.226,0.321c0,0,0.009,0.2,0.156,0.261c0,0-0.078,0.165,0.052,0.269c0,0-0.026,0.33,0.095,0.4
				c0,0,0.296-0.017,0.4-0.104c0,0,0.061-0.217-0.104-0.434c0,0,0.026-0.208-0.139-0.321c0,0,0.052-0.278-0.156-0.382
				c0,0-0.035-0.226-0.165-0.339C34.634,33.2,34.382,33.556,34.269,33.53L34.269,33.53z"/>
			<path style="fill:#00A651;stroke:#000000;stroke-width:0.059;stroke-miterlimit:4.8;" d="M34.599,33.2
				c0,0-0.877-0.321-1.364,0.139c0,0,0.747,0.104,0.843,0.252C34.173,33.738,34.633,33.348,34.599,33.2L34.599,33.2z"/>
			<path style="fill:#00A651;stroke:#000000;stroke-width:0.059;stroke-miterlimit:4.8;" d="M34.33,33.747
				c0,0-0.069-0.061-0.156-0.122c-0.087-0.061-0.825-0.261-0.93,0.452c0,0-0.269-0.704,0.122-0.799
				C33.757,33.182,34.069,33.408,34.33,33.747"/>
			<path style="fill:#00A651;stroke:#000000;stroke-width:0.059;stroke-miterlimit:4.8;" d="M33.752,32.291
				c0,0,0.27,0.584,0.37,0.613c0.1,0.028,0.171-0.071,0.171-0.071S33.937,32.306,33.752,32.291z"/>
			<path style="fill:#00A651;stroke:#000000;stroke-width:0.059;stroke-miterlimit:4.8;" d="M33.553,31.394
				c0,0-0.228-0.755-0.499-0.556c-0.271,0.2-0.2,0.741-0.2,0.741s-0.542-0.555-0.228-0.997C32.94,30.14,33.553,30.624,33.553,31.394
				L33.553,31.394z"/>
			<path style="fill:#964B36;stroke:#000000;stroke-width:0.059;stroke-miterlimit:4.8;" d="M34.166,32.947c0,0,0,0.143,0.1,0.185
				c0.1,0.043,0.285,0.114,0.285,0.029c0-0.085-0.142-0.413-0.2-0.37C34.294,32.833,34.194,32.832,34.166,32.947L34.166,32.947z"/>
			<path style="fill:#00A651;stroke:#000000;stroke-width:0.059;stroke-miterlimit:4.8;" d="M33.995,32.063
				c0,0-0.028-0.655,0.399-0.898c0,0,0.086,0.015,0.129-0.114c0,0-0.342,0.826-0.243,1.239l-0.014,0.057"/>
			<path style="fill:#00A651;stroke:#000000;stroke-width:0.059;stroke-miterlimit:4.8;" d="M34.08,31.265
				c0,0,0.769-1.596,1.71-1.04c0,0-0.983,0.2-1.339,0.898l-0.356,0.527L34.08,31.265L34.08,31.265z"/>
			<path style="fill:#00A651;stroke:#000000;stroke-width:0.059;stroke-miterlimit:4.8;" d="M33.667,31.849
				c0,0-0.228-1.069-0.371-1.211c-0.143-0.143-0.385-0.299-0.67-0.057c0,0,0.499-0.442,1.026-0.071
				c0.527,0.371,0.413,0.955,0.413,0.955l-0.057,0.741l-0.356-0.328"/>
			<path style="fill:#00A651;stroke:#000000;stroke-width:0.059;stroke-miterlimit:4.8;" d="M34.493,33.117
				c0,0-0.941-1.781-1.553-0.513c0,0-0.114,0.328,0.014,0.456c0,0-0.342-0.256-0.185-0.883c0.157-0.627,1.197-0.342,1.496,0.171
				c0.299,0.513,0.385,0.77,0.342,0.798C34.564,33.175,34.493,33.117,34.493,33.117L34.493,33.117z"/>
			<path style="fill:#00A651;stroke:#000000;stroke-width:0.059;stroke-miterlimit:4.8;" d="M37.144,33.631
				c0,0,0.684-1.411,1.083-0.77c0,0,0.114,0.313-0.057,0.442c0,0-0.27-0.328-0.513,0.071c-0.242,0.399-0.143,0.371-0.143,0.371
				S37.258,33.816,37.144,33.631L37.144,33.631z"/>
			<path style="fill:#00A651;stroke:#000000;stroke-width:0.059;stroke-miterlimit:4.8;" d="M38.169,33.303
				c0,0,0.37,0.199,0.243,0.598c0,0,0.498-0.955-0.185-1.04C38.226,32.861,38.355,33.16,38.169,33.303L38.169,33.303z"/>
			<path style="fill:#00A651;stroke:#000000;stroke-width:0.059;stroke-miterlimit:4.8;" d="M38.212,32.334
				c0,0,0.898,0.256,0.926,0.641c0,0,0.157-0.741-0.356-0.969C38.782,32.006,38.169,32.106,38.212,32.334L38.212,32.334z"/>
			<path style="fill:#00A651;stroke:#000000;stroke-width:0.059;stroke-miterlimit:4.8;" d="M38.611,31.151
				c0.385-0.755,0.869,0.242,0.869,0.242s0.171-0.784-0.313-0.926c-0.485-0.142-0.798,1.667-0.798,1.667l-0.57,0.128
				c0,0,0.157-1.581,1.012-1.724l0.1,0.014"/>
			<path style="fill:#00A651;stroke:#000000;stroke-width:0.059;stroke-miterlimit:4.8;" d="M37.927,31.607
				c0,0-0.541-1.111-0.912-1.225c-0.371-0.114,0.2-0.285,0.428-0.071c0.228,0.214,0.655,0.484,0.612,1.055L37.927,31.607
				L37.927,31.607z"/>
			<path style="fill:#00A651;stroke:#000000;stroke-width:0.059;stroke-miterlimit:4.8;" d="M37.371,33.132
				c0,0,0.157-0.755,0.584-0.983c0.427-0.228,0.827-0.142,0.827-0.142s-0.513,0.114-0.598,0.371c-0.086,0.256-0.228,0.27-0.228,0.27
				L37.371,33.132L37.371,33.132z"/>
			<path style="fill:#964B36;stroke:#000000;stroke-width:0.059;stroke-miterlimit:4.8;" d="M37.144,33.631
				c0,0-0.242,0.456-0.185,0.527c0,0-0.256,0.37-0.157,0.556c0,0,0.257,0.2,0.371,0.114c0,0,0.299-0.413,0.213-0.641
				c0,0,0.2-0.27,0.129-0.441C37.514,33.745,37.215,33.759,37.144,33.631L37.144,33.631z"/>
			<g>
				<path d="M35.89,32.816c0.016,0.008,0.16,0.078,0.257,0.046l0.069-0.059l-0.054-0.027c-0.035,0.07-0.192,0.012-0.245-0.014
					L35.89,32.816z"/>
				<path d="M35.867,33.259l-0.012,0.06c0.012,0.002,0.301,0.058,0.439-0.064l-0.04-0.045C36.139,33.311,35.87,33.26,35.867,33.259
					L35.867,33.259z"/>
				<path d="M35.793,33.762l-0.036,0.049c0.003,0.003,0.339,0.242,0.554-0.019l-0.047-0.039
					C36.087,33.97,35.805,33.771,35.793,33.762z"/>
				<path d="M34.489,33.835l0.013,0.033c0.012-0.005,0.297-0.119,0.315-0.328l-0.035-0.003
					C34.765,33.724,34.491,33.834,34.489,33.835z"/>
				<path d="M34.65,34.095l0.002,0.035c0.011-0.001,0.274-0.021,0.32-0.204l-0.034-0.009C34.898,34.076,34.652,34.095,34.65,34.095z
					"/>
				<path d="M34.704,34.364l-0.002,0.035c0.013,0.001,0.307,0.016,0.407-0.147l-0.03-0.018
					C34.99,34.379,34.707,34.364,34.704,34.364z"/>
				<path d="M36.937,34.18c0.005,0.006,0.132,0.131,0.28,0.125c0.073-0.003,0.137-0.036,0.191-0.099l-0.046-0.04
					c-0.043,0.049-0.093,0.076-0.147,0.078c-0.121,0.004-0.235-0.106-0.236-0.108L36.937,34.18L36.937,34.18z"/>
			</g>
		</g>
		<g id="palm">
			<g>
				<path style="fill:#964B36;stroke:#000000;stroke-width:0.0318;stroke-miterlimit:4.8;" d="M45.786,35.221
					c-0.016,0.006-0.032,0.016-0.046,0.03L45.786,35.221z"/>
				<path style="fill:#964B36;stroke:#000000;stroke-width:0.0318;stroke-miterlimit:4.8;" d="M46.833,34.959
					c-0.01-0.026-0.017-0.015-0.03-0.027c-0.019-0.016-0.03-0.066-0.047-0.085c-0.01-0.012-0.022,0-0.032-0.003
					c-0.024-0.054-0.053-0.111-0.079-0.163c0.004-0.006,0.007-0.013,0.007-0.024c0-0.002-0.012-0.044-0.013-0.045
					c-0.007-0.012-0.019-0.005-0.026-0.023c-0.008-0.018-0.002-0.053-0.005-0.074c-0.002-0.018-0.009-0.027-0.008-0.052
					c0.001-0.022,0.013-0.047,0.011-0.065c-0.001-0.012-0.014-0.038-0.019-0.048c-0.017-0.041-0.031-0.079-0.033-0.129
					c-0.002-0.045,0.007-0.073,0.01-0.113c0.004-0.047-0.021-0.07-0.021-0.114c0-0.033,0.014-0.071,0.018-0.101
					c0.006-0.041,0.006-0.1,0.003-0.142c-0.003-0.04-0.014-0.064-0.008-0.11c0.002-0.011,0.007-0.02,0.008-0.035
					c0-0.011,0-0.022,0-0.033v-0.065c0-0.021,0.002-0.045,0-0.065c-0.002-0.017-0.012-0.035-0.012-0.048
					c0-0.023,0.015-0.034,0.012-0.066c-0.002-0.023-0.005-0.028-0.01-0.048c-0.01-0.037-0.003-0.075-0.009-0.115
					c-0.003-0.019-0.009-0.025-0.011-0.047c-0.003-0.026,0.005-0.035,0.008-0.053c0.003-0.018,0.005-0.042,0.003-0.061
					c-0.003-0.023-0.014-0.039-0.011-0.065l-0.008,0.286c-0.007-0.249-0.017-0.48-0.017-0.48l-0.379-0.178
					c0,0-0.032,0.697-0.024,0.794c0.008,0.097,0.04,0.762,0.024,0.843c-0.016,0.081-0.056,0.486-0.056,0.486
					s-0.186,0.13-0.258,0.275c-0.073,0.146-0.057,0.195-0.081,0.195l0.18-0.028l-0.134,0.09c0.028-0.01,0.057-0.008,0.084,0.013
					c0.003,0.003,0.023,0.02,0.026,0.02c0.007,0,0.017-0.018,0.025-0.021c0.028-0.009,0.052,0.043,0.078,0.039
					c0.014-0.002,0.034-0.017,0.045-0.032c0.01-0.013,0.013-0.035,0.023-0.044c0.009-0.008,0.032,0.001,0.042,0.001
					c0.026,0,0.053,0.001,0.08,0c0.035-0.001,0.064-0.051,0.096-0.079c0.03-0.025,0.053-0.034,0.085-0.033
					c0.035,0.003,0.068,0.036,0.104,0.038c0.027,0.001,0.046,0.005,0.068-0.024c0.015-0.02,0.026-0.05,0.04-0.07l0.09-0.014
					c0.018,0.007,0.036,0.016,0.051,0.015c0.023-0.001,0.047-0.004,0.069,0c0.009,0.001,0.026,0.021,0.033,0.016
					c0.005-0.004,0.013-0.031,0.018-0.039C46.841,34.996,46.837,34.968,46.833,34.959L46.833,34.959z"/>
				<path style="fill:#964B36;stroke:#000000;stroke-width:0.0318;stroke-miterlimit:4.8;" d="M46.066,35.209
					c0.023,0,0.044-0.005,0.063,0.012c0.003,0.006,0.006,0.012,0.009,0.018c0.006,0.004,0.013,0.005,0.019,0.003
					c0.013,0.009,0.016,0.014,0.03,0.017c0.013,0.003,0.028-0.001,0.041,0c0.017,0.001,0.025,0.006,0.04,0.013
					c0.027,0.011,0.045,0.001,0.068-0.016c0.027-0.02,0.037-0.005,0.063,0.02c0.02,0.019,0.016,0.017,0.033,0.004
					c0.003-0.006,0.006-0.012,0.009-0.017c0.009-0.004,0.018-0.006,0.026-0.008c0.015-0.007,0.029-0.006,0.043-0.011
					c0.014-0.006,0.025-0.022,0.04-0.019c0.013,0.003,0.028,0.013,0.041,0.017c0.012,0.004,0.017,0.007,0.027,0.014
					c0.018-0.037,0.058-0.048,0.084-0.066c0.027-0.018,0.051,0.004,0.08,0.004c0.016,0,0.022-0.009,0.033-0.013
					c0.012-0.005,0.026,0.002,0.038-0.003c0.013-0.005,0.015-0.017,0.029-0.018c0.026-0.003,0.054,0.039,0.08,0.047
					c0.014,0.005,0.081,0.02,0.071-0.029c-0.009-0.047-0.051-0.014-0.06-0.047c-0.005-0.019,0.005-0.045-0.001-0.066
					c-0.005-0.019-0.026-0.041-0.039-0.045c-0.016-0.005-0.025,0.012-0.038-0.001c-0.011-0.01-0.015-0.049-0.025-0.064
					c-0.013,0.009-0.021,0.018-0.038,0.015c-0.02-0.005-0.018-0.011-0.032-0.03c-0.032-0.039-0.05,0.024-0.079,0.014
					c-0.022-0.007-0.043-0.063-0.06-0.085c-0.009-0.012-0.035-0.051-0.049-0.043c-0.023,0.015-0.002,0.057-0.014,0.076
					c-0.008,0.013-0.038,0-0.049,0.002c-0.017,0.004-0.02,0.008-0.033,0.029c-0.025,0.041-0.039,0.074-0.078,0.069
					c-0.018-0.002-0.032-0.021-0.05-0.014c-0.019,0.007-0.03,0.028-0.051,0.03c-0.015,0.001-0.033,0.002-0.048-0.004
					c-0.015-0.007-0.031-0.034-0.045-0.042c-0.006-0.005-0.012-0.006-0.018-0.003c-0.002-0.001-0.022-0.013-0.022-0.013
					c-0.023-0.007-0.022-0.006-0.031,0.025c-0.006,0.019-0.008,0.039-0.015,0.057c-0.007,0.015-0.022,0.034-0.03,0.044
					c-0.016,0.018-0.024,0.013-0.045,0.019c-0.017,0.006-0.04,0.032-0.049-0.002c-0.014-0.052,0.038-0.129-0.02-0.115
					c-0.015,0.003-0.024,0.006-0.033,0.028c-0.01,0.025-0.002,0.042-0.007,0.07c-0.006,0.035-0.073,0.094-0.06,0.126
					c0.009,0.022,0.039-0.012,0.047-0.007c0.014,0.009,0.01,0.032,0.019,0.047c0.02,0.031,0.08-0.048,0.084-0.005"/>
				<path style="fill:#964B36;stroke:#000000;stroke-width:0.0318;stroke-miterlimit:4.8;" d="M45.823,34.933
					c0-0.004-0.001-0.009-0.001-0.013c-0.016-0.003-0.034-0.02-0.049-0.02c-0.014-0.001-0.041,0.033-0.051,0.049
					c-0.029,0.049-0.021,0.115-0.071,0.114c-0.012,0-0.04-0.008-0.051-0.001c-0.019,0.013-0.007,0.052-0.007,0.079
					c0,0.025,0.011,0-0.002,0.032c-0.004,0.009-0.016,0.012-0.019,0.024c-0.01,0.042,0.025,0.029,0.041,0.028c0.04,0,0.08,0,0.119,0
					c0.024,0.001,0.038-0.008,0.061-0.017c0.015-0.005,0.046-0.005,0.058-0.018c0.004-0.005,0.019-0.038,0.021-0.046
					c0.003-0.016-0.003-0.036,0.001-0.05c0.006-0.024,0.028-0.015,0.032-0.047c0.01-0.079-0.074-0.02-0.061-0.098"/>
			</g>
			<g>
				<path style="stroke:#000000;stroke-width:0.059;stroke-miterlimit:4.8;" d="M46.78,32.731c0,0.103-0.07,0.185-0.157,0.185
					c-0.086,0-0.157-0.083-0.157-0.185c0-0.102,0.071-0.185,0.157-0.185C46.71,32.546,46.78,32.629,46.78,32.731z"/>
				<path style="stroke:#000000;stroke-width:0.059;stroke-miterlimit:4.8;" d="M46.267,32.503c0,0.102-0.07,0.185-0.157,0.185
					c-0.087,0-0.157-0.083-0.157-0.185s0.07-0.185,0.157-0.185C46.197,32.317,46.267,32.4,46.267,32.503z"/>
				<path style="stroke:#000000;stroke-width:0.059;stroke-miterlimit:4.8;" d="M46.538,32.574c0,0.103-0.07,0.185-0.157,0.185
					c-0.087,0-0.157-0.083-0.157-0.185c0-0.103,0.07-0.185,0.157-0.185S46.538,32.471,46.538,32.574z"/>
				<path style="stroke:#000000;stroke-width:0.059;stroke-miterlimit:4.8;" d="M46.275,32.743c0,0.103-0.07,0.186-0.157,0.186
					s-0.157-0.083-0.157-0.186c0-0.102,0.07-0.185,0.157-0.185S46.275,32.641,46.275,32.743z"/>
				<path style="stroke:#000000;stroke-width:0.059;stroke-miterlimit:4.8;" d="M46.519,32.885c0,0.102-0.071,0.186-0.157,0.186
					c-0.086,0-0.157-0.083-0.157-0.186s0.07-0.185,0.157-0.185C46.448,32.7,46.519,32.782,46.519,32.885z"/>
			</g>
			<path style="fill:#00A651;stroke:#000000;stroke-width:0.059;stroke-miterlimit:4.8;" d="M46.595,30.864
				c0,0,1.582-2.208,3.277,0.086c0,0,0.014,0.228-0.143,0.47l-0.043-0.185l-0.1,0.028l-0.028-0.114l-0.186-0.014l0.057-0.242
				l-0.2,0.157l0.029-0.171l-0.228,0.228l0.029-0.485l-0.242,0.413l0.028-0.285l-0.085,0.128l-0.051-0.166l-0.077,0.166
				l-0.114-0.085v0.114l-0.199-0.171l-0.071,0.228l-0.1-0.242l-0.029,0.171l-0.1-0.2l-0.014,0.214l-0.328-0.143l0.071,0.2
				l-0.156-0.114l0.028,0.114l-0.213-0.043l0.014,0.128l-0.228-0.043l0.043,0.114l-0.314-0.042l0.114,0.128l-0.032,0.052
				c0,0,1.713-0.565,1.827,1.572l-0.314,0.157l0.086-0.171l-0.086-0.057l-0.256-0.199l0.071-0.271l-0.085,0.029l-0.014-0.157
				l-0.043,0.028l-0.1-0.157l-0.028,0.057l-0.071-0.186l-0.071,0.129l-0.043-0.314l-0.114,0.2l-0.015-0.114l-0.043,0.071
				l-0.142-0.171l-0.042,0.114l-0.057-0.085l-0.043,0.1l-0.157-0.143v0.114l-0.1-0.086l-0.043,0.057l-0.242-0.128l-0.015,0.114
				l-0.128-0.114l-0.043,0.114c0,0,1.554,0.884,1.069,2.323l-0.086,0.185l-0.028-0.484l-0.142,0.256l0.099-0.556l-0.099,0.1
				l-0.015-0.213l-0.128,0.213l-0.043-0.242l-0.057,0.071l-0.086-0.371l-0.071,0.157l-0.114-0.413l-0.085,0.171l-0.057-0.356
				l-0.057,0.214l-0.171-0.314l-0.028,0.128l-0.1-0.256l-0.057,0.086c0,0-0.285-0.015-0.37-0.086
				c-0.085-0.071-0.328,0.428-0.328,0.428l0.029-0.299l-0.1,0.199v-0.199l-0.185,0.598l-0.043-0.427l-0.1,0.37l-0.043-0.114
				l-0.028,0.157l-0.057-0.057l-0.05,0.168l-0.093-0.068v0.228l-0.085-0.114l-0.071,0.342l-0.043-0.142V33.6l-0.071-0.085
				l-0.071,0.342l-0.1-0.142l-0.014,0.242l0.042,0.186l-0.114-0.057l0.043,0.299c0,0-0.442-0.826,0.086-1.624
				c0.527-0.798,1.239-1.012,1.239-1.012l-0.071-0.071l-0.014-0.071l-0.427,0.214l0.014-0.129l-0.114,0.1l-0.028-0.142l-0.071,0.128
				l-0.014-0.057l-0.1,0.157l-0.057-0.228l-0.071,0.271l-0.067-0.19l-0.146,0.403v-0.299l-0.114,0.314l-0.043-0.342l-0.085,0.399
				v-0.356l-0.129,0.356l-0.085-0.342l-0.057,0.328l-0.085-0.256l-0.086,0.385l-0.128-0.342l-0.071,0.513l-0.085-0.2l-0.014,0.371
				l-0.099-0.228l0.099,0.484l-0.128-0.185l0.043,0.299l-0.185-0.328l0.014,0.385l-0.1-0.129l-0.043,0.143
				c0,0-0.042-1.482,0.969-1.767c1.012-0.285,1.667,0.086,1.667,0.086l-0.385-0.313l0.043-0.1h-0.142l0.057-0.114l-0.299,0.014
				l0.085-0.114l-0.228,0.028V30.75l-0.142,0.114l0.057-0.128l-0.2,0.128l-0.012-0.19l-0.102,0.161l-0.057-0.171l-0.456,0.456
				l0.128-0.47l-0.085,0.1l-0.014-0.1l-0.128,0.2l-0.029-0.143l-0.057,0.171l-0.043-0.199l-0.099,0.199l-0.1-0.185l-0.043,0.242
				l-0.071-0.129l-0.085,0.185l-0.114-0.114l-0.014,0.114l-0.228-0.1l0.057,0.171l-0.171-0.142l-0.043,0.228l-0.099-0.114
				l-0.071,0.285l-0.071-0.271l-0.071,0.214c0,0,0.891-2.29,3.146-0.796c0,0,0.246,0.24,0.303,0.411
				c0.057,0.171,0.014,0.029,0.014,0.029l-0.043-1.582l0.085,0.684l0.057-0.242l-0.014,0.356l0.228-0.499
				c0,0-0.27,0.827-0.171,1.126c0,0,0.1-0.955,0.442-1.069l-0.314,0.684l0.1-0.014l-0.071,0.143h0.085l-0.103,0.226l-0.053,0.116
				l0.057,0.114L46.595,30.864L46.595,30.864z"/>
			<g>
				<path d="M46.36,31.793l0.045,0.04c0.006-0.006,0.147-0.156,0.384,0.043l0.039-0.047C46.545,31.591,46.361,31.791,46.36,31.793z"
					/>
				<path d="M46.291,31.017l-0.009,0.055c0,0,0.081-0.035,0.11-0.047c-0.018,0.031-0.075,0.132-0.075,0.132s0.12-0.04,0.164-0.055
					c-0.071,0.094-0.203,0.266-0.203,0.266l0.048,0.037l0.323-0.424c0,0-0.149,0.05-0.201,0.067
					c0.021-0.036,0.086-0.152,0.086-0.152s-0.132,0.057-0.174,0.075c0.012-0.07,0.036-0.217,0.036-0.217l-0.06-0.01L46.291,31.017
					L46.291,31.017z"/>
				<path d="M45.99,31.034c0,0,0.04,0.088,0.07,0.154c-0.013-0.005-0.112-0.045-0.112-0.045l0.329,0.582c0,0,0.04-0.051,0.042-0.054
					c-0.033,0.085-0.066,0.171-0.066,0.171l0.057,0.022l0.142-0.365l-0.052-0.03c0,0-0.078,0.1-0.114,0.146
					c-0.031-0.055-0.145-0.256-0.199-0.351c0.007,0.003,0.091,0.037,0.091,0.037s-0.062-0.137-0.091-0.201
					c0.038,0.024,0.123,0.077,0.123,0.077v-0.217h-0.061v0.107c-0.047-0.029-0.201-0.126-0.201-0.126L45.99,31.034L45.99,31.034z"/>
				<path d="M45.783,31.765l0.024,0.056c0.089-0.038,0.162-0.044,0.218-0.018c0.065,0.031,0.085,0.099,0.085,0.099l0.059-0.016
					c-0.001-0.004-0.027-0.094-0.117-0.138C45.98,31.714,45.889,31.719,45.783,31.765z"/>
				<rect x="45.882" y="32.186" transform="matrix(0.1549 0.9879 -0.9879 0.1549 70.7387 -18.2608)" width="0.323" height="0.061"/>
				<rect x="46.335" y="32.167" transform="matrix(0.3163 0.9487 -0.9487 0.3163 62.3121 -22.0649)" width="0.257" height="0.061"/>
				<rect x="46.51" y="32.349" transform="matrix(0.2432 0.97 -0.97 0.2432 66.7011 -20.73)" width="0.251" height="0.061"/>
			</g>
		</g>
		<g id="dove">
			<g>
				<path style="fill:#00A651;stroke:#000000;stroke-width:0.059;stroke-miterlimit:4.8;" d="M34.471,39.82
					c0,0-0.267-0.121-0.389-0.033c-0.122,0.089-0.105,0.219-0.21,0.211c0,0,0.405,0.089,0.494-0.016
					c0.089-0.105,0.105-0.138,0.105-0.138"/>
				<path style="fill:#00A651;stroke:#000000;stroke-width:0.059;stroke-miterlimit:4.8;" d="M34.52,39.932
					c0,0-0.176,0.235-0.115,0.373c0.061,0.138,0.191,0.15,0.16,0.251c0,0,0.174-0.376,0.09-0.486
					c-0.084-0.109-0.112-0.132-0.112-0.132"/>
				<path style="fill:#00A651;stroke:#000000;stroke-width:0.059;stroke-miterlimit:4.8;" d="M34.224,39.281
					c0,0-0.281,0.087-0.312,0.234c-0.032,0.147,0.066,0.233-0.018,0.297c0,0,0.362-0.203,0.358-0.341
					c-0.003-0.138-0.012-0.173-0.012-0.173"/>
				<path style="fill:#00A651;stroke:#000000;stroke-width:0.059;stroke-miterlimit:4.8;" d="M34.389,39.378
					c0,0,0.133-0.262,0.049-0.387c-0.084-0.126-0.214-0.115-0.201-0.22c0,0-0.107,0.4-0.006,0.494
					c0.102,0.093,0.133,0.111,0.133,0.111"/>
				<path style="fill:#00A651;stroke:#000000;stroke-width:0.059;stroke-miterlimit:4.8;" d="M34.114,39.282
					c0,0,0.006-0.293-0.123-0.37c-0.13-0.077-0.243-0.011-0.277-0.111c0,0,0.078,0.407,0.21,0.448
					c0.132,0.04,0.168,0.042,0.168,0.042"/>
				<path style="fill:#00A651;stroke:#000000;stroke-width:0.059;stroke-miterlimit:4.8;" d="M34.593,39.771
					c0,0,0.308-0.106,0.332,0.227c0.024,0.332-0.016,0.219-0.016,0.219s-0.162-0.356-0.34-0.413L34.593,39.771z"/>
			</g>
			<g>
				<path d="M34.515,39.937c0,0.007,0.032,0.258,0.032,0.258l0.043-0.006l-0.033-0.251c0.001,0,0.105-0.552,0.105-0.552
					l-0.043-0.008L34.515,39.937L34.515,39.937z"/>
				<path d="M34.235,39.855l-0.014,0.041c0.147,0.052,0.352-0.11,0.361-0.117l-0.027-0.034C34.553,39.747,34.36,39.9,34.235,39.855
					L34.235,39.855z"/>
				<rect x="33.905" y="39.3" transform="matrix(0.8923 0.4514 -0.4514 0.8923 21.4464 -11.2438)" width="0.771" height="0.061"/>
				<rect x="34.139" y="39.266" transform="matrix(0.7067 0.7075 -0.7075 0.7067 37.8711 -12.6301)" width="0.061" height="0.195"/>
				<rect x="34.143" y="39.185" transform="matrix(0.4188 0.9081 -0.9081 0.4188 55.5565 -8.3706)" width="0.348" height="0.061"/>
				<path d="M34.566,39.773l0.004,0.061c0.187-0.013,0.233,0.109,0.233,0.11l0.06-0.012C34.856,39.897,34.781,39.759,34.566,39.773
					L34.566,39.773z"/>
			</g>
			<path style="fill:#FFFFFF;stroke:#000000;stroke-width:0.0756;stroke-miterlimit:4.8;" d="M37.724,39.913
				c0.229-0.129,0.275-0.579,0.275-0.579c-0.055,0.166-0.477,0.331-0.477,0.331c0.312-0.193,0.688-1.065,0.688-1.065
				c-0.101,0.312-0.918,0.569-1.441,0.863c-0.523,0.294-0.248,1.138-0.248,1.138c-0.147-0.101-0.431-0.551-0.486-0.946
				c-0.055-0.395-0.211-0.55-0.569-0.596c-0.358-0.046-0.569,0.358-0.569,0.358l-0.532,0.276l0.541,0.018
				c0,0,0.386,0.129,0.386,0.432c0,0.303-0.34,1.515,0.22,2.194c0.39,0.472,1.827,0.743,1.827,0.743"/>
			<path style="fill:#FFFFFF;stroke:#000000;stroke-width:0.0756;stroke-miterlimit:4.8;" d="M36.668,40.849
				c0,0,0.11-0.542,0.468-0.523c0.358,0.018,0.459-0.404,0.67-0.468c0.211-0.064,1.304-0.358,1.423-0.881
				c0,0-0.101,0.863-1.101,1.295c0,0,0.808-0.266,0.9-0.441c0,0-0.358,0.771-1.23,0.89c0,0,0.817-0.064,0.936-0.284
				c0,0-0.367,0.486-0.973,0.551c0,0,0.56,0.229,0.707,0.037c0,0-0.303,0.358-0.68,0.385l0.101,0.028c0,0-0.358,0.422-0.753,0.138
				c-0.395-0.285-0.404,0.074-0.404,0.074"/>
			<path style="fill:#FFFFFF;stroke:#000000;stroke-width:0.0756;stroke-miterlimit:4.8;" d="M37.483,41.665
				c0,0,0.461,0.771,0.507,1.184c0,0,0.881,0.973,1.212,1.028c0,0-0.156,0.064-0.441-0.174c0,0,0.239,0.248,0.285,0.257
				c0.046,0.009-0.193-0.018-0.23-0.083c0,0,0.101,0.147,0.165,0.166c0.064,0.018-0.064-0.018-0.064-0.018s-0.12-0.018-0.175-0.064
				c-0.055-0.046-0.018,0.119-0.018,0.119s-0.138-0.037-0.183-0.083c-0.046-0.046,0.018,0.101,0.018,0.101l-0.119-0.028
				l-0.083,0.055c0,0-0.009,0.055-0.065,0.009c-0.055-0.045-0.156,0-0.156,0s-0.074,0.064-0.11,0.018
				c-0.036-0.046-0.176,0.177-0.176,0.177l-0.578-1.395"/>
			<g>
				<rect x="36.919" y="43.438" transform="matrix(0.4651 0.8853 -0.8853 0.4651 58.6613 -10.1201)" width="1.571" height="0.087"/>
				<rect x="37.139" y="43.331" transform="matrix(0.6661 0.7458 -0.7458 0.6661 45.0628 -13.9183)" width="1.876" height="0.087"/>
				<rect x="37.297" y="43.24" transform="matrix(0.7316 0.6818 -0.6818 0.7316 39.7824 -14.4739)" width="1.95" height="0.087"/>
			</g>
			<g>
				<path d="M35.381,39.502c0,0-0.093-0.167-0.174-0.104c-0.081,0.062-0.127,0.074-0.141,0.069c0,0,0.081,0.004,0.127-0.039
					C35.239,39.384,35.318,39.412,35.381,39.502L35.381,39.502z"/>
				<path d="M34.877,39.426c0,0,0.051,0.106,0.052,0.108c-0.005,0-0.058,0.171-0.058,0.171l0.042,0.013l0.057-0.186
					c-0.001-0.016-0.053-0.124-0.053-0.124L34.877,39.426L34.877,39.426z"/>
				<path d="M35.36,39.477c0,0-0.069,0.081-0.164,0.058C35.1,39.511,35.1,39.511,35.1,39.511s0.081,0.005,0.134,0.007
					C35.288,39.521,35.357,39.493,35.36,39.477z"/>
				<path d="M35.337,39.493c0,0-0.086-0.09-0.144-0.065c0,0,0.102-0.033,0.16,0.055L35.337,39.493z"/>
				<path d="M35.322,39.477c0,0-0.097,0.067-0.204-0.007l-0.007-0.005l0.014-0.004C35.126,39.46,35.26,39.516,35.322,39.477z"/>
				<circle cx="35.24" cy="39.46" r="0.029"/>
			</g>
			<path d="M35.318,42.025c0,0-0.075,0.139-0.036,0.222c0.04,0.083,0.219,0.127,0.242,0.238c0.024,0.112,0.084,0.111,0.167,0.096
				c0.084-0.016,0.099-0.02,0.099-0.02s-0.35-0.187-0.441-0.488L35.318,42.025z"/>
		</g>
		<g id="bananas">
			<g>
				<path style="fill:#964B36;stroke:#000000;stroke-width:0.0363;stroke-miterlimit:4.8;" d="M46.619,39.201
					c0,0,0.636-0.839,1.201-0.619c0.564,0.221,0.931,0.327,0.931,0.327s0.011,0.565-0.289,0.565c-0.299,0-0.586-0.564-0.859-0.397
					c-0.273,0.167-0.498,0.397-0.516,0.476C47.07,39.632,46.364,39.65,46.619,39.201L46.619,39.201z"/>
				<path style="fill:#964B36;stroke:#000000;stroke-width:0.059;stroke-miterlimit:4.8;" d="M44.204,43.247
					c0,0-0.176,0.185-0.097,0.229c0.08,0.044,0.238-0.009,0.238-0.071C44.345,43.343,44.24,43.229,44.204,43.247L44.204,43.247z"/>
				<path style="fill:#964B36;stroke:#000000;stroke-width:0.059;stroke-miterlimit:4.8;" d="M44.063,43.423
					c0,0-0.326-0.186-0.582,0.255c-0.256,0.441-0.467,1.155-0.617,1.252c-0.15,0.097,1.455-0.705,1.472-1.04
					c0,0,0.106-0.432-0.062-0.424C44.107,43.476,44.099,43.494,44.063,43.423L44.063,43.423z"/>
				<path style="fill:#964B36;stroke:#000000;stroke-width:0.0363;stroke-miterlimit:4.8;" d="M44.107,43.476
					c0,0-0.335,0.079-0.405,0.555c-0.07,0.477-0.538,0.723-0.564,0.741"/>
				<path style="fill:#964B36;stroke:#000000;stroke-width:0.0363;stroke-miterlimit:4.8;" d="M48.752,38.909
					c0,0-0.509,0.177-0.421,0.53"/>
			</g>
			<path style="fill:#FFF200;stroke:#000000;stroke-width:0.0363;stroke-miterlimit:4.8;" d="M44.839,39.941
				c0,0,0.018-1.208,1.004-1.155c0.187,0.017,0.098,0.238,0.098,0.238s0.213-0.15,0.311,0.088c0,0,0.311-0.141,0.347,0.168
				c0,0,0.338-0.044,0.293,0.229c0,0,0.231-0.053,0.222,0.141c0,0,0.267-0.106,0.24,0.167c0,0,0.293-0.194,0.249,0.159
				c0,0,0.302-0.211,0.409,0.141c0.107,0.352-0.302,1.102-0.702,1.296"/>
			<g>
				<path d="M47.581,40.014c0.001,0.009,0.133,0.945-0.397,1.287l0.019,0.029c0.55-0.355,0.414-1.312,0.413-1.322L47.581,40.014
					L47.581,40.014z"/>
				<path d="M46.942,41.039l0.024,0.025c0.336-0.327,0.408-1.208,0.411-1.245l-0.034-0.003
					C47.342,39.825,47.269,40.721,46.942,41.039L46.942,41.039z"/>
				<path d="M46.629,40.829l0.035,0.003c0.043-0.544,0.468-1.166,0.473-1.173l-0.029-0.02
					C47.103,39.646,46.673,40.276,46.629,40.829L46.629,40.829z"/>
				<path d="M46.382,40.67l0.035,0.003c0.061-0.656,0.494-1.149,0.498-1.154l-0.026-0.023C46.885,39.502,46.444,40.003,46.382,40.67
					L46.382,40.67z"/>
				<path d="M46.038,40.451l0.035,0.001c0.034-0.775,0.543-1.155,0.548-1.159L46.6,39.265
					C46.595,39.269,46.073,39.659,46.038,40.451L46.038,40.451z"/>
				<path d="M45.721,40.258l0.035-0.001c-0.025-0.705,0.517-1.127,0.522-1.132l-0.021-0.028
					C46.251,39.102,45.695,39.535,45.721,40.258L45.721,40.258z"/>
				<path d="M45.148,40.001l0.034,0.004c0.094-0.763,0.774-0.962,0.781-0.964l-0.009-0.033
					C45.947,39.009,45.245,39.214,45.148,40.001L45.148,40.001z"/>
			</g>
			<path style="fill:#00A651;stroke:#000000;stroke-width:0.0363;stroke-miterlimit:4.8;" d="M44.257,41.405
				c0,0-0.167-1.12,0.503-1.472c0,0,0.124-0.027,0.194,0.132c0,0,0.353-0.15,0.362,0.15c0,0,0.176-0.141,0.22,0.053
				c0,0,0.379-0.079,0.309,0.203c0,0,0.317-0.088,0.291,0.185c0,0,0.318-0.114,0.264,0.124c0,0,0.335-0.079,0.256,0.194
				c0,0,0.415-0.044,0.291,0.247c0,0,0.309-0.079,0.238,0.159c0,0,0.406,0.071,0.22,0.326c-0.185,0.255-0.652,0.643-1.11,0.811"/>
			<path style="fill:#00A651;stroke:#000000;stroke-width:0.0363;stroke-miterlimit:4.8;" d="M43.895,42.533
				c0,0-0.273-0.934,0.247-1.173c0,0,0.096-0.027,0.114,0.071c0,0,0.115-0.15,0.203-0.018c0,0,0.264-0.123,0.326,0.07
				c0,0,0.176-0.15,0.264,0.07c0,0,0.167-0.07,0.167,0.106c0,0,0.229-0.097,0.229,0.115c0,0,0.22-0.088,0.176,0.15
				c0,0,0.335,0.053,0.238,0.211c0,0,0.3,0.079,0.185,0.203c0,0,0.326-0.035,0.15,0.185c0,0,0.247-0.079,0.106,0.194
				c-0.141,0.273-0.582,0.573-0.89,0.608"/>
			<path style="fill:#00A651;stroke:#000000;stroke-width:0.0363;stroke-miterlimit:4.8;" d="M44.221,43.273
				c0,0-0.582-0.564-0.308-0.732c0,0,0.123,0.035,0.167,0.159c0,0,0.141-0.203,0.221,0.009c0,0,0.212-0.07,0.212,0.071l0.167,0.123
				c0,0,0.194-0.018,0.159,0.106c0,0,0.212-0.027,0.203,0.088c0,0,0.185,0.009,0.168,0.132c0,0,0.317,0.053,0.176,0.212
				c0,0-0.555,0.114-0.943-0.044C44.442,43.396,44.239,43.326,44.221,43.273L44.221,43.273z"/>
			<g>
				<path d="M46.216,42.341l0.012,0.032c0.345-0.133,0.943-0.95,0.969-0.985l-0.028-0.021
					C47.163,41.376,46.552,42.211,46.216,42.341L46.216,42.341z"/>
				<path d="M46.021,42.192l0.017,0.03c0.3-0.167,0.897-0.958,0.922-0.992l-0.028-0.021C46.926,41.217,46.314,42.028,46.021,42.192
					L46.021,42.192z"/>
				<path d="M45.851,42.122l0.022,0.027c0.317-0.263,0.778-1.132,0.798-1.168l-0.031-0.016
					C46.635,40.973,46.162,41.863,45.851,42.122L45.851,42.122z"/>
				<path d="M45.695,41.922l0.034,0.005c0.06-0.439,0.677-1.13,0.683-1.137l-0.026-0.023C46.361,40.795,45.756,41.472,45.695,41.922
					L45.695,41.922z"/>
				<path d="M44.46,41.388l0.035-0.003c-0.052-0.62,0.467-1.303,0.473-1.31l-0.028-0.021C44.934,40.061,44.407,40.754,44.46,41.388z
					"/>
				<path d="M44.787,41.442l0.034-0.006c-0.086-0.497,0.501-1.204,0.507-1.211l-0.027-0.023
					C45.277,40.232,44.698,40.929,44.787,41.442L44.787,41.442z"/>
				<path d="M45.289,41.625l0.035-0.001c-0.017-0.568,0.527-1.137,0.533-1.142l-0.025-0.024
					C45.826,40.464,45.271,41.043,45.289,41.625L45.289,41.625z"/>
				<path d="M44.091,42.654l0.033-0.012c-0.198-0.524,0.146-1.196,0.149-1.203l-0.031-0.016
					C44.238,41.43,43.888,42.115,44.091,42.654L44.091,42.654z"/>
				<path d="M44.32,42.688l0.033-0.011c-0.172-0.534,0.12-1.25,0.123-1.257l-0.032-0.013C44.44,41.413,44.143,42.141,44.32,42.688
					L44.32,42.688z"/>
				<path d="M45.265,43.221l0.012,0.033c0.563-0.202,0.93-0.715,0.934-0.72l-0.028-0.02C46.179,42.519,45.817,43.023,45.265,43.221
					L45.265,43.221z"/>
				<path d="M45.149,43.099l0.014,0.032c0.449-0.202,0.867-0.767,0.871-0.773l-0.028-0.02C46.002,42.343,45.589,42.9,45.149,43.099
					L45.149,43.099z"/>
				<path d="M45.04,43.057l0.02,0.028c0.351-0.254,0.802-0.906,0.806-0.913l-0.029-0.019C45.834,42.159,45.386,42.806,45.04,43.057
					L45.04,43.057z"/>
				<path d="M44.478,42.729l0.034-0.005c-0.078-0.561,0.285-1.225,0.289-1.232l-0.03-0.017
					C44.767,41.482,44.398,42.157,44.478,42.729L44.478,42.729z"/>
				<path d="M44.722,42.881l0.023,0.026c0.362-0.327,0.485-1.208,0.49-1.245l-0.034-0.005C45.2,41.666,45.075,42.563,44.722,42.881
					L44.722,42.881z"/>
				<path d="M44.97,42.985l0.02,0.028c0.511-0.37,0.65-1.079,0.651-1.086l-0.034-0.007C45.605,41.928,45.469,42.624,44.97,42.985
					L44.97,42.985z"/>
				<path d="M45.029,41.456c0,0.033,0.002,0.066,0.005,0.1c-0.001-0.003-0.387,1.254-0.387,1.254l0.033,0.01l0.388-1.261
					c-0.06-0.609,0.476-1.275,0.481-1.281l-0.027-0.022C45.517,40.262,45.029,40.868,45.029,41.456L45.029,41.456z"/>
				<path d="M45.434,41.763c-0.005,0.018-0.123,0.878-0.587,1.196l0.02,0.029c0.477-0.327,0.593-1.175,0.598-1.211
					c0.206-0.245,0.681-1.105,0.686-1.114l-0.03-0.017C46.115,40.655,45.642,41.512,45.434,41.763L45.434,41.763z"/>
				<path d="M44.063,42.703c0.003,0.018,0.081,0.446,0.17,0.597l0.03-0.018c-0.086-0.146-0.164-0.581-0.165-0.585L44.063,42.703
					L44.063,42.703z"/>
				<path d="M44.283,42.709c0.004,0.213,0.005,0.562-0.007,0.593l0.032,0.013c0.018-0.045,0.011-0.513,0.01-0.606L44.283,42.709
					L44.283,42.709z"/>
				<path d="M44.303,43.319l0.032,0.014c0.149-0.324,0.195-0.548,0.196-0.55l-0.034-0.007C44.495,42.778,44.45,42.998,44.303,43.319
					z"/>
				<path d="M44.336,43.329l0.018,0.03c0.277-0.161,0.341-0.44,0.343-0.452l-0.034-0.008C44.662,42.902,44.599,43.176,44.336,43.329
					L44.336,43.329z"/>
				<path d="M44.388,43.353l0.003,0.034c0.271-0.027,0.456-0.356,0.463-0.37L44.824,43C44.822,43.004,44.64,43.328,44.388,43.353
					L44.388,43.353z"/>
				<path d="M44.415,43.37l0.002,0.035c0.435-0.027,0.631-0.287,0.639-0.298l-0.028-0.021C45.026,43.089,44.833,43.345,44.415,43.37
					L44.415,43.37z"/>
				<path d="M44.446,43.379l-0.007,0.034c0.023,0.005,0.578,0.123,0.768-0.166l-0.029-0.019
					C45.001,43.497,44.451,43.38,44.446,43.379L44.446,43.379z"/>
			</g>
		</g>
		<path style="fill:none;stroke:#000000;stroke-width:0.3175;stroke-miterlimit:4.8;" d="M32.006,23.103v15.506
			c0,5.072,9.163,8.083,9.163,8.083s9.163-3.012,9.163-8.083V23.103H32.006z"/>
	</g>
</g>
</svg>
