<?xml version="1.0" encoding="iso-8859-1"?>
<!-- Generator: Adobe Illustrator 18.1.1, SVG Export Plug-In . SVG Version: 6.00 Build 0)  -->
<svg version="1.1" id="Layer_82" xmlns="http://www.w3.org/2000/svg" xmlns:xlink="http://www.w3.org/1999/xlink" x="0px" y="0px"
	 viewBox="0 0 56.692 56.692" style="enable-background:new 0 0 56.692 56.692;" xml:space="preserve">
<g>
	<defs>
		<circle id="SVGID_1_" cx="28.346" cy="28.346" r="28.347"/>
	</defs>
	<clipPath id="SVGID_2_">
		<use xlink:href="#SVGID_1_"  style="overflow:visible;"/>
	</clipPath>
	<rect x="-14.173" y="0.001" style="clip-path:url(#SVGID_2_);fill:#73B4DC;" width="85.039" height="56.691"/>
	<g style="clip-path:url(#SVGID_2_);">
		<path style="fill:#FFFFFF;" d="M27.139,47.383l1.242,3.744l1.238-3.744h4.107l-3.302-2.436l1.231-3.715l-3.278,2.207l-3.275-2.207
			l1.232,3.715l-3.305,2.436H27.139z M47.199,27.359l0.116-3.942l-2.444,3.094l-3.861-1.404l2.268,3.419l-2.426,3.069l3.834-0.952
			l2.323,3.193l0.112-3.911l3.938-1.16L47.199,27.359z M12.145,30.641l3.83,0.953l-2.425-3.069l2.269-3.419L11.96,26.51
			l-2.446-3.094l0.115,3.942l-3.862,1.405l3.938,1.161l0.115,3.909L12.145,30.641z"/>
		<polygon style="fill:#FFFFFF;" points="33.689,9.877 30.389,12.313 31.618,16.025 28.344,13.822 25.069,16.025 26.298,12.313 
			22.997,9.877 27.104,9.877 28.344,6.136 29.584,9.877 		"/>
	</g>
</g>
</svg>
