<?xml version="1.0" encoding="iso-8859-1"?>
<!-- Generator: Adobe Illustrator 18.1.1, SVG Export Plug-In . SVG Version: 6.00 Build 0)  -->
<svg version="1.1" id="Layer_15" xmlns="http://www.w3.org/2000/svg" xmlns:xlink="http://www.w3.org/1999/xlink" x="0px" y="0px"
	 viewBox="0 0 56.692 56.692" style="enable-background:new 0 0 56.692 56.692;" xml:space="preserve">
<g>
	<defs>
		<circle id="SVGID_1_" cx="28.346" cy="28.347" r="28.346"/>
	</defs>
	<clipPath id="SVGID_2_">
		<use xlink:href="#SVGID_1_"  style="overflow:visible;"/>
	</clipPath>
	<rect x="-14.173" y="0" style="clip-path:url(#SVGID_2_);fill:#CE1126;" width="85.038" height="56.693"/>
	<path style="clip-path:url(#SVGID_2_);fill:#007A5E;" d="M62.929,7.937v40.819L28.347,28.345L62.929,7.937z M-6.236,48.756
		l34.583-20.411L-6.236,7.937V48.756z"/>
	<g style="clip-path:url(#SVGID_2_);">
		<polygon style="fill:#FCD116;" points="-6.236,48.756 62.929,48.756 28.347,28.345 		"/>
		<polygon style="fill:#FCD116;" points="-6.236,7.937 28.347,28.345 62.929,7.937 		"/>
	</g>
	<circle style="clip-path:url(#SVGID_2_);fill:#CE1126;" cx="28.346" cy="28.345" r="6.788"/>
	<polygon style="clip-path:url(#SVGID_2_);fill:#FCD116;" points="28.361,22.177 29.792,26.406 34.429,26.406 30.669,29.158 
		32.061,33.349 28.364,30.859 24.662,33.349 26.053,29.158 22.323,26.406 26.961,26.406 	"/>
	<g style="clip-path:url(#SVGID_2_);">
		<polygon style="fill:#FCD116;" points="28.251,0.654 29.099,3.164 31.849,3.164 29.618,4.797 30.444,7.283 28.251,5.806 
			26.056,7.283 26.88,4.797 24.668,3.164 27.419,3.164 		"/>
	</g>
	<g style="clip-path:url(#SVGID_2_);">
		<polygon style="fill:#FCD116;" points="28.251,49.41 29.099,51.919 31.849,51.919 29.618,53.552 30.444,56.039 28.251,54.562 
			26.056,56.039 26.88,53.552 24.668,51.919 27.419,51.919 		"/>
		<polygon style="fill:#FCD116;" points="47.243,49.41 48.091,51.919 50.843,51.919 48.611,53.552 49.436,56.039 47.245,54.562 
			45.048,56.039 45.872,53.552 43.661,51.919 46.411,51.919 		"/>
		<polygon style="fill:#FCD116;" points="9.434,49.41 10.281,51.919 13.032,51.919 10.802,53.552 11.627,56.039 9.435,54.562 
			7.238,56.039 8.062,53.552 5.851,51.919 8.602,51.919 		"/>
	</g>
	<g style="clip-path:url(#SVGID_2_);">
		<path style="fill:#FCD116;" d="M5.221,24.041c0.962,3.423-2.443,8.779,4.813,9.914c-0.934-1.236-1.48-1.664-1.669-4.893
			c2.828,1.572,2.995,2.235,3.705,3.613C14.193,25.646,7.887,26.39,5.221,24.041z"/>
		<path style="fill:#CE1126;" d="M8.364,29.062c0.063,1.088,0.169,1.852,0.314,2.442c0.801,0.786,2.272,1.649,2.272,1.649
			s-0.139-1.668-0.493-2.731C9.984,30.031,9.332,29.601,8.364,29.062z"/>
	</g>
</g>
</svg>
