<?xml version="1.0" encoding="iso-8859-1"?>
<!-- Generator: Adobe Illustrator 18.1.1, SVG Export Plug-In . SVG Version: 6.00 Build 0)  -->
<svg version="1.1" id="Layer_66" xmlns="http://www.w3.org/2000/svg" xmlns:xlink="http://www.w3.org/1999/xlink" x="0px" y="0px"
	 viewBox="0 0 56.692 56.692" style="enable-background:new 0 0 56.692 56.692;" xml:space="preserve">
<g>
	<defs>
		<circle id="SVGID_1_" cx="28.346" cy="28.346" r="28.347"/>
	</defs>
	<clipPath id="SVGID_2_">
		<use xlink:href="#SVGID_1_"  style="overflow:visible;"/>
	</clipPath>
	<rect x="-14.337" y="-0.001" style="clip-path:url(#SVGID_2_);fill:#FFFFFF;" width="85.039" height="56.693"/>
	<path style="clip-path:url(#SVGID_2_);fill:#E6162D;" d="M18.853,13.786c0-1.443,0.275-2.457,0.275-2.457s-2.135,0.788-4.211,0.998
		c0.201-1.987,0.998-4.213,0.998-4.213S14.9,8.392,13.457,8.392c-1.443,0-2.457-0.277-2.457-0.277s0.789,2.137,0.998,4.213
		c-2.076-0.21-4.211-0.998-4.211-0.998s0.275,1.014,0.275,2.457c0,1.443-0.275,2.458-0.275,2.458s2.225-0.796,4.211-0.998
		c-0.209,2.075-0.998,4.212-0.998,4.212s1.014-0.277,2.457-0.277c1.443,0,2.459,0.277,2.459,0.277s-0.797-2.225-0.998-4.212
		c1.986,0.202,4.211,0.998,4.211,0.998S18.853,15.23,18.853,13.786z"/>
	<path style="clip-path:url(#SVGID_2_);fill:#E6162D;" d="M18.853,43.899c0-1.443,0.275-2.457,0.275-2.457s-2.135,0.787-4.211,0.998
		c0.201-1.988,0.998-4.213,0.998-4.213s-1.016,0.277-2.459,0.277c-1.443,0-2.457-0.277-2.457-0.277s0.789,2.137,0.998,4.213
		c-2.076-0.211-4.211-0.998-4.211-0.998s0.275,1.014,0.275,2.457c0,1.443-0.275,2.457-0.275,2.457s2.225-0.796,4.211-0.998
		c-0.209,2.076-0.998,4.213-0.998,4.213s1.014-0.277,2.457-0.277c1.443,0,2.459,0.277,2.459,0.277s-0.797-2.225-0.998-4.213
		c1.986,0.202,4.211,0.998,4.211,0.998S18.853,45.342,18.853,43.899z"/>
	<path style="clip-path:url(#SVGID_2_);fill:#E6162D;" d="M48.646,13.786c0-1.443,0.277-2.457,0.277-2.457s-2.137,0.788-4.213,0.998
		c0.201-1.987,0.998-4.213,0.998-4.213s-1.014,0.277-2.457,0.277c-1.443,0-2.457-0.277-2.457-0.277s0.787,2.137,0.998,4.213
		c-2.076-0.21-4.213-0.998-4.213-0.998s0.277,1.014,0.277,2.457c0,1.443-0.277,2.458-0.277,2.458s2.227-0.796,4.213-0.998
		c-0.211,2.075-0.998,4.212-0.998,4.212s1.014-0.277,2.457-0.277c1.443,0,2.457,0.277,2.457,0.277s-0.795-2.225-0.998-4.212
		c1.986,0.202,4.213,0.998,4.213,0.998S48.646,15.23,48.646,13.786z"/>
	<path style="clip-path:url(#SVGID_2_);fill:#E6162D;" d="M48.646,43.899c0-1.443,0.277-2.457,0.277-2.457s-2.137,0.787-4.213,0.998
		c0.201-1.988,0.998-4.213,0.998-4.213s-1.014,0.277-2.457,0.277c-1.443,0-2.457-0.277-2.457-0.277s0.787,2.137,0.998,4.213
		c-2.076-0.211-4.213-0.998-4.213-0.998s0.277,1.014,0.277,2.457c0,1.443-0.277,2.457-0.277,2.457s2.227-0.796,4.213-0.998
		c-0.211,2.076-0.998,4.213-0.998,4.213s1.014-0.277,2.457-0.277c1.443,0,2.457,0.277,2.457,0.277s-0.795-2.225-0.998-4.213
		c1.986,0.202,4.213,0.998,4.213,0.998S48.646,45.342,48.646,43.899z"/>
	<polygon style="clip-path:url(#SVGID_2_);fill:#E6162D;" points="70.866,22.677 34.016,22.677 34.016,0 22.678,0 22.678,22.677 
		-14.173,22.677 -14.173,34.016 22.678,34.016 22.678,56.693 34.016,56.693 34.016,34.016 70.866,34.016 	"/>
</g>
</svg>
