<?xml version="1.0" encoding="iso-8859-1"?>
<!-- Generator: Adobe Illustrator 18.1.1, SVG Export Plug-In . SVG Version: 6.00 Build 0)  -->
<svg version="1.1" id="Layer_112" xmlns="http://www.w3.org/2000/svg" xmlns:xlink="http://www.w3.org/1999/xlink" x="0px" y="0px"
	 viewBox="0 0 56.692 56.692" style="enable-background:new 0 0 56.692 56.692;" xml:space="preserve">
<g>
	<defs>
		<circle id="SVGID_1_" cx="28.346" cy="28.346" r="28.347"/>
	</defs>
	<clipPath id="SVGID_2_">
		<use xlink:href="#SVGID_1_"  style="overflow:visible;"/>
	</clipPath>
	<rect x="-0.097" y="0" style="clip-path:url(#SVGID_2_);fill:#E32118;" width="85.04" height="56.693"/>
	<rect x="-0.097" y="0" style="clip-path:url(#SVGID_2_);fill:#FFFFFF;" width="85.04" height="37.796"/>
	<rect x="-0.097" y="0" style="clip-path:url(#SVGID_2_);fill:#3E9A00;" width="85.04" height="18.898"/>
	<path style="clip-path:url(#SVGID_2_);fill:#0073CE;" d="M-0.097,0v56.693l21.26-28.347L-0.097,0z"/>
	<g style="clip-path:url(#SVGID_2_);">
		<g id="shield">
			<path style="fill:#FFFFFF;stroke:#000000;stroke-width:0.3402;" d="M37.887,22.648h9.047v9.477c0,3.189-4.158,0.732-4.512,2.433
				c-0.614-1.748-4.512,0.78-4.512-2.622C37.911,28.63,37.887,22.648,37.887,22.648z"/>
			<path style="fill:#73452B;stroke:#000000;stroke-width:0.0709;" d="M43.06,33.047c0,0-0.118,0.118-0.331,0.024
				C42.517,32.976,42.494,27,42.494,27c0.472-0.52,0.85-0.685,0.85-0.685l0.283,0.236c-1.063,0.543-0.969,1.323-0.874,2.669
				c0.024,0.496,0.024,1.134,0.142,1.748c0.165,0.78,0.496,1.441,0.52,1.937C43.438,33.212,43.06,33.047,43.06,33.047z"/>
			<path style="fill:#73452B;stroke:#000000;stroke-width:0.0709;" d="M42.328,26.173h0.425c-0.354,3.425-0.047,5.457-0.047,6.449
				c0,0.331,0.189,0.449,0.165,0.449c-0.425,0.472-0.638-0.024-0.638-0.024L42.328,26.173z"/>
			<path style="fill:#A36629;stroke:#000000;stroke-width:0.0709;" d="M41.667,33.047c-0.402,0.189-0.449-0.189-0.425-0.236
				c0.874-1.772,1.252-5.669,0.449-6.095l0.047-0.378c0.307,0.094,0.591,0.496,0.591,0.496c0.118,4.37,0,6.165-0.071,6.236
				c-0.425,0.449-0.591-0.071-0.614-0.118"/>
			<path style="fill:none;stroke:#000000;stroke-width:0.0709;" d="M41.643,32.976c-0.071-0.378,0.614-1.346,0.567-2.362"/>
			<path style="fill:none;stroke:#000000;stroke-width:0.0709;" d="M42.801,31.441c0.213,0.591,0.307,1.11,0.26,1.606"/>
			<path style="fill:#009A3B;stroke:#000000;stroke-width:0.0709;" d="M43.722,24.567c0.142-0.165,0.142-0.165,0.402-0.165
				c0.047-0.354,0.638-0.354,0.685,0.094c0.472-0.094,0.567,0.189,0.378,0.472c0.449-0.118,0.85,0,0.732,0.52
				c0.803,0.213,0.496,0.78,0.142,0.898c-0.047,0.354-0.378,0.472-0.827,0.331c-0.567,0.402-0.898,0.26-1.157-0.142
				c-0.638,0.094-0.685-0.047-0.969-0.402c-0.496,0.213-0.591,0.213-1.016-0.047c-0.024,0.331-0.142,0.236-0.354,0.213
				c0.024,0.425-0.142,0.614-0.52,0.472c0.283,0.591-0.449,0.85-0.803,0.354c-0.331,0.024-0.354-0.071-0.52-0.189
				c-0.142,0.472-0.661,0.402-0.756,0.142c-0.661-0.094-0.591-0.449-0.047-0.472c0.047-0.378,0.378-0.307,0.591-0.26
				c0.024-0.236,0.165-0.189,0.283-0.142c-0.071-0.165-0.024-0.26,0.189-0.307c-0.307-0.402-0.118-0.543,0.189-0.685
				c-0.165-0.378,0.118-0.354,0.331-0.378c-0.024-0.402,0.094-0.472,0.52-0.52c-0.047-0.142,0.024-0.26,0.26-0.26
				c-0.142-0.402,0.047-0.494,0.472-0.425c0.071-0.583,1.323-0.307,1.228,0.496C43.509,24.212,43.627,24.283,43.722,24.567z"/>
			<g>
				<path style="fill:none;stroke:#000000;stroke-width:0.0709;" d="M41.194,24.354c0.094,0.047,0.213,0,0.236,0.26
					c0.189-0.331,0.425-0.142,0.425,0.236"/>
				<path style="fill:none;stroke:#000000;stroke-width:0.0709;" d="M43.155,24.165c-0.094,0.142-0.449,0.142-0.402,0.52
					c-0.118-0.165-0.354-0.213-0.449-0.047"/>
				<path style="fill:none;stroke:#000000;stroke-width:0.0709;" d="M43.722,24.567c0,0.094-0.024,0.378-0.118,0.52"/>
				<path style="fill:none;stroke:#000000;stroke-width:0.0709;" d="M45.186,24.968c0.024,0.024-0.331,0-0.496,0.118"/>
				<path style="fill:none;stroke:#000000;stroke-width:0.0709;" d="M46.061,26.386c-0.094-0.047-0.283-0.165-0.425,0.024
					c0-0.094,0-0.354-0.26-0.354"/>
				<path style="fill:none;stroke:#000000;stroke-width:0.0709;" d="M45.234,26.716c0-0.236-0.047-0.307-0.094-0.378"/>
				<path style="fill:none;stroke:#000000;stroke-width:0.0709;" d="M44.454,26.386c-0.189-0.142-0.378,0.071-0.378,0.189"/>
				<path style="fill:none;stroke:#000000;stroke-width:0.0709;" d="M43.084,26.173c0-0.094-0.071-0.283,0.094-0.354"/>
				<path style="fill:none;stroke:#000000;stroke-width:0.0709;" d="M40.391,27.165c0.047-0.236,0.213-0.236,0.189-0.354
					c-0.024-0.189-0.236-0.354-0.496-0.094"/>
				<path style="fill:none;stroke:#000000;stroke-width:0.0709;" d="M40.58,26.811c0.142-0.047,0.283-0.024,0.331,0.047"/>
				<path style="fill:none;stroke:#000000;stroke-width:0.0709;" d="M40.179,25.937c0.094-0.094,0.331-0.071,0.472,0"/>
				<path style="fill:none;stroke:#000000;stroke-width:0.0709;" d="M40.651,25.37c0.118,0,0.331-0.047,0.402,0.165
					c0.26-0.402,0.449-0.354,0.496-0.26"/>
				<path style="fill:none;stroke:#000000;stroke-width:0.0709;" d="M42.021,25.228c0.189-0.071,0.52,0.118,0.709,0.449
					c0.094-0.26,0.236-0.213,0.378-0.236"/>
				<path style="fill:none;stroke:#000000;stroke-width:0.0709;" d="M44.005,25.677c0.307-0.142,0.496,0.142,0.591,0.26
					c0.142-0.189,0.26-0.189,0.402-0.189"/>
				<path style="fill:none;stroke:#000000;stroke-width:0.0709;" d="M41.147,26.244c0.071-0.118,0.236-0.142,0.354-0.071
					c-0.024-0.213,0.118-0.307,0.213-0.26"/>
			</g>
		</g>
		<g id="stars">
			<path style="fill:#FFD700;stroke:#000000;stroke-width:0.248;" d="M42.116,21.321l-0.52,0.024l-0.26,0.465l-0.283-0.444
				l-0.52,0.021l0.236-0.468l-0.283-0.444l0.543-0.024l0.236-0.465l0.283,0.444l0.52-0.021l-0.236,0.468L42.116,21.321z"/>
			<path style="fill:#FFD700;stroke:#000000;stroke-width:0.248;" d="M39.895,21.493l-0.52,0.128l-0.142,0.503l-0.378-0.378
				l-0.496,0.123l0.142-0.503l-0.354-0.383l0.496-0.125l0.142-0.506l0.378,0.378l0.52-0.123l-0.165,0.506L39.895,21.493z"/>
			<path style="fill:#FFD700;stroke:#000000;stroke-width:0.248;" d="M37.745,21.935l-0.472,0.234l-0.024,0.524l-0.449-0.288
				l-0.472,0.231l0.047-0.524l-0.449-0.291l0.472-0.236l0.047-0.524l0.425,0.288l0.472-0.231l-0.024,0.524L37.745,21.935z"/>
			<path style="fill:#FFD700;stroke:#000000;stroke-width:0.248;" d="M42.801,21.321l0.52,0.024l0.236,0.465l0.283-0.444l0.52,0.021
				l-0.236-0.468l0.283-0.444l-0.52-0.024l-0.26-0.465l-0.283,0.444l-0.52-0.021l0.236,0.468L42.801,21.321z"/>
			<path style="fill:#FFD700;stroke:#000000;stroke-width:0.248;" d="M45.021,21.493l0.496,0.128l0.142,0.503l0.378-0.378
				l0.496,0.123l-0.142-0.503l0.378-0.383l-0.52-0.125l-0.142-0.506L45.73,20.73l-0.496-0.123l0.142,0.506L45.021,21.493z"/>
			<path style="fill:#FFD700;stroke:#000000;stroke-width:0.248;" d="M47.147,21.935l0.472,0.234l0.024,0.524l0.449-0.288
				l0.472,0.231l-0.024-0.524l0.425-0.291l-0.472-0.236l-0.024-0.524l-0.449,0.288l-0.472-0.231l0.047,0.524L47.147,21.935z"/>
		</g>
		<g id="motto">
			<g>
				<path style="fill:#FFFFFF;stroke:#000000;stroke-width:0.248;" d="M47.785,31.937l0.591,0.85l0.543-0.803l-0.378-0.685
					L47.785,31.937z"/>
				<path style="fill:#FFFFFF;stroke:#000000;stroke-width:0.248;" d="M44.029,34.417l0.047,0.85c0,0,0.236,0,0.449-0.071
					c0.189-0.071,0.354-0.213,0.354-0.213l-0.024-0.449L44.029,34.417z"/>
				<path style="fill:#FFFFFF;stroke:#000000;stroke-width:0.248;" d="M40.864,34.417l-0.047,0.827c0,0-0.213,0-0.425-0.047
					c-0.189-0.047-0.354-0.165-0.354-0.165l-0.236-0.567L40.864,34.417z"/>
				<path style="fill:#FFFFFF;stroke:#000000;stroke-width:0.248;" d="M37.06,31.937l-0.614,0.85l-0.661-1.087l0.496-0.52
					L37.06,31.937z"/>
				<path style="fill:#FFFFFF;stroke:#000000;stroke-width:0.248;" d="M40.013,36.118c0,0.803,4.866,0.803,4.866,0v-1.134
					c0,0.591-4.866,0.472-4.866,0V36.118z"/>
				<path style="fill:#FFFFFF;stroke:#000000;stroke-width:0.248;" d="M35.667,33.496c0.425,2.173,4.346,2.22,4.346,2.22v-0.732
					c-0.094-0.283,0.071-0.378,0.709-0.472c0.26-0.024,0.142-0.402,0.142-0.402s-1.701,0.307-2.906-0.165
					c-1.63-0.661-1.866-1.937-1.866-1.937S35.974,33,35.667,33.496z"/>
				<path style="fill:#FFFFFF;stroke:#000000;stroke-width:0.248;" d="M49.202,33.496c-0.402,2.173-4.323,2.22-4.323,2.22v-0.732
					c0.071-0.283-0.094-0.378-0.732-0.472c-0.26-0.024-0.118-0.402-0.118-0.402s1.701,0.307,2.906-0.165
					c1.606-0.661,1.795-1.937,1.795-1.937S48.895,33,49.202,33.496z"/>
				<path style="fill:#FFFFFF;stroke:#000000;stroke-width:0.248;" d="M35.974,32.669c-1.087-0.591-0.236-1.205-0.142-2.953
					c0.165,1.063,1.37,1.512,1.228,2.197c-0.496,0.024-0.732-0.732-0.969,0.094L35.974,32.669z"/>
				<path style="fill:#FFFFFF;stroke:#000000;stroke-width:0.248;" d="M48.895,32.669c1.087-0.614,0.189-1.205,0.094-2.953
					c-0.165,1.063-1.346,1.512-1.205,2.197c0.472,0.024,0.709-0.732,0.945,0.094l0.165,0.638V32.669z"/>
			</g>
			<g>
				<path d="M36.635,33.472l0.118,0.094l-0.26,0.283c-0.104,0.113-0.129,0.189-0.057,0.258c0.09,0.086,0.153,0.056,0.246-0.045
					l0.283-0.307l0.094,0.094l-0.283,0.33c-0.154,0.179-0.296,0.138-0.416,0.027c-0.104-0.097-0.164-0.239-0.011-0.412l0.286-0.321
					L36.635,33.472z"/>
				<path d="M37.108,33.874l0.118,0.071l-0.024,0.567l0.26-0.402l0.118,0.071l-0.378,0.614l-0.142-0.071l0.024-0.567l-0.26,0.402
					l-0.118-0.071L37.108,33.874z"/>
				<path d="M37.32,34.866l0.331-0.661l0.118,0.071l-0.307,0.638L37.32,34.866z"/>
				<path d="M37.84,34.299l-0.261,0.685l0.261,0.095c0.243,0.089,0.357-0.018,0.434-0.224c0.078-0.209,0.044-0.363-0.199-0.461
					L37.84,34.299z M37.934,34.465c0.244,0.085,0.259,0.178,0.193,0.346c-0.064,0.159-0.125,0.222-0.357,0.102L37.934,34.465z"/>
				<path d="M38.62,34.559l-0.425,0.638l0.164,0.048l0.095-0.166l0.283,0.071l0.024,0.166l0.164,0.023l-0.164-0.755L38.62,34.559z
					 M38.666,34.725l0.047,0.283l-0.189-0.024L38.666,34.725z"/>
				<path d="M39.023,34.62l-0.026,0.732l0.278,0.005c0.258,0.005,0.332-0.133,0.338-0.352c0.006-0.223-0.076-0.358-0.338-0.371
					L39.023,34.62L39.023,34.62z M39.165,34.747c0.259,0.001,0.303,0.084,0.294,0.264c-0.009,0.172-0.046,0.25-0.304,0.212
					L39.165,34.747L39.165,34.747z"/>
				<path d="M41.501,35.645v0.755h0.166v-0.283c0,0,0.142,0.009,0.259-0.023c0.093-0.024,0.157-0.084,0.159-0.23
					c0.002-0.144-0.081-0.219-0.226-0.219H41.501L41.501,35.645z M41.667,35.763l0.167,0.002c0.139,0,0.113,0.21,0.004,0.21h-0.171
					V35.763L41.667,35.763z"/>
				<path d="M42.352,35.645l-0.308,0.755h0.166l0.071-0.189h0.308l0.071,0.189h0.164l-0.307-0.756L42.352,35.645L42.352,35.645z
					 M42.423,35.811l0.118,0.283h-0.213L42.423,35.811z"/>
				<path d="M42.824,36.26l0.402-0.496h-0.354v-0.118h0.567v0.118l-0.425,0.496h0.425v0.142h-0.614V36.26z"/>
				<path d="M45.21,34.795l0.142-0.024l0.071,0.425c0.025,0.151-0.044,0.254-0.152,0.294c-0.123,0.045-0.279,0.004-0.297-0.199
					l0.118-0.024c0.028,0.122,0.076,0.132,0.133,0.113c0.045-0.015,0.068-0.086,0.056-0.16L45.21,34.795z"/>
				<path d="M45.446,34.753l0.14-0.027l0.065,0.354c0.028,0.151,0.075,0.216,0.174,0.199c0.122-0.021,0.136-0.09,0.11-0.225
					l-0.087-0.377l0.143-0.022l0.095,0.393c0.056,0.23-0.064,0.321-0.225,0.351c-0.14,0.026-0.289-0.009-0.338-0.236L45.446,34.753z
					"/>
				<path d="M46.179,35.079l0.118-0.047c0.058,0.104,0.148,0.099,0.219,0.068c0.098-0.043,0.109-0.129,0.061-0.157
					c-0.069-0.041-0.233,0.017-0.322-0.015c-0.106-0.039-0.151-0.098-0.146-0.19c0.007-0.11,0.103-0.171,0.209-0.204
					c0.118-0.037,0.234-0.024,0.31,0.12l-0.142,0.047c-0.046-0.078-0.106-0.074-0.158-0.049c-0.044,0.021-0.113,0.06-0.076,0.123
					c0.03,0.051,0.204,0.018,0.295,0.022c0.095,0.004,0.171,0.067,0.184,0.158c0.018,0.127-0.029,0.196-0.176,0.253
					C46.374,35.278,46.21,35.198,46.179,35.079L46.179,35.079z"/>
				<path d="M46.816,34.488l-0.189,0.094l-0.047-0.118l0.52-0.213l0.047,0.094l-0.189,0.094l0.213,0.52l-0.118,0.071L46.816,34.488z
					"/>
				<path d="M47.124,34.228l0.118-0.071l0.331,0.614l-0.118,0.071L47.124,34.228z"/>
				<path d="M47.927,34.275l0.142-0.047c0.067,0.14-0.033,0.395-0.278,0.39c-0.358-0.008-0.397-0.402-0.341-0.532
					c0.095-0.219,0.36-0.214,0.477-0.093l-0.118,0.094c-0.075-0.096-0.241-0.036-0.252,0.053c-0.018,0.144,0.045,0.278,0.174,0.342
					C47.84,34.535,48.008,34.4,47.927,34.275L47.927,34.275z"/>
				<path d="M47.856,33.779l0.118-0.094l0.425,0.567l-0.118,0.094L47.856,33.779z"/>
				<path d="M48.305,33.425l-0.118,0.095l0.259,0.709l0.118-0.118l-0.071-0.142l0.213-0.19l0.142,0.071l0.119-0.094L48.305,33.425z
					 M48.351,33.591l0.237,0.118l-0.142,0.142L48.351,33.591z"/>
			</g>
		</g>
	</g>
</g>
</svg>
