<?xml version="1.0" encoding="iso-8859-1"?>
<!-- Generator: Adobe Illustrator 18.1.1, SVG Export Plug-In . SVG Version: 6.00 Build 0)  -->
<svg version="1.1" id="Layer_53" xmlns="http://www.w3.org/2000/svg" xmlns:xlink="http://www.w3.org/1999/xlink" x="0px" y="0px"
	 viewBox="0 0 56.692 56.692" style="enable-background:new 0 0 56.692 56.692;" xml:space="preserve">
<g>
	<defs>
		<circle id="SVGID_1_" cx="28.346" cy="28.347" r="28.347"/>
	</defs>
	<clipPath id="SVGID_2_">
		<use xlink:href="#SVGID_1_"  style="overflow:visible;"/>
	</clipPath>
	<rect x="-2.163" y="0" style="clip-path:url(#SVGID_2_);fill:#FFFFFF;" width="84.961" height="56.692"/>
	<g style="clip-path:url(#SVGID_2_);">
		<path style="fill:#0D5EAF;" d="M29.197,6.225v6.393H16.629V0h12.567l0,0h53.602v6.225H29.197z M82.798,18.842v-6.225H29.197v6.225
			H82.798z M-2.163,44.076h84.961v-6.226H-2.163V44.076z M-2.163,56.692h84.961v-6.225H-2.163V56.692z M10.405,18.842H-2.163v12.617
			h12.567V18.842z M10.405,0H-2.163v12.617h12.567V0z M16.629,31.459h12.567l0,0h53.602v-6.225H29.197v-6.392H16.629V31.459z"/>
	</g>
</g>
</svg>
