<?xml version="1.0" encoding="utf-8"?>
<!-- Generator: Adobe Illustrator 18.1.1, SVG Export Plug-In . SVG Version: 6.00 Build 0)  -->
<!DOCTYPE svg PUBLIC "-//W3C//DTD SVG 1.1//EN" "http://www.w3.org/Graphics/SVG/1.1/DTD/svg11.dtd">
<svg version="1.1" id="Layer_179" xmlns="http://www.w3.org/2000/svg" xmlns:xlink="http://www.w3.org/1999/xlink" x="0px" y="0px"
	 width="56.7px" height="56.7px" viewBox="0 0 56.7 56.7" enable-background="new 0 0 56.7 56.7" xml:space="preserve">
<circle fill="#00297B" cx="28.3" cy="28.3" r="26.3"/>
<g>
	<path fill="#C62139" d="M28.4,12.9c0,0-10.3,7-10.3,15.4c0,8.3,10.3,15.6,10.3,15.6s10.3-6.7,10.3-15.6
		C38.7,19.3,28.4,12.9,28.4,12.9"/>
	<path fill="#66AFEB" d="M37.1,31c0.2-0.9,0.4-1.8,0.4-2.7c0-8-9.1-13.9-9.1-13.9s-9.2,6.1-9.2,13.9c0,0.9,0.1,1.8,0.4,2.7L37.1,31"
		/>
	<path fill="#007BDE" d="M28.3,42.3c0,0,7.1-4.7,8.8-11.3H19.5C21.2,37.4,28.3,42.3,28.3,42.3"/>
	<path fill="#9C8431" d="M37.4,29.2c-1.6,1.1-10.3,0.6-10.3,0.6L26.6,31h10.5c0-0.2,0.1-0.3,0.1-0.5L37.4,29.2"/>
	<path fill="#FFF100" d="M27.8,37c-0.1-0.9-4.2-1.9-6.4-1.8c0.7,1.1,1.4,2,2.2,2.9C24.8,36.9,27.9,37.3,27.8,37"/>
	<path fill="#FFF100" d="M36.1,33.6c-0.5,0-1.5,0.1-2.1,0.4c-0.9,0.5-3,1-4,0.8c-0.9-0.3-2.4,0.6-2.2,0.8c0.3,0.3,2.4,0,2.4,1.9
		c0,1.6-2.5,0.9-3.5,1.6c-0.6,0.4-1,0.8-1.2,1.1c1.5,1.4,2.7,2.2,2.7,2.2s2.8-1.9,5.3-4.9l1.2-1.6C35.3,35.1,35.8,34.4,36.1,33.6"/>
	<path fill="#009270" d="M27.8,21.3c0,0-1.4-0.8-3.4-0.4c-1.9,0.4-2.4,1.6-2.4,1.6l0.7-0.3l0,0.3l0.6-0.4l0,0.3l0.5-0.5l0.1,0.3
		l0.5-0.4l0,0.2l0.7-0.5v0.3l0.6-0.3l0,0.3l1.1-0.2c0,0-2.6,0.9-2.9,2.9l0.5-0.6l0.1,0.3l0.3-0.6l0.1,0.2l0.3-0.6l0.1,0.3l0.4-0.6
		l0,0.4l0.5-0.7V23l0.5-0.6l0,0.4c0,0,0.5-0.4,0.7-0.4l-0.6,0.8l0.2,0.1c0,0-0.4,0.3-0.5,0.4c0,0.1,0.3,0,0.3,0s-0.4,0.4-0.4,0.5
		c0,0.1,0.3,0,0.3,0s-0.4,0.4-0.4,0.6c-0.1,0.2,0.2,0,0.2,0s-0.2,0.5-0.2,0.7c0,0.1,0.3,0,0.3,0l0.2,0.9l0.3-1.1l0.2,0.2v-0.8
		l0.1,0.1l0-0.5l0.2,0.2L27.2,24l0.2,0.2l0-0.5l0.2,0.2v-0.7l0.2,0.2l0-0.5l0.2,0.1c0,0,0-0.6,0.3-0.6c0.3,0,0.6,0.3,0.5,0.4
		l0.2-0.1l0,0.6l0.2-0.1l0,0.4l0.2-0.1l-0.1,0.5l0.2-0.1l0,0.6l0.2-0.2l0,0.8l0.3-0.2v0.6l0.2-0.2l0.3,0.6l-0.1-0.9l0.2,0.1
		l-0.3-0.6l0.3,0l-0.3-0.4l0.3,0l-0.4-0.4l0.2,0l-0.6-0.4l0.3-0.1l-0.6-0.4l0.2-0.1l-0.4-0.4l0.4,0.2l0.1-0.3l0.5,0.4v-0.4l0.4,0.6
		l0.1-0.4l0.3,0.5l0.1-0.2l0.2,0.5l0.1-0.3l0.2,0.5l0.1-0.4l0.2,0.5l0.2-0.2l0.1,0.6l0.2-0.2l0.2,0.5l0.2-0.2l0.2,0.6
		c0,0,0.6-3-4.2-3.1L27.8,21.3"/>
	<path fill="#009270" d="M25.6,18.6l0.3,0.3L25.8,19l0.5,0.2l-0.1,0.2l0.5,0.2l-0.2,0.1l0.4,0.2l-0.3,0.1l0.5,0.2L27,20.5l0.4,0.1
		l-0.2,0.1l0.5,0.4l0.6,0.4l0.4-0.1l-0.2-0.7C28.5,20.7,26.9,18.5,25.6,18.6"/>
	<path fill="#009270" d="M27.1,16.5l0.2,0.4L27,17l0.6,0.6l-0.5,0l0.6,0.4l-0.3,0.1l0.5,0.5l-0.3,0.1l0.5,0.5l-0.3,0.1l0.6,0.5
		l-0.3,0l0.3,0.4l-0.3,0.1c0,0,0.4,0.7,0.4,1l0.7,0c0,0,0.1-1.9,0-2.2L29,19.4l0-0.7l-0.3,0.2l0-0.8l-0.3,0.3l-0.1-0.8l-0.2,0.3
		L28,17l-0.2,0.2l-0.2-0.5l-0.1,0.2L27.1,16.5"/>
	<path fill="#009270" d="M28.8,21.3c0.2-1.2,1.4-2.9,3.7-2.9l-0.5,0.3l0.3,0.1L31.6,19l0.3,0.2l-0.7,0.1l0.4,0.2l-0.5,0.1l-0.4,0.1
		l0.3,0.3L30.3,20l0.4,0.2c0,0-1,0.3-1,0.4c0,0,3.2-0.8,4,0.7l-0.6-0.3l0.1,0.3L32.7,21l0.1,0.2L32.3,21l0.1,0.3l-0.5-0.3l0.1,0.3
		L31.4,21l0.1,0.3L31,21.1l0.1,0.3l-0.5,0l0.1,0.3l-1.6,0L28.8,21.3"/>
	<path fill="#7B4800" d="M28.3,22.3l0.3,0c-0.2,3.2,0,7.7,0.4,9.4c0.7,2.9,2.9,4,3.4,4.2c0.3,0.2,0.2,0.8-0.4,0.8
		c-0.6,0-2.6-1.5-3.3-4.2C27.8,29,28.3,22.7,28.3,22.3"/>
	<circle fill="#7B4800" cx="28.8" cy="21.7" r="0.4"/>
	<circle fill="#7B4800" cx="28.2" cy="21.5" r="0.4"/>
	<circle fill="#7B4800" cx="28.2" cy="22.1" r="0.3"/>
	<circle fill="#7B4800" cx="28.7" cy="22" r="0.4"/>
	<path d="M25.1,33.1h0.4v-4.1h-0.4V33.1z"/>
	<path fill="#7B4800" d="M26.3,33.9c0,0-0.2,0-0.4,0.1v-0.3h-0.3V34c-0.3,0-0.6,0-0.9,0c-0.3,0-0.7,0-1-0.1v-0.3h-0.3v0.3
		c-0.2,0-0.4-0.1-0.4-0.1s-0.1,0.4,1.6,0.4C26.4,34.3,26.3,33.9,26.3,33.9"/>
	<path fill="#7B4800" d="M24.7,33.1c1.4,0,2.5-0.2,2.5-0.2s0.2,0.9-2.5,0.9c-2.7,0-2.5-0.8-2.5-0.8S23.3,33.1,24.7,33.1"/>
	<path fill="#FFFFFF" d="M23.5,29.3c0,0,2.1,0.8,3,3.6c0,0-2-0.4-3.1,0h-0.6C22.8,32.9,23.9,31.4,23.5,29.3"/>
	<path fill="#C62139" d="M23.8,27.2h-0.4c0-0.2-0.1-0.3-0.2-0.4c-0.1,0-0.1-0.1-0.2-0.1c-0.2,0-0.3,0.1-0.4,0.2
		c-0.1,0.2-0.1,0.4-0.1,0.7c0,0.3,0.1,0.5,0.2,0.7c0.1,0.1,0.2,0.2,0.4,0.2c0.1,0,0.2,0,0.3-0.2c0.1-0.1,0.1-0.2,0.2-0.4H23v-0.4
		h0.8v1.3h-0.3l0-0.3c-0.1,0.1-0.1,0.2-0.2,0.3c-0.1,0.1-0.2,0.1-0.4,0.1c-0.3,0-0.5-0.1-0.6-0.3c-0.2-0.2-0.3-0.5-0.3-0.9
		c0-0.4,0.1-0.7,0.3-1c0.2-0.2,0.4-0.4,0.7-0.4c0.2,0,0.4,0.1,0.6,0.2C23.7,26.8,23.8,27,23.8,27.2"/>
	<path fill="#C62139" d="M25.7,28v-1.5h0.4V28c0,0.2,0,0.3,0,0.4c0,0.1,0.2,0.2,0.3,0.2c0.2,0,0.3-0.1,0.3-0.2c0-0.1,0-0.2,0-0.4
		v-1.5h0.4V28c0,0.3,0,0.5-0.1,0.6C27,28.8,26.8,29,26.5,29c-0.3,0-0.6-0.1-0.7-0.4C25.7,28.4,25.7,28.2,25.7,28"/>
	<path fill="#C62139" d="M30,26.4l-0.7,2.5h0.4l0.1-0.5h0.7l0.1,0.5h0.4l-0.7-2.5H30z M30.3,27l0.2,1H30L30.3,27z"/>
	<path fill="#C62139" d="M33.7,28.4l0.3-2h0.6v2.5h-0.4v-1.7c0,0,0-0.1,0-0.2c0-0.1,0-0.2,0-0.2l-0.4,2.1h-0.4l-0.4-2.1
		c0,0,0,0.1,0,0.2c0,0.1,0,0.2,0,0.2v1.7h-0.4v-2.5h0.6L33.7,28.4"/>
</g>
<path fill="#C62139" d="M56.7,28.3C56.7,12.7,44,0,28.3,0C12.7,0,0,12.7,0,28.3C0,44,12.7,56.7,28.3,56.7C44,56.7,56.7,44,56.7,28.3
	z M28.3,53.7C14.4,53.7,3,42.3,3,28.3C3,14.4,14.4,3,28.3,3c14,0,25.3,11.4,25.3,25.3C53.7,42.3,42.3,53.7,28.3,53.7z"/>
<circle fill="none" cx="28.3" cy="28.3" r="28.3"/>
</svg>
