<?xml version="1.0" encoding="iso-8859-1"?>
<!-- Generator: Adobe Illustrator 18.1.1, SVG Export Plug-In . SVG Version: 6.00 Build 0)  -->
<svg version="1.1" id="Layer_189" xmlns="http://www.w3.org/2000/svg" xmlns:xlink="http://www.w3.org/1999/xlink" x="0px" y="0px"
	 viewBox="0 0 56.692 56.692" style="enable-background:new 0 0 56.692 56.692;" xml:space="preserve">
<g>
	<defs>
		<circle id="SVGID_1_" cx="28.346" cy="28.346" r="28.346"/>
	</defs>
	<clipPath id="SVGID_2_">
		<use xlink:href="#SVGID_1_"  style="overflow:visible;"/>
	</clipPath>
	<rect x="-14.173" y="0" style="clip-path:url(#SVGID_2_);fill:#DE2910;" width="85.039" height="56.693"/>
	<path style="clip-path:url(#SVGID_2_);fill:#FFFFFF;" d="M25.921,25.767c-0.969-2.078-0.543-4.959,0.461-6.348l0.231,0.168
		c-0.957,1.32-1.361,4.072-0.436,6.06c0.379,0.811,0.996,1.582,1.623,2.082c-0.178-0.215-0.338-0.451-0.461-0.717
		c-0.803-1.723-0.09-3.754,1.582-4.621c0.065-0.051,0.258-0.156,0.285-0.17c2.117-1.037,3.055-3.543,2.15-5.709
		c-0.16-0.373-0.404-0.725-0.506-0.942c-0.639-1.369-0.031-3.002,1.354-3.648c0.082-0.037,0.166-0.057,0.246-0.086
		c-1.467-0.184-3.022,0.039-4.525,0.74c-4.254,1.979-6.5,6.973-4.52,11.227c0.907,1.949,2.465,3.383,4.291,4.184
		C27.007,27.466,26.335,26.66,25.921,25.767z M26.895,17.992l0.021-0.99l0.771,0.619l0.945-0.283l-0.35,0.924l0.564,0.815
		l-0.99-0.047l-0.6,0.787l-0.258-0.955l-0.936-0.328L26.895,17.992z M43.194,23.009c-3.209-3.422-8.654-3.998-12.076-0.789
		c-1.561,1.463-2.436,3.377-2.635,5.348c0.291-0.809,0.85-1.682,1.555-2.344c1.674-1.566,4.543-2.064,6.174-1.543l-0.086,0.271
		c-1.555-0.498-4.295-0.02-5.895,1.479c-0.649,0.607-1.184,1.428-1.465,2.178c0.148-0.233,0.322-0.451,0.531-0.649
		c1.387-1.299,3.539-1.256,4.883,0.062c0.068,0.043,0.23,0.195,0.25,0.217c1.645,1.688,4.322,1.793,6.096,0.26
		c0.307-0.27,0.562-0.611,0.736-0.775c1.102-1.031,2.844-0.967,3.889,0.148c0.061,0.066,0.104,0.137,0.158,0.207
		C45.026,25.628,44.331,24.218,43.194,23.009z M38.327,24.359l0.568,0.812l-0.988-0.043l-0.6,0.787l-0.264-0.951l-0.934-0.328
		l0.826-0.543l0.018-0.988l0.775,0.617l0.947-0.289L38.327,24.359z M22.511,31.607c2.129-0.256,3.975-1.285,5.305-2.766
		c-0.711,0.488-1.682,0.869-2.654,0.984c-2.277,0.271-4.885-1.029-5.889-2.414l0.226-0.168c0.961,1.322,3.449,2.562,5.625,2.301
		c0.885-0.107,1.797-0.447,2.467-0.881c-0.256,0.096-0.523,0.168-0.807,0.203c-1.889,0.225-3.596-1.086-3.899-2.945
		c-0.027-0.074-0.066-0.291-0.068-0.32c-0.328-2.336-2.42-4.008-4.758-3.822c-0.408,0.033-0.814,0.16-1.053,0.188
		c-1.498,0.18-2.863-0.906-3.045-2.426c-0.012-0.084-0.004-0.172-0.004-0.258c-0.635,1.336-0.908,2.881-0.711,4.531
		C13.804,28.472,17.852,32.162,22.511,31.607z M17.968,25.609l0.023-0.988l0.769,0.623l0.951-0.283l-0.351,0.924l0.557,0.814
		l-0.984-0.047l-0.601,0.783l-0.258-0.957l-0.934-0.326L17.968,25.609z M29.061,28.187c0.865,0.01,1.887,0.266,2.75,0.742
		c2.008,1.109,3.363,3.688,3.371,5.398l-0.283,0.002c-0.008-1.631-1.305-4.092-3.225-5.15c-0.775-0.428-1.711-0.684-2.506-0.721
		c0.26,0.07,0.516,0.168,0.764,0.303c1.662,0.92,2.285,2.979,1.447,4.668c-0.021,0.074-0.117,0.273-0.133,0.301
		c-1.096,2.084-0.373,4.664,1.635,5.879c0.35,0.211,0.752,0.346,0.963,0.463c1.32,0.729,1.797,2.406,1.059,3.746
		c-0.045,0.076-0.101,0.143-0.148,0.213c1.295-0.717,2.418-1.812,3.221-3.266c2.266-4.109,1.133-9.467-2.973-11.734
		C33.116,27.992,31.013,27.751,29.061,28.187z M36.179,36.597L35.19,36.55l-0.598,0.791l-0.264-0.953l-0.934-0.326l0.824-0.545
		l0.021-0.988l0.771,0.615l0.947-0.287l-0.348,0.928L36.179,36.597z M28.685,28.923c0.256,0.826,0.33,1.871,0.145,2.842
		c-0.428,2.252-2.457,4.344-4.082,4.883l-0.088-0.27c1.549-0.514,3.482-2.512,3.893-4.666c0.164-0.867,0.115-1.832-0.092-2.6
		c0.014,0.267-0.002,0.539-0.053,0.814c-0.357,1.867-2.123,3.098-3.984,2.824c-0.08,0.004-0.301-0.023-0.33-0.029
		c-2.322-0.395-4.551,1.094-5.08,3.379c-0.092,0.399-0.092,0.824-0.139,1.059c-0.283,1.484-1.729,2.457-3.232,2.172
		c-0.086-0.018-0.166-0.049-0.248-0.076c1.081,1.008,2.473,1.734,4.105,2.047c4.609,0.875,9.35-1.863,10.227-6.473
		C30.128,32.714,29.7,30.638,28.685,28.923z M24.487,37.55l-0.988-0.041l-0.596,0.789l-0.266-0.953l-0.936-0.322l0.824-0.547
		l0.018-0.988l0.775,0.613l0.945-0.285l-0.344,0.926L24.487,37.55z"/>
</g>
</svg>
