<?xml version="1.0" encoding="iso-8859-1"?>
<!-- Generator: Adobe Illustrator 18.1.1, SVG Export Plug-In . SVG Version: 6.00 Build 0)  -->
<svg version="1.1" id="Layer_179" xmlns="http://www.w3.org/2000/svg" xmlns:xlink="http://www.w3.org/1999/xlink" x="0px" y="0px"
	 viewBox="0 0 56.692 56.692" style="enable-background:new 0 0 56.692 56.692;" xml:space="preserve">
<g>
	<defs>
		<circle id="SVGID_1_" cx="28.346" cy="28.347" r="28.346"/>
	</defs>
	<clipPath id="SVGID_2_">
		<use xlink:href="#SVGID_1_"  style="overflow:visible;"/>
	</clipPath>
	<g style="clip-path:url(#SVGID_2_);">
		<rect x="-18.839" y="0" style="fill:#D21034;" width="94.37" height="56.622"/>
		<rect x="-18.839" y="0" style="fill:#00209F;" width="94.37" height="28.311"/>
		<g id="coa">
			<rect x="19.415" y="21.192" style="fill:#FFFFFF;" width="17.863" height="14.22"/>
			<path style="fill:#016A16;stroke:#016A16;stroke-width:0.0345;" d="M31.941,31.475l-3.645,0.106l-3.629,0.041
				c0,0-1.864,0.69-2.627,0.844c-0.76,0.154-0.661,0.404-1.249,0.535c-0.471,0.105-0.525,0.138-0.802,0.157
				c-0.167,0.011-0.373,0.14-0.575,0.281v1.972h17.863v-1.876c-0.194-0.106-0.378-0.178-0.567-0.242
				c-0.262-0.089-0.439-0.187-0.91-0.292c-0.588-0.131-0.489-0.381-1.249-0.535C33.789,32.312,31.941,31.475,31.941,31.475
				L31.941,31.475z"/>
			<g id="flags">
				<g id="flags_half">
					<g>
						<path style="fill:#F1B517;stroke:#000000;stroke-width:0.0345;" d="M27.314,27.086l0.264-0.006l0.482,2.029l-0.103,0.639
							L27.314,27.086L27.314,27.086z"/>
						<path style="fill:#FFFFFF;stroke:#000000;stroke-width:0.0345;" d="M27.037,25.734l0.18,1.563l0.193-0.012L27.037,25.734
							L27.037,25.734z"/>
						<path style="fill:#F1B517;stroke:#000000;stroke-width:0.0345;" d="M27.539,29.177l-0.81-2.178l0.302-0.019l0.945,2.662
							L27.539,29.177L27.539,29.177z"/>
						<path style="fill:#FFFFFF;stroke:#000000;stroke-width:0.0345;" d="M26.349,25.759l0.334,1.514h0.27L26.349,25.759z"/>
						<path style="fill:#F1B517;stroke:#000000;stroke-width:0.0345;" d="M26.818,28.414l-0.476-1.024l0.206-0.043l0.868,1.7
							L26.818,28.414L26.818,28.414z"/>
						<path style="fill:#FFFFFF;stroke:#000000;stroke-width:0.0345;" d="M25.719,26.193l0.527,1.439h0.27L25.719,26.193z"/>
					</g>
					<g>
						<path style="fill:#0A328C;stroke:#000000;stroke-width:0.0345;" d="M26.883,28.568l-2.158-2.356
							c-0.674,0.534-0.549,1.514-0.549,1.514l2.446,1.919L26.883,28.568L26.883,28.568z"/>
						<path style="fill:#D20014;stroke:#000000;stroke-width:0.0345;" d="M28.131,29.865l-1.601-1.622
							c-0.677,0.023-0.14,1.034-0.106,1.161l1.707,1.46L28.131,29.865L28.131,29.865z"/>
						<path style="fill:#F1B517;stroke:#000000;stroke-width:0.0345;" d="M27.995,29.586l-3.31-3.545l-0.129,0.091l3.503,3.892
							L27.995,29.586L27.995,29.586z"/>
						<path style="fill:#F1B517;stroke:#000000;stroke-width:0.0345;" d="M24.493,25.814l-0.073-0.084l0.007-0.168l-0.683-0.435
							l0.305,0.687l0.233,0.042l0.073,0.084L24.493,25.814z"/>
						<path style="fill:#F1B517;stroke:#000000;stroke-width:0.0345;" d="M24.144,26.067c0.116-0.14,0.254-0.28,0.501-0.414
							l0.189,0.273l-0.407,0.344L24.144,26.067z"/>
						<path style="fill:#0A328C;stroke:#0A328C;stroke-width:0.0345;" d="M23.781,26.665l0.111,0.194
							c0.069-0.025,0.761-0.652,0.761-0.652l0.497-0.015l0.143-0.158c-0.365-0.393-0.708,0.056-0.708,0.056L23.781,26.665
							L23.781,26.665z"/>
						<path style="fill:#D20014;stroke:#D20014;stroke-width:0.0345;" d="M24.177,26.991c0.026-0.173,0.354-0.607,0.402-0.622
							c0.246,0.074,0.475,0.215,0.724-0.347c-0.217,0.275-0.655-0.005-0.655-0.005l-0.19,0.158l0.005,0.076l-0.576,0.535
							L24.177,26.991L24.177,26.991z"/>
					</g>
					<g>
						<path style="fill:#0A328C;stroke:#000000;stroke-width:0.0345;" d="M25.94,29.193l-2.712-2.154
							c-0.464,0.472-0.078,1.931-0.078,1.931l2.65,1.436L25.94,29.193L25.94,29.193z"/>
						<path style="fill:#D20014;stroke:#000000;stroke-width:0.0345;" d="M28.189,30.938l-2.231-1.787
							c-0.762,0.107-0.163,1.228-0.118,1.351l2.356,1.277L28.189,30.938L28.189,30.938z"/>
						<path style="fill:#F1B517;stroke:#000000;stroke-width:0.0345;" d="M28.1,30.577l-4.823-3.62l-0.111,0.112l5.065,3.955
							L28.1,30.577L28.1,30.577z"/>
						<path style="fill:#F1B517;stroke:#000000;stroke-width:0.0345;" d="M23.048,26.765l-0.087-0.071l-0.023-0.167l-0.751-0.314
							l0.424,0.625l0.237,0.002l0.087,0.071L23.048,26.765L23.048,26.765z"/>
						<path style="fill:#F1B517;stroke:#000000;stroke-width:0.0345;" d="M22.75,27.072c0.089-0.158,0.2-0.319,0.419-0.491
							l0.235,0.238l-0.339,0.406L22.75,27.072L22.75,27.072z"/>
						<path style="fill:#0A328C;stroke:#0A328C;stroke-width:0.0345;" d="M22.481,27.677l0.03,0.2
							c0.064-0.036,0.672-0.703,0.672-0.703l0.488-0.09l0.099-0.157c-0.339-0.399-0.701,0.132-0.701,0.132L22.481,27.677
							L22.481,27.677z"/>
						<path style="fill:#D20014;stroke:#D20014;stroke-width:0.0345;" d="M22.867,28.036c-0.023-0.185,0.23-0.729,0.275-0.751
							c0.292,0.087,0.546,0.218,0.653-0.39c-0.169,0.305-0.653,0.068-0.653,0.068l-0.162,0.185l0.023,0.1l-0.493,0.636
							L22.867,28.036L22.867,28.036z"/>
					</g>
					<g>
						<path style="fill:#0A328C;stroke:#000000;stroke-width:0.0345;" d="M25.746,30.51c-0.036-0.009-3.495-1.971-3.495-1.971
							c-0.252,0.425-0.024,1.042,0.086,1.138c0.006,0.283-0.114,0.435,0.133,1.027c0.073,0.384,0.251,0.739,0.51,0.949
							c0.315,1.211,1.552,1.292,2.028,0.307L25.746,30.51L25.746,30.51z"/>
						<path style="fill:#D20014;stroke:#000000;stroke-width:0.0345;" d="M28.035,31.805l-2.368-1.388
							c-0.762,0.107,0.016,1.52,0.062,1.644l2.287,0.812L28.035,31.805L28.035,31.805z"/>
						<path style="fill:#F1B517;stroke:#000000;stroke-width:0.0345;" d="M27.637,31.302l-5.351-2.848l-0.091,0.127l5.644,3.142
							L27.637,31.302L27.637,31.302z"/>
						<path style="fill:#F1B517;stroke:#000000;stroke-width:0.0345;" d="M22.029,28.299l-0.097-0.057l-0.05-0.161l-0.793-0.196
							l0.52,0.554l0.234-0.033l0.097,0.057L22.029,28.299L22.029,28.299z"/>
						<path style="fill:#F1B517;stroke:#000000;stroke-width:0.0345;" d="M21.784,28.647c0.063-0.169,0.146-0.345,0.335-0.549
							l0.271,0.199l-0.269,0.453L21.784,28.647L21.784,28.647z"/>
						<path style="fill:#0A328C;stroke:#0A328C;stroke-width:0.0345;" d="M21.57,29.289l0.112,0.22
							c0.058-0.044,0.567-0.864,0.567-0.864l0.47-0.155l0.089-0.191c-0.378-0.349-0.66,0.253-0.66,0.253L21.57,29.289L21.57,29.289z
							"/>
						<path style="fill:#D20014;stroke:#D20014;stroke-width:0.0345;" d="M22.075,29.601c-0.038-0.188,0.091-0.792,0.132-0.82
							c0.295,0.088,0.54,0.113,0.608-0.495c-0.171,0.289-0.628,0.18-0.628,0.18l-0.134,0.205l0.028,0.072l-0.389,0.746
							L22.075,29.601L22.075,29.601z"/>
					</g>
				</g>
				<g transform="matrix(-1,0,0,1,499.85852,0)">
					<g id="flags_half_1_">
						<g>
							<path style="fill:#F1B517;stroke:#000000;stroke-width:0.0345;" d="M29.352,27.086l-0.264-0.006l-0.482,2.029l0.103,0.639
								L29.352,27.086L29.352,27.086z"/>
							<path style="fill:#FFFFFF;stroke:#000000;stroke-width:0.0345;" d="M29.629,25.734l-0.18,1.563l-0.193-0.012L29.629,25.734
								L29.629,25.734z"/>
							<path style="fill:#F1B517;stroke:#000000;stroke-width:0.0345;" d="M29.127,29.177l0.81-2.178l-0.302-0.019l-0.945,2.662
								L29.127,29.177L29.127,29.177z"/>
							<path style="fill:#FFFFFF;stroke:#000000;stroke-width:0.0345;" d="M30.317,25.759l-0.334,1.514h-0.27L30.317,25.759z"/>
							<path style="fill:#F1B517;stroke:#000000;stroke-width:0.0345;" d="M29.847,28.414l0.476-1.024l-0.206-0.043l-0.868,1.7
								L29.847,28.414L29.847,28.414z"/>
							<path style="fill:#FFFFFF;stroke:#000000;stroke-width:0.0345;" d="M30.947,26.193l-0.527,1.439h-0.27L30.947,26.193z"/>
						</g>
						<g>
							<path style="fill:#0A328C;stroke:#000000;stroke-width:0.0345;" d="M29.782,28.568l2.158-2.356
								c0.674,0.534,0.549,1.514,0.549,1.514l-2.446,1.919L29.782,28.568L29.782,28.568z"/>
							<path style="fill:#D20014;stroke:#000000;stroke-width:0.0345;" d="M28.534,29.865l1.601-1.622
								c0.677,0.023,0.14,1.034,0.106,1.161l-1.707,1.46L28.534,29.865L28.534,29.865z"/>
							<path style="fill:#F1B517;stroke:#000000;stroke-width:0.0345;" d="M28.671,29.586l3.31-3.545l0.129,0.091l-3.503,3.892
								L28.671,29.586L28.671,29.586z"/>
							<path style="fill:#F1B517;stroke:#000000;stroke-width:0.0345;" d="M32.172,25.814l0.073-0.084l-0.007-0.168l0.683-0.435
								l-0.305,0.687l-0.233,0.042l-0.073,0.084L32.172,25.814z"/>
							<path style="fill:#F1B517;stroke:#000000;stroke-width:0.0345;" d="M32.521,26.067c-0.116-0.14-0.254-0.28-0.501-0.414
								l-0.189,0.273l0.407,0.344L32.521,26.067z"/>
							<path style="fill:#0A328C;stroke:#0A328C;stroke-width:0.0345;" d="M32.885,26.665l-0.111,0.194
								c-0.069-0.025-0.761-0.652-0.761-0.652l-0.497-0.015l-0.143-0.158c0.365-0.393,0.708,0.056,0.708,0.056L32.885,26.665
								L32.885,26.665z"/>
							<path style="fill:#D20014;stroke:#D20014;stroke-width:0.0345;" d="M32.489,26.991c-0.026-0.173-0.354-0.607-0.402-0.622
								c-0.246,0.074-0.475,0.215-0.724-0.347c0.217,0.275,0.655-0.005,0.655-0.005l0.19,0.158l-0.005,0.076l0.576,0.535
								L32.489,26.991L32.489,26.991z"/>
						</g>
						<g>
							<path style="fill:#0A328C;stroke:#000000;stroke-width:0.0345;" d="M30.726,29.193l2.712-2.154
								c0.464,0.472,0.078,1.931,0.078,1.931l-2.65,1.436L30.726,29.193L30.726,29.193z"/>
							<path style="fill:#D20014;stroke:#000000;stroke-width:0.0345;" d="M28.477,30.938l2.231-1.787
								c0.762,0.107,0.163,1.228,0.118,1.351l-2.356,1.277L28.477,30.938L28.477,30.938z"/>
							<path style="fill:#F1B517;stroke:#000000;stroke-width:0.0345;" d="M28.565,30.577l4.823-3.62l0.111,0.112l-5.065,3.955
								L28.565,30.577L28.565,30.577z"/>
							<path style="fill:#F1B517;stroke:#000000;stroke-width:0.0345;" d="M33.618,26.765l0.087-0.071l0.023-0.167l0.751-0.314
								l-0.424,0.625l-0.237,0.002l-0.087,0.071L33.618,26.765L33.618,26.765z"/>
							<path style="fill:#F1B517;stroke:#000000;stroke-width:0.0345;" d="M33.916,27.072c-0.089-0.158-0.2-0.319-0.419-0.491
								l-0.235,0.238l0.339,0.406L33.916,27.072L33.916,27.072z"/>
							<path style="fill:#0A328C;stroke:#0A328C;stroke-width:0.0345;" d="M34.185,27.677l-0.03,0.2
								c-0.064-0.036-0.672-0.703-0.672-0.703l-0.488-0.09l-0.099-0.157c0.339-0.399,0.701,0.132,0.701,0.132L34.185,27.677
								L34.185,27.677z"/>
							<path style="fill:#D20014;stroke:#D20014;stroke-width:0.0345;" d="M33.798,28.036c0.023-0.185-0.23-0.729-0.275-0.751
								c-0.292,0.087-0.546,0.218-0.653-0.39c0.169,0.305,0.653,0.068,0.653,0.068l0.162,0.185l-0.023,0.1l0.493,0.636
								L33.798,28.036L33.798,28.036z"/>
						</g>
						<g>
							<path style="fill:#0A328C;stroke:#000000;stroke-width:0.0345;" d="M30.92,30.51c0.036-0.009,3.495-1.971,3.495-1.971
								c0.252,0.425,0.024,1.042-0.086,1.138c-0.006,0.283,0.114,0.435-0.133,1.027c-0.073,0.384-0.251,0.739-0.51,0.949
								c-0.315,1.211-1.552,1.292-2.028,0.307L30.92,30.51L30.92,30.51z"/>
							<path style="fill:#D20014;stroke:#000000;stroke-width:0.0345;" d="M28.63,31.805l2.368-1.388
								c0.762,0.107-0.016,1.52-0.062,1.644l-2.287,0.812L28.63,31.805L28.63,31.805z"/>
							<path style="fill:#F1B517;stroke:#000000;stroke-width:0.0345;" d="M29.029,31.302l5.351-2.848l0.091,0.127l-5.644,3.142
								L29.029,31.302L29.029,31.302z"/>
							<path style="fill:#F1B517;stroke:#000000;stroke-width:0.0345;" d="M34.637,28.299l0.097-0.057l0.05-0.161l0.793-0.196
								l-0.52,0.554l-0.234-0.033l-0.097,0.057L34.637,28.299L34.637,28.299z"/>
							<path style="fill:#F1B517;stroke:#000000;stroke-width:0.0345;" d="M34.882,28.647c-0.063-0.169-0.146-0.345-0.335-0.549
								l-0.271,0.199l0.269,0.453L34.882,28.647L34.882,28.647z"/>
							<path style="fill:#0A328C;stroke:#0A328C;stroke-width:0.0345;" d="M35.095,29.289l-0.112,0.22
								c-0.058-0.044-0.567-0.864-0.567-0.864l-0.47-0.155l-0.089-0.191c0.378-0.349,0.66,0.253,0.66,0.253L35.095,29.289
								L35.095,29.289z"/>
							<path style="fill:#D20014;stroke:#D20014;stroke-width:0.0345;" d="M34.591,29.601c0.038-0.188-0.091-0.792-0.132-0.82
								c-0.295,0.088-0.54,0.113-0.608-0.495c0.171,0.289,0.628,0.18,0.628,0.18l0.134,0.205l-0.028,0.072l0.389,0.746
								L34.591,29.601L34.591,29.601z"/>
						</g>
					</g>
				</g>
			</g>
			<g id="tree">
				<path style="fill:#016A16;stroke:#016A16;stroke-width:0.0345;" d="M28.112,23.706l-0.088,1.712h0.547l-0.08-1.697l0.57-0.08
					l-0.063-0.676l-1.418,0.055l0.008,0.614L28.112,23.706L28.112,23.706z"/>
				<g id="tree_half">
					<path style="fill:#016A16;stroke:#000000;stroke-width:0.0345;" d="M28.312,23.007c-1.465-1.467-2.619-0.751-2.894-0.548
						c0.182,0.035,0.345-0.078,0.429-0.091c-0.053,0.067-0.163,0.232-0.163,0.232s0.453-0.214,0.504-0.194
						c-0.065,0.052-0.137,0.177-0.137,0.177c0.034,0.013,0.289-0.2,0.339-0.203c-0.078,0.088-0.102,0.288-0.102,0.288l0.221-0.103
						c0.057,0.041-0.016,0.119,0.034,0.115c0.367-0.03,0.883,0.335,0.954,0.448"/>
					<path style="fill:#016A16;stroke:#000000;stroke-width:0.0345;" d="M27.949,23.276c-0.153-0.35-2.942-0.945-3.503,0.046
						c0.22,0.055,0.43-0.184,0.43-0.184l-0.019,0.221l0.372-0.285l-0.134,0.295l0.296-0.239l-0.01,0.239l0.363-0.396l-0.048,0.23
						l0.325-0.138l-0.038,0.193"/>
					<path style="fill:#016A16;stroke:#000000;stroke-width:0.0345;" d="M27.825,23.331c-0.716-0.479-1.823-0.157-1.823-0.157
						c-0.706,0.396-1.083,0.325-1.174,1.059c0.067-0.028,0.258-0.258,0.258-0.258l0.143,0.285l0.048-0.405l0.115,0.313l0.172-0.516
						l0.038,0.35l0.267-0.35l0.124,0.101l0.115-0.267l0.105,0.175c0,0,0.181-0.111,0.286-0.046l0.2-0.23l0.048,0.166l0.172-0.203
						l0.067,0.147l0.172-0.157l-0.01,0.111l0.592,0.009"/>
					<path style="fill:#016A16;stroke:#000000;stroke-width:0.0345;" d="M27.663,23.414c-0.499-0.009-1.93,0.531-2.3,1.096
						c0.147-0.082,0.238-0.12,0.238-0.12l0.073,0.227l0.089-0.227l0.019,0.175c0.055-0.137,0.117-0.152,0.22-0.009l0.038-0.212
						l0.057,0.203l0.095-0.221c0,0,0.06,0.24,0.095,0.23c0,0,0.158-0.414,0.229-0.433l0.019,0.258l0.095-0.258l0.086,0.193
						l0.019-0.276l0.095,0.212c0,0,0.05-0.208,0.124-0.249l0.143,0.129l0.637-0.458"/>
					<path style="fill:#016A16;stroke:#000000;stroke-width:0.0345;" d="M27.759,23.532c-0.665,0.255-1.259,1.166-1.213,1.553
						c0.295-0.366,0.232-0.316,0.364,0.106c0,0,0.05-0.369,0.1-0.413l0.087,0.273l0.032-0.357l0.089,0.004l-0.023-0.224l0.132,0.101
						c-0.031-0.128-0.064-0.171,0.073-0.281c0,0-0.173,0.022-0.036-0.29l0.127,0.123c0,0-0.023-0.136,0.023-0.189l0.469-0.162"/>
					<path style="fill:#016A16;stroke:#000000;stroke-width:0.0345;" d="M27.823,23.6l-0.251,0.478l0.129,0.037l-0.29,0.217
						l0.245-0.025c0,0-0.373,0.137-0.418,0.503l0.38-0.168c0,0-0.322,0.329-0.367,0.528l0.219-0.193c0,0-0.212,0.23-0.18,0.578
						l0.161-0.18c-0.039,0.422-0.026,0.46,0.167,0.783c0,0-0.051-0.497,0.006-0.559l0.425,0.441l-0.238-0.627
						c0,0,0.264,0.397,0.425,0.36L27.9,25.264l0.328,0.267l-0.373-0.559l0.348,0.106c0,0-0.251-0.317-0.232-0.515l0.238,0.261
						c0,0-0.09-0.298-0.064-0.385l0.122,0.025l-0.238-0.273l0.161-0.031l-0.019-0.18l0.116-0.037l-0.006-0.199"/>
					<path style="fill:#016A16;stroke:#000000;stroke-width:0.0345;" d="M28.074,23.743c-0.412,0.559-0.2,1.422-0.444,1.863"/>
				</g>
				<g transform="matrix(-1,0,0,1,499.85867,0)">
					<g id="tree_half_1_">
						<path style="fill:#016A16;stroke:#000000;stroke-width:0.0345;" d="M28.354,23.007c1.465-1.467,2.619-0.751,2.894-0.548
							c-0.182,0.035-0.345-0.078-0.429-0.091c0.053,0.067,0.163,0.232,0.163,0.232s-0.453-0.214-0.504-0.194
							c0.065,0.052,0.137,0.177,0.137,0.177c-0.034,0.013-0.289-0.2-0.339-0.203c0.078,0.088,0.102,0.288,0.102,0.288l-0.221-0.103
							c-0.057,0.041,0.016,0.119-0.034,0.115c-0.367-0.03-0.883,0.335-0.954,0.448"/>
						<path style="fill:#016A16;stroke:#000000;stroke-width:0.0345;" d="M28.717,23.276c0.153-0.35,2.942-0.945,3.503,0.046
							c-0.22,0.055-0.43-0.184-0.43-0.184l0.019,0.221l-0.372-0.285l0.134,0.295l-0.296-0.239l0.01,0.239l-0.363-0.396l0.048,0.23
							l-0.325-0.138l0.038,0.193"/>
						<path style="fill:#016A16;stroke:#000000;stroke-width:0.0345;" d="M28.841,23.331c0.716-0.479,1.823-0.157,1.823-0.157
							c0.706,0.396,1.083,0.325,1.174,1.059c-0.067-0.028-0.258-0.258-0.258-0.258l-0.143,0.285l-0.048-0.405l-0.115,0.313
							l-0.172-0.516l-0.038,0.35l-0.267-0.35l-0.124,0.101l-0.115-0.267l-0.105,0.175c0,0-0.181-0.111-0.286-0.046l-0.2-0.23
							l-0.048,0.166l-0.172-0.203l-0.067,0.147l-0.172-0.157l0.01,0.111l-0.592,0.009"/>
						<path style="fill:#016A16;stroke:#000000;stroke-width:0.0345;" d="M29.003,23.414c0.499-0.009,1.93,0.531,2.3,1.096
							c-0.147-0.082-0.238-0.12-0.238-0.12l-0.073,0.227l-0.089-0.227l-0.019,0.175c-0.055-0.137-0.117-0.152-0.22-0.009
							l-0.038-0.212l-0.057,0.203l-0.095-0.221c0,0-0.06,0.24-0.095,0.23c0,0-0.158-0.414-0.229-0.433l-0.019,0.258l-0.095-0.258
							l-0.086,0.193l-0.019-0.276l-0.095,0.212c0,0-0.05-0.208-0.124-0.249l-0.143,0.129l-0.637-0.458"/>
						<path style="fill:#016A16;stroke:#000000;stroke-width:0.0345;" d="M28.907,23.532c0.665,0.255,1.259,1.166,1.213,1.553
							c-0.295-0.366-0.232-0.316-0.364,0.106c0,0-0.05-0.369-0.1-0.413L29.57,25.05l-0.032-0.357l-0.089,0.004l0.023-0.224
							l-0.132,0.101c0.031-0.128,0.064-0.171-0.073-0.281c0,0,0.173,0.022,0.036-0.29l-0.127,0.123c0,0,0.023-0.136-0.023-0.189
							l-0.469-0.162"/>
						<path style="fill:#016A16;stroke:#000000;stroke-width:0.0345;" d="M28.842,23.6l0.251,0.478l-0.129,0.037l0.29,0.217
							l-0.245-0.025c0,0,0.373,0.137,0.418,0.503l-0.38-0.168c0,0,0.322,0.329,0.367,0.528l-0.219-0.193c0,0,0.212,0.23,0.18,0.578
							l-0.161-0.18c0.039,0.422,0.026,0.46-0.167,0.783c0,0,0.051-0.497-0.006-0.559l-0.425,0.441l0.238-0.627
							c0,0-0.264,0.397-0.425,0.36l0.335-0.509l-0.328,0.267l0.373-0.559l-0.348,0.106c0,0,0.251-0.317,0.232-0.515l-0.238,0.261
							c0,0,0.09-0.298,0.064-0.385l-0.122,0.025l0.238-0.273l-0.161-0.031l0.019-0.18l-0.116-0.037l0.006-0.199"/>
						<path style="fill:#016A16;stroke:#000000;stroke-width:0.0345;" d="M28.591,23.743c0.412,0.559,0.2,1.422,0.444,1.863"/>
					</g>
				</g>
				<g id="trunk">
					<path style="fill:#F1B517;stroke:#000000;stroke-width:0.0345;" d="M28.525,31.432c0,0,0.224-1.877,0.224-2.685
						c0-0.636-0.154-2.045-0.154-2.045H27.95c0,0-0.098,1.402-0.083,2.036c0.019,0.808,0.224,2.694,0.224,2.694L28.525,31.432
						L28.525,31.432z"/>
					<path style="fill:#F1B517;stroke:#000000;stroke-width:0.0345;" d="M27.907,26.792h0.747l-0.088-0.503h-0.542L27.907,26.792z"
						/>
					<path style="fill:#F1B517;stroke:#000000;stroke-width:0.0345;" d="M27.955,26.389h0.668l-0.126-0.503h-0.411L27.955,26.389z"
						/>
					<path style="fill:#F1B517;stroke:#000000;stroke-width:0.0345;" d="M27.998,25.981h0.557l-0.094-0.503h-0.354L27.998,25.981z"
						/>
					<path style="fill:#F1B517;stroke:#000000;stroke-width:0.0345;" d="M28.48,25.418h-0.389L28.051,25.6h0.461L28.48,25.418z"/>
					<path style="fill:#F1B517;stroke:#000000;stroke-width:0.0345;" d="M28.56,31.023h-0.495"/>
					<path style="fill:#F1B517;stroke:#000000;stroke-width:0.0345;" d="M28.587,30.655h-0.555"/>
					<path style="fill:#F1B517;stroke:#000000;stroke-width:0.0345;" d="M28.66,30.282h-0.703"/>
					<path style="fill:#F1B517;stroke:#000000;stroke-width:0.0345;" d="M28.696,29.876H27.96"/>
					<path style="fill:#F1B517;stroke:#000000;stroke-width:0.0345;" d="M28.702,29.47h-0.774"/>
					<path style="fill:#F1B517;stroke:#000000;stroke-width:0.0345;" d="M28.732,29.098h-0.84"/>
					<path style="fill:#F1B517;stroke:#000000;stroke-width:0.0345;" d="M28.734,28.76h-0.878"/>
					<path style="fill:#F1B517;stroke:#000000;stroke-width:0.0345;" d="M28.728,28.352h-0.878"/>
					<path style="fill:#F1B517;stroke:#000000;stroke-width:0.0345;" d="M28.699,27.949h-0.848"/>
					<path style="fill:#F1B517;stroke:#000000;stroke-width:0.0345;" d="M28.66,27.54h-0.767"/>
					<path style="fill:#F1B517;stroke:#000000;stroke-width:0.0345;" d="M28.623,27.17H27.93"/>
				</g>
				<g id="cap">
					<path style="fill:#0A328C;stroke:#0A328C;stroke-width:0.0345;" d="M28.329,22.468c-0.13-0.061-0.424-0.248-0.337-0.359
						l0.135-0.229c0.191-0.43-0.003-0.263-0.024-0.397c-0.019-0.129,0.729-0.028,0.741,0.264c0.003,0.08-0.056,0.033-0.048,0.493
						l-0.143,0.275C28.547,22.524,28.421,22.512,28.329,22.468z"/>
					<path style="fill:#F1B517;stroke:#000000;stroke-width:0.0345;" d="M28.42,23.58l-0.186-0.157l0.051-1.341l0.182,0.053
						L28.42,23.58z"/>
					<path style="fill:#D20014;stroke:#D20014;stroke-width:0.0345;" d="M28.662,22.507c0.117-0.068,0.193-0.272,0.123-0.394
						c-0.192-0.243-0.316-0.143-0.638-0.252c-0.064,0.068-0.199,0.2-0.17,0.298c0.423,0.199,0.259,0.03,0.399,0.054
						C28.451,22.227,28.5,22.316,28.662,22.507z"/>
				</g>
			</g>
			<g id="items">
				<g id="i1">
					<g transform="matrix(1,0,0,-1,-0.00226132,320.36968)">
						<path id="ip" style="fill:#016A16;stroke:#FFFFFF;stroke-width:0.0448;stroke-linecap:round;" d="M26.182,30.246
							c-0.05-0.093-0.2-0.161-0.377-0.161c-0.177,0-0.326,0.068-0.376,0.161c-0.012-0.021-0.019-0.044-0.019-0.068
							c0-0.126,0.177-0.229,0.395-0.229s0.395,0.102,0.395,0.229C26.2,30.202,26.194,30.224,26.182,30.246L26.182,30.246z"/>
					</g>
					<path style="fill:#016A16;stroke:#FFFFFF;stroke-width:0.0342;stroke-linecap:round;" d="M26.149,30.529
						c0,0.245-0.154,0.444-0.343,0.444c-0.189,0-0.343-0.199-0.343-0.444v-0.241h0.686V30.529z"/>
					<ellipse style="fill:#FFFFFF;" cx="25.806" cy="30.21" rx="0.341" ry="0.169"/>
					<path style="fill:#016A16;stroke:#F1B517;stroke-width:0.0345;" d="M25.728,30.401l-0.059-0.622h0.261l-0.043,0.622H25.728
						L25.728,30.401z"/>
					<path id="ip_1_" style="fill:#016A16;stroke:#FFFFFF;stroke-width:0.0448;stroke-linecap:round;" d="M26.183,30.221
						c-0.05,0.093-0.2,0.161-0.377,0.161c-0.177,0-0.326-0.068-0.376-0.161c-0.012,0.021-0.019,0.044-0.019,0.068
						c0,0.126,0.177,0.229,0.395,0.229s0.395-0.102,0.395-0.229C26.2,30.265,26.194,30.242,26.183,30.221L26.183,30.221z"/>
				</g>
				<g id="items_half">
					<path id="cannon_base" style="fill:#F1B517;stroke:#000000;stroke-width:0.0345;" d="M27.598,32.612l-1.333-0.413l-0.581-0.992
						l-2.056-0.101l0.071,0.744l1.751,0.335l0.167,0.298l2.013,0.56L27.598,32.612L27.598,32.612z"/>
					<g id="i2">
						<path style="fill:#503200;stroke:#000000;stroke-width:0.0345;" d="M26.206,32.889l-2.104-3.095l-0.103,0.078l2.088,3.108
							L26.206,32.889L26.206,32.889z"/>
						<path style="fill:#FFFFFF;stroke:#000000;stroke-width:0.0345;" d="M24.298,29.915l-0.225-0.376
							c-0.042-0.069-0.106-0.093-0.2-0.043c-0.091,0.048-0.082,0.143-0.045,0.212l0.208,0.35L24.298,29.915L24.298,29.915z"/>
					</g>
					<g id="cannon">
						<path style="fill:#F1B517;stroke:#000000;stroke-width:0.0345;" d="M26.456,30.977l-4.246-0.432l-0.103,0.617l4.225,0.425
							L26.456,30.977L26.456,30.977z"/>
						<path style="fill:#F1B517;stroke:#000000;stroke-width:0.0345;" d="M22.135,30.387l-0.11,0.856h0.179l0.124-0.783
							L22.135,30.387z"/>
						<path style="fill:#F1B517;stroke:#000000;stroke-width:0.0345;" d="M22.843,30.526l-0.048,0.77l0.11,0.013l0.089-0.684
							L22.843,30.526L22.843,30.526z"/>
						<path style="fill:#F1B517;stroke:#000000;stroke-width:0.0345;" d="M25.72,30.858l-0.103,0.724l0.206-0.007l0.083-0.717
							L25.72,30.858L25.72,30.858z"/>
						<path style="fill:#F1B517;stroke:#000000;stroke-width:0.0345;" d="M26.352,30.878l-0.147,0.837l0.234,0.034l0.067-0.44
							c0.019,0.088,0.1,0.156,0.197,0.156c0.111,0,0.202-0.088,0.202-0.195s-0.091-0.194-0.202-0.194
							c-0.077,0-0.147,0.045-0.178,0.13l0.044-0.314L26.352,30.878L26.352,30.878z"/>
						<path style="fill:#F1B517;stroke:#000000;stroke-width:0.0345;" d="M24.82,31.014l-0.584,0.657l0.068,0.08l0.749-0.512
							L24.82,31.014z"/>
						<path style="fill:#F1B517;stroke:#000000;stroke-width:0.0345;" d="M23.462,32.652l0.584-0.657l-0.068-0.08l-0.749,0.512
							L23.462,32.652z"/>
						<path style="fill:#F1B517;stroke:#000000;stroke-width:0.0345;" d="M24.99,32.488l-0.71-0.549l-0.073,0.052l0.56,0.709
							L24.99,32.488z"/>
						<path style="fill:#F1B517;stroke:#000000;stroke-width:0.0345;" d="M23.238,31.22l0.72,0.53l0.088-0.066l-0.564-0.709
							L23.238,31.22z"/>
						<path style="fill:#F1B517;stroke:#000000;stroke-width:0.0345;" d="M24.022,30.782l0.069,0.863l0.097-0.004l0.228-0.84
							L24.022,30.782L24.022,30.782z"/>
						<path style="fill:#F1B517;stroke:#000000;stroke-width:0.0345;" d="M24.258,32.876l-0.069-0.863l-0.107-0.01l-0.131,0.873
							L24.258,32.876L24.258,32.876z"/>
						<path style="fill:#F1B517;stroke:#000000;stroke-width:0.0345;" d="M25.213,31.713l-0.905,0.096l-0.014,0.086l0.915,0.12
							L25.213,31.713L25.213,31.713z"/>
						<path style="fill:#F1B517;stroke:#000000;stroke-width:0.0345;" d="M23.06,32.012l0.883-0.14l0.019-0.069l-0.914-0.102
							L23.06,32.012L23.06,32.012z"/>
						<ellipse style="fill:#F1B517;stroke:#000000;stroke-width:0.0345;" cx="24.136" cy="31.812" rx="0.24" ry="0.231"/>
						<path style="fill:#F1B517;stroke:#000000;stroke-width:0.0345;stroke-linecap:round;" d="M25.409,31.812
							c0,0.678-0.57,1.228-1.273,1.228s-1.273-0.55-1.273-1.228c0-0.678,0.57-1.228,1.273-1.228
							C24.839,30.584,25.409,31.134,25.409,31.812z M25.155,31.812c0,0.543-0.456,0.983-1.019,0.983
							c-0.562,0-1.019-0.44-1.019-0.983s0.456-0.983,1.019-0.983S25.155,31.269,25.155,31.812z"/>
						<path style="fill:#F1B517;stroke:#000000;stroke-width:0.0345;" d="M23.341,31.192l-0.2-0.15"/>
						<path style="fill:#F1B517;stroke:#000000;stroke-width:0.0345;" d="M24.767,31.046l0.17-0.174"/>
						<path style="fill:#F1B517;stroke:#000000;stroke-width:0.0345;" d="M25.131,32.596l-0.209-0.164"/>
						<path style="fill:#F1B517;stroke:#000000;stroke-width:0.0345;" d="M23.341,32.783l0.18-0.192"/>
					</g>
					<g id="axe">
						<path style="fill:#F1B517;stroke:#000000;stroke-width:0.0345;" d="M27.628,30.599l0.218,1.111l-0.178,0.094l-0.191-1.189
							L27.628,30.599L27.628,30.599z"/>
						<path style="fill:#FFFFFF;stroke:#000000;stroke-width:0.0345;" d="M27.514,30.456c-0.101-0.042-0.232,0.029-0.448-0.244
							c-0.355,0.325-0.02,0.374,0.034,0.696c0.1,0.041,0.162-0.25,0.435-0.28c0.034-0.003,0.434-0.038,0.434-0.038l-0.1-0.137
							C27.868,30.453,27.589,30.46,27.514,30.456L27.514,30.456z"/>
						<path style="fill:#FFFFFF;stroke:#000000;stroke-width:0.0345;" d="M27.659,30.674l-0.04-0.332
							c-0.044-0.117-0.189-0.016-0.189,0.052l0.037,0.306L27.659,30.674z"/>
					</g>
					<path id="bugle" style="fill:#F1B517;stroke:#000000;stroke-width:0.0345;" d="M26.603,31.59l0.004,0.309
						c-0.101,0.035-0.086,0.11-0.082,0.221l0.004,0.901c-0.036,0.06-0.147,0.063-0.199,0.109c-0.052,0.047-0.046,0.138,0.192,0.198
						l0.184,0.007c0.281-0.061,0.338-0.154,0.198-0.207c-0.075-0.028-0.173-0.061-0.211-0.105l0.006-0.215l0.182,0.007
						c0.049,0,0.142-0.123,0.145-0.224l0.001-0.466c-0.007-0.264-0.205-0.294-0.26-0.291l0.004-0.243L26.603,31.59L26.603,31.59z
						 M26.911,32.105c0.003-0.076-0.105-0.143-0.148-0.145s-0.139,0.088-0.142,0.164v0.189c0.007,0.069,0.062,0.304,0.173,0.321
						c0.053,0.008,0.121-0.076,0.121-0.145L26.911,32.105L26.911,32.105z"/>
					<g id="i3">
						<path style="fill:#FFFFFF;stroke:#000000;stroke-width:0.0345;" d="M25.378,32.525c-0.12-0.049-0.119,0.221-0.119,0.221
							l0.189,0.002c0.083,0.038,0.149,0.159,0.097,0.219c-0.044,0.049-0.411-0.083-0.436-0.007c0.065,0.366,0.551,0.507,0.726,0.347
							c0.172-0.157,0.215-0.575-0.343-0.685L25.378,32.525L25.378,32.525z"/>
						<path style="fill:#FFFFFF;stroke:#000000;stroke-width:0.0345;" d="M25.491,32.625l-0.055,0.121"/>
					</g>
					<g id="small_flag">
						<path style="fill:#F1B517;stroke:#000000;stroke-width:0.0345;" d="M21.729,32.662l-0.182-0.764"/>
						<path style="fill:#F1B517;stroke:#000000;stroke-width:0.0345;" d="M21.95,32.618l-0.279-0.595"/>
						<path style="fill:#F1B517;stroke:#000000;stroke-width:0.0345;" d="M22.431,32.462l-0.63-0.338"/>
						<path style="fill:#F1B517;stroke:#000000;stroke-width:0.0345;" d="M22.703,32.393l-1.169-0.507"/>
						<path style="fill:#D20014;stroke:#D20014;stroke-width:0.0345;" d="M20.837,31.333c0,0-0.425-0.007-0.501,0.023
							c-0.031,0.012,0.107,0.156,0.078,0.211c-0.106,0.204-0.829,0.176-0.887,0.132c-0.098-0.076,0.673-0.142,0.679-0.194
							c0.006-0.06-0.114-0.216-0.095-0.313c0.024-0.125,0.338-0.171,0.338-0.171L20.837,31.333L20.837,31.333z"/>
						<path style="fill:#503200;stroke:#000000;stroke-width:0.0345;" d="M21.407,31.718l-0.963-0.797c0,0-0.042-0.045-0.078-0.006
							c-0.035,0.038,0.013,0.081,0.013,0.081l0.993,0.821L21.407,31.718L21.407,31.718z"/>
						<path style="fill:#F1B517;stroke:#000000;stroke-width:0.0345;" d="M22.334,32.504c-0.017-0.016-0.784-0.681-0.784-0.681
							l-0.051-0.194c0,0-0.118,0.08-0.162,0.122c-0.043,0.041-0.111,0.155-0.111,0.155l0.215,0.01l0.679,0.622L22.334,32.504z"/>
					</g>
					<g id="cannonballs">
						<ellipse style="fill:#F1B517;stroke:#000000;stroke-width:0.0345;" cx="25.05" cy="33.418" rx="0.135" ry="0.135"/>
						<ellipse style="fill:#F1B517;stroke:#000000;stroke-width:0.0345;" cx="24.692" cy="33.165" rx="0.135" ry="0.135"/>
						<ellipse style="fill:#F1B517;stroke:#000000;stroke-width:0.0345;" cx="24.211" cy="33.33" rx="0.135" ry="0.135"/>
						<ellipse style="fill:#F1B517;stroke:#000000;stroke-width:0.0345;" cx="23.468" cy="33.491" rx="0.135" ry="0.135"/>
						<ellipse style="fill:#F1B517;stroke:#000000;stroke-width:0.0345;" cx="23.153" cy="33.528" rx="0.135" ry="0.135"/>
						<ellipse style="fill:#F1B517;stroke:#000000;stroke-width:0.0345;" cx="22.844" cy="33.528" rx="0.135" ry="0.135"/>
						<ellipse style="fill:#F1B517;stroke:#000000;stroke-width:0.0345;" cx="22.529" cy="33.519" rx="0.135" ry="0.135"/>
						<ellipse style="fill:#F1B517;stroke:#000000;stroke-width:0.0345;" cx="22.682" cy="33.28" rx="0.135" ry="0.135"/>
						<ellipse style="fill:#F1B517;stroke:#000000;stroke-width:0.0345;" cx="22.987" cy="33.293" rx="0.135" ry="0.135"/>
						<ellipse style="fill:#F1B517;stroke:#000000;stroke-width:0.0345;" cx="23.277" cy="33.257" rx="0.135" ry="0.135"/>
						<ellipse style="fill:#F1B517;stroke:#000000;stroke-width:0.0345;" cx="23.13" cy="33.022" rx="0.135" ry="0.135"/>
						<ellipse style="fill:#F1B517;stroke:#000000;stroke-width:0.0345;" cx="22.844" cy="33.018" rx="0.135" ry="0.135"/>
					</g>
					<path id="chain" style="fill:#F1B517;stroke:#000000;stroke-width:0.0345;" d="M25.792,33.594c0-0.06-0.145-0.034-0.145-0.104
						c0-0.078,0.221-0.021,0.252,0.048c0.125-0.113,0.178-0.03,0.254,0.004c0.109-0.161,0.243-0.155,0.374-0.037
						c0.076-0.084,0.266-0.056,0.332,0.037c0.125-0.124,0.237-0.094,0.324-0.004c0.035-0.065,0.086-0.051,0.123-0.004
						c0.067-0.119,0.234-0.083,0.305-0.005c0.063-0.069,0.127-0.015,0.21,0.036c0.056-0.053,0.147-0.043,0.147,0.01
						c0,0.055-0.118,0.035-0.118,0.089c0,0.048,0.086,0.024,0.086,0.085c0,0.048-0.128,0.066-0.148-0.011
						c-0.043,0.083-0.2,0.051-0.216-0.026c-0.052,0.063-0.169,0.082-0.235-0.011c-0.054,0.044-0.119,0.05-0.149,0.006
						c-0.098,0.105-0.262,0.083-0.319-0.032l-0.055,0.002c-0.096,0.13-0.246,0.07-0.287-0.002c-0.161,0.116-0.257,0.08-0.347,0.004
						c-0.103,0.126-0.261,0.117-0.297,0c-0.069,0.051-0.214,0.063-0.214,0.003C25.669,33.626,25.792,33.646,25.792,33.594
						L25.792,33.594z M26.105,33.622c0,0.027-0.037,0.049-0.082,0.049c-0.045,0-0.082-0.022-0.082-0.049
						c0-0.027,0.037-0.049,0.082-0.049C26.068,33.573,26.105,33.595,26.105,33.622z M26.448,33.581c0,0.033-0.044,0.059-0.099,0.059
						c-0.055,0-0.099-0.026-0.099-0.059c0-0.033,0.044-0.059,0.099-0.059C26.404,33.522,26.448,33.549,26.448,33.581z
						 M27.123,33.618c0,0.033-0.04,0.06-0.089,0.06s-0.089-0.027-0.089-0.06s0.04-0.06,0.089-0.06S27.123,33.585,27.123,33.618z
						 M26.764,33.603c0,0.042-0.039,0.075-0.087,0.075c-0.048,0-0.087-0.034-0.087-0.075c0-0.042,0.039-0.075,0.087-0.075
						C26.725,33.527,26.764,33.561,26.764,33.603z M27.53,33.605c0,0.037-0.035,0.067-0.078,0.067c-0.043,0-0.078-0.03-0.078-0.067
						c0-0.037,0.035-0.067,0.078-0.067C27.495,33.537,27.53,33.567,27.53,33.605z M27.295,33.62c0,0.024-0.023,0.044-0.051,0.044
						c-0.028,0-0.051-0.02-0.051-0.044c0-0.024,0.023-0.044,0.051-0.044C27.273,33.577,27.295,33.596,27.295,33.62z M27.752,33.638
						c0,0.035-0.026,0.063-0.057,0.063s-0.057-0.028-0.057-0.063c0-0.035,0.026-0.063,0.057-0.063S27.752,33.603,27.752,33.638z"/>
				</g>
				<g transform="matrix(-1,0,0,1,499.85853,0)">
					<g id="items_half_1_">
						<path id="cannon_base_1_" style="fill:#F1B517;stroke:#000000;stroke-width:0.0345;" d="M29.068,32.612l1.333-0.413
							l0.581-0.992l2.056-0.101l-0.071,0.744l-1.751,0.335l-0.167,0.298l-2.013,0.56L29.068,32.612L29.068,32.612z"/>
						<g id="i2_1_">
							<path style="fill:#503200;stroke:#000000;stroke-width:0.0345;" d="M30.459,32.889l2.104-3.095l0.103,0.078l-2.088,3.108
								L30.459,32.889L30.459,32.889z"/>
							<path style="fill:#FFFFFF;stroke:#000000;stroke-width:0.0345;" d="M32.368,29.915l0.225-0.376
								c0.042-0.069,0.106-0.093,0.2-0.043c0.091,0.048,0.082,0.143,0.045,0.212l-0.208,0.35L32.368,29.915L32.368,29.915z"/>
						</g>
						<g id="cannon_1_">
							<path style="fill:#F1B517;stroke:#000000;stroke-width:0.0345;" d="M30.209,30.977l4.246-0.432l0.103,0.617l-4.225,0.425
								L30.209,30.977L30.209,30.977z"/>
							<path style="fill:#F1B517;stroke:#000000;stroke-width:0.0345;" d="M34.531,30.387l0.11,0.856h-0.179l-0.124-0.783
								L34.531,30.387z"/>
							<path style="fill:#F1B517;stroke:#000000;stroke-width:0.0345;" d="M33.822,30.526l0.048,0.77l-0.11,0.013l-0.089-0.684
								L33.822,30.526L33.822,30.526z"/>
							<path style="fill:#F1B517;stroke:#000000;stroke-width:0.0345;" d="M30.946,30.858l0.103,0.724l-0.206-0.007l-0.083-0.717
								L30.946,30.858L30.946,30.858z"/>
							<path style="fill:#F1B517;stroke:#000000;stroke-width:0.0345;" d="M30.313,30.878l0.147,0.837l-0.234,0.034l-0.067-0.44
								c-0.019,0.088-0.1,0.156-0.197,0.156c-0.111,0-0.202-0.088-0.202-0.195s0.091-0.194,0.202-0.194
								c0.077,0,0.147,0.045,0.178,0.13l-0.044-0.314L30.313,30.878L30.313,30.878z"/>
							<path style="fill:#F1B517;stroke:#000000;stroke-width:0.0345;" d="M31.846,31.014l0.584,0.657l-0.068,0.08l-0.749-0.512
								L31.846,31.014z"/>
							<path style="fill:#F1B517;stroke:#000000;stroke-width:0.0345;" d="M33.203,32.652l-0.584-0.657l0.068-0.08l0.749,0.512
								L33.203,32.652z"/>
							<path style="fill:#F1B517;stroke:#000000;stroke-width:0.0345;" d="M31.675,32.488l0.71-0.549l0.073,0.052l-0.56,0.709
								L31.675,32.488z"/>
							<path style="fill:#F1B517;stroke:#000000;stroke-width:0.0345;" d="M33.427,31.22l-0.72,0.53l-0.088-0.066l0.564-0.709
								L33.427,31.22z"/>
							<path style="fill:#F1B517;stroke:#000000;stroke-width:0.0345;" d="M32.643,30.782l-0.069,0.863l-0.097-0.004l-0.228-0.84
								L32.643,30.782L32.643,30.782z"/>
							<path style="fill:#F1B517;stroke:#000000;stroke-width:0.0345;" d="M32.407,32.876l0.069-0.863l0.107-0.01l0.131,0.873
								L32.407,32.876L32.407,32.876z"/>
							<path style="fill:#F1B517;stroke:#000000;stroke-width:0.0345;" d="M31.452,31.713l0.905,0.096l0.014,0.086l-0.915,0.12
								L31.452,31.713L31.452,31.713z"/>
							<path style="fill:#F1B517;stroke:#000000;stroke-width:0.0345;" d="M33.605,32.012l-0.883-0.14l-0.019-0.069l0.914-0.102
								L33.605,32.012L33.605,32.012z"/>
							<ellipse style="fill:#F1B517;stroke:#000000;stroke-width:0.0345;" cx="32.53" cy="31.812" rx="0.24" ry="0.231"/>
							<path style="fill:#F1B517;stroke:#000000;stroke-width:0.0345;stroke-linecap:round;" d="M31.257,31.812
								c0,0.678,0.57,1.228,1.273,1.228c0.703,0,1.273-0.55,1.273-1.228c0-0.678-0.57-1.228-1.273-1.228
								C31.827,30.584,31.257,31.134,31.257,31.812z M31.511,31.812c0,0.543,0.456,0.983,1.019,0.983s1.019-0.44,1.019-0.983
								s-0.456-0.983-1.019-0.983C31.967,30.829,31.511,31.269,31.511,31.812z"/>
							<path style="fill:#F1B517;stroke:#000000;stroke-width:0.0345;" d="M33.325,31.192l0.2-0.15"/>
							<path style="fill:#F1B517;stroke:#000000;stroke-width:0.0345;" d="M31.899,31.046l-0.17-0.174"/>
							<path style="fill:#F1B517;stroke:#000000;stroke-width:0.0345;" d="M31.534,32.596l0.209-0.164"/>
							<path style="fill:#F1B517;stroke:#000000;stroke-width:0.0345;" d="M33.325,32.783l-0.18-0.192"/>
						</g>
						<g id="axe_1_">
							<path style="fill:#F1B517;stroke:#000000;stroke-width:0.0345;" d="M29.037,30.599l-0.218,1.111l0.178,0.094l0.191-1.189
								L29.037,30.599L29.037,30.599z"/>
							<path style="fill:#FFFFFF;stroke:#000000;stroke-width:0.0345;" d="M29.151,30.456c0.101-0.042,0.232,0.029,0.448-0.244
								c0.355,0.325,0.02,0.374-0.034,0.696c-0.1,0.041-0.162-0.25-0.435-0.28c-0.034-0.003-0.434-0.038-0.434-0.038l0.1-0.137
								C28.798,30.453,29.076,30.46,29.151,30.456L29.151,30.456z"/>
							<path style="fill:#FFFFFF;stroke:#000000;stroke-width:0.0345;" d="M29.007,30.674l0.04-0.332
								c0.044-0.117,0.189-0.016,0.189,0.052L29.199,30.7L29.007,30.674z"/>
						</g>
						<path id="bugle_1_" style="fill:#F1B517;stroke:#000000;stroke-width:0.0345;" d="M30.062,31.59l-0.004,0.309
							c0.101,0.035,0.086,0.11,0.082,0.221l-0.004,0.901c0.036,0.06,0.147,0.063,0.199,0.109c0.052,0.047,0.046,0.138-0.192,0.198
							l-0.184,0.007c-0.281-0.061-0.338-0.154-0.198-0.207c0.075-0.028,0.173-0.061,0.211-0.105l-0.006-0.215l-0.182,0.007
							c-0.049,0-0.142-0.123-0.145-0.224l-0.001-0.466c0.007-0.264,0.205-0.294,0.26-0.291l-0.004-0.243L30.062,31.59L30.062,31.59z
							 M29.755,32.105c-0.003-0.076,0.105-0.143,0.148-0.145s0.139,0.088,0.142,0.164v0.189c-0.007,0.069-0.062,0.304-0.173,0.321
							c-0.053,0.008-0.121-0.076-0.121-0.145L29.755,32.105L29.755,32.105z"/>
						<g id="i3_1_">
							<path style="fill:#FFFFFF;stroke:#000000;stroke-width:0.0345;" d="M31.287,32.525c0.12-0.049,0.119,0.221,0.119,0.221
								l-0.189,0.002c-0.083,0.038-0.149,0.159-0.097,0.219c0.044,0.049,0.411-0.083,0.436-0.007
								c-0.065,0.366-0.551,0.507-0.726,0.347c-0.172-0.157-0.215-0.575,0.343-0.685L31.287,32.525L31.287,32.525z"/>
							<path style="fill:#FFFFFF;stroke:#000000;stroke-width:0.0345;" d="M31.175,32.625l0.055,0.121"/>
						</g>
						<g id="small_flag_1_">
							<path style="fill:#F1B517;stroke:#000000;stroke-width:0.0345;" d="M34.936,32.662l0.182-0.764"/>
							<path style="fill:#F1B517;stroke:#000000;stroke-width:0.0345;" d="M34.715,32.618l0.279-0.595"/>
							<path style="fill:#F1B517;stroke:#000000;stroke-width:0.0345;" d="M34.235,32.462l0.63-0.338"/>
							<path style="fill:#F1B517;stroke:#000000;stroke-width:0.0345;" d="M33.962,32.393l1.169-0.507"/>
							<path style="fill:#D20014;stroke:#D20014;stroke-width:0.0345;" d="M35.828,31.333c0,0,0.425-0.007,0.501,0.023
								c0.031,0.012-0.107,0.156-0.078,0.211c0.106,0.204,0.829,0.176,0.887,0.132c0.098-0.076-0.673-0.142-0.679-0.194
								c-0.006-0.06,0.114-0.216,0.095-0.313c-0.024-0.125-0.338-0.171-0.338-0.171L35.828,31.333L35.828,31.333z"/>
							<path style="fill:#503200;stroke:#000000;stroke-width:0.0345;" d="M35.259,31.718l0.963-0.797c0,0,0.042-0.045,0.078-0.006
								c0.035,0.038-0.013,0.081-0.013,0.081l-0.993,0.821L35.259,31.718L35.259,31.718z"/>
							<path style="fill:#F1B517;stroke:#000000;stroke-width:0.0345;" d="M34.332,32.504c0.017-0.016,0.784-0.681,0.784-0.681
								l0.051-0.194c0,0,0.118,0.08,0.162,0.122c0.043,0.041,0.111,0.155,0.111,0.155l-0.215,0.01l-0.679,0.622L34.332,32.504z"/>
						</g>
						<g id="cannonballs_1_">
							<ellipse style="fill:#F1B517;stroke:#000000;stroke-width:0.0345;" cx="31.616" cy="33.418" rx="0.135" ry="0.135"/>
							<ellipse style="fill:#F1B517;stroke:#000000;stroke-width:0.0345;" cx="31.973" cy="33.165" rx="0.135" ry="0.135"/>
							<ellipse style="fill:#F1B517;stroke:#000000;stroke-width:0.0345;" cx="32.455" cy="33.33" rx="0.135" ry="0.135"/>
							<ellipse style="fill:#F1B517;stroke:#000000;stroke-width:0.0345;" cx="33.198" cy="33.491" rx="0.135" ry="0.135"/>
							<ellipse style="fill:#F1B517;stroke:#000000;stroke-width:0.0345;" cx="33.512" cy="33.528" rx="0.135" ry="0.135"/>
							<ellipse style="fill:#F1B517;stroke:#000000;stroke-width:0.0345;" cx="33.822" cy="33.528" rx="0.135" ry="0.135"/>
							<ellipse style="fill:#F1B517;stroke:#000000;stroke-width:0.0345;" cx="34.136" cy="33.519" rx="0.135" ry="0.135"/>
							<ellipse style="fill:#F1B517;stroke:#000000;stroke-width:0.0345;" cx="33.984" cy="33.28" rx="0.135" ry="0.135"/>
							<ellipse style="fill:#F1B517;stroke:#000000;stroke-width:0.0345;" cx="33.679" cy="33.293" rx="0.135" ry="0.135"/>
							<ellipse style="fill:#F1B517;stroke:#000000;stroke-width:0.0345;" cx="33.388" cy="33.257" rx="0.135" ry="0.135"/>
							<ellipse style="fill:#F1B517;stroke:#000000;stroke-width:0.0345;" cx="33.536" cy="33.022" rx="0.135" ry="0.135"/>
							<ellipse style="fill:#F1B517;stroke:#000000;stroke-width:0.0345;" cx="33.822" cy="33.018" rx="0.135" ry="0.135"/>
						</g>
						<path id="chain_1_" style="fill:#F1B517;stroke:#000000;stroke-width:0.0345;" d="M30.873,33.594
							c0-0.06,0.145-0.034,0.145-0.104c0-0.078-0.221-0.021-0.252,0.048c-0.125-0.113-0.178-0.03-0.254,0.004
							c-0.109-0.161-0.243-0.155-0.374-0.037c-0.076-0.084-0.266-0.056-0.332,0.037c-0.125-0.124-0.237-0.094-0.324-0.004
							c-0.035-0.065-0.086-0.051-0.123-0.004c-0.067-0.119-0.234-0.083-0.305-0.005c-0.063-0.069-0.127-0.015-0.21,0.036
							c-0.056-0.053-0.147-0.043-0.147,0.01c0,0.055,0.118,0.035,0.118,0.089c0,0.048-0.086,0.024-0.086,0.085
							c0,0.048,0.128,0.066,0.148-0.011c0.043,0.083,0.2,0.051,0.216-0.026c0.052,0.063,0.169,0.082,0.235-0.011
							c0.054,0.044,0.119,0.05,0.149,0.006c0.098,0.105,0.262,0.083,0.319-0.032l0.055,0.002c0.096,0.13,0.246,0.07,0.287-0.002
							c0.161,0.116,0.257,0.08,0.347,0.004c0.103,0.126,0.261,0.117,0.297,0c0.069,0.051,0.214,0.063,0.214,0.003
							C30.996,33.626,30.873,33.646,30.873,33.594L30.873,33.594z M30.561,33.622c0,0.027,0.037,0.049,0.082,0.049
							c0.045,0,0.082-0.022,0.082-0.049c0-0.027-0.037-0.049-0.082-0.049C30.598,33.573,30.561,33.595,30.561,33.622z
							 M30.217,33.581c0,0.033,0.044,0.059,0.099,0.059c0.055,0,0.099-0.026,0.099-0.059c0-0.033-0.044-0.059-0.099-0.059
							C30.262,33.522,30.217,33.549,30.217,33.581z M29.543,33.618c0,0.033,0.04,0.06,0.089,0.06s0.089-0.027,0.089-0.06
							s-0.04-0.06-0.089-0.06S29.543,33.585,29.543,33.618z M29.902,33.603c0,0.042,0.039,0.075,0.087,0.075
							c0.048,0,0.087-0.034,0.087-0.075c0-0.042-0.039-0.075-0.087-0.075C29.941,33.527,29.902,33.561,29.902,33.603z
							 M29.136,33.605c0,0.037,0.035,0.067,0.078,0.067c0.043,0,0.078-0.03,0.078-0.067c0-0.037-0.035-0.067-0.078-0.067
							C29.171,33.537,29.136,33.567,29.136,33.605z M29.37,33.62c0,0.024,0.023,0.044,0.051,0.044c0.028,0,0.051-0.02,0.051-0.044
							c0-0.024-0.023-0.044-0.051-0.044C29.393,33.577,29.37,33.596,29.37,33.62z M28.913,33.638c0,0.035,0.026,0.063,0.057,0.063
							s0.057-0.028,0.057-0.063c0-0.035-0.026-0.063-0.057-0.063S28.913,33.603,28.913,33.638z"/>
					</g>
				</g>
				<g id="drum">
					<path style="fill:#0A328C;stroke:#0A328C;stroke-width:0.0436;" d="M28.315,31.278c-0.474,0-0.859,0.178-0.859,0.397
						c0,0.037,0.011,0.074,0.032,0.108c0.103,0.119,0.435,0.205,0.83,0.205c0.369,0,0.684-0.076,0.807-0.183
						c0.031-0.041,0.048-0.084,0.048-0.13C29.174,31.456,28.789,31.278,28.315,31.278L28.315,31.278z"/>
					<path style="fill:#F1B517;stroke:#000000;stroke-width:0.0353;" d="M29.182,31.705v1.332c0,0.156-0.387,0.283-0.863,0.283
						s-0.863-0.127-0.863-0.283v-1.332c0,0.156,0.387,0.283,0.863,0.283S29.182,31.861,29.182,31.705z"/>
					<path style="fill:#D20014;stroke:#D20014;stroke-width:0.0345;" d="M27.456,31.705v0.204l0.419,1.292l0.334-0.993l0.367,1.032
						l0.269-0.974l0.337,0.655v-0.362l-0.313-0.635c-0.035,0.01-0.072,0.018-0.112,0.025l-0.194,0.719l-0.273-0.68
						c-0.046-0.001-0.091-0.002-0.135-0.004l-0.274,0.685l-0.314-0.824C27.497,31.802,27.456,31.755,27.456,31.705L27.456,31.705z"
						/>
					<path style="fill:#0A328C;stroke:#0A328C;stroke-width:0.0353;" d="M29.182,32.788v0.249c0,0.156-0.387,0.283-0.863,0.283
						s-0.863-0.127-0.863-0.283v-0.249c0,0.156,0.387,0.283,0.863,0.283S29.182,32.944,29.182,32.788z"/>
					<path style="fill:#F1B517;stroke:#000000;stroke-width:0.0353;" d="M28.674,33.046c-0.07,0.01-0.145,0.018-0.224,0.022
						l0.002,0.249c0.079-0.004,0.154-0.012,0.224-0.022L28.674,33.046z"/>
					<path style="fill:#F1B517;stroke:#000000;stroke-width:0.0353;" d="M27.755,33.002l-0.002,0.248
						c0.067,0.019,0.142,0.035,0.224,0.047v-0.249C27.895,33.036,27.821,33.021,27.755,33.002L27.755,33.002z"/>
					<path style="fill:#F1B517;stroke:#000000;stroke-width:0.0353;" d="M27.456,32.788v0.249c0,0.046,0.035,0.089,0.095,0.128
						l0.004-0.245C27.492,32.88,27.456,32.836,27.456,32.788L27.456,32.788z"/>
					<path style="fill:#F1B517;stroke:#000000;stroke-width:0.0353;" d="M29.182,32.815l-0.004,0.001
						c-0.015,0.05-0.071,0.097-0.157,0.136l0.001,0.248c0.1-0.046,0.16-0.102,0.16-0.163L29.182,32.815L29.182,32.815z"/>
					<path style="fill:none;stroke:#000000;stroke-width:0.0353;" d="M29.182,31.713v1.323c0,0.156-0.387,0.283-0.863,0.283
						s-0.863-0.127-0.863-0.283v-1.323"/>
					<path style="fill:#FFFFFF;stroke:#FFFFFF;stroke-width:0.0362;" d="M28.986,31.618c0,0.095-0.299,0.171-0.668,0.171
						c-0.369,0-0.668-0.077-0.668-0.171s0.299-0.171,0.668-0.171S28.986,31.523,28.986,31.618z"/>
					<path style="fill:#F1B517;stroke:#000000;stroke-width:0.0436;" d="M28.1,31.744l0.03,0.236
						c0.058,0.004,0.118,0.007,0.18,0.007l0.044-0.243L28.1,31.744L28.1,31.744z"/>
					<path style="fill:#F1B517;stroke:#000000;stroke-width:0.0436;" d="M28.875,31.687l-0.172,0.047l0.011,0.222
						c0.059-0.01,0.114-0.022,0.163-0.036L28.875,31.687L28.875,31.687z"/>
					<path style="fill:#F1B517;stroke:#000000;stroke-width:0.0436;" d="M27.855,31.327c-0.049,0.014-0.095,0.031-0.136,0.05
						l0.024,0.178l0.11-0.035L27.855,31.327L27.855,31.327z"/>
					<path style="fill:#F1B517;stroke:#000000;stroke-width:0.0436;" d="M28.315,31.256c-0.023,0-0.045,0.001-0.068,0.002
						l0.037,0.223l0.114-0.002l0.045-0.218C28.402,31.259,28.359,31.256,28.315,31.256L28.315,31.256z"/>
					<path style="fill:#F1B517;stroke:#000000;stroke-width:0.0436;" d="M28.82,31.335l-0.023,0.195l0.131,0.046l0.014-0.192
						C28.905,31.367,28.864,31.35,28.82,31.335L28.82,31.335z"/>
					<path style="fill:#F1B517;stroke:#000000;stroke-width:0.0345;" d="M27.59,31.859l0.035-0.243l-0.176-0.096l0.005,0.277
						L27.59,31.859L27.59,31.859z"/>
					<path style="fill:#F1B517;stroke:#000000;stroke-width:0.0345;" d="M29.176,31.807l0.008-0.243l-0.165,0.049L29.176,31.807
						L29.176,31.807z"/>
				</g>
				<g id="helmet">
					<path style="fill:#F1B517;stroke:#000000;stroke-width:0.0345;" d="M30.929,30.204c0.157-0.022,0.389,0.193,0.403,0.459
						c0.011,0.211-0.319,0.2-0.319,0.2c-0.017,0.086-0.199,0.166-0.347,0.173c-0.144,0.006,0.039-0.27,0.039-0.27
						c-0.09-0.238,0.028-0.519,0.028-0.519L30.929,30.204L30.929,30.204z"/>
					<path style="fill:#F1B517;stroke:#000000;stroke-width:0.0345;" d="M30.705,30.755l0.151-0.005c0,0,0.012,0.078,0.039,0.081
						c0.03,0.003,0.062-0.076,0.062-0.076l0.23-0.005"/>
					<path style="fill:#D20014;stroke:#F1B517;stroke-width:0.0345;" d="M31.013,30.361c0.128-0.093,0.016-0.279-0.073-0.281
						l-0.207,0.005c-0.098,0.002-0.263,0.108-0.241,0.2c0.019,0.08,0.073,0.117,0.157,0.103c0.038-0.006,0.118-0.106,0.157-0.108
						C30.858,30.277,30.972,30.391,31.013,30.361L31.013,30.361z"/>
				</g>
				<path id="anchor" style="fill:#F1B517;stroke:#000000;stroke-width:0.0345;" d="M21.597,33.002
					c-0.116,0.015-0.138,0.149-0.094,0.272c-0.507,0.143-0.96,0.328-1.407,0.454c-0.018-0.089,0.222-0.348,0.222-0.348
					c0.063,0.031,0.111,0.176,0.111,0.176c0.016-0.298,0.309-0.496,0.309-0.496c-0.174-0.023-0.704,0.183-0.768,0.267
					c0,0,0.205-0.023,0.237,0c0,0-0.404,0.436-0.422,0.566c0.063,0.142,0.76,0.248,0.76,0.248c-0.011,0.037-0.205,0.176-0.205,0.176
					c0.277,0.061,0.695-0.136,0.82-0.255c0,0-0.326-0.027-0.58-0.233c0,0,0.052,0.128,0.021,0.189c0,0-0.396-0.114-0.438-0.18
					c0.001-0.006,0.937-0.248,1.391-0.378c0.017,0.081,0.107,0.234,0.215,0.198c0.071-0.024,0.048-0.163,0.022-0.262
					c0.026,0.022,0.059,0.035,0.095,0.035c0.08,0,0.145-0.062,0.145-0.139c0-0.077-0.065-0.14-0.145-0.14
					c-0.064,0-0.117,0.04-0.136,0.095C21.732,33.161,21.684,32.991,21.597,33.002L21.597,33.002z M21.954,33.291
					c0,0.036-0.03,0.065-0.068,0.065s-0.068-0.029-0.068-0.065c0-0.036,0.03-0.065,0.068-0.065S21.954,33.255,21.954,33.291z"/>
				<g id="i4">
					<path style="fill:#F1B517;stroke:#000000;stroke-width:0.0345;" d="M36.475,33.574c0.035-0.069-0.031-0.417-0.031-0.417
						c-0.07,0.008-0.167,0.129-0.167,0.129c0.091-0.285-0.163-0.762-0.163-0.762c0.172,0.036,0.745,0.59,0.774,0.69
						c0,0-0.251-0.089-0.289-0.078c0.041,0.284,0.237,0.416,0.311,0.564c0,0-0.326,0.072-0.293,0.344l-0.213,0.004
						c-0.074-0.091,0.029-0.241,0.029-0.241l-1.461-0.612c-0.094-0.039-0.306-0.136-0.274-0.249c0.032-0.114,0.38,0.047,0.466,0.075
						L36.475,33.574L36.475,33.574z"/>
					<path style="fill:#F1B517;stroke:#000000;stroke-width:0.0345;" d="M35.072,33.32l0.172-0.316
						c0.061-0.083-0.065-0.174-0.155-0.067l-0.192,0.288C34.81,33.384,34.99,33.427,35.072,33.32L35.072,33.32z"/>
				</g>
			</g>
			<g id="motto">
				<g>
					<path style="fill:#FFFFFF;stroke:#000000;stroke-width:0.0345;" d="M24.829,34.042l-0.012-0.344l-0.417,0.023l-0.024,0.375
						L24.829,34.042L24.829,34.042z"/>
					<path style="fill:#FFFFFF;stroke:#000000;stroke-width:0.0345;" d="M21.785,34.525l-0.557-0.312
						c2.297,0.21,2.766-0.591,3.321-0.633c0.341-0.027,0.394,0.378-0.267,0.185l0.171,0.423c0,0-1.63,0.917-3.233,0.538
						L21.785,34.525L21.785,34.525z"/>
					<path style="fill:#FFFFFF;stroke:#000000;stroke-width:0.0345;" d="M31.79,34.042l0.012-0.344l0.509,0.012l0.024,0.375
						L31.79,34.042L31.79,34.042z"/>
					<path style="fill:#FFFFFF;stroke:#000000;stroke-width:0.0345;" d="M34.941,34.441l0.524-0.286
						c-2.631,0.078-2.032-0.432-3.348-0.575c-0.34-0.037-0.596,0.4,0.267,0.185l-0.171,0.423l0.414,0
						c0.896,0.59,2.106,0.643,2.907,0.453L34.941,34.441L34.941,34.441z"/>
					<path style="fill:#FFFFFF;stroke:#000000;stroke-width:0.0345;" d="M24.273,33.767v0.595c0,0,1.459,0.541,4.061,0.541
						c2.614,0,4.061-0.541,4.061-0.541v-0.595c0,0-1.104,0.509-4.061,0.509C25.388,34.276,24.273,33.767,24.273,33.767z"/>
				</g>
				<path d="M24.491,34.366l0.129-0.436l0.06,0.016l-0.114,0.384l0.222,0.061l-0.015,0.051L24.491,34.366L24.491,34.366z
					 M24.913,34.174l0.007-0.086l0.019-0.073l0.064,0.015l-0.019,0.073l-0.036,0.079L24.913,34.174L24.913,34.174z M25.54,34.145
					l0.061,0.012l-0.054,0.257c-0.009,0.045-0.022,0.079-0.038,0.103s-0.039,0.042-0.07,0.053c-0.031,0.011-0.068,0.012-0.113,0.004
					c-0.043-0.008-0.077-0.023-0.101-0.042c-0.024-0.02-0.04-0.044-0.046-0.074c-0.006-0.029-0.004-0.068,0.006-0.115l0.054-0.257
					l0.061,0.012l-0.054,0.256c-0.008,0.039-0.01,0.068-0.007,0.087s0.013,0.036,0.029,0.05c0.016,0.013,0.037,0.023,0.063,0.028
					c0.045,0.009,0.079,0.005,0.102-0.011c0.023-0.016,0.041-0.052,0.052-0.107L25.54,34.145L25.54,34.145z M25.609,34.618
					l0.076-0.447l0.063,0.01l0.184,0.39l0.06-0.351l0.059,0.009l-0.076,0.447l-0.063-0.01l-0.184-0.39l-0.06,0.351L25.609,34.618
					L25.609,34.618z M26.089,34.691l0.064-0.449l0.062,0.008l-0.064,0.449L26.089,34.691z M26.266,34.493
					c0.009-0.075,0.037-0.131,0.083-0.169c0.047-0.038,0.103-0.053,0.169-0.046c0.043,0.005,0.081,0.019,0.113,0.043
					c0.032,0.024,0.055,0.054,0.069,0.092c0.014,0.038,0.018,0.079,0.013,0.124c-0.005,0.046-0.02,0.085-0.043,0.119
					c-0.023,0.034-0.054,0.058-0.091,0.073c-0.037,0.015-0.076,0.02-0.117,0.015c-0.044-0.005-0.082-0.019-0.114-0.044
					c-0.032-0.024-0.055-0.055-0.069-0.093C26.265,34.571,26.261,34.532,26.266,34.493L26.266,34.493z M26.329,34.501
					c-0.006,0.054,0.004,0.099,0.03,0.133c0.027,0.035,0.063,0.054,0.108,0.059c0.046,0.005,0.087-0.006,0.12-0.035
					c0.034-0.028,0.054-0.071,0.061-0.129c0.004-0.037,0.002-0.069-0.008-0.098c-0.01-0.029-0.026-0.052-0.049-0.07
					c-0.023-0.018-0.05-0.028-0.081-0.032c-0.044-0.005-0.083,0.006-0.118,0.031C26.359,34.386,26.337,34.433,26.329,34.501
					L26.329,34.501z M26.765,34.768l0.038-0.452l0.064,0.005l0.216,0.374l0.03-0.355l0.059,0.005l-0.038,0.452l-0.064-0.005
					l-0.216-0.374l-0.03,0.355L26.765,34.768L26.765,34.768z M27.423,34.814l0.021-0.453l0.317,0.013l-0.002,0.053l-0.255-0.011
					l-0.006,0.14l0.22,0.009l-0.002,0.053l-0.22-0.009l-0.009,0.206L27.423,34.814L27.423,34.814z M27.769,34.829l0.189-0.45
					l0.067,0.001l0.183,0.457l-0.071-0.001l-0.052-0.138l-0.196-0.004l-0.054,0.136L27.769,34.829L27.769,34.829z M27.909,34.645
					l0.159,0.003l-0.047-0.126c-0.014-0.038-0.025-0.07-0.031-0.095c-0.007,0.029-0.016,0.058-0.027,0.086L27.909,34.645
					L27.909,34.645z M28.27,34.836l0.001-0.453l0.062,0l-0.001,0.453L28.27,34.836L28.27,34.836z M28.561,34.835l-0.006-0.4
					L28.4,34.437L28.4,34.384l0.372-0.005l0.001,0.053l-0.155,0.002l0.006,0.4L28.561,34.835L28.561,34.835z M29.022,34.824
					L29,34.371l0.062-0.003l0.019,0.399l0.231-0.01l0.003,0.053L29.022,34.824L29.022,34.824z M29.338,34.81l0.147-0.464
					l0.067-0.005l0.225,0.439l-0.071,0.005l-0.065-0.133l-0.196,0.013l-0.041,0.14L29.338,34.81L29.338,34.81z M29.459,34.615
					l0.159-0.011l-0.058-0.122c-0.018-0.037-0.031-0.067-0.04-0.091c-0.004,0.029-0.01,0.059-0.019,0.088L29.459,34.615
					L29.459,34.615z M30.011,34.758l-0.052-0.45l0.315-0.034l0.006,0.053l-0.253,0.027l0.016,0.14l0.219-0.023l0.006,0.053
					l-0.219,0.023l0.023,0.205L30.011,34.758L30.011,34.758z M30.355,34.499c-0.011-0.074,0.001-0.136,0.036-0.183
					c0.035-0.048,0.086-0.076,0.151-0.085c0.043-0.006,0.083-0.001,0.12,0.014c0.037,0.015,0.068,0.039,0.091,0.072
					c0.023,0.033,0.038,0.072,0.045,0.117c0.007,0.045,0.003,0.088-0.01,0.126c-0.014,0.039-0.037,0.069-0.069,0.093
					c-0.032,0.023-0.068,0.038-0.109,0.043c-0.044,0.006-0.084,0.001-0.122-0.014c-0.037-0.016-0.068-0.04-0.091-0.073
					C30.376,34.575,30.361,34.539,30.355,34.499L30.355,34.499z M30.419,34.492c0.008,0.054,0.029,0.095,0.064,0.122
					c0.035,0.027,0.075,0.037,0.12,0.031c0.046-0.006,0.082-0.027,0.107-0.063c0.025-0.036,0.034-0.082,0.025-0.14
					c-0.005-0.037-0.017-0.068-0.033-0.093c-0.017-0.025-0.039-0.044-0.066-0.056c-0.027-0.012-0.056-0.015-0.086-0.011
					c-0.044,0.006-0.079,0.026-0.106,0.059C30.418,34.374,30.409,34.424,30.419,34.492L30.419,34.492z M30.912,34.644l-0.084-0.446
					l0.205-0.036c0.041-0.007,0.073-0.009,0.096-0.004c0.023,0.004,0.043,0.015,0.059,0.033c0.017,0.018,0.027,0.039,0.032,0.064
					c0.006,0.032,0,0.06-0.017,0.086c-0.017,0.025-0.047,0.045-0.091,0.059c0.018,0.005,0.031,0.01,0.041,0.016
					c0.021,0.013,0.041,0.029,0.062,0.05l0.103,0.107l-0.077,0.013l-0.079-0.082c-0.023-0.024-0.041-0.042-0.056-0.054
					c-0.014-0.012-0.026-0.02-0.037-0.024s-0.02-0.006-0.03-0.007c-0.007,0-0.019,0.001-0.034,0.004l-0.071,0.012l0.037,0.198
					L30.912,34.644L30.912,34.644z M30.927,34.384l0.131-0.023c0.028-0.005,0.049-0.012,0.064-0.02
					c0.015-0.008,0.025-0.019,0.031-0.033c0.006-0.014,0.007-0.028,0.005-0.042c-0.004-0.021-0.015-0.037-0.034-0.048
					c-0.018-0.011-0.045-0.013-0.079-0.007l-0.146,0.026L30.927,34.384L30.927,34.384z M31.669,34.335l0.064,0.002
					c-0.002,0.051-0.016,0.092-0.043,0.125c-0.027,0.032-0.065,0.054-0.112,0.064c-0.049,0.011-0.092,0.01-0.127-0.003
					s-0.066-0.036-0.09-0.069s-0.042-0.071-0.052-0.113c-0.011-0.046-0.011-0.088-0.001-0.126c0.01-0.038,0.03-0.07,0.06-0.095
					s0.064-0.042,0.105-0.051c0.046-0.01,0.087-0.007,0.124,0.009c0.037,0.016,0.066,0.043,0.088,0.081l-0.057,0.027
					c-0.018-0.03-0.039-0.05-0.063-0.06c-0.024-0.01-0.051-0.012-0.081-0.005c-0.035,0.008-0.063,0.022-0.083,0.044
					c-0.02,0.021-0.031,0.047-0.035,0.076c-0.003,0.03-0.001,0.059,0.005,0.088c0.009,0.038,0.022,0.069,0.04,0.095
					c0.018,0.026,0.04,0.043,0.068,0.051c0.027,0.009,0.055,0.01,0.083,0.004c0.034-0.007,0.061-0.023,0.08-0.047
					C31.659,34.405,31.669,34.374,31.669,34.335L31.669,34.335z M31.841,34.458l-0.126-0.437l0.327-0.088l0.015,0.052l-0.267,0.072
					l0.039,0.134l0.25-0.067l0.015,0.051l-0.25,0.067l0.043,0.149l0.278-0.075l0.015,0.052L31.841,34.458L31.841,34.458z"/>
			</g>
		</g>
	</g>
</g>
</svg>
