<?xml version="1.0" encoding="utf-8"?>
<!-- Generator: Adobe Illustrator 18.1.1, SVG Export Plug-In . SVG Version: 6.00 Build 0)  -->
<!DOCTYPE svg PUBLIC "-//W3C//DTD SVG 1.1//EN" "http://www.w3.org/Graphics/SVG/1.1/DTD/svg11.dtd">
<svg version="1.1" id="Layer_179" xmlns="http://www.w3.org/2000/svg" xmlns:xlink="http://www.w3.org/1999/xlink" x="0px" y="0px"
	 width="56.7px" height="56.7px" viewBox="0 0 56.7 56.7" enable-background="new 0 0 56.7 56.7" xml:space="preserve">
<circle fill="#CF142B" cx="28.3" cy="28.3" r="28.3"/>
<g id="path4410">
	<path fill="#F9DD16" d="M30.2,40.6c0-0.1,0.1-0.7,0-0.7s-0.9-1-0.9-1s1.1,0.3,1.1,0.2
		c0,0,0.4-1.1,0.4-1.1c0,0,0.5,1.3,0.5,1.3l1.1,0.5l-0.8,0.6c0,0,0.2,1.2,0.2,1.3c0,0-0.8-0.7-0.8-0.7L30.4,41
		C30.4,41,30.2,40.6,30.2,40.6L30.2,40.6z"/>
	<path d="M32,41.7c0,0-0.1,0-0.8-0.7l-0.9,0.1l0-0.1c0-0.2-0.1-0.4-0.1-0.4l0,0l0,0c0-0.1,0-0.5,0-0.6c-0.3-0.2-0.9-1.1-0.9-1.1
		v-0.1l0.1,0c0,0,0,0,0.2,0c0.2,0,0.7,0.1,0.9,0.2c0-0.1,0.1-0.3,0.3-0.6c0.1-0.2,0.1-0.3,0.2-0.4v-0.1l0.1,0c0.1,0,0.1,0,0.6,1.3
		l1.2,0.5l-0.9,0.7C32.1,41.6,32.1,41.6,32,41.7L32,41.7L32,41.7C32,41.7,32,41.7,32,41.7z M31.2,40.8L31.2,40.8
		c0.2,0.2,0.4,0.4,0.6,0.6c0-0.3-0.1-0.7-0.1-1l0-0.1l0.7-0.6l-1-0.4l0,0c-0.1-0.3-0.3-0.8-0.4-1.1c0,0.1,0,0.1-0.1,0.2
		c-0.1,0.3-0.3,0.6-0.3,0.7v0.1l-0.1,0c-0.1,0-0.4-0.1-0.9-0.2c0.2,0.3,0.6,0.7,0.7,0.8h0l0,0c0,0.1,0,0.5,0,0.7
		c0,0,0.1,0.1,0.1,0.3L31.2,40.8z"/>
</g>
<g id="path4412">
	<path fill="#FFFFFF" d="M24.2,24.3
		c-0.7,0.4-3.5,3.6-3.9,4.1c-0.3,0.7-1,1.7-1.6,2.2c-0.7,0.5-1.1,1.2-1,1.9c0,0.8,0.5,1.4,0.8,2c0.2,0.3,0.5,0.4,0.8,0.5
		c0.7,0.1,0.7,0.3,1,0.4c1.3,1.8,3.2,3.1,4.6,4.1c0.9,0.5,1.5,0.9,1.7,1.2c0.4,0.8,0.3,1.5,0.3,1.9c-0.3,1.3-0.7,2.6-1,3.9
		c-0.2,1.1,0.7,0.8,0.8,0.6c0.4-0.5,1-0.2,1.9-3.3c0.4-0.5,0.8-1.1,1.2-1.6c0,0,0.5-0.2,0.5-0.2c0.7-0.9,0.2-1.3-0.2-1.5
		c-0.3-0.1-0.6-0.2-0.9-0.3c0,0-1-1-1.1-1c-0.5-1.4-2.9-4.5-3.5-4.9c-0.4-0.4-0.6-0.6-0.9-0.8c-0.6-0.3-0.7-0.4-1.1-0.5
		c-0.3-0.1-0.1-0.4,0.1-0.6c1.9-1,3.4-2.2,5.3-3.4c0.1-0.1,0.2-0.1,0.3-0.2c-0.2-1.3-0.4-2.5-0.7-3.8c-1-0.4-2-0.7-3.1-1.1
		C24.5,24.1,24.4,24.2,24.2,24.3L24.2,24.3z"/>
	<path d="M26.4,47.6c-0.2,0-0.3-0.1-0.4-0.2c-0.1-0.2-0.2-0.4-0.1-0.8l1-3.9c0.1-0.7,0-1.3-0.3-1.8c-0.2-0.2-0.8-0.7-1.7-1.1
		c-0.2-0.1-0.4-0.3-0.5-0.4c-1.3-1-3-2.2-4.1-3.7c-0.1,0-0.2-0.1-0.3-0.1c-0.2-0.1-0.3-0.2-0.7-0.2c-0.3,0-0.7-0.2-0.9-0.5
		c-0.1-0.1-0.1-0.2-0.2-0.3c-0.3-0.5-0.7-1.1-0.7-1.8c-0.1-0.7,0.3-1.5,1-2c0.6-0.5,1.2-1.4,1.6-2.2c0.3-0.5,3.2-3.8,4-4.2
		c0,0,0.1-0.1,0.1-0.1c0.1-0.1,0.2-0.2,0.3-0.2l0.1,0l3.2,1.1l0.7,3.9l-0.4,0.2c-0.6,0.4-1.2,0.8-1.8,1.2c-1.1,0.8-2.2,1.5-3.5,2.2
		c-0.1,0.1-0.2,0.2-0.2,0.3c0,0,0,0,0.1,0c0.3,0.1,0.5,0.2,1.1,0.5l0,0c0.4,0.2,0.6,0.4,1,0.8c0.6,0.4,2.9,3.4,3.5,4.9
		c0.1,0.1,0.4,0.3,1,1l0.9,0.3c0.1,0,0.5,0.2,0.7,0.7c0.1,0.3,0,0.7-0.3,1c0,0.1-0.1,0.1-0.5,0.3L28.9,44c-0.7,2.4-1.2,2.8-1.6,3.1
		c-0.1,0.1-0.2,0.1-0.3,0.2C26.9,47.5,26.6,47.6,26.4,47.6z M24.7,24.2c-0.1,0.1-0.1,0.1-0.2,0.2c0,0-0.1,0.1-0.1,0.1
		c-0.7,0.4-3.5,3.6-3.9,4.1c-0.3,0.8-1,1.7-1.6,2.3c-0.7,0.5-1,1.2-0.9,1.8c0,0.7,0.3,1.2,0.7,1.7c0.1,0.1,0.1,0.2,0.2,0.3
		c0.2,0.2,0.5,0.4,0.7,0.4c0.5,0.1,0.7,0.2,0.8,0.3c0.1,0.1,0.1,0.1,0.2,0.1l0,0l0,0c1.1,1.5,2.8,2.7,4.1,3.7
		c0.2,0.1,0.3,0.3,0.5,0.4c0.9,0.5,1.5,1,1.7,1.2c0.3,0.6,0.4,1.3,0.3,2l-1,3.9c0,0.2,0,0.4,0.1,0.5c0.1,0.1,0.1,0.1,0.2,0.1
		c0.1,0,0.2-0.1,0.2-0.1l0,0c0.1-0.1,0.2-0.2,0.4-0.3c0.4-0.3,0.9-0.6,1.5-2.9l0,0l1.2-1.7l0,0c0.2-0.1,0.3-0.1,0.4-0.2l0,0
		c0.3-0.3,0.4-0.6,0.3-0.8c-0.1-0.3-0.4-0.4-0.5-0.5l-0.9-0.4c-0.4-0.4-0.9-0.9-1-1h-0.1l0-0.1c-0.5-1.4-2.9-4.4-3.4-4.8
		c-0.4-0.4-0.6-0.6-0.9-0.8c-0.6-0.3-0.7-0.4-1.1-0.5c-0.2-0.1-0.2-0.2-0.2-0.3c0-0.2,0.2-0.5,0.3-0.6c1.3-0.7,2.3-1.4,3.5-2.2
		c0.6-0.4,1.2-0.8,1.8-1.2l0.2-0.1l-0.6-3.6L24.7,24.2z"/>
</g>
<g id="path4414">
	<path fill="#F9DD16" d="M26.8,44.1c0,0,1.9-0.4,1.9-0.4s-0.2,0.7-0.2,0.7L26.6,45L26.8,44.1z"/>
</g>
<g id="path4416">
	<path d="M21.9,37l-0.2-0.1c0.4-1,1.4-1.8,2.1-2l0.1,0.2C23.3,35.3,22.3,36,21.9,37z"/>
</g>
<g id="path4418">
	<path d="M26.4,45.4l-0.2-0.1c0,0,0.2-0.2,0.3-0.2c0.1,0,0.1,0,0.2-0.1c0.2-0.1,0.4-0.1,0.5-0.2c0.2,0,0.3-0.1,0.4-0.1
		c0.1,0,0.1,0,0.2,0c0.1,0,0.2,0,0.3-0.1c0.1-0.1,0.3-0.1,0.4-0.1l0,0.2c-0.1,0-0.3,0.1-0.4,0.1c-0.1,0-0.2,0-0.3,0.1
		c-0.1,0-0.1,0-0.2,0c-0.1,0-0.3,0.1-0.4,0.1c-0.1,0-0.3,0.1-0.4,0.1c-0.1,0-0.2,0.1-0.2,0.1C26.6,45.3,26.5,45.4,26.4,45.4z
		 M26.7,44.2l-0.1-0.2l0,0c0.3-0.1,0.7-0.2,0.8-0.2c0.2,0,0.3-0.1,0.5-0.1c0.1,0,0.2,0,0.2-0.1c0.1,0,0.2,0,0.3-0.1
		c0.1-0.1,0.3-0.1,0.5-0.1l0,0.2c-0.1,0-0.3,0.1-0.5,0.1c-0.1,0-0.2,0-0.3,0.1c-0.1,0-0.1,0-0.2,0c-0.1,0-0.3,0.1-0.5,0.1
		C27.4,44.1,26.9,44.2,26.7,44.2L26.7,44.2z"/>
</g>
<g id="path4420">
	<path d="M25.9,37.9C25.9,37.9,25.9,37.9,25.9,37.9c-0.1,0-0.1,0-0.1,0l0-0.2c0,0,0.1,0,0.1,0c0,0,0,0,0,0c0.1,0,0.3,0,0.4,0
		c0.2,0,0.5-0.2,0.6-0.3l0,0c0.1-0.1,0.1-0.1,0.1-0.1c0,0,0,0,0,0.1l0,0v-0.1c0,0,0,0,0,0l0,0c0,0,0.1,0,0.1,0.1c0,0.1,0,0.1,0,0.1
		c0,0,0,0-0.1,0.1c-0.1,0.2-0.4,0.4-0.7,0.4C26.3,37.9,26.1,37.9,25.9,37.9z"/>
</g>
<g id="path4422">
	<path d="M29.3,43.1c-0.1,0-0.1,0-0.2,0c0,0,0,0,0,0l-0.1,0c-0.1,0-0.2,0-0.3,0c-0.1,0-0.1,0-0.2,0c-0.1,0-0.2,0-0.2,0
		c-0.1,0-0.2,0-0.2,0c-0.1,0-0.1,0-0.2,0c-0.1,0-0.2,0-0.4,0c-0.1,0-0.1,0-0.2,0h-0.1v-0.2h0.1c0.1,0,0.2,0,0.2,0c0.1,0,0.3,0,0.4,0
		c0.1,0,0.1,0,0.2,0c0.1,0,0.1,0,0.2,0c0.1,0,0.2,0,0.2,0c0.1,0,0.1,0,0.2,0c0.1,0,0.2,0,0.2,0l0,0c0,0,0.1,0,0.1,0l0.2,0L29.3,43.1
		z"/>
</g>
<g id="path4424">
	<path d="M26.3,46.3l-0.2-0.1c0,0,0.2-0.2,0.2-0.2l0,0c0,0,0.1,0,0.2-0.1c0.2-0.1,0.3-0.1,0.4-0.2c0.1,0,0.3-0.1,0.4-0.1
		c0.1,0,0.1,0,0.2,0c0.1,0,0.1,0,0.2-0.1c0.1-0.1,0.3-0.1,0.4-0.1l0.1,0.2c-0.1,0-0.2,0.1-0.4,0.1c-0.1,0-0.2,0-0.3,0.1
		c-0.1,0-0.1,0-0.2,0c-0.1,0-0.3,0.1-0.4,0.1c-0.1,0-0.3,0.1-0.4,0.1c-0.1,0-0.1,0.1-0.2,0.1C26.4,46.2,26.3,46.2,26.3,46.3z"/>
</g>
<g id="path4426">
	<path d="M29.8,42.4L29.8,42.4c-0.1,0-0.1,0-0.2,0l0,0c-0.1,0-0.2-0.1-0.3-0.1c-0.3-0.1-0.5-0.2-0.6-0.4l0,0c0,0,0,0,0-0.1
		c0-0.1-0.1-0.2,0-0.4l0.2,0.1c0,0.1,0,0.2,0,0.2c0,0,0,0,0,0.1c0.1,0.1,0.2,0.2,0.5,0.3c0.1,0,0.2,0.1,0.3,0.1c0.1,0,0.1,0,0.2,0
		l0,0L29.8,42.4z"/>
</g>
<g id="path4428">
	<path d="M18,33.3C18,33.3,18,33.3,18,33.3L18,33.3c-0.1,0-0.1,0-0.1-0.1c0-0.1,0-0.1,0.1-0.1c0,0,0.1,0,0.1-0.1
		c0,0,0.1-0.1,0.1-0.1c0,0,0.1-0.1,0.1-0.1l0.1,0.1c0,0.1-0.1,0.1-0.1,0.1c0,0-0.1,0.1-0.1,0.1C18.1,33.3,18,33.3,18,33.3
		c0,0,0.1-0.1,0.1-0.1l0,0L18,33.3C18,33.3,18,33.3,18,33.3z"/>
</g>
<g id="path4430">
	<path d="M19.7,35.3L19.7,35.3l0-0.2c0.1-0.1,1.6-0.8,1.7-0.9c0.1,0,0.1-0.1,0.1-0.1c0.1-0.1,0.1-0.1,0.2-0.2c0.1,0,0.1-0.1,0.1-0.1
		c0,0,0.1,0,0.1-0.1c0,0,0.1-0.1,0.1-0.1c0,0,0.1-0.1,0.1-0.1l0,0c0,0,0,0,0-0.1c0,0,0-0.1,0.1-0.2l0-0.1c0-0.1,0.1-0.2,0.1-0.3
		l0.2,0c0,0.1-0.1,0.2-0.1,0.3l-0.1,0.1c0,0,0,0.1,0,0.1c0,0.1,0,0.1-0.1,0.2c0,0.1-0.1,0.1-0.1,0.1c0,0-0.1,0.1-0.1,0.1l0,0
		c0,0-0.1,0-0.1,0.1c0,0-0.1,0.1-0.2,0.1c-0.1,0-0.1,0.1-0.2,0.2c0,0-0.1,0.1-0.1,0.1C21.4,34.4,19.8,35.3,19.7,35.3z"/>
</g>
<g id="path4432">
	<path d="M24.1,35.3L24,35.1c0.2-0.1,0.4-0.6,0.4-0.7c0-0.1,0-0.1,0-0.2c0,0,0-0.1,0-0.1l0.2,0c0,0,0,0.1,0,0.2c0,0.1,0,0.1,0,0.2
		C24.6,34.6,24.4,35.1,24.1,35.3z"/>
</g>
<g id="path4434">
	<path d="M27.5,41.9c-0.1,0-0.1,0-0.2,0c0,0-0.1,0-0.1,0h-0.1v-0.2h0.1c0,0,0.1,0,0.1,0c0.2,0,0.5,0,1-0.1c0,0,0,0,0.1,0
		c0.1,0,0.2-0.1,0.3-0.2l0,0c0.1,0,0.1-0.1,0.2-0.2c0,0,0.1-0.1,0.1-0.1C29,41.1,29,41,29,41c0-0.2-0.2-0.4-0.3-0.5
		c-0.1,0-1.5-0.9-1.6-1l0,0c0,0-0.1,0-0.1-0.1c-0.1,0-0.1-0.1-0.2-0.1c-0.1,0-0.1-0.1-0.2-0.2c0,0-0.1-0.1-0.1-0.1l0,0
		c0,0,0-0.1-0.1-0.1c0-0.1-0.1-0.1-0.1-0.2c0,0,0-0.1-0.1-0.1c0-0.1-0.1-0.1-0.1-0.2l0,0c0-0.1-0.1-0.2-0.1-0.3c0-0.1-0.8-1.8-1.1-2
		l0,0c-0.1-0.1-0.1-0.2-0.2-0.3l-0.1-0.1c-0.1-0.1-0.1-0.1-0.2-0.2c0-0.1-0.1-0.1-0.2-0.1c-0.1,0-0.1-0.1-0.2-0.1
		c-0.1-0.1-1.1-0.7-1.6-0.9l-0.4-0.1c-0.1,0-0.2-0.1-0.2-0.1l0-0.2c0,0,0,0,0.2,0.1l0.4,0.1c0.5,0.2,1.5,0.8,1.6,0.9
		c0,0,0.1,0.1,0.1,0.1c0.1,0.1,0.2,0.1,0.2,0.2c0.1,0.1,0.1,0.1,0.2,0.2l0.1,0.1c0.1,0.1,0.2,0.2,0.2,0.3c0.3,0.3,1.1,2,1.2,2.1
		c0,0.1,0.1,0.2,0.1,0.3c0,0.1,0.1,0.1,0.1,0.2c0,0,0,0.1,0.1,0.1c0,0.1,0.1,0.2,0.1,0.2c0,0,0,0,0.1,0.1c0,0,0.1,0.1,0.1,0.1
		c0.1,0.1,0.1,0.1,0.2,0.1c0.1,0.1,0.1,0.1,0.2,0.1c0,0,0.1,0.1,0.1,0.1c0.2,0.1,1.6,1,1.6,1c0,0,0.4,0.3,0.4,0.6
		c0,0.1,0,0.2-0.1,0.3c-0.1,0-0.1,0.1-0.1,0.1c-0.1,0.1-0.1,0.1-0.2,0.2c-0.1,0.1-0.2,0.1-0.3,0.2l-0.1,0
		C27.9,41.9,27.6,41.9,27.5,41.9z"/>
</g>
<g id="path4436">
	<path d="M21.1,32c0,0-0.1,0-0.1,0c-0.2,0-0.4-0.1-0.5-0.1c-0.2-0.1-0.3-0.1-0.5-0.2c-0.1-0.1-0.2-0.1-0.3-0.2l-0.1,0
		c-0.1-0.1-0.3-0.2-0.5-0.2c0,0-0.1,0-0.1,0c0,0-0.1,0-0.1,0c-0.1,0-0.1,0-0.2-0.1c-0.1,0-0.1,0-0.1,0c0,0-0.1,0-0.2,0l0.1-0.2
		c0.1,0,0.1,0,0.1,0c0,0,0.1,0,0.2,0.1c0.1,0,0.1,0,0.1,0c0,0,0.1,0,0.1,0c0,0,0,0,0.1,0c0.2,0,0.4,0.1,0.6,0.3l0.1,0
		c0.1,0.1,0.2,0.1,0.3,0.2c0.1,0.1,0.2,0.1,0.4,0.2c0.1,0.1,0.3,0.1,0.5,0.1c0.1,0,0.2,0,0.2,0c0,0,0.1,0,0.1,0h0.4V32h-0.4
		C21.2,32,21.2,32,21.1,32z"/>
</g>
<g id="path4438">
	<path fill="#F9DD16" d="M18.5,32.6c0.4,0,1.1,0.1,1.1,0.1
		l0.9,0c0.5,0,0.6-0.2,0.7-0.4c0.2-0.3,0.3-0.4,0.4-0.6c0.2-0.2,0.5,0.2,0.5,0.2c0.8,0.7,0.2,1.6,0.1,1.6c-0.4,0.4-0.5,0.4-0.7,0.2
		c-0.2-0.3-0.3-0.4-0.5-0.5c-0.4-0.2-1.1,0-1.1,0c0,0-0.4,0.2-0.4,0.2c-0.2,0.1-0.3,0.2-0.6,0.3c-0.3,0-0.4,0-0.6-0.3
		C18.1,33.1,18.2,32.7,18.5,32.6L18.5,32.6z"/>
	<path d="M21.8,34c-0.1,0-0.2-0.1-0.3-0.2c-0.1-0.1-0.1-0.1-0.1-0.2c-0.1-0.2-0.2-0.2-0.3-0.3c-0.2-0.1-0.6-0.1-1.1,0l0,0
		c0,0-0.2,0.1-0.4,0.1c-0.1,0-0.1,0.1-0.2,0.1c-0.1,0.1-0.2,0.2-0.5,0.2c-0.1,0-0.1,0-0.2,0c-0.3,0-0.4-0.1-0.5-0.3
		c-0.1-0.2-0.2-0.5-0.1-0.7c0.1-0.1,0.2-0.2,0.4-0.3c0,0,0.1,0,0.1,0c0.2,0,0.6,0,1,0.1l0,0l0.9,0c0.4,0,0.5-0.2,0.6-0.3
		c0.1-0.2,0.2-0.3,0.3-0.4c0.1-0.1,0.1-0.1,0.2-0.2l0,0c0.1,0,0.1-0.1,0.2-0.1c0.2,0,0.3,0.1,0.5,0.3l0,0c0.3,0.3,0.4,0.6,0.4,1
		c0,0.4-0.3,0.7-0.3,0.8C22.1,33.9,21.9,34,21.8,34z M20.5,33.1c0.3,0,0.5,0,0.6,0.1c0.2,0.1,0.3,0.2,0.4,0.4c0,0,0.1,0.1,0.1,0.2
		c0.1,0.1,0.1,0.1,0.2,0.1c0.1,0,0.2-0.1,0.4-0.3c0,0,0.6-0.8-0.1-1.5c0,0,0,0,0,0c-0.1-0.1-0.3-0.3-0.4-0.2
		c-0.1,0.1-0.1,0.2-0.2,0.2c-0.1,0.1-0.2,0.2-0.2,0.3c-0.1,0.1-0.2,0.3-0.7,0.4l-0.9,0c0,0,0,0-0.1,0c-0.5-0.1-0.8-0.1-1-0.1
		c-0.1,0-0.2,0.1-0.2,0.2c-0.1,0.1,0,0.3,0.1,0.5c0.2,0.3,0.2,0.2,0.5,0.2c0.2,0,0.3-0.1,0.4-0.2c0.1,0,0.1-0.1,0.2-0.1
		c0.4-0.2,0.4-0.2,0.4-0.2C20.1,33.1,20.3,33.1,20.5,33.1z"/>
</g>
<g id="path4440">
	<path fill="#F9DD16" d="M39.9,16.1c-0.1,0-0.6,0.3-0.6,0.3c0,0-0.5,1.3-0.5,1.3
		c0,0-0.3-1.1-0.4-1.1c0,0-1.2,0.2-1.2,0.2c0,0,0.9-1.1,0.9-1.1L38,14.4l0.9,0.4c0,0,1-0.8,1-0.8c0,0-0.3,1-0.3,1l0.5,0.7
		C40.2,15.7,39.9,16,39.9,16.1L39.9,16.1z"/>
	<path d="M38.8,17.7L38.8,17.7L38.8,17.7c-0.1-0.1-0.1-0.1-0.2-0.3c-0.1-0.2-0.2-0.7-0.3-0.8c-0.1,0-0.3,0-0.7,0.1
		c-0.2,0-0.4,0-0.4,0.1l-0.1,0l0-0.1c0-0.1,0-0.1,0.9-1.2l-0.1-1.3l1,0.4c1-0.7,1-0.7,1-0.7l0.1,0l0,0.1c0,0,0,0.1-0.2,1.1l0.5,0.7
		l-0.1,0.1c-0.1,0.1-0.3,0.3-0.3,0.3l0,0.1l-0.1,0c-0.1,0-0.5,0.2-0.5,0.3C39.3,16.8,38.9,17.7,38.8,17.7L38.8,17.7L38.8,17.7z
		 M38.4,16.5L38.4,16.5c0.1,0,0.1,0,0.4,0.9c0.1-0.3,0.3-0.9,0.4-1l0,0l0,0c0-0.1,0.5-0.3,0.6-0.3c0,0,0.1-0.1,0.2-0.3l-0.5-0.7l0,0
		c0.1-0.2,0.1-0.6,0.2-0.8c-0.2,0.2-0.5,0.4-0.8,0.6l0,0l-0.8-0.3l0.1,1.1l0,0c-0.2,0.3-0.5,0.7-0.7,0.9c0.1,0,0.1,0,0.2,0
		C37.9,16.5,38.4,16.5,38.4,16.5L38.4,16.5z"/>
</g>
<g id="path4442">
	<path fill="#FFFFFF" d="M28.7,29.2
		c0.7,0.5,4.9,1.3,5.5,1.4c0.8-0.1,1.9,0,2.7,0.3c0.8,0.3,1.6,0.3,2.2-0.1c0.7-0.4,1-1.1,1.3-1.7c0.1-0.3,0.1-0.7,0-1
		c-0.2-0.6-0.1-0.8-0.2-1.1c0.9-2,1.1-4.3,1.3-6c0-1,0.1-1.8,0.2-2.1c0.5-0.7,1.2-1,1.5-1.2c1.3-0.3,2.6-0.7,3.9-1
		c1-0.4,0.4-1.1,0.1-1c-0.7-0.1-0.6-0.8-3.8-0.1c-0.7-0.1-1.4-0.2-2-0.3c0,0-0.4-0.3-0.4-0.3c-1.1-0.2-1.3,0.5-1.2,0.9
		c0.1,0.3,0.1,0.6,0.2,0.9c0,0-0.4,1.4-0.4,1.4c-1,1.1-2.5,4.8-2.6,5.4c0,0.7-0.3,0.5-0.2,1.2c0,0.5-0.1,0.2,0.1,1.2
		c0,0.3-0.3,0.3-0.6,0.2c-1.8-1.2-3.6-1.9-5.5-2.9c-0.1-0.1-0.2-0.1-0.3-0.2c-1,0.8-2,1.6-3,2.4c0.2,1.1,0.4,2.1,0.6,3.2
		C28.3,29.1,28.5,29.2,28.7,29.2L28.7,29.2z"/>
	<path d="M38,31.4c-0.4,0-0.8-0.1-1.2-0.3c-0.6-0.2-1.4-0.3-2.1-0.3c-0.2,0-0.4,0-0.5,0c-0.6-0.1-4.8-1-5.6-1.4c0,0-0.1,0-0.1-0.1
		c-0.1,0-0.2-0.1-0.3-0.1l-0.1,0l-0.6-3.3l3.1-2.5l0.4,0.2c0.7,0.3,1.3,0.7,1.9,1c1.2,0.6,2.4,1.2,3.6,2c0.1,0,0.3,0,0.3,0
		c0,0,0,0,0-0.1c-0.1-0.8-0.1-0.8-0.1-1c0-0.1,0-0.1,0-0.2c0-0.4,0-0.5,0.1-0.7c0.1-0.1,0.1-0.2,0.1-0.5c0.1-0.7,1.6-4.3,2.6-5.5
		c0-0.2,0.1-0.5,0.4-1.4l-0.1-0.9c0-0.3,0-0.6,0.2-0.8c0.2-0.3,0.6-0.4,1.1-0.3c0,0,0.1,0,0.5,0.3l2,0.3c1-0.2,1.7-0.3,2.3-0.3
		c0.7,0,1,0.2,1.2,0.3c0.1,0.1,0.2,0.1,0.4,0.1l0,0c0.2,0,0.5,0.2,0.5,0.5c0,0.2,0,0.5-0.6,0.8l-3.9,1c-0.6,0.2-1.1,0.6-1.4,1.1
		c-0.1,0.3-0.2,1-0.2,2c0,0.2-0.1,0.4-0.1,0.7c-0.2,1.6-0.4,3.6-1.2,5.4c0,0.1,0,0.2,0,0.3c0,0.2,0,0.4,0.1,0.7
		c0.1,0.3,0.2,0.7,0,1.1c-0.1,0.1-0.1,0.2-0.1,0.3c-0.3,0.6-0.6,1.1-1.3,1.5C38.9,31.2,38.5,31.4,38,31.4z M34.7,30.5
		c0.8,0,1.6,0.1,2.2,0.3c0.8,0.3,1.5,0.3,2-0.1c0.6-0.3,0.9-0.9,1.2-1.4c0-0.1,0.1-0.2,0.1-0.3c0.1-0.3,0.1-0.6,0-0.8
		c-0.2-0.4-0.2-0.7-0.2-0.9c0-0.1,0-0.2,0-0.3l0,0l0,0c0.8-1.7,1-3.7,1.2-5.4c0-0.2,0.1-0.4,0.1-0.6c0-1,0.1-1.8,0.2-2.1
		c0.4-0.6,0.9-1,1.6-1.3l3.9-1c0.2-0.1,0.5-0.2,0.4-0.4c0-0.2-0.2-0.3-0.2-0.3l0,0l0,0c-0.2,0-0.3-0.1-0.5-0.2
		c-0.2-0.1-0.5-0.2-1.1-0.2c-0.5,0-1.3,0.1-2.2,0.3l0,0l-2.1-0.3l0,0c-0.1-0.1-0.3-0.2-0.4-0.3l0,0c-0.4-0.1-0.7,0-0.9,0.2
		C40,15.7,40,16,40,16.1l0.2,1l0,0c-0.2,0.6-0.3,1.2-0.4,1.4l0,0.1l-0.1,0.1c-1,1.1-2.5,4.7-2.6,5.4c0,0.3-0.1,0.5-0.2,0.6
		c-0.1,0.1-0.1,0.2-0.1,0.5c0,0.1,0,0.2,0,0.3c0,0.2,0,0.2,0.1,0.9c0,0.2,0,0.2-0.1,0.3c-0.1,0.1-0.4,0.2-0.7,0.1
		c-1.2-0.8-2.4-1.4-3.6-2c-0.6-0.3-1.3-0.6-1.9-1l-0.2-0.1l-2.8,2.3l0.5,3c0.1,0,0.2,0.1,0.2,0.1c0.1,0,0.1,0,0.2,0.1
		c0.7,0.4,4.8,1.3,5.5,1.4C34.3,30.5,34.5,30.5,34.7,30.5z"/>
</g>
<g id="path4444">
	<path fill="#F9DD16" d="M44.7,17.3c0,0-1.3-1.5-1.3-1.5
		s0.7-0.2,0.7-0.1l1.4,1.4L44.7,17.3L44.7,17.3z"/>
</g>
<g id="path4446">
	<path d="M40.5,25.3c-0.9,0-1.9-0.4-2.4-0.9l0.1-0.1c0.5,0.4,1.6,1,2.6,0.8l0,0.2C40.7,25.3,40.6,25.3,40.5,25.3z"/>
</g>
<g id="path4448">
	<path d="M44.6,17.4L44.6,17.4c-0.2-0.2-0.5-0.5-0.6-0.6c-0.1-0.1-0.2-0.3-0.4-0.4c-0.1-0.1-0.1-0.1-0.1-0.2
		c-0.1-0.1-0.1-0.1-0.2-0.2c-0.1-0.1-0.2-0.2-0.3-0.3l0.1-0.1c0.1,0.1,0.2,0.2,0.3,0.3c0.1,0.1,0.1,0.2,0.2,0.2c0,0,0.1,0.1,0.1,0.2
		c0.1,0.1,0.2,0.2,0.4,0.4c0.1,0.1,0.4,0.4,0.5,0.5l0.1,0.1L44.6,17.4z M45.9,17.2c0,0-0.2-0.1-0.3-0.1c0,0-0.1-0.1-0.2-0.1
		c-0.1-0.1-0.3-0.2-0.4-0.3c-0.1-0.1-0.2-0.2-0.3-0.3c-0.1-0.1-0.1-0.1-0.1-0.1c-0.1-0.1-0.1-0.1-0.2-0.2c-0.1-0.1-0.2-0.2-0.3-0.3
		l0.1-0.1c0.1,0.1,0.2,0.2,0.3,0.3c0.1,0.1,0.1,0.1,0.2,0.2c0,0,0.1,0.1,0.1,0.1c0.1,0.1,0.2,0.2,0.3,0.3c0.1,0.1,0.2,0.2,0.3,0.3
		c0.1,0.1,0.1,0.1,0.1,0.1c0.1,0,0.2,0.1,0.2,0.1L45.9,17.2z"/>
</g>
<g id="path4450">
	<path d="M39.5,21.4C39.5,21.3,39.5,21.3,39.5,21.4c0-0.1,0-0.1,0-0.1c-0.1-0.1-0.2-0.3-0.2-0.4c-0.1-0.2-0.4-0.4-0.5-0.4
		c0,0,0,0,0,0l0,0l0,0c-0.1,0-0.1,0-0.2,0c0,0,0,0,0.1,0l0,0l-0.1,0.1l0,0c0,0,0,0,0,0l0,0c0,0,0-0.1,0-0.1c0-0.1,0.1,0,0.1,0
		c0,0,0.1,0,0.1,0c0,0,0,0,0,0c0.2,0,0.6,0.2,0.7,0.4c0.1,0.1,0.2,0.3,0.2,0.4c0,0,0,0.1,0,0.1c0,0,0,0,0,0L39.5,21.4z"/>
</g>
<g id="path4452">
	<path d="M43.4,17.7C43.4,17.7,43.3,17.7,43.4,17.7L43.4,17.7L43.4,17.7C43.3,17.7,43.3,17.7,43.4,17.7L43.4,17.7L43.4,17.7
		C43.3,17.7,43.3,17.7,43.4,17.7L43.4,17.7L43.4,17.7c-0.1-0.1-0.1-0.1-0.1-0.2c0-0.1-0.1-0.1-0.1-0.2c0-0.1,0-0.1-0.1-0.2
		c0-0.1-0.1-0.1-0.1-0.2c0-0.1,0-0.1-0.1-0.2c0-0.1-0.1-0.1-0.1-0.2c0-0.1-0.1-0.1-0.1-0.2c0-0.1-0.1-0.1-0.1-0.2
		c0-0.1-0.1-0.1-0.1-0.2c0,0,0,0,0,0l0,0c0,0,0-0.1,0-0.1l-0.1-0.2l0.2-0.1c0,0.1,0.1,0.1,0.1,0.2c0,0,0,0,0,0l0,0.1
		c0,0.1,0.1,0.2,0.1,0.2c0,0.1,0,0.1,0.1,0.2c0,0.1,0.1,0.1,0.1,0.2c0,0.1,0.1,0.1,0.1,0.2c0,0.1,0.1,0.1,0.1,0.2
		c0,0.1,0,0.1,0.1,0.2c0,0.1,0.1,0.1,0.1,0.2c0,0.1,0.1,0.1,0.1,0.2c0,0,0,0.1,0.1,0.1l0,0l0,0.1L43.4,17.7
		C43.4,17.7,43.4,17.7,43.4,17.7z"/>
</g>
<g id="path4454">
	<path d="M46.7,16.9c0,0-0.2-0.1-0.3-0.1c0,0-0.1-0.1-0.2-0.1c-0.2-0.1-0.3-0.2-0.3-0.3c-0.1-0.1-0.2-0.2-0.3-0.3
		c-0.1-0.1-0.1-0.1-0.1-0.1c-0.1-0.1-0.1-0.1-0.2-0.2c-0.1-0.1-0.2-0.2-0.3-0.3l0.1-0.1c0.1,0.1,0.2,0.2,0.3,0.3
		c0.1,0.1,0.1,0.1,0.2,0.2c0,0,0.1,0.1,0.1,0.1c0.1,0.1,0.2,0.2,0.3,0.3c0.1,0.1,0.2,0.2,0.3,0.3c0.1,0,0.1,0.1,0.1,0.1
		c0.1,0,0.2,0.1,0.2,0.1L46.7,16.9z"/>
</g>
<g id="path4456">
	<path d="M41.4,17l0-0.2c0.1,0,0.2-0.1,0.2-0.1c0,0,0,0,0-0.1c0-0.1,0.1-0.3,0-0.6c0-0.1,0-0.2-0.1-0.3c0-0.1,0-0.1,0-0.2l0,0l0.2,0
		l0,0c0,0.1,0,0.1,0,0.1l0,0c0,0.1,0,0.2,0.1,0.3c0.1,0.3,0,0.6,0,0.7c0,0,0,0.1,0,0.1C41.7,16.9,41.6,17,41.4,17z"/>
</g>
<g id="path4458">
	<path d="M39.5,30.5C39.5,30.5,39.4,30.5,39.5,30.5c-0.1,0-0.1-0.1-0.2-0.1c0,0-0.1,0-0.2,0c-0.1,0-0.1,0-0.2,0l0-0.2
		c0.1,0,0.1,0,0.2,0.1c0,0,0.1,0,0.1,0c0.1,0,0.1,0.1,0.2,0.1c0,0-0.1,0-0.1,0l0,0l0.1-0.1C39.6,30.3,39.6,30.4,39.5,30.5
		C39.5,30.5,39.5,30.5,39.5,30.5z"/>
</g>
<g id="path4460">
	<path d="M40.3,27.9c-0.1-0.1-1.5-1-1.7-1c-0.1,0-0.1-0.1-0.2-0.1c-0.1,0-0.2-0.1-0.3-0.1c-0.1,0-0.1-0.1-0.2-0.1c0,0-0.1,0-0.1,0
		c-0.1,0-0.1,0-0.2,0c-0.1,0-0.1,0-0.2,0l0,0l0,0c0,0-0.1,0-0.1,0c0,0-0.1,0-0.2,0l-0.1,0c-0.1,0-0.2,0-0.3,0.1l-0.1-0.2
		c0.1,0,0.2,0,0.3-0.1l0.1,0l0,0c0,0,0.1,0,0.1,0c0.1,0,0.1,0,0.2,0c0.1,0,0.1,0,0.2,0c0,0,0.1,0,0.1,0l0,0c0,0,0.1,0,0.1,0.1
		c0.1,0,0.1,0.1,0.2,0.1c0.1,0,0.2,0.1,0.2,0.1c0.1,0,0.1,0,0.2,0.1c0.2,0.1,1.7,1,1.7,1.1L40.3,27.9L40.3,27.9z"/>
</g>
<g id="path4462">
	<path d="M37,24.3l-0.1-0.1c0,0,0.1,0,0.2-0.1c0.1,0,0.1-0.1,0.2-0.1c0.2-0.1,0.7-0.1,1,0l-0.1,0.2c-0.2-0.1-0.7-0.1-0.8,0
		c-0.1,0-0.1,0.1-0.2,0.1C37.1,24.3,37,24.3,37,24.3z"/>
</g>
<g id="path4464">
	<path d="M38.2,26.7c0,0,0,0-0.1-0.3L38.1,26c-0.1-0.5,0-1.7,0-1.9c0,0,0-0.1,0-0.1c0-0.1,0-0.2,0-0.3c0-0.1,0.1-0.2,0.1-0.3l0-0.1
		c0.1-0.1,0.1-0.3,0.2-0.4c0.1-0.4,1.2-1.9,1.2-2c0-0.1,0.1-0.2,0.2-0.2c0-0.1,0.1-0.1,0.1-0.2c0,0,0-0.1,0.1-0.1
		c0.1-0.1,0.1-0.1,0.1-0.2c0,0,0-0.1,0-0.1c0,0,0-0.1,0-0.1c0-0.1,0-0.2,0-0.2c0-0.1,0-0.2,0-0.2c0-0.1,0-0.1,0-0.2
		c0-0.2,0.1-1.9,0.1-1.9c0,0,0.1-0.5,0.4-0.6c0.1-0.1,0.2-0.1,0.4-0.1c0.1,0,0.1,0,0.2,0.1c0.1,0,0.2,0.1,0.3,0.1
		c0.1,0,0.2,0.1,0.3,0.2l0.1,0c0.4,0.4,0.6,0.7,0.6,0.9c0,0,0,0,0,0.1l0.1,0.1l-0.2,0.1l-0.1-0.1c0,0,0,0,0-0.1
		c-0.1-0.1-0.2-0.4-0.6-0.8l-0.1,0c-0.1-0.1-0.2-0.1-0.3-0.2l0,0c-0.1,0-0.1-0.1-0.2-0.1c-0.1,0-0.1,0-0.2-0.1c-0.1,0-0.1,0-0.2,0
		c-0.2,0.1-0.3,0.4-0.3,0.5c0,0.1-0.1,1.8-0.1,1.9l0,0l0,0c0,0,0,0.1,0,0.1c0,0.1,0,0.2,0,0.3c0,0.1,0,0.2,0,0.3c0,0.1,0,0.1,0,0.1
		l0,0c0,0,0,0.1,0,0.1c0,0.1-0.1,0.2-0.1,0.2c0,0,0,0.1-0.1,0.1c0,0.1-0.1,0.1-0.1,0.2l0,0c-0.1,0.1-0.1,0.2-0.2,0.3
		c-0.1,0.1-1.1,1.6-1.2,2l0,0c-0.1,0.1-0.1,0.2-0.2,0.4l0,0.1c0,0.1-0.1,0.2-0.1,0.3c0,0.1,0,0.2,0,0.2c0,0.1,0,0.1,0,0.2
		c0,0.1-0.1,1.3,0,1.8l0.1,0.4c0,0.1,0,0.2,0.1,0.2L38.2,26.7z"/>
</g>
<g id="path4466">
	<path d="M37,31.1L37,31.1C37,31,37,31,37,31l0,0c0,0,0-0.1,0-0.1c0-0.1,0-0.2,0-0.3c0,0,0-0.1,0-0.1c0,0,0-0.1,0-0.1
		c0-0.1,0-0.2,0-0.2c0-0.1,0-0.2,0-0.3l0-0.1c0-0.2,0-0.3,0.1-0.4c0-0.1,0-0.2,0-0.3c0-0.1,0-0.1,0-0.2c0,0,0-0.1,0-0.1
		c0-0.1,0-0.2-0.1-0.2c0,0,0-0.1-0.1-0.1c0-0.1-0.1-0.2-0.1-0.3l-0.2-0.3l0.2-0.1l0.2,0.3c0.1,0.1,0.1,0.2,0.1,0.3
		c0,0,0,0.1,0.1,0.1c0,0.1,0.1,0.2,0.1,0.3c0,0,0,0.1,0,0.1l0,0l0,0c0,0.1,0,0.1,0,0.2c0,0.1,0,0.2,0,0.3c0,0.1,0,0.3-0.1,0.4l0,0.1
		c0,0.1,0,0.2,0,0.2l0,0l0,0c0,0,0,0.1,0,0.2c0,0,0,0.1,0,0.1c0,0,0,0.1,0,0.1c0,0.1,0,0.2,0,0.3c0,0,0,0.1,0,0.1l0,0.1L37,31.1
		L37,31.1z"/>
</g>
<g id="path4468">
	<path fill="#F9DD16" d="M38.7,30.2c-0.2-0.3-0.5-1-0.5-1
		l-0.5-0.8C37.5,28,37.3,28,37.2,28c-0.3,0-0.5-0.1-0.7-0.1c-0.2-0.1-0.1-0.6-0.1-0.6c0.3-1,1.3-0.9,1.4-0.9
		c0.5,0.2,0.6,0.2,0.5,0.5c-0.1,0.3-0.2,0.5-0.2,0.7c0,0.4,0.5,1,0.5,1c0,0,0.3,0.3,0.3,0.3c0.2,0.1,0.4,0.2,0.6,0.4
		c0.2,0.3,0.2,0.4,0.1,0.7C39.3,30.3,38.9,30.4,38.7,30.2L38.7,30.2z"/>
	<path d="M39,30.4c-0.1,0-0.3-0.1-0.4-0.2c-0.1-0.2-0.3-0.6-0.5-1l0,0l-0.4-0.8c-0.2-0.3-0.4-0.3-0.5-0.3c-0.2,0-0.3,0-0.4-0.1
		c-0.1,0-0.2,0-0.3,0l0,0c-0.3-0.1-0.2-0.5-0.1-0.6l0,0c0.2-0.9,1.1-1,1.3-1c0,0,0.2,0,0.2,0c0.5,0.2,0.6,0.2,0.5,0.6
		c0,0.1-0.1,0.1-0.1,0.2c-0.1,0.2-0.1,0.3-0.1,0.4c0,0.2,0.2,0.6,0.5,1l0,0c0,0,0.2,0.1,0.3,0.2c0,0,0.1,0.1,0.2,0.1
		c0.1,0.1,0.3,0.1,0.4,0.3c0.2,0.3,0.2,0.5,0.1,0.8C39.4,30.3,39.2,30.4,39,30.4z M36.5,27.8c0.1,0,0.2,0,0.3,0c0.1,0,0.2,0,0.4,0.1
		c0.2,0,0.4,0,0.7,0.4l0.5,0.8c0,0,0,0,0,0c0.2,0.6,0.3,0.8,0.4,1c0.1,0.1,0.2,0.1,0.2,0.1c0.2,0,0.3-0.1,0.4-0.3
		c0.1-0.2,0.1-0.3-0.1-0.6c-0.1-0.1-0.2-0.2-0.3-0.3c-0.1,0-0.1-0.1-0.2-0.1c-0.3-0.3-0.3-0.3-0.3-0.3c-0.2-0.2-0.5-0.7-0.5-1.1
		c0-0.2,0-0.3,0.1-0.5c0-0.1,0-0.1,0.1-0.2c0.1-0.2,0.1-0.3-0.4-0.4c-0.1,0-1-0.1-1.3,0.8c0,0,0,0,0,0
		C36.4,27.6,36.4,27.7,36.5,27.8z"/>
</g>
<g id="path4472">
	<g opacity="0.9882">
		<path fill="#F9DD16" d="M13.3,20.7c0,0,0.6,0.4,0.6,0.3c0,0,1.3-0.3,1.3-0.3s-0.7,0.9-0.7,0.9c0,0,0.8,0.9,0.8,0.9
			c0,0-1.4-0.1-1.4-0.1L13,23.2l-0.2-1c0,0-1.2-0.4-1.2-0.4c0,0,1-0.3,1-0.3l0.3-0.8C12.9,20.6,13.3,20.7,13.3,20.7L13.3,20.7z"/>
	</g>
	<g>
		<path d="M12.9,23.3l-0.2-1.1c-1.1-0.4-1.2-0.4-1.2-0.4l-0.1,0l0-0.1c0-0.1,0-0.1,1-0.4l0.3-0.8l0.1,0c0.1,0,0.3,0.1,0.4,0.1l0.1,0
			l0,0c0,0,0.4,0.3,0.5,0.3c0.3-0.1,1.3-0.3,1.3-0.3h0.1l0.1,0.1l0,0c0,0,0,0-0.1,0.2c-0.1,0.2-0.5,0.6-0.6,0.7
			c0.1,0.1,0.2,0.2,0.5,0.5c0.1,0.2,0.3,0.3,0.3,0.3l0.1,0l0,0.1l0,0.1h-0.1c-0.1,0-1.1-0.1-1.4-0.1L12.9,23.3z M11.9,21.8
			c0.2,0.1,0.7,0.2,1,0.3l0,0L13,23l0.8-0.7l0,0c0.4,0,0.9,0.1,1.2,0.1c0,0-0.1-0.1-0.1-0.2c-0.2-0.2-0.5-0.5-0.5-0.6l0,0l0,0
			c0-0.1,0-0.1,0.6-0.8c-0.3,0.1-0.9,0.2-1,0.2l0,0l-0.1,0c-0.1,0-0.5-0.2-0.6-0.3c-0.1,0-0.3,0-0.4,0l-0.3,0.8l0,0
			C12.4,21.6,12.1,21.7,11.9,21.8z"/>
	</g>
</g>
<g id="path4474">
	<path fill="#FFFFFF" d="M30.5,22.9
		c0-0.8-1.6-4.8-1.8-5.4c-0.5-0.6-1-1.6-1.3-2.5c-0.1-0.9-0.6-1.5-1.3-1.8c-0.7-0.4-1.5-0.2-2.2-0.2c-0.3,0.1-0.6,0.3-0.8,0.5
		c-0.4,0.5-0.6,0.5-0.8,0.7c-2.2,0.3-4.2,1.5-5.8,2.2c-0.8,0.6-1.5,0.9-1.8,1c-0.9,0-1.5-0.4-1.8-0.6c-1-0.9-2-1.8-3-2.7
		C9,13.5,8.8,14.5,9,14.6c0.3,0.6-0.3,1,2,3.2c0.3,0.6,0.6,1.2,0.9,1.8c0,0,0,0.5,0,0.5c0.4,1,1.1,0.8,1.4,0.5
		c0.2-0.2,0.5-0.4,0.7-0.6c0,0,1.4-0.4,1.4-0.5c1.5,0.2,5.3-0.5,6-0.8c0.6-0.3,0.6,0,1.1-0.5c0.4-0.3,0.2-0.1,1-0.8
		c0.2-0.2,0.4,0.1,0.5,0.4c0,2.2,0.4,4,0.6,6.2c0,0.1,0,0.2,0,0.3c1.2,0.4,2.4,0.8,3.6,1.1c0.8-0.7,1.6-1.5,2.4-2.2
		C30.6,23.2,30.5,23,30.5,22.9L30.5,22.9z"/>
	<path d="M28.3,25.8l-3.8-1.2l0-0.4c-0.1-0.7-0.1-1.4-0.2-2.1c-0.2-1.4-0.3-2.7-0.3-4.1c0-0.1-0.1-0.3-0.2-0.3c0,0,0,0-0.1,0
		c-0.6,0.5-0.6,0.5-0.8,0.6c0,0-0.1,0.1-0.2,0.1c-0.3,0.2-0.4,0.3-0.6,0.3c-0.1,0-0.3,0-0.5,0.2c-0.6,0.3-3.6,0.9-5.4,0.9
		c-0.3,0-0.5,0-0.7,0c-0.1,0.1-0.5,0.2-1.4,0.5l-0.7,0.6c-0.1,0.1-0.4,0.3-0.7,0.3c-0.3,0-0.7-0.1-1-0.8c0,0-0.1-0.2,0-0.6l-0.9-1.8
		c-1.8-1.7-1.9-2.4-2-2.9c0-0.1,0-0.3-0.1-0.4c-0.1-0.1-0.1-0.3,0-0.5c0.2-0.4,0.6-0.5,1.2-0.1l3,2.7c0.2,0.1,0.8,0.6,1.7,0.6
		c0.3-0.1,1-0.4,1.8-0.9c0.2-0.1,0.4-0.2,0.6-0.3c1.5-0.7,3.3-1.6,5.2-1.9c0.1-0.1,0.2-0.1,0.2-0.2c0.2-0.1,0.3-0.2,0.5-0.5
		c0.2-0.3,0.5-0.5,0.9-0.6c0.1,0,0.2,0,0.3,0c0.2,0,0.5-0.1,0.8-0.1c0.5,0,0.8,0.1,1.2,0.3c0.7,0.2,1.2,0.9,1.3,1.9
		c0.2,0.8,0.7,1.7,1.2,2.4c0.2,0.5,1.9,4.6,1.9,5.5c0,0,0,0.1,0,0.1c0,0.1,0,0.2,0.1,0.4l0,0.1L28.3,25.8z M24.7,24.3l3.5,1.1
		l2.2-2.1c0-0.1,0-0.2,0-0.3c0-0.1,0-0.1,0-0.2c0-0.8-1.5-4.8-1.8-5.3c-0.5-0.7-1-1.7-1.3-2.5c-0.1-0.8-0.6-1.5-1.2-1.7
		c-0.3-0.2-0.7-0.3-1.1-0.3c-0.2,0-0.5,0-0.7,0.1c-0.1,0-0.2,0-0.3,0c-0.3,0.1-0.6,0.2-0.7,0.5c-0.3,0.4-0.5,0.5-0.6,0.6
		c-0.1,0-0.2,0.1-0.2,0.2l0,0l0,0c-1.9,0.3-3.7,1.2-5.2,1.9c-0.2,0.1-0.4,0.2-0.6,0.3c-0.8,0.6-1.5,0.9-1.9,1l0,0
		c-1,0-1.7-0.5-1.9-0.7l-3-2.7c-0.3-0.2-0.5-0.3-0.7-0.1c-0.1,0.1-0.1,0.2,0,0.3l0,0c0.1,0.2,0.1,0.3,0.1,0.5c0.1,0.4,0.1,1,1.9,2.7
		l0,0l0.9,1.9l0,0c0,0.2,0,0.4,0,0.4l0,0c0.2,0.4,0.4,0.7,0.7,0.7c0.2,0,0.4-0.1,0.5-0.2l0.8-0.7c0.5-0.2,1.2-0.4,1.4-0.5l0-0.1
		l0.1,0c0.2,0,0.4,0,0.7,0c1.7,0,4.7-0.6,5.2-0.8c0.3-0.2,0.4-0.2,0.6-0.2c0.1,0,0.3,0,0.5-0.2c0.1-0.1,0.2-0.1,0.2-0.1
		c0.1-0.1,0.1-0.1,0.7-0.6c0.1-0.1,0.2-0.1,0.2-0.1c0.2,0,0.4,0.3,0.5,0.5c0,1.5,0.2,2.7,0.3,4.1c0.1,0.7,0.2,1.4,0.2,2.1L24.7,24.3
		z"/>
</g>
<g id="path4476">
	<path fill="#F9DD16" d="M11.8,16c0,0-0.5,1.9-0.5,1.9
		s-0.5-0.5-0.5-0.5l0.4-1.9L11.8,16z"/>
</g>
<g id="path4478">
	<path d="M21.3,17.7l-0.2,0c0.1-0.6-0.1-1.9-0.8-2.7l0.1-0.1C21.1,15.6,21.4,16.9,21.3,17.7z"/>
</g>
<g id="path4480">
	<path d="M11.3,18.3l-0.2-0.1c0-0.1,0.1-0.3,0.1-0.5c0-0.1,0.1-0.2,0.1-0.3c0-0.1,0-0.1,0.1-0.2c0-0.1,0.1-0.3,0.1-0.5
		c0-0.1,0.1-0.6,0.2-0.8l0-0.1l0.2,0l0,0.1c0,0.2-0.1,0.6-0.2,0.8c0,0.2-0.1,0.3-0.1,0.5c0,0.1,0,0.2-0.1,0.2c0,0.1,0,0.2-0.1,0.3
		C11.4,18,11.4,18.1,11.3,18.3z M10.7,17.4l-0.2,0c0-0.1,0.1-0.3,0.1-0.4c0-0.1,0-0.2,0.1-0.3c0-0.1,0-0.1,0-0.2
		c0-0.1,0-0.3,0.1-0.5c0-0.1,0.1-0.3,0.1-0.5c0-0.1,0-0.2,0-0.2c0-0.1,0-0.2-0.1-0.2L11,15c0,0,0.1,0.2,0.1,0.3c0,0.1,0,0.1,0,0.2
		c0,0.2,0,0.4-0.1,0.5c0,0.2-0.1,0.3-0.1,0.4c0,0.1,0,0.1,0,0.2c0,0.1,0,0.2-0.1,0.3C10.7,17.1,10.7,17.3,10.7,17.4z"/>
</g>
<g id="path4482">
	<path d="M17.7,19.6C17.7,19.6,17.7,19.6,17.7,19.6c-0.1,0-0.1-0.1-0.1-0.1c0,0,0-0.1,0-0.1c-0.1-0.1-0.1-0.6,0-0.8
		c0-0.1,0.1-0.3,0.2-0.4c0,0,0-0.1,0.1-0.1c0,0,0,0,0,0l0.2,0.1c0,0,0,0.1-0.1,0.1c0,0,0,0,0,0c-0.1,0.1-0.1,0.3-0.2,0.4
		c-0.1,0.2-0.1,0.6,0,0.6l0,0c0,0.1,0,0.1,0.1,0.2c0,0,0,0-0.1,0l0,0l0.1,0.1L17.7,19.6l0.1-0.1C17.8,19.5,17.8,19.5,17.7,19.6
		L17.7,19.6L17.7,19.6C17.8,19.6,17.7,19.6,17.7,19.6z"/>
</g>
<g id="path4484">
	<path d="M11.6,18.8l-0.2-0.1c0-0.1,0.1-0.1,0.1-0.2c0,0,0,0,0,0l0.1-0.1c0-0.1,0.1-0.2,0.1-0.2c0-0.1,0.1-0.1,0.1-0.2
		c0-0.1,0.1-0.1,0.1-0.2c0-0.1,0.1-0.1,0.1-0.2c0-0.1,0.1-0.1,0.1-0.2c0-0.1,0.1-0.1,0.1-0.2c0-0.1,0.1-0.1,0.1-0.2
		c0-0.1,0.1-0.1,0.1-0.2c0,0,0-0.1,0.1-0.1h0h0c0,0,0,0,0,0h0l0,0l0,0c0,0,0,0,0.1,0l0.1,0l0.1,0.1L12.7,17c0,0.1-0.1,0.1-0.1,0.2
		c0,0.1-0.1,0.1-0.1,0.1c0,0.1-0.1,0.1-0.1,0.2c0,0.1-0.1,0.1-0.1,0.2c0,0.1-0.1,0.1-0.1,0.2c0,0.1-0.1,0.1-0.1,0.2
		c0,0.1-0.1,0.1-0.1,0.2c0,0.1-0.1,0.1-0.1,0.2c0,0,0,0,0,0l0,0c0,0,0,0.1-0.1,0.1L11.6,18.8z"/>
</g>
<g id="path4486">
	<path d="M10.1,16.7l-0.2,0c0-0.1,0-0.2,0.1-0.4c0-0.1,0-0.2,0.1-0.3c0-0.1,0-0.1,0-0.2c0-0.1,0-0.3,0.1-0.4c0-0.1,0-0.3,0.1-0.4
		c0-0.1,0-0.1,0-0.2c0-0.1,0-0.2-0.1-0.2l0.2-0.1c0,0,0.1,0.2,0.1,0.3c0,0.1,0,0.1,0,0.2c0,0.2,0,0.4-0.1,0.4c0,0.1-0.1,0.3-0.1,0.4
		c0,0.1,0,0.1,0,0.2c0,0.1,0,0.2-0.1,0.2C10.1,16.4,10.1,16.5,10.1,16.7z"/>
</g>
<g id="path4488">
	<path d="M12,19.6l-0.1-0.1l0,0c0,0,0.1-0.1,0.1-0.1l0,0c0.1-0.1,0.2-0.1,0.2-0.2c0.2-0.2,0.5-0.3,0.6-0.4c0,0,0.1,0,0.1,0
		c0.1,0,0.2,0,0.4,0.1L13.2,19c-0.1-0.1-0.1-0.1-0.2-0.1c0,0-0.1,0-0.1,0c-0.1,0-0.3,0.1-0.5,0.3c-0.1,0.1-0.1,0.2-0.2,0.2
		C12.1,19.6,12.1,19.6,12,19.6L12,19.6z"/>
</g>
<g id="path4490">
	<path d="M25.6,13.7c0-0.1,0-0.1-0.1-0.2c0,0,0-0.1,0-0.1c0-0.1,0-0.1,0-0.2c0,0,0,0,0.1,0.1l0,0l-0.1-0.1c0,0,0-0.1,0.1-0.1
		c0.1,0,0.1,0.1,0.1,0.1c0,0,0,0.1,0,0.1c0,0,0,0.1,0,0.1c0,0.1,0,0.1,0.1,0.2L25.6,13.7z"/>
</g>
<g id="path4492">
	<path d="M23.6,17.5c-0.1,0-0.1-0.1-0.2-0.2l-0.1-0.1c0,0,0-0.1-0.1-0.1c0,0-0.1-0.1-0.1-0.2c0-0.1-0.1-0.1-0.1-0.2
		c0,0,0-0.1-0.1-0.1l0,0c0,0,0-0.1,0-0.1c0-0.1,0-0.1,0-0.2c0-0.1,0-0.2,0-0.2c0-0.1,0-0.1,0-0.2c-0.1-0.2-0.1-2,0-2.1l0.2,0.1
		l-0.1,0l0.1,0c0,0.1,0,1.8,0,2c0,0.1,0,0.1,0,0.2c0,0.1,0,0.2,0,0.3c0,0.1,0,0.1,0,0.2c0,0,0,0.1,0,0.1c0,0,0,0.1,0.1,0.1
		c0,0.1,0,0.1,0.1,0.1l0,0c0,0,0,0.1,0.1,0.1c0,0,0.1,0.1,0.1,0.1l0.1,0.1c0.1,0.1,0.1,0.2,0.2,0.2L23.6,17.5z"/>
</g>
<g id="path4494">
	<path d="M21.7,18.8c0,0-0.1,0-0.1-0.1c-0.1,0-0.1-0.1-0.2-0.1c-0.2-0.1-0.5-0.5-0.5-0.8l0.2,0c0,0.2,0.3,0.6,0.4,0.7
		c0.1,0,0.1,0.1,0.2,0.1c0,0,0.1,0.1,0.1,0.1L21.7,18.8z"/>
</g>
<g id="path4496">
	<path d="M13.7,19.7c-0.1,0-0.2,0-0.3,0c-0.1-0.1-0.2-0.1-0.2-0.3c0-0.1,0-0.1-0.1-0.2c0-0.1-0.1-0.2-0.1-0.3c0-0.1,0-0.3,0-0.4
		l0-0.1c0.1-0.6,0.3-0.9,0.4-1c0,0,0,0,0-0.1l0.1-0.1l0.2,0.1l-0.1,0.1c0,0,0,0,0,0.1c-0.1,0.1-0.2,0.4-0.3,0.9l0,0.1
		c0,0.1,0,0.2,0,0.3l0,0c0,0.1,0,0.1,0.1,0.2c0,0.1,0,0.1,0.1,0.2c0,0.1,0.1,0.1,0.1,0.1c0.2,0.1,0.4,0,0.6-0.1c0.1,0,1.5-0.9,1.6-1
		l0,0c0,0,0.1,0,0.1-0.1c0.1,0,0.1-0.1,0.2-0.1c0.1,0,0.2-0.1,0.2-0.1c0,0,0.1,0,0.1-0.1l0,0c0,0,0.1,0,0.1,0c0.1,0,0.2,0,0.3,0
		c0.1,0,0.2,0,0.3,0l0,0l0,0c0.1,0,0.2,0,0.3,0c0.1,0,2,0.1,2.3-0.1l0,0c0.1,0,0.2,0,0.4-0.1l0.1,0c0.1,0,0.2,0,0.3-0.1
		c0.1,0,0.2-0.1,0.2-0.1c0.1,0,0.1-0.1,0.2-0.1c0.1,0,1.1-0.6,1.5-1c0.1-0.1,0.3-0.3,0.3-0.3c0.1-0.1,0.1-0.1,0.1-0.1l0.2,0.1
		c0,0,0,0-0.1,0.2c-0.1,0.1-0.2,0.2-0.3,0.3c-0.4,0.4-1.4,1-1.6,1c0,0-0.1,0-0.1,0.1c-0.1,0.1-0.2,0.1-0.3,0.1
		c-0.1,0-0.2,0.1-0.3,0.1l-0.1,0c-0.2,0-0.3,0.1-0.4,0.1c-0.4,0.2-2.3,0.1-2.4,0.1c-0.1,0-0.2,0-0.3,0c-0.1,0-0.2,0-0.3,0
		c-0.1,0-0.2,0-0.2,0c0,0-0.1,0-0.1,0c0,0-0.1,0-0.1,0.1c-0.1,0-0.2,0.1-0.2,0.1c-0.1,0-0.2,0.1-0.2,0.1c0,0-0.1,0.1-0.1,0.1
		c-0.2,0.1-1.6,1-1.7,1C14.2,19.6,14,19.7,13.7,19.7z"/>
</g>
<g id="path4498">
	<path d="M25.1,17.2l-0.2-0.1l0.2-0.3c0.1-0.1,0.1-0.2,0.2-0.3c0,0,0-0.1,0.1-0.1c0.1-0.1,0.1-0.2,0.2-0.2c0,0,0.1-0.1,0.1-0.1l0,0
		c0.1,0,0.1-0.1,0.2-0.1c0.1,0,0.1-0.1,0.2-0.1c0.1-0.1,0.2-0.1,0.4-0.2l0.1,0c0.1,0,0.1-0.1,0.2-0.1l0,0l0,0c0,0,0.1-0.1,0.1-0.1
		c0,0,0.1-0.1,0.1-0.1c0,0,0.1-0.1,0.1-0.1c0.1-0.1,0.1-0.1,0.2-0.2c0,0,0-0.1,0.1-0.1c0.1-0.1,0.1-0.1,0.1,0c0,0,0.1,0.1,0,0.1h0
		l0,0c0,0,0,0,0,0l0,0c0,0,0,0.1-0.1,0.1c-0.1,0.1-0.1,0.1-0.2,0.2c0,0-0.1,0.1-0.1,0.1c0,0,0,0.1-0.1,0.1c-0.1,0.1-0.1,0.1-0.2,0.2
		c-0.1,0.1-0.2,0.1-0.2,0.2l-0.1,0c-0.2,0.1-0.2,0.1-0.4,0.2c-0.1,0-0.2,0.1-0.2,0.1c-0.1,0-0.1,0.1-0.2,0.1c0,0-0.1,0.1-0.1,0.1
		c-0.1,0.1-0.1,0.1-0.2,0.2c0,0-0.1,0.1-0.1,0.1c-0.1,0.1-0.1,0.2-0.1,0.3l0,0L25.1,17.2z"/>
</g>
<g id="path4500">
	<path d="M26.1,24.3C26.1,24.3,26.1,24.3,26.1,24.3c-0.1,0-0.1-0.1-0.1-0.2c0,0,0-0.1,0-0.1c0-0.1,0-0.2,0-0.3c0-0.1,0-0.2,0-0.2
		c0-0.2,0.1-0.4,0.1-0.5l0-0.1c0-0.1,0-0.3,0-0.4c0-0.1,0-0.2,0-0.3c0-0.1,0-0.2,0-0.2c0-0.2,0-0.3-0.1-0.5c0-0.1,0-0.3,0-0.5l0,0
		l0,0c0-0.1,0-0.2,0-0.3l0,0c0-0.1,0-0.2-0.1-0.2c0-0.1,0-0.2-0.1-0.3c0,0,0-0.1,0-0.2c0-0.1,0-0.1-0.1-0.2c0-0.1,0-0.2-0.1-0.3
		c0-0.1,0-0.1,0-0.2c0-0.1-0.1-0.2-0.1-0.3l0,0c0-0.1-0.1-0.2-0.1-0.3c0-0.1-0.1-0.2-0.1-0.3l0-0.1c0,0,0-0.1-0.1-0.2
		c0-0.1,0-0.1-0.1-0.2c0-0.1,0-0.1-0.1-0.1c0-0.1-0.1-0.2-0.1-0.2c0,0,0-0.1-0.1-0.1c0,0,0,0,0,0l0.2-0.1c0,0,0,0,0,0.1
		c0,0,0,0,0,0.1l0,0l0,0c0,0.1,0.1,0.2,0.1,0.2c0,0,0,0.1,0.1,0.1c0,0.1,0,0.1,0.1,0.2c0,0.1,0,0.1,0.1,0.2l0,0.1
		c0,0.1,0.1,0.2,0.1,0.3l0,0c0,0.1,0.1,0.2,0.1,0.3l0,0.1c0,0.1,0.1,0.2,0.1,0.3c0,0.1,0,0.1,0.1,0.2c0,0.1,0.1,0.2,0.1,0.3
		c0,0.1,0,0.2,0.1,0.2c0,0.1,0,0.1,0,0.2c0,0.1,0,0.2,0.1,0.3c0,0.1,0,0.1,0.1,0.2l0,0c0,0.1,0.1,0.2,0,0.3c0,0.2,0,0.3,0,0.5
		c0,0.1,0,0.3,0.1,0.5c0,0.1,0,0.2,0,0.2c0,0.1,0,0.2,0,0.3c0,0.1,0,0.3,0,0.4l0,0.1c0,0.2,0,0.4-0.1,0.5c0,0.1,0,0.2,0,0.3
		c0,0.1,0,0.2,0,0.3l0,0c0,0,0,0.1,0,0.1l0,0h0L26.1,24.3C26.2,24.2,26.2,24.2,26.1,24.3L26.1,24.3L26.1,24.3
		C26.2,24.2,26.1,24.3,26.1,24.3z"/>
</g>
<g id="path4502">
	<path fill="#F9DD16" d="M25.8,13.9
		c-0.2,0.4-0.6,0.9-0.6,0.9l-0.4,0.8c-0.2,0.4-0.1,0.6,0,0.7c0.2,0.3,0.2,0.4,0.3,0.7c0,0.3-0.4,0.4-0.4,0.4c-1,0.3-1.5-0.6-1.5-0.7
		c-0.1-0.5-0.1-0.6,0.2-0.7c0.3-0.1,0.5-0.1,0.7-0.2c0.3-0.2,0.6-1,0.6-1c0,0,0-0.4,0-0.4c0-0.2-0.1-0.4,0-0.7
		c0.1-0.3,0.2-0.4,0.5-0.4C25.6,13.4,25.9,13.6,25.8,13.9L25.8,13.9z"/>
	<path d="M24.2,17.6c-0.8,0-1.2-0.7-1.2-0.8c-0.1-0.5-0.1-0.7,0.3-0.8c0.1,0,0.2,0,0.2,0c0.2,0,0.3-0.1,0.4-0.1
		c0.2-0.1,0.4-0.5,0.5-0.9l0,0c0,0,0-0.2,0-0.4c0-0.1,0-0.1,0-0.2c0-0.1,0-0.3,0-0.5c0.1-0.3,0.3-0.4,0.6-0.5c0.3,0,0.5,0.1,0.6,0.3
		c0.1,0.1,0.1,0.3,0.1,0.4c-0.1,0.2-0.3,0.5-0.6,0.9l0,0l-0.4,0.8c-0.2,0.4-0.1,0.5,0,0.6c0.1,0.2,0.1,0.3,0.2,0.4
		c0,0.1,0.1,0.2,0.1,0.3l0,0c0,0.2-0.1,0.4-0.5,0.5l0,0C24.5,17.6,24.4,17.6,24.2,17.6z M25.2,13.5C25.2,13.5,25.2,13.5,25.2,13.5
		c-0.3,0-0.4,0.1-0.5,0.4c-0.1,0.2,0,0.3,0,0.4c0,0.1,0,0.2,0,0.2c0,0.4,0,0.4-0.1,0.5c-0.1,0.3-0.3,0.8-0.6,1
		c-0.2,0.1-0.3,0.1-0.5,0.2c-0.1,0-0.1,0-0.2,0c-0.2,0.1-0.2,0.1-0.1,0.6c0,0.1,0.4,0.7,1,0.7c0.1,0,0.3,0,0.4-0.1c0,0,0,0,0,0
		c0.2-0.1,0.3-0.1,0.3-0.2c-0.1-0.1-0.1-0.2-0.1-0.3c0-0.1-0.1-0.2-0.2-0.4c-0.1-0.1-0.2-0.3,0-0.8l0.4-0.8c0,0,0,0,0,0
		c0.3-0.4,0.5-0.7,0.6-0.9c0-0.1,0-0.2,0-0.2C25.6,13.6,25.4,13.5,25.2,13.5z"/>
</g>
<g id="path4504">
	<path fill="#F9DD16" d="M24.5,23.7c-0.2-0.1,2.8,1.1,3.2,1.1
		c0.6-0.2,2.9-2.2,2.9-2.2c0,0.2,0.1,0.7,0.3,0.8c-0.9,0.7-1.7,1.4-2.6,2.1c0.1,1.1-0.1,2.4,0.4,3.6c0,0-0.7,0-0.7,0
		c-0.6-0.6-0.8-3.6-0.8-3.6c-1-0.4-2-0.9-2.9-1.3C24.4,24.2,24.5,23.9,24.5,23.7L24.5,23.7z"/>
	<path d="M28.2,29.3c-0.2,0-0.2,0-0.3-0.1c-0.6-0.6-0.8-3.1-0.8-3.6c-0.5-0.2-0.9-0.4-1.4-0.6c-0.5-0.2-1-0.4-1.5-0.6l-0.2-0.1
		l0.1-0.1c0.1-0.1,0.2-0.3,0.2-0.5l0,0l0-0.1l0.1,0c0.1,0,0.3,0.1,1.1,0.4c0.8,0.3,1.8,0.7,2.1,0.7c0.6-0.2,2.8-2.1,2.8-2.1l0.1-0.1
		l0,0.2c0,0.3,0.1,0.7,0.3,0.7l0.1,0.1L31,23.5c-0.4,0.4-0.9,0.7-1.3,1.1c-0.4,0.3-0.8,0.7-1.3,1c0,0.3,0,0.6,0,0.9
		c0,0.9,0,1.8,0.4,2.7l0.1,0.1l-0.1,0C28.7,29.3,28.4,29.3,28.2,29.3z M28.1,29.1c0.1,0,0.3,0,0.5,0c-0.4-0.9-0.4-1.8-0.4-2.7
		c0-0.3,0-0.6,0-0.9l0,0l0,0c0.4-0.4,0.9-0.7,1.3-1.1c0.4-0.3,0.8-0.7,1.2-1c-0.1-0.1-0.2-0.4-0.2-0.6c-0.5,0.4-2.3,1.9-2.8,2.1l0,0
		l0,0c-0.2,0-1.1-0.3-2.2-0.7c-0.4-0.1-0.8-0.3-1-0.3c0,0.2,0,0.4-0.1,0.5c0.4,0.2,0.9,0.4,1.3,0.6c0.5,0.2,1,0.4,1.5,0.6l0.1,0
		l0,0.1C27.3,25.6,27.5,28.4,28.1,29.1z"/>
</g>
<g id="path4506">
	<path d="M21.7,31.8C21.6,31.8,21.6,31.8,21.7,31.8c-0.1,0-0.1-0.1-0.1-0.1l0,0l0,0c0.1-0.1,0.3-0.3,0.3-0.4c0,0,0.1-0.1,0.1-0.2
		c0,0,0.1-0.1,0.1-0.1l0.1-0.1c0.1-0.1,0.1-0.2,0.1-0.2l0,0c0,0,0,0,0.1-0.1c1.4-1.9,3-3,4.1-3.5l0.2-0.1c0.3-0.1,0.4-0.2,0.5-0.3
		l0.1,0.1l-0.1-0.1c0.1,0,0.1,0,0.1,0l0,0.1l-0.1,0.1l0-0.1l0,0.1c0,0-0.3,0.2-0.5,0.3l-0.2,0.1c-1.1,0.6-2.7,1.7-4.1,3.5
		c0,0-0.1,0.1-0.1,0.1c0,0.1-0.1,0.2-0.2,0.2L22.3,31c0,0-0.1,0.1-0.1,0.1c0,0.1-0.1,0.1-0.1,0.2c-0.1,0.1-0.2,0.3-0.3,0.4l0,0.1
		L21.7,31.8C21.7,31.8,21.7,31.8,21.7,31.8L21.7,31.8C21.7,31.8,21.7,31.8,21.7,31.8z"/>
</g>
<g id="path4508">
	<path d="M36.2,27.8L36.2,27.8c-0.1,0-0.4-0.1-0.6-0.1c-0.1,0-0.1,0-0.2,0c-0.1,0-0.1,0-0.2,0l-0.1,0c-0.1,0-0.2,0-0.3,0l0,0
		c0,0-0.1,0-0.1,0c-2.3-0.4-4-1.3-5-2.1l-0.2-0.1c-0.2-0.2-0.4-0.3-0.4-0.3l0-0.1l0,0.1C29,25,29,25,29.1,24.9l0-0.1l0.1,0l0,0.1
		l0.1-0.1c0,0,0.3,0.2,0.4,0.3l0.2,0.1c1,0.7,2.7,1.6,5,2c0.1,0,0.1,0,0.1,0c0.1,0,0.2,0,0.3,0l0.1,0c0.1,0,0.1,0,0.2,0
		c0.1,0,0.1,0,0.2,0c0.1,0,0.3,0.1,0.5,0.1v0l0.1,0l0,0c0,0,0,0,0,0l0,0c0.1,0,0.1,0.1,0.1,0.1C36.3,27.7,36.3,27.8,36.2,27.8
		L36.2,27.8z"/>
</g>
</svg>
