<?xml version="1.0" encoding="iso-8859-1"?>
<!-- Generator: Adobe Illustrator 18.1.1, SVG Export Plug-In . SVG Version: 6.00 Build 0)  -->
<svg version="1.1" id="Layer_211" xmlns="http://www.w3.org/2000/svg" xmlns:xlink="http://www.w3.org/1999/xlink" x="0px" y="0px"
	 viewBox="0 0 56.692 56.692" style="enable-background:new 0 0 56.692 56.692;" xml:space="preserve">
<g>
	<defs>
		<circle id="SVGID_1_" cx="28.346" cy="28.347" r="28.347"/>
	</defs>
	<clipPath id="SVGID_2_">
		<use xlink:href="#SVGID_1_"  style="overflow:visible;"/>
	</clipPath>
	<g style="clip-path:url(#SVGID_2_);">
		<rect x="-2.835" y="17.954" style="fill:#FFFFFF;" width="62.363" height="20.788"/>
		<rect x="-2.835" y="38.741" style="fill:#128807;" width="62.363" height="20.786"/>
		<rect x="-2.835" y="-2.835" style="fill:#FF9933;" width="62.363" height="20.789"/>
	</g>
	<g style="clip-path:url(#SVGID_2_);">
		<circle style="fill:#000088;" cx="28.346" cy="28.347" r="8.323"/>
		<g>
			<path style="fill:#FFFFFF;" d="M27.058,28.994c-0.033-0.067-0.057-0.136-0.08-0.208l-1.271,0.52l-4.375,0.915
				c0.054,0.202,0.09,0.412,0.161,0.607c0.005-0.004,0.005-0.011,0.011-0.014c0.164-0.094,0.373-0.037,0.467,0.128
				c0.094,0.166,0.039,0.374-0.125,0.469c-0.033,0.019-0.071,0.006-0.106,0.014c0.088,0.188,0.204,0.358,0.306,0.537l3.749-2.441
				L27.058,28.994z"/>
			<path style="fill:#FFFFFF;" d="M27.384,27.271c0.058-0.052,0.125-0.086,0.19-0.128l-0.835-1.1l-2.011-3.995
				c-0.177,0.101-0.365,0.187-0.533,0.303c0.024,0.024,0.059,0.029,0.076,0.059c0.095,0.163,0.039,0.374-0.126,0.469
				c-0.164,0.095-0.375,0.037-0.47-0.128c0,0,0-0.003-0.001-0.005c-0.167,0.14-0.306,0.307-0.46,0.46l3.332,2.983L27.384,27.271z"/>
			<path style="fill:#FFFFFF;" d="M26.981,27.895c0.023-0.072,0.049-0.139,0.083-0.205L25.8,27.161l-3.744-2.449
				c-0.108,0.19-0.231,0.372-0.325,0.572c0.036,0.006,0.073-0.007,0.106,0.013c0.165,0.093,0.22,0.303,0.127,0.468
				c-0.095,0.165-0.303,0.223-0.467,0.129c-0.005-0.003-0.005-0.011-0.01-0.013c-0.066,0.183-0.1,0.38-0.151,0.569l4.374,0.925
				L26.981,27.895z"/>
			<path style="fill:#FFFFFF;" d="M26.949,28.639c-0.016-0.073-0.041-0.144-0.044-0.221l-1.356,0.174l-4.497-0.25l4.497-0.249
				l1.357,0.172c0.004-0.078,0.029-0.148,0.045-0.224l-1.37-0.187l-4.245-1.402c-0.058,0.212-0.131,0.416-0.169,0.634
				c0.006,0,0.01-0.006,0.016-0.006c0.19,0,0.342,0.154,0.342,0.344c0,0.19-0.152,0.344-0.342,0.344
				c-0.038,0-0.065-0.029-0.101-0.042c-0.017,0.206-0.031,0.411-0.031,0.621c0,0.211,0.014,0.417,0.031,0.623
				c0.035-0.012,0.062-0.041,0.101-0.041c0.19,0,0.342,0.153,0.342,0.344c0,0.189-0.152,0.344-0.342,0.344
				c-0.006,0-0.01-0.007-0.015-0.007c0.036,0.208,0.107,0.405,0.162,0.608l4.248-1.395L26.949,28.639z"/>
			<path style="fill:#FFFFFF;" d="M27.7,27.058c0.066-0.033,0.135-0.056,0.207-0.08l-0.521-1.272l-0.914-4.375
				c-0.199,0.053-0.404,0.089-0.596,0.159c0.092,0.165,0.038,0.374-0.128,0.469c-0.164,0.094-0.375,0.038-0.468-0.127
				c-0.016-0.029-0.004-0.061-0.012-0.091c-0.187,0.088-0.357,0.204-0.536,0.305l2.439,3.749L27.7,27.058z"/>
			<path style="fill:#FFFFFF;" d="M27.149,27.563c0.041-0.063,0.075-0.131,0.126-0.185l-1.081-0.837l-2.983-3.333
				c-0.159,0.16-0.333,0.306-0.479,0.48c0.008,0.003,0.017-0.002,0.024,0.002c0.163,0.095,0.22,0.303,0.126,0.468
				c-0.095,0.166-0.303,0.223-0.467,0.129c-0.036-0.019-0.043-0.059-0.068-0.088c-0.112,0.16-0.192,0.339-0.289,0.509l3.991,2.02
				L27.149,27.563z"/>
			<path style="fill:#FFFFFF;" d="M28.054,26.948c0.073-0.015,0.143-0.04,0.22-0.044l-0.173-1.356l0.25-4.497
				c-0.002,0-0.002,0-0.004,0c-0.208,0-0.41,0.014-0.614,0.031c0.009,0.03,0.036,0.051,0.036,0.086c0,0.189-0.153,0.344-0.344,0.344
				c-0.19,0-0.344-0.155-0.344-0.344c-0.208,0.036-0.404,0.107-0.606,0.161l1.392,4.249L28.054,26.948z"/>
			<path style="fill:#FFFFFF;" d="M29.131,27.151c0.062,0.041,0.129,0.074,0.184,0.124l0.836-1.08l3.332-2.983
				c-0.157-0.157-0.299-0.329-0.47-0.471c-0.001,0.001,0,0.002-0.001,0.004c-0.095,0.165-0.304,0.223-0.47,0.128
				c-0.164-0.095-0.221-0.305-0.127-0.468c0.017-0.03,0.052-0.036,0.076-0.059c-0.155-0.107-0.329-0.185-0.492-0.279l-2.029,3.987
				L29.131,27.151z"/>
			<path style="fill:#FFFFFF;" d="M29.634,27.698c0.033,0.068,0.057,0.137,0.081,0.208l1.271-0.52l4.375-0.914
				c-0.054-0.199-0.09-0.405-0.159-0.597c-0.164,0.093-0.374,0.038-0.468-0.128c-0.094-0.164-0.038-0.374,0.127-0.468
				c0.029-0.017,0.06-0.004,0.091-0.012c-0.087-0.187-0.203-0.356-0.305-0.535l-3.748,2.439L29.634,27.698z"/>
			<path style="fill:#FFFFFF;" d="M28.797,26.98c0.073,0.024,0.142,0.051,0.21,0.086l0.532-1.262l2.457-3.74
				c-0.192-0.109-0.375-0.234-0.577-0.328c-0.007,0.031,0.004,0.062-0.012,0.091c-0.094,0.164-0.304,0.223-0.468,0.128
				c-0.165-0.094-0.223-0.304-0.128-0.468c-0.183-0.065-0.378-0.1-0.567-0.151l-0.924,4.374L28.797,26.98z"/>
			<path style="fill:#FFFFFF;" d="M28.427,26.905c0.079,0.005,0.149,0.03,0.224,0.045l0.188-1.369l1.4-4.245
				c-0.207-0.057-0.408-0.129-0.623-0.168c0,0.189-0.153,0.344-0.344,0.344c-0.19,0-0.344-0.155-0.344-0.344
				c0-0.034,0.027-0.056,0.036-0.086c-0.203-0.018-0.407-0.03-0.613-0.031l0.249,4.497L28.427,26.905z"/>
			<path style="fill:#FFFFFF;" d="M29.422,27.384c0.051,0.057,0.086,0.125,0.127,0.189l1.1-0.833l3.995-2.011
				c-0.101-0.177-0.188-0.365-0.304-0.533c-0.021,0.024-0.028,0.058-0.058,0.075c-0.163,0.095-0.375,0.038-0.469-0.126
				c-0.095-0.165-0.037-0.375,0.128-0.469c0.002-0.002,0.004,0,0.005-0.001c-0.139-0.167-0.306-0.306-0.461-0.461l-2.982,3.333
				L29.422,27.384z"/>
			<path style="fill:#FFFFFF;" d="M29.711,28.797c-0.024,0.072-0.049,0.14-0.083,0.206l1.264,0.53l3.743,2.448
				c0.107-0.188,0.229-0.366,0.32-0.563c-0.03-0.007-0.062,0.005-0.091-0.012c-0.165-0.094-0.223-0.303-0.128-0.468
				c0.094-0.166,0.305-0.222,0.468-0.128c0.066-0.183,0.1-0.378,0.15-0.567l-4.372-0.924L29.711,28.797z"/>
			<path style="fill:#FFFFFF;" d="M29.309,29.422c-0.058,0.051-0.125,0.086-0.189,0.128l0.833,1.1l2.01,3.994
				c0.18-0.102,0.37-0.19,0.541-0.31c-0.029-0.023-0.067-0.032-0.087-0.066c-0.095-0.164-0.037-0.373,0.128-0.467
				c0.166-0.095,0.374-0.039,0.468,0.125c0.003,0.006-0.001,0.015,0.003,0.021c0.167-0.14,0.307-0.307,0.461-0.462l-3.333-2.982
				L29.309,29.422z"/>
			<path style="fill:#FFFFFF;" d="M29.543,29.129c-0.041,0.062-0.075,0.131-0.126,0.187l1.081,0.835l2.982,3.333
				c0.158-0.157,0.33-0.301,0.472-0.473c-0.002,0-0.004,0.001-0.005,0c-0.164-0.095-0.223-0.304-0.128-0.469
				c0.094-0.165,0.305-0.222,0.468-0.129c0.03,0.018,0.037,0.053,0.059,0.078c0.111-0.16,0.191-0.338,0.288-0.507l-3.991-2.02
				L29.543,29.129z"/>
			<path style="fill:#FFFFFF;" d="M29.787,28.426c-0.004,0.079-0.029,0.149-0.045,0.223l1.37,0.189l4.245,1.401
				c0.056-0.208,0.128-0.408,0.166-0.623c-0.188-0.002-0.343-0.155-0.343-0.344c0-0.191,0.155-0.344,0.344-0.344
				c0.033,0,0.055,0.026,0.086,0.036c0.018-0.203,0.031-0.407,0.031-0.613L31.144,28.6L29.787,28.426z"/>
			<path style="fill:#FFFFFF;" d="M35.609,27.732c-0.031,0.008-0.053,0.035-0.086,0.035c-0.189,0-0.344-0.153-0.344-0.344
				c0-0.19,0.155-0.344,0.344-0.344c-0.036-0.208-0.107-0.403-0.161-0.604l-4.247,1.392l-1.371,0.186
				c0.016,0.074,0.041,0.143,0.044,0.22l1.356-0.172l4.497,0.25c0-0.002,0-0.003,0-0.004C35.64,28.138,35.626,27.934,35.609,27.732z
				"/>
			<path style="fill:#FFFFFF;" d="M27.895,29.712c-0.073-0.024-0.142-0.051-0.208-0.087l-0.533,1.263l-2.457,3.74
				c0.195,0.111,0.38,0.237,0.586,0.332c0.007-0.036-0.006-0.073,0.014-0.106c0.094-0.165,0.303-0.22,0.467-0.127
				c0.166,0.095,0.224,0.303,0.129,0.467c-0.003,0.005-0.01,0.005-0.013,0.011c0.185,0.067,0.381,0.1,0.571,0.151l0.922-4.375
				L27.895,29.712z"/>
			<path style="fill:#FFFFFF;" d="M27.27,29.308c-0.051-0.057-0.086-0.125-0.127-0.189l-1.1,0.833l-3.995,2.012
				c0.102,0.18,0.19,0.37,0.309,0.539c0.024-0.028,0.033-0.066,0.067-0.087c0.163-0.093,0.373-0.037,0.467,0.128
				c0.095,0.166,0.039,0.374-0.125,0.468c-0.006,0.004-0.014,0-0.022,0.003c0.14,0.167,0.308,0.307,0.462,0.46l2.983-3.332
				L27.27,29.308z"/>
			<path style="fill:#FFFFFF;" d="M27.561,29.542c-0.062-0.041-0.129-0.074-0.184-0.125l-0.836,1.081l-3.332,2.983
				c0.159,0.16,0.305,0.334,0.479,0.479c0.004-0.007-0.001-0.017,0.003-0.024c0.094-0.164,0.303-0.22,0.468-0.126
				c0.164,0.095,0.223,0.303,0.129,0.467c-0.02,0.035-0.059,0.043-0.089,0.069c0.156,0.107,0.331,0.186,0.494,0.281l2.029-3.988
				L27.561,29.542z"/>
			<path style="fill:#FFFFFF;" d="M28.266,29.786c-0.079-0.004-0.149-0.028-0.222-0.045l-0.19,1.371l-1.399,4.245
				c0.21,0.056,0.415,0.129,0.633,0.168c0-0.007-0.007-0.01-0.007-0.016c0-0.189,0.154-0.342,0.344-0.342
				c0.19,0,0.344,0.152,0.344,0.342c0,0.04-0.03,0.066-0.041,0.101c0.204,0.018,0.407,0.031,0.615,0.031l-0.249-4.497L28.266,29.786
				z"/>
			<path style="fill:#FFFFFF;" d="M28.638,29.743c-0.073,0.016-0.143,0.041-0.22,0.045l0.173,1.356l-0.25,4.497
				c0.002,0,0.002,0,0.004,0c0.21,0,0.418-0.014,0.624-0.032c-0.012-0.034-0.042-0.06-0.042-0.1c0-0.189,0.154-0.342,0.344-0.342
				c0.19,0,0.344,0.152,0.344,0.342c0,0.005-0.006,0.009-0.006,0.016c0.21-0.037,0.405-0.109,0.607-0.164l-1.391-4.248
				L28.638,29.743z"/>
			<path style="fill:#FFFFFF;" d="M28.994,29.634c-0.067,0.034-0.136,0.057-0.208,0.081l0.52,1.271l0.913,4.376
				c0.203-0.055,0.413-0.092,0.608-0.163c-0.003-0.004-0.01-0.004-0.013-0.01c-0.095-0.165-0.037-0.373,0.128-0.467
				c0.165-0.095,0.374-0.039,0.468,0.125c0.019,0.033,0.006,0.071,0.014,0.106c0.187-0.087,0.357-0.204,0.535-0.306l-2.439-3.748
				L28.994,29.634z"/>
		</g>
	</g>
</g>
</svg>
