<?xml version="1.0" encoding="iso-8859-1"?>
<!-- Generator: Adobe Illustrator 18.1.1, SVG Export Plug-In . SVG Version: 6.00 Build 0)  -->
<svg version="1.1" id="Layer_113" xmlns="http://www.w3.org/2000/svg" xmlns:xlink="http://www.w3.org/1999/xlink" x="0px" y="0px"
	 viewBox="0 0 56.692 56.692" style="enable-background:new 0 0 56.692 56.692;" xml:space="preserve">
<g>
	<defs>
		<circle id="SVGID_1_" cx="28.346" cy="28.346" r="28.347"/>
	</defs>
	<clipPath id="SVGID_2_">
		<use xlink:href="#SVGID_1_"  style="overflow:visible;"/>
	</clipPath>
	<g style="clip-path:url(#SVGID_2_);">
		<rect x="-2.835" y="17.955" style="fill:#FFFFFF;" width="62.361" height="20.785"/>
		<rect x="-2.835" y="38.74" width="62.361" height="20.786"/>
		<rect x="-2.835" y="-2.834" style="fill:#CE1126;" width="62.361" height="20.788"/>
	</g>
	<path style="clip-path:url(#SVGID_2_);fill-rule:evenodd;clip-rule:evenodd;fill:#239F40;" d="M8.232,30.349
		c0,0,0.451,1.12,0.576,1.425c0.084,0.206,0.139,0.233,0.309,0.233l1.479-0.002c0-0.073-0.02-0.143-0.078-0.266
		c-0.119-0.277-0.209-0.473-0.336-0.748c-0.057-0.121-0.053-0.215,0.062-0.299c0.197-0.156,0.396-0.312,0.6-0.468
		c0.447-0.342,0.797-1.264,1.016-1.223c0.012,0.118,0.004,2.986,0.004,2.986s10.678-0.003,10.721-0.001
		c0.1,0.002,0.131-0.035,0.129-0.128c0-0.045,0.004-4.062,0.004-4.062l-0.625-0.481l-0.635,0.481v2.751
		c0,0.175-0.074,0.239-0.246,0.239c-1.758-0.002-8.756,0.009-8.756,0.009l7.229-10.499c0.123,0.057,0.434,1.562,0.486,1.714
		c0.078,0.226,0.037,0.327-0.195,0.354c-0.191,0.024-0.328,0.12-0.436,0.265c-0.369,0.494-4.609,6.721-4.609,6.721l5.24-0.007
		l0.002-1.805c0-0.227,0.01-0.279,0.119-0.39l1.801-1.424l1.863,1.446c0.109,0.108,0.102,0.251,0.102,0.367l0.004,5.919
		L9.281,33.457c-0.221,0.002-0.281,0.034-0.314,0.253c-0.25,2.798-3.057,2.698-3.729,0.978c0.608,0.55,2.195,0.81,2.479-0.836
		c0.109-0.58-0.037-1.098-0.383-1.57c-0.086-0.118-0.182-0.229-0.264-0.354c-0.117-0.183-0.104-0.253,0.08-0.382
		c0.074-0.054,0.307-0.202,0.363-0.25C7.906,30.979,8.05,30.455,8.232,30.349z"/>
	<polygon style="clip-path:url(#SVGID_2_);fill-rule:evenodd;clip-rule:evenodd;fill:#239F40;" points="9.496,35.5 10.546,34.365 
		11.587,35.508 10.535,36.642 	"/>
	<path style="clip-path:url(#SVGID_2_);fill-rule:evenodd;clip-rule:evenodd;fill:#239F40;" d="M40.296,21.794
		c0.686,0.933-0.07,1.654-1.064,1.225c-0.176-0.046-0.314,0-0.441,0.125c-0.473,0.459-1.125,0.768-1.895-0.002
		c1.393,0.375,1.955-0.707,1.955-0.707s0.607,0.395,1.031,0.234C40.111,22.583,40.22,22.292,40.296,21.794z"/>
	<path style="clip-path:url(#SVGID_2_);fill-rule:evenodd;clip-rule:evenodd;fill:#239F40;" d="M37.697,20.589
		c0.006-0.174,0.172-0.255,0.312-0.148c0.223,0.138,0.615,1.351,0.445,1.405C38.285,21.902,37.683,20.939,37.697,20.589z"/>
	<path style="clip-path:url(#SVGID_2_);fill-rule:evenodd;clip-rule:evenodd;fill:#239F40;" d="M41.525,22.553
		c-0.201,0.198-0.168,0.298,0.016,0.444c0.217,0.172,0.258,0.388,0.258,0.664c-0.006,1.242,0.008,8.318,0.008,8.318h-1.289
		l0.004-8.506c-0.228,0-1.615,1.559-1.615,1.559c-0.199,0.197-0.166,0.297,0.02,0.443c0.215,0.172,0.258,0.388,0.258,0.662
		c-0.006,0.951,0,4.314,0.004,5.842H37.96l-0.002-6.064c-0.215,0-1.623,1.558-1.623,1.558c-0.197,0.197-0.166,0.298,0.02,0.444
		c0.215,0.172,0.258,0.387,0.258,0.663c-0.002,0.261-0.002,0.604-0.002,0.985l0,0c0,0-0.289-0.005-0.482-0.005
		c-0.404,0-1.172,0.084-1.605,0.56c-0.248,0.269-0.525,0.619-0.525,1.239v2.1l9.143-0.002l-0.002-12.463
		C42.906,20.996,41.525,22.553,41.525,22.553z M36.617,31.98h-1.344c-0.076-0.44-0.033-0.758,0.207-1.018
		c0.266-0.293,0.566-0.205,1.137-0.222V31.98z"/>
	<path style="clip-path:url(#SVGID_2_);fill-rule:evenodd;clip-rule:evenodd;fill:#239F40;" d="M47.546,31.756
		c-0.217,0.164-0.461,0.232-0.729,0.232l-1.379,0.001c0.002-1.729,0.004-4.826,0-5.707c0-0.276,0.043-0.492,0.26-0.664
		c0.182-0.146,0.215-0.246,0.018-0.444c0,0-1.463-1.557-1.617-1.557l0.008,8.372h-0.008v1.477l3.408-0.001
		c0.041-0.705,0.377-1.92,0.377-1.92C47.783,31.546,47.638,31.686,47.546,31.756z"/>
	<path style="clip-path:url(#SVGID_2_);fill-rule:evenodd;clip-rule:evenodd;fill:#239F40;" d="M28.531,31.756
		c-0.217,0.164-0.461,0.232-0.729,0.232l-1.379,0.001c0.002-1.729,0.004-4.826,0-5.707c0-0.276,0.043-0.492,0.26-0.664
		c0.182-0.146,0.215-0.246,0.018-0.444c0,0-1.438-1.557-1.617-1.557l0.008,8.372h-0.008v1.477l3.408-0.001
		c0.041-0.705,0.25-1.207,0.377-1.92C28.726,31.632,28.622,31.686,28.531,31.756z"/>
</g>
</svg>
