<?xml version="1.0" encoding="iso-8859-1"?>
<!-- Generator: Adobe Illustrator 18.1.1, SVG Export Plug-In . SVG Version: 6.00 Build 0)  -->
<svg version="1.1" id="Layer_187" xmlns="http://www.w3.org/2000/svg" xmlns:xlink="http://www.w3.org/1999/xlink" x="0px" y="0px"
	 viewBox="0 0 56.692 56.692" style="enable-background:new 0 0 56.692 56.692;" xml:space="preserve">
<g>
	<defs>
		<circle id="SVGID_1_" cx="28.346" cy="28.346" r="28.346"/>
	</defs>
	<clipPath id="SVGID_2_">
		<use xlink:href="#SVGID_1_"  style="overflow:visible;"/>
	</clipPath>
	<rect x="-14.173" y="18.899" style="clip-path:url(#SVGID_2_);fill:#FFFFFF;" width="85.039" height="18.896"/>
	<rect x="-14.173" y="37.795" style="clip-path:url(#SVGID_2_);fill:#CF0A2C;" width="85.039" height="18.897"/>
	<rect x="-14.173" y="0" style="clip-path:url(#SVGID_2_);fill:#026937;" width="85.039" height="18.899"/>
	<g style="clip-path:url(#SVGID_2_);">
		<path style="fill:#FFFFFF;" d="M69.717,37.795v0.309h-3.33v-0.309H69.717z M65.969,37.795h-3.426v0.309h3.426V37.795z
			 M69.411,40.043h-0.447v-1.485h-0.309v1.485h-0.447v-1.485H67.9v0.729h-1.513v1.063h1.066v-0.308h-0.758v-0.447H67.9v0.755h1.817
			v-1.793h-0.307V40.043z M64.782,39.595h0.879v0.447h-1.324v-0.756h-1.793v1.063h0.309v-0.755h1.176v0.755h1.941v-1.063h-1.188
			V39.595z M63.286,40.35h0.31v-0.308h-0.31V40.35z M67.454,38.55h-4.91v0.309h4.91V38.55z"/>
		<path style="fill:#FFFFFF;" d="M62.161,37.795v0.309h-3.33v-0.309H62.161z M58.413,37.795h-3.426v0.309h3.426V37.795z
			 M61.852,40.043h-0.445v-1.485h-0.309v1.485h-0.447v-1.485h-0.309v0.729H58.83v1.063h1.064v-0.308h-0.756v-0.447h1.203v0.755
			h1.818v-1.793h-0.309V40.043z M57.225,39.595h0.879v0.447h-1.326v-0.756h-1.791v1.063h0.309v-0.755h1.176v0.755h1.942v-1.063
			h-1.188V39.595z M55.729,40.35h0.311v-0.308h-0.311V40.35z M59.895,38.55h-4.908v0.309h4.908V38.55z"/>
		<path style="fill:#FFFFFF;" d="M54.604,37.795v0.309h-3.329v-0.309H54.604z M50.856,37.795H47.43v0.309h3.426V37.795z
			 M54.295,40.043H53.85v-1.485h-0.309v1.485h-0.447v-1.485h-0.309v0.729h-1.511v1.063h1.063v-0.308h-0.756v-0.447h1.203v0.755
			h1.818v-1.793h-0.309V40.043z M49.668,39.595h0.879v0.447h-1.326v-0.756H47.43v1.063h0.309v-0.755h1.176v0.755h1.941v-1.063
			h-1.188V39.595z M48.172,40.35h0.311v-0.308h-0.311V40.35z M52.338,38.55H47.43v0.309h4.908V38.55z"/>
		<path style="fill:#FFFFFF;" d="M47.047,37.795v0.309h-3.33v-0.309H47.047z M43.299,37.795h-3.426v0.309h3.426V37.795z
			 M46.739,40.043h-0.447v-1.485h-0.307v1.485h-0.447v-1.485h-0.309v0.729h-1.512v1.063h1.064v-0.308h-0.756v-0.447h1.203v0.755
			h1.818v-1.793h-0.309V40.043z M42.112,39.595h0.879v0.447h-1.326v-0.756h-1.791v1.063h0.309v-0.755h1.176v0.755h1.941v-1.063
			h-1.188V39.595z M40.616,40.35h0.309v-0.308h-0.309V40.35z M44.782,38.55h-4.908v0.309h4.908V38.55z"/>
		<path style="fill:#FFFFFF;" d="M39.491,37.795v0.309h-3.33v-0.309H39.491z M35.743,37.795h-3.426v0.309h3.426V37.795z
			 M39.182,40.043h-0.447v-1.485h-0.307v1.485h-0.447v-1.485h-0.309v0.729h-1.512v1.063h1.065v-0.308h-0.756v-0.447h1.203v0.755
			h1.818v-1.793h-0.309V40.043z M34.555,39.595h0.879v0.447h-1.325v-0.756h-1.792v1.063h0.309v-0.755h1.174v0.755h1.943v-1.063
			h-1.188V39.595z M33.059,40.35h0.309v-0.308h-0.309V40.35z M37.225,38.55h-4.908v0.309h4.908V38.55z"/>
		<path style="fill:#FFFFFF;" d="M31.934,37.795v0.309h-3.33v-0.309H31.934z M28.186,37.795H24.76v0.309h3.426V37.795z
			 M31.625,40.043h-0.447v-1.485H30.87v1.485h-0.445v-1.485h-0.309v0.729h-1.512v1.063h1.064v-0.308h-0.756v-0.447h1.203v0.755
			h1.818v-1.793h-0.309V40.043z M26.999,39.595h0.879v0.447h-1.326v-0.756H24.76v1.063h0.309v-0.755h1.174v0.755h1.943v-1.063
			h-1.188V39.595z M25.502,40.35h0.309v-0.308h-0.309V40.35z M29.668,38.55H24.76v0.309h4.908V38.55z"/>
		<path style="fill:#FFFFFF;" d="M24.377,37.795v0.309h-3.33v-0.309H24.377z M20.627,37.795h-3.424v0.309h3.424V37.795z
			 M24.069,40.043h-0.447v-1.485h-0.309v1.485h-0.447v-1.485h-0.307v0.729h-1.512v1.063h1.064v-0.308h-0.758v-0.447h1.205v0.755
			h1.818v-1.793h-0.309V40.043z M19.442,39.595h0.879v0.447h-1.326v-0.756h-1.791v1.063h0.307v-0.755h1.176v0.755h1.941v-1.063
			h-1.186V39.595z M17.944,40.35h0.31v-0.308h-0.31V40.35z M22.112,38.55h-4.908v0.309h4.908V38.55z"/>
		<path style="fill:#FFFFFF;" d="M16.819,37.795v0.309h-3.328v-0.309H16.819z M13.071,37.795H9.647v0.309h3.424V37.795z
			 M16.512,40.043h-0.447v-1.485h-0.309v1.485h-0.447v-1.485h-0.307v0.729h-1.512v1.063h1.064v-0.308h-0.758v-0.447h1.205v0.755
			h1.816v-1.793h-0.307V40.043z M11.885,39.595h0.879v0.447h-1.326v-0.756H9.647v1.063h0.307v-0.755h1.176v0.755h1.941v-1.063
			h-1.186V39.595z M10.387,40.35h0.31v-0.308h-0.31V40.35z M14.555,38.55H9.647v0.309h4.908V38.55z"/>
		<path style="fill:#FFFFFF;" d="M9.262,37.795v0.309h-3.33v-0.309H9.262z M5.514,37.795H2.088v0.309h3.426V37.795z M8.955,40.043
			H8.508v-1.485H8.2v1.485H7.752v-1.485H7.444v0.729H5.932v1.063h1.066v-0.308H6.241v-0.447h1.203v0.755h1.818v-1.793H8.955V40.043z
			 M4.327,39.595h0.879v0.447H3.881v-0.756H2.088v1.063h0.309v-0.755h1.176v0.755h1.941v-1.063H4.327V39.595z M2.83,40.35h0.311
			v-0.308H2.83V40.35z M6.998,38.55h-4.91v0.309h4.91V38.55z"/>
		<path style="fill:#FFFFFF;" d="M1.706,37.795v0.309h-3.33v-0.309H1.706z M-2.043,37.795h-3.426v0.309h3.426V37.795z M1.397,40.043
			H0.952v-1.485H0.643v1.485H0.196v-1.485h-0.309v0.729h-1.512v1.063h1.065v-0.308h-0.756v-0.447h1.203v0.755h1.818v-1.793H1.397
			V40.043z M-3.23,39.595h0.88v0.447h-1.327v-0.756h-1.791v1.063h0.309v-0.755h1.176v0.755h1.941v-1.063H-3.23V39.595z
			 M-4.726,40.35h0.311v-0.308h-0.311V40.35z M-0.56,38.55h-4.908v0.309h4.908V38.55z"/>
		<path style="fill:#FFFFFF;" d="M-5.851,37.795v0.309h-3.33v-0.309H-5.851z M-9.599,37.795h-3.426v0.309h3.426V37.795z
			 M-6.16,40.043h-0.447v-1.485h-0.307v1.485h-0.447v-1.485h-0.309v0.729h-1.512v1.063h1.064v-0.308h-0.756v-0.447h1.203v0.755
			h1.818v-1.793H-6.16V40.043z M-10.787,39.595h0.879v0.447h-1.326v-0.756h-1.791v1.063h0.309v-0.755h1.176v0.755h1.941v-1.063
			h-1.188V39.595z M-12.283,40.35h0.309v-0.308h-0.309V40.35z M-8.117,38.55h-4.908v0.309h4.908V38.55z"/>
	</g>
	<g style="clip-path:url(#SVGID_2_);">
		<g>
			<polygon style="fill:#FFFFFF;" points="64.797,17.399 65.668,17.399 65.668,17.793 64.403,17.793 64.403,17.043 62.575,17.043 
				62.575,18.149 62.932,18.149 62.932,17.399 64.047,17.399 64.047,18.149 66.026,18.149 66.026,17.043 64.797,17.043 			"/>
			<rect x="66.391" y="18.543" style="fill:#FFFFFF;" width="3.357" height="0.356"/>
			<rect x="62.575" y="18.543" style="fill:#FFFFFF;" width="3.451" height="0.356"/>
			<path style="fill:#FFFFFF;" d="M69.391,16.317v1.476h-0.393v-1.476h-0.355v1.476h-0.395v-1.476h-0.357v0.726h-1.5v1.106h3.357
				v-1.832H69.391z M67.891,17.399v0.394h-1.145v-0.394H67.891z"/>
			<rect x="63.311" y="17.793" style="fill:#FFFFFF;" width="0.357" height="0.356"/>
			<rect x="62.575" y="16.319" style="fill:#FFFFFF;" width="4.924" height="0.357"/>
		</g>
		<g>
			<polygon style="fill:#FFFFFF;" points="57.234,17.399 58.106,17.399 58.106,17.793 56.84,17.793 56.84,17.043 55.01,17.043 
				55.01,18.149 55.368,18.149 55.368,17.399 56.485,17.399 56.485,18.149 58.463,18.149 58.463,17.043 57.234,17.043 			"/>
			<rect x="58.827" y="18.543" style="fill:#FFFFFF;" width="3.359" height="0.356"/>
			<rect x="55.01" y="18.543" style="fill:#FFFFFF;" width="3.453" height="0.356"/>
			<path style="fill:#FFFFFF;" d="M61.829,16.317v1.476h-0.393v-1.476h-0.357v1.476h-0.393v-1.476h-0.357v0.726h-1.502v1.106h3.359
				v-1.832H61.829z M60.329,17.399v0.394h-1.145v-0.394H60.329z"/>
			<rect x="55.748" y="17.793" style="fill:#FFFFFF;" width="0.357" height="0.356"/>
			<rect x="55.01" y="16.319" style="fill:#FFFFFF;" width="4.926" height="0.357"/>
		</g>
		<g>
			<polygon style="fill:#FFFFFF;" points="49.67,17.399 50.543,17.399 50.543,17.793 49.278,17.793 49.278,17.043 47.448,17.043 
				47.448,18.149 47.805,18.149 47.805,17.399 48.922,17.399 48.922,18.149 50.901,18.149 50.901,17.043 49.67,17.043 			"/>
			<rect x="51.264" y="18.543" style="fill:#FFFFFF;" width="3.359" height="0.356"/>
			<rect x="47.448" y="18.543" style="fill:#FFFFFF;" width="3.453" height="0.356"/>
			<path style="fill:#FFFFFF;" d="M54.266,16.317v1.476h-0.393v-1.476h-0.357v1.476h-0.393v-1.476h-0.357v0.726h-1.502v1.106h3.359
				v-1.832H54.266z M52.766,17.399v0.394h-1.145v-0.394H52.766z"/>
			<rect x="48.186" y="17.793" style="fill:#FFFFFF;" width="0.357" height="0.356"/>
			<rect x="47.448" y="16.319" style="fill:#FFFFFF;" width="4.926" height="0.357"/>
		</g>
		<g>
			<polygon style="fill:#FFFFFF;" points="42.109,17.399 42.981,17.399 42.981,17.793 41.715,17.793 41.715,17.043 39.885,17.043 
				39.885,18.149 40.243,18.149 40.243,17.399 41.36,17.399 41.36,18.149 43.338,18.149 43.338,17.043 42.109,17.043 			"/>
			<rect x="43.702" y="18.543" style="fill:#FFFFFF;" width="3.359" height="0.356"/>
			<rect x="39.885" y="18.543" style="fill:#FFFFFF;" width="3.453" height="0.356"/>
			<path style="fill:#FFFFFF;" d="M46.704,16.317v1.476h-0.393v-1.476h-0.357v1.476h-0.393v-1.476h-0.357v0.726h-1.502v1.106h3.359
				v-1.832H46.704z M45.204,17.399v0.394h-1.145v-0.394H45.204z"/>
			<rect x="40.621" y="17.793" style="fill:#FFFFFF;" width="0.359" height="0.356"/>
			<rect x="39.885" y="16.319" style="fill:#FFFFFF;" width="4.926" height="0.357"/>
		</g>
		<g>
			<polygon style="fill:#FFFFFF;" points="34.545,17.399 35.417,17.399 35.417,17.793 34.153,17.793 34.153,17.043 32.323,17.043 
				32.323,18.149 32.68,18.149 32.68,17.399 33.795,17.399 33.795,18.149 35.776,18.149 35.776,17.043 34.545,17.043 			"/>
			<rect x="36.139" y="18.543" style="fill:#FFFFFF;" width="3.359" height="0.356"/>
			<rect x="32.323" y="18.543" style="fill:#FFFFFF;" width="3.453" height="0.356"/>
			<path style="fill:#FFFFFF;" d="M39.139,16.317v1.476h-0.393v-1.476h-0.357v1.476h-0.391v-1.476h-0.359v0.726h-1.5v1.106h3.359
				v-1.832H39.139z M37.639,17.399v0.394h-1.143v-0.394H37.639z"/>
			<rect x="33.059" y="17.793" style="fill:#FFFFFF;" width="0.359" height="0.356"/>
			<rect x="32.323" y="16.319" style="fill:#FFFFFF;" width="4.926" height="0.357"/>
		</g>
		<g>
			<polygon style="fill:#FFFFFF;" points="26.981,17.399 27.854,17.399 27.854,17.793 26.588,17.793 26.588,17.043 24.76,17.043 
				24.76,18.149 25.118,18.149 25.118,17.399 26.233,17.399 26.233,18.149 28.211,18.149 28.211,17.043 26.981,17.043 			"/>
			<rect x="28.575" y="18.543" style="fill:#FFFFFF;" width="3.359" height="0.356"/>
			<rect x="24.76" y="18.543" style="fill:#FFFFFF;" width="3.451" height="0.356"/>
			<path style="fill:#FFFFFF;" d="M31.577,16.317v1.476h-0.393v-1.476h-0.357v1.476h-0.393v-1.476h-0.357v0.726h-1.502v1.106h3.359
				v-1.832H31.577z M30.077,17.399v0.394h-1.144v-0.394H30.077z"/>
			<rect x="25.497" y="17.793" style="fill:#FFFFFF;" width="0.357" height="0.356"/>
			<rect x="24.76" y="16.319" style="fill:#FFFFFF;" width="4.924" height="0.357"/>
		</g>
		<g>
			<polygon style="fill:#FFFFFF;" points="19.418,17.399 20.292,17.399 20.292,17.793 19.026,17.793 19.026,17.043 17.196,17.043 
				17.196,18.149 17.553,18.149 17.553,17.399 18.67,17.399 18.67,18.149 20.649,18.149 20.649,17.043 19.418,17.043 			"/>
			<rect x="21.012" y="18.543" style="fill:#FFFFFF;" width="3.359" height="0.356"/>
			<rect x="17.196" y="18.543" style="fill:#FFFFFF;" width="3.453" height="0.356"/>
			<path style="fill:#FFFFFF;" d="M24.014,16.317v1.476h-0.393v-1.476h-0.357v1.476h-0.393v-1.476h-0.357v0.726h-1.502v1.106h3.359
				v-1.832H24.014z M22.514,17.399v0.394H21.37v-0.394H22.514z"/>
			<rect x="17.934" y="17.793" style="fill:#FFFFFF;" width="0.357" height="0.356"/>
			<rect x="17.196" y="16.319" style="fill:#FFFFFF;" width="4.926" height="0.357"/>
		</g>
		<g>
			<polygon style="fill:#FFFFFF;" points="11.856,17.399 12.729,17.399 12.729,17.793 11.463,17.793 11.463,17.043 9.633,17.043 
				9.633,18.149 9.991,18.149 9.991,17.399 11.108,17.399 11.108,18.149 13.086,18.149 13.086,17.043 11.856,17.043 			"/>
			<rect x="13.45" y="18.543" style="fill:#FFFFFF;" width="3.359" height="0.356"/>
			<rect x="9.633" y="18.543" style="fill:#FFFFFF;" width="3.453" height="0.356"/>
			<path style="fill:#FFFFFF;" d="M16.452,16.317v1.476h-0.393v-1.476h-0.357v1.476h-0.393v-1.476h-0.357v0.726H13.45v1.106h3.359
				v-1.832H16.452z M14.952,17.399v0.394h-1.144v-0.394H14.952z"/>
			<rect x="10.37" y="17.793" style="fill:#FFFFFF;" width="0.359" height="0.356"/>
			<rect x="9.633" y="16.319" style="fill:#FFFFFF;" width="4.926" height="0.357"/>
		</g>
		<g>
			<polygon style="fill:#FFFFFF;" points="4.293,17.399 5.167,17.399 5.167,17.793 3.901,17.793 3.901,17.043 2.071,17.043 
				2.071,18.149 2.428,18.149 2.428,17.399 3.543,17.399 3.543,18.149 5.522,18.149 5.522,17.043 4.293,17.043 			"/>
			<rect x="5.887" y="18.543" style="fill:#FFFFFF;" width="3.357" height="0.356"/>
			<rect x="2.071" y="18.543" style="fill:#FFFFFF;" width="3.451" height="0.356"/>
			<path style="fill:#FFFFFF;" d="M8.887,16.317v1.476H8.495v-1.476H8.139v1.476H7.745v-1.476H7.387v0.726h-1.5v1.106h3.357v-1.832
				H8.887z M7.387,17.399v0.394H6.245v-0.394H7.387z"/>
			<rect x="2.807" y="17.793" style="fill:#FFFFFF;" width="0.357" height="0.356"/>
			<rect x="2.071" y="16.319" style="fill:#FFFFFF;" width="4.924" height="0.357"/>
		</g>
		<g>
			<polygon style="fill:#FFFFFF;" points="-3.271,17.399 -2.398,17.399 -2.398,17.793 -3.664,17.793 -3.664,17.043 -5.492,17.043 
				-5.492,18.149 -5.134,18.149 -5.134,17.399 -4.019,17.399 -4.019,18.149 -2.041,18.149 -2.041,17.043 -3.271,17.043 			"/>
			<rect x="-1.677" y="18.543" style="fill:#FFFFFF;" width="3.359" height="0.356"/>
			<rect x="-5.492" y="18.543" style="fill:#FFFFFF;" width="3.451" height="0.356"/>
			<path style="fill:#FFFFFF;" d="M1.325,16.317v1.476H0.932v-1.476H0.575v1.476H0.182v-1.476h-0.357v0.726h-1.502v1.106h3.359
				v-1.832H1.325z M-0.175,17.399v0.394H-1.32v-0.394H-0.175z"/>
			<rect x="-4.755" y="17.793" style="fill:#FFFFFF;" width="0.357" height="0.356"/>
			<rect x="-5.492" y="16.319" style="fill:#FFFFFF;" width="4.924" height="0.357"/>
		</g>
		<g>
			<polygon style="fill:#FFFFFF;" points="-10.833,17.399 -9.96,17.399 -9.96,17.793 -11.225,17.793 -11.225,17.043 -13.056,17.043 
				-13.056,18.149 -12.699,18.149 -12.699,17.399 -11.582,17.399 -11.582,18.149 -9.603,18.149 -9.603,17.043 -10.833,17.043 			"/>
			<rect x="-9.24" y="18.543" style="fill:#FFFFFF;" width="3.359" height="0.356"/>
			<rect x="-13.056" y="18.543" style="fill:#FFFFFF;" width="3.453" height="0.356"/>
			<path style="fill:#FFFFFF;" d="M-6.238,16.317v1.476H-6.63v-1.476h-0.357v1.476H-7.38v-1.476h-0.357v0.726H-9.24v1.106h3.359
				v-1.832H-6.238z M-7.738,17.399v0.394h-1.145v-0.394H-7.738z"/>
			<rect x="-12.318" y="17.793" style="fill:#FFFFFF;" width="0.357" height="0.356"/>
			<rect x="-13.056" y="16.319" style="fill:#FFFFFF;" width="4.926" height="0.357"/>
		</g>
	</g>
	<g style="clip-path:url(#SVGID_2_);">
		<path style="fill:#DA0000;" d="M31.997,34.23c-5.23-0.041-9.105-5.563-5.98-10.833C21.747,26.855,23.891,35.689,31.997,34.23z"/>
		<path style="fill:#DA0000;" d="M25.526,23.185c-2.479,1.838-4.201,5.565-1.467,9.785C20.848,31.147,19.818,24.963,25.526,23.185z"
			/>
		<path style="fill:#DA0000;" d="M24.698,34.23c5.229-0.041,9.104-5.563,5.979-10.833C34.948,26.855,32.801,35.689,24.698,34.23z"/>
		<path style="fill:#DA0000;" d="M31.168,23.185c2.477,1.838,4.201,5.565,1.467,9.785C35.844,31.147,36.875,24.963,31.168,23.185z"
			/>
		<polygon style="fill:#DA0000;" points="28.327,22.834 28.327,35.114 29.057,34.178 29.217,23.603 		"/>
		<polygon style="fill:#DA0000;" points="28.327,22.834 28.327,35.114 27.594,34.178 27.436,23.603 		"/>
		<path style="fill:#DA0000;" d="M29.997,21.581c0.75,1.29-1.75,2.094-1.67,0.251C28.653,22.565,29.747,22.527,29.997,21.581z"/>
		<path style="fill:#DA0000;" d="M26.653,21.581c-0.75,1.29,1.75,2.094,1.67,0.251C27.997,22.565,26.903,22.527,26.653,21.581z"/>
	</g>
</g>
</svg>
