<?xml version="1.0" encoding="iso-8859-1"?>
<!-- Generator: Adobe Illustrator 18.1.1, SVG Export Plug-In . SVG Version: 6.00 Build 0)  -->
<svg version="1.1" id="Layer_108" xmlns="http://www.w3.org/2000/svg" xmlns:xlink="http://www.w3.org/1999/xlink" x="0px" y="0px"
	 viewBox="0 0 56.692 56.692" style="enable-background:new 0 0 56.692 56.692;" xml:space="preserve">
<g>
	<defs>
		<circle id="SVGID_1_" cx="28.346" cy="28.345" r="28.347"/>
	</defs>
	<clipPath id="SVGID_2_">
		<use xlink:href="#SVGID_1_"  style="overflow:visible;"/>
	</clipPath>
	<g style="clip-path:url(#SVGID_2_);">
		<rect x="-14.173" y="0" style="fill:#FFFFFF;" width="85.039" height="56.693"/>
		<rect x="-14.173" y="0" width="85.039" height="16.935"/>
		<rect x="-14.173" y="39.757" style="fill:#006600;" width="85.039" height="16.936"/>
		<rect x="-14.173" y="19.879" style="fill:#BB0000;" width="85.039" height="16.934"/>
	</g>
	<g style="clip-path:url(#SVGID_2_);">
		<g>
			<path d="M17.667,45.238l16.764-28.605c-0.772-1.904,4.543-7.457,5.163-8.096l0.564-0.58l-0.231,0.775
				c-0.254,0.852-2.501,8.207-4.539,8.461L18.625,45.797L17.667,45.238z"/>
			<path style="fill:#FFFFFF;" d="M39.737,8.675c0,0-6.072,6.252-5.081,7.967L17.939,45.166l0.615,0.359l16.717-28.524
				C37.249,17.029,39.737,8.675,39.737,8.675z"/>
		</g>
		<g>
			<path d="M39.025,45.238L22.261,16.632c0.773-1.904-4.543-7.457-5.163-8.096l-0.563-0.58l0.23,0.775
				c0.254,0.852,2.501,8.207,4.539,8.461l16.763,28.604L39.025,45.238z"/>
			<path style="fill:#FFFFFF;" d="M16.955,8.675c0,0,6.072,6.252,5.081,7.967l16.717,28.523l-0.615,0.359L21.421,17.001
				C19.443,17.029,16.955,8.675,16.955,8.675z"/>
		</g>
		<path style="fill:#BB0000;" d="M36.854,28.324c0,9.398-6.62,17.018-8.508,17.018c-1.888,0-8.508-7.619-8.508-17.018
			c0-9.396,6.565-17.014,8.508-17.014S36.854,18.927,36.854,28.324z"/>
		<ellipse style="fill:#FFFFFF;" cx="28.346" cy="28.326" rx="1.415" ry="2.125"/>
		<g>
			<path d="M35.119,36.765c1.021-2.488,1.735-5.365,1.735-8.441c0-3.082-0.712-5.963-1.729-8.455
				c-1.109,2.299-1.775,5.244-1.775,8.457C33.349,31.529,34.013,34.468,35.119,36.765z"/>
			<path d="M21.577,19.847c-1.022,2.496-1.738,5.387-1.738,8.477c0,3.084,0.72,5.971,1.745,8.465
				c1.111-2.301,1.779-5.25,1.779-8.463C23.363,25.103,22.692,22.148,21.577,19.847z"/>
		</g>
		<g>
			<path style="fill:#FFFFFF;" d="M28.007,30.468c-0.846,1.191-1.438,4.027-1.438,7.342c0,3.314,0.593,6.153,1.438,7.344V30.468z"/>
			<path style="fill:#FFFFFF;" d="M28.685,30.468c0.846,1.191,1.439,4.027,1.439,7.342c0,3.314-0.593,6.153-1.439,7.344V30.468z"/>
		</g>
		<g>
			<path style="fill:#FFFFFF;" d="M28.007,11.486c-0.846,1.191-1.438,4.029-1.438,7.344c0,3.314,0.593,6.15,1.438,7.343V11.486z"/>
			<path style="fill:#FFFFFF;" d="M28.685,11.486c0.846,1.191,1.439,4.029,1.439,7.344c0,3.314-0.593,6.15-1.439,7.343V11.486z"/>
		</g>
	</g>
</g>
</svg>
