<?xml version="1.0" encoding="iso-8859-1"?>
<!-- Generator: Adobe Illustrator 18.1.1, SVG Export Plug-In . SVG Version: 6.00 Build 0)  -->
<svg version="1.1" id="Layer_166" xmlns="http://www.w3.org/2000/svg" xmlns:xlink="http://www.w3.org/1999/xlink" x="0px" y="0px"
	 viewBox="0 0 56.692 56.692" style="enable-background:new 0 0 56.692 56.692;" xml:space="preserve">
<g>
	<defs>
		<circle id="SVGID_1_" cx="28.346" cy="28.347" r="28.346"/>
	</defs>
	<clipPath id="SVGID_2_">
		<use xlink:href="#SVGID_1_"  style="overflow:visible;"/>
	</clipPath>
	<rect x="-14.174" y="0" style="clip-path:url(#SVGID_2_);fill:#E8112D;" width="85.04" height="56.694"/>
	<g style="clip-path:url(#SVGID_2_);">
		<path style="fill:#FFEF00;" d="M24.443,18.921c-1.204-2.021-0.146-5.205-1.405-6.768c2.31,1.318,1.485,4.629,2.876,6.294
			C25.409,18.572,24.916,18.724,24.443,18.921z M26.004,18.425c0.498-0.117,1.01-0.199,1.532-0.241
			c-1.106-1.866,0.235-5.001-1.834-6.671C26.698,13.259,25.133,16.235,26.004,18.425z M27.572,18.183
			c0.256-0.019,0.513-0.04,0.773-0.04c0.262,0,0.519,0.021,0.775,0.04c-0.801-2.016,1.009-4.903-0.774-6.869
			C29.057,13.191,27.052,15.888,27.572,18.183z M24.426,18.926c-1.62-1.438-1.317-4.825-3.796-5.773
			c1.485,1.354,0.924,4.664,2.432,6.475C23.499,19.364,23.951,19.125,24.426,18.926z M18.896,24.48
			c-2.162,0.134-4.349-2.471-6.769-1.381c2.005-0.099,3.955,2.64,6.299,2.853C18.547,25.447,18.702,24.952,18.896,24.48z
			 M18.17,27.51c0.043-0.521,0.129-1.03,0.247-1.528c-2.118,0.473-4.681-1.769-6.908-0.318C13.475,25.257,15.822,27.66,18.17,27.51z
			 M19.618,23.07c-2.163-0.194-3.922-3.115-6.485-2.41c1.993,0.211,3.497,3.212,5.774,3.788
			C19.107,23.967,19.349,23.51,19.618,23.07z M29.163,18.184c0.522,0.043,1.031,0.124,1.527,0.241
			c-0.474-2.116,1.76-4.684,0.306-6.904C31.405,13.484,29.006,15.837,29.163,18.184z M20.605,21.705
			c0.337-0.391,0.702-0.757,1.094-1.092c-1.99-0.862-2.751-4.184-5.405-4.315C18.124,17.122,18.614,20.451,20.605,21.705z
			 M21.787,20.533c0.394-0.331,0.816-0.625,1.257-0.893c-1.83-1.169-2.042-4.573-4.641-5.132
			C20.076,15.614,20.028,18.97,21.787,20.533z M32.209,18.905c-0.132-2.162,2.469-4.35,1.38-6.766
			c0.099,2.004-2.64,3.956-2.853,6.298C31.244,18.559,31.737,18.712,32.209,18.905z M38.264,25.951
			c0.119,0.494,0.208,1.001,0.253,1.523c1.86-1.114,4.999,0.201,6.651-1.877C43.432,26.605,40.443,25.066,38.264,25.951z
			 M45.394,28.382c-1.878,0.71-4.575-1.299-6.87-0.781c0.019,0.251,0.038,0.504,0.038,0.762c0,0.266-0.019,0.526-0.04,0.788
			C40.539,28.351,43.422,30.165,45.394,28.382z M37.77,24.415c1.436-1.618,4.818-1.326,5.76-3.806
			c-1.35,1.488-4.658,0.938-6.467,2.445C37.329,23.489,37.571,23.941,37.77,24.415z M38.256,25.922
			c1.665-1.39,4.973-0.573,6.286-2.883c-1.56,1.262-4.74,0.21-6.759,1.412C37.979,24.925,38.132,25.418,38.256,25.922z
			 M33.693,19.668c0.44,0.271,0.862,0.57,1.255,0.904c0.54-2.1,3.693-3.374,3.407-6.013C37.829,16.497,34.62,17.505,33.693,19.668z
			 M37.043,23.023c1.162-1.834,4.562-2.06,5.111-4.66c-1.103,1.677-4.454,1.644-6.011,3.405
			C36.476,22.162,36.773,22.581,37.043,23.023z M33.636,19.634c0.198-2.162,3.118-3.917,2.418-6.479
			c-0.215,1.993-3.215,3.491-3.797,5.768C32.739,19.125,33.196,19.367,33.636,19.634z M34.998,20.618
			c0.392,0.337,0.758,0.702,1.095,1.095c0.862-1.99,4.18-2.75,4.314-5.4C39.581,18.142,36.256,18.63,34.998,20.618z M19.633,23.043
			c0.27-0.441,0.566-0.863,0.896-1.257c-2.103-0.529-3.39-3.682-6.027-3.383C16.442,18.921,17.464,22.128,19.633,23.043z
			 M32.291,37.789c1.62,1.436,1.327,4.818,3.809,5.758c-1.489-1.349-0.938-4.658-2.447-6.466
			C33.216,37.347,32.766,37.588,32.291,37.789z M34.924,36.172c-0.392,0.331-0.813,0.628-1.254,0.897
			c1.83,1.165,2.053,4.565,4.652,5.117C36.647,41.084,36.686,37.732,34.924,36.172z M30.803,38.268
			c1.392,1.662,0.579,4.974,2.892,6.283c-1.264-1.556-0.214-4.742-1.422-6.758C31.801,37.992,31.307,38.143,30.803,38.268z
			 M29.118,38.54c-0.256,0.02-0.512,0.04-0.773,0.04c-0.262,0-0.518-0.021-0.774-0.04c0.801,2.016-1.011,4.905,0.774,6.874
			C27.632,43.537,29.639,40.835,29.118,38.54z M30.711,38.293c-0.496,0.119-1.006,0.2-1.527,0.244c1.105,1.864-0.226,5,1.847,6.664
			C30.032,43.459,31.586,40.477,30.711,38.293z M36.105,34.997c-0.336,0.393-0.701,0.759-1.093,1.096
			c1.992,0.855,2.762,4.175,5.415,4.3C38.595,39.573,38.096,36.25,36.105,34.997z M38.52,29.18c-0.041,0.524-0.123,1.033-0.24,1.532
			c2.115-0.479,4.686,1.758,6.907,0.301C43.222,31.425,40.869,29.026,38.52,29.18z M37.072,33.655
			c-0.268,0.442-0.561,0.866-0.892,1.26c2.102,0.528,3.397,3.67,6.033,3.364C40.272,37.767,39.242,34.566,37.072,33.655z
			 M37.804,32.216c2.162-0.141,4.354,2.459,6.772,1.363c-2.005,0.104-3.961-2.629-6.305-2.838
			C38.151,31.25,37.998,31.742,37.804,32.216z M37.088,33.628c2.162,0.189,3.928,3.104,6.489,2.393
			c-1.995-0.207-3.505-3.203-5.784-3.774C37.594,32.727,37.354,33.187,37.088,33.628z M18.418,30.746
			c-0.119-0.496-0.204-1.004-0.248-1.525c-1.862,1.109-4.999-0.215-6.657,1.859C13.252,30.076,16.237,31.625,18.418,30.746z
			 M18.425,30.773c-1.669,1.385-4.972,0.558-6.292,2.865c1.562-1.258,4.741-0.195,6.763-1.396
			C18.702,31.771,18.548,31.279,18.425,30.773z M18.909,32.279c-1.439,1.617-4.82,1.316-5.77,3.793
			c1.354-1.484,4.66-0.926,6.473-2.426C19.347,33.209,19.107,32.755,18.909,32.279z M19.631,33.679
			c-1.17,1.826-4.566,2.045-5.123,4.643c1.108-1.674,4.456-1.631,6.018-3.389C20.196,34.54,19.901,34.118,19.631,33.679z
			 M27.504,38.537c-0.521-0.044-1.03-0.127-1.527-0.244c0.473,2.115-1.77,4.682-0.317,6.908
			C25.251,43.234,27.658,40.884,27.504,38.537z M18.165,29.092c-0.018-0.241-0.037-0.483-0.037-0.729
			c0-0.278,0.019-0.549,0.041-0.82c-2.02,0.792-4.898-1.028-6.873,0.75C13.175,27.587,15.868,29.605,18.165,29.092z M21.67,36.087
			c-0.391-0.338-0.756-0.703-1.092-1.096c-0.87,1.984-4.187,2.735-4.327,5.387C17.082,38.55,20.407,38.07,21.67,36.087z
			 M23.03,37.076c-0.205,2.159-3.127,3.906-2.435,6.468c0.22-1.989,3.22-3.479,3.81-5.754C23.924,37.588,23.469,37.345,23.03,37.076
			z M24.442,37.804c0.125,2.159-2.482,4.339-1.4,6.764c-0.094-2.006,2.653-3.95,2.871-6.293C25.408,38.151,24.915,38,24.442,37.804z
			 M22.973,37.04c-0.441-0.272-0.86-0.573-1.252-0.907c-0.547,2.098-3.703,3.363-3.423,6.002
			C18.83,40.198,22.038,39.201,22.973,37.04z M21.588,22.514c0.021-0.001,0.041-0.001,0.062-0.001c1.992,0.019,3.87,0.5,5.542,1.329
			c0.156-0.092,0.314-0.181,0.474-0.267c-1.699-0.82-3.604-1.283-5.62-1.283c-0.102,0-0.202,0.009-0.303,0.016
			C21.688,22.375,21.641,22.447,21.588,22.514z M21.242,22.98c1.802,0.145,3.487,0.675,4.991,1.492
			c0.155-0.112,0.312-0.222,0.473-0.324c-1.59-0.84-3.379-1.344-5.285-1.409C21.362,22.82,21.297,22.896,21.242,22.98z
			 M28.345,19.195c-2.534,0-4.806,1.109-6.372,2.859c0.269-0.018,0.535-0.044,0.809-0.044c1.981,0,3.856,0.444,5.537,1.231
			c1.682-0.787,3.557-1.231,5.537-1.231c0.292,0,0.576,0.028,0.863,0.048C33.153,20.304,30.881,19.195,28.345,19.195z
			 M30.407,24.472c1.518-0.824,3.219-1.359,5.038-1.498c-0.056-0.082-0.12-0.158-0.179-0.24c-1.924,0.059-3.729,0.567-5.332,1.414
			C30.094,24.251,30.251,24.36,30.407,24.472z M28.814,24.812c0.161,0.113,0.326,0.218,0.481,0.339
			c0.151-0.104,0.305-0.204,0.461-0.302c-0.154-0.115-0.314-0.221-0.473-0.328C29.126,24.617,28.967,24.709,28.814,24.812z
			 M26.883,24.849c0.156,0.098,0.31,0.197,0.461,0.302c0.155-0.121,0.32-0.226,0.481-0.339c-0.153-0.104-0.312-0.195-0.47-0.291
			C27.197,24.628,27.038,24.734,26.883,24.849z M34.795,22.139c0.048,0.056,0.092,0.114,0.139,0.169
			c0.004,0.001,0.01,0.001,0.015,0.001C34.901,22.251,34.848,22.197,34.795,22.139z M28.973,23.576
			c0.16,0.086,0.317,0.175,0.474,0.267c1.672-0.829,3.55-1.31,5.542-1.329c0.039,0,0.076,0.004,0.115,0.004
			c-0.055-0.07-0.113-0.139-0.17-0.209c-0.114-0.003-0.226-0.016-0.341-0.016C32.578,22.293,30.672,22.755,28.973,23.576z
			 M24.749,35.509c0-0.002,0-0.006,0-0.009c-0.31-0.144-0.613-0.3-0.902-0.479C24.137,35.201,24.437,35.364,24.749,35.509z
			 M36.903,27.753c0-1.691-0.501-3.261-1.348-4.586c-1.718,0.199-3.32,0.766-4.743,1.607c2.358,1.838,4.076,4.459,4.749,7.48
			c-0.219,0.352-0.457,0.691-0.723,1.005c-0.504-3.255-2.223-6.102-4.67-8.085c-0.154,0.104-0.304,0.217-0.453,0.325
			c2.467,2.071,4.146,5.043,4.509,8.413c-0.277,0.267-0.574,0.513-0.886,0.74c-0.158-3.478-1.725-6.581-4.131-8.753
			c-0.15,0.125-0.299,0.253-0.443,0.386c2.375,2.195,3.904,5.285,4.031,8.734c-0.291,0.18-0.592,0.343-0.904,0.488
			c0.024-3.433-1.348-6.537-3.571-8.789c-2.222,2.25-3.593,5.352-3.571,8.78c1.095,0.513,2.309,0.809,3.597,0.809
			C33.071,36.309,36.903,32.477,36.903,27.753z M35.469,23.014c0.032,0.05,0.055,0.104,0.086,0.153c0.002,0,0.004-0.003,0.006-0.003
			C35.53,23.117,35.5,23.066,35.469,23.014z M26.924,25.501c-0.149-0.108-0.299-0.221-0.453-0.325
			c-2.447,1.982-4.166,4.83-4.67,8.085c0.193,0.229,0.398,0.445,0.614,0.653C22.778,30.543,24.457,27.572,26.924,25.501z
			 M28.32,23.926c-0.159,0.088-0.321,0.176-0.477,0.271c0.159,0.091,0.322,0.174,0.477,0.272c0.154-0.099,0.317-0.182,0.476-0.272
			C28.641,24.102,28.479,24.014,28.32,23.926z M25.828,24.775c-1.412-0.834-3-1.399-4.704-1.603
			c-0.842,1.327-1.336,2.894-1.336,4.581c0,2.098,0.758,4.015,2.011,5.504c-0.265-0.314-0.502-0.65-0.72-1.002
			C21.751,29.234,23.469,26.613,25.828,24.775z M27.856,25.523c0.157,0.119,0.312,0.24,0.464,0.366
			c0.151-0.126,0.307-0.247,0.464-0.366c-0.15-0.123-0.309-0.234-0.464-0.351C28.165,25.289,28.006,25.4,27.856,25.523z
			 M27.875,26.287c-0.144-0.133-0.293-0.261-0.443-0.386c-2.406,2.172-3.973,5.274-4.131,8.753c0.176,0.129,0.357,0.251,0.543,0.367
			C23.971,31.572,25.5,28.482,27.875,26.287z"/>
	</g>
</g>
</svg>
