<?xml version="1.0" encoding="iso-8859-1"?>
<!-- Generator: Adobe Illustrator 18.1.1, SVG Export Plug-In . SVG Version: 6.00 Build 0)  -->
<svg version="1.1" id="Layer_179" xmlns="http://www.w3.org/2000/svg" xmlns:xlink="http://www.w3.org/1999/xlink" x="0px" y="0px"
	 viewBox="0 0 56.692 56.692" style="enable-background:new 0 0 56.692 56.692;" xml:space="preserve">
<g>
	<defs>
		<circle id="SVGID_1_" cx="28.346" cy="28.347" r="28.346"/>
	</defs>
	<clipPath id="SVGID_2_">
		<use xlink:href="#SVGID_1_"  style="overflow:visible;"/>
	</clipPath>
	<g style="clip-path:url(#SVGID_2_);">
		<rect x="-15.945" y="0" style="fill:#032EA1;" width="88.583" height="56.693"/>
		<rect x="-15.945" y="14.173" style="fill:#E00025;" width="88.583" height="28.346"/>
		<g transform="translate(117.14286,-434.9336)">
			<g>
				<path style="fill:#FFFFFF;stroke:#000000;stroke-width:0.1361;stroke-linejoin:bevel;" d="M-96.782,461.654h16.129v6.206
					h-16.129V461.654z"/>
				
					<rect x="-81.484" y="465.081" style="fill:#FFFFFF;stroke:#000000;stroke-width:0.1361;stroke-linejoin:bevel;" width="0.508" height="2.338"/>
				
					<rect x="-96.782" y="463.926" style="fill:#FFFFFF;stroke:#000000;stroke-width:0.1361;stroke-linejoin:bevel;" width="16.129" height="0.721"/>
				
					<rect x="-96.782" y="462.948" style="fill:#FFFFFF;stroke:#000000;stroke-width:0.1361;stroke-linejoin:bevel;" width="16.129" height="0.636"/>
				
					<rect x="-96.782" y="461.971" style="fill:#FFFFFF;stroke:#000000;stroke-width:0.134;stroke-linejoin:bevel;" width="16.129" height="0.617"/>
				
					<rect x="-92.535" y="465.081" style="fill:#FFFFFF;stroke:#000000;stroke-width:0.1361;stroke-linejoin:bevel;" width="0.508" height="2.338"/>
				
					<rect x="-85.592" y="465.081" style="fill:#FFFFFF;stroke:#000000;stroke-width:0.1361;stroke-linejoin:bevel;" width="0.508" height="2.338"/>
				
					<rect x="-96.654" y="465.081" style="fill:#FFFFFF;stroke:#000000;stroke-width:0.1361;stroke-linejoin:bevel;" width="0.508" height="2.338"/>
				
					<rect x="-95.658" y="465.081" style="fill:#FFFFFF;stroke:#000000;stroke-width:0.1361;stroke-linejoin:bevel;" width="0.508" height="2.338"/>
				
					<rect x="-94.595" y="465.081" style="fill:#FFFFFF;stroke:#000000;stroke-width:0.1361;stroke-linejoin:bevel;" width="0.508" height="2.338"/>
				
					<rect x="-93.532" y="465.081" style="fill:#FFFFFF;stroke:#000000;stroke-width:0.1361;stroke-linejoin:bevel;" width="0.508" height="2.338"/>
				
					<rect x="-84.628" y="465.081" style="fill:#FFFFFF;stroke:#000000;stroke-width:0.1361;stroke-linejoin:bevel;" width="0.508" height="2.338"/>
				
					<rect x="-83.565" y="465.081" style="fill:#FFFFFF;stroke:#000000;stroke-width:0.1361;stroke-linejoin:bevel;" width="0.508" height="2.338"/>
				
					<rect x="-82.502" y="465.081" style="fill:#FFFFFF;stroke:#000000;stroke-width:0.1361;stroke-linejoin:bevel;" width="0.508" height="2.338"/>
				<path style="fill:#FFFFFF;stroke:#000000;stroke-width:0.1361;" d="M-103.09,468.186c0.25-0.127,0.534-0.423,0.627-0.754h27.364
					c0.093,0.331,0.378,0.627,0.627,0.754H-103.09z"/>
			</g>
			<g>
				<g>
					<path style="fill:#FFFFFF;stroke:#000000;stroke-width:0.1361;" d="M-89.131,452.206c0,0-0.02-0.583,0.319-0.589
						c0.339,0.006,0.319,0.589,0.319,0.589H-89.131z"/>
					<path style="fill:#FFFFFF;stroke:#000000;stroke-width:0.1361;" d="M-90.901,459.936v-0.785
						c-0.011-0.392-0.391-0.421-0.402-0.707c0,0-0.049-0.429,0.064-0.625c0.154,0.574,0.433,0.468,0.433,0.232
						c0-0.206-0.158-0.397-0.483-0.897c-0.104-0.16-0.04-0.66,0.106-0.839c0.056,0.435,0.121,0.643,0.308,0.643
						c0.114,0,0.207-0.074,0.207-0.292c0-0.277-0.188-0.417-0.28-0.67c-0.108-0.294-0.034-0.595,0.145-0.762
						c0.077,0.429,0.054,0.601,0.245,0.601c0.385-0.122,0-0.678-0.082-0.819c-0.095-0.164,0.127-0.49,0.127-0.49
						c0.122,0.381,0.161,0.412,0.293,0.377c0.166-0.045,0.145-0.291-0.058-0.491c-0.128-0.126-0.115-0.313,0.023-0.464
						c0.138,0.27,0.315,0.254,0.332,0.093l-0.111-0.623h2.446l-0.121,0.602c-0.035,0.172,0.198,0.21,0.342-0.073
						c0.138,0.151,0.151,0.338,0.023,0.464c-0.203,0.199-0.224,0.446-0.058,0.491c0.132,0.035,0.171,0.004,0.293-0.377
						c0,0,0.199,0.223,0.127,0.49c-0.082,0.14-0.467,0.697-0.082,0.819c0.191,0,0.168-0.171,0.245-0.601
						c0.179,0.168,0.253,0.468,0.145,0.762c-0.092,0.252-0.28,0.392-0.28,0.67c0,0.218,0.093,0.292,0.207,0.292
						c0.187,0,0.251-0.208,0.308-0.643c0.145,0.179,0.21,0.68,0.106,0.839c-0.325,0.5-0.483,0.691-0.483,0.897
						c0,0.236,0.279,0.341,0.433-0.232c0.113,0.196,0.064,0.625,0.064,0.625c-0.011,0.286-0.391,0.314-0.402,0.707v0.785H-90.901z"
						/>
					<path style="fill:#FFFFFF;stroke:#000000;stroke-width:0.1361;" d="M-89.878,453.414l-0.056-0.443h2.245l-0.056,0.443H-89.878z
						"/>
					<path style="fill:#FFFFFF;stroke:#000000;stroke-width:0.1361;" d="M-89.728,452.961l-0.048-0.364h1.928l-0.048,0.364H-89.728z
						"/>
					<path style="fill:#FFFFFF;stroke:#000000;stroke-width:0.1361;" d="M-89.421,452.584l-0.032-0.364h1.284l-0.032,0.364H-89.421z
						"/>
					<path style="fill:#FFFFFF;stroke:#000000;stroke-width:0.1361;" d="M-84.741,468.186c-0.287-0.111-0.705-0.414-0.705-0.719
						v-3.444l0.374-0.476h-7.48l0.358,0.476v3.444c0,0.305-0.287,0.608-0.574,0.719H-84.741z"/>
					
						<rect x="-91.223" y="465.081" style="fill:#FFFFFF;stroke:#000000;stroke-width:0.1361;stroke-linejoin:bevel;" width="0.508" height="2.338"/>
					
						<rect x="-86.926" y="465.081" style="fill:#FFFFFF;stroke:#000000;stroke-width:0.1361;stroke-linejoin:bevel;" width="0.508" height="2.338"/>
					<path style="fill:#FFFFFF;stroke:#000000;stroke-width:0.1361;" d="M-92.687,459.629v2.076v0.994v0.85h7.657v-0.844
						l0.011-3.075c-0.313,0.123-0.368,0.407-0.368,0.407v1.669h-6.909v-1.669C-92.297,460.035-92.374,459.752-92.687,459.629
						L-92.687,459.629z"/>
					<path style="fill:#FFFFFF;stroke:#000000;stroke-width:0.1361;" d="M-86.07,468.186c-0.25-0.111-0.795-0.414-0.795-0.719
						v-3.854c0.054-0.215,0.345-0.342,0.533-0.476h-5.077c0.242,0.128,0.511,0.234,0.607,0.476v3.854
						c0,0.305-0.431,0.608-0.681,0.719H-86.07z"/>
					<path style="fill:#FFFFFF;stroke:#000000;stroke-width:0.1361;" d="M-85.388,463.179l0-2.776h-0.696v-0.271h-5.505v0.271
						l-0.696,0l0,2.776L-85.388,463.179z"/>
					<path style="fill:#FFFFFF;stroke:#000000;stroke-width:0.1361;" d="M-87.167,468.186c-0.245-0.111-0.602-0.414-0.602-0.719
						v-3.29l0.201-0.299h-2.507l0.201,0.299v3.29c0,0.305-0.357,0.608-0.602,0.719L-87.167,468.186z"/>
					<path style="fill:#FFFFFF;stroke:#000000;stroke-width:0.139;" d="M-89.455,463.879h1.271v4.305h-1.271V463.879z"/>
					<path style="fill:#FFFFFF;stroke:#000000;stroke-width:0.1361;stroke-linejoin:bevel;" d="M-87.518,462.932
						c0.003-0.284,0.827-0.296,1.252-0.538h-5.096c0.424,0.241,1.23,0.261,1.23,0.538l0.172,0.55l2.109,0.085L-87.518,462.932z"/>
					<path style="fill:#FFFFFF;stroke:#000000;stroke-width:0.1361;" d="M-86.522,459.936c0-0.694,0.029-0.962,0.242-0.962l0,2.208
						c-0.523,0.19-0.897,0.857-0.897,0.857l-3.29,0c0,0-0.373-0.668-0.897-0.857v-2.208c0.263,0,0.265,0.279,0.265,0.962H-86.522z"
						/>
					<path style="fill:#FFFFFF;stroke:#000000;stroke-width:0.1361;" d="M-86.279,459.651c0-0.796,0.688-0.886,0.688-0.886v0.709
						c-0.262-0.011-0.388,0.224-0.388,0.573c0,0.35,0.211,0.355,0.211,0.355v2.011h-0.51V459.651z"/>
					<path style="fill:#FFFFFF;stroke:#000000;stroke-width:0.1361;" d="M-91.359,459.651c0-0.796-0.688-0.886-0.688-0.886v0.709
						c0.262-0.011,0.388,0.224,0.388,0.573c0,0.35-0.211,0.355-0.211,0.355v2.011h0.51V459.651z"/>
				</g>
				<g>
					<path style="fill:none;stroke:#000000;stroke-width:0.1134;" d="M-90.004,454.165h2.428"/>
					<path style="fill:none;stroke:#000000;stroke-width:0.1134;" d="M-90.292,454.923h2.965"/>
					<path style="fill:none;stroke:#000000;stroke-width:0.1134;" d="M-90.579,455.843h3.53"/>
					<path style="fill:none;stroke:#000000;stroke-width:0.1134;" d="M-90.88,456.967h4.186"/>
					<path style="fill:none;stroke:#000000;stroke-width:0.1134;" d="M-90.976,458.248h4.312"/>
					<path style="fill:none;stroke:#000000;stroke-width:0.1361;" d="M-92.284,462.428h6.897"/>
					<rect x="-90.096" y="462.429" style="fill:none;stroke:#000000;stroke-width:0.1361;" width="2.556" height="0.94"/>
				</g>
				<g>
					<path style="fill:#FFFFFF;stroke:#000000;stroke-width:0.1361;" d="M-90.416,460.347c0.424,0.509,0.384,1.372,0.38,1.881h2.458
						c-0.005-0.509-0.044-1.372,0.38-1.881H-90.416z"/>
					<path style="fill:#FFFFFF;stroke:#000000;stroke-width:0.1361;" d="M-89.035,454.518l-0.337-0.173v-0.496
						c0.138,0.041,0.292,0.058,0.307,0.278c0.048-0.313,0.134-0.298,0.27-0.42c0.136,0.122,0.222,0.107,0.27,0.42
						c0.015-0.219,0.17-0.236,0.307-0.278v0.496l-0.337,0.173H-89.035z"/>
					<path style="fill:#FFFFFF;stroke:#000000;stroke-width:0.1361;" d="M-89.057,455.331l-0.559-0.384v-0.457
						c0.196,0.045,0.416,0.064,0.438,0.305c0.068-0.343,0.191-0.521,0.385-0.655c0.193,0.134,0.317,0.311,0.385,0.655
						c0.022-0.241,0.242-0.259,0.438-0.305v0.457l-0.559,0.384H-89.057z"/>
					<path style="fill:#FFFFFF;stroke:#000000;stroke-width:0.1361;" d="M-89.097,456.6l-0.643-0.565v-0.671
						c0.225,0.067,0.479,0.094,0.503,0.447c0.079-0.505,0.22-0.765,0.442-0.962c0.222,0.197,0.364,0.457,0.442,0.962
						c0.025-0.353,0.278-0.381,0.503-0.447v0.671l-0.643,0.565H-89.097z"/>
					<path style="fill:#FFFFFF;stroke:#000000;stroke-width:0.1361;" d="M-87.911,457.349l-0.582,0.804h-0.659l-0.582-0.804H-87.911
						z"/>
					<path style="fill:#FFFFFF;stroke:#000000;stroke-width:0.1361;" d="M-90.068,458.7c0.291,0.159,0.398,0.476,0.429,1.07h1.637
						c0.031-0.595,0.139-0.911,0.429-1.07H-90.068z"/>
					<path style="fill:#FFFFFF;stroke:#000000;stroke-width:0.1361;stroke-linejoin:bevel;" d="M-87.548,457.349v-0.808
						c-0.276,0.076-0.455,0.24-0.535,0.462c0-0.268-0.353-0.887-0.738-1.195c-0.386,0.345-0.745,0.904-0.738,1.195
						c-0.066-0.211-0.259-0.386-0.535-0.462v0.808L-87.548,457.349z"/>
					<path style="fill:#FFFFFF;stroke:#000000;stroke-width:0.1361;stroke-linejoin:bevel;" d="M-87.424,458.7l0-0.808
						c-0.303,0.076-0.499,0.24-0.587,0.462c0-0.268-0.387-0.887-0.809-1.195c-0.423,0.345-0.817,0.904-0.809,1.195
						c-0.072-0.211-0.284-0.386-0.587-0.462v0.808L-87.424,458.7z"/>
					<path style="fill:#FFFFFF;stroke:#000000;stroke-width:0.1361;stroke-linejoin:bevel;" d="M-87.084,460.358v-0.932
						c-0.377,0.097-0.611,0.376-0.73,0.539c0-0.505-0.57-1.274-1.006-1.526c-0.448,0.259-1.006,1.054-1.006,1.526
						c-0.122-0.162-0.353-0.441-0.73-0.539v0.932H-87.084z"/>
					<path style="fill:#FFFFFF;stroke:#000000;stroke-width:0.1361;stroke-linejoin:bevel;" d="M-87.288,462.428v-0.958
						c-0.333,0.13-0.432,0.451-0.537,0.668c0.041-0.972-0.547-2.017-0.996-2.282c-0.448,0.265-1.048,1.332-0.996,2.282
						c-0.107-0.216-0.204-0.538-0.537-0.668v0.958H-87.288z"/>
					<path style="fill:#FFFFFF;stroke:#000000;stroke-width:0.1361;" d="M-87.521,463.879v-0.958
						c-0.348,0.083-0.37,0.211-0.481,0.426c0.041-0.581-0.37-1.243-0.818-1.508c-0.448,0.265-0.859,0.927-0.818,1.508
						c-0.111-0.215-0.124-0.343-0.481-0.426v0.958H-87.521z"/>
				</g>
			</g>
			<g id="tower">
				<g>
					<path style="fill:#FFFFFF;stroke:#000000;stroke-width:0.1361;" d="M-102.463,467.432v-2.897
						c-0.095-0.369-0.408-0.695-0.644-0.761v-2.55l0.53,0.287l0.605,2.666v3.255L-102.463,467.432z"/>
					<path style="fill:#FFFFFF;stroke:#000000;stroke-width:0.1361;" d="M-102.463,467.444v-2.908
						c-0.095-0.369-0.408-0.695-0.644-0.761v-2.727c0.356,0,0.53,0.464,0.53,0.464l0.605,2.666v3.244L-102.463,467.444z"/>
					<path style="fill:#FFFFFF;stroke:#000000;stroke-width:0.1361;" d="M-102.84,468.186c0.245-0.111,0.602-0.414,0.602-0.719
						v-3.621l-0.168-0.299h6.168l-0.241,0.299v3.621c0,0.305,0.245,0.608,0.49,0.719H-102.84z"/>
					<path style="fill:#FFFFFF;stroke:#000000;stroke-width:0.1361;" d="M-97.232,468.186c-0.245-0.111-0.602-0.414-0.602-0.719
						v-3.444l0.513-0.476l-4.194,0l0.513,0.476v3.444c0,0.305-0.357,0.608-0.602,0.719H-97.232z"/>
					<path style="fill:#FFFFFF;stroke:#000000;stroke-width:0.1361;" d="M-97.821,468.186c-0.245-0.111-0.602-0.414-0.602-0.719
						v-3.113l0.336-0.476h-2.664l0.336,0.476v3.113c0,0.305-0.357,0.608-0.602,0.719H-97.821z"/>
					<path style="fill:#FFFFFF;stroke:#000000;stroke-width:0.1361;" d="M-100.056,463.879h1.273l0,4.308h-1.273L-100.056,463.879z"
						/>
					
						<rect x="-101.788" y="465.081" style="fill:#FFFFFF;stroke:#000000;stroke-width:0.1361;stroke-linejoin:bevel;" width="0.508" height="2.338"/>
					
						<rect x="-97.429" y="465.081" style="fill:#FFFFFF;stroke:#000000;stroke-width:0.1361;stroke-linejoin:bevel;" width="0.508" height="2.338"/>
					<path style="fill:#FFFFFF;stroke:#000000;stroke-width:0.1361;stroke-linejoin:bevel;" d="M-102.221,461.138h0.612v2.397
						h-0.612V461.138z"/>
					<path style="fill:#FFFFFF;stroke:#000000;stroke-width:0.1361;stroke-linejoin:bevel;" d="M-102.221,460.687h0.609v0.445
						h-0.609V460.687z"/>
					<path style="fill:#FFFFFF;stroke:#000000;stroke-width:0.1465;stroke-linejoin:bevel;" d="M-97.186,461.654h0.873v1.85h-0.873
						V461.654z"/>
					<path style="fill:#FFFFFF;stroke:#000000;stroke-width:0.1361;" d="M-101.619,463.516v-4.102c0.175,0,0.202,0.601,0.602,0.601
						c0.209,0,0.186-0.249,0.069-0.452c-0.104-0.18-0.232-0.428-0.058-0.89c0.119,0.354,0.441,0.466,0.382,0.244
						c-0.102-0.381-0.396-0.444-0.176-1.035c0.077,0.493,0.393,0.472,0.316,0.185c-0.087-0.323-0.265-0.456-0.045-0.911
						c0.124,0.517,0.291,0.487,0.291,0.166c0-0.474-0.018-0.986,0.596-1.176c0,0,0.035-0.435,0.257-0.435s0.257,0.435,0.257,0.435
						c0.614,0.19,0.596,0.701,0.596,1.176c0,0.321,0.167,0.351,0.291-0.166c0.221,0.455,0.042,0.588-0.045,0.911
						c-0.077,0.287,0.24,0.309,0.316-0.185c0.221,0.591-0.073,0.654-0.176,1.035c-0.059,0.222,0.262,0.11,0.382-0.244
						c0.174,0.462,0.046,0.71-0.058,0.89c-0.117,0.203-0.139,0.452,0.069,0.452c0.401,0,0.428-0.601,0.602-0.601v4.102H-101.619z"/>
					<path style="fill:#FFFFFF;stroke:#000000;stroke-width:0.1361;" d="M-102.578,460.418l0,3.129h0.356l0-3.137
						C-102.35,460.345-102.471,460.335-102.578,460.418L-102.578,460.418z"/>
					<path style="fill:#FFFFFF;stroke:#000000;stroke-width:0.1361;" d="M-102.567,462.443c0.441,0.226,0.878,0.486,0.989,1.105
						h-0.989V462.443z"/>
					<path style="fill:#FFFFFF;stroke:#000000;stroke-width:0.1361;" d="M-96.449,461.506l0,2.042h0.288v-2.047
						C-96.25,461.459-96.373,461.453-96.449,461.506L-96.449,461.506z"/>
					<path style="fill:#FFFFFF;stroke:#000000;stroke-width:0.1361;" d="M-96.159,462.428c-0.441,0.226-0.878,0.486-0.989,1.105
						h0.989V462.428z"/>
				</g>
				<g>
					<path style="fill:#FFFFFF;stroke:#000000;stroke-width:0.1361;" d="M-99.076,457.658l0.257-0.216v-0.277
						c-0.094,0.009-0.145,0.041-0.215,0.133c-0.059-0.183-0.189-0.327-0.363-0.416c-0.174,0.089-0.304,0.226-0.363,0.409
						c-0.069-0.091-0.121-0.117-0.215-0.126v0.277l0.257,0.216H-99.076z"/>
					<path style="fill:#FFFFFF;stroke:#000000;stroke-width:0.1361;" d="M-98.939,458.352l0.12-0.259v-0.36
						c-0.094,0.009-0.145,0.042-0.215,0.134c-0.059-0.186-0.189-0.331-0.363-0.422c-0.174,0.09-0.304,0.229-0.363,0.415
						c-0.069-0.092-0.121-0.119-0.215-0.128v0.36l0.12,0.259H-98.939z"/>
					<path style="fill:#FFFFFF;stroke:#000000;stroke-width:0.1361;" d="M-98.92,459.291l0.382-0.466v-0.46
						c-0.14,0.016-0.216,0.071-0.319,0.228c-0.088-0.315-0.281-0.384-0.539-0.537c-0.259,0.153-0.452,0.21-0.539,0.525
						c-0.103-0.156-0.179-0.201-0.319-0.216v0.46l0.382,0.466H-98.92z"/>
					<path style="fill:#FFFFFF;stroke:#000000;stroke-width:0.1361;" d="M-98.808,460.214c0,0,0.445-0.388,0.472-0.601v-0.491
						c-0.173,0.02-0.336,0.065-0.463,0.267c-0.108-0.407-0.278-0.52-0.597-0.717c-0.319,0.197-0.489,0.311-0.597,0.717
						c-0.127-0.202-0.291-0.247-0.463-0.267v0.491c0.056,0.213,0.472,0.601,0.472,0.601H-98.808z"/>
					<path style="fill:#FFFFFF;stroke:#000000;stroke-width:0.1361;" d="M-98.618,461.917c0,0,0.61-0.675,0.624-0.938v-0.766
						c-0.228,0.032-0.444,0.188-0.612,0.503c-0.143-0.634-0.367-1.076-0.789-1.384c-0.422,0.308-0.646,0.75-0.789,1.384
						c-0.169-0.315-0.384-0.472-0.612-0.503v0.766c0.044,0.263,0.624,0.938,0.624,0.938H-98.618z"/>
					<path style="fill:#FFFFFF;stroke:#000000;stroke-width:0.1361;" d="M-98.618,462.925c0,0,0.521-0.53,0.624-0.761v-0.766
						c-0.228,0.032-0.444,0.188-0.612,0.503c-0.143-0.634-0.367-0.997-0.789-1.305c-0.422,0.308-0.646,0.671-0.789,1.305
						c-0.169-0.315-0.384-0.472-0.612-0.503v0.766c0.132,0.23,0.624,0.761,0.624,0.761H-98.618z"/>
					<path style="fill:#FFFFFF;stroke:#000000;stroke-width:0.1361;" d="M-98.409,463.511c-0.152-0.662-0.283-1.152-1.015-1.65
						c-0.732,0.498-0.863,0.988-1.015,1.65H-98.409z"/>
					<path style="fill:#FFFFFF;stroke:#000000;stroke-width:0.1361;" d="M-98.032,463.879v-0.958
						c-0.333,0.13-0.633,0.323-0.744,0.538c-0.124-0.532-0.362-0.766-0.66-1.088c-0.297,0.322-0.496,0.556-0.62,1.088
						c-0.111-0.215-0.411-0.408-0.744-0.538l0,0.958H-98.032z"/>
				</g>
			</g>
			<g transform="matrix(-1,0,0,1,390.73979,0)">
				<g id="tower_1_">
					<g>
						<path style="fill:#FFFFFF;stroke:#000000;stroke-width:0.1361;" d="M-75.127,467.432v-2.897
							c0.095-0.369,0.408-0.695,0.644-0.761v-2.55l-0.53,0.287l-0.605,2.666v3.255L-75.127,467.432z"/>
						<path style="fill:#FFFFFF;stroke:#000000;stroke-width:0.1361;" d="M-75.127,467.444v-2.908
							c0.095-0.369,0.408-0.695,0.644-0.761v-2.727c-0.356,0-0.53,0.464-0.53,0.464l-0.605,2.666v3.244L-75.127,467.444z"/>
						<path style="fill:#FFFFFF;stroke:#000000;stroke-width:0.1361;" d="M-74.75,468.186c-0.245-0.111-0.602-0.414-0.602-0.719
							v-3.621l0.168-0.299h-6.168l0.241,0.299v3.621c0,0.305-0.245,0.608-0.49,0.719H-74.75z"/>
						<path style="fill:#FFFFFF;stroke:#000000;stroke-width:0.1361;" d="M-80.358,468.186c0.245-0.111,0.602-0.414,0.602-0.719
							v-3.444l-0.513-0.476l4.194,0l-0.513,0.476v3.444c0,0.305,0.357,0.608,0.602,0.719H-80.358z"/>
						<path style="fill:#FFFFFF;stroke:#000000;stroke-width:0.1361;" d="M-79.77,468.186c0.245-0.111,0.602-0.414,0.602-0.719
							v-3.113l-0.336-0.476h2.664l-0.336,0.476v3.113c0,0.305,0.357,0.608,0.602,0.719H-79.77z"/>
						<path style="fill:#FFFFFF;stroke:#000000;stroke-width:0.1361;" d="M-77.534,463.879h-1.273v4.308h1.273L-77.534,463.879z"/>
						
							<rect x="-76.311" y="465.081" style="fill:#FFFFFF;stroke:#000000;stroke-width:0.1361;stroke-linejoin:bevel;" width="0.508" height="2.338"/>
						
							<rect x="-80.669" y="465.081" style="fill:#FFFFFF;stroke:#000000;stroke-width:0.1361;stroke-linejoin:bevel;" width="0.508" height="2.338"/>
						<path style="fill:#FFFFFF;stroke:#000000;stroke-width:0.1361;stroke-linejoin:bevel;" d="M-75.369,461.138h-0.612v2.397
							h0.612V461.138z"/>
						<path style="fill:#FFFFFF;stroke:#000000;stroke-width:0.1361;stroke-linejoin:bevel;" d="M-75.369,460.687h-0.609v0.445
							h0.609V460.687z"/>
						<path style="fill:#FFFFFF;stroke:#000000;stroke-width:0.1465;stroke-linejoin:bevel;" d="M-80.405,461.654h-0.873v1.85h0.873
							V461.654z"/>
						<path style="fill:#FFFFFF;stroke:#000000;stroke-width:0.1361;" d="M-75.971,463.516v-4.102c-0.175,0-0.202,0.601-0.602,0.601
							c-0.209,0-0.186-0.249-0.069-0.452c0.104-0.18,0.232-0.428,0.058-0.89c-0.119,0.354-0.441,0.466-0.382,0.244
							c0.102-0.381,0.396-0.444,0.176-1.035c-0.077,0.493-0.393,0.472-0.316,0.185c0.087-0.323,0.265-0.456,0.045-0.911
							c-0.124,0.517-0.291,0.487-0.291,0.166c0-0.474,0.018-0.986-0.596-1.176c0,0-0.035-0.435-0.257-0.435
							c-0.221,0-0.257,0.435-0.257,0.435c-0.614,0.19-0.596,0.701-0.596,1.176c0,0.321-0.167,0.351-0.291-0.166
							c-0.221,0.455-0.042,0.588,0.045,0.911c0.077,0.287-0.24,0.309-0.316-0.185c-0.221,0.591,0.073,0.654,0.176,1.035
							c0.059,0.222-0.262,0.11-0.382-0.244c-0.174,0.462-0.046,0.71,0.058,0.89c0.117,0.203,0.139,0.452-0.069,0.452
							c-0.401,0-0.428-0.601-0.602-0.601v4.102H-75.971z"/>
						<path style="fill:#FFFFFF;stroke:#000000;stroke-width:0.1361;" d="M-75.012,460.418l0,3.129h-0.356l0-3.137
							C-75.24,460.345-75.119,460.335-75.012,460.418L-75.012,460.418z"/>
						<path style="fill:#FFFFFF;stroke:#000000;stroke-width:0.1361;" d="M-75.023,462.443c-0.441,0.226-0.878,0.486-0.989,1.105
							h0.989V462.443z"/>
						<path style="fill:#FFFFFF;stroke:#000000;stroke-width:0.1361;" d="M-81.142,461.506l0,2.042h-0.288v-2.047
							C-81.34,461.459-81.217,461.453-81.142,461.506L-81.142,461.506z"/>
						<path style="fill:#FFFFFF;stroke:#000000;stroke-width:0.1361;" d="M-81.431,462.428c0.441,0.226,0.878,0.486,0.989,1.105
							h-0.989V462.428z"/>
					</g>
					<g>
						<path style="fill:#FFFFFF;stroke:#000000;stroke-width:0.1361;" d="M-78.514,457.658l-0.257-0.216v-0.277
							c0.094,0.009,0.145,0.041,0.215,0.133c0.059-0.183,0.189-0.327,0.363-0.416c0.174,0.089,0.304,0.226,0.363,0.409
							c0.069-0.091,0.121-0.117,0.215-0.126v0.277l-0.257,0.216H-78.514z"/>
						<path style="fill:#FFFFFF;stroke:#000000;stroke-width:0.1361;" d="M-78.651,458.352l-0.12-0.259v-0.36
							c0.094,0.009,0.145,0.042,0.215,0.134c0.059-0.186,0.189-0.331,0.363-0.422c0.174,0.09,0.304,0.229,0.363,0.415
							c0.069-0.092,0.121-0.119,0.215-0.128v0.36l-0.12,0.259H-78.651z"/>
						<path style="fill:#FFFFFF;stroke:#000000;stroke-width:0.1361;" d="M-78.67,459.291l-0.382-0.466v-0.46
							c0.14,0.016,0.216,0.071,0.319,0.228c0.088-0.315,0.281-0.384,0.539-0.537c0.259,0.153,0.452,0.21,0.539,0.525
							c0.103-0.156,0.179-0.201,0.319-0.216v0.46l-0.382,0.466H-78.67z"/>
						<path style="fill:#FFFFFF;stroke:#000000;stroke-width:0.1361;" d="M-78.782,460.214c0,0-0.445-0.388-0.472-0.601v-0.491
							c0.173,0.02,0.336,0.065,0.463,0.267c0.108-0.407,0.278-0.52,0.597-0.717c0.319,0.197,0.489,0.311,0.597,0.717
							c0.127-0.202,0.291-0.247,0.463-0.267v0.491c-0.056,0.213-0.472,0.601-0.472,0.601H-78.782z"/>
						<path style="fill:#FFFFFF;stroke:#000000;stroke-width:0.1361;" d="M-78.972,461.917c0,0-0.61-0.675-0.624-0.938v-0.766
							c0.228,0.032,0.444,0.188,0.612,0.503c0.143-0.634,0.367-1.076,0.789-1.384c0.422,0.308,0.646,0.75,0.789,1.384
							c0.169-0.315,0.384-0.472,0.612-0.503v0.766c-0.044,0.263-0.624,0.938-0.624,0.938H-78.972z"/>
						<path style="fill:#FFFFFF;stroke:#000000;stroke-width:0.1361;" d="M-78.972,462.925c0,0-0.521-0.53-0.624-0.761v-0.766
							c0.228,0.032,0.444,0.188,0.612,0.503c0.143-0.634,0.367-0.997,0.789-1.305c0.422,0.308,0.646,0.671,0.789,1.305
							c0.169-0.315,0.384-0.472,0.612-0.503v0.766c-0.132,0.23-0.624,0.761-0.624,0.761H-78.972z"/>
						<path style="fill:#FFFFFF;stroke:#000000;stroke-width:0.1361;" d="M-79.181,463.511c0.152-0.662,0.283-1.152,1.015-1.65
							c0.732,0.498,0.863,0.988,1.015,1.65H-79.181z"/>
						<path style="fill:#FFFFFF;stroke:#000000;stroke-width:0.1361;" d="M-79.558,463.879v-0.958
							c0.333,0.13,0.633,0.323,0.744,0.538c0.124-0.532,0.362-0.766,0.66-1.088c0.297,0.322,0.496,0.556,0.62,1.088
							c0.111-0.215,0.411-0.408,0.744-0.538l0,0.958H-79.558z"/>
					</g>
				</g>
			</g>
			<g>
				<path style="fill:#FFFFFF;stroke:#000000;stroke-width:0.1361;" d="M-106.182,471.687h34.771l0,1.776h-34.771L-106.182,471.687z
					"/>
				<path style="fill:#FFFFFF;stroke:#000000;stroke-width:0.1361;" d="M-107.099,473.46h36.604l0,1.773h-36.604L-107.099,473.46z"
					/>
				<path style="fill:#FFFFFF;stroke:#000000;stroke-width:0.1361;" d="M-104.356,469.031h31.119l0,1.149h-31.119L-104.356,469.031z
					"/>
				<path style="fill:#FFFFFF;stroke:#000000;stroke-width:0.1361;" d="M-105.266,470.172h32.939l0,1.505h-32.939L-105.266,470.172z
					"/>
				<path style="fill:#FFFFFF;stroke:#000000;stroke-width:0.1361;" d="M-103.813,468.148h30.032l0,0.875h-30.032L-103.813,468.148z
					"/>
				<path style="fill:#FFFFFF;stroke:#000000;stroke-width:0.1481;" d="M-100.553,468.152h2.268v7.077h-2.268V468.152z"/>
				<path style="fill:#FFFFFF;stroke:#000000;stroke-width:0.1478;" d="M-100.051,468.152h1.264v7.078h-1.264L-100.051,468.152z"/>
				<path style="fill:#FFFFFF;stroke:#000000;stroke-width:0.1481;" d="M-89.97,468.152h2.269v7.077h-2.268L-89.97,468.152z"/>
				<path style="fill:#FFFFFF;stroke:#000000;stroke-width:0.1478;" d="M-89.453,468.152h1.264v7.078h-1.264L-89.453,468.152z"/>
				<path style="fill:#FFFFFF;stroke:#000000;stroke-width:0.1481;" d="M-79.324,468.152h2.268v7.077h-2.268V468.152z"/>
				<path style="fill:#FFFFFF;stroke:#000000;stroke-width:0.1478;" d="M-78.823,468.152h1.264v7.078h-1.264L-78.823,468.152z"/>
			</g>
			<g>
				<path style="fill:none;stroke:#000000;stroke-width:0.1361;" d="M-102.463,467.432h27.364"/>
				<path style="fill:none;stroke:#000000;stroke-width:0.1361;" d="M-100.074,474.34h1.31 M-100.074,473.454h1.31
					 M-100.074,472.569h1.31 M-100.074,471.683h1.31 M-100.074,470.797h1.31 M-100.074,469.911h1.31 M-100.074,469.025h1.31"/>
				<path style="fill:none;stroke:#000000;stroke-width:0.1361;" d="M-89.447,474.342h1.22 M-89.447,473.455h1.22 M-89.447,472.569
					h1.22 M-89.447,471.683h1.22 M-89.447,470.797h1.22 M-89.447,469.91h1.22 M-89.447,469.024h1.22"/>
				<path style="fill:none;stroke:#000000;stroke-width:0.1361;" d="M-78.845,474.34h1.31 M-78.845,473.454h1.31 M-78.845,472.569
					h1.31 M-78.845,471.683h1.31 M-78.845,470.797h1.31 M-78.845,469.911h1.31 M-78.845,469.025h1.31"/>
			</g>
		</g>
	</g>
</g>
</svg>
