<?xml version="1.0" encoding="iso-8859-1"?>
<!-- Generator: Adobe Illustrator 18.1.1, SVG Export Plug-In . SVG Version: 6.00 Build 0)  -->
<svg version="1.1" id="Layer_179" xmlns="http://www.w3.org/2000/svg" xmlns:xlink="http://www.w3.org/1999/xlink" x="0px" y="0px"
	 viewBox="0 0 56.692 56.692" style="enable-background:new 0 0 56.692 56.692;" xml:space="preserve">
<g>
	<defs>
		<circle id="SVGID_1_" cx="28.346" cy="28.347" r="28.346"/>
	</defs>
	<clipPath id="SVGID_2_">
		<use xlink:href="#SVGID_1_"  style="overflow:visible;"/>
	</clipPath>
	<g style="clip-path:url(#SVGID_2_);">
		<rect x="-28.276" y="0" style="fill:#CE1126;" width="113.245" height="56.623"/>
		<g>
			<path style="fill:#FCD116;stroke:#BD9C08;stroke-width:0.2706;" d="M37.257,27.989c1.58,0.424,3.971,0.318,5.044,1.571
				c-1.579-0.424-3.527,2.131-5.044,1.571c1.34,0.938-19.491,0-17.821,0c-1.58-0.424-3.971-0.318-5.044-1.571
				c1.579,0.424,3.527-2.131,5.044-1.571c-1.34-0.938-3.664-1.665-4.204-3.202c1.34,0.938,4.066-0.801,5.279,0.249
				c-0.938-1.339-2.899-2.809-2.856-4.445c0.938,1.34,4.097,0.622,4.875,2.039c-0.422-1.58-1.698-3.617-1.162-5.154
				c0.424,1.58,3.605,1.972,3.884,3.583c0.143-1.629-0.433-3.988,0.671-5.241c-0.143,1.63,2.73,3.084,2.423,4.695
				c0.691-1.482,1.073-3.877,2.423-4.695c-0.691,1.483,1.564,3.824,0.671,5.241c1.156-1.156,2.273-3.299,3.884-3.583
				c-1.156,1.157,0.076,4.102-1.162,5.154c1.481-0.691,3.231-2.323,4.875-2.039c-1.483,0.691-1.337,3.886-2.856,4.445
				c1.631-0.143,3.819-1.066,5.279-0.249C39.831,24.93,38.927,27.989,37.257,27.989z"/>
			<path style="fill:#FCD116;stroke:#BD9C08;stroke-width:0.2706;stroke-linejoin:round;" d="M20.834,29.561l-5.699-2.329
				l6.152-0.24l-4.559-4.139l5.863,1.88l-2.868-5.448l4.867,3.77l-0.832-6.099l3.283,5.208l1.304-6.017l1.304,6.017l3.283-5.208
				l-0.832,6.099l4.866-3.77l-2.867,5.448l5.861-1.88l-4.557,4.139l6.15,0.24l-5.697,2.329l5.697,2.329H15.135L20.834,29.561
				L20.834,29.561z"/>
			<circle style="fill:#FCD116;stroke:#BD9C08;stroke-width:0.3247;" cx="28.346" cy="29.561" r="7.461"/>
			<path style="fill:#FCD116;stroke:#BD9C08;stroke-width:0.2165;" d="M30.8,11.495l4.001,0.027
				c0.025-0.169-0.343-0.506-0.658-0.555c-1.012-0.159-1.772,0.169-3.002,0.181L30.8,11.495L30.8,11.495z"/>
			<path style="fill:#FCD116;stroke:#BD9C08;stroke-width:0.2165;" d="M22.831,10.553c0.94,1.187,2.762,2.012,4.501,2.023
				c2.345,0.014,4.947-1.884,8.091-2.465L25.157,9.9c-1.33-0.91-2.338-0.795-3.025-0.23l-1.963,0.059
				c-0.278,0.151,0.229,0.784,0.64,0.807L22.831,10.553z"/>
			<path style="fill:#FCD116;stroke:#BD9C08;stroke-width:0.2165;" d="M27.473,9.872c-0.373-1.717-1.752-2.457-3.408-2.677
				c-1.914-0.254-6.318-0.514-9.244-1.354c1.266,1.245,3.917,1.867,5.759,2.148c1.95,0.298,3.848,0.731,5.353,1.867L27.473,9.872
				L27.473,9.872z"/>
			<path style="fill:#FCD116;stroke:#BD9C08;stroke-width:0.2165;stroke-linecap:round;" d="M26.23,11.019
				c0.612,0.785,1.561,0.741,2.582,0.056c1.018-0.683,2.123-2.606,2.657-2.638c3.733-0.217,8.248-1.793,10.402-3.009
				c-2.731,0.387-5.438,0.825-8.192,0.836c-4.7,0.019-5.255,2.159-7.171,3.66"/>
			<path style="fill:none;stroke:#BD9C08;stroke-width:0.2165;stroke-linecap:round;" d="M26.959,10.095
				c1.001-0.638,1.815-1.471,2.753-2.166c1.553-1.151,3.347-1.185,5.273-1.209c1.707-0.021,4.698-0.734,6.322-1.115"/>
			<path style="fill:none;stroke:#BD9C08;stroke-width:0.2165;" d="M25.916,9.794c-0.294-1.535-1.732-1.996-3.547-2.272
				c-1.975-0.3-3.991-0.467-5.961-1.012c-0.489-0.135-0.944-0.373-1.416-0.56"/>
			<path style="fill:none;stroke:#BD9C08;stroke-width:0.2165;stroke-linecap:round;" d="M26.546,12.058
				c1.855,0.136,3.231-0.421,4.813-1.21"/>
			<path style="fill:none;stroke:#BD9C08;stroke-width:0.2165;stroke-linecap:round;" d="M20.161,10.046h2.338"/>
			<circle style="fill:#BD9C08;" cx="23.25" cy="9.795" r="0.292"/>
		</g>
		<rect x="-25.776" y="32.267" style="fill:#003F87;" width="108.245" height="24.355"/>
		<path id="w" style="fill:#FFFFFF;" d="M-25.776,48.89c3.608,0,7.216,2.32,10.825,2.32s7.216-2.32,10.825-2.32
			s7.216,2.32,10.825,2.32s7.216-2.32,10.825-2.32s7.216,2.32,10.825,2.32s7.216-2.32,10.825-2.32s7.216,2.32,10.825,2.32
			s7.216-2.32,10.825-2.32c3.608,0,7.216,2.32,10.825,2.32c3.608,0,7.216-2.32,10.825-2.32v-3.866c-3.608,0-7.216,2.32-10.825,2.32
			c-3.608,0-7.216-2.32-10.825-2.32c-3.608,0-7.216,2.32-10.825,2.32s-7.216-2.32-10.825-2.32s-7.216,2.32-10.825,2.32
			s-7.216-2.32-10.825-2.32s-7.216,2.32-10.825,2.32s-7.216-2.32-10.825-2.32s-7.216,2.32-10.825,2.32s-7.216-2.32-10.825-2.32
			V48.89z"/>
		<g>
			<path id="w_1_" style="fill:#FFFFFF;" d="M-25.776,41.158c3.608,0,7.216,2.32,10.825,2.32s7.216-2.32,10.825-2.32
				s7.216,2.32,10.825,2.32s7.216-2.32,10.825-2.32s7.216,2.32,10.825,2.32s7.216-2.32,10.825-2.32s7.216,2.32,10.825,2.32
				s7.216-2.32,10.825-2.32c3.608,0,7.216,2.32,10.825,2.32c3.608,0,7.216-2.32,10.825-2.32v-3.866c-3.608,0-7.216,2.32-10.825,2.32
				c-3.608,0-7.216-2.32-10.825-2.32c-3.608,0-7.216,2.32-10.825,2.32s-7.216-2.32-10.825-2.32s-7.216,2.32-10.825,2.32
				s-7.216-2.32-10.825-2.32s-7.216,2.32-10.825,2.32s-7.216-2.32-10.825-2.32s-7.216,2.32-10.825,2.32s-7.216-2.32-10.825-2.32
				V41.158z"/>
		</g>
		<g>
			<path id="w_2_" style="fill:#FFFFFF;" d="M-25.776,33.426c3.608,0,7.216,2.32,10.825,2.32s7.216-2.32,10.825-2.32
				s7.216,2.32,10.825,2.32s7.216-2.32,10.825-2.32s7.216,2.32,10.825,2.32s7.216-2.32,10.825-2.32s7.216,2.32,10.825,2.32
				s7.216-2.32,10.825-2.32c3.608,0,7.216,2.32,10.825,2.32c3.608,0,7.216-2.32,10.825-2.32V29.56c-3.608,0-7.216,2.32-10.825,2.32
				c-3.608,0-7.216-2.32-10.825-2.32c-3.608,0-7.216,2.32-10.825,2.32s-7.216-2.32-10.825-2.32s-7.216,2.32-10.825,2.32
				s-7.216-2.32-10.825-2.32s-7.216,2.32-10.825,2.32s-7.216-2.32-10.825-2.32s-7.216,2.32-10.825,2.32s-7.216-2.32-10.825-2.32
				V33.426z"/>
		</g>
	</g>
</g>
</svg>
