<?xml version="1.0" encoding="iso-8859-1"?>
<!-- Generator: Adobe Illustrator 18.1.1, SVG Export Plug-In . SVG Version: 6.00 Build 0)  -->
<svg version="1.1" id="Layer_195" xmlns="http://www.w3.org/2000/svg" xmlns:xlink="http://www.w3.org/1999/xlink" x="0px" y="0px"
	 viewBox="0 0 56.692 56.692" style="enable-background:new 0 0 56.692 56.692;" xml:space="preserve">
<g>
	<defs>
		<circle id="SVGID_1_" cx="28.346" cy="28.346" r="28.346"/>
	</defs>
	<clipPath id="SVGID_2_">
		<use xlink:href="#SVGID_1_"  style="overflow:visible;"/>
	</clipPath>
	<rect x="-14.174" y="0.001" style="clip-path:url(#SVGID_2_);fill:#FCD116;" width="85.04" height="56.691"/>
	<polygon style="clip-path:url(#SVGID_2_);fill:#CE1126;" points="7.006,56.692 70.866,14.09 70.866,56.692 	"/>
	<polygon style="clip-path:url(#SVGID_2_);fill:#009E49;" points="49.686,0.001 -14.174,42.6 -14.174,0.001 	"/>
	<polygon style="clip-path:url(#SVGID_2_);" points="55.472,0.001 -14.174,46.448 -14.174,56.692 0.949,56.692 70.866,9.926 
		70.866,0.001 	"/>
	<polygon style="clip-path:url(#SVGID_2_);fill:#FFFFFF;" points="10.849,31.002 15.144,34.274 19.792,31.141 17.882,36.44 
		22.112,39.706 16.719,39.706 14.692,44.706 13.253,39.563 7.653,39.325 12.304,36.188 	"/>
	<polygon style="clip-path:url(#SVGID_2_);fill:#FFFFFF;" points="37.314,13.327 41.609,16.598 46.257,13.465 44.347,18.764 
		48.578,22.03 43.184,22.03 41.157,27.03 39.718,21.887 34.118,21.649 38.769,18.512 	"/>
</g>
</svg>
