<?xml version="1.0" encoding="iso-8859-1"?>
<!-- Generator: Adobe Illustrator 18.1.1, SVG Export Plug-In . SVG Version: 6.00 Build 0)  -->
<svg version="1.1" id="Layer_95" xmlns="http://www.w3.org/2000/svg" xmlns:xlink="http://www.w3.org/1999/xlink" x="0px" y="0px"
	 viewBox="0 0 56.692 56.692" style="enable-background:new 0 0 56.692 56.692;" xml:space="preserve">
<g>
	<defs>
		<circle id="SVGID_1_" cx="28.346" cy="28.345" r="28.347"/>
	</defs>
	<clipPath id="SVGID_2_">
		<use xlink:href="#SVGID_1_"  style="overflow:visible;"/>
	</clipPath>
	<rect x="-14.173" y="0" style="clip-path:url(#SVGID_2_);fill:#FFFFFF;" width="85.039" height="56.691"/>
	
		<rect x="7" y="8.866" transform="matrix(0.8332 0.553 -0.553 0.8332 9.489 -1.9395)" style="clip-path:url(#SVGID_2_);" width="1.918" height="11.787"/>
	
		<rect x="9.45" y="10.498" transform="matrix(0.8326 0.5539 -0.5539 0.8326 10.8215 -3.0212)" style="clip-path:url(#SVGID_2_);" width="1.918" height="11.788"/>
	
		<rect x="11.899" y="12.127" transform="matrix(0.8323 0.5543 -0.5543 0.8323 12.1474 -4.1056)" style="clip-path:url(#SVGID_2_);" width="1.92" height="11.791"/>
	
		<rect x="41.185" y="38.644" transform="matrix(0.8325 0.554 -0.554 0.8325 29.969 -16.4228)" style="clip-path:url(#SVGID_2_);" width="1.92" height="5.418"/>
	
		<rect x="44.717" y="33.339" transform="matrix(0.8321 0.5546 -0.5546 0.8321 27.6601 -19.28)" style="clip-path:url(#SVGID_2_);" width="1.919" height="5.419"/>
	
		<rect x="43.459" y="40.155" transform="matrix(0.8317 0.5552 -0.5552 0.8317 31.2733 -17.4471)" style="clip-path:url(#SVGID_2_);" width="1.917" height="5.421"/>
	
		<rect x="46.991" y="34.853" transform="matrix(0.8321 0.5546 -0.5546 0.8321 28.879 -20.2867)" style="clip-path:url(#SVGID_2_);" width="1.919" height="5.418"/>
	
		<rect x="45.734" y="41.67" transform="matrix(0.8329 0.5534 -0.5534 0.8329 32.3624 -18.4256)" style="clip-path:url(#SVGID_2_);" width="1.92" height="5.418"/>
	
		<rect x="49.266" y="36.369" transform="matrix(0.8322 0.5545 -0.5545 0.8322 30.0969 -21.2921)" style="clip-path:url(#SVGID_2_);" width="1.92" height="5.418"/>
	
		<rect x="44.933" y="17.956" transform="matrix(0.8354 -0.5497 0.5497 0.8354 -3.8042 28.6261)" style="clip-path:url(#SVGID_2_);" width="1.919" height="5.417"/>
	
		<rect x="41.431" y="12.632" transform="matrix(0.8354 -0.5496 0.5496 0.8354 -1.4549 25.8241)" style="clip-path:url(#SVGID_2_);" width="1.919" height="5.419"/>
	
		<rect x="45.464" y="10.605" transform="matrix(0.8352 -0.5499 0.5499 0.8352 -1.4247 28.2461)" style="clip-path:url(#SVGID_2_);" width="1.918" height="11.79"/>
	
		<rect x="49.499" y="14.952" transform="matrix(0.8353 -0.5499 0.5499 0.8353 -1.3983 30.6544)" style="clip-path:url(#SVGID_2_);" width="1.918" height="5.418"/>
	
		<rect x="45.996" y="9.628" transform="matrix(0.8358 -0.5491 0.5491 0.8358 0.9369 27.8089)" style="clip-path:url(#SVGID_2_);" width="1.919" height="5.42"/>
	
		<rect x="7.042" y="35.888" transform="matrix(0.8358 -0.549 0.549 0.8358 -21.6242 11.251)" style="clip-path:url(#SVGID_2_);" width="1.918" height="11.792"/>
	
		<rect x="11.606" y="32.884" transform="matrix(0.8354 -0.5497 0.5497 0.8354 -19.2469 13.2902)" style="clip-path:url(#SVGID_2_);" width="1.919" height="11.791"/>
	
		<rect x="11.076" y="40.233" transform="matrix(0.8354 -0.5497 0.5497 0.8354 -21.6225 13.6838)" style="clip-path:url(#SVGID_2_);" width="1.919" height="5.419"/>
	
		<rect x="7.572" y="34.91" transform="matrix(0.8349 -0.5504 0.5504 0.8349 -19.2951 10.9055)" style="clip-path:url(#SVGID_2_);" width="1.92" height="5.418"/>
	<circle style="clip-path:url(#SVGID_2_);fill:#003478;" cx="28.401" cy="28.367" r="14.199"/>
	<path style="clip-path:url(#SVGID_2_);fill:#C60C30;" d="M42.6,28.367c0-7.842-6.357-14.199-14.199-14.199
		c-5.349,0-10.002,2.962-12.423,7.33c-3.165,8.113,7.265,13.98,12.393,6.925c5.27-7.159,15.554-1.212,12.399,6.903
		C41.93,33.267,42.6,30.898,42.6,28.367z"/>
</g>
</svg>
