<?xml version="1.0" encoding="iso-8859-1"?>
<!-- Generator: Adobe Illustrator 18.1.1, SVG Export Plug-In . SVG Version: 6.00 Build 0)  -->
<svg version="1.1" id="Layer_23" xmlns="http://www.w3.org/2000/svg" xmlns:xlink="http://www.w3.org/1999/xlink" x="0px" y="0px"
	 viewBox="0 0 56.692 56.692" style="enable-background:new 0 0 56.692 56.692;" xml:space="preserve">
<g>
	<defs>
		<circle id="SVGID_1_" cx="28.346" cy="28.345" r="28.347"/>
	</defs>
	<clipPath id="SVGID_2_">
		<use xlink:href="#SVGID_1_"  style="overflow:visible;"/>
	</clipPath>
	<path style="clip-path:url(#SVGID_2_);fill:#00247D;" d="M0,56.742V0.05h56.692v56.692H0z"/>
	<rect x="0" y="0" style="clip-path:url(#SVGID_2_);fill:#00247D;" width="28.346" height="28.346"/>
	<g style="clip-path:url(#SVGID_2_);">
		<polygon style="fill:#FFFFFF;" points="28.347,0 22.656,0 11.238,7.754 11.238,0 2.77,0 2.77,7.752 -8.641,0 -14.173,0 
			-14.173,3.337 -5.163,9.459 -14.173,9.459 -14.173,18.89 -5.169,18.89 -14.173,25.004 -14.173,28.347 -8.649,28.347 2.77,20.593 
			2.77,28.347 11.238,28.347 11.238,20.597 22.647,28.347 28.347,28.347 28.347,25.125 19.169,18.89 28.347,18.89 28.347,9.459 
			19.175,9.459 28.347,3.232 		"/>
		<g>
			<polygon style="fill:#CC0000;" points="0.011,9.459 -13.911,0 -14.173,0 -14.173,2.001 -3.198,9.459 			"/>
			<polygon style="fill:#CF142B;" points="14.072,9.459 28.264,0 25.012,0 10.819,9.459 			"/>
			<path style="fill:#CF142B;" d="M9.615,11.242V0H4.55v11.242h-18.724c0,0,0.01,5.578,0.024,5.641L4.55,16.894v11.453h5.064V16.894
				v-0.012h18.732v-5.641H9.615z"/>
			<polygon style="fill:#CF142B;" points="13.699,18.679 27.931,28.347 28.347,28.347 28.347,26.449 16.907,18.679 			"/>
			<polygon style="fill:#CF142B;" points="0.177,18.679 -14.173,28.24 -14.173,28.347 -11.078,28.347 3.431,18.679 			"/>
		</g>
	</g>
	<g style="clip-path:url(#SVGID_2_);">
		<g id="border">
			<g>
				<path id="shield" style="fill:#FFFFFF;stroke:#FFFFFF;stroke-width:0.6616;stroke-linejoin:round;" d="M46.624,27.512v6.44
					c0,5.582-2.642,7.497-6.176,9.016c-3.534-1.519-6.209-3.435-6.209-9.016v-6.44H46.624L46.624,27.512z"/>
			</g>
			<g>
				<g id="motto1">
					<path style="fill:#FCEA83;stroke:#FFFFFF;stroke-width:0.6616;stroke-linejoin:round;" d="M30.408,42.44
						c0.198,0.528,1.618,1.222,3.27,0.33c1.123-0.628,1.85-1.519,2.543-3.105c0.198-0.396,0.297-0.892-0.165-1.189
						c-0.363-0.264-0.958-0.561-1.222-0.826c-0.132-0.132-0.264-0.231-0.363-0.33c0.066,0.066,0.132,0.132,0.198,0.231
						c0.661,0.793-0.033,1.949-0.76,2.642c-0.528,0.495-1.486,1.717-2.873,0.561C30.738,40.492,30.045,41.582,30.408,42.44
						L30.408,42.44z"/>
					<path style="fill:#FCEA83;stroke:#FFFFFF;stroke-width:0.6616;stroke-linejoin:round;" d="M50.488,42.44
						c-0.231,0.528-1.651,1.222-3.27,0.33c-1.123-0.628-1.85-1.519-2.576-3.105c-0.165-0.396-0.264-0.892,0.198-1.189
						c0.363-0.264,0.958-0.561,1.222-0.826c0.132-0.132,0.231-0.231,0.363-0.33c-0.066,0.066-0.132,0.132-0.198,0.231
						c-0.661,0.793,0.033,1.949,0.727,2.642c0.528,0.495,1.519,1.717,2.906,0.561C50.158,40.492,50.819,41.582,50.488,42.44
						L50.488,42.44z"/>
					<path style="fill:#FCEA83;stroke:#FFFFFF;stroke-width:0.6616;stroke-linejoin:round;" d="M40.448,45.281
						c2.642,0,6.704-1.189,8.884-5.35c0.363-0.694,0-1.057-0.429-1.288c-0.462-0.198-1.024-0.661-1.321-0.958
						c0.528,0.528,0.429,0.892,0.066,1.486c-1.684,2.807-3.996,4.227-7.2,4.227c-3.204,0-5.515-1.42-7.2-4.227
						c-0.363-0.594-0.462-0.958,0.033-1.486c-0.264,0.297-0.859,0.76-1.321,0.958c-0.429,0.231-0.793,0.594-0.429,1.288
						C33.711,44.092,37.806,45.281,40.448,45.281L40.448,45.281z"/>
				</g>
			</g>
			<g>
				<g id="motto2">
					<path style="fill:#DB161C;stroke:#FFFFFF;stroke-width:0.6616;stroke-linejoin:round;" d="M34.338,39.699
						c-0.066-0.33-0.495-0.198-0.628,0.198c-0.165-0.231-0.33-0.462-0.462-0.727c-0.396-0.594-0.462-0.991,0.099-1.552
						c0.264-0.264,0.793-0.561,1.156-0.231C35.263,38.015,34.867,39.039,34.338,39.699L34.338,39.699z"/>
					<path style="fill:#DB161C;stroke:#FFFFFF;stroke-width:0.6616;stroke-linejoin:round;" d="M46.525,39.699
						c0.066-0.33,0.528-0.198,0.661,0.198c0.165-0.231,0.33-0.462,0.462-0.727c0.396-0.594,0.462-0.991-0.132-1.552
						c-0.231-0.264-0.76-0.561-1.156-0.231C45.634,38.015,45.997,39.039,46.525,39.699L46.525,39.699z"/>
					<path style="fill:#DB161C;stroke:#FFFFFF;stroke-width:0.6616;stroke-linejoin:round;" d="M30.408,42.44
						c-0.33-0.495-0.594-1.783-0.661-2.114c-0.099-0.297-0.132-0.561,0.231-0.694c0.363-0.132,0.694,0.33,0.859,0.727
						c0.165,0.396,0.429,0.991,0.727,1.717C30.838,41.648,30.243,41.945,30.408,42.44L30.408,42.44z"/>
					<path style="fill:#DB161C;stroke:#FFFFFF;stroke-width:0.6616;stroke-linejoin:round;" d="M50.488,42.44
						c0.297-0.495,0.561-1.783,0.661-2.114c0.066-0.297,0.132-0.561-0.231-0.694c-0.363-0.132-0.694,0.33-0.859,0.727
						s-0.429,0.991-0.727,1.717C50.059,41.648,50.621,41.945,50.488,42.44L50.488,42.44z"/>
				</g>
			</g>
			<g>
				<g id="rope">
					<path style="fill:#FFFFFF;stroke:#FFFFFF;stroke-width:0.6616;stroke-linejoin:round;" d="M37.905,27.479
						c-0.429,0.099-0.727,0.132-1.123-0.231c-0.264-0.264-0.198-0.727,0.066-0.892c0.297-0.198,0.561-0.33,0.925-0.231
						s1.321,0.991,1.09,1.024C38.632,27.149,38.269,27.38,37.905,27.479L37.905,27.479z"/>
					<path style="fill:#FFFFFF;stroke:#FFFFFF;stroke-width:0.6616;stroke-linejoin:round;" d="M38.929,25.894
						c0.132-0.099,0.297-0.165,0.727-0.198c0.396-0.033,0.694-0.033,0.793,0.264c0.132,0.363,0.231,0.793,0.495,0.991
						c-0.165,0.099-0.991,0.198-1.288,0.033C39.259,26.786,39.16,26.026,38.929,25.894L38.929,25.894z"/>
					<path style="fill:#FFFFFF;stroke:#FFFFFF;stroke-width:0.6616;stroke-linejoin:round;" d="M41.769,25.927
						c0.132-0.099,0.297-0.099,0.727-0.066s0.594,0.066,0.694,0.363c0.099,0.33,0,0.76,0.198,1.057
						c-0.198,0.066-0.859,0.066-1.09-0.165C41.935,26.852,41.968,26.092,41.769,25.927L41.769,25.927z"/>
					<path style="fill:#073163;stroke:#FFFFFF;stroke-width:0.6616;stroke-linejoin:round;" d="M43.751,26.125
						c-0.297-0.066-0.495-0.099-0.628,0c0.165,0.198,0.033,0.991,0.363,1.255c0.231,0.165,0.826,0.198,0.958-0.165
						C44.61,26.885,44.61,26.389,43.751,26.125L43.751,26.125z"/>
					<path style="fill:#073163;stroke:#FFFFFF;stroke-width:0.6616;stroke-linejoin:round;" d="M40.349,25.795
						c0.099-0.099,0.297-0.132,0.694-0.132c0.429,0,0.694,0.066,0.826,0.33c0.132,0.33,0.099,0.76,0.33,1.024
						c-0.099,0.132-0.991,0.132-1.255-0.066C40.58,26.72,40.547,25.96,40.349,25.795L40.349,25.795z"/>
					<path style="fill:#073163;stroke:#FFFFFF;stroke-width:0.6616;stroke-linejoin:round;" d="M37.542,26.092
						c0-0.165,0.231-0.198,0.826-0.231c0.594-0.066,0.628-0.033,0.826,0.396c0.099,0.231,0.231,0.628,0.495,0.76
						c-0.727,0.165-0.958,0.264-1.354,0.033c-0.297-0.165-0.628-0.561-0.694-0.727C37.608,26.224,37.608,26.125,37.542,26.092
						L37.542,26.092z"/>
				</g>
			</g>
			<g>
				<g id="turtle">
					<path style="fill:#059334;stroke:#FFFFFF;stroke-width:0.6616;stroke-linejoin:round;" d="M37.608,23.153
						c-0.231,0-0.429-0.099-0.561-0.264c-0.231-0.297-0.859-0.429-1.123-0.165c-0.099,0.066-0.231,0.066-0.33,0.099
						c-0.165,0-0.363,0.165-0.297,0.495c0.132-0.099,0.165,0,0.264,0c0.066-0.033,0.033,0.033,0.033,0.099
						c0,0.165,0.363,0.495,0.694,0.462c0.363,0,0.528,0.132,0.594,0.198c0.099,0.099,0.033,0.066,0.099,0.231
						c0.099,0.099,0.132,0.132-0.033,0.264c-0.231,0.198-0.396,0.661,0,1.024c0.429,0.33,1.519,0.826,2.741-0.132
						c1.189-0.925,3.038-0.396,3.171-0.066c0.165,0.33,0.231,0.528,0.264,0.694c0.033,0.132,0.198,0.264,0.429,0.231
						c0.231,0,0.495,0.099,0.628,0.198c0.165,0.099,0.396,0.066,0.33-0.231c-0.132-0.925-0.694-1.057-0.76-1.486
						c0.33,0.033,0.561,0.033,0.694-0.099c0.099-0.132,0.231-0.363,0.363-0.429c0.099-0.066,0.099-0.132-0.033-0.099
						c-0.165,0.033-0.264,0.099-0.561,0.066C42.694,24.077,38.434,22.921,37.608,23.153L37.608,23.153z"/>
					<path style="stroke:#FFFFFF;stroke-width:0.6616;stroke-linejoin:round;" d="M44.346,24.276
						c-0.165,0.099-0.33,0.264-0.628,0.661c-0.33,0.429-1.321,0.859-2.543,0.859c-1.189,0-1.916-0.198-2.444-0.628
						c-0.297-0.231-0.528-0.363-0.727-0.462c-0.363-0.165-0.429-0.528-0.33-0.826c-0.099,0.165-0.165,0.33-0.363,0.297
						c-0.132,0-0.396,0-0.33,0.132c-0.033-0.066-0.033-0.165-0.066-0.198c-0.033-0.033-0.066-0.066-0.066-0.066
						c0.099,0.066,0.33-0.132,0.495-0.132c0.132,0.033,0.297-0.132,0.264-0.33c-0.033-0.165-0.066-0.297-0.099-0.429
						c0.264-0.132,3.732,0.495,4.426,0.561C42.628,23.747,44.61,24.044,44.346,24.276L44.346,24.276z"/>
					<path style="fill:#059334;stroke:#FFFFFF;stroke-width:0.6616;stroke-linejoin:round;" d="M38.07,23.021
						c0.33-0.33,0.727-0.495,1.123-0.396h0.099c0.198-0.165,0.661-0.198,0.925-0.066h0.132c0.396-0.132,1.156,0,1.42,0.264
						l0.099,0.066c0.892-0.066,1.42,0.33,2.048,0.958c0.066,0.066,0.165,0.198,0.33,0.231c0.198,0.033,0.231,0.132,0.066,0.231
						c-0.198,0.099-0.363,0.264-0.694,0.628c-0.297,0.396-1.255,0.793-2.444,0.793c-1.156,0-1.85-0.198-2.378-0.594
						c-0.297-0.231-0.528-0.363-0.694-0.462c-0.198-0.066-0.462-0.33-0.363-0.594c0.066-0.264-0.099-0.594-0.231-0.925
						c0.099-0.066,0.363-0.165,0.495-0.099L38.07,23.021L38.07,23.021z"/>
					<g>
						<path style="fill:#00493D;stroke:#FFFFFF;stroke-width:0.6616;stroke-linejoin:round;" d="M43.916,23.846
							c-0.628-0.628-1.156-1.024-2.048-0.958c0,0.033,0,0.132-0.033,0.198c0.528,0.198,1.288,0.793,1.618,1.222
							C43.586,24.176,43.817,24.011,43.916,23.846L43.916,23.846z"/>
						<path style="fill:#00493D;stroke:#FFFFFF;stroke-width:0.6616;stroke-linejoin:round;" d="M41.769,22.822
							c-0.264-0.264-1.024-0.396-1.42-0.264c0,0.132,0,0.33-0.066,0.462c0.231,0.099,0.429,0.33,0.628,0.561
							c0.132-0.033,0.462-0.132,0.628-0.165C41.604,23.285,41.736,22.988,41.769,22.822z"/>
						<path style="fill:#00493D;stroke:#FFFFFF;stroke-width:0.6616;stroke-linejoin:round;" d="M40.217,22.558
							c-0.264-0.132-0.727-0.099-0.925,0.066c-0.066,0.132-0.099,0.396-0.099,0.528c0.132,0,0.33,0.099,0.396,0.165
							c0.198-0.066,0.462-0.198,0.561-0.297C40.184,22.888,40.25,22.69,40.217,22.558L40.217,22.558z"/>
						<path style="fill:#00493D;stroke:#FFFFFF;stroke-width:0.6616;stroke-linejoin:round;" d="M38.07,23.021
							c0.33-0.33,0.727-0.495,1.123-0.396c-0.066,0.099-0.099,0.297-0.099,0.495c-0.363-0.033-0.826,0.066-1.024,0.198V23.021z"/>
						<path style="fill:#00493D;stroke:#FFFFFF;stroke-width:0.6616;stroke-linejoin:round;" d="M43.322,24.375
							c-0.297-0.429-1.024-0.925-1.519-1.156c0,0.033-0.066,0.165-0.099,0.264c0.198,0.297,0.594,0.958,0.76,1.321
							C42.628,24.738,43.091,24.54,43.322,24.375L43.322,24.375z"/>
						<path style="fill:#00493D;stroke:#FFFFFF;stroke-width:0.6616;stroke-linejoin:round;" d="M40.812,25.101
							c0.066-0.462,0.099-1.123,0.099-1.354c0.165-0.033,0.495-0.132,0.628-0.165c0.165,0.264,0.561,0.958,0.727,1.288
							C41.869,24.969,41.208,25.134,40.812,25.101L40.812,25.101z"/>
						<path style="fill:#00493D;stroke:#FFFFFF;stroke-width:0.6616;stroke-linejoin:round;" d="M39.656,23.516
							c0.165-0.066,0.396-0.198,0.561-0.33c0.132,0.099,0.396,0.33,0.495,0.462c0,0.297-0.099,1.156-0.132,1.453
							c-0.264,0-0.694-0.066-0.925-0.198C39.689,24.408,39.722,23.846,39.656,23.516L39.656,23.516z"/>
						<path style="fill:#00493D;stroke:#FFFFFF;stroke-width:0.6616;stroke-linejoin:round;" d="M38.004,23.912
							c0.033-0.066,0.066-0.297,0.066-0.396c0.264-0.165,0.925-0.33,1.42-0.066c0.033,0.33,0,1.156-0.033,1.354
							C39.028,24.474,38.335,24.011,38.004,23.912L38.004,23.912z"/>
					</g>
					<g>
						<path d="M36.353,23.318c-0.066,0-0.099-0.198-0.231-0.198c-0.033,0-0.132,0.033-0.165,0c0,0.066,0.033,0.132,0.066,0.165
							C36.056,23.384,36.221,23.318,36.353,23.318L36.353,23.318z"/>
						<path style="fill:none;stroke:#FFFFFF;stroke-width:0.6616;stroke-linejoin:round;" d="M36.353,23.879
							c0.396,0,0.462-0.495,0.661-0.528"/>
						<path style="fill:none;stroke:#FFFFFF;stroke-width:0.6616;stroke-linejoin:round;" d="M36.584,23.912
							c0.297,0.132,0.528-0.561,0.76-0.528"/>
						<path style="fill:none;stroke:#FFFFFF;stroke-width:0.6616;stroke-linejoin:round;" d="M35.99,23.054
							c0.099,0,0.165-0.132,0.33,0.033c0.066,0.066,0.165,0.099,0.231,0.099"/>
						<path style="fill:none;stroke:#FFFFFF;stroke-width:0.6616;stroke-linejoin:round;" d="M36.485,23.549
							c-0.132,0.198-0.363,0.33-0.495,0.264"/>
						<path style="fill:none;stroke:#FFFFFF;stroke-width:0.6616;stroke-linejoin:round;" d="M35.924,22.723
							c-0.099,0.066-0.165,0.198-0.231,0.297"/>
						<path style="fill:none;stroke:#FFFFFF;stroke-width:0.6616;stroke-linejoin:round;" d="M35.593,23.219v0.165"/>
					</g>
				</g>
			</g>
			<g>
				<g id="pineapple1">
					<path style="stroke:#FFFFFF;stroke-width:0.6616;stroke-linejoin:round;" d="M39.127,22.723
						c-0.694-0.528-1.519-1.024-2.279-1.123c0.495,0.297,1.883,1.387,2.246,1.75"/>
					<path style="stroke:#FFFFFF;stroke-width:0.6616;stroke-linejoin:round;" d="M39.524,22.228
						c-0.826-0.561-1.783-1.189-2.708-1.255c0.694,0.363,1.717,1.222,2.279,1.916"/>
					<path style="stroke:#FFFFFF;stroke-width:0.6616;stroke-linejoin:round;" d="M40.58,21.303
						c0.462-1.024,0.958-1.585,1.618-2.213c-0.33,0.694-0.694,2.114-0.859,2.675"/>
					<path style="stroke:#FFFFFF;stroke-width:0.6616;stroke-linejoin:round;" d="M41.307,21.138c0.33-0.727,0.826-1.354,1.684-1.75
						c-0.429,0.429-1.09,1.717-1.255,2.411"/>
					<path style="stroke:#FFFFFF;stroke-width:0.6616;stroke-linejoin:round;" d="M41.604,21.799
						c0.396-0.561,1.189-1.618,2.609-2.18c-0.826,0.826-2.048,2.345-2.345,2.939"/>
					<path style="stroke:#FFFFFF;stroke-width:0.6616;stroke-linejoin:round;" d="M42.067,22.525
						c0.594-0.33,1.783-0.859,2.642-0.694c-0.528,0.198-2.114,0.925-2.807,1.585"/>
					<path style="stroke:#FFFFFF;stroke-width:0.6616;stroke-linejoin:round;" d="M41.935,22.294
						c0.561-0.594,1.585-1.486,2.675-1.85c-0.793,0.76-2.477,2.477-2.708,2.741"/>
					<path style="stroke:#FFFFFF;stroke-width:0.6616;stroke-linejoin:round;" d="M40.349,21.931
						c-0.396-1.222-0.991-2.378-1.883-2.741c0.495,0.727,1.123,1.783,1.453,3.369"/>
					<path style="stroke:#FFFFFF;stroke-width:0.6616;stroke-linejoin:round;" d="M39.59,21.898
						c-0.661-0.793-1.552-1.585-2.576-1.75c0.694,0.396,1.85,1.552,2.279,2.675"/>
					<path style="stroke:#FFFFFF;stroke-width:0.6616;stroke-linejoin:round;" d="M39.953,21.865
						c-0.826-1.486-1.453-1.75-1.816-2.048c0.297,0.561,1.024,2.048,1.453,2.675"/>
					<path style="fill:none;stroke:#FFFFFF;stroke-width:0.6616;stroke-linejoin:round;" d="M38.302,21.765
						c0.396,0.231,0.991,0.793,1.189,1.156"/>
					<path style="stroke:#FFFFFF;stroke-width:0.6616;stroke-linejoin:round;" d="M38.302,22.459
						c0.198,0.165,0.561,0.363,0.892,0.661"/>
					<path style="stroke:#FFFFFF;stroke-width:0.6616;stroke-linejoin:round;" d="M42.232,22.954c0.33-0.264,1.057-0.694,1.42-0.826
						"/>
					<path style="stroke:#FFFFFF;stroke-width:0.6616;stroke-linejoin:round;" d="M42.001,22.723
						c0.33-0.429,0.991-1.024,1.222-1.222"/>
					<path style="stroke:#FFFFFF;stroke-width:0.6616;stroke-linejoin:round;" d="M42.925,20.676
						c-0.297,0.33-0.991,1.156-1.255,1.552"/>
					<path style="stroke:#FFFFFF;stroke-width:0.6616;stroke-linejoin:round;" d="M42.067,20.378
						c-0.231,0.297-0.694,1.156-0.826,1.453"/>
					<path style="stroke:#FFFFFF;stroke-width:0.6616;stroke-linejoin:round;" d="M39.458,20.444
						c0.198,0.528,0.561,1.42,0.694,1.783"/>
					<path style="stroke:#FFFFFF;stroke-width:0.6616;stroke-linejoin:round;" d="M39.16,21.006
						c0.132,0.198,0.396,0.661,0.495,0.991"/>
				</g>
			</g>
			<g>
				<g id="pineapple2">
					<path style="stroke:#FFFFFF;stroke-width:0.6616;stroke-linejoin:round;" d="M40.283,20.841c0-0.297,0.198-0.628,0.396-0.628
						c0.231,0,0.396,0.396,0.396,0.628c0,0.264-0.198,0.495-0.396,0.495S40.283,21.138,40.283,20.841z"/>
					<path style="stroke:#FFFFFF;stroke-width:0.6616;stroke-linejoin:round;" d="M39.854,21.105
						c0.033-0.33,0.264-0.594,0.462-0.561c0.198,0.033,0.297,0.429,0.264,0.661c-0.033,0.264-0.264,0.462-0.429,0.429
						C39.986,21.633,39.821,21.402,39.854,21.105z"/>
					<path style="stroke:#FFFFFF;stroke-width:0.6616;stroke-linejoin:round;" d="M40.746,21.204
						c-0.066-0.297,0.066-0.628,0.264-0.661c0.198-0.033,0.396,0.297,0.429,0.561c0.066,0.264-0.099,0.528-0.264,0.528
						C41.01,21.666,40.779,21.501,40.746,21.204z"/>
					<path style="stroke:#FFFFFF;stroke-width:0.6616;stroke-linejoin:round;" d="M40.25,21.468c0-0.33,0.198-0.628,0.396-0.628
						c0.231,0,0.396,0.363,0.396,0.628s-0.198,0.495-0.396,0.495C40.448,21.964,40.25,21.766,40.25,21.468z"/>
					<path style="stroke:#FFFFFF;stroke-width:0.6616;stroke-linejoin:round;" d="M39.656,21.633c0-0.297,0.231-0.628,0.429-0.628
						s0.396,0.396,0.396,0.628c0,0.264-0.231,0.495-0.396,0.495C39.887,22.129,39.656,21.931,39.656,21.633L39.656,21.633z"/>
					<path style="stroke:#FFFFFF;stroke-width:0.6616;stroke-linejoin:round;" d="M40.878,21.501c0-0.297,0.198-0.628,0.396-0.628
						c0.231,0,0.396,0.396,0.396,0.628c0,0.264-0.198,0.495-0.396,0.495S40.878,21.799,40.878,21.501z"/>
					<path style="stroke:#FFFFFF;stroke-width:0.6616;stroke-linejoin:round;" d="M40.746,21.765c0-0.33,0.231-0.628,0.429-0.628
						s0.396,0.363,0.396,0.628s-0.198,0.495-0.396,0.495S40.746,22.063,40.746,21.765L40.746,21.765z"/>
					<path style="stroke:#FFFFFF;stroke-width:0.6616;stroke-linejoin:round;" d="M40.217,22.063c0-0.33,0.198-0.628,0.396-0.628
						c0.231,0,0.396,0.396,0.396,0.628c0,0.264-0.198,0.495-0.396,0.495S40.217,22.36,40.217,22.063z"/>
					<path style="stroke:#FFFFFF;stroke-width:0.6616;stroke-linejoin:round;" d="M39.392,22.063c0-0.33,0.165-0.628,0.33-0.628
						s0.297,0.396,0.297,0.628c0,0.264-0.165,0.495-0.297,0.495C39.557,22.558,39.392,22.36,39.392,22.063z"/>
					<path style="stroke:#FFFFFF;stroke-width:0.6616;stroke-linejoin:round;" d="M41.241,21.997c0-0.297,0.165-0.594,0.33-0.594
						c0.165,0,0.33,0.363,0.33,0.594c0,0.297-0.198,0.495-0.33,0.495C41.406,22.492,41.241,22.294,41.241,21.997L41.241,21.997z"/>
					<path style="stroke:#FFFFFF;stroke-width:0.6616;stroke-linejoin:round;" d="M41.439,22.558
						c0.066-0.33,0.264-0.594,0.396-0.561c0.132,0.033,0.165,0.429,0.099,0.661c-0.033,0.297-0.231,0.462-0.363,0.429
						C41.439,23.054,41.373,22.822,41.439,22.558z"/>
					<path style="stroke:#FFFFFF;stroke-width:0.6616;stroke-linejoin:round;" d="M40.812,22.459
						c0.033-0.297,0.231-0.594,0.396-0.561c0.198,0,0.297,0.396,0.264,0.628c-0.033,0.297-0.198,0.495-0.363,0.462
						C40.944,22.987,40.779,22.756,40.812,22.459z"/>
					<path style="stroke:#FFFFFF;stroke-width:0.6616;stroke-linejoin:round;" d="M39.887,22.558
						c-0.099-0.33-0.297-0.561-0.429-0.528s-0.165,0.429-0.099,0.661c0.066,0.264,0.264,0.429,0.396,0.396
						C39.854,23.054,39.953,22.822,39.887,22.558L39.887,22.558z"/>
					<path style="stroke:#FFFFFF;stroke-width:0.6616;stroke-linejoin:round;" d="M39.656,22.492c0-0.297,0.165-0.594,0.33-0.594
						c0.198,0,0.33,0.363,0.33,0.594c0,0.297-0.165,0.495-0.33,0.495C39.854,22.987,39.656,22.789,39.656,22.492L39.656,22.492z"/>
					<path style="stroke:#FFFFFF;stroke-width:0.6616;stroke-linejoin:round;" d="M40.151,22.624c0-0.33,0.198-0.628,0.396-0.628
						c0.231,0,0.396,0.363,0.396,0.628c0,0.264-0.198,0.495-0.396,0.495C40.349,23.12,40.151,22.921,40.151,22.624z"/>
					<path style="stroke:#FFFFFF;stroke-width:0.6616;stroke-linejoin:round;" d="M40.316,18.991
						c-0.066,0.264-0.297,0.495-0.132,0.859c-0.297-0.099-0.561-0.132-0.793,0.132c0.297-0.033,0.561,0.066,0.694,0.264
						c-0.264-0.033-0.396,0.099-0.462,0.264c0.231-0.066,0.462-0.132,0.561-0.099c-0.099,0.099-0.264,0.264-0.297,0.396
						c0.198-0.165,0.429-0.132,0.561-0.231c-0.099,0.231,0.099,0.462,0.264,0.694c-0.033-0.33,0.165-0.561,0.066-0.727
						c0.297,0.066,0.33,0.33,0.76,0.33c-0.165-0.099-0.264-0.429-0.462-0.429c0.099-0.033,0.495-0.066,0.561,0
						c-0.066-0.132-0.297-0.264-0.429-0.264c0.132-0.132,0.363-0.396,0.528-0.462c-0.231,0.033-0.594,0.066-0.727,0.264
						c0.33-0.264,0.264-0.76,0.628-0.826c-0.198-0.033-0.495,0.099-0.727,0.33c0.099-0.198,0.099-0.462,0.231-0.528
						c-0.264,0.066-0.561,0.396-0.661,0.561C40.481,19.355,40.382,19.09,40.316,18.991L40.316,18.991z"/>
					<path style="stroke:#FFFFFF;stroke-width:0.6616;stroke-linejoin:round;" d="M40.481,19.52c0,0.099,0,0.297-0.033,0.363"/>
					<path style="stroke:#FFFFFF;stroke-width:0.6616;stroke-linejoin:round;" d="M40.911,19.487
						c-0.066,0.066-0.198,0.297-0.198,0.495"/>
					<path style="fill:none;stroke:#FFFFFF;stroke-width:0.6616;stroke-linejoin:round;" d="M41.109,19.883
						c-0.099,0.066-0.198,0.165-0.231,0.297"/>
				</g>
			</g>
		</g>
		<g id="motto">
			<g id="motto1_1_">
				<path style="fill:#FCEA83;stroke:#000000;stroke-width:0.0991;" d="M30.408,42.44c0.198,0.528,1.618,1.222,3.27,0.33
					c1.123-0.628,1.85-1.519,2.543-3.105c0.198-0.396,0.297-0.892-0.165-1.189c-0.363-0.264-0.958-0.561-1.222-0.826
					c-0.132-0.132-0.264-0.231-0.363-0.33c0.066,0.066,0.132,0.132,0.198,0.231c0.661,0.793-0.033,1.949-0.76,2.642
					c-0.528,0.495-1.486,1.717-2.873,0.561C30.738,40.492,30.045,41.582,30.408,42.44L30.408,42.44z"/>
				<path style="fill:#FCEA83;stroke:#000000;stroke-width:0.0991;" d="M50.488,42.44c-0.231,0.528-1.651,1.222-3.27,0.33
					c-1.123-0.628-1.85-1.519-2.576-3.105c-0.165-0.396-0.264-0.892,0.198-1.189c0.363-0.264,0.958-0.561,1.222-0.826
					c0.132-0.132,0.231-0.231,0.363-0.33c-0.066,0.066-0.132,0.132-0.198,0.231c-0.661,0.793,0.033,1.949,0.727,2.642
					c0.528,0.495,1.519,1.717,2.906,0.561C50.158,40.492,50.819,41.582,50.488,42.44L50.488,42.44z"/>
				<path style="fill:#FCEA83;stroke:#000000;stroke-width:0.0991;" d="M40.448,45.281c2.642,0,6.704-1.189,8.884-5.35
					c0.363-0.694,0-1.057-0.429-1.288c-0.462-0.198-1.024-0.661-1.321-0.958c0.528,0.528,0.429,0.892,0.066,1.486
					c-1.684,2.807-3.996,4.227-7.2,4.227c-3.204,0-5.515-1.42-7.2-4.227c-0.363-0.594-0.462-0.958,0.033-1.486
					c-0.264,0.297-0.859,0.76-1.321,0.958c-0.429,0.231-0.793,0.594-0.429,1.288C33.711,44.092,37.806,45.281,40.448,45.281
					L40.448,45.281z"/>
			</g>
			<g id="motto2_1_">
				<path style="fill:#DB161C;stroke:#000000;stroke-width:0.0991;" d="M34.338,39.699c-0.066-0.33-0.495-0.198-0.628,0.198
					c-0.165-0.231-0.33-0.462-0.462-0.727c-0.396-0.594-0.462-0.991,0.099-1.552c0.264-0.264,0.793-0.561,1.156-0.231
					C35.263,38.015,34.867,39.039,34.338,39.699L34.338,39.699z"/>
				<path style="fill:#DB161C;stroke:#000000;stroke-width:0.0991;" d="M46.525,39.699c0.066-0.33,0.528-0.198,0.661,0.198
					c0.165-0.231,0.33-0.462,0.462-0.727c0.396-0.594,0.462-0.991-0.132-1.552c-0.231-0.264-0.76-0.561-1.156-0.231
					C45.634,38.015,45.997,39.039,46.525,39.699L46.525,39.699z"/>
				<path style="fill:#DB161C;stroke:#000000;stroke-width:0.0991;" d="M30.408,42.44c-0.33-0.495-0.594-1.783-0.661-2.114
					c-0.099-0.297-0.132-0.561,0.231-0.694c0.363-0.132,0.694,0.33,0.859,0.727c0.165,0.396,0.429,0.991,0.727,1.717
					C30.838,41.648,30.243,41.945,30.408,42.44L30.408,42.44z"/>
				<path style="fill:#DB161C;stroke:#000000;stroke-width:0.0991;" d="M50.488,42.44c0.297-0.495,0.561-1.783,0.661-2.114
					c0.066-0.297,0.132-0.561-0.231-0.694c-0.363-0.132-0.694,0.33-0.859,0.727s-0.429,0.991-0.727,1.717
					C50.059,41.648,50.621,41.945,50.488,42.44L50.488,42.44z"/>
			</g>
			<g>
				<path style="fill:#00493D;" d="M32.324,39.468L32.06,39.6c-0.066,0.033-0.066,0.099-0.066,0.132H31.96l-0.132-0.297h0.033
					c0,0.033,0.033,0.066,0.099,0.033l0.561-0.297c0.066-0.033,0.066-0.066,0.033-0.099l0.033-0.033l0.165,0.33H32.72
					c-0.033-0.033-0.066-0.066-0.132-0.033l-0.231,0.132l0.099,0.198l0.264-0.099c0.066-0.033,0.033-0.099,0.033-0.132h0.033
					l0.132,0.297c-0.033-0.033-0.066-0.066-0.132-0.033l-0.561,0.297c-0.066,0.033-0.066,0.066-0.033,0.099l-0.033,0.033
					l-0.165-0.297l0.033-0.033c0.033,0.033,0.066,0.066,0.132,0.033l0.264-0.132L32.324,39.468L32.324,39.468z"/>
				<path style="fill:#00493D;" d="M32.885,39.897c0.066-0.033,0.066-0.066,0.033-0.132h0.033l0.33,0.495l-0.231,0.165v-0.033
					c0.132-0.099,0.132-0.231,0.099-0.264s-0.066-0.066-0.066-0.099c-0.033,0-0.033-0.033-0.099,0.033
					c-0.033,0.033-0.231,0.165-0.231,0.165c0.033,0.033,0.066,0.132,0.231,0.033h0.033l-0.363,0.264v-0.033
					c0.165-0.132,0.099-0.231,0.066-0.264l-0.231,0.165c-0.066,0.033-0.066,0.066-0.066,0.099c0.033,0,0.033,0.033,0.066,0.066
					c0.033,0.066,0.132,0.132,0.297,0.066l0.033,0.033l-0.264,0.099l-0.33-0.528h0.033c0.033,0.033,0.066,0.066,0.132,0.033
					L32.885,39.897L32.885,39.897z"/>
				<path style="fill:#00493D;" d="M33.414,41.152l-0.231,0.198c-0.033,0.033-0.033,0.099,0,0.132h-0.033l-0.231-0.231l0.033-0.033
					c0.033,0.033,0.066,0.066,0.132,0l0.429-0.429c0.066-0.033,0.066-0.066,0.033-0.132l0.231,0.264
					c-0.033-0.033-0.099-0.033-0.132,0l-0.198,0.198l0.165,0.165l0.198-0.165c0.066-0.066,0.033-0.099,0-0.132l0.033-0.033
					l0.231,0.264h-0.033c-0.033,0-0.066-0.033-0.132,0.033l-0.429,0.396c-0.066,0.066-0.066,0.099-0.033,0.132v0.033l-0.231-0.264
					c0.033,0,0.099,0.033,0.132,0l0.231-0.231L33.414,41.152L33.414,41.152z"/>
				<path style="fill:#00493D;" d="M33.909,41.846l0.099,0.099c0.132-0.297,0.132-0.297,0.132-0.297s-0.099,0.033-0.264,0.132
					L33.909,41.846l-0.033,0.033l-0.066-0.066c-0.033,0.033-0.066,0.033-0.099,0.066c-0.099,0.066-0.066,0.099-0.033,0.132v0.033
					l-0.165-0.165h0.033l0.132-0.033c0.661-0.363,0.661-0.363,0.661-0.363l0.033,0.033c0,0-0.033,0.033-0.33,0.694
					c0,0.066-0.033,0.099,0,0.165l-0.264-0.231l0.033-0.033c0.033,0.066,0.099,0.066,0.132,0c0-0.033,0.033-0.099,0.033-0.132
					l-0.099-0.099L33.909,41.846L33.909,41.846z"/>
				<path style="fill:#00493D;" d="M34.173,42.506l0.033-0.033c0.033,0.033,0.066,0.033,0.132,0l0.429-0.561l-0.033-0.033
					c-0.066-0.033-0.165-0.033-0.264,0.066v-0.033l0.132-0.165l0.495,0.363l-0.165,0.198H34.9c0.099-0.099,0.066-0.231,0-0.264
					v-0.033l-0.429,0.561c-0.066,0.033-0.033,0.099,0,0.132h-0.033L34.173,42.506L34.173,42.506z"/>
				<path style="fill:#00493D;" d="M35.032,42.639l-0.165,0.231c-0.033,0.066,0,0.099,0.033,0.132l-0.033,0.033l-0.264-0.198v-0.033
					c0.066,0.033,0.099,0.033,0.132-0.033l0.363-0.495c0.033-0.066,0-0.099-0.033-0.132l0.033-0.033l0.264,0.198v0.033
					c-0.066-0.033-0.099-0.033-0.132,0.033l-0.165,0.231l0.198,0.132l0.165-0.231c0.033-0.066,0-0.099-0.033-0.132l0.033-0.033
					l0.264,0.198v0.033c-0.033-0.033-0.099-0.033-0.132,0.033l-0.33,0.528c-0.066,0.033-0.033,0.066,0,0.099v0.033l-0.297-0.198
					h0.033c0.033,0,0.066,0,0.099-0.033l0.165-0.264L35.032,42.639L35.032,42.639z"/>
				<path style="fill:#00493D;" d="M35.693,43.563l0.033-0.033c0.033,0.033,0.099,0.033,0.132-0.033l0.264-0.561
					c0.033-0.066,0-0.099-0.033-0.132l0.561,0.264l-0.132,0.264l-0.033-0.033c0.099-0.132,0-0.264-0.033-0.297
					c-0.033,0-0.066-0.033-0.099-0.033s-0.033,0-0.066,0.066c-0.033,0.033-0.132,0.231-0.132,0.231
					c0.033,0.033,0.099,0.099,0.231-0.066h0.033l-0.198,0.396l-0.033-0.033c0.099-0.198-0.033-0.231-0.066-0.231l-0.132,0.264
					c-0.033,0.066,0,0.099,0.033,0.099v0.033L35.693,43.563L35.693,43.563z"/>
				<path style="fill:#00493D;" d="M36.65,44.026c-0.099-0.066-0.099-0.264,0-0.462c0.066-0.198,0.198-0.363,0.33-0.297
					c0.099,0.033,0.066,0.231,0,0.429C36.881,43.927,36.749,44.059,36.65,44.026l-0.033,0c0.231,0.099,0.396-0.033,0.495-0.264
					c0.099-0.198,0.066-0.429-0.132-0.528c-0.198-0.099-0.396,0.033-0.495,0.264c-0.099,0.231-0.066,0.462,0.132,0.528L36.65,44.026
					L36.65,44.026z"/>
				<path style="fill:#00493D;" d="M37.674,44.092l0.132-0.396c0.033-0.066,0-0.099-0.033-0.132l0.165,0.033v0.033
					c-0.033,0-0.066,0-0.099,0.066l-0.132,0.396c-0.066,0.165-0.165,0.297-0.363,0.231c-0.132-0.033-0.231-0.198-0.165-0.363
					l0.165-0.429c0.033-0.066,0-0.099-0.033-0.132v-0.033l0.297,0.132v0.033c-0.033-0.033-0.099-0.033-0.099,0.033l-0.165,0.429
					c-0.033,0.132-0.033,0.264,0.066,0.297C37.509,44.323,37.608,44.257,37.674,44.092L37.674,44.092z"/>
				<path style="fill:#00493D;" d="M37.971,43.662c0-0.033,0-0.033-0.033-0.033l0.231,0.033l0.198,0.628l0.099-0.396
					c0.033-0.066,0-0.099-0.033-0.132l0.198,0.033l-0.033,0.033c-0.033,0-0.066,0-0.099,0.066l-0.165,0.727h-0.033l-0.264-0.793
					l-0.165,0.528c0,0.099,0.033,0.099,0.066,0.132v0.033l-0.198-0.066v-0.033c0.033,0.033,0.099,0,0.099-0.066l0.165-0.594
					L37.971,43.662L37.971,43.662z"/>
				<path style="fill:#00493D;" d="M39.094,44.323c-0.066,0.297-0.198,0.363-0.264,0.363h-0.066c0,0-0.033-0.033,0-0.066
					l0.099-0.661c0.033-0.033,0.033-0.066,0.066-0.033h0.066C39.061,43.927,39.127,44.059,39.094,44.323l0.099,0.033
					c0.066-0.33-0.066-0.462-0.231-0.495c-0.132-0.033-0.33-0.066-0.33-0.066v0.033c0.033,0.033,0.099,0.033,0.066,0.132
					l-0.099,0.594c-0.033,0.066-0.066,0.099-0.099,0.099h-0.033l0.33,0.066c0.165,0.033,0.33,0,0.396-0.363L39.094,44.323
					L39.094,44.323z"/>
				<path style="fill:#00493D;" d="M39.392,44.059c0-0.066-0.066-0.099-0.099-0.099v-0.033l0.594,0.066l-0.033,0.264
					c0-0.165-0.099-0.231-0.165-0.231c-0.033-0.033-0.066-0.033-0.099-0.033c-0.033,0-0.033,0-0.033,0.099
					c0,0.033-0.033,0.264-0.033,0.264c0.033,0,0.132,0.033,0.198-0.165l-0.033,0.429h-0.033c0-0.198-0.099-0.198-0.132-0.198
					l-0.033,0.297c0,0.066,0,0.066,0.033,0.066l0.066,0.033c0.099,0,0.198-0.033,0.264-0.231h0.033l-0.066,0.264l-0.628-0.066
					c0.066,0,0.099-0.033,0.132-0.099L39.392,44.059L39.392,44.059z"/>
				<path style="fill:#00493D;" d="M40.481,44.455c0,0.297-0.099,0.396-0.198,0.396c-0.033-0.033-0.033-0.033-0.066-0.033
					l-0.033-0.033l0.033-0.694c0-0.033,0-0.033,0.033-0.033h0.066C40.382,44.059,40.481,44.158,40.481,44.455h0.132
					c0-0.33-0.165-0.429-0.33-0.429c-0.132-0.033-0.33-0.033-0.33-0.033v0.033c0.033,0,0.099,0.033,0.099,0.099l-0.033,0.628
					c0,0.066-0.033,0.099-0.066,0.099v0.033h0.297c0.165,0,0.33-0.066,0.363-0.429H40.481L40.481,44.455z"/>
				<path style="fill:#00493D;" d="M41.439,44.719c0,0.066,0.033,0.066,0.099,0.066v0.033l-0.363,0.033
					c0.033-0.033,0.099-0.066,0.099-0.132l-0.066-0.628c-0.033-0.066-0.066-0.066-0.132-0.066v-0.033l0.363-0.033
					c-0.033,0.033-0.099,0.066-0.066,0.132L41.439,44.719L41.439,44.719z"/>
				<path style="fill:#00493D;" d="M41.769,44.785v-0.033c0.033,0,0.066-0.033,0.066-0.099l-0.132-0.694H41.67
					c-0.066,0.033-0.132,0.099-0.099,0.231h-0.033l-0.033-0.231l0.594-0.099l0.033,0.231H42.1c0-0.132-0.099-0.165-0.198-0.165
					h-0.033l0.132,0.694c0,0.066,0.033,0.099,0.099,0.099v0.033L41.769,44.785L41.769,44.785z"/>
				<path style="fill:#00493D;" d="M43.19,44.125l-0.132-0.396c0-0.066-0.066-0.066-0.099-0.066v-0.033l0.165-0.066v0.033
					c-0.033,0.033-0.033,0.033-0.033,0.099l0.132,0.429c0.033,0.132,0.033,0.33-0.165,0.396c-0.132,0.033-0.297-0.033-0.33-0.231
					l-0.132-0.429c-0.033-0.066-0.066-0.066-0.099-0.066l-0.033-0.033l0.33-0.099v0.033c-0.033,0.033-0.066,0.066-0.033,0.132
					l0.099,0.429c0.033,0.132,0.132,0.198,0.231,0.198C43.19,44.422,43.223,44.29,43.19,44.125L43.19,44.125z"/>
				<path style="fill:#00493D;" d="M43.553,43.894c0.165-0.066,0.132-0.165,0.099-0.264c-0.033-0.099-0.099-0.165-0.165-0.132
					c-0.033,0-0.066,0.033-0.033,0.066L43.553,43.894l0.033,0.033l0.066,0.264c0.033,0.066,0.099,0.066,0.132,0.033v0.033
					l-0.297,0.132l-0.033-0.033c0.066-0.033,0.066-0.066,0.066-0.132l-0.231-0.561c-0.033-0.099-0.066-0.066-0.132-0.066v-0.033
					l0.33-0.132c0.132-0.033,0.264,0,0.33,0.132c0.033,0.165-0.033,0.264-0.165,0.33c-0.033,0-0.066,0.033-0.066,0.033
					L43.553,43.894L43.553,43.894z"/>
				<path style="fill:#00493D;" d="M44.379,43.993c-0.099,0.033-0.231-0.099-0.33-0.33c-0.099-0.198-0.099-0.396,0-0.429
					s0.231,0.099,0.33,0.297S44.478,43.927,44.379,43.993c0.198-0.066,0.264-0.297,0.165-0.528c-0.099-0.198-0.297-0.33-0.495-0.264
					c-0.198,0.099-0.264,0.33-0.165,0.528C43.982,43.96,44.18,44.092,44.379,43.993L44.379,43.993z"/>
				<path style="fill:#00493D;" d="M44.412,43.068h-0.033h-0.033l0.198-0.132l0.594,0.33l-0.198-0.363
					c-0.033-0.066-0.099-0.066-0.132-0.066v-0.033l0.165-0.066c-0.033,0.033-0.066,0.066,0,0.132l0.33,0.661l-0.033,0.033
					l-0.727-0.396l0.264,0.495c0.033,0.066,0.099,0.066,0.132,0.033v0.033l-0.165,0.099v-0.033c0.033-0.033,0.033-0.066,0-0.132
					l-0.264-0.528L44.412,43.068L44.412,43.068z"/>
				<path style="fill:#00493D;" d="M45.898,43.167v-0.033c0-0.033,0.033-0.066,0-0.132l-0.396-0.561h-0.033
					c-0.066,0.033-0.099,0.165,0,0.264l-0.033,0.033l-0.132-0.231l0.495-0.33l0.132,0.198c-0.099-0.099-0.198-0.099-0.264-0.066
					l-0.033,0.033l0.396,0.561c0.033,0.066,0.099,0.066,0.132,0.033v0.033L45.898,43.167z"/>
				<path style="fill:#00493D;" d="M46.261,42.374l0.198,0.231c0.033,0.033,0.099,0.033,0.132,0v0.033l-0.264,0.231v-0.033
					c0.033-0.033,0.033-0.066,0-0.132l-0.396-0.495c-0.033-0.066-0.066-0.033-0.132-0.033l0.264-0.231v0.033
					c0,0.033-0.033,0.066,0,0.132l0.165,0.198l0.198-0.132l-0.165-0.231c-0.033-0.066-0.099-0.033-0.132-0.033l0.264-0.231v0.033
					c-0.033,0.033-0.033,0.066,0,0.132l0.396,0.495c0.033,0.033,0.066,0.033,0.099,0l0.033,0.033l-0.264,0.231l-0.033-0.033
					c0.033-0.033,0.066-0.066,0.033-0.132l-0.198-0.231L46.261,42.374L46.261,42.374z"/>
				<path style="fill:#00493D;" d="M46.558,41.681c-0.033-0.033-0.099-0.033-0.132,0v-0.033l0.429-0.396l0.198,0.198h-0.033
					c-0.099-0.132-0.231-0.066-0.297-0.033c0,0.033-0.033,0.033-0.066,0.066c0,0,0,0.033,0.033,0.099
					c0.033,0.033,0.198,0.198,0.198,0.198c0.033-0.033,0.132-0.099,0-0.264h0.033l0.264,0.297v0.033
					c-0.165-0.165-0.231-0.066-0.264-0.033l0.198,0.198c0.033,0.066,0.066,0.066,0.066,0.066c0.033-0.033,0.066-0.066,0.099-0.099
					c0.033-0.033,0.066-0.132,0-0.33h0.033l0.132,0.231l-0.429,0.429l-0.033-0.033c0.033-0.033,0.066-0.066,0-0.132L46.558,41.681
					L46.558,41.681z"/>
				<path style="fill:#00493D;" d="M47.351,40.756c-0.033,0.033-0.033,0.099,0.033,0.132c0.066,0.066,0.132,0.066,0.264,0
					c0.066-0.033,0.198-0.066,0.297,0.033c0.165,0.165,0.099,0.297,0.066,0.363c-0.033,0.033-0.099,0.066-0.132,0.099
					c-0.033,0-0.033,0-0.033,0.033v0.033l-0.231-0.198h0.033c0.132,0.066,0.264,0.099,0.33,0c0.066-0.066,0-0.132-0.033-0.165
					c-0.066-0.066-0.132-0.066-0.231,0c-0.099,0.033-0.231,0.033-0.33-0.033c-0.132-0.132-0.132-0.231-0.066-0.33
					c0.033-0.033,0.099-0.066,0.132-0.099c0.033,0,0.033,0,0-0.066l0.231,0.165h-0.033C47.483,40.657,47.384,40.69,47.351,40.756
					L47.351,40.756z"/>
				<path style="fill:#00493D;" d="M47.648,40.492c-0.066-0.033-0.099,0-0.132,0.033h-0.033l0.363-0.528l0.231,0.165l-0.033,0.033
					c-0.132-0.099-0.264-0.033-0.297,0c0,0.033-0.033,0.066-0.033,0.099c-0.033,0-0.033,0.033,0.033,0.066
					c0.033,0.033,0.231,0.165,0.231,0.165c0.033-0.033,0.099-0.099-0.033-0.231v-0.033l0.33,0.264c-0.198-0.099-0.231,0-0.264,0.033
					l0.231,0.165c0.066,0.033,0.099,0.033,0.099,0.033c0-0.033,0.033-0.066,0.066-0.099c0.033-0.066,0.066-0.165-0.066-0.297
					l0.033-0.033l0.165,0.198l-0.33,0.495h-0.033c0.033-0.066,0.033-0.099-0.033-0.165L47.648,40.492L47.648,40.492z"/>
				<path style="fill:#00493D;" d="M48.54,39.897l-0.099,0.165c-0.132-0.132-0.198-0.231-0.198-0.231L48.54,39.897h0.066
					c0.033,0,0.099,0.033,0.132,0.033c0.099,0.033,0.066,0.066,0.033,0.132h0.033l0.165-0.297c-0.066,0.066-0.099,0.033-0.165,0.033
					c-0.694-0.132-0.76-0.165-0.76-0.165v0.033l0.528,0.594c0.033,0.033,0.033,0.099,0.033,0.132h0.033l0.099-0.165l-0.033-0.033
					c-0.033,0.066-0.066,0.099-0.132,0c-0.033-0.033-0.066-0.066-0.066-0.066l0.099-0.231H48.54z"/>
				<path style="fill:#00493D;" d="M48.342,39.171c-0.033,0.033-0.033,0.099,0.066,0.132c0.099,0.033,0.132,0,0.231-0.066
					c0.099-0.066,0.198-0.132,0.33-0.066c0.198,0.099,0.165,0.264,0.132,0.33c-0.033,0.033-0.066,0.099-0.099,0.132v0.033v0.033
					l-0.264-0.132c0.165,0.033,0.297,0,0.33-0.099c0.033-0.066-0.033-0.132-0.066-0.165c-0.066-0.033-0.132,0-0.231,0.066
					c-0.099,0.099-0.198,0.132-0.33,0.066c-0.132-0.066-0.198-0.165-0.132-0.264c0-0.066,0.066-0.099,0.099-0.132
					c0-0.033,0-0.033-0.033-0.066V38.94l0.264,0.132h-0.033C48.441,39.039,48.342,39.105,48.342,39.171L48.342,39.171z"/>
			</g>
		</g>
		<g id="crest">
			<g id="rope_1_">
				<path style="fill:#FFFFFF;stroke:#000000;stroke-width:0.0991;" d="M37.905,27.479c-0.429,0.099-0.727,0.132-1.123-0.231
					c-0.264-0.264-0.198-0.727,0.066-0.892c0.297-0.198,0.561-0.33,0.925-0.231s1.321,0.991,1.09,1.024
					C38.632,27.149,38.269,27.38,37.905,27.479L37.905,27.479z"/>
				<path style="fill:#FFFFFF;stroke:#000000;stroke-width:0.0991;" d="M38.929,25.894c0.132-0.099,0.297-0.165,0.727-0.198
					c0.396-0.033,0.694-0.033,0.793,0.264c0.132,0.363,0.231,0.793,0.495,0.991c-0.165,0.099-0.991,0.198-1.288,0.033
					C39.259,26.786,39.16,26.026,38.929,25.894L38.929,25.894z"/>
				<path style="fill:#FFFFFF;stroke:#000000;stroke-width:0.0991;" d="M41.769,25.927c0.132-0.099,0.297-0.099,0.727-0.066
					s0.594,0.066,0.694,0.363c0.099,0.33,0,0.76,0.198,1.057c-0.198,0.066-0.859,0.066-1.09-0.165
					C41.935,26.852,41.968,26.092,41.769,25.927L41.769,25.927z"/>
				<path style="fill:#073163;stroke:#000000;stroke-width:0.0991;" d="M43.751,26.125c-0.297-0.066-0.495-0.099-0.628,0
					c0.165,0.198,0.033,0.991,0.363,1.255c0.231,0.165,0.826,0.198,0.958-0.165C44.61,26.885,44.61,26.389,43.751,26.125
					L43.751,26.125z"/>
				<path style="fill:#073163;stroke:#000000;stroke-width:0.0991;" d="M40.349,25.795c0.099-0.099,0.297-0.132,0.694-0.132
					c0.429,0,0.694,0.066,0.826,0.33c0.132,0.33,0.099,0.76,0.33,1.024c-0.099,0.132-0.991,0.132-1.255-0.066
					C40.58,26.72,40.547,25.96,40.349,25.795L40.349,25.795z"/>
				<path style="fill:#073163;stroke:#000000;stroke-width:0.0991;" d="M37.542,26.092c0-0.165,0.231-0.198,0.826-0.231
					c0.594-0.066,0.628-0.033,0.826,0.396c0.099,0.231,0.231,0.628,0.495,0.76c-0.727,0.165-0.958,0.264-1.354,0.033
					c-0.297-0.165-0.628-0.561-0.694-0.727C37.608,26.224,37.608,26.125,37.542,26.092L37.542,26.092z"/>
			</g>
			<g>
				<g id="pineapple1_1_">
					<path style="fill:#F9D050;stroke:#000000;stroke-width:0.0446;" d="M39.127,22.723c-0.694-0.528-1.519-1.024-2.279-1.123
						c0.495,0.297,1.883,1.387,2.246,1.75"/>
					<path style="fill:#F9D050;stroke:#000000;stroke-width:0.0446;" d="M39.524,22.228c-0.826-0.561-1.783-1.189-2.708-1.255
						c0.694,0.363,1.717,1.222,2.279,1.916"/>
					<path style="fill:#F9D050;stroke:#000000;stroke-width:0.0446;" d="M40.58,21.303c0.462-1.024,0.958-1.585,1.618-2.213
						c-0.33,0.694-0.694,2.114-0.859,2.675"/>
					<path style="fill:#F9D050;stroke:#000000;stroke-width:0.0446;" d="M41.307,21.138c0.33-0.727,0.826-1.354,1.684-1.75
						c-0.429,0.429-1.09,1.717-1.255,2.411"/>
					<path style="fill:#F9D050;stroke:#000000;stroke-width:0.0446;" d="M41.604,21.799c0.396-0.561,1.189-1.618,2.609-2.18
						c-0.826,0.826-2.048,2.345-2.345,2.939"/>
					<path style="fill:#F9D050;stroke:#000000;stroke-width:0.0446;" d="M42.067,22.525c0.594-0.33,1.783-0.859,2.642-0.694
						c-0.528,0.198-2.114,0.925-2.807,1.585"/>
					<path style="fill:#F9D050;stroke:#000000;stroke-width:0.0446;" d="M41.935,22.294c0.561-0.594,1.585-1.486,2.675-1.85
						c-0.793,0.76-2.477,2.477-2.708,2.741"/>
					<path style="fill:#F9D050;stroke:#000000;stroke-width:0.0446;" d="M40.349,21.931c-0.396-1.222-0.991-2.378-1.883-2.741
						c0.495,0.727,1.123,1.783,1.453,3.369"/>
					<path style="fill:#F9D050;stroke:#000000;stroke-width:0.0446;" d="M39.59,21.898c-0.661-0.793-1.552-1.585-2.576-1.75
						c0.694,0.396,1.85,1.552,2.279,2.675"/>
					<path style="fill:#F9D050;stroke:#000000;stroke-width:0.0446;" d="M39.953,21.865c-0.826-1.486-1.453-1.75-1.816-2.048
						c0.297,0.561,1.024,2.048,1.453,2.675"/>
					<path style="fill:none;stroke:#000000;stroke-width:0.0446;" d="M38.302,21.765c0.396,0.231,0.991,0.793,1.189,1.156"/>
					<path style="fill:#F9D050;stroke:#000000;stroke-width:0.0446;" d="M38.302,22.459c0.198,0.165,0.561,0.363,0.892,0.661"/>
					<path style="fill:#F9D050;stroke:#000000;stroke-width:0.0446;" d="M42.232,22.954c0.33-0.264,1.057-0.694,1.42-0.826"/>
					<path style="fill:#F9D050;stroke:#000000;stroke-width:0.0446;" d="M42.001,22.723c0.33-0.429,0.991-1.024,1.222-1.222"/>
					<path style="fill:#F9D050;stroke:#000000;stroke-width:0.0446;" d="M42.925,20.676c-0.297,0.33-0.991,1.156-1.255,1.552"/>
					<path style="fill:#F9D050;stroke:#000000;stroke-width:0.0446;" d="M42.067,20.378c-0.231,0.297-0.694,1.156-0.826,1.453"/>
					<path style="fill:#F9D050;stroke:#000000;stroke-width:0.0446;" d="M39.458,20.444c0.198,0.528,0.561,1.42,0.694,1.783"/>
					<path style="fill:#F9D050;stroke:#000000;stroke-width:0.0446;" d="M39.16,21.006c0.132,0.198,0.396,0.661,0.495,0.991"/>
				</g>
				<g id="pineapple2_1_">
					<path style="fill:#F9D050;stroke:#000000;stroke-width:0.0446;" d="M40.283,20.841c0-0.297,0.198-0.628,0.396-0.628
						c0.231,0,0.396,0.396,0.396,0.628c0,0.264-0.198,0.495-0.396,0.495S40.283,21.138,40.283,20.841z"/>
					<path style="fill:#F9D050;stroke:#000000;stroke-width:0.0446;" d="M39.854,21.105c0.033-0.33,0.264-0.594,0.462-0.561
						c0.198,0.033,0.297,0.429,0.264,0.661c-0.033,0.264-0.264,0.462-0.429,0.429C39.986,21.633,39.821,21.402,39.854,21.105z"/>
					<path style="fill:#F9D050;stroke:#000000;stroke-width:0.0446;" d="M40.746,21.204c-0.066-0.297,0.066-0.628,0.264-0.661
						c0.198-0.033,0.396,0.297,0.429,0.561c0.066,0.264-0.099,0.528-0.264,0.528C41.01,21.666,40.779,21.501,40.746,21.204z"/>
					<path style="fill:#F9D050;stroke:#000000;stroke-width:0.0446;" d="M40.25,21.468c0-0.33,0.198-0.628,0.396-0.628
						c0.231,0,0.396,0.363,0.396,0.628s-0.198,0.495-0.396,0.495C40.448,21.964,40.25,21.766,40.25,21.468z"/>
					<path style="fill:#F9D050;stroke:#000000;stroke-width:0.0446;" d="M39.656,21.633c0-0.297,0.231-0.628,0.429-0.628
						s0.396,0.396,0.396,0.628c0,0.264-0.231,0.495-0.396,0.495C39.887,22.129,39.656,21.931,39.656,21.633L39.656,21.633z"/>
					<path style="fill:#F9D050;stroke:#000000;stroke-width:0.0446;" d="M40.878,21.501c0-0.297,0.198-0.628,0.396-0.628
						c0.231,0,0.396,0.396,0.396,0.628c0,0.264-0.198,0.495-0.396,0.495S40.878,21.799,40.878,21.501z"/>
					<path style="fill:#F9D050;stroke:#000000;stroke-width:0.0446;" d="M40.746,21.765c0-0.33,0.231-0.628,0.429-0.628
						s0.396,0.363,0.396,0.628s-0.198,0.495-0.396,0.495S40.746,22.063,40.746,21.765L40.746,21.765z"/>
					<path style="fill:#F9D050;stroke:#000000;stroke-width:0.0446;" d="M40.217,22.063c0-0.33,0.198-0.628,0.396-0.628
						c0.231,0,0.396,0.396,0.396,0.628c0,0.264-0.198,0.495-0.396,0.495S40.217,22.36,40.217,22.063z"/>
					<path style="fill:#F9D050;stroke:#000000;stroke-width:0.0446;" d="M39.392,22.063c0-0.33,0.165-0.628,0.33-0.628
						s0.297,0.396,0.297,0.628c0,0.264-0.165,0.495-0.297,0.495C39.557,22.558,39.392,22.36,39.392,22.063z"/>
					<path style="fill:#F9D050;stroke:#000000;stroke-width:0.0446;" d="M41.241,21.997c0-0.297,0.165-0.594,0.33-0.594
						c0.165,0,0.33,0.363,0.33,0.594c0,0.297-0.198,0.495-0.33,0.495C41.406,22.492,41.241,22.294,41.241,21.997L41.241,21.997z"/>
					<path style="fill:#F9D050;stroke:#000000;stroke-width:0.0446;" d="M41.439,22.558c0.066-0.33,0.264-0.594,0.396-0.561
						c0.132,0.033,0.165,0.429,0.099,0.661c-0.033,0.297-0.231,0.462-0.363,0.429C41.439,23.054,41.373,22.822,41.439,22.558z"/>
					<path style="fill:#F9D050;stroke:#000000;stroke-width:0.0446;" d="M40.812,22.459c0.033-0.297,0.231-0.594,0.396-0.561
						c0.198,0,0.297,0.396,0.264,0.628c-0.033,0.297-0.198,0.495-0.363,0.462C40.944,22.987,40.779,22.756,40.812,22.459z"/>
					<path style="fill:#F9D050;stroke:#000000;stroke-width:0.0446;" d="M39.887,22.558c-0.099-0.33-0.297-0.561-0.429-0.528
						s-0.165,0.429-0.099,0.661c0.066,0.264,0.264,0.429,0.396,0.396C39.854,23.054,39.953,22.822,39.887,22.558L39.887,22.558z"/>
					<path style="fill:#F9D050;stroke:#000000;stroke-width:0.0446;" d="M39.656,22.492c0-0.297,0.165-0.594,0.33-0.594
						c0.198,0,0.33,0.363,0.33,0.594c0,0.297-0.165,0.495-0.33,0.495C39.854,22.987,39.656,22.789,39.656,22.492L39.656,22.492z"/>
					<path style="fill:#F9D050;stroke:#000000;stroke-width:0.0446;" d="M40.151,22.624c0-0.33,0.198-0.628,0.396-0.628
						c0.231,0,0.396,0.363,0.396,0.628c0,0.264-0.198,0.495-0.396,0.495C40.349,23.12,40.151,22.921,40.151,22.624z"/>
					<path style="fill:#F9D050;stroke:#000000;stroke-width:0.0446;" d="M40.316,18.991c-0.066,0.264-0.297,0.495-0.132,0.859
						c-0.297-0.099-0.561-0.132-0.793,0.132c0.297-0.033,0.561,0.066,0.694,0.264c-0.264-0.033-0.396,0.099-0.462,0.264
						c0.231-0.066,0.462-0.132,0.561-0.099c-0.099,0.099-0.264,0.264-0.297,0.396c0.198-0.165,0.429-0.132,0.561-0.231
						c-0.099,0.231,0.099,0.462,0.264,0.694c-0.033-0.33,0.165-0.561,0.066-0.727c0.297,0.066,0.33,0.33,0.76,0.33
						c-0.165-0.099-0.264-0.429-0.462-0.429c0.099-0.033,0.495-0.066,0.561,0c-0.066-0.132-0.297-0.264-0.429-0.264
						c0.132-0.132,0.363-0.396,0.528-0.462c-0.231,0.033-0.594,0.066-0.727,0.264c0.33-0.264,0.264-0.76,0.628-0.826
						c-0.198-0.033-0.495,0.099-0.727,0.33c0.099-0.198,0.099-0.462,0.231-0.528c-0.264,0.066-0.561,0.396-0.661,0.561
						C40.481,19.355,40.382,19.09,40.316,18.991L40.316,18.991z"/>
					<path style="fill:#F9D050;stroke:#000000;stroke-width:0.0446;" d="M40.481,19.52c0,0.099,0,0.297-0.033,0.363"/>
					<path style="fill:#F9D050;stroke:#000000;stroke-width:0.0446;" d="M40.911,19.487c-0.066,0.066-0.198,0.297-0.198,0.495"/>
					<path style="fill:none;stroke:#000000;stroke-width:0.0446;" d="M41.109,19.883c-0.099,0.066-0.198,0.165-0.231,0.297"/>
				</g>
			</g>
			<g id="turtle_1_">
				<path style="fill:#059334;stroke:#000000;stroke-width:0.0991;" d="M37.608,23.153c-0.231,0-0.429-0.099-0.561-0.264
					c-0.231-0.297-0.859-0.429-1.123-0.165c-0.099,0.066-0.231,0.066-0.33,0.099c-0.165,0-0.363,0.165-0.297,0.495
					c0.132-0.099,0.165,0,0.264,0c0.066-0.033,0.033,0.033,0.033,0.099c0,0.165,0.363,0.495,0.694,0.462
					c0.363,0,0.528,0.132,0.594,0.198c0.099,0.099,0.033,0.066,0.099,0.231c0.099,0.099,0.132,0.132-0.033,0.264
					c-0.231,0.198-0.396,0.661,0,1.024c0.429,0.33,1.519,0.826,2.741-0.132c1.189-0.925,3.038-0.396,3.171-0.066
					c0.165,0.33,0.231,0.528,0.264,0.694c0.033,0.132,0.198,0.264,0.429,0.231c0.231,0,0.495,0.099,0.628,0.198
					c0.165,0.099,0.396,0.066,0.33-0.231c-0.132-0.925-0.694-1.057-0.76-1.486c0.33,0.033,0.561,0.033,0.694-0.099
					c0.099-0.132,0.231-0.363,0.363-0.429c0.099-0.066,0.099-0.132-0.033-0.099c-0.165,0.033-0.264,0.099-0.561,0.066
					C42.694,24.077,38.434,22.921,37.608,23.153L37.608,23.153z"/>
				<path style="stroke:#000000;stroke-width:0.0991;" d="M44.346,24.276c-0.165,0.099-0.33,0.264-0.628,0.661
					c-0.33,0.429-1.321,0.859-2.543,0.859c-1.189,0-1.916-0.198-2.444-0.628c-0.297-0.231-0.528-0.363-0.727-0.462
					c-0.363-0.165-0.429-0.528-0.33-0.826c-0.099,0.165-0.165,0.33-0.363,0.297c-0.132,0-0.396,0-0.33,0.132
					c-0.033-0.066-0.033-0.165-0.066-0.198c-0.033-0.033-0.066-0.066-0.066-0.066c0.099,0.066,0.33-0.132,0.495-0.132
					c0.132,0.033,0.297-0.132,0.264-0.33c-0.033-0.165-0.066-0.297-0.099-0.429c0.264-0.132,3.732,0.495,4.426,0.561
					C42.628,23.747,44.61,24.044,44.346,24.276L44.346,24.276z"/>
				<path style="fill:#059334;stroke:#000000;stroke-width:0.0991;" d="M38.07,23.021c0.33-0.33,0.727-0.495,1.123-0.396h0.099
					c0.198-0.165,0.661-0.198,0.925-0.066h0.132c0.396-0.132,1.156,0,1.42,0.264l0.099,0.066c0.892-0.066,1.42,0.33,2.048,0.958
					c0.066,0.066,0.165,0.198,0.33,0.231c0.198,0.033,0.231,0.132,0.066,0.231c-0.198,0.099-0.363,0.264-0.694,0.628
					c-0.297,0.396-1.255,0.793-2.444,0.793c-1.156,0-1.85-0.198-2.378-0.594c-0.297-0.231-0.528-0.363-0.694-0.462
					c-0.198-0.066-0.462-0.33-0.363-0.594c0.066-0.264-0.099-0.594-0.231-0.925c0.099-0.066,0.363-0.165,0.495-0.099L38.07,23.021
					L38.07,23.021z"/>
				<g>
					<path style="fill:#00493D;stroke:#000000;stroke-width:0.0991;" d="M43.916,23.846c-0.628-0.628-1.156-1.024-2.048-0.958
						c0,0.033,0,0.132-0.033,0.198c0.528,0.198,1.288,0.793,1.618,1.222C43.586,24.176,43.817,24.011,43.916,23.846L43.916,23.846z"
						/>
					<path style="fill:#00493D;stroke:#000000;stroke-width:0.0991;" d="M41.769,22.822c-0.264-0.264-1.024-0.396-1.42-0.264
						c0,0.132,0,0.33-0.066,0.462c0.231,0.099,0.429,0.33,0.628,0.561c0.132-0.033,0.462-0.132,0.628-0.165
						C41.604,23.285,41.736,22.988,41.769,22.822z"/>
					<path style="fill:#00493D;stroke:#000000;stroke-width:0.0991;" d="M40.217,22.558c-0.264-0.132-0.727-0.099-0.925,0.066
						c-0.066,0.132-0.099,0.396-0.099,0.528c0.132,0,0.33,0.099,0.396,0.165c0.198-0.066,0.462-0.198,0.561-0.297
						C40.184,22.888,40.25,22.69,40.217,22.558L40.217,22.558z"/>
					<path style="fill:#00493D;stroke:#000000;stroke-width:0.0991;" d="M38.07,23.021c0.33-0.33,0.727-0.495,1.123-0.396
						c-0.066,0.099-0.099,0.297-0.099,0.495c-0.363-0.033-0.826,0.066-1.024,0.198V23.021z"/>
					<path style="fill:#00493D;stroke:#000000;stroke-width:0.0991;" d="M43.322,24.375c-0.297-0.429-1.024-0.925-1.519-1.156
						c0,0.033-0.066,0.165-0.099,0.264c0.198,0.297,0.594,0.958,0.76,1.321C42.628,24.738,43.091,24.54,43.322,24.375L43.322,24.375
						z"/>
					<path style="fill:#00493D;stroke:#000000;stroke-width:0.0991;" d="M40.812,25.101c0.066-0.462,0.099-1.123,0.099-1.354
						c0.165-0.033,0.495-0.132,0.628-0.165c0.165,0.264,0.561,0.958,0.727,1.288C41.869,24.969,41.208,25.134,40.812,25.101
						L40.812,25.101z"/>
					<path style="fill:#00493D;stroke:#000000;stroke-width:0.0991;" d="M39.656,23.516c0.165-0.066,0.396-0.198,0.561-0.33
						c0.132,0.099,0.396,0.33,0.495,0.462c0,0.297-0.099,1.156-0.132,1.453c-0.264,0-0.694-0.066-0.925-0.198
						C39.689,24.408,39.722,23.846,39.656,23.516L39.656,23.516z"/>
					<path style="fill:#00493D;stroke:#000000;stroke-width:0.0991;" d="M38.004,23.912c0.033-0.066,0.066-0.297,0.066-0.396
						c0.264-0.165,0.925-0.33,1.42-0.066c0.033,0.33,0,1.156-0.033,1.354C39.028,24.474,38.335,24.011,38.004,23.912L38.004,23.912z
						"/>
				</g>
				<g>
					<path d="M36.353,23.318c-0.066,0-0.099-0.198-0.231-0.198c-0.033,0-0.132,0.033-0.165,0c0,0.066,0.033,0.132,0.066,0.165
						C36.056,23.384,36.221,23.318,36.353,23.318L36.353,23.318z"/>
					<path style="fill:none;stroke:#000000;stroke-width:0.0991;" d="M36.353,23.879c0.396,0,0.462-0.495,0.661-0.528"/>
					<path style="fill:none;stroke:#000000;stroke-width:0.0991;" d="M36.584,23.912c0.297,0.132,0.528-0.561,0.76-0.528"/>
					<path style="fill:none;stroke:#000000;stroke-width:0.0991;" d="M35.99,23.054c0.099,0,0.165-0.132,0.33,0.033
						c0.066,0.066,0.165,0.099,0.231,0.099"/>
					<path style="fill:none;stroke:#000000;stroke-width:0.0991;" d="M36.485,23.549c-0.132,0.198-0.363,0.33-0.495,0.264"/>
					<path style="fill:none;stroke:#000000;stroke-width:0.0991;" d="M35.924,22.723c-0.099,0.066-0.165,0.198-0.231,0.297"/>
					<path style="fill:none;stroke:#000000;stroke-width:0.0991;" d="M35.593,23.219v0.165"/>
				</g>
			</g>
		</g>
		<g>
			<path id="shield_1_" style="fill:#FFFFFF;" d="M46.624,27.512v6.44c0,5.582-2.642,7.497-6.176,9.016
				c-3.534-1.519-6.209-3.435-6.209-9.016v-6.44H46.624L46.624,27.512z"/>
			<path style="fill:#CF142B;" d="M40.448,32.962c0.297,0,0.76-0.264,1.156-0.661c0.429-0.462,1.156-0.628,1.916,0
				c0.76,0.628,1.222,0.363,1.618,0c0.396-0.363,0.727-0.495,1.486-0.495v-4.294H34.239v4.294c0.76,0,1.09,0.132,1.486,0.495
				c0.396,0.363,0.859,0.628,1.618,0c0.793-0.628,1.486-0.462,1.949,0C39.656,32.697,40.118,32.962,40.448,32.962L40.448,32.962z"/>
			<g>
				<path style="fill:#0B50A0;" d="M40.448,36.264c0.396,0,1.189-0.429,1.387-0.528c0.727-0.429,1.255-0.033,1.684,0.165
					c0.462,0.198,1.321,0.429,1.85,0c0.528-0.429,0.826-0.396,1.189-0.396c0.066-0.495,0.066-0.991,0.066-1.552v-0.396
					c-0.462-0.099-0.694,0.033-1.189,0.462c-0.495,0.429-1.057,0.33-1.783,0.066c-0.694-0.297-1.387-0.826-2.081,0
					c-0.198,0.231-0.661,0.561-1.123,0.561c-0.495,0-0.925-0.33-1.123-0.561c-0.727-0.826-1.387-0.297-2.081,0
					c-0.727,0.264-1.321,0.363-1.816-0.066c-0.462-0.429-0.694-0.561-1.189-0.462v0.396c0,0.561,0.033,1.057,0.099,1.552
					c0.363,0,0.628-0.033,1.156,0.396c0.528,0.429,1.42,0.198,1.85,0c0.462-0.198,0.991-0.594,1.717-0.165
					C39.259,35.835,40.019,36.264,40.448,36.264L40.448,36.264z"/>
				<path style="fill:#0B50A0;" d="M40.448,37.684c0.495,0,1.09-0.198,1.618-0.495c0.661-0.363,1.123-0.198,1.783,0.132
					c0.694,0.33,1.255,0.231,1.651,0c0.198-0.132,0.363-0.396,0.793-0.297c-0.198,0.826-0.495,1.552-0.859,2.147
					c-0.661,0.165-1.024,0.165-1.717-0.132c-0.694-0.33-1.552-0.528-2.015-0.231c-0.429,0.264-0.892,0.396-1.255,0.396
					c-0.363,0-0.826-0.132-1.255-0.396c-0.462-0.297-1.321-0.099-2.015,0.231c-0.694,0.297-1.057,0.297-1.717,0.132
					c-0.363-0.594-0.661-1.321-0.859-2.147c0.429-0.099,0.594,0.165,0.793,0.297c0.363,0.231,0.958,0.33,1.618,0
					c0.694-0.33,1.156-0.495,1.816-0.132C39.359,37.486,39.953,37.684,40.448,37.684L40.448,37.684z"/>
				<path style="fill:#0B50A0;" d="M40.448,42.969c1.321-0.561,2.543-1.189,3.534-2.048c-0.264-0.099-0.429-0.033-0.661-0.198
					c-0.231-0.165-0.925-0.231-1.519,0.099c-0.628,0.297-0.892,0.363-1.354,0.363c-0.462,0-0.727-0.066-1.354-0.363
					c-0.594-0.33-1.288-0.264-1.519-0.099c-0.231,0.165-0.396,0.099-0.661,0.198C37.905,41.78,39.094,42.407,40.448,42.969
					L40.448,42.969z"/>
			</g>
			<g id="lion_1_">
				<path style="fill:#F9D050;stroke:#000000;stroke-width:0.0991;" d="M39.59,29.131c0.033,0.066-0.033,0.231,0,0.297
					c0.066,0.132,0.066,0.198,0.165,0.264h0.231c0.727,0,1.585-0.297,2.312-0.297c0.694,0,1.123,0.231,1.519,0.231
					c0.231,0,0.429-0.165,0.429-0.33s-0.264-0.264-0.826-0.264c-0.793,0-1.222,0.198-1.883,0.198c-0.991,0-1.156-0.363-1.156-0.528
					c0-0.165,0.165-0.396,0.694-0.396c0.165,0,0.297-0.033,0.363-0.099c0.033-0.066,0.132-0.198,0.33-0.297
					c0.231-0.132,0.694,0,0.925-0.165c0,0.132-0.198,0.33-0.363,0.396c0.33-0.099,0.694-0.099,0.76,0.165
					c-0.165-0.099-0.429-0.033-0.528,0c-0.132,0.033-0.198,0.066-0.33,0.099c0.132-0.033,0.198,0.231,0.396,0.231
					C42.43,28.8,42.1,28.8,41.769,28.668c-0.099-0.033-0.363-0.132-0.528-0.132c-0.33,0-0.528,0.066-0.528,0.198
					c0,0.165,0.198,0.264,0.793,0.264c0.594,0,0.925-0.165,1.816-0.165c-0.066-0.099,0.033-0.198-0.099-0.297
					c0.33,0,0.694,0.099,0.826,0.33c-0.033-0.231,0.165-0.429,0.099-0.628c0.198,0.033,0.363,0.231,0.396,0.396
					c0-0.099,0.132-0.099,0.132-0.198c0.198,0.099,0.297,0.33,0.264,0.528c0.099-0.165,0.198-0.099,0.264-0.297
					c0.066,0.132,0.033,0.528-0.198,0.661c0.198-0.132,0.495-0.132,0.694,0.099c-0.198-0.033-0.297,0.066-0.396,0.099
					c-0.396,0.231-1.057,0.363-1.552,0.33c-0.528-0.033-0.594-0.132-0.925-0.132c0.198,0.033,0.594,0.429,0.958,0.429
					c0.231,0,0.396,0,0.495-0.033c0.099-0.033,0.264,0,0.396,0.066c0.099,0.099,0.297,0.198,0.429,0.165
					c-0.033,0.132-0.099,0.198-0.198,0.231c0.165,0.099,0.066,0.165,0.231,0.297c-0.066,0-0.132,0.066-0.231,0.033
					c0.099,0.099,0.099,0.231,0.198,0.297c-0.033,0-0.132,0.033-0.198,0c0.099,0.132,0,0.297,0.099,0.363
					c0.099,0.132-0.099,0.297-0.264,0.165c0.033,0.099-0.066,0.198-0.165,0.165c-0.099-0.033-0.165-0.132-0.132-0.165
					c0-0.033,0-0.033,0.033-0.066c-0.066,0.099-0.198,0.099-0.264,0.066c-0.033-0.033-0.066-0.066-0.066-0.099
					c-0.231,0.066-0.33-0.132-0.297-0.231c0.033-0.099,0.231-0.132,0.297-0.099c0.066,0.033,0.132,0.066,0.198,0
					c0.066-0.033,0.099-0.099,0.099-0.165c0-0.099-0.099-0.396-0.528-0.363c-0.495,0.033-1.288-0.099-1.684-0.231
					c-0.033-0.033-0.066-0.033-0.099-0.066c0,0.132-0.132,0.198-0.132,0.33c0,0.165,0.066,0.297,0.264,0.363
					c-0.099,0.165-0.264,0.132-0.33,0.033c0,0.099-0.132,0.165-0.132,0.297c-0.033-0.066-0.066-0.099-0.099-0.165
					c-0.099,0.231-0.363,0.363-0.495,0.297c-0.165,0.132-0.363,0.099-0.429-0.033c-0.099,0.066-0.231,0.066-0.297,0
					c0,0.099-0.066,0.066-0.099,0.198c0,0.066-0.132,0.099-0.198,0.066c-0.066-0.033-0.099-0.165-0.033-0.231
					c-0.099,0.066-0.198,0.066-0.264,0c0-0.066,0-0.165,0.066-0.198h0.066c-0.066-0.033-0.165,0-0.231-0.033
					c-0.066-0.066-0.066-0.132-0.033-0.198c0.033-0.033,0.132-0.099,0.198-0.033l0.033,0.033c0-0.066,0.033-0.132,0.066-0.132
					c0.066-0.033,0.165-0.033,0.264,0.066c0.066,0.099,0.132,0.099,0.33,0.066c0.165,0,0.429-0.165,0.628-0.33
					c-0.561-0.099-0.231-0.462-0.066-0.594c-0.132-0.033-0.33-0.033-0.462,0.033c-0.694,0.363-1.42,0.793-1.883,0.661
					c0,0.066,0.033,0.132,0.066,0.198c-0.099,0-0.297,0-0.363-0.099c-0.033,0.066-0.099,0.231-0.033,0.363
					c-0.066-0.066-0.264-0.132-0.363-0.165c0.066,0.066,0,0.198,0.033,0.297c-0.099-0.099-0.264-0.165-0.33-0.099
					s-0.198,0.099-0.297,0.066c-0.066,0.099-0.165,0.165-0.264,0.198c0-0.066,0-0.165-0.033-0.198
					c-0.033,0.099-0.132,0.231-0.264,0.297c0-0.066,0-0.165-0.033-0.231c0,0.132-0.264,0.198-0.297,0.297
					c0.033-0.099,0.033-0.198,0.033-0.264c-0.066,0.099-0.165,0.198-0.33,0.231c0.033-0.066,0.066-0.132,0.033-0.198
					c-0.033,0.132-0.231,0.198-0.396,0.165c0,0.066-0.132,0.165-0.297,0.066c-0.099-0.033-0.165-0.132-0.099-0.198
					c-0.132,0-0.264-0.132-0.198-0.231c0-0.033,0.033-0.066,0.033-0.099c-0.099-0.066-0.132-0.198-0.033-0.297
					c0.033-0.033,0.132-0.033,0.198-0.033c0-0.264,0.231-0.264,0.33-0.066c0.066,0.099,0.264,0.264,0.429,0.231
					c0.066,0,0.099-0.033,0.165-0.033c0.198-0.066,0.594-0.231,0.826-0.429c0.033-0.099,0.033-0.165,0.033-0.231
					c-0.132,0.066-0.264,0.132-0.33,0.231V30.65c-0.099,0-0.264-0.033-0.33-0.033c0.033-0.033,0.066-0.198,0.132-0.231
					c-0.165,0.033-0.33,0-0.462-0.033c0.066-0.066,0.066-0.165,0.099-0.264c-0.066,0.033-0.231-0.033-0.363,0
					c0.033-0.099,0.066-0.231,0.165-0.264c-0.132,0.033-0.297,0-0.462-0.066c0.132,0,0.198-0.165,0.297-0.165
					c-0.264,0-0.33-0.132-0.462-0.198c0.099,0.033,0.165-0.066,0.264-0.066c-0.099-0.033-0.264-0.198-0.198-0.297
					c-0.033,0.033-0.066,0.099-0.132,0.132c-0.066,0.033-0.198,0-0.297-0.099c-0.066-0.132-0.033-0.297,0.099-0.33
					c-0.165-0.033-0.165-0.198-0.099-0.264c0.033-0.066,0.165-0.165,0.231-0.066c0.033,0.033,0.066,0.099,0.099,0.132
					c-0.033-0.066-0.033-0.198-0.033-0.297c0.033-0.099,0.099-0.099,0.198-0.132c0.099,0,0.165,0.099,0.165,0.198
					s0.033,0.165,0.066,0.297c0-0.033,0.033-0.099,0.033-0.132c0-0.132,0.165-0.099,0.264-0.066c0.099,0.033,0.132,0.231,0,0.33
					c-0.066,0.066-0.033,0.165,0.033,0.231c0.231,0.363,0.628,0.661,0.958,0.694c0-0.132,0.066-0.264,0.165-0.363
					c0-0.066,0.033-0.165,0.066-0.231c0.033-0.198,0.132-0.297,0.264-0.231c-0.033-0.033-0.066-0.066-0.066-0.099
					c-0.099-0.099-0.198-0.264-0.132-0.396c0.066-0.132,0.264-0.099,0.33-0.033c-0.033-0.198,0.198-0.363,0.198-0.462
					c0.033,0.099,0.099,0.231,0.066,0.33c0.033-0.132,0.264-0.297,0.429-0.363c-0.066,0.099,0.132,0.264,0.099,0.363
					c0.066-0.165,0.33-0.264,0.528-0.264c-0.066,0.066-0.066,0.198-0.066,0.264c0.099,0,0.264-0.033,0.33-0.132
					c0,0.132-0.066,0.264-0.132,0.33c0.033-0.033,0.165-0.033,0.264-0.033c-0.099,0.099-0.066,0.198-0.165,0.264
					c0.132-0.066,0.297-0.066,0.33,0.066c0.066,0.099-0.033,0.264-0.099,0.363C39.689,29.064,39.623,29.131,39.59,29.131
					L39.59,29.131z"/>
				<g>
					<path style="fill:none;stroke:#000000;stroke-width:0.0991;" d="M37.542,29.527c-0.231,0.099-0.297,0.33-0.33,0.462"/>
					<path style="fill:none;stroke:#000000;stroke-width:0.0991;" d="M37.509,29.758c-0.33,0.198-0.462,0.363-0.396,0.727"/>
					<path style="fill:none;stroke:#000000;stroke-width:0.0991;" d="M37.674,30.749c0.198-0.066,0.33-0.132,0.495-0.429"/>
					<path style="fill:none;stroke:#000000;stroke-width:0.0991;" d="M38.07,30.452c-0.066,0.132,0,0.363-0.099,0.462
						c0.165-0.099,0.297-0.231,0.33-0.462"/>
					<path style="fill:none;stroke:#000000;stroke-width:0.0991;" d="M38.136,30.815c0.132-0.066,0.33-0.264,0.429-0.495
						c-0.033,0.099,0,0.264-0.066,0.363c0.165-0.165,0.231-0.264,0.264-0.429c0,0.033,0.033,0.099,0.033,0.132
						c0.066-0.066,0.132-0.132,0.132-0.264"/>
					<path style="fill:none;stroke:#000000;stroke-width:0.0991;" d="M38.929,30.22v0.165c0.132-0.099,0.165-0.231,0.165-0.396"/>
					<path style="fill:none;stroke:#000000;stroke-width:0.0991;" d="M39.061,30.187c0.198-0.132,0.231-0.33,0.231-0.628"/>
					<path style="fill:none;stroke:#000000;stroke-width:0.0991;" d="M39.292,29.89c0.132-0.099,0.165-0.165,0.165-0.462"/>
					<path style="fill:none;stroke:#000000;stroke-width:0.0991;" d="M39.028,28.536c-0.066,0-0.132,0.033-0.132,0.132
						c0,0.066-0.099,0.165-0.099,0.264c-0.033,0.132-0.099,0.165-0.198,0.132C38.5,28.998,38.5,28.998,38.5,28.899
						c0-0.132,0.165-0.165,0.165-0.297c0.033-0.066,0.066-0.165,0.099-0.165c-0.165,0.099-0.396,0.033-0.429-0.165"/>
					<path style="fill:none;stroke:#000000;stroke-width:0.0991;" d="M39.325,28.635c-0.066,0.033-0.132-0.066-0.231-0.033
						c-0.033,0-0.132,0.033-0.165,0"/>
					<path style="fill:none;stroke:#000000;stroke-width:0.0991;" d="M38.863,28.8c0.033,0.033,0.198,0.099,0.363,0.033
						c-0.132,0.033-0.231-0.132-0.099-0.231"/>
					<path style="fill:none;stroke:#000000;stroke-width:0.0991;" d="M38.566,28.47c-0.132,0-0.231,0.099-0.198,0.198
						c0.033,0.099,0.165,0.099,0.264,0.033"/>
					<path style="fill:none;stroke:#000000;stroke-width:0.0991;" d="M38.335,30.121c0.033-0.033,0.066-0.099,0.066-0.132
						c0.066,0,0.132-0.033,0.165-0.066c0.132,0,0.231-0.099,0.264-0.198c0.066,0,0.099-0.165,0.132-0.231
						c0.033,0.033,0.099,0,0.132-0.132c0.066,0.033,0.165,0,0.198-0.099"/>
					<path style="fill:none;stroke:#000000;stroke-width:0.0991;" d="M37.938,29.031c0,0.033-0.066,0.099-0.132,0.132
						c0.033,0.066,0,0.231-0.066,0.264c0.033,0.066,0,0.165-0.033,0.231c0,0.033,0.033,0.132,0.033,0.165"/>
					<path style="fill:none;stroke:#000000;stroke-width:0.0991;" d="M38.07,28.371c-0.066,0.165-0.033,0.363,0.099,0.396"/>
					<path style="fill:none;stroke:#000000;stroke-width:0.0991;" d="M38.136,28.899c-0.033,0.165-0.033,0.396-0.066,0.495
						c-0.033,0.066-0.099,0.297,0.165,0.363c0.297,0.066,0.462,0.033,0.628-0.462"/>
					<path style="fill:none;stroke:#000000;stroke-width:0.0991;" d="M39.358,30.584c0,0.033-0.033,0.099-0.099,0.099"/>
					<path style="fill:none;stroke:#000000;stroke-width:0.0991;" d="M39.59,30.518c0,0.066-0.066,0.165-0.099,0.198"/>
					<path style="fill:none;stroke:#000000;stroke-width:0.0991;" d="M39.821,30.452c0,0.066,0,0.165-0.066,0.198"/>
					<path style="fill:none;stroke:#000000;stroke-width:0.0991;" d="M37.806,28.404c0.033,0,0.066,0.066,0.099,0.132
						c-0.099-0.066-0.198,0.099-0.132,0.198"/>
					<path style="fill:none;stroke:#000000;stroke-width:0.0991;" d="M37.707,28.965c-0.033,0.033-0.099,0.066-0.132,0.099"/>
					<path style="fill:none;stroke:#000000;stroke-width:0.0991;" d="M37.608,29.263c-0.033,0-0.066,0.033-0.099,0.033"/>
					<path style="fill:none;stroke:#000000;stroke-width:0.0991;" d="M36.023,28.668c0-0.033,0-0.033,0.033-0.066"/>
					<path style="fill:none;stroke:#000000;stroke-width:0.0991;" d="M35.726,28.569c-0.033,0-0.033,0-0.066-0.033"/>
					<path style="fill:none;stroke:#000000;stroke-width:0.0991;" d="M35.759,29.031h0.066"/>
					<path style="fill:none;stroke:#000000;stroke-width:0.0991;" d="M35.626,28.833c-0.066-0.066-0.165-0.099-0.198-0.099"/>
					<path style="fill:none;stroke:#000000;stroke-width:0.0991;" d="M37.443,30.055c-0.231,0.198-0.33,0.363-0.363,0.594"/>
					<path style="fill:none;stroke:#000000;stroke-width:0.0991;" d="M37.674,30.22c-0.066,0.132-0.165,0.231-0.264,0.297"/>
					<path style="fill:none;stroke:#000000;stroke-width:0.0991;" d="M36.386,31.211c-0.264,0.066-0.462,0.033-0.661-0.099
						c-0.033-0.033-0.066-0.033-0.099-0.066"/>
					<path style="fill:none;stroke:#000000;stroke-width:0.0991;" d="M37.377,30.749c-0.033,0.132-0.066,0.297-0.132,0.33
						c0.264-0.132,0.495-0.33,0.528-0.628"/>
					<path style="fill:none;stroke:#000000;stroke-width:0.0991;" d="M35.461,31.376c0.099-0.033,0.198,0.033,0.264-0.033"/>
					<path style="fill:none;stroke:#000000;stroke-width:0.0991;" d="M41.208,30.286c0.066,0.033,0.165,0.066,0.198,0.099
						c0.033-0.066,0.165-0.165,0.264-0.198"/>
					<path style="fill:none;stroke:#000000;stroke-width:0.0991;" d="M38.863,30.98c-0.033-0.132,0.033-0.297,0.231-0.363"/>
					<path style="fill:none;stroke:#000000;stroke-width:0.0991;" d="M37.575,31.541c0.033-0.066,0.033-0.165,0.066-0.231"/>
					<path style="fill:none;stroke:#000000;stroke-width:0.0991;" d="M36.122,31.641c-0.033,0.066-0.099,0.132-0.099,0.198"/>
					<path style="fill:none;stroke:#000000;stroke-width:0.0991;" d="M35.626,31.707c0,0,0-0.033,0.033-0.033
						c0.066-0.033,0.165-0.099,0.198-0.165"/>
					<path style="fill:none;stroke:#000000;stroke-width:0.0991;" d="M40.118,31.244c-0.066,0.033-0.099,0-0.132-0.033"/>
					<path style="fill:none;stroke:#000000;stroke-width:0.0991;" d="M40.085,31.409c0,0-0.033,0.033-0.066,0.033"/>
					<path style="fill:none;stroke:#000000;stroke-width:0.0991;" d="M40.25,31.575c-0.033,0.033-0.066,0.066-0.099,0.066"/>
					<path style="fill:none;stroke:#000000;stroke-width:0.0991;" d="M41.208,31.641c0.066-0.033,0.099-0.099,0.132-0.231"/>
					<path style="fill:none;stroke:#000000;stroke-width:0.0991;" d="M40.779,31.608c0.099-0.033,0.165-0.099,0.264-0.198"/>
					<path style="fill:none;stroke:#000000;stroke-width:0.0991;" d="M41.703,31.343c0-0.066,0-0.132,0.033-0.198"/>
					<path style="fill:none;stroke:#000000;stroke-width:0.0991;" d="M44.147,31.641c-0.066-0.066-0.066-0.165,0.033-0.231
						c0.066-0.033,0.099-0.066,0.165-0.099"/>
					<path style="fill:none;stroke:#000000;stroke-width:0.0991;" d="M42.133,30.485c-0.528-0.231-0.495-0.528-0.925-0.495"/>
					<path style="fill:none;stroke:#000000;stroke-width:0.0991;" d="M44.478,31.508c0.033,0.033,0,0.132,0,0.165"/>
					<path style="fill:none;stroke:#000000;stroke-width:0.0991;" d="M44.775,31.508c-0.033,0.099-0.033,0.132-0.033,0.231"/>
					<path style="fill:none;stroke:#000000;stroke-width:0.0991;" d="M42.232,28.404h-0.264"/>
					<path style="fill:none;stroke:#000000;stroke-width:0.0991;" d="M39.458,29.527c0,0.066,0.099,0.198,0.363,0.198
						c-0.033,0-0.066-0.033-0.066-0.033"/>
					<path style="fill:none;stroke:#000000;stroke-width:0.0991;" d="M39.59,29.131c-0.033,0.033-0.066,0-0.066,0
						c-0.066-0.066,0.033-0.198,0.132-0.264c-0.099,0.033-0.165,0.033-0.231,0.033c-0.066,0.198-0.264,0.297-0.396,0.165
						c-0.033,0.132-0.198,0.297-0.33,0.264c-0.132-0.066-0.165-0.165-0.132-0.264c-0.165,0.198-0.363,0.066-0.429,0
						c-0.033-0.066,0-0.231,0.066-0.429"/>
				</g>
				<path d="M41.703,30.385c-0.099,0.066-0.198,0-0.297,0.099c-0.066,0.066,0.033,0.099,0.099,0.099
					c-0.033,0.099-0.033,0.132,0.132,0.132c-0.066,0.099,0.132,0.132,0.099,0.264c0.099-0.099,0.099-0.231,0.066-0.33
					C41.769,30.551,41.604,30.485,41.703,30.385L41.703,30.385z"/>
				<g>
					<path style="fill:#073163;" d="M38.698,29.329c-0.132-0.066-0.165-0.165-0.132-0.264c-0.033,0.066-0.099,0.099-0.165,0.099
						c-0.132,0.297-0.297,0.561-0.495,0.561c-0.231,0.033-0.198,0.264-0.033,0.264C38.236,30.055,38.401,29.923,38.698,29.329z"/>
					<path style="fill:#073163;" d="M35.428,28.536c0.099-0.099,0.033-0.198-0.033-0.231c-0.099-0.033-0.297,0-0.396,0.165
						c0.099-0.033,0.198-0.033,0.231,0.033S35.329,28.635,35.428,28.536L35.428,28.536z"/>
					<path style="fill:#073163;" d="M35.593,27.942c0.231,0,0.297,0.033,0.33,0.132c0.033,0.066-0.033,0.165-0.099,0.165
						c-0.099,0-0.198-0.066-0.165-0.099C35.693,28.074,35.693,27.975,35.593,27.942z"/>
					<path style="fill:#073163;" d="M36.254,28.47c0.165,0.033,0.231-0.066,0.132-0.198c-0.033-0.099-0.132-0.165-0.297-0.132
						C36.254,28.239,36.089,28.404,36.254,28.47L36.254,28.47z"/>
					<path style="fill:#073163;" d="M35.032,29.031c0.099,0.165,0.264,0.165,0.33,0.132c0.099-0.033,0.132-0.132,0.099-0.198
						c-0.066-0.099-0.165-0.132-0.198,0C35.197,29.097,35.098,29.064,35.032,29.031z"/>
					<path style="fill:#073163;" d="M35.527,31.046c-0.066-0.132-0.264-0.132-0.429,0c0.066-0.033,0.198,0,0.231,0.066
						c0.033,0.066,0.099,0.066,0.132,0.066C35.494,31.145,35.56,31.112,35.527,31.046z"/>
					<path style="fill:#073163;" d="M35.792,30.848c0-0.165-0.231-0.198-0.363-0.132c0.066,0,0.165,0.066,0.165,0.132
						c0.033,0.066,0.099,0.099,0.132,0.099C35.792,30.914,35.825,30.881,35.792,30.848z"/>
					<path style="fill:#073163;" d="M35.461,31.442c-0.198-0.033-0.297,0.198-0.297,0.363c0.033-0.099,0.132-0.165,0.231-0.132
						c0.099,0,0.132-0.033,0.132-0.099C35.56,31.508,35.527,31.475,35.461,31.442L35.461,31.442z"/>
					<path style="fill:#073163;" d="M35.494,32.004c0.066,0.033,0.132-0.033,0.165-0.132c0-0.066,0.132-0.066,0.165-0.033
						c0.066,0.033,0.066,0.165-0.033,0.231C35.726,32.103,35.56,32.136,35.494,32.004L35.494,32.004z"/>
					<path style="fill:#073163;" d="M40.085,31.013c-0.066-0.033-0.231-0.099-0.363,0c0.099-0.033,0.165,0.033,0.198,0.099
						c0,0.066,0.099,0.099,0.132,0.033C40.085,31.112,40.118,31.046,40.085,31.013z"/>
					<path style="fill:#073163;" d="M39.788,31.244c-0.132-0.066-0.297,0.099-0.33,0.231c0.033-0.033,0.165-0.099,0.231-0.099
						c0.066,0.033,0.132,0,0.132-0.066C39.854,31.277,39.854,31.244,39.788,31.244z"/>
					<path style="fill:#073163;" d="M39.953,31.508c-0.099,0-0.231,0.132-0.231,0.264c0.033-0.066,0.099-0.099,0.165-0.066
						c0.066,0,0.165-0.033,0.165-0.099S40.019,31.508,39.953,31.508L39.953,31.508z"/>
					<path style="fill:#073163;" d="M40.25,31.773c-0.066-0.033-0.165,0-0.165,0.099s0,0.198-0.033,0.231
						c0.066-0.066,0.132-0.099,0.198-0.132C40.283,31.938,40.316,31.839,40.25,31.773L40.25,31.773z"/>
					<path style="fill:#073163;" d="M43.982,31.475c-0.066-0.066-0.165-0.033-0.198,0.033c-0.033,0.066-0.066,0.231,0,0.363
						c0-0.066,0.066-0.165,0.132-0.165C44.015,31.674,44.048,31.541,43.982,31.475L43.982,31.475z"/>
					<path style="fill:#073163;" d="M44.18,31.608c-0.132,0.066-0.132,0.297-0.033,0.429c0-0.066,0.033-0.165,0.099-0.198
						c0.099,0,0.132-0.132,0.099-0.198C44.279,31.574,44.213,31.608,44.18,31.608L44.18,31.608z"/>
					<path style="fill:#073163;" d="M44.577,31.74c-0.066-0.033-0.132,0.033-0.132,0.099c-0.033,0.099,0.033,0.231,0.132,0.297
						c0-0.066,0.033-0.132,0.066-0.165C44.742,31.905,44.709,31.773,44.577,31.74z"/>
					<path style="fill:#073163;" d="M44.874,31.707c-0.066,0-0.132,0.099-0.066,0.198c0.033,0.066,0.099,0.099,0.231,0.066
						c-0.033,0-0.099-0.099-0.066-0.132C45.006,31.773,44.973,31.707,44.874,31.707z"/>
				</g>
			</g>
			<g id="star">
				<path style="fill:#F9D050;" d="M35.693,37.883l1.651-5.086l1.651,5.086l-4.327-3.138h5.35L35.693,37.883z"/>
				<path style="fill:#024919;" d="M36.023,37.42l3.435-2.51H35.23l3.402,2.51l-1.288-4.029L36.023,37.42z"/>
			</g>
			<g>
				<g id="star_1_">
					<path style="fill:#F9D050;" d="M41.902,37.883l1.651-5.086l1.651,5.086l-4.327-3.138h5.35L41.902,37.883z"/>
					<path style="fill:#024919;" d="M42.232,37.42l3.435-2.51h-4.227l3.402,2.51l-1.288-4.029L42.232,37.42z"/>
				</g>
			</g>
			<g>
				<g id="star_2_">
					<path style="fill:#F9D050;" d="M38.797,41.483l1.651-5.086l1.651,5.086l-4.327-3.138h5.35L38.797,41.483z"/>
					<path style="fill:#024919;" d="M39.127,41.02l3.435-2.51h-4.227l3.402,2.51l-1.288-4.029L39.127,41.02z"/>
				</g>
			</g>
			<path style="fill:none;stroke:#000000;stroke-width:0.0991;" d="M46.624,27.512v6.44c0,5.582-2.642,7.497-6.176,9.016
				c-3.534-1.519-6.209-3.435-6.209-9.016v-6.44H46.624L46.624,27.512z"/>
		</g>
	</g>
</g>
</svg>
