<?xml version="1.0" encoding="utf-8"?>
<!-- Generator: Adobe Illustrator 18.1.1, SVG Export Plug-In . SVG Version: 6.00 Build 0)  -->
<!DOCTYPE svg PUBLIC "-//W3C//DTD SVG 1.1//EN" "http://www.w3.org/Graphics/SVG/1.1/DTD/svg11.dtd">
<svg version="1.1" id="Layer_179" xmlns="http://www.w3.org/2000/svg" xmlns:xlink="http://www.w3.org/1999/xlink" x="0px" y="0px"
	 width="56.7px" height="56.7px" viewBox="0 0 56.7 56.7" enable-background="new 0 0 56.7 56.7" xml:space="preserve">
<g>
	<defs>
		<circle id="SVGID_1_" cx="28.3" cy="28.3" r="28.3"/>
	</defs>
	<clipPath id="SVGID_2_">
		<use xlink:href="#SVGID_1_"  overflow="visible"/>
	</clipPath>
	<rect x="0" y="0" clip-path="url(#SVGID_2_)" fill="#00AFCA" width="113.3" height="56.7"/>
	<g clip-path="url(#SVGID_2_)">
		<circle fill="#FEC50C" cx="33.2" cy="23.8" r="7.6"/>
		<path id="r" fill="#FEC50C" d="M33.2,15.1c0.5,0,0.6-0.3,0.6-0.6c0-0.5-0.6-2.6-0.6-2.6s-0.6,2.2-0.6,2.6
			C32.6,14.8,32.8,15.1,33.2,15.1z"/>
		<path id="r_1_" fill="#FEC50C" d="M41.9,23.8c0,0.5,0.3,0.6,0.6,0.6c0.5,0,2.6-0.6,2.6-0.6s-2.2-0.6-2.6-0.6
			C42.2,23.2,41.9,23.3,41.9,23.8z"/>
		<path id="r_2_" fill="#FEC50C" d="M33.2,32.5c-0.5,0-0.6,0.3-0.6,0.6c0,0.5,0.6,2.6,0.6,2.6s0.6-2.2,0.6-2.6
			C33.8,32.7,33.7,32.5,33.2,32.5z"/>
		<path id="r_3_" fill="#FEC50C" d="M24.5,23.8c0-0.5-0.3-0.6-0.6-0.6c-0.5,0-2.6,0.6-2.6,0.6s2.2,0.6,2.6,0.6
			C24.3,24.4,24.5,24.2,24.5,23.8z"/>
		<path id="r_4_" fill="#FEC50C" d="M36.5,15.8c0.4,0.2,0.7,0,0.8-0.3c0.2-0.4,0.4-2.7,0.4-2.7s-1.4,1.8-1.6,2.2
			C36.1,15.3,36.1,15.6,36.5,15.8z"/>
		<path id="r_5_" fill="#FEC50C" d="M41.2,27.1c-0.2,0.4,0,0.7,0.3,0.8c0.4,0.2,2.7,0.4,2.7,0.4s-1.8-1.4-2.2-1.6
			C41.7,26.6,41.4,26.7,41.2,27.1z"/>
		<path id="r_6_" fill="#FEC50C" d="M29.9,31.8c-0.4-0.2-0.7,0-0.8,0.3c-0.2,0.4-0.4,2.7-0.4,2.7s1.4-1.8,1.6-2.2
			C30.4,32.3,30.3,32,29.9,31.8z"/>
		<path id="r_7_" fill="#FEC50C" d="M25.2,20.5c0.2-0.4,0-0.7-0.3-0.8c-0.4-0.2-2.7-0.4-2.7-0.4s1.8,1.4,2.2,1.6
			C24.7,20.9,25,20.9,25.2,20.5z"/>
		<path id="r_8_" fill="#FEC50C" d="M39.3,17.7c0.3,0.3,0.6,0.2,0.9,0c0.3-0.3,1.4-2.3,1.4-2.3s-2,1.1-2.3,1.4
			C39.1,17,39,17.3,39.3,17.7z"/>
		<path id="r_9_" fill="#FEC50C" d="M39.3,29.9c-0.3,0.3-0.2,0.6,0,0.9c0.3,0.3,2.3,1.4,2.3,1.4s-1.1-2-1.4-2.3
			C40,29.7,39.7,29.6,39.3,29.9z"/>
		<path id="r_10_" fill="#FEC50C" d="M27.1,29.9c-0.3-0.3-0.6-0.2-0.9,0c-0.3,0.3-1.4,2.3-1.4,2.3s2-1.1,2.3-1.4
			C27.3,30.6,27.4,30.2,27.1,29.9z"/>
		<path id="r_11_" fill="#FEC50C" d="M27.1,17.7c0.3-0.3,0.2-0.6,0-0.9c-0.3-0.3-2.3-1.4-2.3-1.4s1.1,2,1.4,2.3
			C26.4,17.9,26.8,18,27.1,17.7z"/>
		<path id="r_12_" fill="#FEC50C" d="M41.2,20.5c0.2,0.4,0.5,0.5,0.8,0.3c0.4-0.2,2.2-1.6,2.2-1.6s-2.2,0.3-2.7,0.4
			C41.2,19.8,41,20.1,41.2,20.5z"/>
		<path id="r_13_" fill="#FEC50C" d="M36.5,31.8c-0.4,0.2-0.5,0.5-0.3,0.8c0.2,0.4,1.6,2.2,1.6,2.2s-0.3-2.2-0.4-2.7
			C37.2,31.8,36.9,31.6,36.5,31.8z"/>
		<path id="r_14_" fill="#FEC50C" d="M25.2,27.1c-0.2-0.4-0.5-0.5-0.8-0.3c-0.4,0.2-2.2,1.6-2.2,1.6s2.2-0.3,2.7-0.4
			C25.2,27.8,25.4,27.5,25.2,27.1z"/>
		<path id="r_15_" fill="#FEC50C" d="M29.9,15.8c0.4-0.2,0.5-0.5,0.3-0.8c-0.2-0.4-1.6-2.2-1.6-2.2s0.3,2.2,0.4,2.7
			C29.2,15.8,29.5,16,29.9,15.8z"/>
		<path id="r_16_" fill="#FEC50C" d="M34.9,15.3c0.4,0.1,0.7-0.2,0.7-0.5c0.1-0.4-0.1-2.7-0.1-2.7s-1,2-1.1,2.4
			C34.3,14.9,34.5,15.2,34.9,15.3z"/>
		<path id="r_17_" fill="#FEC50C" d="M41.7,25.5c-0.1,0.4,0.2,0.7,0.5,0.7c0.4,0.1,2.7-0.1,2.7-0.1s-2-1-2.4-1.1
			C42.1,24.9,41.8,25,41.7,25.5z"/>
		<path id="r_18_" fill="#FEC50C" d="M31.5,32.3c-0.4-0.1-0.7,0.2-0.7,0.5c-0.1,0.4,0.1,2.7,0.1,2.7s1-2,1.1-2.4
			C32.1,32.7,32,32.4,31.5,32.3z"/>
		<path id="r_19_" fill="#FEC50C" d="M24.7,22.1c0.1-0.4-0.2-0.7-0.5-0.7c-0.4-0.1-2.7,0.1-2.7,0.1s2,1,2.4,1.1
			C24.3,22.7,24.6,22.5,24.7,22.1z"/>
		<path id="r_20_" fill="#FEC50C" d="M38,16.6c0.4,0.2,0.7,0.1,0.9-0.2c0.3-0.4,0.9-2.5,0.9-2.5s-1.7,1.4-2,1.8
			C37.7,16,37.6,16.3,38,16.6z"/>
		<path id="r_21_" fill="#FEC50C" d="M40.4,28.6c-0.2,0.4-0.1,0.7,0.2,0.9c0.4,0.3,2.5,0.9,2.5,0.9s-1.4-1.7-1.8-2
			C41,28.2,40.7,28.2,40.4,28.6z"/>
		<path id="r_22_" fill="#FEC50C" d="M28.4,31c-0.4-0.2-0.7-0.1-0.9,0.2c-0.3,0.4-0.9,2.5-0.9,2.5s1.7-1.4,2-1.8
			C28.8,31.6,28.8,31.2,28.4,31z"/>
		<path id="r_23_" fill="#FEC50C" d="M26,19c0.2-0.4,0.1-0.7-0.2-0.9c-0.4-0.3-2.5-0.9-2.5-0.9s1.4,1.7,1.8,2
			C25.4,19.3,25.8,19.4,26,19z"/>
		<path id="r_24_" fill="#FEC50C" d="M40.4,19c0.3,0.4,0.6,0.4,0.9,0.2c0.4-0.3,1.8-2,1.8-2s-2.1,0.7-2.5,0.9
			C40.3,18.3,40.2,18.6,40.4,19z"/>
		<path id="r_25_" fill="#FEC50C" d="M38,31c-0.4,0.3-0.4,0.6-0.2,0.9c0.3,0.4,2,1.8,2,1.8s-0.7-2.1-0.9-2.5
			C38.7,30.9,38.4,30.7,38,31z"/>
		<path id="r_26_" fill="#FEC50C" d="M26,28.6c-0.3-0.4-0.6-0.4-0.9-0.2c-0.4,0.3-1.8,2-1.8,2s2.1-0.7,2.5-0.9
			C26.1,29.3,26.3,29,26,28.6z"/>
		<path id="r_27_" fill="#FEC50C" d="M28.4,16.6c0.4-0.3,0.4-0.6,0.2-0.9c-0.3-0.4-2-1.8-2-1.8s0.7,2.1,0.9,2.5
			C27.7,16.7,28,16.8,28.4,16.6z"/>
		<path id="r_28_" fill="#FEC50C" d="M41.7,22.1c0.1,0.4,0.4,0.6,0.7,0.5c0.4-0.1,2.4-1.1,2.4-1.1s-2.2-0.2-2.7-0.1
			C41.9,21.4,41.6,21.7,41.7,22.1z"/>
		<path id="r_29_" fill="#FEC50C" d="M34.9,32.3c-0.4,0.1-0.6,0.4-0.5,0.7c0.1,0.4,1.1,2.4,1.1,2.4s0.2-2.2,0.1-2.7
			C35.6,32.5,35.3,32.2,34.9,32.3z"/>
		<path id="r_30_" fill="#FEC50C" d="M24.7,25.5C24.6,25,24.3,24.9,24,25c-0.4,0.1-2.4,1.1-2.4,1.1s2.2,0.2,2.7,0.1
			C24.6,26.2,24.8,25.9,24.7,25.5z"/>
		<path id="r_31_" fill="#FEC50C" d="M31.5,15.3c0.4-0.1,0.6-0.4,0.5-0.7c-0.1-0.4-1.1-2.4-1.1-2.4s-0.2,2.2-0.1,2.7
			C30.9,15.1,31.1,15.4,31.5,15.3z"/>
		<path fill="#FEC50C" d="M31.8,40.3c-0.2,0-0.4,0-0.6,0.1c-0.3,0-0.5,0.1-0.8,0.2l-0.1,0l-0.2,0c0,0,0,0.1,0,0.1c0,0.1,0,0.1,0,0.1
			c0,0,0,0.1-0.1,0.1c0,0-0.1,0.1-0.1,0.1c0,0-0.1,0-0.1,0c-0.1,0-0.1,0-0.2,0c-0.1,0-0.1,0-0.1-0.1c-0.1,0-0.1,0-0.2,0
			c-0.1,0-0.1,0-0.1,0c-0.1,0-0.1,0-0.2-0.1s-0.1,0-0.1-0.1c-0.2,0.1-0.4,0.2-0.5,0.4c-0.1,0.1-0.1,0.2-0.1,0.3c0,0.1,0,0.3,0.1,0.4
			c0,0,0-0.1,0.1-0.2c0.1-0.1,0.2-0.2,0.4-0.2c0.1-0.1,0.1,0,0.1,0.1c0,0-0.1,0.2,0,0.1c0.4-0.2,0.8-0.2,1.2-0.2
			c0.6-0.1,1.2-0.1,1.8-0.1c0.6,0,1.1,0,1.7,0c0.3,0,0.5,0.1,0.8,0c0.1,0,0.2,0,0.2-0.1c-0.1-0.1-0.3-0.1-0.4-0.1h-1.1
			c-0.3,0-0.6,0-0.9-0.1c-0.1,0-0.1-0.1-0.2,0c-0.1,0-0.2,0.1-0.3,0.1c-0.2,0-0.4,0-0.6-0.1c0.1-0.2,0.3-0.3,0.4-0.5
			c-0.1,0-0.2,0-0.3-0.1C31.5,40.6,31.6,40.5,31.8,40.3L31.8,40.3z"/>
		<path fill="#FEC50C" d="M40.7,42.3c-0.4,0.2-0.7-0.2-1.1-0.3c-0.2,0.1-0.3,0.6-0.5,0.8c-0.3,0.3-0.6-0.1-0.6-0.4
			c-0.3,0.3-0.5,0.9-1,0.8c-0.3-0.2-0.4-0.6-0.6-0.1c-0.2,0.2-0.6,0.6-0.8,0.2c-0.1-0.3-0.2-0.7-0.4-0.2c-0.1,0.4-0.5,0.6-0.9,0.5
			c-0.2-0.2,0.2-0.8-0.1-0.7c-0.4,0.3-0.6,0.9-1.1,0.8c-0.2-0.2,0.1-0.6-0.1-0.9c-0.3,0.3-0.6,0.9-1,0.9c-0.2-0.2,0-0.7-0.1-0.8
			c-0.5,0.3-1,0.8-1.6,0.6c0.2-0.9,1.2-1.2,2-1.3c1.4-0.2,2.9,0.1,4.3-0.4c0.2-0.1,0.8-0.3,0.6-0.6c-0.2-0.2,0.4-0.1,0.5-0.4
			c0-0.4,0.3-0.3,0.6-0.3c1.4-0.1,2.7,0.2,4.1,0.3c0.1,0.7-0.6,1.1-1.2,0.9c-0.3,0-0.7-0.7-0.6-0.1C40.9,41.7,40.9,42.1,40.7,42.3
			 M28.9,40.9c0.3,0.3,0.5-0.1,0.8-0.2c1-0.3,1.9-0.9,2.7-1.5c0.5-0.4,1-1,1.7-1.1c1.4-0.4,2.8-0.4,4.2-0.7c1-1.4,2.8-1.9,4.3-2.8
			c0.3-0.1,0.5-0.4,0.6-0.7c0.6-0.9,1.3-1.7,2.3-2.2c0.4-0.2,0.9-0.4,1.4-0.3c0,0.6-0.4,1.1-0.8,1.5c0.3,0,0.6-0.2,0.9-0.2
			c0.1,0.6-0.5,0.9-0.9,1.3c0.2,0,0.9,0.1,0.5,0.3c-0.5,0.4-1.1,0.6-1.6,1c0.4,0.1,0.5,0.2,0,0.3c-0.2,0.2-0.7,0.2-0.7,0.5
			c0.3,0.2-0.2,0.4-0.3,0.5c-0.4,0.1-0.7,0.2-0.3,0.5c-0.2,0.3-0.6,0.3-0.9,0.3c0.1,0.3,0.2,0.6-0.2,0.8c-0.9,0.7-1.9,1.2-3,1.3
			c1.4,0.1,2.8-0.2,4-0.9c0.2-0.2,1-0.4,0.5-0.5c-0.2-0.1-0.7-0.2-0.7-0.4c0.6-0.4,1.5-0.3,2.1-0.5c0-0.2-0.5-0.2-0.7-0.2
			c-0.5,0-0.5-0.2,0-0.2c0.6-0.2,1.3-0.2,1.8-0.6c-0.4-0.2-0.9,0-1.3-0.2c0.7-0.3,1.6-0.4,2.3-0.8c0.3-0.3-0.4-0.2-0.6-0.2
			c-0.4,0.1-0.6-0.1-0.1-0.3c0.8-0.6,1.8-1,2.3-1.8c0.1-0.2,0.3-0.8-0.1-0.6c-0.5,0.2-1,0.8-1.7,0.6c1.2-1,2.4-2,3.2-3.4
			c0-0.4-0.6-0.4-0.7-0.1c-0.8,0.8-1.5,1.7-2.5,2.1c1-0.9,1.8-2,2.5-3.2c0.1-0.3,0.6-0.8,0.3-1.1c-0.4-0.3-0.8,0-1,0.3
			c-0.6,0.8-1.1,1.7-1.9,2.4c0.7-1.3,1.4-2.7,1.4-4.3c0-0.3-0.1-0.8-0.5-0.7c-0.3,0.1-0.3,0.6-0.4,0.8c-0.3,1-0.5,2.2-1.1,3.1
			c0.1-0.8,0.4-1.7,0.2-2.6c-0.1-0.4-0.7-0.2-0.6,0.2c-0.7,3.7-3.2,7-6.5,8.9c-1.5,0.8-3.2,1.4-4.9,1.6c-0.5,0.1-1,0-1.4,0.2
			c-1.1,0.8-1.7,2.2-3,2.6c-0.6,0.3-1.4,0.4-1.8,0.9C28.9,40.7,28.9,40.8,28.9,40.9"/>
		<path fill="#FEC50C" d="M32.9,37.1c-0.2,0.4-0.3,0.8-0.6,1.1c-0.8-0.7-1.9-0.7-2.9-0.7c-0.8,0-1.7-0.1-2.3-0.7
			c-0.7-0.5-1.2-1.2-1.9-1.7c-0.7-0.2-1.3-0.4-1.9-0.9c-1.1-0.9-1.8-2.3-2.9-3.3c-0.2-0.2-0.5-0.4-0.7-0.6c-0.2,0.1-0.1,0.5-0.4,0.3
			c-0.2-0.1-0.5-0.1-0.6,0c0.3,0.5,0.7,1,0.7,1.5c-0.2,0-0.6,0-0.8,0c0.3,0.5,0.7,0.9,1.2,1.2c-0.2,0-0.6,0-0.7,0.1
			c0.4,0.4,0.9,0.7,1.5,0.8c0.1,0.2-0.2,0.5,0.1,0.6c0.1,0.1,0.6,0.2,0.3,0.3c-0.2,0.2-0.1,0.5,0.1,0.5c0.2,0.1,0.6,0.1,0.6,0.3
			c-0.2,0.2-0.7,0.4-0.2,0.5c0.4,0.2,0.9,0.4,1.3,0.4c-0.2,0.2-0.5,0.3-0.7,0.5c1.1,0.6,2.2,1,3.4,1.4c0.5,0.2,0.9,0.3,1.4,0.4
			c-1.4-0.1-2.7-0.5-4-1c-0.7-0.3-1.3-0.6-2-0.8c0.3-0.2,0.6-0.2,0.9-0.3c-0.6-0.1-1.3-0.2-1.9-0.5c0.1-0.2,0.4-0.2,0.6-0.2
			c0.3-0.1,0.5-0.2,0.1-0.2c-0.5-0.1-1-0.1-1.4-0.4c0-0.2,0.5-0.1,0.6-0.2c0.2,0,0.5-0.1,0.7-0.2c-0.7-0.3-1.7-0.1-2.3-0.7
			c-0.1-0.2,0.4,0,0.6-0.1c0.4,0,0.8,0.1,1.2,0c-1.1-0.5-2.2-0.9-3-1.8c-0.1-0.1-0.4-0.5-0.1-0.6c0.6,0.1,1.1,0.8,1.8,0.7
			c0.1-0.1-0.4-0.3-0.5-0.5c-1-0.9-2-1.8-2.7-2.9c0-0.4,0.5-0.4,0.7-0.1c0.8,0.7,1.4,1.6,2.4,2.1c0.3,0.2-0.2-0.2-0.3-0.3
			c-0.9-1-1.7-2.1-2.3-3.3c-0.1-0.2-0.3-0.6,0-0.7c0.3-0.2,0.7,0.1,0.8,0.3c0.6,0.8,1.1,1.8,1.9,2.4c-0.7-1.3-1.4-2.7-1.4-4.2
			c0-0.3,0-0.7,0.4-0.7c0.3-0.1,0.3,0.4,0.4,0.6c0.3,1.1,0.5,2.3,1.1,3.3c-0.1-0.8-0.4-1.7-0.2-2.5c0-0.3,0.3-0.4,0.5-0.2
			c0.2,0.4,0.2,0.9,0.3,1.3c0.9,2.9,2.8,5.5,5.3,7.2c2.1,1.4,4.5,2.3,7,2.4C32.5,37.1,32.7,37.1,32.9,37.1"/>
		<circle fill="#FEC50C" cx="29.8" cy="40.8" r="0.1"/>
		<circle fill="#FEC50C" stroke="#00AFCA" stroke-width="7.199809e-02" cx="29.8" cy="40.8" r="0.1"/>
		<path fill="#FEC50C" d="M6.8,4.1c0,0-0.5-0.5-0.7-0.2C5.8,4.3,7,6.1,7,6.8c0,1.1-0.7,1.4-1.6,1.5c-0.6,0.1-1.5,0-1.5,0
			C4,8,4.2,7.9,4.5,7.9C4.1,7.7,3.8,7.3,3.8,6.7c0-0.9,0.4-1.3,0.4-2.3c0-0.6-0.5-1.3-0.5-1.3c0.8,0.1,1.2,0.9,1,1.5
			c0.1,0,0.3,0,0.4-0.1C5.1,4.6,5,4.8,4.9,5C5,5.1,5.1,5,5.2,5c0,0.2-0.1,0.4-0.4,0.5C5.6,5.3,6,5.9,6,6.4c0,0.4-0.3,0.7-0.6,0.7
			c-0.1,0-0.2,0-0.3-0.1c-0.1,0.1,0,0.3,0,0.4C5,7.3,4.9,7.2,5,7c-0.2,0-0.3-0.1-0.4-0.2C4.7,6.7,4.8,6.6,5,6.6
			C4.8,6.4,5,6.2,5.2,6.1c0,0-0.1,0.5,0.2,0.5c0.1,0,0.3,0,0.3-0.2C5.6,6.2,5.5,6,5.1,6C4.7,6,4.5,6.2,4.5,6.8c0,0.5,0.4,0.8,1,0.8
			c0.5,0,0.9-0.3,0.9-0.8c0-0.7-1-2.3-1-2.9c0-0.5,0.4-0.7,0.8-0.7c0.5,0,1,0.5,1,0.5L6.8,4.1L6.8,4.1z"/>
		<path id="op" fill="#FEC50C" d="M6.9,16.5c0,1.1-1,1.7-1.8,1.7c-1.1,0-1.7-0.7-1.7-1.5c0-0.5,0.1-0.8,0.3-1.3c0,0,1.8-3.7,2.5-5.2
			c0.1-0.2,0.1-0.4,0.1-0.7c0-0.5-0.5-0.8-0.9-0.9C5,8.8,4.5,9.2,4.5,9.7c0,0.6,0.3,0.8,0.6,0.8c0.4,0,0.5-0.2,0.5-0.4
			c0-0.2-0.1-0.3-0.2-0.3c-0.3,0-0.2,0.4-0.2,0.4C5,10.2,4.9,10,5,9.8c-0.1,0-0.2-0.1-0.3-0.2C4.7,9.6,4.8,9.5,5,9.5
			C4.9,9.2,5,9.1,5.2,9.1c0,0.1,0,0.2,0,0.3C5.5,9.2,6,9.4,6,10c0,0.6-0.4,1.1-1.2,1c0.2,0.1,0.3,0.3,0.3,0.5
			c-0.1-0.1-0.3-0.1-0.3-0.1c0.1,0.2,0.2,0.3,0.2,0.6c-0.1-0.1-0.3-0.2-0.5-0.1c0.3,0.6-0.1,1.3-1,1.5C4,13,4.2,12.6,4.2,12.1
			c0-1.3-0.4-1.6-0.4-2.5c0-0.4,0.2-0.8,0.6-1.1v0C4.1,8.5,4,8.4,3.9,8.2c0.6-0.2,1.5-0.2,1.9,0c0.5,0.1,0.9,0.5,1,0.7
			c0.1,0.2,0.3,1,0,1.6c-0.4,0.7-2,4.3-2.5,5.4c-0.1,0.2-0.2,0.5-0.2,0.8c0,0.7,0.6,0.9,1,0.9c0.4,0,0.9-0.3,0.9-0.7
			c0-0.3-0.1-0.4-0.3-0.4c-0.5,0-0.5,0.4-0.4,0.7c-0.3-0.1-0.5-0.4-0.4-0.6c-0.2,0-0.3-0.1-0.5-0.3C4.4,16.1,4.6,16,4.8,16
			c-0.1-0.4,0.2-0.6,0.4-0.6C5.1,15.6,5.1,16,5.6,16c0.4,0,0.6,0.1,0.8,0.3c0-0.3,0-1.5,0-1.5c0-0.5-0.6-0.4-1-0.3
			c0.2-0.5,0.5-0.8,1.2-0.7c-0.2-0.1-0.4-0.2-0.4-0.6c0-0.4,0.3-0.9,0.6-1L6.9,16.5L6.9,16.5z"/>
		<path id="op_1_" fill="#FEC50C" d="M6.9,20c0-1.1-1-1.7-1.8-1.7c-1.1,0-1.7,0.7-1.7,1.5c0,0.5,0.1,0.8,0.3,1.3
			c0,0,1.8,3.7,2.5,5.2c0.1,0.2,0.1,0.4,0.1,0.7c0,0.5-0.5,0.8-0.9,0.9c-0.4,0-0.9-0.4-0.9-0.9c0-0.6,0.3-0.8,0.6-0.8
			c0.4,0,0.5,0.2,0.5,0.4c0,0.2-0.1,0.3-0.2,0.3c-0.3,0-0.2-0.4-0.2-0.4c-0.2,0-0.3,0.2-0.2,0.4c-0.1,0-0.2,0.1-0.3,0.2
			C4.7,27,4.8,27,5,27.1c-0.1,0.2,0,0.4,0.2,0.4c0-0.1,0-0.2,0-0.3C5.5,27.3,6,27.2,6,26.6c0-0.6-0.4-1.1-1.2-1
			c0.2-0.1,0.3-0.3,0.3-0.5c-0.1,0.1-0.3,0.1-0.3,0.1C5,25,5.1,24.9,5.1,24.6c-0.1,0.1-0.3,0.2-0.5,0.1c0.3-0.6-0.1-1.3-1-1.5
			C4,23.6,4.2,24,4.2,24.4c0,1.3-0.4,1.6-0.4,2.5c0,0.4,0.2,0.8,0.6,1.1v0C4.1,28,4,28.2,3.9,28.3c0.6,0.2,1.5,0.2,1.9,0
			c0.5-0.1,0.9-0.5,1-0.7c0.1-0.2,0.3-1,0-1.6c-0.4-0.7-2-4.3-2.5-5.4c-0.1-0.2-0.2-0.5-0.2-0.8c0-0.7,0.6-0.9,1-0.9
			c0.4,0,0.9,0.3,0.9,0.7c0,0.3-0.1,0.4-0.3,0.4c-0.5,0-0.5-0.4-0.4-0.7c-0.3,0.1-0.5,0.4-0.4,0.6c-0.2,0-0.3,0.1-0.5,0.3
			c0.1,0.1,0.3,0.3,0.5,0.3c-0.1,0.4,0.2,0.6,0.4,0.6c-0.1-0.3-0.1-0.6,0.4-0.6c0.4,0,0.6-0.1,0.8-0.3c0,0.3,0,1.5,0,1.5
			c0,0.5-0.6,0.4-1,0.3c0.2,0.5,0.5,0.8,1.2,0.7c-0.2,0.1-0.4,0.2-0.4,0.6c0,0.4,0.3,0.9,0.6,1L6.9,20L6.9,20z"/>
		<path fill="#FEC50C" d="M6.8,4.1c0,0,0.5-0.5,0.7-0.2c0.3,0.4-0.9,2.2-0.9,2.9c0,1.1,0.7,1.4,1.6,1.5c0.6,0.1,1.5,0,1.5,0
			C9.6,8,9.4,7.9,9.1,7.9c0.3-0.2,0.7-0.6,0.7-1.1c0-0.9-0.4-1.3-0.4-2.3c0-0.6,0.5-1.3,0.5-1.3C9.1,3.2,8.7,4,8.9,4.6
			c-0.1,0-0.3,0-0.4-0.1C8.5,4.6,8.6,4.8,8.7,5C8.6,5.1,8.5,5,8.4,5c0,0.2,0.1,0.4,0.4,0.5C8,5.3,7.5,5.9,7.5,6.4
			c0,0.4,0.3,0.7,0.6,0.7c0.1,0,0.2,0,0.3-0.1c0.1,0.1,0,0.3,0,0.4C8.6,7.3,8.7,7.2,8.6,7c0.2,0,0.3-0.1,0.4-0.2
			C8.9,6.7,8.8,6.6,8.6,6.6c0.1-0.2,0-0.4-0.2-0.5c0,0,0.1,0.5-0.2,0.5C8.1,6.6,8,6.6,8,6.4C8,6.2,8.1,6,8.5,6
			c0.4,0,0.6,0.2,0.6,0.8c0,0.5-0.4,0.8-1,0.8c-0.5,0-0.9-0.3-0.9-0.8c0-0.7,1-2.3,1-2.9c0-0.5-0.4-0.7-0.8-0.7c-0.5,0-1,0.5-1,0.5
			L6.8,4.1L6.8,4.1z"/>
		<path id="op_2_" fill="#FEC50C" d="M6.7,16.5c0,1.1,1,1.7,1.8,1.7c1.1,0,1.7-0.7,1.7-1.5c0-0.5-0.1-0.8-0.3-1.3
			c0,0-1.8-3.7-2.5-5.2C7.3,10.2,7.3,10,7.3,9.6c0-0.5,0.5-0.8,0.9-0.9c0.4,0,0.9,0.4,0.9,0.9c0,0.6-0.3,0.8-0.6,0.8
			c-0.4,0-0.5-0.2-0.5-0.4c0-0.2,0.1-0.3,0.2-0.3c0.3,0,0.2,0.4,0.2,0.4c0.2,0,0.3-0.2,0.2-0.4c0.1,0,0.2-0.1,0.3-0.2
			C8.9,9.6,8.8,9.5,8.6,9.5c0.1-0.2,0-0.4-0.2-0.4c0,0.1,0,0.2,0,0.3C8.1,9.2,7.6,9.4,7.6,10c0,0.6,0.4,1.1,1.2,1
			c-0.2,0.1-0.3,0.3-0.3,0.5c0.1-0.1,0.3-0.1,0.3-0.1c-0.1,0.2-0.2,0.3-0.2,0.6c0.1-0.1,0.3-0.2,0.5-0.1c-0.3,0.6,0.1,1.3,1,1.5
			c-0.3-0.4-0.5-0.8-0.5-1.2c0-1.3,0.4-1.6,0.4-2.5c0-0.4-0.2-0.8-0.6-1.1v0c0.3-0.1,0.4-0.2,0.5-0.4C9.1,8,8.3,8.1,7.8,8.2
			c-0.5,0.1-0.9,0.5-1,0.7c-0.1,0.2-0.3,1,0,1.6c0.4,0.7,2,4.3,2.5,5.4c0.1,0.2,0.2,0.5,0.2,0.8c0,0.7-0.6,0.9-1,0.9
			c-0.4,0-0.9-0.3-0.9-0.7c0-0.3,0.1-0.4,0.3-0.4c0.5,0,0.5,0.4,0.4,0.7c0.3-0.1,0.5-0.4,0.4-0.6c0.2,0,0.3-0.1,0.5-0.3
			C9.2,16.1,9,16,8.8,16c0.1-0.4-0.2-0.6-0.4-0.6C8.5,15.6,8.5,16,8,16c-0.4,0-0.6,0.1-0.8,0.3c0-0.3,0-1.5,0-1.5
			c0-0.5,0.6-0.4,1-0.3C8,13.9,7.7,13.6,7,13.7c0.2-0.1,0.4-0.2,0.4-0.6c0-0.4-0.3-0.9-0.6-1L6.7,16.5L6.7,16.5z"/>
		<path id="op_3_" fill="#FEC50C" d="M6.7,20c0-1.1,1-1.7,1.8-1.7c1.1,0,1.7,0.7,1.7,1.5c0,0.5-0.1,0.8-0.3,1.3c0,0-1.8,3.7-2.5,5.2
			c-0.1,0.2-0.1,0.4-0.1,0.7c0,0.5,0.5,0.8,0.9,0.9c0.4,0,0.9-0.4,0.9-0.9c0-0.6-0.3-0.8-0.6-0.8c-0.4,0-0.5,0.2-0.5,0.4
			c0,0.2,0.1,0.3,0.2,0.3c0.3,0,0.2-0.4,0.2-0.4c0.2,0,0.3,0.2,0.2,0.4c0.1,0,0.2,0.1,0.3,0.2C8.9,27,8.8,27,8.6,27.1
			c0.1,0.2,0,0.4-0.2,0.4c0-0.1,0-0.2,0-0.3c-0.3,0.1-0.9-0.1-0.9-0.6c0-0.6,0.4-1.1,1.2-1c-0.2-0.1-0.3-0.3-0.3-0.5
			c0.1,0.1,0.3,0.1,0.3,0.1c-0.1-0.2-0.2-0.3-0.2-0.6c0.1,0.1,0.3,0.2,0.5,0.1c-0.3-0.6,0.1-1.3,1-1.5c-0.3,0.4-0.5,0.8-0.5,1.2
			c0,1.3,0.4,1.6,0.4,2.5c0,0.4-0.2,0.8-0.6,1.1v0c0.3,0.1,0.4,0.2,0.5,0.4c-0.6,0.2-1.5,0.2-1.9,0c-0.5-0.1-0.9-0.5-1-0.7
			c-0.1-0.2-0.3-1,0-1.6c0.4-0.7,2-4.3,2.5-5.4c0.1-0.2,0.2-0.5,0.2-0.8c0-0.7-0.6-0.9-1-0.9c-0.4,0-0.9,0.3-0.9,0.7
			c0,0.3,0.1,0.4,0.3,0.4c0.5,0,0.5-0.4,0.4-0.7c0.3,0.1,0.5,0.4,0.4,0.6c0.2,0,0.3,0.1,0.5,0.3c-0.1,0.1-0.3,0.3-0.5,0.3
			c0.1,0.4-0.2,0.6-0.4,0.6c0.1-0.3,0.1-0.6-0.4-0.6c-0.4,0-0.6-0.1-0.8-0.3c0,0.3,0,1.5,0,1.5c0,0.5,0.6,0.4,1,0.3
			C8,22.7,7.7,22.9,7,22.9c0.2,0.1,0.4,0.2,0.4,0.6c0,0.4-0.3,0.9-0.6,1L6.7,20L6.7,20z"/>
		<path fill="#FEC50C" d="M6.8,52.5c0,0-0.5,0.5-0.7,0.2C5.8,52.4,7,50.5,7,49.9c0-1.1-0.7-1.4-1.6-1.5c-0.6-0.1-1.5,0-1.5,0
			c0.2,0.2,0.3,0.3,0.6,0.3c-0.3,0.2-0.7,0.6-0.7,1.1c0,0.9,0.4,1.3,0.4,2.3c0,0.6-0.5,1.3-0.5,1.3c0.8-0.1,1.2-0.9,1-1.5
			c0.1,0,0.3,0,0.4,0.1c0.1-0.2,0-0.4-0.2-0.5c0.1-0.1,0.2,0,0.3,0c0-0.2-0.1-0.4-0.4-0.5C5.6,51.3,6,50.8,6,50.2
			c0-0.4-0.3-0.7-0.6-0.7c-0.1,0-0.2,0-0.3,0.1c-0.1-0.1,0-0.3,0-0.4C5,49.3,4.9,49.4,5,49.7c-0.2,0-0.3,0.1-0.4,0.2
			C4.7,50,4.8,50,5,50c-0.1,0.2,0,0.4,0.2,0.5c0,0-0.1-0.5,0.2-0.5c0.1,0,0.3,0,0.3,0.2c0,0.2-0.2,0.4-0.5,0.4
			c-0.4,0-0.6-0.2-0.6-0.8c0-0.5,0.4-0.8,1-0.8c0.5,0,0.9,0.3,0.9,0.8c0,0.7-1,2.3-1,2.9c0,0.5,0.4,0.7,0.8,0.7c0.5,0,1-0.5,1-0.5
			L6.8,52.5L6.8,52.5z"/>
		<path id="op_4_" fill="#FEC50C" d="M6.9,40.1c0-1.1-1-1.7-1.8-1.7c-1.1,0-1.7,0.7-1.7,1.5c0,0.5,0.1,0.8,0.3,1.3
			c0,0,1.8,3.7,2.5,5.2c0.1,0.2,0.1,0.4,0.1,0.7c0,0.5-0.5,0.8-0.9,0.9c-0.4,0-0.9-0.4-0.9-0.9c0-0.6,0.3-0.8,0.6-0.8
			c0.4,0,0.5,0.2,0.5,0.4c0,0.2-0.1,0.3-0.2,0.3c-0.3,0-0.2-0.4-0.2-0.4c-0.2,0-0.3,0.2-0.2,0.4c-0.1,0-0.2,0.1-0.3,0.2
			c0.1,0.1,0.2,0.1,0.3,0.2c-0.1,0.2,0,0.4,0.2,0.4c0-0.1,0-0.2,0-0.3C5.5,47.4,6,47.3,6,46.7c0-0.6-0.4-1.1-1.2-1
			c0.2-0.1,0.3-0.3,0.3-0.5c-0.1,0.1-0.3,0.1-0.3,0.1C5,45.2,5.1,45,5.1,44.7c-0.1,0.1-0.3,0.2-0.5,0.1c0.3-0.6-0.1-1.3-1-1.5
			c0.3,0.4,0.5,0.8,0.5,1.2c0,1.3-0.4,1.6-0.4,2.5c0,0.4,0.2,0.8,0.6,1.1v0c-0.3,0.1-0.4,0.2-0.5,0.4c0.6,0.2,1.5,0.2,1.9,0
			c0.5-0.1,0.9-0.5,1-0.7c0.1-0.2,0.3-1,0-1.6c-0.4-0.7-2-4.3-2.5-5.4c-0.1-0.2-0.2-0.5-0.2-0.8c0-0.7,0.6-0.9,1-0.9
			c0.4,0,0.9,0.3,0.9,0.7c0,0.3-0.1,0.4-0.3,0.4c-0.5,0-0.5-0.4-0.4-0.7c-0.3,0.1-0.5,0.4-0.4,0.6c-0.2,0-0.3,0.1-0.5,0.3
			c0.1,0.1,0.3,0.3,0.5,0.3C4.7,41,5,41.2,5.2,41.3c-0.1-0.3-0.1-0.6,0.4-0.6c0.4,0,0.6-0.1,0.8-0.3c0,0.3,0,1.5,0,1.5
			c0,0.5-0.6,0.4-1,0.3C5.5,42.8,5.9,43,6.6,43c-0.2,0.1-0.4,0.2-0.4,0.6c0,0.4,0.3,0.9,0.6,1L6.9,40.1L6.9,40.1z"/>
		<path id="op_5_" fill="#FEC50C" d="M6.9,36.7c0,1.1-1,1.7-1.8,1.7c-1.1,0-1.7-0.7-1.7-1.5c0-0.5,0.1-0.8,0.3-1.3
			c0,0,1.8-3.7,2.5-5.2c0.1-0.2,0.1-0.4,0.1-0.7c0-0.5-0.5-0.8-0.9-0.9c-0.4,0-0.9,0.4-0.9,0.9c0,0.6,0.3,0.8,0.6,0.8
			c0.4,0,0.5-0.2,0.5-0.4c0-0.2-0.1-0.3-0.2-0.3c-0.3,0-0.2,0.4-0.2,0.4c-0.2,0-0.3-0.2-0.2-0.4c-0.1,0-0.2-0.1-0.3-0.2
			c0.1-0.1,0.2-0.1,0.3-0.2c-0.1-0.2,0-0.4,0.2-0.4c0,0.1,0,0.2,0,0.3C5.5,29.3,6,29.5,6,30.1c0,0.6-0.4,1.1-1.2,1
			c0.2,0.1,0.3,0.3,0.3,0.5c-0.1-0.1-0.3-0.1-0.3-0.1c0.1,0.2,0.2,0.3,0.2,0.6c-0.1-0.1-0.3-0.2-0.5-0.1c0.3,0.6-0.1,1.3-1,1.5
			c0.3-0.4,0.5-0.8,0.5-1.2c0-1.3-0.4-1.6-0.4-2.5c0-0.4,0.2-0.8,0.6-1.1v0c-0.3-0.1-0.4-0.2-0.5-0.4c0.6-0.2,1.5-0.2,1.9,0
			c0.5,0.1,0.9,0.5,1,0.7c0.1,0.2,0.3,1,0,1.6c-0.4,0.7-2,4.3-2.5,5.4c-0.1,0.2-0.2,0.5-0.2,0.8c0,0.7,0.6,0.9,1,0.9
			c0.4,0,0.9-0.3,0.9-0.7c0-0.3-0.1-0.4-0.3-0.4c-0.5,0-0.5,0.4-0.4,0.7c-0.3-0.1-0.5-0.4-0.4-0.6c-0.2,0-0.3-0.1-0.5-0.3
			c0.1-0.1,0.3-0.3,0.5-0.3c-0.1-0.4,0.2-0.6,0.4-0.6c-0.1,0.3-0.1,0.6,0.4,0.6c0.4,0,0.6,0.1,0.8,0.3c0-0.3,0-1.5,0-1.5
			c0-0.5-0.6-0.4-1-0.3c0.2-0.5,0.5-0.8,1.2-0.7c-0.2-0.1-0.4-0.2-0.4-0.6c0-0.4,0.3-0.9,0.6-1L6.9,36.7L6.9,36.7z"/>
		<path fill="#FEC50C" d="M6.8,52.5c0,0,0.5,0.5,0.7,0.2c0.3-0.4-0.9-2.2-0.9-2.9c0-1.1,0.7-1.4,1.6-1.5c0.6-0.1,1.5,0,1.5,0
			c-0.2,0.2-0.3,0.3-0.6,0.3c0.3,0.2,0.7,0.6,0.7,1.1c0,0.9-0.4,1.3-0.4,2.3c0,0.6,0.5,1.3,0.5,1.3c-0.8-0.1-1.2-0.9-1-1.5
			c-0.1,0-0.3,0-0.4,0.1c-0.1-0.2,0-0.4,0.2-0.5c-0.1-0.1-0.2,0-0.3,0c0-0.2,0.1-0.4,0.4-0.5c-0.7,0.2-1.2-0.3-1.2-0.9
			c0-0.4,0.3-0.7,0.6-0.7c0.1,0,0.2,0,0.3,0.1c0.1-0.1,0-0.3,0-0.4c0.2,0.1,0.3,0.2,0.2,0.4c0.2,0,0.3,0.1,0.4,0.2
			C8.9,50,8.8,50,8.6,50c0.1,0.2,0,0.4-0.2,0.5c0,0,0.1-0.5-0.2-0.5c-0.1,0-0.3,0-0.3,0.2c0,0.2,0.2,0.4,0.5,0.4
			c0.4,0,0.6-0.2,0.6-0.8c0-0.5-0.4-0.8-1-0.8c-0.5,0-0.9,0.3-0.9,0.8c0,0.7,1,2.3,1,2.9c0,0.5-0.4,0.7-0.8,0.7c-0.5,0-1-0.5-1-0.5
			L6.8,52.5L6.8,52.5z"/>
		<path id="op_6_" fill="#FEC50C" d="M6.7,40.1c0-1.1,1-1.7,1.8-1.7c1.1,0,1.7,0.7,1.7,1.5c0,0.5-0.1,0.8-0.3,1.3
			c0,0-1.8,3.7-2.5,5.2c-0.1,0.2-0.1,0.4-0.1,0.7c0,0.5,0.5,0.8,0.9,0.9c0.4,0,0.9-0.4,0.9-0.9c0-0.6-0.3-0.8-0.6-0.8
			c-0.4,0-0.5,0.2-0.5,0.4c0,0.2,0.1,0.3,0.2,0.3c0.3,0,0.2-0.4,0.2-0.4c0.2,0,0.3,0.2,0.2,0.4c0.1,0,0.2,0.1,0.3,0.2
			c-0.1,0.1-0.2,0.1-0.3,0.2c0.1,0.2,0,0.4-0.2,0.4c0-0.1,0-0.2,0-0.3c-0.3,0.1-0.9-0.1-0.9-0.6c0-0.6,0.4-1.1,1.2-1
			c-0.2-0.1-0.3-0.3-0.3-0.5c0.1,0.1,0.3,0.1,0.3,0.1c-0.1-0.2-0.2-0.3-0.2-0.6c0.1,0.1,0.3,0.2,0.5,0.1c-0.3-0.6,0.1-1.3,1-1.5
			c-0.3,0.4-0.5,0.8-0.5,1.2c0,1.3,0.4,1.6,0.4,2.5c0,0.4-0.2,0.8-0.6,1.1v0c0.3,0.1,0.4,0.2,0.5,0.4c-0.6,0.2-1.5,0.2-1.9,0
			c-0.5-0.1-0.9-0.5-1-0.7c-0.1-0.2-0.3-1,0-1.6c0.4-0.7,2-4.3,2.5-5.4c0.1-0.2,0.2-0.5,0.2-0.8c0-0.7-0.6-0.9-1-0.9
			c-0.4,0-0.9,0.3-0.9,0.7c0,0.3,0.1,0.4,0.3,0.4c0.5,0,0.5-0.4,0.4-0.7c0.3,0.1,0.5,0.4,0.4,0.6c0.2,0,0.3,0.1,0.5,0.3
			c-0.1,0.1-0.3,0.3-0.5,0.3c0.1,0.4-0.2,0.6-0.4,0.6C8.5,41,8.5,40.7,8,40.7c-0.4,0-0.6-0.1-0.8-0.3c0,0.3,0,1.5,0,1.5
			c0,0.5,0.6,0.4,1,0.3C8,42.8,7.7,43,7,43c0.2,0.1,0.4,0.2,0.4,0.6c0,0.4-0.3,0.9-0.6,1L6.7,40.1L6.7,40.1z"/>
		<path id="op_7_" fill="#FEC50C" d="M6.7,36.7c0,1.1,1,1.7,1.8,1.7c1.1,0,1.7-0.7,1.7-1.5c0-0.5-0.1-0.8-0.3-1.3
			c0,0-1.8-3.7-2.5-5.2c-0.1-0.2-0.1-0.4-0.1-0.7c0-0.5,0.5-0.8,0.9-0.9c0.4,0,0.9,0.4,0.9,0.9c0,0.6-0.3,0.8-0.6,0.8
			c-0.4,0-0.5-0.2-0.5-0.4c0-0.2,0.1-0.3,0.2-0.3c0.3,0,0.2,0.4,0.2,0.4c0.2,0,0.3-0.2,0.2-0.4c0.1,0,0.2-0.1,0.3-0.2
			c-0.1-0.1-0.2-0.1-0.3-0.2c0.1-0.2,0-0.4-0.2-0.4c0,0.1,0,0.2,0,0.3c-0.3-0.1-0.9,0.1-0.9,0.6c0,0.6,0.4,1.1,1.2,1
			c-0.2,0.1-0.3,0.3-0.3,0.5c0.1-0.1,0.3-0.1,0.3-0.1c-0.1,0.2-0.2,0.3-0.2,0.6C8.7,32,8.8,31.9,9,31.9c-0.3,0.6,0.1,1.3,1,1.5
			c-0.3-0.4-0.5-0.8-0.5-1.2c0-1.3,0.4-1.6,0.4-2.5c0-0.4-0.2-0.8-0.6-1.1v0c0.3-0.1,0.4-0.2,0.5-0.4c-0.6-0.2-1.5-0.2-1.9,0
			c-0.5,0.1-0.9,0.5-1,0.7c-0.1,0.2-0.3,1,0,1.6c0.4,0.7,2,4.3,2.5,5.4c0.1,0.2,0.2,0.5,0.2,0.8c0,0.7-0.6,0.9-1,0.9
			c-0.4,0-0.9-0.3-0.9-0.7c0-0.3,0.1-0.4,0.3-0.4c0.5,0,0.5,0.4,0.4,0.7c0.3-0.1,0.5-0.4,0.4-0.6c0.2,0,0.3-0.1,0.5-0.3
			c-0.1-0.1-0.3-0.3-0.5-0.3c0.1-0.4-0.2-0.6-0.4-0.6c0.1,0.3,0.1,0.6-0.4,0.6c-0.4,0-0.6,0.1-0.8,0.3c0-0.3,0-1.5,0-1.5
			c0-0.5,0.6-0.4,1-0.3C8,34,7.7,33.7,7,33.8c0.2-0.1,0.4-0.2,0.4-0.6c0-0.4-0.3-0.9-0.6-1L6.7,36.7L6.7,36.7z"/>
	</g>
</g>
</svg>
