<?xml version="1.0" encoding="iso-8859-1"?>
<!-- Generator: Adobe Illustrator 18.1.1, SVG Export Plug-In . SVG Version: 6.00 Build 0)  -->
<svg version="1.1" id="Layer_179" xmlns="http://www.w3.org/2000/svg" xmlns:xlink="http://www.w3.org/1999/xlink" x="0px" y="0px"
	 viewBox="0 0 56.692 56.692" style="enable-background:new 0 0 56.692 56.692;" xml:space="preserve">
<g>
	<defs>
		<circle id="SVGID_1_" cx="28.346" cy="28.347" r="28.346"/>
	</defs>
	<clipPath id="SVGID_2_">
		<use xlink:href="#SVGID_1_"  style="overflow:visible;"/>
	</clipPath>
	<g style="clip-path:url(#SVGID_2_);">
		<rect x="-14.174" y="0" style="fill:#ED1C24;" width="85.039" height="56.693"/>
		<rect x="-14.174" y="14.173" style="fill:#FFFFFF;" width="85.039" height="28.346"/>
		<path style="fill:#00A651;" d="M27.959,14.173c-0.608,1.281-1.754,2.177-2.85,3.024c-0.18,0.157-0.628,0.462-0.303,0.694
			c0.278-0.311,1.043,0.101,0.598,0.435c-0.398,0.372-0.946,0.509-1.387,0.816c-0.391,0.213-0.788,0.434-1.098,0.76
			c-0.021,0.508,0.631,0.227,0.895,0.439c0.344,0.368-0.146,0.989-0.598,0.847c-0.578,0.018-0.977,0.526-1.196,1.011
			c-0.452,0.699-1.309,0.906-1.991,1.304c-0.39,0.227-0.769,0.479-1.132,0.745c-0.468,0.32-0.061,0.954,0.437,0.799
			c0.538-0.054,1.022-0.476,1.579-0.355c0.505,0.177,0.647,0.838,0.475,1.298c-0.127,0.369-0.436,0.629-0.684,0.917
			c-0.402,0.407-0.927,0.671-1.482,0.797c-0.536,0.18-1.017,0.508-1.368,0.951c-0.408,0.41-0.814,0.828-1.282,1.17
			c-0.148,0.378,0.27,0.699,0.618,0.689c0.734-0.046,1.242-0.647,1.868-0.956c0.519-0.233,1.129,0.326,1.002,0.866
			c-0.04,0.526-0.532,0.792-0.97,0.954c-1.286,0.647-2.403,1.585-3.395,2.619c-0.205,0.418-0.769,0.295-1.073,0.587
			c-0.198,0.369,0.299,0.564,0.595,0.526c1.273-0.153,2.46-0.691,3.585-1.283c0.418-0.2,0.811-0.463,1.246-0.623
			c0.409-0.101,0.978,0.077,1.051,0.542c-0.001,0.491-0.487,0.763-0.872,0.955c-1.188,0.624-2.491,0.969-3.761,1.382
			c-0.475-0.133-0.833,0.713-0.312,0.865c0.551,0.189,1.137,0.037,1.701,0.013c1.744-0.267,3.269-1.211,4.899-1.821
			c0.678-0.221,1.477,0.087,1.812,0.722c0.336,0.566,0.305,1.31-0.049,1.86c-0.56,1.198-1.412,2.3-2.555,2.989
			c-0.718,0.355-1.555,0.491-2.17,1.035c-0.569,0.187,0.285,0.956,0.409,0.346c0.342-0.466,0.945-0.605,1.491-0.625
			c0.822-0.089,1.694-0.241,2.333-0.81c0.572-0.445,1.137-1.058,1.914-1.067c0.43,0.051,0.854,0.396,1.291,0.185
			c0.382-0.175,0.98-0.072,1.08,0.397c0.182,0.549,0.748,0.799,1.197,1.093c0.162,0.228,0.702,0.816,0.827,0.298
			c-0.1-0.37,0.043-0.936,0.528-0.812c0.424,0.019,0.828,0.175,1.251,0.201c0.563,0.117,1.033,0.502,1.353,0.968
			c0.22,0.304,0.702,0.826,1.06,0.423c0.222-0.417-0.202-0.764-0.547-0.913c-0.504-0.312-0.934-0.728-1.375-1.121
			c-0.649-0.606-1.21-1.377-1.313-2.283c-0.14-0.903-0.066-1.824,0.052-2.724c0.148-0.58,0.89-0.896,1.408-0.588
			c0.729,0.333,1.454,0.809,2.29,0.757c1.208,0.026,2.45-0.205,3.631,0.145c1.149,0.362,1.971,1.332,3.09,1.751
			c0.251,0.152,0.571,0.007,0.663-0.26c0.111-0.24,0.033-0.548-0.199-0.685c-1.297-1.309-3.07-1.946-4.571-2.969
			c-0.473-0.12-0.559-0.88-0.122-1.1c0.574-0.417,1.387-0.223,1.897,0.207c0.43,0.252,0.915,0.441,1.42,0.441
			c0.517-0.162,0.266-0.91-0.197-0.966c-0.839-0.474-1.44-1.251-2.167-1.867c-0.418-0.354-0.877-0.713-1.439-0.782
			c-0.307-0.056-0.622-0.068-0.933-0.047c-0.292-0.317,0.097-0.804,0.475-0.764c0.388,0.026,0.773,0.055,1.16,0.001
			c0.433-0.032,0.865-0.076,1.299-0.079c0.35,0.239,1.051-0.174,0.734-0.585c-0.345-0.303-0.845-0.276-1.258-0.432
			c-0.725-0.238-1.463-0.43-2.211-0.581c-0.523-0.031-0.458-0.719,0.001-0.795c0.301-0.112,0.562,0.119,0.851,0.155
			c0.493,0.106,1.002,0.105,1.495,0.212c0.418-0.206,0.095-0.817-0.283-0.852c-0.892-0.319-1.663-0.894-2.416-1.454
			c-0.832-0.626-1.587-1.349-2.429-1.96c-0.306-0.189-0.806-0.244-0.887-0.663c-0.028-0.386,0.426-0.562,0.748-0.472
			c0.457,0.135,0.883,0.37,1.349,0.485c0.365,0.062,0.742,0.17,1.094,0.124c0.447-0.281-0.192-0.46-0.423-0.558
			c-0.596-0.321-1.126-0.75-1.662-1.158c-0.453-0.387,0.385-0.558,0.673-0.409c0.482,0.202,0.537-0.501,0.177-0.677
			c-0.424-0.18-0.789-0.48-1.174-0.741c-0.695-0.495-1.483-0.887-2.338-0.996c-0.958-0.096-1.853-0.647-2.361-1.467
			C28.414,15.205,28.183,14.688,27.959,14.173z M24.812,19.55c0.494,0.015,0.418,0.905-0.068,0.845
			C24.272,20.365,24.301,19.454,24.812,19.55z M29.471,20.029c0.481-0.086,0.582,0.791,0.102,0.832
			C29.073,20.951,28.888,19.974,29.471,20.029z M28.107,20.143c0.487,0.096,0.401,0.945-0.091,0.952
			c-0.36,0.08-0.748,0.326-1.112,0.142c-0.296-0.313,0.132-0.776,0.462-0.878C27.62,20.308,27.853,20.193,28.107,20.143z
			 M31.247,20.147c0.47,0.171,0.304,1-0.191,0.99c-0.468,0.063-0.686-0.719-0.25-0.904C30.948,20.183,31.096,20.14,31.247,20.147z
			 M25.949,21.087c0.345,0.329,0.141,0.963-0.284,1.114c-0.307,0.171-0.725,0.574-1.059,0.242c-0.181-0.406,0.274-0.711,0.542-0.937
			C25.386,21.322,25.65,21.153,25.949,21.087z M29.893,22.92c0.494,0.233,0.243,1.124-0.299,1.069
			c-0.446-0.113-0.387-0.877,0.061-0.938C29.74,23.018,29.818,22.971,29.893,22.92z M28.324,23.009
			c0.462,0.216,0.109,0.988-0.356,0.877c-0.483-0.057-0.474-0.906,0.059-0.829C28.127,23.052,28.23,23.049,28.324,23.009z
			 M31.705,23.451c0.507-0.157,1.117,0.365,0.952,0.894c-0.226,0.41-0.784,0.462-1.184,0.309c-0.459-0.023-0.768-0.713-0.359-1.006
			C31.284,23.521,31.497,23.468,31.705,23.451z M24.22,23.584c0.419-0.228,0.864,0.457,0.508,0.759
			c-0.236,0.347-0.842,0.489-1.109,0.103C23.396,24.069,23.755,23.436,24.22,23.584z M22.287,23.908
			c0.475,0.065,0.785,0.497,0.961,0.908c0.043,0.501-0.696,0.776-1.019,0.411c-0.363-0.227-0.68-0.695-0.49-1.129
			C21.856,23.926,22.089,23.855,22.287,23.908z M33.853,25.719c0.516-0.136,0.89,0.688,0.447,0.987
			c-0.405,0.368-1.192-0.119-0.981-0.644C33.424,25.867,33.634,25.737,33.853,25.719z M27.287,26.659
			c0.433,0.055,0.292,0.805-0.108,0.78C26.75,27.359,26.849,26.617,27.287,26.659z M25.093,27.058
			c0.353-0.25,0.808,0.36,0.514,0.644C25.256,27.949,24.799,27.349,25.093,27.058z M28.582,27.131
			c0.409,0.248,0.652,0.712,0.703,1.179c-0.196,0.437-0.953,0.331-1.038-0.134C28.096,27.809,28.234,27.336,28.582,27.131z
			 M29.799,27.854c0.527-0.132,0.338,0.969-0.102,0.587C29.551,28.268,29.629,27.982,29.799,27.854z M22.153,28.621
			c0.349-0.102,0.858,0.005,0.954,0.406c0.041,0.376-0.373,0.572-0.676,0.665c-0.486,0.15-0.961,0.396-1.484,0.363
			c-0.392-0.224-0.532-0.682-0.672-1.082c0.378-0.355,0.935-0.251,1.404-0.339C21.836,28.626,21.995,28.622,22.153,28.621z
			 M34.013,30.347c0.445-0.218,0.924,0.488,0.551,0.818c-0.466,0.536-1.364,0.636-1.921,0.185c-0.067-0.475,0.407-0.82,0.829-0.888
			C33.649,30.413,33.825,30.338,34.013,30.347z M36.515,30.889c0.506-0.087,0.904,0.634,0.543,1.008
			c-0.342,0.515-1.157,0.651-1.623,0.228c-0.182-0.427,0.187-0.872,0.579-1.01C36.183,31.044,36.342,30.952,36.515,30.889z
			 M23.936,31.656c0.468-0.046,0.897,0.418,0.836,0.88c0.339,0.334-0.261,0.955-0.599,0.61c-0.298-0.361-0.296-0.85-0.411-1.282
			C23.756,31.768,23.827,31.644,23.936,31.656z M27.531,31.925c0.484-0.209,1.111,0.37,0.847,0.86
			c-0.188,0.399-0.922,0.266-0.898-0.197C27.479,32.367,27.461,32.14,27.531,31.925z M25.782,32.239
			c0.486-0.111,0.931,0.518,0.661,0.938C25.959,33.22,25.708,32.645,25.782,32.239z"/>
	</g>
</g>
</svg>
