<?xml version="1.0" encoding="iso-8859-1"?>
<!-- Generator: Adobe Illustrator 18.1.1, SVG Export Plug-In . SVG Version: 6.00 Build 0)  -->
<svg version="1.1" id="Layer_179" xmlns="http://www.w3.org/2000/svg" xmlns:xlink="http://www.w3.org/1999/xlink" x="0px" y="0px"
	 viewBox="0 0 56.692 56.692" style="enable-background:new 0 0 56.692 56.692;" xml:space="preserve">
<g>
	<defs>
		<circle id="SVGID_1_" cx="28.346" cy="28.347" r="28.346"/>
	</defs>
	<clipPath id="SVGID_2_">
		<use xlink:href="#SVGID_1_"  style="overflow:visible;"/>
	</clipPath>
	<g style="clip-path:url(#SVGID_2_);">
		<rect x="0" y="-0.001" style="fill:#002B7F;" width="94.488" height="56.693"/>
		<rect x="0" y="28.346" style="fill:#CE1126;" width="94.488" height="28.346"/>
		<g>
			<g id="half">
				<path style="fill:#FFD83D;" d="M20.445,11.554l-0.174,5.906h-5.992c-0.737-1.433-1.346-2.651-1.346-4.299
					c0-1.379,1.085-2.475,2.649-2.475C17.237,10.686,19.056,11.244,20.445,11.554z"/>
				<g>
					<path style="fill:#FFD83D;stroke:#000000;stroke-width:0.1417;stroke-linecap:round;stroke-linejoin:round;" d="M13.649,11.826
						v3.409"/>
					<path style="fill:#FFD83D;stroke:#000000;stroke-width:0.1417;stroke-linecap:round;stroke-linejoin:round;" d="M14.131,11.478
						v4.539"/>
					<path style="fill:#FFD83D;stroke:#000000;stroke-width:0.1417;stroke-linecap:round;stroke-linejoin:round;" d="M14.612,11.239
						v5.407"/>
					<path style="fill:#FFD83D;stroke:#000000;stroke-width:0.1417;stroke-linecap:round;stroke-linejoin:round;" d="M15.093,11.127
						v4.241"/>
					<path style="fill:#FFD83D;stroke:#000000;stroke-width:0.1417;stroke-linecap:round;stroke-linejoin:round;" d="M15.574,11.106
						v4.283"/>
					<path style="fill:#FFD83D;stroke:#000000;stroke-width:0.1417;stroke-linecap:round;stroke-linejoin:round;" d="M16.056,10.957
						v4.43"/>
					<path style="fill:#FFD83D;stroke:#000000;stroke-width:0.1417;stroke-linecap:round;stroke-linejoin:round;" d="M16.537,10.957
						v4.43"/>
					<path style="fill:#FFD83D;stroke:#000000;stroke-width:0.1417;stroke-linecap:round;stroke-linejoin:round;" d="M17.018,11
						v4.43"/>
					<path style="fill:#FFD83D;stroke:#000000;stroke-width:0.1417;stroke-linecap:round;stroke-linejoin:round;" d="M17.5,11.044
						v4.43"/>
					<path style="fill:#FFD83D;stroke:#000000;stroke-width:0.1417;stroke-linecap:round;stroke-linejoin:round;" d="M17.981,11.326
						v4.43"/>
					<path style="fill:#FFD83D;stroke:#000000;stroke-width:0.1417;stroke-linecap:round;stroke-linejoin:round;" d="M18.462,11.369
						v4.995"/>
					<path style="fill:#FFD83D;stroke:#000000;stroke-width:0.1417;stroke-linecap:round;stroke-linejoin:round;" d="M18.943,11.369
						v4.43"/>
					<path style="fill:#FFD83D;stroke:#000000;stroke-width:0.1417;stroke-linecap:round;stroke-linejoin:round;" d="M19.425,11.369
						v4.43"/>
					<path style="stroke:#000000;stroke-width:0.1417;stroke-linecap:round;stroke-linejoin:round;" d="M16.667,11.142
						c1.017,0.168,3.251,1.213,2.996,2.627c-0.361,2.004-1.531,1.2-3.083,0.912l-1.172,0.391c-0.42,0.428-1.037,0.82-1.455,0.304
						h-0.695v2.714h7.686v-6.557L16.667,11.142z"/>
				</g>
				
					<circle style="fill:#FFD83D;stroke:#000000;stroke-width:0.189;stroke-linecap:round;stroke-linejoin:round;" cx="20.109" cy="10.675" r="0.467"/>
				
					<circle style="fill:#FFD83D;stroke:#000000;stroke-width:0.189;stroke-linecap:round;stroke-linejoin:round;" cx="19.059" cy="10.423" r="0.467"/>
				
					<circle style="fill:#FFD83D;stroke:#000000;stroke-width:0.189;stroke-linecap:round;stroke-linejoin:round;" cx="17.995" cy="10.155" r="0.467"/>
				
					<circle style="fill:#FFD83D;stroke:#000000;stroke-width:0.189;stroke-linecap:round;stroke-linejoin:round;" cx="16.927" cy="9.977" r="0.467"/>
				
					<circle style="fill:#FFD83D;stroke:#000000;stroke-width:0.189;stroke-linecap:round;stroke-linejoin:round;" cx="15.859" cy="9.872" r="0.467"/>
				
					<circle style="fill:#FFD83D;stroke:#000000;stroke-width:0.189;stroke-linecap:round;stroke-linejoin:round;" cx="14.811" cy="9.931" r="0.467"/>
				
					<circle style="fill:#FFD83D;stroke:#000000;stroke-width:0.189;stroke-linecap:round;stroke-linejoin:round;" cx="13.812" cy="10.273" r="0.467"/>
				
					<circle style="fill:#FFD83D;stroke:#000000;stroke-width:0.189;stroke-linecap:round;stroke-linejoin:round;" cx="12.971" cy="10.892" r="0.467"/>
				
					<circle style="fill:#FFD83D;stroke:#000000;stroke-width:0.189;stroke-linecap:round;stroke-linejoin:round;" cx="12.374" cy="11.755" r="0.467"/>
				
					<circle style="fill:#FFD83D;stroke:#000000;stroke-width:0.189;stroke-linecap:round;stroke-linejoin:round;" cx="12.086" cy="12.77" r="0.467"/>
				
					<circle style="fill:#FFD83D;stroke:#000000;stroke-width:0.189;stroke-linecap:round;stroke-linejoin:round;" cx="12.097" cy="13.823" r="0.467"/>
				
					<circle style="fill:#FFD83D;stroke:#000000;stroke-width:0.189;stroke-linecap:round;stroke-linejoin:round;" cx="12.298" cy="14.854" r="0.467"/>
				<path style="fill:#FFD83D;stroke:#000000;stroke-width:0.189;stroke-linecap:round;stroke-linejoin:round;" d="M20.315,11.294
					l-0.043,0.608c-1.161-0.178-2.808-0.825-4.342-0.825c-1.418,0-2.519,0.567-2.519,1.997c0,1.41,0.597,2.692,1.39,3.995
					l-0.825,0.391c-0.737-1.433-1.346-2.651-1.346-4.299c0-1.379,1.085-2.736,2.953-2.736
					C17.237,10.425,18.926,10.983,20.315,11.294z"/>
			</g>
			<g transform="translate(443.9375) scale(-1,1)">
				<g id="half_1_">
					<path style="fill:#FFD83D;" d="M21.502,11.554l0.174,5.906h5.992c0.737-1.433,1.346-2.651,1.346-4.299
						c0-1.379-1.085-2.475-2.649-2.475C24.71,10.686,22.891,11.244,21.502,11.554z"/>
					<g>
						<path style="fill:#FFD83D;stroke:#000000;stroke-width:0.1417;stroke-linecap:round;stroke-linejoin:round;" d="
							M28.297,11.826v3.409"/>
						<path style="fill:#FFD83D;stroke:#000000;stroke-width:0.1417;stroke-linecap:round;stroke-linejoin:round;" d="
							M27.816,11.478v4.539"/>
						<path style="fill:#FFD83D;stroke:#000000;stroke-width:0.1417;stroke-linecap:round;stroke-linejoin:round;" d="
							M27.335,11.239v5.407"/>
						<path style="fill:#FFD83D;stroke:#000000;stroke-width:0.1417;stroke-linecap:round;stroke-linejoin:round;" d="
							M26.854,11.127v4.241"/>
						<path style="fill:#FFD83D;stroke:#000000;stroke-width:0.1417;stroke-linecap:round;stroke-linejoin:round;" d="
							M26.372,11.106v4.283"/>
						<path style="fill:#FFD83D;stroke:#000000;stroke-width:0.1417;stroke-linecap:round;stroke-linejoin:round;" d="
							M25.891,10.957v4.43"/>
						<path style="fill:#FFD83D;stroke:#000000;stroke-width:0.1417;stroke-linecap:round;stroke-linejoin:round;" d="M25.41,10.957
							v4.43"/>
						<path style="fill:#FFD83D;stroke:#000000;stroke-width:0.1417;stroke-linecap:round;stroke-linejoin:round;" d="M24.929,11
							v4.43"/>
						<path style="fill:#FFD83D;stroke:#000000;stroke-width:0.1417;stroke-linecap:round;stroke-linejoin:round;" d="
							M24.447,11.044v4.43"/>
						<path style="fill:#FFD83D;stroke:#000000;stroke-width:0.1417;stroke-linecap:round;stroke-linejoin:round;" d="
							M23.966,11.326v4.43"/>
						<path style="fill:#FFD83D;stroke:#000000;stroke-width:0.1417;stroke-linecap:round;stroke-linejoin:round;" d="
							M23.485,11.369v4.995"/>
						<path style="fill:#FFD83D;stroke:#000000;stroke-width:0.1417;stroke-linecap:round;stroke-linejoin:round;" d="
							M23.003,11.369v4.43"/>
						<path style="fill:#FFD83D;stroke:#000000;stroke-width:0.1417;stroke-linecap:round;stroke-linejoin:round;" d="
							M22.522,11.369v4.43"/>
						<path style="stroke:#000000;stroke-width:0.1417;stroke-linecap:round;stroke-linejoin:round;" d="M25.28,11.142
							c-1.017,0.168-3.251,1.213-2.996,2.627c0.361,2.004,1.531,1.2,3.083,0.912l1.172,0.391c0.42,0.428,1.037,0.82,1.455,0.304
							h0.695v2.714h-7.686v-6.557L25.28,11.142z"/>
					</g>
					
						<circle style="fill:#FFD83D;stroke:#000000;stroke-width:0.189;stroke-linecap:round;stroke-linejoin:round;" cx="21.838" cy="10.675" r="0.467"/>
					
						<circle style="fill:#FFD83D;stroke:#000000;stroke-width:0.189;stroke-linecap:round;stroke-linejoin:round;" cx="22.887" cy="10.423" r="0.467"/>
					
						<circle style="fill:#FFD83D;stroke:#000000;stroke-width:0.189;stroke-linecap:round;stroke-linejoin:round;" cx="23.952" cy="10.155" r="0.467"/>
					
						<circle style="fill:#FFD83D;stroke:#000000;stroke-width:0.189;stroke-linecap:round;stroke-linejoin:round;" cx="25.02" cy="9.977" r="0.467"/>
					
						<circle style="fill:#FFD83D;stroke:#000000;stroke-width:0.189;stroke-linecap:round;stroke-linejoin:round;" cx="26.088" cy="9.872" r="0.467"/>
					
						<circle style="fill:#FFD83D;stroke:#000000;stroke-width:0.189;stroke-linecap:round;stroke-linejoin:round;" cx="27.136" cy="9.931" r="0.467"/>
					
						<circle style="fill:#FFD83D;stroke:#000000;stroke-width:0.189;stroke-linecap:round;stroke-linejoin:round;" cx="28.135" cy="10.273" r="0.467"/>
					
						<circle style="fill:#FFD83D;stroke:#000000;stroke-width:0.189;stroke-linecap:round;stroke-linejoin:round;" cx="28.976" cy="10.892" r="0.467"/>
					
						<circle style="fill:#FFD83D;stroke:#000000;stroke-width:0.189;stroke-linecap:round;stroke-linejoin:round;" cx="29.573" cy="11.755" r="0.467"/>
					
						<circle style="fill:#FFD83D;stroke:#000000;stroke-width:0.189;stroke-linecap:round;stroke-linejoin:round;" cx="29.861" cy="12.77" r="0.467"/>
					
						<circle style="fill:#FFD83D;stroke:#000000;stroke-width:0.189;stroke-linecap:round;stroke-linejoin:round;" cx="29.85" cy="13.823" r="0.467"/>
					
						<circle style="fill:#FFD83D;stroke:#000000;stroke-width:0.189;stroke-linecap:round;stroke-linejoin:round;" cx="29.649" cy="14.854" r="0.467"/>
					<path style="fill:#FFD83D;stroke:#000000;stroke-width:0.189;stroke-linecap:round;stroke-linejoin:round;" d="M21.632,11.294
						l0.043,0.608c1.161-0.178,2.808-0.825,4.342-0.825c1.418,0,2.519,0.567,2.519,1.997c0,1.41-0.597,2.692-1.39,3.995l0.825,0.391
						c0.737-1.433,1.346-2.651,1.346-4.299c0-1.379-1.085-2.736-2.953-2.736C24.71,10.425,23.021,10.983,21.632,11.294z"/>
				</g>
			</g>
			<path style="fill:#FFD83D;stroke:#000000;stroke-width:0.189;stroke-linecap:round;stroke-linejoin:round;" d="M20.973,5.019
				l-0.487,0.912l0.487,0.909l0.487-0.909L20.973,5.019z M20.973,7.322l-0.487,0.909l0.487,0.912l0.487-0.912L20.973,7.322z"/>
			<path style="fill:#FFD83D;stroke:#000000;stroke-width:0.189;stroke-linecap:round;stroke-linejoin:round;" d="M19.237,7.082
				l0.768,0.487l0.766-0.487l-0.766-0.487L19.237,7.082z M21.176,7.082l0.766,0.487l0.768-0.487l-0.768-0.487L21.176,7.082z"/>
			
				<circle style="fill:#FFD83D;stroke:#000000;stroke-width:0.189;stroke-linecap:round;stroke-linejoin:round;" cx="20.973" cy="7.093" r="0.369"/>
			
				<circle style="fill:#FFD83D;stroke:#000000;stroke-width:0.189;stroke-linecap:round;stroke-linejoin:round;" cx="20.973" cy="9.448" r="0.988"/>
			<path style="fill:none;stroke:#000000;stroke-width:0.1417;stroke-linecap:round;stroke-linejoin:round;" d="M20.725,8.492
				c0,0.294-0.002,0.465-0.003,0.626c-0.238,0.011-0.473,0.036-0.703,0.074 M21.927,9.191c-0.23-0.038-0.465-0.063-0.703-0.074
				c0-0.16,0-0.331,0-0.626 M20.017,9.69c0.311-0.052,0.631-0.08,0.957-0.08c0.326,0,0.645,0.028,0.957,0.08"/>
			<path style="fill:#FFD83D;stroke:#000000;stroke-width:0.189;stroke-linecap:round;stroke-linejoin:round;" d="M20.008,11.12
				c-0.094,1.614-0.284,3.258-0.912,4.453l1.022-0.413c0.357-1.354,0.432-3.103,0.54-3.93L20.008,11.12z M21.939,11.12l-0.65,0.109
				c0.109,0.827,0.184,2.576,0.54,3.93l1.022,0.413C22.223,14.377,22.033,12.734,21.939,11.12z"/>
			<path style="fill:#FFD83D;stroke:#000000;stroke-width:0.189;stroke-linecap:round;stroke-linejoin:round;" d="M20.972,14.616
				c-1.22,0-2.116,0.575-2.17,2.04c-0.298-0.525-1.56-2.176-2.737-1.955c-0.7,0.131-1.319,1.102-1.214,2.215
				c-0.58-1.666-2.278-1.939-3.517-0.954c1.1,0.904,1.589,3.575,2.516,4.733h7.122h7.122c0.926-1.158,1.419-3.829,2.519-4.733
				c-1.239-0.985-2.937-0.712-3.517,0.954c0.105-1.112-0.516-2.083-1.217-2.215c-1.177-0.221-2.436,1.43-2.734,1.955
				C23.091,15.191,22.192,14.616,20.972,14.616z"/>
			<g>
				<path style="stroke:#000000;stroke-width:0.1417;stroke-linecap:round;stroke-linejoin:round;" d="M28.073,20.695
					c0,0.527-3.181,1.107-7.1,1.107s-7.1-0.58-7.1-1.107c0-0.527,3.181-0.803,7.1-0.803S28.073,20.168,28.073,20.695z"/>
				
					<circle style="fill:#FFD83D;stroke:#000000;stroke-width:0.1417;stroke-linecap:round;stroke-linejoin:round;" cx="20.973" cy="10.813" r="0.331"/>
				
					<circle style="fill:#FFD83D;stroke:#000000;stroke-width:0.1417;stroke-linecap:round;stroke-linejoin:round;" cx="20.973" cy="11.53" r="0.353"/>
				
					<circle style="fill:#FFD83D;stroke:#000000;stroke-width:0.1417;stroke-linecap:round;stroke-linejoin:round;" cx="20.973" cy="12.3" r="0.385"/>
				
					<circle style="fill:#FFD83D;stroke:#000000;stroke-width:0.1417;stroke-linecap:round;stroke-linejoin:round;" cx="20.973" cy="13.158" r="0.44"/>
				
					<circle style="fill:#FFD83D;stroke:#000000;stroke-width:0.1417;stroke-linecap:round;stroke-linejoin:round;" cx="20.973" cy="14.113" r="0.483"/>
				<path d="M20.781,15.043c-0.052-0.001-0.102,0.043-0.089,0.127c0.015,0.099,0.035,0.283,0.053,0.407
					c0.021,0.141,0.103,0.107,0.124-0.003c0.021-0.11,0.012-0.18,0.018-0.384C20.89,15.088,20.834,15.043,20.781,15.043z
					 M21.165,15.043c-0.052,0.001-0.109,0.046-0.106,0.148c0.005,0.204-0.003,0.274,0.018,0.384c0.021,0.11,0.103,0.144,0.124,0.003
					c0.018-0.124,0.038-0.309,0.053-0.407C21.267,15.086,21.218,15.042,21.165,15.043z M20.439,15.096
					c-0.048,0.007-0.097,0.055-0.094,0.106c0.005,0.094,0.031,0.207,0.041,0.348c0.01,0.146,0.114,0.089,0.124,0.006
					c0.01-0.084,0.022-0.207,0.012-0.369c-0.004-0.061-0.03-0.087-0.062-0.092C20.453,15.095,20.446,15.095,20.439,15.096z
					 M21.487,15.096c-0.032,0.004-0.058,0.031-0.062,0.092c-0.01,0.162,0.001,0.285,0.012,0.369c0.01,0.084,0.114,0.14,0.124-0.006
					c0.01-0.142,0.036-0.254,0.041-0.348c0.003-0.051-0.047-0.1-0.094-0.106C21.501,15.095,21.494,15.095,21.487,15.096z
					 M20.029,15.261c-0.044,0.011-0.084,0.064-0.071,0.124c0.026,0.12,0.05,0.253,0.05,0.375c0,0.105,0.089,0.067,0.094-0.006
					c0.005-0.073,0.015-0.228,0.015-0.369C20.117,15.28,20.072,15.25,20.029,15.261z M21.889,15.261
					c-0.031,0.009-0.059,0.045-0.059,0.124c0,0.141,0.01,0.296,0.015,0.369c0.005,0.073,0.094,0.11,0.094,0.006
					c0-0.122,0.024-0.255,0.05-0.375c0.013-0.06-0.027-0.113-0.071-0.124C21.907,15.258,21.899,15.258,21.889,15.261z
					 M16.305,15.277c-0.052-0.002-0.089,0.069-0.053,0.148c0.057,0.125,0.118,0.205,0.177,0.34c0.052,0.12,0.132,0.045,0.106-0.038
					c-0.026-0.084-0.055-0.177-0.133-0.354C16.373,15.305,16.337,15.278,16.305,15.277z M25.642,15.277
					c-0.031,0.001-0.068,0.028-0.097,0.094c-0.078,0.178-0.107,0.271-0.133,0.354c-0.026,0.084,0.054,0.159,0.106,0.038
					c0.059-0.135,0.12-0.214,0.177-0.34C25.731,15.347,25.694,15.275,25.642,15.277z M16.683,15.283
					c-0.039,0.012-0.062,0.061-0.038,0.118c0.047,0.115,0.115,0.233,0.162,0.357c0.042,0.11,0.135,0.079,0.103-0.021
					c-0.031-0.099-0.041-0.157-0.103-0.345C16.776,15.298,16.722,15.271,16.683,15.283z M25.234,15.283
					c-0.033,0.007-0.071,0.039-0.094,0.109c-0.063,0.188-0.072,0.246-0.103,0.345c-0.031,0.099,0.062,0.13,0.103,0.021
					c0.047-0.125,0.115-0.242,0.162-0.357c0.024-0.057,0-0.106-0.038-0.118C25.254,15.28,25.245,15.281,25.234,15.283z
					 M17.156,15.375c-0.049,0.009-0.086,0.083-0.053,0.174c0.042,0.115,0.101,0.224,0.154,0.354
					c0.052,0.131,0.139,0.104,0.118,0.021c-0.021-0.084-0.047-0.222-0.109-0.431C17.237,15.401,17.193,15.367,17.156,15.375z
					 M24.791,15.375c-0.038-0.007-0.082,0.027-0.109,0.118c-0.063,0.209-0.088,0.348-0.109,0.431
					c-0.021,0.084,0.066,0.11,0.118-0.021c0.052-0.131,0.112-0.239,0.154-0.354C24.878,15.458,24.84,15.384,24.791,15.375z
					 M15.986,15.44c-0.053,0.005-0.101,0.091-0.068,0.156c0.052,0.105,0.085,0.14,0.136,0.251c0.052,0.115,0.109,0.026,0.089-0.047
					s-0.048-0.158-0.074-0.263C16.05,15.461,16.018,15.436,15.986,15.44z M25.961,15.44c-0.032-0.003-0.064,0.021-0.083,0.097
					c-0.026,0.104-0.053,0.19-0.074,0.263c-0.021,0.073,0.036,0.162,0.089,0.047c0.05-0.111,0.084-0.146,0.136-0.251
					C26.061,15.531,26.013,15.445,25.961,15.44z M19.627,15.704c-0.055,0-0.114,0.073-0.094,0.142
					c0.031,0.11,0.08,0.207,0.115,0.348c0.031,0.125,0.12,0.063,0.115-0.021c-0.005-0.084-0.02-0.197-0.056-0.375
					C19.693,15.732,19.66,15.704,19.627,15.704z M22.32,15.704c-0.033,0-0.066,0.028-0.08,0.094
					c-0.037,0.178-0.051,0.291-0.056,0.375c-0.005,0.084,0.084,0.146,0.115,0.021c0.035-0.141,0.084-0.239,0.115-0.348
					C22.434,15.777,22.375,15.704,22.32,15.704z M20.973,15.816c-0.068,0-0.077,0.091-0.08,0.165
					c-0.008,0.243-0.109,0.479-0.195,0.596c-0.086,0.118-0.213,0.086-0.331,0.024s-0.188-0.11-0.313-0.204
					c-0.125-0.094-0.22-0.039-0.071,0.174c0.436,0.622,0.909,1.153,0.909,2.167c0,0.131,0.023,0.171,0.08,0.171
					s0.083-0.04,0.083-0.171c0-1.014,0.47-1.546,0.906-2.167c0.15-0.213,0.055-0.268-0.071-0.174
					c-0.125,0.094-0.195,0.141-0.313,0.204c-0.118,0.063-0.245,0.094-0.331-0.024c-0.086-0.118-0.187-0.354-0.195-0.596
					C21.051,15.907,21.041,15.816,20.973,15.816z M17.64,15.664c-0.006,0-0.012,0.001-0.018,0.003
					c-0.025,0.008-0.042,0.039-0.032,0.092c0.018,0.095,0.083,0.28,0.109,0.369c0.026,0.089,0.135,0.07,0.109-0.05
					c-0.026-0.12-0.025-0.156-0.056-0.292C17.735,15.711,17.681,15.665,17.64,15.664z M24.307,15.664
					c-0.042,0.001-0.095,0.047-0.112,0.121c-0.031,0.136-0.03,0.172-0.056,0.292c-0.026,0.12,0.083,0.139,0.109,0.05
					c0.026-0.089,0.092-0.274,0.109-0.369c0.01-0.053-0.007-0.084-0.032-0.092C24.32,15.665,24.313,15.664,24.307,15.664z
					 M15.658,15.702c-0.055,0.004-0.094,0.073-0.038,0.174c0.06,0.109,0.163,0.246,0.21,0.325c0.047,0.078,0.128,0.025,0.071-0.074
					c-0.057-0.099-0.077-0.213-0.145-0.354C15.73,15.72,15.691,15.7,15.658,15.702z M26.288,15.702
					c-0.033-0.003-0.072,0.018-0.097,0.071c-0.068,0.141-0.087,0.255-0.145,0.354c-0.057,0.099,0.024,0.152,0.071,0.074
					c0.047-0.078,0.15-0.215,0.21-0.325C26.382,15.775,26.343,15.707,26.288,15.702z M12.664,16.017
					c-0.063-0.003-0.083,0.111-0.024,0.186c0.086,0.11,0.146,0.168,0.245,0.257c0.078,0.071,0.101-0.021,0.062-0.092
					c-0.039-0.071-0.096-0.142-0.174-0.26C12.731,16.044,12.693,16.019,12.664,16.017z M29.282,16.017
					c-0.029,0.002-0.066,0.027-0.109,0.092c-0.078,0.118-0.135,0.189-0.174,0.26s-0.016,0.162,0.062,0.092
					c0.099-0.089,0.159-0.147,0.245-0.257C29.365,16.128,29.346,16.014,29.282,16.017z M13.14,16.111
					c-0.05,0.001-0.083,0.038-0.044,0.124c0.056,0.123,0.13,0.263,0.177,0.357c0.047,0.094,0.19,0.126,0.133-0.021
					c-0.057-0.146-0.069-0.221-0.121-0.357C13.258,16.147,13.19,16.111,13.14,16.111z M28.807,16.111
					c-0.05-0.001-0.119,0.035-0.145,0.103c-0.052,0.136-0.064,0.211-0.121,0.357c-0.057,0.146,0.086,0.115,0.133,0.021
					c0.047-0.094,0.121-0.234,0.177-0.357C28.891,16.149,28.857,16.112,28.807,16.111z M12.219,16.144
					c-0.073,0.001-0.079,0.074-0.015,0.121c0.086,0.063,0.189,0.132,0.289,0.213c0.118,0.094,0.163,0.008,0.1-0.071
					c-0.063-0.078-0.124-0.158-0.281-0.236C12.274,16.151,12.243,16.144,12.219,16.144z M29.728,16.144
					c-0.024,0-0.055,0.007-0.094,0.027c-0.157,0.078-0.218,0.158-0.281,0.236c-0.063,0.078-0.017,0.165,0.1,0.071
					c0.1-0.08,0.203-0.15,0.289-0.213C29.808,16.218,29.801,16.145,29.728,16.144z M19.367,16.212
					c-0.041,0.006-0.076,0.052-0.059,0.112c0.031,0.11,0.067,0.226,0.089,0.34c0.021,0.11,0.148,0.111,0.127,0.012
					c-0.021-0.099-0.031-0.223-0.068-0.375c-0.014-0.057-0.042-0.084-0.071-0.089C19.379,16.211,19.373,16.211,19.367,16.212z
					 M22.562,16.212c-0.029,0.004-0.057,0.032-0.071,0.089c-0.037,0.152-0.047,0.276-0.068,0.375
					c-0.021,0.099,0.106,0.098,0.127-0.012c0.022-0.114,0.057-0.23,0.089-0.34c0.017-0.06-0.018-0.106-0.059-0.112
					C22.574,16.211,22.568,16.211,22.562,16.212z M16.524,16.024c-0.032,0.009-0.051,0.07-0.027,0.156
					c0.133,0.478,0.174,0.73,0.151,0.847c-0.024,0.118-0.088,0.134-0.174,0.094c-0.086-0.039-0.187-0.096-0.266-0.151
					c-0.078-0.055-0.16,0.011-0.047,0.103c0.572,0.47,0.969,1.008,1.122,1.659c0.031,0.133,0.115,0.149,0.092,0
					c-0.13-0.821-0.155-1.496,0.041-1.919c0.074-0.159-0.001-0.312-0.118-0.053c-0.078,0.172-0.205,0.24-0.307,0.092
					c-0.102-0.149-0.312-0.546-0.375-0.726c-0.024-0.068-0.053-0.099-0.077-0.103C16.533,16.023,16.528,16.023,16.524,16.024z
					 M25.408,16.024c-0.024,0.004-0.053,0.036-0.077,0.103c-0.063,0.18-0.273,0.577-0.375,0.726
					c-0.102,0.149-0.229,0.081-0.307-0.092c-0.118-0.259-0.192-0.106-0.118,0.053c0.196,0.423,0.171,1.098,0.041,1.919
					c-0.024,0.149,0.06,0.133,0.092,0c0.153-0.652,0.55-1.189,1.122-1.659c0.113-0.093,0.031-0.158-0.047-0.103
					c-0.078,0.055-0.18,0.111-0.266,0.151c-0.086,0.039-0.151,0.023-0.174-0.094c-0.024-0.118,0.017-0.369,0.151-0.847
					c0.024-0.086,0.006-0.148-0.027-0.156C25.419,16.023,25.414,16.023,25.408,16.024z M13.648,16.253
					c-0.052,0.001-0.094,0.037-0.071,0.115c0.038,0.126,0.116,0.261,0.142,0.34c0.026,0.078,0.11,0.042,0.094-0.068
					s-0.023-0.175-0.044-0.295C13.758,16.285,13.699,16.253,13.648,16.253z M28.299,16.253c-0.052-0.001-0.111,0.031-0.121,0.092
					c-0.021,0.12-0.029,0.186-0.044,0.295c-0.016,0.11,0.068,0.146,0.094,0.068c0.026-0.078,0.104-0.214,0.142-0.34
					C28.394,16.29,28.351,16.254,28.299,16.253z M15.422,16.089c-0.06-0.011-0.069,0.144-0.018,0.207
					c0.068,0.084,0.162,0.185,0.257,0.298c0.078,0.094,0.127,0.01,0.08-0.068c-0.047-0.078-0.117-0.162-0.242-0.36
					C15.468,16.116,15.442,16.093,15.422,16.089z M26.525,16.089c-0.02,0.004-0.045,0.027-0.077,0.077
					c-0.125,0.199-0.195,0.282-0.242,0.36c-0.047,0.078,0.001,0.162,0.08,0.068c0.095-0.114,0.189-0.215,0.257-0.298
					C26.593,16.233,26.585,16.078,26.525,16.089z M14.052,16.463c-0.037-0.003-0.069,0.028-0.053,0.103
					c0.022,0.105,0.054,0.193,0.08,0.292c0.026,0.099,0.094,0.082,0.094-0.012c0-0.094-0.017-0.199-0.032-0.298
					C14.133,16.499,14.089,16.465,14.052,16.463z M27.895,16.463c-0.037,0.003-0.081,0.036-0.089,0.086
					c-0.016,0.099-0.032,0.204-0.032,0.298c0,0.094,0.068,0.111,0.094,0.012c0.026-0.099,0.058-0.187,0.08-0.292
					C27.964,16.49,27.932,16.46,27.895,16.463z M15.289,16.597c-0.058,0.009-0.11,0.065-0.041,0.154
					c0.11,0.141,0.23,0.24,0.272,0.292c0.042,0.052,0.148,0.033,0.08-0.077c-0.069-0.112-0.174-0.247-0.221-0.331
					C15.36,16.604,15.324,16.592,15.289,16.597z M26.634,16.597c-0.026,0.003-0.052,0.015-0.065,0.038
					c-0.047,0.084-0.152,0.219-0.221,0.331c-0.068,0.11,0.038,0.129,0.08,0.077c0.042-0.052,0.162-0.151,0.272-0.292
					c0.069-0.088,0.017-0.145-0.041-0.154C26.649,16.596,26.642,16.596,26.634,16.597z M13.338,16.991
					c-0.046-0.004-0.062,0.033,0,0.118c0.141,0.193,0.297,0.486,0.307,0.611c0.01,0.125-0.052,0.124-0.109,0.124
					c-0.172,0-0.257-0.126-0.413-0.162c-0.157-0.037-0.18,0.046-0.068,0.127c0.575,0.418,1.151,0.884,1.382,1.308
					c0.094,0.172,0.221,0.235,0.151,0.071c-0.216-0.504-0.268-0.931-0.221-1.19c0.047-0.259,0.111-0.433,0.103-0.582
					c-0.008-0.149-0.092-0.139-0.127,0c-0.024,0.094-0.069,0.219-0.1,0.266c-0.031,0.047-0.157,0.073-0.278-0.089
					c-0.12-0.162-0.423-0.474-0.523-0.552C13.404,17.012,13.365,16.994,13.338,16.991z M28.609,16.991
					c-0.028,0.003-0.066,0.021-0.103,0.05c-0.099,0.078-0.402,0.39-0.523,0.552c-0.12,0.162-0.246,0.136-0.278,0.089
					c-0.031-0.047-0.077-0.172-0.1-0.266c-0.035-0.139-0.119-0.149-0.127,0c-0.008,0.149,0.056,0.323,0.103,0.582
					c0.047,0.259-0.005,0.686-0.221,1.19c-0.071,0.165,0.057,0.102,0.151-0.071c0.231-0.424,0.807-0.89,1.382-1.308
					c0.112-0.081,0.089-0.164-0.068-0.127c-0.157,0.037-0.241,0.162-0.413,0.162c-0.058,0-0.12,0.001-0.109-0.124
					c0.01-0.125,0.166-0.418,0.307-0.611C28.671,17.024,28.655,16.987,28.609,16.991z"/>
				<path style="fill:#FFD83D;stroke:#000000;stroke-width:0.1417;stroke-linecap:round;stroke-linejoin:round;" d="M14.185,20.093
					l0.184,0.583 M14.564,19.982l0.163,0.59 M14.974,19.915l0.112,0.601 M15.353,19.839l0.12,0.6 M15.841,19.791l0.098,0.604
					 M16.359,19.791l0.105,0.603 M16.865,19.62l0.076,0.607 M17.341,19.651l0.076,0.607 M17.801,19.589l0.076,0.607 M18.263,19.542
					l0.042,0.61 M18.757,19.542l0.036,0.611 M19.205,19.511l0.031,0.611 M19.699,19.48l0.026,0.611 M20.267,19.464l0.026,0.611
					 M27.762,20.093l-0.184,0.583 M27.383,19.982l-0.163,0.59 M26.973,19.915l-0.112,0.601 M26.593,19.839l-0.12,0.6 M26.106,19.791
					l-0.098,0.604 M25.588,19.791l-0.105,0.603 M25.082,19.62l-0.076,0.607 M24.606,19.651l-0.076,0.607 M24.146,19.589
					l-0.076,0.607 M23.683,19.542l-0.042,0.61 M23.189,19.542l-0.036,0.611 M22.742,19.511l-0.031,0.611 M22.248,19.48l-0.026,0.611
					 M21.68,19.464l-0.026,0.611 M20.973,19.425v0.673"/>
			</g>
		</g>
	</g>
</g>
</svg>
