<?xml version="1.0" encoding="iso-8859-1"?>
<!-- Generator: Adobe Illustrator 18.1.1, SVG Export Plug-In . SVG Version: 6.00 Build 0)  -->
<svg version="1.1" id="Layer_179" xmlns="http://www.w3.org/2000/svg" xmlns:xlink="http://www.w3.org/1999/xlink" x="0px" y="0px"
	 viewBox="0 0 56.692 56.692" style="enable-background:new 0 0 56.692 56.692;" xml:space="preserve">
<g>
	<defs>
		<circle id="SVGID_1_" cx="28.346" cy="28.347" r="28.346"/>
	</defs>
	<clipPath id="SVGID_2_">
		<use xlink:href="#SVGID_1_"  style="overflow:visible;"/>
	</clipPath>
	<g style="clip-path:url(#SVGID_2_);">
		<rect x="-17" y="0" style="fill:#FFB700;" width="113.385" height="56.692"/>
		<path style="fill:#FF5B00;" d="M0,28.346L9.453,4.724h9.453v47.244H9.453L0,28.346z"/>
		<rect x="0" y="4.724" style="fill:#005641;" width="9.453" height="47.244"/>
		<rect x="23.63" y="4.724" style="fill:#8D2029;" width="68.503" height="47.244"/>
		<path id="leaf" style="fill:#FFB700;stroke:#000000;stroke-width:0.2009;" d="M85.623,44.037c0,0,0.642,1.308,1.352,1.841
			c1.051,0.79,3.207,0.732,4.122,1.654c1.096,1.086-0.085,2.521-0.075,2.646l0.06,0.758c0,0-0.739,0.009-1.051,0.057
			c-0.468,0.073-0.651,0.454-1.522,0.397c-2.191-0.142-2.103-2.116-2.227-3.803c-0.11-0.642-0.365-1.48-0.509-2.122
			C85.649,44.913,85.623,44.037,85.623,44.037L85.623,44.037z"/>
		<g transform="matrix(-1,0,0,1,1585,0)">
			<path id="leaf_1_" style="fill:#FFB700;stroke:#000000;stroke-width:0.168;" d="M29.167,45.242c0,0-0.537,1.094-1.131,1.539
				c-0.879,0.66-2.682,0.612-3.447,1.383c-0.917,0.908,0.071,2.108,0.063,2.212l-0.05,0.634c0,0,0.618,0.007,0.879,0.048
				c0.391,0.061,0.544,0.38,1.273,0.332c1.832-0.119,1.758-1.77,1.862-3.18c0.092-0.537,0.305-1.237,0.426-1.774
				C29.145,45.975,29.167,45.242,29.167,45.242L29.167,45.242z"/>
		</g>
		<g transform="matrix(1,0,0,-1,0,600)">
			<path id="leaf_2_" style="fill:#FFB700;stroke:#000000;stroke-width:0.2009;" d="M85.623,12.656c0,0,0.642-1.308,1.352-1.841
				c1.051-0.789,3.207-0.732,4.122-1.654c1.096-1.086-0.085-2.521-0.075-2.646l0.06-0.758c0,0-0.739-0.009-1.051-0.057
				c-0.468-0.073-0.651-0.454-1.522-0.397c-2.191,0.142-2.103,2.116-2.227,3.803c-0.11,0.642-0.365,1.48-0.509,2.122
				C85.649,11.779,85.623,12.656,85.623,12.656L85.623,12.656z"/>
		</g>
		<g transform="matrix(-1,0,0,-1,1585,600)">
			<path id="leaf_3_" style="fill:#FFB700;stroke:#000000;stroke-width:0.1619;" d="M28.987,11.228c0,0-0.518-1.054-1.09-1.484
				c-0.848-0.636-2.585-0.59-3.323-1.333c-0.884-0.875,0.069-2.032,0.061-2.132l-0.048-0.611c0,0,0.596-0.007,0.847-0.046
				c0.377-0.059,0.524-0.366,1.227-0.32c1.766,0.115,1.695,1.706,1.795,3.065c0.089,0.518,0.294,1.193,0.411,1.71
				C28.966,10.522,28.987,11.228,28.987,11.228L28.987,11.228z"/>
		</g>
		<g>
			<g id="lion">
				<path style="fill:#FFB700;stroke:#000000;stroke-width:0.4152;" d="M41.094,41.608l0.326-0.188l0.139,0.188
					c0.186,0.251,0.699,0.248,1.04-0.006l0.261-0.194l0.218,0.194c0.287,0.255,0.822,0.256,1.164,0.001
					c0.239-0.178,0.273-0.182,0.431-0.046c0.094,0.081,0.371,0.173,0.615,0.205c0.439,0.057,0.446,0.054,0.703-0.332
					c0.215-0.323,0.249-0.454,0.198-0.767c-0.034-0.208-0.071-0.542-0.082-0.743c-0.02-0.364-0.017-0.366,0.512-0.55
					c0.293-0.102,0.631-0.238,0.753-0.304c0.212-0.114,0.795-0.799,0.795-0.934c0-0.036-0.228-0.091-0.506-0.122
					c-1.108-0.124-1.295-0.719-0.575-1.824c1.174-1.802,1.883-3.557,1.888-4.675c0.002-0.5,0.031-0.667,0.095-0.559
					c0.262,0.444-0.208,2.306-0.92,3.643l-0.287,0.538l0.274-0.063c0.15-0.035,1.035-0.408,1.966-0.83
					c2.548-1.154,3.423-1.38,5.072-1.311c1.381,0.058,1.97,0.328,2.945,1.351c0.517,0.542,1.014,0.93,1.925,1.5
					c1.94,1.214,2.021,1.319,2.113,2.747c0.093,1.447,0.047,1.525-1.047,1.767c-0.935,0.207-1.522,0.643-1.679,1.248
					c-0.084,0.324,0.093,0.333,0.564,0.03l0.346-0.222l0.154,0.222c0.202,0.292,0.631,0.293,0.988,0.003l0.269-0.219l0.275,0.219
					c0.428,0.341,0.997,0.258,1.157-0.168c0.031-0.082,0.113-0.056,0.28,0.089c0.313,0.272,1.114,0.388,1.2,0.175
					c0.033-0.081-0.03-0.283-0.139-0.447c-0.466-0.699-0.612-1.032-0.618-1.413c-0.008-0.529,0.149-0.785,0.751-1.215
					c0.731-0.523,0.957-1.197,0.401-1.197c-0.343,0-0.689-0.303-0.91-0.798c-0.449-1.005-0.361-2.132,0.313-4.007
					c0.684-1.904,0.76-2.256,0.763-3.529c0.002-1.03-0.024-1.208-0.258-1.773c-0.143-0.345-0.434-0.859-0.646-1.142l-0.385-0.515
					l0.495-0.41c1.511-1.252,1.202-3.301-0.617-4.09c-0.557-0.242-0.696-0.263-1.671-0.256c-0.585,0.004-1.477,0.081-1.983,0.171
					c-0.515,0.092-1.387,0.166-1.985,0.168c-0.95,0.004-1.112-0.02-1.478-0.215c-0.382-0.203-0.447-0.3-0.522-0.77
					c-0.015-0.097-0.083-0.193-0.15-0.214c-0.13-0.041-0.73,0.48-0.818,0.71c-0.044,0.114-0.079,0.106-0.208-0.046
					c-0.085-0.101-0.204-0.332-0.264-0.514c-0.151-0.458,0.035-0.802,0.573-1.059l0.418-0.2l-0.246-0.153
					c-0.508-0.316-1.373-0.1-1.686,0.421c-0.088,0.147-0.185,0.268-0.214,0.268c-0.029,0-0.198-0.14-0.374-0.312
					c-0.656-0.641-0.431-1.591,0.447-1.88c0.468-0.155,0.883-0.037,0.969,0.276c0.132,0.477,0.541-0.15,0.467-0.716
					c-0.049-0.376-0.041-0.389,0.219-0.389c0.362,0,1.133,0.475,1.371,0.845c0.277,0.43,0.257,1.107-0.048,1.612L56.39,19.28
					l0.313-0.063c0.459-0.092,0.905-0.377,1.13-0.722c0.238-0.365,0.264-1.077,0.053-1.46c-0.205-0.372-0.181-0.431,0.121-0.305
					c0.515,0.214,0.79,0.45,0.997,0.854c0.186,0.364,0.196,0.454,0.096,0.833c-0.062,0.234-0.2,0.541-0.307,0.683
					c-0.166,0.221-0.172,0.258-0.039,0.258c0.247,0,0.762-0.234,0.945-0.428c0.092-0.098,0.227-0.341,0.3-0.539l0.131-0.36
					l0.151,0.274c0.214,0.388,0.629,0.737,1.135,0.954c0.545,0.233,0.771,0.247,0.487,0.028c-0.192-0.147-0.546-1.186-0.439-1.287
					c0.063-0.06,0.803,0.509,1.647,1.267c0.799,0.717,1.301,0.952,2.034,0.952c0.937,0,1.483-0.816,1.062-1.587
					c-0.246-0.45-0.793-0.512-1.112-0.127c-0.147,0.177-0.187,0.318-0.144,0.504c0.053,0.228,0.032,0.258-0.175,0.258
					c-0.272,0-0.809-0.349-1.763-1.144c-1.454-1.213-3.221-2.242-4.497-2.618c-0.819-0.241-2.568-0.335-3.4-0.183
					c-0.901,0.165-1.966,0.68-2.547,1.232c-1.029,0.978-1.045,2.279-0.043,3.464l0.287,0.339l-0.194,0.302
					c-0.283,0.439-0.258,1.03,0.06,1.465c0.14,0.192,0.282,0.348,0.314,0.348c0.033,0,0.068-0.123,0.08-0.274
					c0.028-0.381,0.191-0.636,0.472-0.737c0.253-0.091,0.416-0.048,1.572,0.414c1.217,0.486,3.217,0.519,5.344,0.089
					c1.043-0.211,2.273-0.198,2.814,0.028c0.992,0.415,1.222,1.496,0.493,2.317c-0.316,0.355-0.62,0.5-1.642,0.78
					c-0.778,0.213-0.962,0.228-2.729,0.21c-1.51-0.015-2.053,0.014-2.669,0.143c-0.669,0.14-1.081,0.154-3.046,0.104l-2.273-0.057
					l0.252,0.209c0.139,0.115,0.334,0.256,0.435,0.314c0.171,0.098,0.166,0.112-0.089,0.206c-0.15,0.056-0.482,0.101-0.739,0.101
					H50.8l-0.063,0.396c-0.035,0.218-0.032,0.472,0.006,0.565c0.056,0.137,0.035,0.157-0.11,0.104
					c-0.098-0.036-0.371-0.106-0.607-0.156c-0.236-0.05-0.553-0.152-0.705-0.226c-0.256-0.125-0.284-0.122-0.378,0.045
					c-0.084,0.149-0.874,0.737-0.99,0.737c-0.019,0-0.043-0.113-0.054-0.252s-0.125-0.499-0.253-0.801
					c-0.128-0.302-0.263-0.632-0.298-0.733c-0.054-0.152-0.078-0.16-0.142-0.046c-0.043,0.076-0.105,0.282-0.139,0.458
					c-0.034,0.176-0.153,0.463-0.264,0.636l-0.203,0.316l-0.13-0.27c-0.139-0.29-0.371-0.591-0.454-0.591
					c-0.028,0-0.076,0.093-0.107,0.206c-0.064,0.237-0.612,0.893-0.746,0.893c-0.049,0-0.09-0.185-0.09-0.412
					s-0.044-0.412-0.097-0.412c-0.053,0-0.097,0.059-0.097,0.13c0,0.174-0.468,0.694-0.625,0.694c-0.069,0-0.179,0.062-0.245,0.137
					c-0.173,0.197-0.314,0.169-0.241-0.047c0.034-0.102,0.012-0.339-0.049-0.527c-0.061-0.188-0.126-0.388-0.144-0.445
					c-0.023-0.071-0.191-0.052-0.546,0.062c-0.574,0.184-0.766,0.151-0.471-0.08c0.108-0.085,0.272-0.377,0.365-0.651
					c0.093-0.273,0.229-0.516,0.304-0.539c0.104-0.032,0.099,0.008-0.024,0.174c-0.088,0.119-0.16,0.279-0.16,0.356
					c0,0.077-0.066,0.259-0.147,0.405c-0.08,0.146-0.131,0.28-0.112,0.298c0.019,0.018,0.237-0.065,0.485-0.184l0.451-0.216
					l0.002,0.194c0.001,0.106,0.055,0.387,0.121,0.624l0.119,0.431l0.307-0.141c0.314-0.144,0.611-0.659,0.611-1.058
					c0-0.197,0.113-0.167,0.159,0.043c0.014,0.062,0.084,0.292,0.158,0.513l0.133,0.401l0.21-0.253
					c0.116-0.139,0.261-0.413,0.322-0.607c0.107-0.338,0.275-0.483,0.275-0.238c0,0.177,0.483,0.811,0.576,0.757
					c0.045-0.026,0.135-0.264,0.199-0.529c0.134-0.55,0.351-0.925,0.488-0.844c0.052,0.03,0.072,0.089,0.045,0.131
					c-0.027,0.042,0.084,0.399,0.247,0.795c0.163,0.396,0.327,0.794,0.364,0.885c0.06,0.147,0.113,0.125,0.463-0.183
					c0.217-0.192,0.415-0.407,0.438-0.478c0.036-0.107,0.084-0.103,0.288,0.023c0.284,0.176,1.24,0.461,1.314,0.391
					c0.028-0.026,0.056-0.277,0.063-0.558l0.013-0.51l0.275,0.057c0.151,0.031,0.469,0.029,0.706-0.004l0.432-0.061l-0.385-0.264
					c-0.212-0.145-0.425-0.333-0.475-0.417c-0.053-0.09-0.241-0.166-0.455-0.184c-0.576-0.049-1.597-0.622-1.597-0.896
					c0-0.051,0.141,0.036,0.314,0.194c0.383,0.352,0.916,0.572,1.382,0.572h0.348l-0.215-0.286
					c-0.124-0.165-0.235-0.477-0.261-0.734c-0.042-0.409-0.085-0.474-0.512-0.772c-0.257-0.178-0.575-0.446-0.707-0.594l-0.24-0.27
					l-0.122,0.321c-0.067,0.176-0.15,0.321-0.183,0.321c-0.033,0-0.163-0.103-0.288-0.229c-0.125-0.126-0.252-0.229-0.283-0.228
					c-0.031,0.001-0.141,0.17-0.246,0.377l-0.19,0.376l-0.147-0.217c-0.081-0.119-0.272-0.33-0.424-0.469
					c-0.153-0.139-0.233-0.252-0.178-0.252c0.054,0,0.243,0.144,0.418,0.321l0.319,0.321l0.13-0.235
					c0.077-0.139,0.106-0.354,0.071-0.527c-0.051-0.252-0.044-0.267,0.053-0.109c0.062,0.101,0.248,0.294,0.415,0.429l0.303,0.246
					l0.209-0.383c0.208-0.382,0.21-0.382,0.305-0.154c0.127,0.305,1.044,1.057,1.825,1.496c0.12,0.068,0.07-0.165-0.153-0.701
					c-0.059-0.142-0.107-0.397-0.107-0.568c0-0.253-0.073-0.366-0.397-0.612c-0.467-0.356-0.619-0.609-0.707-1.183
					c-0.036-0.232-0.117-0.491-0.182-0.575c-0.095-0.124-0.111-0.055-0.086,0.377c0.017,0.291-0.021,0.652-0.084,0.804l-0.115,0.275
					l-0.089-0.229c-0.049-0.126-0.266-0.345-0.482-0.487c-0.216-0.142-0.368-0.282-0.337-0.311c0.031-0.029,0.253,0.1,0.494,0.287
					c0.367,0.285,0.448,0.316,0.499,0.19c0.06-0.147,0-0.789-0.115-1.237c-0.058-0.224-0.053-0.223,0.224,0.053
					c0.204,0.204,0.316,0.446,0.403,0.87c0.111,0.538,0.167,0.628,0.664,1.065c0.299,0.262,0.559,0.462,0.578,0.444
					c0.019-0.018,0.057-0.697,0.084-1.509c0.052-1.556-0.007-1.927-0.382-2.408l-0.193-0.247l0.303-0.327
					c0.395-0.426,0.576-0.768,0.655-1.233l0.064-0.379l-0.342,0.324c-0.28,0.265-0.413,0.324-0.737,0.324
					c-0.321,0-0.446-0.054-0.662-0.284c-0.259-0.276-0.719-0.542-1.161-0.672c-0.163-0.048-0.218-0.027-0.218,0.083
					c0,0.081-0.09,0.315-0.2,0.519l-0.2,0.372l-0.42-0.415c-0.258-0.255-0.563-0.453-0.791-0.513
					c-0.581-0.153-0.613-0.138-0.613,0.295c0,0.657-0.28,0.779-0.785,0.343c-0.385-0.333-0.704-0.405-1.433-0.325l-0.563,0.062
					l0.101,0.254c0.085,0.212,0.066,0.302-0.116,0.543c-0.294,0.391-0.677,0.561-1.266,0.561c-0.271,0-0.611,0.056-0.754,0.125
					c-0.144,0.069-0.5,0.148-0.793,0.176c-0.293,0.028-0.604,0.078-0.693,0.111c-0.139,0.052-0.154,0.009-0.109-0.306
					c0.068-0.482-0.269-0.838-0.794-0.838c-0.681,0-0.995,0.609-0.729,1.413c0.051,0.155,0.119,0.399,0.149,0.542
					c0.032,0.149,0.339,0.544,0.715,0.92c0.362,0.362,0.705,0.74,0.761,0.838c0.056,0.099,0.242,0.257,0.413,0.351l0.311,0.172
					L40.8,20.881c-0.045-0.365,0.035-0.423,0.229-0.165c0.069,0.092,0.246,0.241,0.392,0.331c0.23,0.142,0.266,0.145,0.266,0.022
					c0-0.078,0.047-0.258,0.104-0.4l0.104-0.258l0.181,0.351c0.1,0.193,0.424,0.631,0.72,0.974c0.575,0.666,0.925,1.409,0.744,1.581
					c-0.073,0.069-0.272,0.064-0.682-0.019c-0.318-0.064-0.712-0.098-0.875-0.075c-0.333,0.046-0.359,0.003-0.154-0.253
					c0.216-0.271,0.182-0.315-0.243-0.315c-0.491,0-1.71-0.235-2.178-0.421c-0.455-0.18-0.56-0.135-0.694,0.296
					c-0.06,0.194-0.171,0.546-0.245,0.782l-0.136,0.429l0.492-0.047c0.271-0.026,0.619-0.085,0.774-0.132
					c0.155-0.046,0.296-0.071,0.313-0.055c0.017,0.016-0.052,0.184-0.153,0.373l-0.185,0.343l0.307-0.063
					c0.169-0.034,0.423-0.119,0.564-0.187c0.246-0.119,0.266-0.111,0.461,0.201c0.239,0.384,0.43,0.368,0.473-0.039
					c0.044-0.421,0.182-0.358,0.443,0.199c0.25,0.536,0.511,0.725,0.561,0.408c0.017-0.105,0.151-0.277,0.3-0.382
					c0.3-0.211,0.526-0.148,0.655,0.184c0.134,0.343-0.165,0.697-1.035,1.224c-1.742,1.056-2.755,2.5-3.044,4.341
					c-0.261,1.66,0.554,3.376,2.187,4.609c0.782,0.59,2.024,1.212,1.945,0.975c-0.335-1.009-0.324-2.933,0.019-3.258
					c0.051-0.049,0.034,0.152-0.039,0.446c-0.272,1.096-0.154,1.969,0.544,4.015c0.631,1.851,0.544,2.642-0.349,3.165
					c-0.287,0.168-0.472,0.196-1.243,0.186c-0.837-0.01-0.928,0.007-1.197,0.221c-0.26,0.208-0.598,0.889-0.598,1.207
					C40.527,41.848,40.718,41.825,41.094,41.608L41.094,41.608z"/>
				<path style="fill:#FFB700;stroke:#000000;stroke-width:0.4152;" d="M54.68,41.57l0.351-0.226l0.238,0.226
					c0.312,0.296,0.678,0.289,0.978-0.018c0.131-0.134,0.249-0.227,0.261-0.206c0.013,0.02,0.071,0.12,0.13,0.22
					c0.074,0.128,0.227,0.192,0.502,0.211c0.332,0.023,0.421-0.009,0.553-0.199l0.157-0.227l0.346,0.222
					c0.946,0.608,1.45-0.03,1.027-1.3c-0.215-0.646-0.097-1.009,0.596-1.831c0.292-0.347,0.532-0.717,0.532-0.822
					c0-0.168-0.054-0.191-0.443-0.183c-0.372,0.007-0.481-0.033-0.677-0.248c-0.319-0.351-0.3-0.752,0.056-1.198l0.285-0.356
					l-0.505-0.343c-0.278-0.188-0.778-0.634-1.113-0.991c-0.751-0.801-1.489-1.18-2.463-1.266l-0.653-0.058l0.001,0.494
					c0.001,0.636,0.3,1.248,1.115,2.284c0.926,1.178,0.991,1.361,1.029,2.901l0.032,1.303l-0.268,0.254
					c-0.242,0.23-0.351,0.259-1.133,0.304c-0.744,0.043-0.901,0.081-1.119,0.275c-0.29,0.257-0.377,0.397-0.466,0.752
					c-0.052,0.207-0.031,0.252,0.118,0.252C54.247,41.796,54.487,41.695,54.68,41.57L54.68,41.57z"/>
				<path style="fill:#FFB700;stroke:#000000;stroke-width:0.4152;" d="M34.767,38.204c0.083-0.112,0.151-0.293,0.151-0.402
					c0-0.165,0.074-0.209,0.436-0.26l0.436-0.062l-0.29-0.231c-0.345-0.275-0.377-0.49-0.073-0.49c0.303,0,0.816-0.315,0.894-0.547
					c0.036-0.108,0.013-0.253-0.052-0.327c-0.17-0.194-0.489-0.165-0.548,0.05c-0.064,0.231-0.17,0.231-0.412,0.002
					c-0.364-0.345-0.372-1.058-0.017-1.474c0.167-0.196,0.166-0.209-0.048-0.411c-0.23-0.217-0.394-0.648-0.286-0.75
					c0.034-0.033,0.216-0.007,0.403,0.058c0.266,0.091,0.371,0.093,0.481,0.006c0.332-0.261-0.028-0.597-0.561-0.523
					c-0.214,0.03-0.303,0-0.334-0.111c-0.023-0.084-0.211-0.195-0.422-0.248c-0.378-0.095-0.38-0.094-0.38,0.166
					c0,0.285-0.163,0.339-0.472,0.156c-0.251-0.149-0.495-0.033-0.495,0.234c0,0.25,0.251,0.373,0.701,0.344
					c0.345-0.022,0.358,0.234,0.03,0.603l-0.236,0.265l0.187,0.268c0.277,0.397,0.253,1.057-0.049,1.385l-0.237,0.257l-0.155-0.206
					c-0.216-0.286-0.511-0.267-0.592,0.038c-0.053,0.2-0.009,0.292,0.241,0.504c0.168,0.143,0.414,0.259,0.547,0.259
					c0.327,0,0.314,0.257-0.026,0.517l-0.266,0.203l0.411,0.064c0.226,0.035,0.411,0.101,0.411,0.147
					c0,0.175,0.285,0.718,0.376,0.718C34.573,38.407,34.685,38.315,34.767,38.204L34.767,38.204z"/>
				<path style="fill:#FFB700;stroke:#000000;stroke-width:0.4152;" d="M40.119,35.884c0.373-0.147,1.182-0.832,1.182-1.001
					c0-0.053-0.223-0.299-0.496-0.545c-0.574-0.519-1.198-1.393-1.36-1.904c-0.084-0.267-0.492-0.723-1.639-1.836l-1.527-1.481
					l-0.44,0.111c-0.242,0.061-0.537,0.113-0.656,0.115c-0.205,0.003-0.201,0.015,0.071,0.226l0.287,0.222l0.403-0.224
					c0.391-0.217,0.405-0.218,0.453-0.044c0.028,0.102-0.033,0.279-0.141,0.409c-0.105,0.126-0.164,0.269-0.133,0.318
					c0.032,0.049-0.069,0.151-0.223,0.226c-0.287,0.14-0.486,0.603-0.259,0.603c0.204,0,0.653-0.554,0.601-0.741
					c-0.026-0.096-0.014-0.195,0.028-0.219c0.175-0.102,0.164,0.333-0.014,0.546c-0.105,0.126-0.164,0.269-0.133,0.318
					c0.032,0.049-0.069,0.151-0.224,0.226c-0.285,0.14-0.486,0.603-0.262,0.603c0.22,0,0.661-0.529,0.607-0.727
					c-0.029-0.104-0.018-0.209,0.025-0.233c0.118-0.069,0.181,0.274,0.082,0.443c-0.053,0.09-0.053,0.213,0.001,0.311
					c0.098,0.177-0.001,0.516-0.182,0.622c-0.077,0.045-0.025,0.134,0.162,0.275c0.271,0.205,0.276,0.226,0.276,1.13
					c0,0.755,0.03,0.95,0.169,1.082c0.156,0.148,0.169,0.148,0.169,0.007c0-0.155,0.271-0.343,0.493-0.343
					c0.065,0,0.474,0.347,0.909,0.77c0.437,0.426,0.894,0.789,1.024,0.812c0.129,0.023,0.268,0.047,0.31,0.054
					C39.725,36.02,39.921,35.962,40.119,35.884L40.119,35.884z"/>
				<path style="fill:#FFB700;stroke:#000000;stroke-width:0.4152;" d="M35.45,32.231c0-0.243-0.502-0.503-1.103-0.571
					c-0.485-0.054-0.493-0.051-0.493,0.191c0,0.201,0.076,0.279,0.411,0.425C34.803,32.51,35.45,32.485,35.45,32.231L35.45,32.231z"
					/>
				<path style="fill:#FFB700;stroke:#000000;stroke-width:0.4152;" d="M36,32.208c0.245-0.222,0.361-0.487,0.214-0.487
					c-0.169,0-0.619,0.404-0.619,0.556C35.595,32.515,35.678,32.5,36,32.208L36,32.208z"/>
				<path style="fill:#FFB700;stroke:#000000;stroke-width:0.4152;" d="M35.478,31.488c0.021-0.137-0.064-0.229-0.319-0.344
					c-0.549-0.248-1.206-0.363-1.364-0.239c-0.291,0.229-0.097,0.536,0.374,0.592c0.19,0.022,0.447,0.08,0.571,0.128
					C35.102,31.766,35.446,31.702,35.478,31.488z"/>
				<path style="fill:#FFB700;stroke:#000000;stroke-width:0.4152;" d="M35.478,30.753c0.03-0.196-0.096-0.266-1.119-0.626
					c-0.764-0.269-1.102-0.142-0.858,0.322c0.085,0.161,0.228,0.235,0.548,0.283c0.238,0.036,0.563,0.105,0.723,0.155
					C35.199,31.018,35.445,30.972,35.478,30.753L35.478,30.753z"/>
				<path style="fill:#FFB700;stroke:#000000;stroke-width:0.4152;" d="M35.991,30.063c0.154-0.156,0.281-0.341,0.281-0.41
					c0-0.225-0.61,0.173-0.687,0.448C35.491,30.431,35.642,30.417,35.991,30.063L35.991,30.063z"/>
				<path style="fill:#FFB700;stroke:#000000;stroke-width:0.4152;" d="M35.478,30.017c0.034-0.223-0.338-0.425-1.068-0.58
					c-0.536-0.114-0.772-0.049-0.732,0.2c0.022,0.136,0.2,0.235,0.706,0.393C35.195,30.283,35.439,30.28,35.478,30.017
					L35.478,30.017z"/>
				<path style="fill:#FFB700;stroke:#000000;stroke-width:0.4152;" d="M36.192,28.978c0.935-0.416,1.016-1.466,0.134-1.742
					c-0.366-0.114-0.6-0.053-0.74,0.195c-0.107,0.19-0.036,0.535,0.111,0.535c0.05,0,0.09,0.064,0.09,0.142
					c0,0.365-1.428,0.53-2.014,0.233c-0.206-0.104-0.295-0.375-0.124-0.375c0.128,0,0.216-0.276,0.151-0.471
					c-0.089-0.266-0.357-0.358-0.746-0.256c-0.877,0.229-0.852,1.26,0.041,1.697C33.828,29.295,35.432,29.316,36.192,28.978
					L36.192,28.978z"/>
				<path style="fill:#FFB700;stroke:#000000;stroke-width:0.4152;" d="M35.61,28.171c0.054-0.051,0.031-0.13-0.06-0.202
					c-0.199-0.156-0.188-0.389,0.03-0.655c0.164-0.2,0.184-0.499,0.241-3.516c0.097-5.199,0.484-9.109,0.993-10.047
					c0.203-0.373,0.174-0.375-0.35-0.018c-0.675,0.459-1.189,1.058-1.645,1.914c-0.86,1.617-1.159,3.792-1.159,8.436
					c0,2.637,0.018,2.982,0.168,3.23c0.143,0.235,0.15,0.322,0.05,0.574c-0.065,0.163-0.094,0.319-0.066,0.346
					C34.005,28.415,35.404,28.367,35.61,28.171L35.61,28.171z"/>
				<path style="fill:#FFB700;stroke:#000000;stroke-width:0.4152;" d="M43.469,23.213c0.029-0.045-0.035-0.272-0.144-0.504
					c-0.169-0.362-0.237-0.422-0.478-0.422c-0.754,0-1.967-0.337-3.218-0.894c-0.722-0.322-0.971-0.396-1.058-0.314
					c-0.221,0.209,0.146,0.706,0.715,0.967c0.504,0.232,1.914,0.516,2.558,0.516c0.373,0,0.382,0.017,0.17,0.324l-0.156,0.226
					l0.422,0.011c0.232,0.006,0.553,0.042,0.712,0.081C43.407,23.303,43.411,23.303,43.469,23.213L43.469,23.213z"/>
				<path style="stroke:#000000;stroke-width:0.4152;" d="M47.876,25.556c0-0.134-0.395-0.499-0.794-0.733
					c-0.314-0.184-0.366-0.19-0.367-0.04c-0.001,0.228-0.204,0.801-0.284,0.801c-0.045,0-0.111-0.112-0.148-0.249
					c-0.036-0.137-0.189-0.407-0.338-0.6l-0.272-0.351l-0.212,0.325c-0.198,0.303-0.54,0.6-0.692,0.6
					c-0.036,0-0.043-0.16-0.016-0.354c0.03-0.212,0.007-0.38-0.058-0.418c-0.059-0.035-0.108-0.023-0.108,0.027
					c0,0.114-0.476,0.654-0.576,0.654c-0.041,0-0.099-0.155-0.129-0.343c-0.029-0.189-0.08-0.488-0.111-0.664
					c-0.032-0.176,0.036-0.057,0.15,0.266l0.208,0.586l0.228-0.357c0.126-0.197,0.229-0.411,0.229-0.477
					c0-0.066,0.043-0.095,0.094-0.065c0.052,0.03,0.124,0.266,0.16,0.525l0.066,0.47l0.251-0.276c0.138-0.152,0.3-0.354,0.36-0.451
					c0.107-0.172,0.113-0.172,0.325,0.008c0.119,0.101,0.301,0.342,0.406,0.536c0.104,0.194,0.204,0.338,0.221,0.321
					c0.017-0.017,0.055-0.217,0.085-0.444c0.03-0.227,0.056-0.421,0.059-0.431c0.015-0.056,0.757,0.426,1.032,0.67
					c0.176,0.157,0.344,0.263,0.372,0.237c0.028-0.027,0.052-0.258,0.052-0.515c0-0.397-0.042-0.503-0.285-0.721
					c-0.279-0.25-0.287-0.251-0.39-0.068c-0.134,0.237-0.292,0.24-0.292,0.006c0-0.171-0.528-0.827-0.665-0.827
					c-0.036,0-0.147,0.144-0.247,0.321c-0.1,0.176-0.208,0.32-0.24,0.32c-0.135-0.001-0.879-0.83-0.879-0.98
					c0-0.119,0.05-0.089,0.181,0.11c0.099,0.151,0.297,0.377,0.44,0.501c0.289,0.252,0.394,0.191,0.506-0.295
					c0.032-0.139,0.087-0.252,0.123-0.252c0.124,0,0.771,0.688,0.862,0.916l0.091,0.229l0.069-0.252
					c0.085-0.308,0.178-0.319,0.313-0.038c0.056,0.117,0.335,0.361,0.62,0.542l0.517,0.329l0.104-0.331
					c0.057-0.182,0.133-0.287,0.168-0.232c0.053,0.081-0.082,0.629-0.183,0.747c-0.015,0.018-0.183-0.08-0.372-0.217l-0.345-0.249
					l-0.001,0.446c-0.001,0.245-0.028,0.539-0.06,0.652C48.043,25.692,47.876,25.754,47.876,25.556L47.876,25.556z"/>
				<path style="stroke:#000000;stroke-width:0.4152;" d="M45.298,22.001c-0.615-0.513-0.708-0.631-0.694-0.874l0.014-0.259
					l0.04,0.25c0.023,0.146,0.187,0.365,0.393,0.526l0.353,0.276l0.217-0.251c0.119-0.138,0.219-0.303,0.221-0.366
					c0.005-0.164,0.034-0.15,0.451,0.211c0.37,0.321,0.376,0.322,0.431,0.114c0.031-0.116,0.02-0.334-0.024-0.485
					c-0.121-0.414-0.097-0.477,0.086-0.227c0.091,0.125,0.238,0.301,0.326,0.391c0.153,0.158,0.163,0.156,0.22-0.046
					c0.033-0.116,0.06-0.328,0.061-0.471l0.001-0.261l0.333,0.378c0.311,0.353,0.34,0.366,0.435,0.198
					c0.056-0.099,0.102-0.337,0.103-0.53c0.001-0.248,0.027-0.311,0.09-0.216c0.105,0.158,0.032,0.588-0.162,0.954l-0.14,0.263
					l-0.184-0.286c-0.235-0.365-0.313-0.36-0.463,0.035c-0.142,0.373-0.235,0.401-0.373,0.114c-0.09-0.185-0.107-0.163-0.17,0.227
					l-0.071,0.433l-0.424-0.329l-0.424-0.329l-0.191,0.217c-0.105,0.119-0.192,0.268-0.194,0.331
					C45.555,22.127,45.453,22.131,45.298,22.001L45.298,22.001z"/>
				<path style="stroke:#000000;stroke-width:0.4152;" d="M50.766,20.089c-0.224-0.202-0.378-0.394-0.343-0.427
					c0.035-0.033,0.075-0.043,0.088-0.021s0.196,0.214,0.406,0.427C51.402,20.559,51.303,20.573,50.766,20.089L50.766,20.089z"/>
				<path style="stroke:#000000;stroke-width:0.4152;" d="M43.482,19.337c-0.204-0.275-0.189-0.458,0.058-0.756
					c0.179-0.216,0.261-0.245,0.573-0.205c0.201,0.025,0.632,0.203,0.959,0.394c0.378,0.221,0.768,0.369,1.071,0.405
					c0.262,0.032,0.476,0.044,0.476,0.027c0-0.017-0.109-0.194-0.242-0.394c-0.316-0.474-0.305-0.525,0.051-0.241
					c0.366,0.291,0.803,0.377,1.78,0.347l0.477-0.015l-0.277-0.274c-0.387-0.383-0.268-0.417,0.16-0.046
					c0.401,0.348,0.376,0.373-0.468,0.457c-0.359,0.036-0.745,0.01-1.066-0.072c-0.48-0.122-0.499-0.12-0.408,0.041
					c0.052,0.093,0.137,0.169,0.189,0.169c0.051,0,0.093,0.047,0.093,0.104c0,0.177-1.037,0.021-1.532-0.229
					c-1.132-0.573-1.274-0.623-1.543-0.538c-0.15,0.047-0.3,0.185-0.352,0.324c-0.172,0.462,0.483,0.821,0.753,0.413
					c0.078-0.118,0.06-0.199-0.078-0.343c-0.189-0.197-0.171-0.225,0.084-0.133c0.181,0.066,0.205,0.5,0.037,0.659
					C44.087,19.612,43.648,19.561,43.482,19.337L43.482,19.337z"/>
				<path style="stroke:#000000;stroke-width:0.4152;" d="M47.939,18.195c-0.141-0.134-0.031-0.167,0.604-0.179
					c0.785-0.015,1.261-0.145,1.824-0.5c0.451-0.284,0.573-0.228,0.145,0.066c-0.39,0.269-0.999,0.476-1.586,0.539
					c-0.284,0.031-0.609,0.073-0.72,0.094C48.093,18.237,47.974,18.228,47.939,18.195L47.939,18.195z"/>
			</g>
		</g>
		<g id="lion_1_">
			<path style="fill:#FFB700;" d="M41.094,41.608l0.326-0.188l0.139,0.188c0.186,0.251,0.699,0.248,1.04-0.006l0.261-0.194
				l0.218,0.194c0.287,0.255,0.822,0.256,1.164,0.001c0.239-0.178,0.273-0.182,0.431-0.046c0.094,0.081,0.371,0.173,0.615,0.205
				c0.439,0.057,0.446,0.054,0.703-0.332c0.215-0.323,0.249-0.454,0.198-0.767c-0.034-0.208-0.071-0.542-0.082-0.743
				c-0.02-0.364-0.017-0.366,0.512-0.55c0.293-0.102,0.631-0.238,0.753-0.304c0.212-0.114,0.795-0.799,0.795-0.934
				c0-0.036-0.228-0.091-0.506-0.122c-1.108-0.124-1.295-0.719-0.575-1.824c1.174-1.802,1.883-3.557,1.888-4.675
				c0.002-0.5,0.031-0.667,0.095-0.559c0.262,0.444-0.208,2.306-0.92,3.643l-0.287,0.538l0.274-0.063
				c0.15-0.035,1.035-0.408,1.966-0.83c2.548-1.154,3.423-1.38,5.072-1.311c1.381,0.058,1.97,0.328,2.945,1.351
				c0.517,0.542,1.014,0.93,1.925,1.5c1.94,1.214,2.021,1.319,2.113,2.747c0.093,1.447,0.047,1.525-1.047,1.767
				c-0.935,0.207-1.522,0.643-1.679,1.248c-0.084,0.324,0.093,0.333,0.564,0.03l0.346-0.222l0.154,0.222
				c0.202,0.292,0.631,0.293,0.988,0.003l0.269-0.219l0.275,0.219c0.428,0.341,0.997,0.258,1.157-0.168
				c0.031-0.082,0.113-0.056,0.28,0.089c0.313,0.272,1.114,0.388,1.2,0.175c0.033-0.081-0.03-0.283-0.139-0.447
				c-0.466-0.699-0.612-1.032-0.618-1.413c-0.008-0.529,0.149-0.785,0.751-1.215c0.731-0.523,0.957-1.197,0.401-1.197
				c-0.343,0-0.689-0.303-0.91-0.798c-0.449-1.005-0.361-2.132,0.313-4.007c0.684-1.904,0.76-2.256,0.763-3.529
				c0.002-1.03-0.024-1.208-0.258-1.773c-0.143-0.345-0.434-0.859-0.646-1.142l-0.385-0.515l0.495-0.41
				c1.511-1.252,1.202-3.301-0.617-4.09c-0.557-0.242-0.696-0.263-1.671-0.256c-0.585,0.004-1.477,0.081-1.983,0.171
				c-0.515,0.092-1.387,0.166-1.985,0.168c-0.95,0.004-1.112-0.02-1.478-0.215c-0.382-0.203-0.447-0.3-0.522-0.77
				c-0.015-0.097-0.083-0.193-0.15-0.214c-0.13-0.041-0.73,0.48-0.818,0.71c-0.044,0.114-0.079,0.106-0.208-0.046
				c-0.085-0.101-0.204-0.332-0.264-0.514c-0.151-0.458,0.035-0.802,0.573-1.059l0.418-0.2l-0.246-0.153
				c-0.508-0.316-1.373-0.1-1.686,0.421c-0.088,0.147-0.185,0.268-0.214,0.268c-0.029,0-0.198-0.14-0.374-0.312
				c-0.656-0.641-0.431-1.591,0.447-1.88c0.468-0.155,0.883-0.037,0.969,0.276c0.132,0.477,0.541-0.15,0.467-0.716
				c-0.049-0.376-0.041-0.389,0.219-0.389c0.362,0,1.133,0.475,1.371,0.845c0.277,0.43,0.257,1.107-0.048,1.612L56.39,19.28
				l0.313-0.063c0.459-0.092,0.905-0.377,1.13-0.722c0.238-0.365,0.264-1.077,0.053-1.46c-0.205-0.372-0.181-0.431,0.121-0.305
				c0.515,0.214,0.79,0.45,0.997,0.854c0.186,0.364,0.196,0.454,0.096,0.833c-0.062,0.234-0.2,0.541-0.307,0.683
				c-0.166,0.221-0.172,0.258-0.039,0.258c0.247,0,0.762-0.234,0.945-0.428c0.092-0.098,0.227-0.341,0.3-0.539l0.131-0.36
				l0.151,0.274c0.214,0.388,0.629,0.737,1.135,0.954c0.545,0.233,0.771,0.247,0.487,0.028c-0.192-0.147-0.546-1.186-0.439-1.287
				c0.063-0.06,0.803,0.509,1.647,1.267c0.799,0.717,1.301,0.952,2.034,0.952c0.937,0,1.483-0.816,1.062-1.587
				c-0.246-0.45-0.793-0.512-1.112-0.127c-0.147,0.177-0.187,0.318-0.144,0.504c0.053,0.228,0.032,0.258-0.175,0.258
				c-0.272,0-0.809-0.349-1.763-1.144c-1.454-1.213-3.221-2.242-4.497-2.618c-0.819-0.241-2.568-0.335-3.4-0.183
				c-0.901,0.165-1.966,0.68-2.547,1.232c-1.029,0.978-1.045,2.279-0.043,3.464l0.287,0.339l-0.194,0.302
				c-0.283,0.439-0.258,1.03,0.06,1.465c0.14,0.192,0.282,0.348,0.314,0.348c0.033,0,0.068-0.123,0.08-0.274
				c0.028-0.381,0.191-0.636,0.472-0.737c0.253-0.091,0.416-0.048,1.572,0.414c1.217,0.486,3.217,0.519,5.344,0.089
				c1.043-0.211,2.273-0.198,2.814,0.028c0.992,0.415,1.222,1.496,0.493,2.317c-0.316,0.355-0.62,0.5-1.642,0.78
				c-0.778,0.213-0.962,0.228-2.729,0.21c-1.51-0.015-2.053,0.014-2.669,0.143c-0.669,0.14-1.081,0.154-3.046,0.104l-2.273-0.057
				l0.252,0.209c0.139,0.115,0.334,0.256,0.435,0.314c0.171,0.098,0.166,0.112-0.089,0.206c-0.15,0.056-0.482,0.101-0.739,0.101
				H50.8l-0.063,0.396c-0.035,0.218-0.032,0.472,0.006,0.565c0.056,0.137,0.035,0.157-0.11,0.104
				c-0.098-0.036-0.371-0.106-0.607-0.156c-0.236-0.05-0.553-0.152-0.705-0.226c-0.256-0.125-0.284-0.122-0.378,0.045
				c-0.084,0.149-0.874,0.737-0.99,0.737c-0.019,0-0.043-0.113-0.054-0.252s-0.125-0.499-0.253-0.801
				c-0.128-0.302-0.263-0.632-0.298-0.733c-0.054-0.152-0.078-0.16-0.142-0.046c-0.043,0.076-0.105,0.282-0.139,0.458
				c-0.034,0.176-0.153,0.463-0.264,0.636l-0.203,0.316l-0.13-0.27c-0.139-0.29-0.371-0.591-0.454-0.591
				c-0.028,0-0.076,0.093-0.107,0.206c-0.064,0.237-0.612,0.893-0.746,0.893c-0.049,0-0.09-0.185-0.09-0.412
				s-0.044-0.412-0.097-0.412c-0.053,0-0.097,0.059-0.097,0.13c0,0.174-0.468,0.694-0.625,0.694c-0.069,0-0.179,0.062-0.245,0.137
				c-0.173,0.197-0.314,0.169-0.241-0.047c0.034-0.102,0.012-0.339-0.049-0.527c-0.061-0.188-0.126-0.388-0.144-0.445
				c-0.023-0.071-0.191-0.052-0.546,0.062c-0.574,0.184-0.766,0.151-0.471-0.08c0.108-0.085,0.272-0.377,0.365-0.651
				c0.093-0.273,0.229-0.516,0.304-0.539c0.104-0.032,0.099,0.008-0.024,0.174c-0.088,0.119-0.16,0.279-0.16,0.356
				c0,0.077-0.066,0.259-0.147,0.405c-0.08,0.146-0.131,0.28-0.112,0.298c0.019,0.018,0.237-0.065,0.485-0.184l0.451-0.216
				l0.002,0.194c0.001,0.106,0.055,0.387,0.121,0.624l0.119,0.431l0.307-0.141c0.314-0.144,0.611-0.659,0.611-1.058
				c0-0.197,0.113-0.167,0.159,0.043c0.014,0.062,0.084,0.292,0.158,0.513l0.133,0.401l0.21-0.253
				c0.116-0.139,0.261-0.413,0.322-0.607c0.107-0.338,0.275-0.483,0.275-0.238c0,0.177,0.483,0.811,0.576,0.757
				c0.045-0.026,0.135-0.264,0.199-0.529c0.134-0.55,0.351-0.925,0.488-0.844c0.052,0.03,0.072,0.089,0.045,0.131
				c-0.027,0.042,0.084,0.399,0.247,0.795c0.163,0.396,0.327,0.794,0.364,0.885c0.06,0.147,0.113,0.125,0.463-0.183
				c0.217-0.192,0.415-0.407,0.438-0.478c0.036-0.107,0.084-0.103,0.288,0.023c0.284,0.176,1.24,0.461,1.314,0.391
				c0.028-0.026,0.056-0.277,0.063-0.558l0.013-0.51l0.275,0.057c0.151,0.031,0.469,0.029,0.706-0.004l0.432-0.061l-0.385-0.264
				c-0.212-0.145-0.425-0.333-0.475-0.417c-0.053-0.09-0.241-0.166-0.455-0.184c-0.576-0.049-1.597-0.622-1.597-0.896
				c0-0.051,0.141,0.036,0.314,0.194c0.383,0.352,0.916,0.572,1.382,0.572h0.348l-0.215-0.286c-0.124-0.165-0.235-0.477-0.261-0.734
				c-0.042-0.409-0.085-0.474-0.512-0.772c-0.257-0.178-0.575-0.446-0.707-0.594l-0.24-0.27l-0.122,0.321
				c-0.067,0.176-0.15,0.321-0.183,0.321c-0.033,0-0.163-0.103-0.288-0.229c-0.125-0.126-0.252-0.229-0.283-0.228
				c-0.031,0.001-0.141,0.17-0.246,0.377l-0.19,0.376l-0.147-0.217c-0.081-0.119-0.272-0.33-0.424-0.469
				c-0.153-0.139-0.233-0.252-0.178-0.252c0.054,0,0.243,0.144,0.418,0.321l0.319,0.321l0.13-0.235
				c0.077-0.139,0.106-0.354,0.071-0.527c-0.051-0.252-0.044-0.267,0.053-0.109c0.062,0.101,0.248,0.294,0.415,0.429l0.303,0.246
				l0.209-0.383c0.208-0.382,0.21-0.382,0.305-0.154c0.127,0.305,1.044,1.057,1.825,1.496c0.12,0.068,0.07-0.165-0.153-0.701
				c-0.059-0.142-0.107-0.397-0.107-0.568c0-0.253-0.073-0.366-0.397-0.612c-0.467-0.356-0.619-0.609-0.707-1.183
				c-0.036-0.232-0.117-0.491-0.182-0.575c-0.095-0.124-0.111-0.055-0.086,0.377c0.017,0.291-0.021,0.652-0.084,0.804l-0.115,0.275
				l-0.089-0.229c-0.049-0.126-0.266-0.345-0.482-0.487c-0.216-0.142-0.368-0.282-0.337-0.311c0.031-0.029,0.253,0.1,0.494,0.287
				c0.367,0.285,0.448,0.316,0.499,0.19c0.06-0.147,0-0.789-0.115-1.237c-0.058-0.224-0.053-0.223,0.224,0.053
				c0.204,0.204,0.316,0.446,0.403,0.87c0.111,0.538,0.167,0.628,0.664,1.065c0.299,0.262,0.559,0.462,0.578,0.444
				c0.019-0.018,0.057-0.697,0.084-1.509c0.052-1.556-0.007-1.927-0.382-2.408l-0.193-0.247l0.303-0.327
				c0.395-0.426,0.576-0.768,0.655-1.233l0.064-0.379l-0.342,0.324c-0.28,0.265-0.413,0.324-0.737,0.324
				c-0.321,0-0.446-0.054-0.662-0.284c-0.259-0.276-0.719-0.542-1.161-0.672c-0.163-0.048-0.218-0.027-0.218,0.083
				c0,0.081-0.09,0.315-0.2,0.519l-0.2,0.372l-0.42-0.415c-0.258-0.255-0.563-0.453-0.791-0.513
				c-0.581-0.153-0.613-0.138-0.613,0.295c0,0.657-0.28,0.779-0.785,0.343c-0.385-0.333-0.704-0.405-1.433-0.325l-0.563,0.062
				l0.101,0.254c0.085,0.212,0.066,0.302-0.116,0.543c-0.294,0.391-0.677,0.561-1.266,0.561c-0.271,0-0.611,0.056-0.754,0.125
				c-0.144,0.069-0.5,0.148-0.793,0.176c-0.293,0.028-0.604,0.078-0.693,0.111c-0.139,0.052-0.154,0.009-0.109-0.306
				c0.068-0.482-0.269-0.838-0.794-0.838c-0.681,0-0.995,0.609-0.729,1.413c0.051,0.155,0.119,0.399,0.149,0.542
				c0.032,0.149,0.339,0.544,0.715,0.92c0.362,0.362,0.705,0.74,0.761,0.838c0.056,0.099,0.242,0.257,0.413,0.351l0.311,0.172
				L40.8,20.881c-0.045-0.365,0.035-0.423,0.229-0.165c0.069,0.092,0.246,0.241,0.392,0.331c0.23,0.142,0.266,0.145,0.266,0.022
				c0-0.078,0.047-0.258,0.104-0.4l0.104-0.258l0.181,0.351c0.1,0.193,0.424,0.631,0.72,0.974c0.575,0.666,0.925,1.409,0.744,1.581
				c-0.073,0.069-0.272,0.064-0.682-0.019c-0.318-0.064-0.712-0.098-0.875-0.075c-0.333,0.046-0.359,0.003-0.154-0.253
				c0.216-0.271,0.182-0.315-0.243-0.315c-0.491,0-1.71-0.235-2.178-0.421c-0.455-0.18-0.56-0.135-0.694,0.296
				c-0.06,0.194-0.171,0.546-0.245,0.782l-0.136,0.429l0.492-0.047c0.271-0.026,0.619-0.085,0.774-0.132
				c0.155-0.046,0.296-0.071,0.313-0.055c0.017,0.016-0.052,0.184-0.153,0.373l-0.185,0.343l0.307-0.063
				c0.169-0.034,0.423-0.119,0.564-0.187c0.246-0.119,0.266-0.111,0.461,0.201c0.239,0.384,0.43,0.368,0.473-0.039
				c0.044-0.421,0.182-0.358,0.443,0.199c0.25,0.536,0.511,0.725,0.561,0.408c0.017-0.105,0.151-0.277,0.3-0.382
				c0.3-0.211,0.526-0.148,0.655,0.184c0.134,0.343-0.165,0.697-1.035,1.224c-1.742,1.056-2.755,2.5-3.044,4.341
				c-0.261,1.66,0.554,3.376,2.187,4.609c0.782,0.59,2.024,1.212,1.945,0.975c-0.335-1.009-0.324-2.933,0.019-3.258
				c0.051-0.049,0.034,0.152-0.039,0.446c-0.272,1.096-0.154,1.969,0.544,4.015c0.631,1.851,0.544,2.642-0.349,3.165
				c-0.287,0.168-0.472,0.196-1.243,0.186c-0.837-0.01-0.928,0.007-1.197,0.221c-0.26,0.208-0.598,0.889-0.598,1.207
				C40.527,41.848,40.718,41.825,41.094,41.608L41.094,41.608z"/>
			<path style="fill:#FFB700;" d="M54.68,41.57l0.351-0.226l0.238,0.226c0.312,0.296,0.678,0.289,0.978-0.018
				c0.131-0.134,0.249-0.227,0.261-0.206c0.013,0.02,0.071,0.12,0.13,0.22c0.074,0.128,0.227,0.192,0.502,0.211
				c0.332,0.023,0.421-0.009,0.553-0.199l0.157-0.227l0.346,0.222c0.946,0.608,1.45-0.03,1.027-1.3
				c-0.215-0.646-0.097-1.009,0.596-1.831c0.292-0.347,0.532-0.717,0.532-0.822c0-0.168-0.054-0.191-0.443-0.183
				c-0.372,0.007-0.481-0.033-0.677-0.248c-0.319-0.351-0.3-0.752,0.056-1.198l0.285-0.356l-0.505-0.343
				c-0.278-0.188-0.778-0.634-1.113-0.991c-0.751-0.801-1.489-1.18-2.463-1.266l-0.653-0.058l0.001,0.494
				c0.001,0.636,0.3,1.248,1.115,2.284c0.926,1.178,0.991,1.361,1.029,2.901l0.032,1.303l-0.268,0.254
				c-0.242,0.23-0.351,0.259-1.133,0.304c-0.744,0.043-0.901,0.081-1.119,0.275c-0.29,0.257-0.377,0.397-0.466,0.752
				c-0.052,0.207-0.031,0.252,0.118,0.252C54.247,41.796,54.487,41.695,54.68,41.57L54.68,41.57z"/>
			<path style="fill:#FFB700;" d="M34.767,38.204c0.083-0.112,0.151-0.293,0.151-0.402c0-0.165,0.074-0.209,0.436-0.26l0.436-0.062
				l-0.29-0.231c-0.345-0.275-0.377-0.49-0.073-0.49c0.303,0,0.816-0.315,0.894-0.547c0.036-0.108,0.013-0.253-0.052-0.327
				c-0.17-0.194-0.489-0.165-0.548,0.05c-0.064,0.231-0.17,0.231-0.412,0.002c-0.364-0.345-0.372-1.058-0.017-1.474
				c0.167-0.196,0.166-0.209-0.048-0.411c-0.23-0.217-0.394-0.648-0.286-0.75c0.034-0.033,0.216-0.007,0.403,0.058
				c0.266,0.091,0.371,0.093,0.481,0.006c0.332-0.261-0.028-0.597-0.561-0.523c-0.214,0.03-0.303,0-0.334-0.111
				c-0.023-0.084-0.211-0.195-0.422-0.248c-0.378-0.095-0.38-0.094-0.38,0.166c0,0.285-0.163,0.339-0.472,0.156
				c-0.251-0.149-0.495-0.033-0.495,0.234c0,0.25,0.251,0.373,0.701,0.344c0.345-0.022,0.358,0.234,0.03,0.603l-0.236,0.265
				l0.187,0.268c0.277,0.397,0.253,1.057-0.049,1.385l-0.237,0.257l-0.155-0.206c-0.216-0.286-0.511-0.267-0.592,0.038
				c-0.053,0.2-0.009,0.292,0.241,0.504c0.168,0.143,0.414,0.259,0.547,0.259c0.327,0,0.314,0.257-0.026,0.517l-0.266,0.203
				l0.411,0.064c0.226,0.035,0.411,0.101,0.411,0.147c0,0.175,0.285,0.718,0.376,0.718C34.573,38.407,34.685,38.315,34.767,38.204
				L34.767,38.204z"/>
			<path style="fill:#FFB700;" d="M40.119,35.884c0.373-0.147,1.182-0.832,1.182-1.001c0-0.053-0.223-0.299-0.496-0.545
				c-0.574-0.519-1.198-1.393-1.36-1.904c-0.084-0.267-0.492-0.723-1.639-1.836l-1.527-1.481l-0.44,0.111
				c-0.242,0.061-0.537,0.113-0.656,0.115c-0.205,0.003-0.201,0.015,0.071,0.226l0.287,0.222l0.403-0.224
				c0.391-0.217,0.405-0.218,0.453-0.044c0.028,0.102-0.033,0.279-0.141,0.409c-0.105,0.126-0.164,0.269-0.133,0.318
				c0.032,0.049-0.069,0.151-0.223,0.226c-0.287,0.14-0.486,0.603-0.259,0.603c0.204,0,0.653-0.554,0.601-0.741
				c-0.026-0.096-0.014-0.195,0.028-0.219c0.175-0.102,0.164,0.333-0.014,0.546c-0.105,0.126-0.164,0.269-0.133,0.318
				c0.032,0.049-0.069,0.151-0.224,0.226c-0.285,0.14-0.486,0.603-0.262,0.603c0.22,0,0.661-0.529,0.607-0.727
				c-0.029-0.104-0.018-0.209,0.025-0.233c0.118-0.069,0.181,0.274,0.082,0.443c-0.053,0.09-0.053,0.213,0.001,0.311
				c0.098,0.177-0.001,0.516-0.182,0.622c-0.077,0.045-0.025,0.134,0.162,0.275c0.271,0.205,0.276,0.226,0.276,1.13
				c0,0.755,0.03,0.95,0.169,1.082c0.156,0.148,0.169,0.148,0.169,0.007c0-0.155,0.271-0.343,0.493-0.343
				c0.065,0,0.474,0.347,0.909,0.77c0.437,0.426,0.894,0.789,1.024,0.812c0.129,0.023,0.268,0.047,0.31,0.054
				C39.725,36.02,39.921,35.962,40.119,35.884L40.119,35.884z"/>
			<path style="fill:#FFB700;" d="M35.45,32.231c0-0.243-0.502-0.503-1.103-0.571c-0.485-0.054-0.493-0.051-0.493,0.191
				c0,0.201,0.076,0.279,0.411,0.425C34.803,32.51,35.45,32.485,35.45,32.231L35.45,32.231z"/>
			<path style="fill:#FFB700;" d="M36,32.208c0.245-0.222,0.361-0.487,0.214-0.487c-0.169,0-0.619,0.404-0.619,0.556
				C35.595,32.515,35.678,32.5,36,32.208L36,32.208z"/>
			<path style="fill:#FFB700;" d="M35.478,31.488c0.021-0.137-0.064-0.229-0.319-0.344c-0.549-0.248-1.206-0.363-1.364-0.239
				c-0.291,0.229-0.097,0.536,0.374,0.592c0.19,0.022,0.447,0.08,0.571,0.128C35.102,31.766,35.446,31.702,35.478,31.488z"/>
			<path style="fill:#FFB700;" d="M35.478,30.753c0.03-0.196-0.096-0.266-1.119-0.626c-0.764-0.269-1.102-0.142-0.858,0.322
				c0.085,0.161,0.228,0.235,0.548,0.283c0.238,0.036,0.563,0.105,0.723,0.155C35.199,31.018,35.445,30.972,35.478,30.753
				L35.478,30.753z"/>
			<path style="fill:#FFB700;" d="M35.991,30.063c0.154-0.156,0.281-0.341,0.281-0.41c0-0.225-0.61,0.173-0.687,0.448
				C35.491,30.431,35.642,30.417,35.991,30.063L35.991,30.063z"/>
			<path style="fill:#FFB700;" d="M35.478,30.017c0.034-0.223-0.338-0.425-1.068-0.58c-0.536-0.114-0.772-0.049-0.732,0.2
				c0.022,0.136,0.2,0.235,0.706,0.393C35.195,30.283,35.439,30.28,35.478,30.017L35.478,30.017z"/>
			<path style="fill:#FFB700;" d="M36.192,28.978c0.935-0.416,1.016-1.466,0.134-1.742c-0.366-0.114-0.6-0.053-0.74,0.195
				c-0.107,0.19-0.036,0.535,0.111,0.535c0.05,0,0.09,0.064,0.09,0.142c0,0.365-1.428,0.53-2.014,0.233
				c-0.206-0.104-0.295-0.375-0.124-0.375c0.128,0,0.216-0.276,0.151-0.471c-0.089-0.266-0.357-0.358-0.746-0.256
				c-0.877,0.229-0.852,1.26,0.041,1.697C33.828,29.295,35.432,29.316,36.192,28.978L36.192,28.978z"/>
			<path style="fill:#FFB700;" d="M35.61,28.171c0.054-0.051,0.031-0.13-0.06-0.202c-0.199-0.156-0.188-0.389,0.03-0.655
				c0.164-0.2,0.184-0.499,0.241-3.516c0.097-5.199,0.484-9.109,0.993-10.047c0.203-0.373,0.174-0.375-0.35-0.018
				c-0.675,0.459-1.189,1.058-1.645,1.914c-0.86,1.617-1.159,3.792-1.159,8.436c0,2.637,0.018,2.982,0.168,3.23
				c0.143,0.235,0.15,0.322,0.05,0.574c-0.065,0.163-0.094,0.319-0.066,0.346C34.005,28.415,35.404,28.367,35.61,28.171
				L35.61,28.171z"/>
			<path style="fill:#FFB700;" d="M43.469,23.213c0.029-0.045-0.035-0.272-0.144-0.504c-0.169-0.362-0.237-0.422-0.478-0.422
				c-0.754,0-1.967-0.337-3.218-0.894c-0.722-0.322-0.971-0.396-1.058-0.314c-0.221,0.209,0.146,0.706,0.715,0.967
				c0.504,0.232,1.914,0.516,2.558,0.516c0.373,0,0.382,0.017,0.17,0.324l-0.156,0.226l0.422,0.011
				c0.232,0.006,0.553,0.042,0.712,0.081C43.407,23.303,43.411,23.303,43.469,23.213L43.469,23.213z"/>
			<path d="M47.876,25.556c0-0.134-0.395-0.499-0.794-0.733c-0.314-0.184-0.366-0.19-0.367-0.04
				c-0.001,0.228-0.204,0.801-0.284,0.801c-0.045,0-0.111-0.112-0.148-0.249c-0.036-0.137-0.189-0.407-0.338-0.6l-0.272-0.351
				l-0.212,0.325c-0.198,0.303-0.54,0.6-0.692,0.6c-0.036,0-0.043-0.16-0.016-0.354c0.03-0.212,0.007-0.38-0.058-0.418
				c-0.059-0.035-0.108-0.023-0.108,0.027c0,0.114-0.476,0.654-0.576,0.654c-0.041,0-0.099-0.155-0.129-0.343
				c-0.029-0.189-0.08-0.488-0.111-0.664c-0.032-0.176,0.036-0.057,0.15,0.266l0.208,0.586l0.228-0.357
				c0.126-0.197,0.229-0.411,0.229-0.477c0-0.066,0.043-0.095,0.094-0.065c0.052,0.03,0.124,0.266,0.16,0.525l0.066,0.47
				l0.251-0.276c0.138-0.152,0.3-0.354,0.36-0.451c0.107-0.172,0.113-0.172,0.325,0.008c0.119,0.101,0.301,0.342,0.406,0.536
				c0.104,0.194,0.204,0.338,0.221,0.321c0.017-0.017,0.055-0.217,0.085-0.444c0.03-0.227,0.056-0.421,0.059-0.431
				c0.015-0.056,0.757,0.426,1.032,0.67c0.176,0.157,0.344,0.263,0.372,0.237c0.028-0.027,0.052-0.258,0.052-0.515
				c0-0.397-0.042-0.503-0.285-0.721c-0.279-0.25-0.287-0.251-0.39-0.068c-0.134,0.237-0.292,0.24-0.292,0.006
				c0-0.171-0.528-0.827-0.665-0.827c-0.036,0-0.147,0.144-0.247,0.321c-0.1,0.176-0.208,0.32-0.24,0.32
				c-0.135-0.001-0.879-0.83-0.879-0.98c0-0.119,0.05-0.089,0.181,0.11c0.099,0.151,0.297,0.377,0.44,0.501
				c0.289,0.252,0.394,0.191,0.506-0.295c0.032-0.139,0.087-0.252,0.123-0.252c0.124,0,0.771,0.688,0.862,0.916l0.091,0.229
				l0.069-0.252c0.085-0.308,0.178-0.319,0.313-0.038c0.056,0.117,0.335,0.361,0.62,0.542l0.517,0.329l0.104-0.331
				c0.057-0.182,0.133-0.287,0.168-0.232c0.053,0.081-0.082,0.629-0.183,0.747c-0.015,0.018-0.183-0.08-0.372-0.217l-0.345-0.249
				l-0.001,0.446c-0.001,0.245-0.028,0.539-0.06,0.652C48.043,25.692,47.876,25.754,47.876,25.556L47.876,25.556z"/>
			<path d="M45.298,22.001c-0.615-0.513-0.708-0.631-0.694-0.874l0.014-0.259l0.04,0.25c0.023,0.146,0.187,0.365,0.393,0.526
				l0.353,0.276l0.217-0.251c0.119-0.138,0.219-0.303,0.221-0.366c0.005-0.164,0.034-0.15,0.451,0.211
				c0.37,0.321,0.376,0.322,0.431,0.114c0.031-0.116,0.02-0.334-0.024-0.485c-0.121-0.414-0.097-0.477,0.086-0.227
				c0.091,0.125,0.238,0.301,0.326,0.391c0.153,0.158,0.163,0.156,0.22-0.046c0.033-0.116,0.06-0.328,0.061-0.471l0.001-0.261
				l0.333,0.378c0.311,0.353,0.34,0.366,0.435,0.198c0.056-0.099,0.102-0.337,0.103-0.53c0.001-0.248,0.027-0.311,0.09-0.216
				c0.105,0.158,0.032,0.588-0.162,0.954l-0.14,0.263l-0.184-0.286c-0.235-0.365-0.313-0.36-0.463,0.035
				c-0.142,0.373-0.235,0.401-0.373,0.114c-0.09-0.185-0.107-0.163-0.17,0.227l-0.071,0.433l-0.424-0.329l-0.424-0.329l-0.191,0.217
				c-0.105,0.119-0.192,0.268-0.194,0.331C45.555,22.127,45.453,22.131,45.298,22.001L45.298,22.001z"/>
			<path d="M50.766,20.089c-0.224-0.202-0.378-0.394-0.343-0.427c0.035-0.033,0.075-0.043,0.088-0.021s0.196,0.214,0.406,0.427
				C51.402,20.559,51.303,20.573,50.766,20.089L50.766,20.089z"/>
			<path d="M43.482,19.337c-0.204-0.275-0.189-0.458,0.058-0.756c0.179-0.216,0.261-0.245,0.573-0.205
				c0.201,0.025,0.632,0.203,0.959,0.394c0.378,0.221,0.768,0.369,1.071,0.405c0.262,0.032,0.476,0.044,0.476,0.027
				c0-0.017-0.109-0.194-0.242-0.394c-0.316-0.474-0.305-0.525,0.051-0.241c0.366,0.291,0.803,0.377,1.78,0.347l0.477-0.015
				l-0.277-0.274c-0.387-0.383-0.268-0.417,0.16-0.046c0.401,0.348,0.376,0.373-0.468,0.457c-0.359,0.036-0.745,0.01-1.066-0.072
				c-0.48-0.122-0.499-0.12-0.408,0.041c0.052,0.093,0.137,0.169,0.189,0.169c0.051,0,0.093,0.047,0.093,0.104
				c0,0.177-1.037,0.021-1.532-0.229c-1.132-0.573-1.274-0.623-1.543-0.538c-0.15,0.047-0.3,0.185-0.352,0.324
				c-0.172,0.462,0.483,0.821,0.753,0.413c0.078-0.118,0.06-0.199-0.078-0.343c-0.189-0.197-0.171-0.225,0.084-0.133
				c0.181,0.066,0.205,0.5,0.037,0.659C44.087,19.612,43.648,19.561,43.482,19.337L43.482,19.337z"/>
			<path d="M47.939,18.195c-0.141-0.134-0.031-0.167,0.604-0.179c0.785-0.015,1.261-0.145,1.824-0.5
				c0.451-0.284,0.573-0.228,0.145,0.066c-0.39,0.269-0.999,0.476-1.586,0.539c-0.284,0.031-0.609,0.073-0.72,0.094
				C48.093,18.237,47.974,18.228,47.939,18.195L47.939,18.195z"/>
		</g>
	</g>
</g>
</svg>
