<?xml version="1.0" encoding="iso-8859-1"?>
<!-- Generator: Adobe Illustrator 18.1.1, SVG Export Plug-In . SVG Version: 6.00 Build 0)  -->
<svg version="1.1" id="Layer_162" xmlns="http://www.w3.org/2000/svg" xmlns:xlink="http://www.w3.org/1999/xlink" x="0px" y="0px"
	 viewBox="0 0 56.692 56.692" style="enable-background:new 0 0 56.692 56.692;" xml:space="preserve">
<g>
	<defs>
		<circle id="SVGID_1_" cx="28.346" cy="28.347" r="28.346"/>
	</defs>
	<clipPath id="SVGID_2_">
		<use xlink:href="#SVGID_1_"  style="overflow:visible;"/>
	</clipPath>
	<rect x="-14.174" y="0" style="clip-path:url(#SVGID_2_);fill:#00209F;" width="85.04" height="17.088"/>
	<rect x="-14.174" y="39.605" style="clip-path:url(#SVGID_2_);fill:#009543;" width="85.04" height="17.088"/>
	<rect x="-14.174" y="17.087" style="clip-path:url(#SVGID_2_);fill:#FFFFFF;" width="85.04" height="22.518"/>
	<g style="clip-path:url(#SVGID_2_);">
		<path d="M35.856,33.122c-0.197,0.113-0.4,0.216-0.601,0.319l-4.539-5.938c1.594-3.287,2.322-8.569-1.707-9.082
			c-0.133-0.234-0.375-0.4-0.664-0.4c-0.289,0-0.531,0.166-0.662,0.4c-4.029,0.513-3.301,5.795-1.709,9.082l-4.537,5.938
			c-0.203-0.104-0.404-0.206-0.603-0.319c-0.607,1.067-1.217,2.136-1.824,3.201c5.787,3.302,12.887,3.302,18.674,0
			C37.072,35.257,36.465,34.189,35.856,33.122z M28.938,36.051l-1.635,0.584l-0.629-1.051c0.574,0.063,1.152,0.096,1.732,0.096
			c0.1,0,0.199-0.013,0.299-0.016L28.938,36.051z M34.059,34.628c0.375-0.141,0.754-0.279,1.119-0.449l0.217,0.445l-0.539,1.004
			L34.059,34.628z M31.879,35.3c0.482-0.107,0.957-0.249,1.428-0.4l0.369,0.464l-1.057,0.863L31.879,35.3z M26.029,35.984
			l-1.051,0.526l-0.621-1.372c0.443,0.117,0.889,0.211,1.338,0.287L26.029,35.984z M23.404,34.871l0.301,0.662l-1.104,0.389
			l-0.451-1.536C22.565,34.562,22.979,34.73,23.404,34.871z M21.947,36.459c-0.314-0.121-0.625-0.25-0.932-0.389l0.742-0.261
			L21.947,36.459z M22.733,36.367l1.164-0.408l0.574,1.268c-0.545-0.122-1.084-0.275-1.617-0.448L22.733,36.367z M25.172,36.933
			l1.096-0.549l0.731,1.218c-0.564-0.044-1.125-0.11-1.68-0.206l0.051-0.024L25.172,36.933z M31.024,35.441l0.381,0.478
			l-1.301,0.607l-0.543-0.908C30.051,35.584,30.539,35.523,31.024,35.441z M30.344,36.926l1.357-0.634l0.725,0.909
			c-0.572,0.133-1.152,0.228-1.736,0.304L30.344,36.926z M32.908,36.591l1.057-0.864l0.646,0.812
			c-0.459,0.169-0.924,0.31-1.393,0.441L32.908,36.591z M35.17,36.025l0.476-0.887l0.402,0.821c-0.23,0.108-0.471,0.187-0.703,0.283
			L35.17,36.025z M31.01,21.693c0.197,1.597-0.301,3.479-0.945,4.958l-0.682-0.891v-2.117h1.088l-1.358-1.45v-2.801
			C30.233,19.613,30.846,20.352,31.01,21.693z M25.678,21.693c0.164-1.341,0.779-2.08,1.896-2.301v2.801l-1.357,1.45h1.088v2.117
			l-0.68,0.891C25.981,25.171,25.483,23.29,25.678,21.693z M21.387,34.543l0.24,0.819l-0.855,0.301L21.387,34.543z M27.91,37.651
			l-0.363-0.608l1.633-0.584l0.674,1.126c-0.482,0.04-0.963,0.08-1.447,0.08C28.24,37.665,28.076,37.655,27.91,37.651z"/>
	</g>
</g>
</svg>
