<?xml version="1.0" encoding="iso-8859-1"?>
<!-- Generator: Adobe Illustrator 18.1.1, SVG Export Plug-In . SVG Version: 6.00 Build 0)  -->
<svg version="1.1" id="Layer_74" xmlns="http://www.w3.org/2000/svg" xmlns:xlink="http://www.w3.org/1999/xlink" x="0px" y="0px"
	 viewBox="0 0 56.692 56.692" style="enable-background:new 0 0 56.692 56.692;" xml:space="preserve">
<g>
	<defs>
		<circle id="SVGID_1_" cx="28.346" cy="28.347" r="28.347"/>
	</defs>
	<clipPath id="SVGID_2_">
		<use xlink:href="#SVGID_1_"  style="overflow:visible;"/>
	</clipPath>
	<g style="clip-path:url(#SVGID_2_);">
		<rect x="0" y="13.674" width="56.693" height="29.346"/>
		<rect x="0" y="43.02" style="fill:#239E46;" width="56.693" height="13.673"/>
		<rect x="0" y="0" style="fill:#E70013;" width="56.693" height="13.674"/>
	</g>
	<g style="clip-path:url(#SVGID_2_);">
		<path style="fill:#FFFFFF;" d="M26.762,34.709c-3.504,0-6.344-2.84-6.344-6.343c0-3.505,2.84-6.346,6.344-6.346
			c1.574,0,3.014,0.575,4.123,1.524c-1.338-1.53-3.305-2.5-5.498-2.5c-4.033,0-7.303,3.27-7.303,7.302s3.27,7.301,7.303,7.301
			c2.123,0,4.033-0.906,5.365-2.353C29.663,34.18,28.274,34.709,26.762,34.709z"/>
		<polygon style="fill:#FFFFFF;" points="32.702,23.432 34.932,26.414 38.608,25.213 36.34,28.369 38.528,31.333 34.95,30.316 
			32.661,33.249 32.676,29.565 29.008,28.349 32.686,27.147 		"/>
	</g>
</g>
</svg>
