<?xml version="1.0" encoding="iso-8859-1"?>
<!-- Generator: Adobe Illustrator 18.1.1, SVG Export Plug-In . SVG Version: 6.00 Build 0)  -->
<svg version="1.1" id="Layer_176" xmlns="http://www.w3.org/2000/svg" xmlns:xlink="http://www.w3.org/1999/xlink" x="0px" y="0px"
	 viewBox="0 0 56.692 56.692" style="enable-background:new 0 0 56.692 56.692;" xml:space="preserve">
<g>
	<defs>
		<circle id="SVGID_1_" cx="28.346" cy="28.345" r="28.346"/>
	</defs>
	<clipPath id="SVGID_2_">
		<use xlink:href="#SVGID_1_"  style="overflow:visible;"/>
	</clipPath>
	<rect x="-14.173" y="0" style="clip-path:url(#SVGID_2_);fill:#C1272D;" width="85.039" height="56.693"/>
	<path style="clip-path:url(#SVGID_2_);fill:#006233;" d="M37.444,25.379h-7.012l-2.086-6.419l-2.111,6.419h-6.985l5.636,4.101
		l-2.188,6.65L28.346,32l5.581,4.131l-2.153-6.624L37.444,25.379z M33.006,26.845l-1.699,1.225l-0.397-1.225H33.006z M30.145,28.906
		l-1.832,1.318l-1.773-1.285l0.679-2.094h2.257L30.145,28.906z M28.346,23.365l0.653,2.015h-1.306L28.346,23.365z M23.653,26.845
		h2.1l-0.404,1.231L23.653,26.845z M25.428,32.375l0.654-2.021l1.042,0.758L25.428,32.375z M31.271,32.375l-1.722-1.25l1.065-0.775
		L31.271,32.375z"/>
</g>
</svg>
