<?xml version="1.0" encoding="iso-8859-1"?>
<!-- Generator: Adobe Illustrator 18.1.1, SVG Export Plug-In . SVG Version: 6.00 Build 0)  -->
<svg version="1.1" id="Layer_179" xmlns="http://www.w3.org/2000/svg" xmlns:xlink="http://www.w3.org/1999/xlink" x="0px" y="0px"
	 viewBox="0 0 56.692 56.692" style="enable-background:new 0 0 56.692 56.692;" xml:space="preserve">
<g>
	<defs>
		<circle id="SVGID_1_" cx="28.346" cy="28.347" r="28.346"/>
	</defs>
	<clipPath id="SVGID_2_">
		<use xlink:href="#SVGID_1_"  style="overflow:visible;"/>
	</clipPath>
	<g style="clip-path:url(#SVGID_2_);">
		<rect x="-28.347" y="-0.001" style="fill:#CC092F;" width="113.386" height="56.693"/>
		<rect x="-28.347" y="-0.001" style="fill:#FFD200;" width="75.591" height="56.693"/>
		<rect x="-28.347" y="-0.001" style="fill:#0046AE;" width="37.795" height="56.693"/>
		<g>
			<g>
				<path d="M25.051,11.542c-0.203,0-0.38,0.052-0.484,0.132c0.164,0.048,0.284,0.199,0.284,0.384v0.468h-0.468
					c-0.183,0-0.335-0.118-0.384-0.281c-0.081,0.103-0.132,0.281-0.132,0.484c0,0.203,0.052,0.38,0.132,0.484
					c0.048-0.164,0.199-0.284,0.384-0.284h0.468v2.248c0,0.177-0.11,0.323-0.264,0.377c0.223,0.03,0.415,0.33,0.468,0.493
					c0.053-0.163,0.245-0.463,0.468-0.493c-0.156-0.053-0.268-0.199-0.268-0.377v-2.248h0.468c0.183,0,0.335,0.118,0.384,0.281
					c0.08-0.103,0.132-0.281,0.132-0.484c0-0.203-0.052-0.38-0.132-0.484c-0.048,0.164-0.199,0.284-0.384,0.284h-0.468v-0.468
					c0-0.183,0.118-0.335,0.281-0.384C25.431,11.594,25.254,11.542,25.051,11.542L25.051,11.542z"/>
				<path style="fill:#F5D402;" d="M25.051,11.639c-0.106,0-0.199,0.02-0.277,0.045c0.105,0.091,0.174,0.223,0.174,0.374v0.468
					c0,0.007-0.002,0.013-0.003,0.019v0.074H24.87c-0.006,0.001-0.013,0.003-0.019,0.003h-0.468c-0.149,0-0.28-0.068-0.371-0.171
					c-0.026,0.079-0.048,0.17-0.048,0.277c0,0.106,0.02,0.199,0.045,0.277c0.091-0.105,0.223-0.174,0.374-0.174h0.564
					c-0.001,0.01-0.003,0.019-0.003,0.029v0.048c0.001,0.006,0.003,0.013,0.003,0.019v2.248c0,0.146-0.075,0.261-0.174,0.351
					c0.071,0.044,0.132,0.099,0.184,0.161c0.046,0.056,0.065,0.11,0.097,0.168c0.032-0.057,0.05-0.112,0.097-0.168
					c0.051-0.062,0.111-0.115,0.181-0.158c-0.1-0.091-0.174-0.208-0.174-0.355v-2.341h0.077c0.006-0.001,0.013-0.003,0.019-0.003
					h0.468c0.149,0,0.28,0.068,0.371,0.171c0.026-0.079,0.048-0.17,0.048-0.277c0-0.106-0.02-0.199-0.045-0.277
					c-0.091,0.105-0.223,0.174-0.374,0.174h-0.468c-0.007,0-0.013-0.002-0.019-0.003h-0.074v-0.074
					c-0.001-0.006-0.003-0.013-0.003-0.019v-0.468c0-0.149,0.068-0.28,0.171-0.371C25.249,11.661,25.158,11.639,25.051,11.639"/>
				<path d="M30.904,19.778c-0.286-0.203-0.52-0.432-0.687-0.7c-0.401-0.644-0.571-1.435-0.571-2.238c0-0.34,0.38-0.722,0.38-0.997
					c0-0.415-0.039-0.664-0.039-0.664c0.135,0.018,0.371,0.258,0.371,0.258s-0.008-0.689-0.226-0.809c0,0,0.088-0.091,0.406-0.1
					c-0.089-0.227-0.532-0.503-0.532-0.503c0.022-0.04,0.063-0.074,0.116-0.103c0.111-0.061,0.267-0.102,0.387-0.126
					c-0.127-0.026-0.274-0.067-0.435-0.119c-0.368-0.12-0.801-0.296-1.206-0.49c-0.739-0.355-1.302-0.377-1.612-0.377
					c-0.225,0-0.557,0.006-0.751,0.136c-0.178,0.118-0.163,0.272-0.226,0.326c-0.147,0.127-0.398,0.123-0.519,0.123
					c-0.784,0-0.813,0.838-0.813,0.838s0.2-0.303,0.555-0.303c0.589,0,1.035,0.321,1.035,0.442c0,0.049-0.061,0.058-0.064,0.058
					c-0.385,0-0.965-0.221-1.274-0.232v0.152c0.689,0.24,1.387,0.579,1.387,2.074c0,0.941-0.113,1.902-0.584,2.657
					c-0.167,0.268-0.404,0.496-0.69,0.7l2.796,0.504L30.904,19.778z"/>
				<g id="eagle_half">
					<path d="M28.108,19.148l-2.796,0.63c-0.127-0.038-0.725-0.224-1.145-0.458c-0.739-0.411-1.122-0.821-1.999-0.861v-0.668
						c0-0.357,0.129-0.678,0.129-1.019c-0.37-0.099-1.397-1.355-2.344-1.912c-1.394,0.903-2.473,2.385-2.473,3.067
						c0,0,0.042,14.646,0,19.749c0,0.294-0.177,0.709-0.177,0.709c0.509-0.215,1.442-1.492,1.638-1.977v0.232
						c0.769-0.35,1.331-1.271,1.583-1.748c0.004,0.069,0.016,0.242,0.016,0.242c0.687-0.602,1.561-4.16,1.561-4.16l1.457,1.432
						c0,0-0.527,1.069-0.732,1.261c0,0,0.138,0.017,0.293,0.016c-0.096,0.138-0.828,1.192-1.058,1.59
						c-0.215,0.372-0.366,0.206-0.697,0.206c-0.274,0-0.894,0.436-0.996,0.613c-0.107,0.186-0.187,0.411-0.187,0.597
						c0,0.204,0.216,0.484,0.216,0.484c0.023-0.098,0.064-0.132,0.064-0.132s0.568,0.707,0.651,0.8
						c0.065,0.072,0.356,0.119,0.458,0.026c0.256-0.233,0.504-0.396,0.732-0.732c0.117-0.173,0.126-0.372,0.261-0.558
						c0.451-0.622,1.349-1.814,1.554-2.086c0.014,0.076,0.026,0.139,0.039,0.216c0.233-0.47,1.351-1.367,1.351-1.367l1.17,0.539
						c0,0-2.185,5.023-4.124,5.795c0,0,0.844,0.358,1.88,0.897c0.151,0.078,0.307,0.163,0.464,0.248
						c0.13-0.157,0.268-0.332,0.403-0.513c0.62-0.829,1.226-1.79,1.226-1.79c0.042,0.25-0.285,1.02-0.838,1.97
						c-0.109,0.187-0.222,0.382-0.348,0.58c0.14,0.08,0.28,0.161,0.419,0.245c1.026,0.618,1.99,1.328,2.348,1.98l0.252-0.63
						l-0.252-0.63V19.985l0.126-0.315L28.108,19.148z"/>
					<g>
						<path style="fill:#B07F55;" d="M28.107,42.029c-0.362-0.393-1.119-0.873-1.97-1.316c1.029-1.847,1.539-4.766,1.3-5.347
							c0,0-0.422,1.514-0.938,2.377c-0.478,0.799-1.066,1.698-1.635,2.364c-0.468-0.2-0.922-0.367-1.309-0.484
							c1.704-1.313,3.447-5.653,3.447-5.653l-1.802-0.835c0,0-0.674,0.786-0.893,0.932c0,0-0.094-0.391-0.148-0.529
							c0,0-0.258,0.195-0.4,0.2c0,0-0.042-0.265-0.074-0.439c-0.178,0.119-0.474,0.094-0.474,0.094
							c0.26-0.123,0.568-0.877,0.568-0.877l-1.721-2.289c0,0-0.605,2.905-1.293,3.502V21.22l0.545,0.506l0.826-0.771v-0.587
							l-0.732,0.684v-1.77c0.11-0.167,0.183-0.291,0.239-0.39c0.118,0.207,0.501,0.84,0.951,1.229
							c0.074-0.301,0.561-0.587,0.561-0.587s0.175,0.473,0.442,0.59c0.094-0.166,0.655-0.532,0.655-0.532s-0.48,0.073-0.674,0.255
							c-0.167-0.037-0.21-0.697-0.21-0.697s-0.706,0.344-0.829,0.59c-0.135-0.036-0.344-0.566-0.426-0.784
							c0.123-0.013,0.297-0.029,0.526-0.029c0.201,0,0.459,0.095,0.729,0.222c0.297,0.14,0.607,0.316,0.884,0.442
							c0.355,0.161,0.892,0.193,1.048,0.2c-0.179,0.126-0.376,0.241-0.59,0.348c0,0,0.845-0.008,1.438-0.303
							c0.212-0.136,0.431-0.272,0.619-0.432c-0.081,0.226-0.208,0.494-0.406,0.722c0.872-0.074,1.306-0.571,1.429-0.738
							c0.058,0.15,0.161,0.39,0.322,0.597h0.315v21.417L28.107,42.029z"/>
						<path style="fill:#B07F55;" d="M21.685,16.837l0.016,0.4v1.177c-0.316-0.109-0.713-0.628-0.906-0.903V17.35
							c0-0.152,0.089-0.262,0.155-0.322l-0.19-0.068c-0.073,0.083-0.152,0.206-0.152,0.364v0.094l-0.567,0.61l-0.558-0.845v-0.206
							c0-0.139,0.107-0.294,0.197-0.4l-0.187-0.068c-0.094,0.122-0.194,0.287-0.194,0.442v0.168
							c-0.131,0.136-0.642,0.661-0.642,0.661s-0.256-0.55-0.326-0.7c0.391-0.541,1.025-1.148,1.622-1.583
							C19.953,15.497,21.248,16.686,21.685,16.837L21.685,16.837z"/>
						<path style="fill:#B07F55;" d="M18.401,17.979v0.971l-0.451,0.419v-1.441c0-0.138,0.058-0.304,0.155-0.487L18.401,17.979z"/>
						<path style="fill:#B07F55;" d="M19.807,18.353v0.6l-0.519,0.487v-1.877L19.807,18.353z"/>
						<path style="fill:#B07F55;" d="M19.104,19.436l-0.519-0.484V18.25l0.519-0.545V19.436z"/>
						<path style="fill:#B07F55;" d="M21.475,18.708c-0.121,0.17-0.436,0.587-0.777,0.771V17.83
							C20.776,17.961,21.134,18.541,21.475,18.708z"/>
						<path style="fill:#B07F55;" d="M20.513,17.914v1.522l-0.519-0.484v-0.539L20.513,17.914z"/>
						<path style="fill:#B07F55;" d="M18.401,19.536v1.519l-0.451-0.422v-0.674L18.401,19.536z"/>
						<path style="fill:#B07F55;" d="M19.104,20.023v0.545l-0.519,0.484V19.54L19.104,20.023z"/>
						<path style="fill:#B07F55;" d="M19.807,19.54v1.512l-0.519-0.487v-0.539L19.807,19.54z"/>
						<path style="fill:#B07F55;" d="M20.513,20.027v0.539l-0.519,0.487V19.54L20.513,20.027z"/>
						<path style="fill:#B07F55;" d="M21.216,21.055l-0.519-0.487v-0.506c0.179-0.109,0.359-0.31,0.519-0.522L21.216,21.055z"/>
						<path style="fill:#B07F55;" d="M19.9,21.726l0.548-0.51v12.512c0,0,0.038,0.621,0.065,1.025
							c-0.244,0.246-1.161,1.174-1.161,1.174V21.213L19.9,21.726z"/>
						<path style="fill:#B07F55;" d="M19.039,35.46c0,0.402-0.734,1.34-1.09,1.554V21.22l0.542,0.506l0.548-0.51V35.46z"/>
					</g>
					<g>
						<path style="fill:#D10429;" d="M23.592,34.103l0.4-0.274c0,0,0.027,0.132,0.061,0.313c-0.171,0.234-1.155,1.576-1.641,2.231
							c-0.121,0.163-0.223,0.577-0.223,0.577s-0.177-0.084-0.177-0.235c0-0.149,0.019-0.326,0.019-0.326s-0.132,0.152-0.361,0.152
							c0-0.183,0.354-0.381,0.368-0.642c-0.27,0.2-0.504,0.097-0.816,0.194c-0.34,0.105-0.434,0.247-0.539,0.242
							c-0.061-0.003-0.117-0.109-0.093-0.174c0.041-0.113,0.461-0.424,0.754-0.48c0.07-0.013,0.624,0.12,0.735-0.052
							c0.459-0.709,1.205-1.859,1.277-1.97c0.047-0.011,0.091-0.023,0.126-0.045C23.483,33.613,23.478,33.975,23.592,34.103
							L23.592,34.103z"/>
						<path style="fill:#D10429;" d="M21.021,36.311c0.022,0.026,0.02,0.063-0.003,0.084l-0.181,0.158
							c-0.024,0.02-0.062,0.016-0.084-0.01c-0.022-0.026-0.02-0.063,0.003-0.084l0.181-0.158c0.012-0.01,0.027-0.015,0.042-0.013
							C20.994,36.291,21.01,36.299,21.021,36.311L21.021,36.311z"/>
						<path style="fill:#D10429;" d="M21.296,36.502c0.054,0.062,0.051,0.15-0.006,0.2l-0.439,0.384
							c-0.057,0.05-0.149,0.04-0.203-0.022c-0.054-0.062-0.051-0.154,0.006-0.203l0.439-0.381c0.021-0.019,0.051-0.03,0.077-0.032
							C21.215,36.443,21.262,36.463,21.296,36.502z"/>
						<path style="fill:#D10429;" d="M21.547,36.798c0.054,0.062,0.051,0.15-0.006,0.2l-0.442,0.384
							c-0.057,0.05-0.146,0.04-0.2-0.023c-0.054-0.062-0.051-0.154,0.007-0.203l0.438-0.381c0.021-0.019,0.047-0.03,0.074-0.032
							C21.463,36.74,21.513,36.759,21.547,36.798L21.547,36.798z"/>
						<path style="fill:#D10429;" d="M21.698,37.034c0.045-0.004,0.092,0.013,0.126,0.052c0.054,0.062,0.051,0.154-0.006,0.203
							l-0.439,0.381c-0.057,0.05-0.146,0.04-0.2-0.023c-0.054-0.062-0.054-0.15,0.003-0.2l0.442-0.384
							C21.645,37.044,21.671,37.036,21.698,37.034L21.698,37.034z"/>
					</g>
				</g>
				<g transform="matrix(-1,0,0,1,1792.404,0)">
					<g id="eagle_half_1_">
						<path d="M28.106,19.148l2.796,0.63c0.127-0.038,0.725-0.224,1.145-0.458c0.739-0.411,1.122-0.821,1.999-0.861v-0.668
							c0-0.357-0.129-0.678-0.129-1.019c0.37-0.099,1.397-1.355,2.344-1.912c1.394,0.903,2.473,2.385,2.473,3.067
							c0,0-0.042,14.646,0,19.749c0,0.294,0.177,0.709,0.177,0.709c-0.509-0.215-1.442-1.492-1.638-1.977v0.232
							c-0.769-0.35-1.331-1.271-1.583-1.748c-0.004,0.069-0.016,0.242-0.016,0.242c-0.687-0.602-1.561-4.16-1.561-4.16l-1.457,1.432
							c0,0,0.527,1.069,0.732,1.261c0,0-0.138,0.017-0.293,0.016c0.096,0.138,0.828,1.192,1.058,1.59
							c0.215,0.372,0.366,0.206,0.697,0.206c0.274,0,0.894,0.436,0.996,0.613c0.107,0.186,0.187,0.411,0.187,0.597
							c0,0.204-0.216,0.484-0.216,0.484c-0.023-0.098-0.064-0.132-0.064-0.132s-0.568,0.707-0.651,0.8
							c-0.065,0.072-0.356,0.119-0.458,0.026c-0.256-0.233-0.504-0.396-0.732-0.732c-0.117-0.173-0.126-0.372-0.261-0.558
							c-0.451-0.622-1.349-1.814-1.554-2.086c-0.014,0.076-0.026,0.139-0.039,0.216c-0.233-0.47-1.351-1.367-1.351-1.367
							l-1.17,0.539c0,0,2.185,5.023,4.124,5.795c0,0-0.844,0.358-1.88,0.897c-0.151,0.078-0.307,0.163-0.464,0.248
							c-0.13-0.157-0.268-0.332-0.403-0.513c-0.62-0.829-1.226-1.79-1.226-1.79c-0.042,0.25,0.285,1.02,0.838,1.97
							c0.109,0.187,0.222,0.382,0.348,0.58c-0.14,0.08-0.28,0.161-0.419,0.245c-1.026,0.618-1.99,1.328-2.348,1.98l-0.252-0.63
							l0.252-0.63V19.985l-0.126-0.315L28.106,19.148z"/>
						<g>
							<path style="fill:#B07F55;" d="M28.107,42.029c0.362-0.393,1.119-0.873,1.97-1.316c-1.029-1.847-1.539-4.766-1.3-5.347
								c0,0,0.422,1.514,0.938,2.377c0.478,0.799,1.066,1.698,1.635,2.364c0.468-0.2,0.922-0.367,1.309-0.484
								c-1.704-1.313-3.447-5.653-3.447-5.653l1.802-0.835c0,0,0.674,0.786,0.893,0.932c0,0,0.094-0.391,0.148-0.529
								c0,0,0.258,0.195,0.4,0.2c0,0,0.042-0.265,0.074-0.439c0.178,0.119,0.474,0.094,0.474,0.094
								c-0.26-0.123-0.568-0.877-0.568-0.877l1.721-2.289c0,0,0.605,2.905,1.293,3.502V21.22l-0.545,0.506l-0.826-0.771v-0.587
								l0.732,0.684v-1.77c-0.11-0.167-0.183-0.291-0.239-0.39c-0.118,0.207-0.501,0.84-0.951,1.229
								c-0.074-0.301-0.561-0.587-0.561-0.587s-0.175,0.473-0.442,0.59c-0.094-0.166-0.655-0.532-0.655-0.532
								s0.48,0.073,0.674,0.255c0.167-0.037,0.21-0.697,0.21-0.697s0.706,0.344,0.829,0.59c0.135-0.036,0.344-0.566,0.426-0.784
								c-0.123-0.013-0.297-0.029-0.526-0.029c-0.201,0-0.459,0.095-0.729,0.222c-0.297,0.14-0.607,0.316-0.884,0.442
								c-0.355,0.161-0.892,0.193-1.048,0.2c0.179,0.126,0.376,0.241,0.59,0.348c0,0-0.845-0.008-1.438-0.303
								c-0.212-0.136-0.431-0.272-0.619-0.432c0.081,0.226,0.208,0.494,0.406,0.722c-0.872-0.074-1.306-0.571-1.429-0.738
								c-0.058,0.15-0.161,0.39-0.322,0.597h-0.315v21.417L28.107,42.029z"/>
							<path style="fill:#B07F55;" d="M34.529,16.837l-0.016,0.4v1.177c0.316-0.109,0.713-0.628,0.906-0.903V17.35
								c0-0.152-0.089-0.262-0.155-0.322l0.19-0.068c0.073,0.083,0.152,0.206,0.152,0.364v0.094l0.567,0.61l0.558-0.845v-0.206
								c0-0.139-0.107-0.294-0.197-0.4l0.187-0.068c0.094,0.122,0.194,0.287,0.194,0.442v0.168c0.131,0.136,0.642,0.661,0.642,0.661
								s0.256-0.55,0.326-0.7c-0.391-0.541-1.025-1.148-1.622-1.583C36.261,15.497,34.966,16.686,34.529,16.837L34.529,16.837z"/>
							<path style="fill:#B07F55;" d="M37.812,17.979v0.971l0.451,0.419v-1.441c0-0.138-0.058-0.304-0.155-0.487L37.812,17.979z"/>
							<path style="fill:#B07F55;" d="M36.406,18.353v0.6l0.519,0.487v-1.877L36.406,18.353z"/>
							<path style="fill:#B07F55;" d="M37.109,19.436l0.519-0.484V18.25l-0.519-0.545V19.436z"/>
							<path style="fill:#B07F55;" d="M34.739,18.708c0.121,0.17,0.436,0.587,0.777,0.771V17.83
								C35.438,17.961,35.08,18.541,34.739,18.708z"/>
							<path style="fill:#B07F55;" d="M35.7,17.914v1.522l0.519-0.484v-0.539L35.7,17.914z"/>
							<path style="fill:#B07F55;" d="M37.812,19.536v1.519l0.451-0.422v-0.674L37.812,19.536z"/>
							<path style="fill:#B07F55;" d="M37.11,20.023v0.545l0.519,0.484V19.54L37.11,20.023z"/>
							<path style="fill:#B07F55;" d="M36.407,19.54v1.512l0.519-0.487v-0.539L36.407,19.54z"/>
							<path style="fill:#B07F55;" d="M35.701,20.027v0.539l0.519,0.487V19.54L35.701,20.027z"/>
							<path style="fill:#B07F55;" d="M34.998,21.055l0.519-0.487v-0.506c-0.179-0.109-0.359-0.31-0.519-0.522L34.998,21.055z"/>
							<path style="fill:#B07F55;" d="M36.313,21.726l-0.548-0.51v12.512c0,0-0.038,0.621-0.065,1.025
								c0.244,0.246,1.161,1.174,1.161,1.174V21.213L36.313,21.726z"/>
							<path style="fill:#B07F55;" d="M37.175,35.46c0,0.402,0.734,1.34,1.09,1.554V21.22l-0.542,0.506l-0.548-0.51V35.46z"/>
						</g>
						<g>
							<path style="fill:#D10429;" d="M32.621,34.103l-0.4-0.274c0,0-0.027,0.132-0.061,0.313c0.171,0.234,1.155,1.576,1.641,2.231
								c0.121,0.163,0.223,0.577,0.223,0.577s0.177-0.084,0.177-0.235c0-0.149-0.019-0.326-0.019-0.326s0.132,0.152,0.361,0.152
								c0-0.183-0.354-0.381-0.368-0.642c0.27,0.2,0.504,0.097,0.816,0.194c0.34,0.105,0.434,0.247,0.539,0.242
								c0.061-0.003,0.117-0.109,0.093-0.174c-0.041-0.113-0.461-0.424-0.754-0.48c-0.07-0.013-0.624,0.12-0.735-0.052
								c-0.459-0.709-1.205-1.859-1.277-1.97c-0.047-0.011-0.091-0.023-0.126-0.045C32.731,33.613,32.735,33.975,32.621,34.103
								L32.621,34.103z"/>
							<path style="fill:#D10429;" d="M35.192,36.311c-0.022,0.026-0.02,0.063,0.003,0.084l0.181,0.158
								c0.024,0.02,0.062,0.016,0.084-0.01c0.022-0.026,0.02-0.063-0.003-0.084l-0.181-0.158c-0.012-0.01-0.027-0.015-0.042-0.013
								C35.219,36.291,35.204,36.299,35.192,36.311L35.192,36.311z"/>
							<path style="fill:#D10429;" d="M34.918,36.502c-0.054,0.062-0.051,0.15,0.006,0.2l0.439,0.384
								c0.057,0.05,0.149,0.04,0.203-0.022c0.054-0.062,0.051-0.154-0.006-0.203l-0.439-0.381c-0.021-0.019-0.051-0.03-0.077-0.032
								C34.999,36.443,34.952,36.463,34.918,36.502z"/>
							<path style="fill:#D10429;" d="M34.667,36.798c-0.054,0.062-0.051,0.15,0.006,0.2l0.442,0.384
								c0.057,0.05,0.146,0.04,0.2-0.023c0.054-0.062,0.051-0.154-0.007-0.203l-0.438-0.381c-0.021-0.019-0.047-0.03-0.074-0.032
								C34.751,36.74,34.701,36.759,34.667,36.798L34.667,36.798z"/>
							<path style="fill:#D10429;" d="M34.516,37.034c-0.045-0.004-0.092,0.013-0.126,0.052c-0.054,0.062-0.051,0.154,0.006,0.203
								l0.439,0.381c0.057,0.05,0.146,0.04,0.2-0.023c0.054-0.062,0.054-0.15-0.003-0.2l-0.442-0.384
								C34.568,37.044,34.543,37.036,34.516,37.034L34.516,37.034z"/>
						</g>
					</g>
				</g>
				<path style="fill:#B07F55;" d="M27.46,13.016c0.722,0,1.229,0.329,1.912,0.632c0.179,0.079,0.343,0.144,0.49,0.193
					c-0.092,0.081-0.163,0.163-0.184,0.232c0,0,0.306,0.057,0.445,0.313c0,0-0.291,0.033-0.339,0.203
					c0.163,0.012,0.325,0.218,0.326,0.416l-0.413-0.129c0,0,0.1,0.463,0.1,0.967c0,0.257-0.371,0.56-0.371,0.996
					c0,1.369,0.345,1.895,0.59,2.319c0.096,0.166,0.174,0.356,0.335,0.5c-0.707-0.376-1.232-0.847-1.232-1.283v-1.654h-0.184v1.654
					c0,0.317,0.077,0.464,0.077,0.464c0.111,0.35,0.335,0.891,0.474,1.109c-0.65-0.351-0.98-0.791-0.98-0.955v-2.274h-0.184v2.306
					l0.035,0.158c-0.079,0.118-0.181,0.259-0.252,0.306c-0.07-0.048-0.169-0.188-0.248-0.306l0.036-0.158v-2.306h-0.184v2.274
					c0,0.163-0.33,0.603-0.98,0.955c0.139-0.218,0.363-0.759,0.474-1.109c0,0,0.077-0.148,0.077-0.464v-1.654h-0.184v1.654
					c0,0.436-0.523,0.907-1.229,1.283c0.16-0.144,0.237-0.335,0.332-0.5c0.268-0.463,0.6-1.051,0.6-2.725
					c0-0.628-0.093-1.055-0.255-1.354c-0.049-0.099-0.115-0.361,0.261-0.361c0.195,0,0.642,0.345,0.642,0.345
					s-0.018-0.275-0.245-0.432c-0.038-0.026-0.1-0.108-0.1-0.184c0-0.057,0.098-0.197,0.174-0.232
					c0.052-0.024-0.767-0.167-0.767-0.539c0-0.077,0.049-0.129,0.219-0.129c0.223,0,0.587,0.268,0.909,0.268
					c0.239,0,0.333-0.058,0.577-0.058c0.299,0,0.922,0.566,1.135,0.545c-0.238-0.15-0.623-0.716-1.206-0.716
					c-0.202,0-0.385,0.045-0.574,0.045c-0.242,0-0.48-0.223-0.742-0.223c-0.175,0-0.371,0.01-0.4-0.036
					c-0.051-0.079-0.005-0.125,0.042-0.19c0.089-0.123,0.338-0.159,0.584-0.168c0.074-0.003,0.147-0.004,0.216-0.003
					C27.342,13.013,27.405,13.016,27.46,13.016L27.46,13.016z"/>
				<path style="fill:#CC092F;" d="M25.117,13.901c0,0,0.152-0.289,0.538-0.289c0.161,0,0.692-0.011,0.692-0.011
					c0.071,0.184,0.394,0.491,0.394,0.811c0,0-0.328-0.591-1.242-0.591C25.268,13.822,25.116,13.901,25.117,13.901L25.117,13.901z"
					/>
				<path style="fill:#D10429;" d="M26.604,14.525c0,0-0.195,0.205-0.237,0.315c-0.193-0.073-0.529-0.42-0.529-0.42
					S26.123,14.587,26.604,14.525L26.604,14.525z"/>
				<path d="M26.295,13.982c0,0-0.225-0.072-0.225-0.148c0-0.096,0.109-0.096,0.174-0.021C26.29,13.865,26.295,13.982,26.295,13.982
					L26.295,13.982z"/>
				<ellipse cx="27.263" cy="13.988" rx="0.322" ry="0.255"/>
				<circle style="fill:#F5D402;" cx="27.263" cy="13.988" r="0.224"/>
				<circle cx="27.263" cy="13.988" r="0.095"/>
			</g>
			<g>
				<g>
					<polygon points="22.134,37.288 23.154,37.845 22.907,38.98 21.886,38.423 					"/>
					<path d="M17.379,26.376l-0.368,0.168l4.153,9.097h0.442L17.379,26.376z M22.278,37.105l-0.3,0.31l0.187,0.413l0.364-0.168
						L22.278,37.105z"/>
					<path d="M18.67,33.549c0,0,0.35,0.723,0.616,0.822c-0.138-0.037-0.584,0.126-0.584,0.126s0.787,0.703,1.455,0.749
						c0.566,0.039,0.841-0.244,0.841-0.244l-0.113-0.6c0,0-0.346-0.418-0.901-0.611C19.423,33.596,18.67,33.549,18.67,33.549
						L18.67,33.549z"/>
					<path d="M21.307,32.255c0,0-0.483,0.414-0.615,0.893c-0.132,0.479,0.086,1.023,0.086,1.023l0.406,0.757
						c0,0,0.563-0.299,0.802-0.747c0.239-0.448,0.152-1.052,0.152-1.052s-0.446,0.166-0.502,0.239
						C21.729,32.872,21.307,32.255,21.307,32.255L21.307,32.255z"/>
					<path d="M19.755,32.061c0,0-0.549,0.186-1.083,0.154c-0.508-0.031-0.931-0.457-0.931-0.457s0.421-0.285,0.629-0.247
						c-0.229-0.084-0.56-0.657-0.56-0.657s0.471-0.142,0.889,0.015c0.418,0.158,0.782,0.615,0.782,0.615L19.755,32.061
						L19.755,32.061z"/>
					<path d="M19.944,29.378c0,0,0.275,0.569,0.21,0.767c0.085-0.132,0.408-0.337,0.408-0.337s0.195,0.921,0.009,1.49
						c-0.186,0.569-0.754,0.786-0.754,0.786l-0.626-1.218c0,0-0.093-0.451,0.102-0.809C19.486,29.699,19.944,29.378,19.944,29.378
						L19.944,29.378z"/>
					<path d="M16.369,27.872c0,0,0.594-0.062,1.137,0.163c0.454,0.189,0.593,0.531,0.593,0.531l0.224,0.6
						c0,0-0.646,0.242-1.157,0.057c-0.511-0.186-0.886-0.799-0.886-0.799s0.357-0.135,0.493-0.085
						C16.575,28.251,16.369,27.872,16.369,27.872L16.369,27.872L16.369,27.872z"/>
					<path d="M18.237,26.759c0,0,0.261,0.335,0.268,0.72c0.069-0.205,0.395-0.431,0.395-0.431s0.335,0.81,0.261,1.385
						c-0.073,0.575-0.555,0.915-0.555,0.915l-0.6-1.14c0,0-0.196-0.467-0.138-0.829C17.925,27.016,18.237,26.758,18.237,26.759
						L18.237,26.759z"/>
					<path d="M16.18,24.579c0,0-0.108,0.621,0.076,0.978c0.164,0.319,0.268,0.389,0.268,0.389c-0.312-0.206-0.784-0.224-0.784-0.224
						s0.168,0.675,0.569,0.983c0.401,0.308,1.02,0.236,1.02,0.236s0.407-0.542,0.379-1.125c-0.028-0.584-0.492-1.209-0.492-1.209
						s-0.183,0.379-0.199,0.662C16.898,24.978,16.18,24.579,16.18,24.579L16.18,24.579z"/>
					<path d="M21.03,34.977l0.017,0.223c0.37,0.003,0.425-0.033,0.52,0.083c0.063,0.078,0.213,0.146,0.365,0.077
						c0.151-0.069,0.219-0.251,0.15-0.402c-0.069-0.151-0.21-0.184-0.345-0.157c-0.083,0.016-0.138,0.083-0.208,0.119
						C21.394,34.989,21.03,34.977,21.03,34.977L21.03,34.977z"/>
					<path d="M20.998,34.807l0.18,0.132c-0.193,0.316-0.253,0.343-0.205,0.485c0.032,0.095,0.01,0.258-0.128,0.35
						c-0.139,0.092-0.328,0.053-0.42-0.086c-0.092-0.139-0.045-0.275,0.049-0.376c0.058-0.062,0.143-0.073,0.211-0.114
						C20.816,35.122,20.998,34.807,20.998,34.807L20.998,34.807z"/>
					<path d="M19.745,32.161l0.017,0.223c0.37,0.003,0.425-0.033,0.52,0.083c0.063,0.078,0.213,0.146,0.365,0.077
						c0.151-0.069,0.219-0.25,0.15-0.402c-0.069-0.151-0.209-0.184-0.345-0.157c-0.083,0.016-0.138,0.083-0.208,0.119
						C20.109,32.174,19.744,32.161,19.745,32.161L19.745,32.161z"/>
					<path d="M19.82,32.24l0.157,0.159c-0.24,0.282-0.304,0.299-0.278,0.447c0.017,0.099-0.03,0.257-0.181,0.326
						c-0.151,0.069-0.333,0.001-0.402-0.15c-0.069-0.151-0.002-0.279,0.107-0.364c0.067-0.052,0.153-0.05,0.226-0.079
						C19.59,32.523,19.82,32.24,19.82,32.24L19.82,32.24z"/>
					<path d="M18.499,29.525l0.017,0.223c0.37,0.003,0.425-0.033,0.52,0.083c0.063,0.078,0.213,0.145,0.365,0.076
						c0.151-0.069,0.219-0.25,0.15-0.402c-0.069-0.151-0.21-0.184-0.345-0.157c-0.083,0.016-0.138,0.083-0.208,0.119
						C18.863,29.537,18.499,29.525,18.499,29.525L18.499,29.525z"/>
					<path d="M18.601,29.479l0.157,0.158c-0.24,0.282-0.304,0.299-0.278,0.448c0.017,0.099-0.03,0.257-0.181,0.326
						c-0.151,0.069-0.333,0.001-0.402-0.15c-0.069-0.151-0.002-0.279,0.107-0.364c0.067-0.052,0.153-0.05,0.226-0.079
						C18.372,29.762,18.601,29.479,18.601,29.479L18.601,29.479z"/>
					<path d="M17.171,26.742l0.017,0.223c0.37,0.003,0.425-0.033,0.52,0.083c0.063,0.078,0.214,0.146,0.365,0.077
						c0.151-0.069,0.219-0.251,0.15-0.402c-0.069-0.151-0.21-0.184-0.345-0.157c-0.083,0.016-0.138,0.083-0.208,0.119
						C17.535,26.754,17.171,26.742,17.171,26.742L17.171,26.742z"/>
					<path d="M17.274,26.696l0.157,0.159c-0.24,0.282-0.304,0.299-0.278,0.448c0.017,0.099-0.03,0.257-0.181,0.326
						c-0.151,0.069-0.333,0.001-0.402-0.15c-0.069-0.151-0.002-0.279,0.107-0.364c0.067-0.052,0.153-0.05,0.226-0.079
						C17.045,26.979,17.274,26.696,17.274,26.696L17.274,26.696z"/>
				</g>
				<g>
					<polygon style="fill:#F5D402;" points="22.281,37.61 22.914,37.955 22.76,38.659 22.127,38.314 					"/>
					<path style="fill:#F5D402;" d="M19.51,31.501c-0.133,0.055-0.329-0.523-0.474-0.839c-0.148-0.325-0.449-0.825-0.364-0.864
						c0.094-0.043,0.217,0.22,0.369,0.552C19.193,30.682,19.634,31.449,19.51,31.501L19.51,31.501z"/>
					<path style="fill:#F5D402;" d="M18.147,28.459c-0.133,0.055-0.278-0.323-0.422-0.639c-0.148-0.325-0.293-0.554-0.207-0.593
						c0.094-0.043,0.232,0.242,0.354,0.507C17.989,27.992,18.271,28.408,18.147,28.459L18.147,28.459z"/>
					<path style="fill:#F5D402;" d="M21.299,35.356c-0.104,0.028-0.559-0.924-0.926-1.729c-0.367-0.805-0.641-1.456-0.556-1.495
						c0.094-0.043,0.391,0.718,0.759,1.523C20.944,34.46,21.377,35.335,21.299,35.356L21.299,35.356z"/>
				</g>
				<g>
					<path style="fill:#097754;" d="M16.363,24.956c0,0-0.016,0.454,0.134,0.711c0.15,0.257,0.485,0.36,0.485,0.36
						s0.016-0.453-0.134-0.711C16.698,25.059,16.363,24.956,16.363,24.956z"/>
					<path style="fill:#097754;" d="M16.049,25.982c0,0,0.394,0.023,0.622,0.198c0.227,0.174,0.316,0.538,0.316,0.538
						s-0.261,0.027-0.489-0.148C16.27,26.395,16.049,25.982,16.049,25.982z"/>
					<path style="fill:#097754;" d="M17.285,25.067c0,0-0.131,0.3-0.116,0.624c0.015,0.324,0.204,0.689,0.204,0.689
						s0.171-0.389,0.156-0.713C17.514,25.343,17.331,25.158,17.285,25.067L17.285,25.067z"/>
					<path style="fill:#097754;" d="M16.622,27.987c0,0,0.193,0.27,0.491,0.417c0.298,0.147,0.742,0.153,0.742,0.153
						s-0.221-0.287-0.519-0.435C17.038,27.975,16.622,27.987,16.622,27.987L16.622,27.987z"/>
					<path style="fill:#097754;" d="M16.718,28.614c0,0,0.142,0.278,0.402,0.398c0.26,0.119,0.792,0.11,0.792,0.11
						s-0.204-0.26-0.464-0.38C17.188,28.623,16.718,28.614,16.718,28.614L16.718,28.614z"/>
					<path style="fill:#097754;" d="M18.215,27.129c0,0-0.157,0.26-0.142,0.546c0.015,0.286,0.203,0.599,0.203,0.599
						s0.132-0.359,0.117-0.645C18.378,27.343,18.215,27.129,18.215,27.129L18.215,27.129z"/>
					<path style="fill:#097754;" d="M18.794,27.496c0,0-0.269,0.361-0.308,0.732c-0.039,0.371,0.153,0.752,0.153,0.752
						s0.325-0.326,0.363-0.697C19.042,27.912,18.794,27.496,18.794,27.496L18.794,27.496z"/>
					<path style="fill:#097754;" d="M18.053,30.923c0,0,0.032,0.133,0.145,0.275c0.112,0.142,0.305,0.292,0.305,0.292
						s0.186-0.06,0.417-0.01c0.231,0.05,0.538,0.256,0.538,0.256s-0.331-0.493-0.674-0.685
						C18.44,30.859,18.053,30.923,18.053,30.923L18.053,30.923z"/>
					<path style="fill:#097754;" d="M18.019,31.771c0,0,0.428-0.183,0.78-0.136c0.352,0.047,0.67,0.326,0.67,0.326
						s-0.476,0.165-0.829,0.118C18.288,32.031,18.019,31.771,18.019,31.771L18.019,31.771z"/>
					<path style="fill:#097754;" d="M19.827,29.782c0,0-0.378,0.401-0.41,0.749c-0.032,0.348,0.307,0.672,0.307,0.672
						s-0.017-0.223,0.042-0.37c0.058-0.147,0.182-0.304,0.182-0.304S20,30.35,19.98,30.206
						C19.952,30.005,19.827,29.782,19.827,29.782L19.827,29.782z"/>
					<path style="fill:#097754;" d="M20.37,30.246c0,0-0.357,0.361-0.451,0.747c-0.094,0.386,0.074,0.798,0.074,0.798
						s0.324-0.256,0.419-0.642C20.506,30.763,20.37,30.246,20.37,30.246L20.37,30.246z"/>
					<path style="fill:#097754;" d="M21.263,32.575c0,0,0.162,0.337,0.203,0.619c0.041,0.282,0.003,0.38,0.003,0.38
						s-0.167,0.164-0.242,0.261c-0.096,0.124-0.11,0.351-0.11,0.351s-0.335-0.499-0.284-0.863
						C20.884,32.959,21.263,32.575,21.263,32.575L21.263,32.575z"/>
					<path style="fill:#097754;" d="M21.97,33.356c0,0-0.429,0.284-0.6,0.575c-0.171,0.291-0.082,0.589-0.082,0.589
						s0.306-0.027,0.477-0.318C21.935,33.911,21.97,33.356,21.97,33.356L21.97,33.356z"/>
					<path style="fill:#097754;" d="M19.148,34.554c0,0,0.619-0.017,0.997,0.076c0.378,0.093,0.516,0.296,0.516,0.296
						s-0.425,0.199-0.804,0.106C19.479,34.939,19.148,34.554,19.148,34.554L19.148,34.554z"/>
					<path style="fill:#097754;" d="M19.043,33.819c0,0,0.279,0.433,0.64,0.59c0.498,0.216,1.074,0.111,1.074,0.111
						s-0.313-0.384-0.744-0.553C19.583,33.799,19.043,33.819,19.043,33.819L19.043,33.819z"/>
				</g>
				<path d="M40.235,25.319l0.081,0.171c0,0-0.131,0.045-0.19,0.161c-0.059,0.116,0.039,0.281,0.039,0.281s-0.681-0.059-0.787,0.01
					c-0.096,0.062,0.041,0.534-0.023,0.932c-0.088,0.555-0.307,0.508-0.316,0.616c-0.009,0.105,0.084,0.268,0.084,0.268
					s-0.128,0.04-0.155,0.094c-0.044,0.086,0.03,0.244-0.023,0.348c-0.296,0.581-0.733,1.438-1.022,2.006
					c-0.04,0.079-0.149,0.109-0.203,0.216c-0.05,0.098-0.01,0.242-0.01,0.242s-0.192,0.011-0.258,0.142
					c-0.071,0.139-0.029,0.326-0.029,0.326s-0.121,0.015-0.181,0.132c-0.064,0.125,0.044,0.19,0.016,0.245
					c-0.389,0.762-0.846,1.661-1.125,2.209c-0.103,0.202-0.462,0.242-0.671,0.651c-0.202,0.397,0.087,0.69,0.087,0.69
					s-0.301,0.027-0.38,0.184c-0.081,0.16-0.017,0.402,0.2,0.513c0.217,0.11,0.454,0.021,0.535-0.139
					c0.08-0.157-0.081-0.416-0.081-0.416s0.407,0.059,0.609-0.339c0.209-0.41,0.033-0.721,0.135-0.922
					c0.279-0.548,0.737-1.447,1.125-2.209c0.028-0.055,0.143-0.007,0.206-0.132c0.059-0.117,0-0.222,0-0.222
					s0.178-0.077,0.248-0.216c0.067-0.13-0.035-0.293-0.035-0.293s0.14-0.05,0.19-0.148c0.054-0.107,0.014-0.211,0.055-0.29
					c0.289-0.567,0.726-1.425,1.022-2.006c0.053-0.104,0.224-0.14,0.268-0.226c0.027-0.053-0.016-0.181-0.016-0.181
					s0.188-0.019,0.268-0.087c0.082-0.07-0.084-0.221,0.313-0.619c0.285-0.285,0.744-0.453,0.738-0.568
					c-0.007-0.127-0.455-0.642-0.455-0.642s0.189-0.016,0.248-0.132c0.059-0.116,0.019-0.252,0.019-0.252l0.187-0.032l0-0.887
					L40.235,25.319z M34.053,37.67c-0.028,0.055-0.033,0.131,0,0.197c0,0-0.226-0.071-0.303-0.032c-0.073,0.036,0,1.1,0,1.1
					s0.9-0.568,0.887-0.648c-0.014-0.085-0.203-0.229-0.203-0.229c0.073-0.012,0.13-0.057,0.158-0.113
					c0.03-0.058,0.034-0.225-0.171-0.329c-0.077-0.039-0.145-0.051-0.2-0.045C34.129,37.579,34.072,37.634,34.053,37.67
					L34.053,37.67z"/>
				<g>
					<path style="fill:#F5D402;" d="M40.399,25.354l0.426,0.216l-0.006-0.513L40.399,25.354z"/>
					<path style="fill:#F5D402;" d="M40.235,25.664c-0.055,0.107-0.002,0.245,0.119,0.306c0.121,0.062,0.261,0.023,0.316-0.084
						c0.055-0.107,0.001-0.245-0.119-0.306c-0.045-0.023-0.093-0.032-0.139-0.029C40.336,25.556,40.269,25.597,40.235,25.664
						L40.235,25.664z"/>
					<path style="fill:#F5D402;" d="M39.503,26.054c-0.045,0.029,0.016,0.412,0.003,0.738c-0.012,0.308-0.111,0.394-0.164,0.5
						c-0.05,0.098-0.229,0.213-0.229,0.213l0.148,0.148c0,0,0.097-0.15,0.248-0.448c0.179-0.351,0.173-0.988,0.226-1.022
						c0.046-0.03,0.419-0.123,0.419-0.123s-0.343-0.019-0.532-0.016C39.559,26.045,39.513,26.048,39.503,26.054z"/>
					<path style="fill:#F5D402;" d="M39.542,27.825c0,0,0.05-0.138,0.223-0.477c0.209-0.409,0.654-0.706,0.664-0.78
						c0.011-0.076-0.155-0.435-0.155-0.435s-0.393,0.075-0.448,0.129c-0.054,0.052-0.03,0.584-0.239,0.993
						c-0.173,0.339-0.258,0.464-0.258,0.464L39.542,27.825z"/>
					<path style="fill:#F5D402;" d="M40.545,26.596c0.003,0.062-0.514,0.432-0.693,0.784c-0.152,0.298-0.216,0.464-0.216,0.464
						l0.206,0.032c0,0-0.014-0.212,0.035-0.31c0.054-0.106,0.068-0.235,0.31-0.426c0.256-0.202,0.603-0.379,0.6-0.432
						c-0.003-0.049-0.387-0.526-0.387-0.526S40.542,26.542,40.545,26.596L40.545,26.596z"/>
					<path style="fill:#F5D402;" d="M39.029,28.895c0.311-0.61,0.406-0.652,0.445-0.729c0.042-0.083,0.032-0.194-0.106-0.265
						c-0.052-0.026-0.096-0.033-0.135-0.029c-0.065,0.007-0.112,0.048-0.139,0.1c-0.039,0.077-0.018,0.18-0.329,0.79l-0.706,1.383
						c0,0-0.074,0.136,0.065,0.206c0.139,0.07,0.2-0.071,0.2-0.071L39.029,28.895z"/>
					<path style="fill:#F5D402;" d="M37.781,30.482c-0.038,0.076,0.027,0.187,0.148,0.248c0.121,0.061,0.252,0.05,0.29-0.026
						c0.038-0.076-0.031-0.187-0.152-0.248c-0.06-0.031-0.122-0.043-0.174-0.039C37.842,30.422,37.8,30.444,37.781,30.482z"/>
					<path style="fill:#F5D402;" d="M37.52,30.875c-0.05,0.098,0.028,0.238,0.174,0.313c0.146,0.075,0.305,0.056,0.355-0.042
						c0.05-0.098-0.028-0.238-0.174-0.313c-0.055-0.028-0.109-0.043-0.161-0.045C37.627,30.784,37.551,30.814,37.52,30.875
						L37.52,30.875z"/>
					<path style="fill:#F5D402;" d="M37.355,31.314c-0.038,0.076,0.028,0.187,0.148,0.248c0.121,0.062,0.252,0.05,0.29-0.026
						c0.038-0.076-0.028-0.187-0.148-0.248c-0.06-0.031-0.125-0.043-0.177-0.039C37.416,31.254,37.375,31.276,37.355,31.314
						L37.355,31.314z"/>
					<path style="fill:#F5D402;" d="M37.249,31.733c0,0-0.784,1.543-1.061,2.086c-0.088,0.173-0.461,0.282-0.606,0.568
						c-0.147,0.288-0.043,0.557,0.148,0.655c0.191,0.098,0.473,0.027,0.619-0.261c0.146-0.286,0.015-0.652,0.103-0.826
						c0.277-0.543,1.061-2.086,1.061-2.086s0.077-0.136-0.061-0.206c-0.035-0.018-0.065-0.019-0.09-0.016
						C37.285,31.656,37.249,31.733,37.249,31.733z"/>
					<path style="fill:#F5D402;" d="M35.265,35.316c-0.059,0.115,0.008,0.269,0.151,0.342c0.143,0.073,0.309,0.038,0.368-0.077
						c0.059-0.115-0.012-0.269-0.155-0.342c-0.054-0.027-0.108-0.04-0.161-0.039C35.38,35.202,35.302,35.244,35.265,35.316
						L35.265,35.316z"/>
					<path style="fill:#F5D402;" d="M34.221,37.673c-0.045,0.002-0.082,0.016-0.097,0.045c-0.03,0.059,0.032,0.152,0.139,0.206
						c0.107,0.054,0.218,0.049,0.248-0.01c0.03-0.059-0.032-0.152-0.139-0.206C34.319,37.681,34.265,37.672,34.221,37.673
						L34.221,37.673z"/>
					<path style="fill:#F5D402;" d="M33.853,37.963v0.761l0.619-0.445c0,0-0.084-0.148-0.268-0.242
						C34.021,37.944,33.853,37.963,33.853,37.963L33.853,37.963z"/>
				</g>
			</g>
			<g>
				<path style="fill:#F5D402;" d="M34.245,21.013c0-0.417,0.548-0.829,0.548-0.829h-13.37c0,0,0.548,0.411,0.548,0.829v9.952
					c0,0.262,0.081,0.433,0.21,0.6c0.129,0.18,0.403,0.428,0.687,0.613c0.878,0.57,2.346,1.172,3.457,1.677
					c0.926,0.421,1.302,0.591,1.783,1.187c0.481-0.596,0.861-0.766,1.787-1.187c1.111-0.505,2.579-1.107,3.457-1.677
					c0.284-0.185,0.558-0.433,0.687-0.613c0.129-0.167,0.206-0.338,0.206-0.6L34.245,21.013z"/>
				<path style="fill:#D10429;" d="M22.288,26.644v-5.631c0-0.319-0.161-0.513-0.161-0.513H34.09c0,0-0.161,0.194-0.161,0.513
					l0.003,5.631l-5.822,1.764L22.288,26.644z"/>
				<path style="fill:#0B45BB;" d="M33.932,26.644l-3.605-0.068h-4.434l-3.605,0.068v4.321c0,0.217,0.225,0.726,1.525,1.374
					c2.149,1.071,3.8,1.571,4.295,2.18c0.495-0.609,2.147-1.109,4.295-2.18c1.3-0.648,1.525-1.156,1.525-1.374L33.932,26.644z"/>
				<g>
					<path d="M30.24,26.418c0,0,2.08-0.524,2.08-2.748c0-1.736-2.085-2.598-2.145-3.012c-0.204,0.717,0.697,1.707,0.697,2.88
						c0,1.517-1.119,1.59-1.119,1.59c-0.262,0-0.368,0.187-0.471,0.187c-0.22-0.023-0.324-0.303-0.542-0.303
						c-0.205,0-0.362,0.316-0.632,0.316c-0.27,0-0.424-0.316-0.629-0.316c-0.218,0-0.321,0.28-0.542,0.303
						c-0.103,0-0.209-0.187-0.471-0.187c0,0-1.119-0.073-1.119-1.59c0-1.173,0.9-2.163,0.697-2.88
						c-0.059,0.414-2.144,1.276-2.144,3.012c0,2.223,2.08,2.748,2.08,2.748l-0.593,1.08c0,0,0.86,0.043,1.316,0.432
						c0.55,0.469,0.497,1.463,0.497,2.186c0,0.57-0.072,1.171-0.364,1.419c-0.393,0.333-0.658,0.357-0.658,0.748
						c0,0.326,0.251,0.391,0.658,0.606c0.522,0.275,0.498,0.645,1.274,0.645c0.776,0,0.755-0.369,1.277-0.645
						c0.407-0.215,0.658-0.28,0.658-0.606c0-0.391-0.265-0.415-0.658-0.748c-0.292-0.248-0.364-0.849-0.364-1.419
						c0-0.723-0.053-1.717,0.497-2.186c0.456-0.389,1.316-0.432,1.316-0.432L30.24,26.418z"/>
					<path d="M28.108,20.813l-0.361,1.026l-0.984-0.468l0.468,0.984l-1.025,0.364l1.025,0.364l-0.468,0.98l0.984-0.468l0.361,1.025
						l0.364-1.025l0.984,0.468l-0.468-0.98l1.025-0.364l-1.025-0.364l0.468-0.984l-0.984,0.468L28.108,20.813z"/>
					<path d="M25.893,26.577c0,0-1.284-0.314-1.764-0.948c-0.839,0.754-1.841,1.016-1.841,1.016s1.046,0.472,1.841,1.074
						C24.495,27.193,25.893,26.577,25.893,26.577L25.893,26.577z"/>
					<path d="M30.327,26.577c0,0,1.398,0.616,1.764,1.142c0.795-0.602,1.841-1.074,1.841-1.074s-1.003-0.261-1.841-1.016
						C31.611,26.262,30.327,26.577,30.327,26.577L30.327,26.577z"/>
					<path d="M26.419,27.943l-0.5,0.5l0.5,0.5l0.5-0.5L26.419,27.943z"/>
					<path d="M29.801,27.943l-0.5,0.5l0.5,0.5l0.5-0.5L29.801,27.943z"/>
					<path d="M26.293,30.862c0,0.631-0.061,0.964-0.061,0.964s0.705-0.207,0.845-0.922c0.066-0.335,0.139-1.57-0.2-1.78
						l-0.919-0.181C26.057,29.189,26.293,29.95,26.293,30.862L26.293,30.862z"/>
					<path d="M29.343,29.124c-0.339,0.21-0.266,1.445-0.2,1.78c0.14,0.715,0.845,0.922,0.845,0.922s-0.061-0.333-0.061-0.964
						c0-0.912,0.236-1.673,0.335-1.919L29.343,29.124z"/>
					<path d="M24.126,29.159c-0.317,0.079-0.508,0.402-0.429,0.719c0.012,0.049,0.032,0.093,0.055,0.135
						c-0.046-0.015-0.094-0.026-0.145-0.029c-0.02-0.001-0.041-0.001-0.061,0c-0.3,0.01-0.55,0.246-0.571,0.551
						c-0.022,0.326,0.225,0.607,0.551,0.629c0.049,0.003,0.096,0.002,0.142-0.006c-0.028,0.038-0.052,0.08-0.071,0.126
						c-0.122,0.303,0.026,0.652,0.329,0.774c0.303,0.122,0.649-0.029,0.771-0.332c0.019-0.046,0.029-0.091,0.036-0.139
						c0.028,0.039,0.061,0.074,0.1,0.106c0.251,0.21,0.626,0.176,0.835-0.074c0.21-0.251,0.176-0.622-0.074-0.832
						c-0.038-0.032-0.08-0.057-0.123-0.077c0.046-0.015,0.09-0.035,0.132-0.061c0.277-0.174,0.361-0.542,0.187-0.819
						c-0.119-0.19-0.329-0.288-0.539-0.274c-0.095,0.006-0.191,0.036-0.277,0.09c-0.042,0.027-0.08,0.056-0.113,0.09
						c0-0.048-0.004-0.097-0.016-0.145c-0.07-0.277-0.324-0.46-0.6-0.448C24.206,29.145,24.166,29.15,24.126,29.159L24.126,29.159z"
						/>
					<path d="M30.414,30.881c0.064,0.604,0.555,1.11,1.161,1.254c-0.103-0.169-0.172-0.358-0.194-0.558
						c-0.076-0.716,0.478-1.296,1.235-1.296c0.119,0,0.235,0.015,0.348,0.042c-0.267-0.438-0.769-0.742-1.316-0.742
						C30.892,29.582,30.338,30.165,30.414,30.881z"/>
				</g>
				<g>
					<path style="fill:#FFD200;" d="M25.045,23.539c0,1.142,0.609,1.815,1.422,1.815c0.155,0,0.325,0.21,0.471,0.21
						c0.238,0,0.397-0.264,0.542-0.264c0.184,0,0.309,0.29,0.629,0.29c0.32,0,0.448-0.29,0.632-0.29
						c0.145,0,0.303,0.264,0.542,0.264c0.146,0,0.316-0.21,0.471-0.21c0.813,0,1.422-0.674,1.422-1.815
						c0-0.931-0.782-2.067-0.697-2.251c0,0,1.525,1.094,1.525,2.383c0,2.076-2.106,2.59-2.106,2.59l0.474,1.067
						c0,0-0.653,0.098-1.051,0.419c-0.532,0.429-0.539,1.587-0.539,2.37c0,0.923,0.034,1.314,0.368,1.564
						c0.351,0.264,0.616,0.321,0.616,0.59c0,0.235-0.274,0.33-0.629,0.487c-0.404,0.178-0.444,0.487-1.029,0.487
						c-0.585,0-0.622-0.309-1.026-0.487c-0.355-0.156-0.629-0.252-0.629-0.487c0-0.269,0.264-0.326,0.616-0.59
						c0.333-0.25,0.368-0.641,0.368-1.564c0-0.783-0.007-1.941-0.539-2.37c-0.399-0.322-1.051-0.419-1.051-0.419l0.474-1.067
						c0,0-2.106-0.513-2.106-2.59c0-1.289,1.525-2.383,1.525-2.383C25.827,21.472,25.045,22.607,25.045,23.539L25.045,23.539z
						 M27.312,32.114c-0.414,0-0.677,0.087-0.677,0.213c0,0.126,0.264,0.21,0.677,0.21c0.11,0,0.235-0.064,0.235-0.21
						S27.422,32.114,27.312,32.114L27.312,32.114z M28.908,32.114c-0.11,0-0.235,0.067-0.235,0.213c0,0.145,0.125,0.21,0.235,0.21
						c0.414,0,0.677-0.084,0.677-0.21C29.585,32.201,29.322,32.114,28.908,32.114L28.908,32.114z"/>
					<path style="fill:#FFD200;" d="M28.112,21.504l0.232,0.655l0.626-0.3l-0.297,0.629l0.651,0.232l-0.651,0.232l0.297,0.626
						l-0.626-0.297l-0.235,0.651l-0.232-0.651l-0.626,0.297l0.297-0.626l-0.651-0.232l0.651-0.232l-0.297-0.629l0.626,0.3
						L28.112,21.504L28.112,21.504z"/>
					<path style="fill:#FFD200;" d="M25.206,26.615l-1.077,0.8l-0.013,0.016l-0.023-0.019L22.9,26.664c0,0,0.761-0.262,1.209-0.719
						C24.533,26.43,25.206,26.615,25.206,26.615L25.206,26.615z"/>
					<path style="fill:#FFD200;" d="M33.319,26.664c0,0-0.794,0.396-1.193,0.748l-0.022,0.019l-0.013-0.016
						c-0.377-0.433-1.077-0.8-1.077-0.8s0.673-0.186,1.096-0.671C32.558,26.401,33.319,26.664,33.319,26.664z"/>
					<path style="fill:#FFD200;" d="M26.419,28.182l0.261,0.261l-0.261,0.265l-0.264-0.265L26.419,28.182z"/>
					<path style="fill:#FFD200;" d="M29.801,28.182l0.265,0.261l-0.265,0.265l-0.261-0.265L29.801,28.182z"/>
					<path style="fill:#FFD200;" d="M26.773,29.324c0.182,0.252,0.151,0.659,0.151,1.226c0,0.571-0.429,0.79-0.429,0.79
						c0-1.373-0.142-1.703-0.216-2.119L26.773,29.324z"/>
					<path style="fill:#FFD200;" d="M29.94,29.22c-0.075,0.416-0.216,0.746-0.216,2.119c0,0-0.429-0.219-0.429-0.79
						c0-0.566-0.031-0.974,0.152-1.225L29.94,29.22L29.94,29.22z"/>
					<path id="leaf" style="fill:#FFD200;" d="M24.745,29.74c0.013,0.051,0.014,0.102,0.01,0.152
						c-0.004,0.041-0.015,0.079-0.029,0.116c-0.071-0.026-0.149-0.039-0.229-0.039c-0.199,0-0.377,0.088-0.5,0.226
						c-0.032-0.028-0.06-0.06-0.084-0.097c-0.026-0.041-0.049-0.086-0.061-0.135c-0.062-0.246,0.089-0.496,0.335-0.558
						c0.031-0.008,0.063-0.012,0.094-0.013C24.494,29.382,24.691,29.524,24.745,29.74L24.745,29.74z"/>
					<g transform="rotate(72,838.89,486.468)">
						<path id="leaf_1_" style="fill:#FFD200;" d="M25.433,30.6c-0.045,0.028-0.093,0.045-0.141,0.056
							c-0.04,0.009-0.079,0.01-0.119,0.008c0.003-0.076-0.009-0.153-0.034-0.23c-0.061-0.189-0.2-0.332-0.369-0.406
							c0.017-0.039,0.038-0.076,0.066-0.11c0.031-0.038,0.066-0.073,0.11-0.1c0.215-0.135,0.499-0.069,0.634,0.147
							c0.017,0.027,0.031,0.056,0.041,0.085C25.695,30.251,25.621,30.482,25.433,30.6L25.433,30.6z"/>
					</g>
					<g transform="rotate(144,838.89,486.468)">
						<path id="leaf_2_" style="fill:#FFD200;" d="M24.827,31.52c-0.041-0.034-0.071-0.074-0.097-0.117
							c-0.021-0.036-0.034-0.072-0.045-0.111c0.073-0.021,0.143-0.056,0.208-0.103c0.161-0.117,0.254-0.293,0.272-0.476
							c0.043,0.004,0.084,0.013,0.125,0.029c0.045,0.018,0.09,0.041,0.129,0.074c0.195,0.163,0.22,0.454,0.057,0.648
							c-0.02,0.024-0.044,0.046-0.068,0.065C25.24,31.662,24.997,31.662,24.827,31.52L24.827,31.52z"/>
					</g>
					<g transform="rotate(216,838.89,486.468)">
						<path id="leaf_3_" style="fill:#FFD200;" d="M23.765,31.228c0.02-0.049,0.048-0.091,0.081-0.128
							c0.027-0.031,0.058-0.055,0.092-0.077c0.042,0.063,0.097,0.119,0.162,0.166c0.161,0.117,0.357,0.151,0.537,0.111
							c0.009,0.042,0.013,0.084,0.011,0.128c-0.003,0.049-0.011,0.098-0.03,0.146c-0.095,0.236-0.364,0.349-0.599,0.254
							c-0.029-0.012-0.058-0.028-0.083-0.045C23.758,31.664,23.682,31.434,23.765,31.228L23.765,31.228z"/>
					</g>
					<g transform="rotate(288,838.89,486.468)">
						<path id="leaf_4_" style="fill:#FFD200;" d="M23.714,30.128c0.053,0.004,0.101,0.018,0.147,0.038
							c0.038,0.016,0.07,0.038,0.101,0.063c-0.047,0.06-0.083,0.129-0.108,0.206c-0.061,0.189-0.033,0.386,0.06,0.545
							c-0.037,0.022-0.076,0.039-0.118,0.05c-0.047,0.013-0.097,0.02-0.148,0.016c-0.254-0.017-0.444-0.238-0.427-0.491
							c0.002-0.032,0.008-0.064,0.017-0.093C23.297,30.256,23.493,30.113,23.714,30.128L23.714,30.128z"/>
					</g>
					<circle style="fill:#FFD200;" cx="24.497" cy="30.643" r="0.445"/>
					<path style="fill:#FFD200;" d="M32.31,30.043c-0.739,0.143-1.271,0.795-1.193,1.558c-0.235-0.195-0.408-0.458-0.439-0.748
						c-0.06-0.566,0.351-1.003,0.971-1.003C31.886,29.85,32.113,29.922,32.31,30.043L32.31,30.043z"/>
				</g>
			</g>
		</g>
	</g>
</g>
</svg>
