<?xml version="1.0" encoding="utf-8"?>
<!-- Generator: Adobe Illustrator 18.1.1, SVG Export Plug-In . SVG Version: 6.00 Build 0)  -->
<!DOCTYPE svg PUBLIC "-//W3C//DTD SVG 1.1//EN" "http://www.w3.org/Graphics/SVG/1.1/DTD/svg11.dtd">
<svg version="1.1" id="Layer_179" xmlns="http://www.w3.org/2000/svg" xmlns:xlink="http://www.w3.org/1999/xlink" x="0px" y="0px"
	 width="56.7px" height="56.7px" viewBox="0 0 56.7 56.7" enable-background="new 0 0 56.7 56.7" xml:space="preserve">
<g>
	<path fill="#C40308" d="M28.3,1.4c-14.9,0-27,12.1-27,26.9c0,14.8,12.1,26.9,27,26.9c14.9,0,27-12.1,27-26.9
		C55.3,13.4,43.2,1.4,28.3,1.4L28.3,1.4z"/>
</g>
<g>
	<path fill="#D3AE3B" d="M28.3,3c14,0,25.3,11.3,25.3,25.3c0,13.9-11.4,25.3-25.3,25.3C14.4,53.6,3,42.2,3,28.3
		C3,14.3,14.4,3,28.3,3 M28.3,0C12.7,0,0,12.7,0,28.3c0,15.6,12.7,28.3,28.3,28.3c15.6,0,28.3-12.7,28.3-28.3C56.7,12.7,44,0,28.3,0
		L28.3,0z"/>
</g>
<g>
	<path fill="#B96B29" d="M40.7,27.9c0.3-0.1,1.5-0.4,2.3-1.1c0.8-0.7,1-1.2,1-1.5c0.1-0.3,0.1-0.5-0.1-0.3c-0.2,0.2-0.8,0.7-1.3,0.9
		c-0.4,0.2-0.8,0.4-1.1,0.4c-0.2,0.1-0.4,0.1-0.2,0c0.2-0.1,1-0.3,1.5-0.9c0.6-0.6,1-1.4,1-1.9c0-0.5,0-0.5-0.2-0.4
		c-0.2,0.1-0.8,0.9-1.1,1.1c-0.3,0.3-0.9,0.7-1.1,0.8c-0.3,0.2-0.7,0.3-0.1,0c0.5-0.4,1.5-1.2,1.9-2.3c0.4-1.1,0.3-1.8,0.3-1.9
		c0-0.1-0.1-0.3-0.2-0.1c-0.1,0.2-0.8,1.5-1.3,2.1c-0.5,0.6-0.4,0.5-0.5,0.6c-0.1,0.1-0.3,0.3-0.1-0.1c0.3-0.3,0.8-1.1,1.1-1.8
		c0.3-0.7,0.4-1.5,0.4-1.9c0-0.4-0.2-1-0.3-1.2c-0.1-0.2-0.2-0.3-0.2-0.1c0,0.2-0.5,1.5-0.7,2.2c-0.2,0.6-0.7,1.4-0.8,1.5
		c-0.1,0.1-0.3,0.4-0.1-0.1c0.3-0.5,0.8-1.9,0.8-3.3c0.1-1.3-0.1-2.1-0.3-2.5c-0.2-0.4-0.3-0.5-0.3-0.5s0,0.9-0.2,2.2
		c-0.3,1.3-0.7,2-0.7,2s-0.2,0.2-0.1-0.1c0.1-0.2,0.2-0.7,0.3-1.5c0.1-0.8,0.1-1.8-0.2-2.6c-0.3-0.9-0.7-1.3-0.7-1.3
		c-0.1,1.3-0.1,2.9-0.6,4.2c-0.1-0.1-0.2-0.2-0.2,0.1c-0.1,0.4-0.3,1.2-0.8,2.3c-0.6,1-0.8,1.2-0.8,1.2s-0.1-0.3-0.2-0.4
		c-0.1-0.1-0.1-0.2-0.2,0c-0.1,0.2-0.4,0.9-1.1,1.7c-0.7,0.8-1.1,1.2-1.1,1.8c0,0.6,0.3,0.9,0.8,1.2c0.4,0.3,0.5,0.4,0.4,0.8
		c-0.1,0.3-0.4,0.4-0.8,0.5c-0.3,0-0.7,0-0.9,0.1C34,27.8,34,28,33.8,28.2c-0.1,0.1-0.2,0.2-0.3,0.3c0,0-0.1,0-0.1,0
		c0-1.6,0.6-2.3,0.6-2.3l-1.7-2c-0.1,0-0.2,0.1-0.3,0.1c0,0,0,0-0.1-0.1c-0.2-0.3-0.3-0.5-0.3-0.9c0.1,0,0.3,0.1,0.4,0
		c0.2,0,0-0.2,0-0.3c0-0.1-0.1-0.7-0.1-0.9c0-0.2,0-0.3,0-0.3s0.3,0.3,0.4,0.3c0.2,0,0.1-0.2,0.2-0.3c0-0.3,0.2-0.6,0.4-0.8
		c0,0,0.3,0.2,0.6,0.2c0.3,0,0.7-0.1,1.1-0.4c0.3-0.3,0.3-0.4,0.3-0.4s0.6,0.2,1.1,0.2c0.5,0,1-0.1,1.2-0.6c0.2-0.5-0.1-1-0.1-1
		c-0.1-0.1-0.2-0.1-0.2,0c0,0.1,0,0.5-0.3,0.7c-0.3,0.2-0.5,0.2-0.8,0.1c-0.3-0.1-0.7-0.2-1.1-0.1c-0.4,0.1-0.4,0.1-0.5,0.1
		c0,0,0.4-0.4,0.7-0.5c0.4-0.1,0.6,0,0.7,0.2c0.1,0.1,0.2,0.4,0.3,0c0.1-0.3,0-0.7-0.1-0.9c-0.2-0.2-0.5-0.4-0.8-0.4
		c-0.4,0-0.5,0.1-0.5,0.1s-0.2-0.5-0.6-0.6c-0.6-0.1-1.2,0.1-1.6,0.4c0,0-0.4,0.1-0.8,0c-0.3-0.1-0.5-0.2-0.6-0.3
		c0-0.1,0.1-0.4,0.1-0.4s0.1,0,0.2-0.1c0.1,0,0.1-0.1,0.1-0.2c0-0.1-0.2-0.3-0.2-0.3s0-0.3,0.3-0.5c0.4-0.2,0.3-0.2,0.3-0.2
		s0.2,0,0.3,0c0.1-0.1,0.1-0.1,0.1-0.1s0.2-0.1,0.2-0.2c0.1-0.1,0.1-0.2,0-0.4c0-0.1-0.1-0.1,0-0.2c0.1-0.1,0.1-0.2,0.1-0.3
		c0-0.1,0-0.1,0-0.1s0.1,0,0.1-0.2c0-0.2-0.1-0.3-0.2-0.3c-0.1,0-0.1,0-0.1,0s0-0.1-0.1-0.3c-0.1-0.2-0.2-0.2-0.2-0.2s0.1-0.1,0-0.2
		c0-0.1-0.1-0.2-0.2-0.2c-0.1,0-0.2,0-0.2,0s-0.3-0.2-0.4-0.3c-0.1-0.1-0.2-0.1-0.2-0.1s0-0.1-0.1-0.2c-0.1-0.1-0.2-0.1-0.2-0.1
		s-0.1,0-0.1,0s-0.5-0.1-0.7-0.2c-0.2,0-0.2-0.1-0.2-0.1s-0.4-0.2-0.6-0.2c-0.2,0-0.2-0.1-0.2-0.1s0.2-0.2,0.2-0.5
		c0-0.3-0.2-0.5-0.3-0.6c-0.1-0.1-0.2-0.1-0.2-0.1l0-0.2l0.3,0l0-0.5l-0.3,0l0-0.3l-0.7,0l0,0.3l-0.3,0l0,0.5l0.3,0l0,0.2
		c0,0-0.1,0-0.2,0.1c-0.2,0.1-0.3,0.3-0.3,0.6c0,0.3,0.2,0.5,0.2,0.5s0,0-0.2,0c-0.2,0-0.6,0.2-0.6,0.2s0,0-0.2,0.1
		c-0.2,0-0.7,0.2-0.7,0.2s-0.1,0-0.1,0c-0.1,0-0.2,0-0.2,0.1c-0.1,0.1-0.1,0.2-0.1,0.2s0,0-0.2,0.1c-0.1,0.1-0.4,0.3-0.4,0.3
		s-0.1,0-0.2,0c-0.1,0-0.2,0.1-0.2,0.2c0,0.1,0,0.2,0,0.2s-0.1,0.1-0.2,0.2c-0.1,0.2-0.1,0.3-0.1,0.3s0,0-0.1,0
		c-0.1,0-0.2,0.1-0.2,0.3c0,0.2,0.1,0.2,0.1,0.2s0,0,0,0.1c0,0.1,0.1,0.2,0.1,0.3c0.1,0.1,0,0.1,0,0.2c0,0.1,0,0.3,0,0.4
		c0.1,0.1,0.2,0.2,0.2,0.2s0,0,0.1,0.1c0.1,0.1,0.3,0,0.3,0s0,0,0.3,0.2c0.4,0.2,0.3,0.5,0.3,0.5s-0.2,0.2-0.2,0.3
		c0,0.1,0,0.1,0.1,0.2c0.1,0,0.2,0.1,0.2,0.1s0.1,0.3,0.1,0.4c-0.1,0.1-0.4,0.2-0.6,0.3c-0.4,0.1-0.8,0-0.8,0
		c-0.5-0.3-1.1-0.5-1.6-0.4c-0.5,0.1-0.6,0.6-0.6,0.6s-0.1-0.1-0.5-0.1c-0.4,0-0.7,0.1-0.8,0.4c-0.2,0.2-0.2,0.6-0.1,0.9
		c0.1,0.3,0.2,0.1,0.3,0c0.1-0.1,0.3-0.3,0.7-0.2c0.3,0.1,0.7,0.5,0.7,0.5c0,0-0.1,0-0.5-0.1c-0.4-0.1-0.8,0-1.1,0.1
		c-0.3,0.1-0.5,0.1-0.8-0.1c-0.3-0.2-0.3-0.6-0.3-0.7s-0.2-0.1-0.2,0s-0.4,0.5-0.1,1s0.7,0.6,1.2,0.6c0.5,0,1.1-0.2,1.1-0.2
		s0,0.1,0.3,0.4s0.8,0.4,1.1,0.4c0.3,0,0.6-0.2,0.6-0.2c0.2,0.2,0.3,0.5,0.4,0.8c0,0.2,0,0.3,0.2,0.3c0.2,0,0.4-0.3,0.4-0.3
		s0,0.1,0,0.3c0,0.2,0,0.7-0.1,0.9c0,0.1-0.2,0.3,0,0.3c0.2,0,0.3,0,0.4,0c0,0.4-0.1,0.6-0.3,0.9c0,0,0,0,0,0.1
		c-0.1,0-0.2-0.1-0.3-0.1l-1.7,2c0,0,0.6,0.7,0.6,2.3v0c0,0-0.1,0-0.1,0c-0.1,0-0.2-0.1-0.3-0.3c-0.1-0.1-0.2-0.4-0.3-0.4
		c-0.1-0.1-0.6-0.1-0.9-0.1c-0.3,0-0.7-0.1-0.8-0.5c-0.1-0.3,0-0.5,0.4-0.8c0.4-0.3,0.7-0.6,0.8-1.2c0-0.6-0.4-1-1.1-1.8
		c-0.7-0.8-1-1.5-1.1-1.7c-0.1-0.2-0.1-0.1-0.2,0c-0.1,0.1-0.2,0.4-0.2,0.4S19.3,22,18.7,21c-0.6-1-0.7-1.9-0.8-2.3
		c0-0.3-0.2-0.1-0.2-0.1c-0.5-1.3-0.4-3-0.6-4.2c0,0-0.5,0.5-0.7,1.3c-0.2,0.8-0.2,1.8-0.2,2.6c0.1,0.8,0.2,1.3,0.3,1.5
		c0.1,0.3-0.1,0.1-0.1,0.1s-0.4-0.7-0.7-2c-0.3-1.3-0.2-2.2-0.2-2.2s-0.2,0.1-0.3,0.5c-0.2,0.4-0.4,1.1-0.3,2.5
		c0.1,1.3,0.6,2.8,0.8,3.3c0.3,0.5,0,0.2-0.1,0.1c-0.1-0.1-0.6-0.9-0.8-1.5c-0.2-0.6-0.7-2-0.7-2.2c0-0.2-0.1-0.1-0.2,0.1
		c-0.1,0.2-0.3,0.8-0.3,1.2c0,0.4,0.1,1.2,0.4,1.9c0.3,0.7,0.8,1.5,1.1,1.8c0.3,0.3,0.1,0.2-0.1,0.1s0,0-0.5-0.6s-1.2-1.9-1.3-2.1
		c-0.1-0.2-0.2,0-0.2,0.1c0,0.1-0.1,0.8,0.3,1.9c0.4,1.1,1.4,2,1.9,2.3c0.5,0.4,0.1,0.2-0.1,0c-0.3-0.2-0.8-0.5-1.1-0.8
		c-0.3-0.3-0.9-1-1.1-1.1c-0.2-0.1-0.2-0.2-0.2,0.4c0,0.5,0.5,1.4,1,1.9c0.6,0.6,1.3,0.8,1.5,0.9c0.2,0.1,0,0-0.2,0
		c-0.2-0.1-0.6-0.2-1.1-0.4c-0.4-0.2-1.1-0.7-1.3-0.9c-0.2-0.2-0.2,0.1-0.1,0.3c0.1,0.3,0.2,0.8,1,1.5c0.8,0.7,2,1,2.3,1.1
		c0.3,0.1,0.1,0.1,0.1,0.1s-0.1,0-0.8-0.2c-0.7-0.1-1.7-0.7-2-0.9c-0.3-0.2-0.3-0.2-0.3,0.1c0,0.4,0.4,1.1,1,1.5s1.7,0.6,2,0.6
		c0.3,0,0.2,0.1,0.1,0.1c-0.1,0-0.5,0-1-0.1c-0.4,0-1.1-0.3-1.3-0.3c0-0.1,0-0.2-0.1-0.2c0-0.1-0.1-0.1-0.1-0.1c0,0-0.1,0.1-0.2,0.1
		c-0.2,0.1-0.2,0-0.2-0.1c0,0,0-0.2,0-0.4c0-0.1-0.1-0.1-0.1-0.1c-0.1,0-0.4,0.2-0.5,0.2c-0.1,0.1,0,0.2,0.1,0.3
		c0.1,0.1,0.2,0.3,0.2,0.3s-0.3,0.1-0.4,0.1c-0.1,0-0.1,0.1,0,0.2c0,0.1,0.2,0.4,0.2,0.5c0,0.1,0.1,0,0.1,0l0.3-0.2l0.1,0.4
		c0,0-0.1,0-0.3,0.1c-0.2,0.1-0.1,0.3,0.1,0.3c0.2,0.1,0.4,0.2,0.7,0.6c0.3,0.5,0.3,1.3,0.5,2.6c0.2,1.3,1,2,1.1,2.1
		c0.1,0.1,0,0.1,0,0.1s-0.1,0.2-0.1,0.4c0,0.3,0.3,0.4,0.4,0.4c0.1,0,0.1,0.2,0.1,0.2s-0.1,0.3,0,0.8c0.1,0.5,0.5,1.1,0.6,1.2
		c0.1,0.1,0.1,0.1,0.1,0.2c0,0-0.1,0-0.2,0.1c-0.1,0.1-0.3,0.3-0.4,0.4c-0.1,0.2-0.1,0.3,0,0.5c0,0.2,0.4,0.5,0.4,0.5
		s-0.1,0-0.1,0.2c0,0.2,0.1,0.4,0.3,0.5c0.2,0.1,0.5,0.2,0.5,0.2s0,0.2,0,0.3c0,0.1,0.2,0.2,0.4,0.3c0.1,0.1,0.4,0,0.5,0
		c0.1,0,0.2,0,0.2,0.1c0.1,0.1,0,0.5,0,0.7c0,0.2-0.1,0.3,0,0.4c0.1,0.1,0.2,0,0.4-0.1c0.2-0.1,0.2,0,0.3,0.1
		c0.1,0.1,0.4,0.2,0.4,0.2c0.1,0,0-0.2,0-0.3s0-0.4,0.1-0.4c0,0,0.3,0,0.5-0.1c0.1,0,0.2-0.1,0.2-0.2c0-0.1-0.1-0.1-0.4-0.2
		c-0.3-0.1-0.3-0.2-0.5-0.3c-0.2-0.1-0.1-0.2-0.1-0.2c0,0,0.1-0.1,0.1-0.2c0-0.1,0-0.2,0-0.2s0.1-0.1,0.2-0.2
		c0.1-0.1,0.1-0.2,0.2-0.3s0.2-0.4,0.3-0.5c0.1-0.1,0.3-0.2,0.4-0.4c0.1-0.2,0.5-0.4,0.6-0.5c0.2-0.1,0.7-0.4,0.7-0.4s0,0.3,0.1,0.5
		c0.1,0.1,0.3-0.1,0.9-0.5c0.6-0.4,1-0.6,1-0.6s0.1,0.2,0.3,0.4c0.2,0.2,0.3,0,1-1c0.6-0.8,1.3-1.5,1.6-1.8c0.1,0,0.1,0,0.2,0.1
		c0,0,0,0.1,0,0.1c-0.1,0.2-0.2,0.3-0.3,0.6c-0.1,0.3-0.4,0.4-0.6,0.7c-0.2,0.4-0.3,0.6-0.3,1c0,0.4,0.2,0.5,0.2,0.5
		s-0.4,0.4-0.5,0.6c-0.1,0.3-0.2,0.8-0.2,0.8s-0.1,0-0.2,0.3c-0.1,0.3-0.4,0.3-0.7,0.7c-0.3,0.3-0.7,0.5-0.9,0.6
		c-0.2,0.1-0.1,0.2-0.1,0.4c0,0.1,0.3,0.3,0.6,0.4c0.3,0.1,0.4,0.1,0.6,0.1c0.2,0,0,0.1,0,0.2c-0.1,0.1-0.2,0.4-0.2,0.7
		c0,0.3,0.3,0.2,0.5,0.2c0.3,0,0.6-0.2,0.6-0.2s0,0,0,0.1c0,0.1,0,0.2,0,0.4c0,0.3,0,0.4,0.1,0.4c0.1,0.1,0.2-0.1,0.3-0.1
		c0.1,0,0.3-0.1,0.5-0.2c0.3-0.1,0.4-0.2,0.4-0.2s-0.1,0.1-0.1,0.3c0,0.2,0,0.4,0,0.6c0,0.2,0.2,0.3,0.3,0.5
		c0.2,0.2,0.2,0.1,0.4-0.1c0.1-0.2,0.4-0.5,0.4-0.5s0,0.1,0.2,0.6c0.2,0.6,0.8,1.1,0.8,1.1s0.6-0.5,0.8-1.1c0.2-0.6,0.2-0.6,0.2-0.6
		s0.3,0.3,0.4,0.5c0.1,0.2,0.2,0.3,0.4,0.1c0.2-0.2,0.3-0.4,0.3-0.5c0-0.2,0-0.4,0-0.6c0-0.2-0.1-0.3-0.1-0.3s0.1,0.1,0.4,0.2
		c0.3,0.1,0.4,0.2,0.5,0.2c0.1,0,0.3,0.2,0.3,0.1c0.1-0.1,0.1-0.2,0.1-0.4c0-0.3,0-0.3,0-0.4c0-0.1,0-0.1,0-0.1s0.3,0.1,0.6,0.2
		c0.3,0,0.5,0.1,0.5-0.2c0-0.3-0.1-0.6-0.2-0.7c-0.1-0.1-0.2-0.2,0-0.2c0.2,0,0.3,0,0.6-0.1c0.3-0.1,0.5-0.2,0.6-0.4
		c0-0.1,0.1-0.2-0.1-0.4c-0.2-0.1-0.6-0.3-0.9-0.6c-0.3-0.3-0.6-0.4-0.7-0.7c-0.1-0.3-0.2-0.3-0.2-0.3s-0.1-0.5-0.2-0.8
		c-0.1-0.3-0.5-0.6-0.5-0.6s0.2-0.1,0.2-0.5c0-0.4-0.1-0.7-0.3-1c-0.2-0.4-0.5-0.4-0.6-0.7c-0.1-0.3-0.2-0.4-0.3-0.6
		c0,0,0-0.1,0-0.1c0.1,0,0.1-0.1,0.2-0.1c0.3,0.3,1,1,1.6,1.8c0.7,1,0.9,1.2,1,1c0.2-0.2,0.3-0.4,0.3-0.4s0.4,0.1,1,0.6
		c0.6,0.4,0.8,0.7,0.9,0.5c0.1-0.1,0.1-0.2,0.1-0.3c0,0,0.3,0.1,0.7,0.2c0.2,0.1,0.5,0.2,0.7,0.3c0.5,0.2,0.6,0.3,1,0.6
		c0.4,0.3,1,0.3,1.5,0.1c0.5-0.2,2-0.6,2.6-0.9c0.6-0.2,1-0.5,1.1-0.6c0.1-0.1,0.1-0.4,0.1-0.6c0-0.1-0.1-0.3-0.2-0.3
		c0,0,0-0.1,0-0.2c0-0.1,0-0.3-0.1-0.4c-0.1-0.1-0.1-0.1-0.1-0.4c0-0.6-0.4-1.3-1-1.6c0,0,0-0.1-0.1-0.1c0,0-0.1-0.1-0.1-0.1
		s0-0.3,0-0.4c0-0.1,0-0.1,0.1,0c0,0,0.1,0.1,0.2,0.1c0.1,0,0.2,0,0.2-0.2c0-0.1,0.1-0.3,0.1-0.4c0-0.1,0-0.1-0.1-0.1
		c0,0-0.2,0-0.3,0c-0.1,0-0.1,0-0.1-0.1c0,0,0-0.1,0.1-0.2c0.1-0.1,0-0.1-0.1-0.2c-0.1,0-0.5-0.1-0.6-0.2c-0.1,0-0.1,0.1-0.1,0.1
		c0,0,0,0.2,0,0.3c0,0.1-0.1,0.1-0.1,0c0,0-0.1-0.1-0.2-0.1c-0.1-0.1-0.1,0-0.2,0.1c0,0.1-0.1,0.4-0.1,0.5c0,0.1,0,0.2,0,0.2
		c0,0,0.2,0,0.3,0c0.1,0,0,0.1,0,0.1s-0.1,0.2-0.2,0.3c0,0.1-0.1,0.1-0.2,0.1c-0.1,0-0.2,0-0.2,0s-0.6,0-1.1,0.4
		c-0.5,0.3-0.6,0.6-0.7,0.8c-0.1,0.2-0.2,0.1-0.2,0.2c-0.1,0.1-0.3,0.3-0.3,0.4c0,0.1,0,0.2-0.2,0.3c-0.2,0.1-0.4,0.7-0.1,1
		c0.3,0.3,0.4,0.6,0.5,0.7c0.1,0.1,0,0.2-0.1,0.2c-0.1,0-0.2-0.1-0.3-0.2c-0.1-0.1-0.7-0.6-1-0.8c-0.3-0.2-0.1-0.2-0.1-0.2
		s0.1,0,0.2-0.1c0.2-0.1,0.2-0.1,0-0.2c-0.2,0-0.5-0.2-0.5-0.3c-0.1-0.1-0.1-0.2,0-0.3c0.2-0.1,0.5-0.3,0.2-0.4
		c-0.3-0.1-0.6-0.1-0.9-0.2c-0.3-0.1-0.3-0.1-0.3-0.1l0.2-0.2c0,0,0.1-0.2,0-0.2c-0.2,0-0.6-0.1-0.9-0.2c-0.7-0.3-1.2-0.8-1.3-1.5
		l0,0c0.1,0.3,0.4,0.8,0.9,0.8c0.6,0,0.7-0.2,0.6-0.4c-0.1-0.2-0.3-0.4-0.4-0.5c0-0.1-0.1-0.1,0.1,0s0.5,0.7,1.5,0.6
		c1-0.1,1-0.3,1-0.3c0-0.2-0.2-0.2-0.3-0.3c-0.1-0.1-0.1-0.1,0.1-0.1c0.2,0.1,0.7,0.2,1.3,0c0.3-0.1,0.9-0.4,1-0.7
		c0,0-0.4,0-0.7-0.2c-0.3-0.1-0.5-0.2-0.2-0.2c0.3,0.1,0.9,0.2,1.5,0c0.3-0.1,0.7-0.4,0.7-0.8c0,0-0.6-0.1-0.8-0.2
		c-0.2-0.1-0.3-0.1-0.3-0.1s0.9,0.3,1.6-0.1c0.8-0.4,0.8-0.9,0.8-1.1s0-0.2,0-0.2s-0.7,0.2-1.2,0.2c-0.5,0-0.7-0.1-0.7-0.1
		s1.5,0,2.2-0.5c0.7-0.5,0.8-1.3,0.8-1.3s-0.8,0.3-1.4,0.4c-0.5,0.1-0.9,0.1-1,0.1c-0.1,0-0.2-0.1,0.1-0.1c0.3,0,1.4-0.2,2-0.6
		c0.6-0.4,1-1.1,1-1.5c0-0.4,0-0.3-0.3-0.1c-0.3,0.2-1.3,0.7-2,0.9C40.7,28,40.6,28,40.7,27.9C40.6,28,40.3,28,40.7,27.9L40.7,27.9z
		 M14.1,29.6c-0.1,0-0.3,0.2-0.3,0.2s-0.1-0.2-0.1-0.3c0-0.1,0-0.1,0-0.1c0,0,0.2,0,0.3,0c0,0,0,0,0,0C14,29.4,14,29.5,14.1,29.6
		C14.1,29.6,14.1,29.6,14.1,29.6L14.1,29.6z M23.2,34.9c-0.2,0.3-0.7,0.7-1,0.8c-0.4,0.2-0.8,0.2-0.9,0.2c-0.2,0,0,0.2,0,0.2
		l0.2,0.2c0,0,0,0.1-0.3,0.1c-0.3,0.1-0.6,0.1-0.9,0.2c-0.3,0.1,0.1,0.3,0.2,0.4c0.2,0.1,0.1,0.2,0,0.3c-0.1,0.1-0.4,0.3-0.5,0.3
		s-0.1,0.1,0,0.2c0.2,0.1,0.6,0.1,0.6,0.1s0,0-0.3,0.2c-0.3,0.2-0.7,0.3-1,0.3c-0.3,0-0.8,0-1.4,0c-0.6,0-0.7,0-0.7,0s0-0.2-0.1-0.5
		c0-0.3-0.2-0.7-0.4-0.9c-0.1-0.2-0.4-0.6-0.4-0.6s0-0.1,0-0.2c0-0.1,0-0.2-0.1-0.4c-0.1-0.2-0.4-0.5-0.4-0.5s0-0.2,0-0.4
		c0-0.2-0.1-0.9-0.2-1.2c-0.1-0.3-0.7-1.2-0.9-1.7c-0.3-0.4-0.4-1.1-0.5-1.5c-0.1-0.5,0-0.6,0-0.8c0-0.1,0-0.1,0.1-0.2
		c0.1,0.1,0.2,0.3,0.4,0.4c0.7,0.5,2.2,0.5,2.2,0.5s-0.2,0-0.7,0.1s-1.2-0.2-1.2-0.2s0,0,0,0.2s0,0.7,0.8,1.1
		c0.8,0.4,1.6,0.1,1.6,0.1s-0.1,0.1-0.3,0.1c-0.2,0.1-0.8,0.2-0.8,0.2c0,0.5,0.4,0.7,0.7,0.8c0.6,0.2,1.2,0.1,1.5,0
		c0.3-0.1,0.1,0-0.2,0.2c-0.3,0.1-0.7,0.2-0.7,0.2c0.1,0.3,0.8,0.6,1,0.7c0.7,0.1,1.1,0.1,1.3,0s0.2,0,0.1,0.1
		c-0.1,0.1-0.3,0.1-0.3,0.3c0,0.1,0,0.2,1,0.3c1,0.1,1.3-0.5,1.5-0.6c0.2-0.2,0.2-0.1,0.1,0c0,0.1-0.2,0.3-0.4,0.5
		c-0.1,0.2-0.1,0.4,0.6,0.4c0.5,0,0.8-0.5,0.9-0.8l0,0c0,0,0,0,0,0C23.4,34.4,23.3,34.7,23.2,34.9L23.2,34.9z M31,13.9
		c-0.1-0.2-0.1-0.2-0.1-0.2s0.4,0.2,0.6,0.4c0.2,0.2,0.2,0.4,0.2,0.5c0,0.1,0,0.3,0,0.6c0,0.2,0,0.3,0,0.4c0,0.1,0.1,0.1,0.1,0.1
		s-0.2,0-0.3,0.1c-0.2,0.1-0.4,0.1-0.5,0c-0.1-0.1-0.1-0.2-0.1-0.2c0.1-0.1,0.3-0.1,0.4-0.6C31.3,14.5,31.1,14,31,13.9L31,13.9z
		 M29,15.1c0.1-0.2,0.1-0.4,0.1-0.8c-0.1-0.4-0.1-0.7-0.1-1.1c0,0,0.3,0.1,0.7,0.4c0.4,0.4,0.5,0.7,0.5,0.9c0,0.2-0.1,0.4-0.1,0.6
		c0,0.2,0,0.3,0,0.3s-0.1,0.1-0.3,0.1c-0.1,0.1-0.2,0.1-0.4,0.1c-0.2,0-0.3-0.1-0.4-0.2c-0.1-0.1-0.2-0.1-0.2-0.1S28.9,15.3,29,15.1
		L29,15.1z M27.1,13.6c0.4-0.4,0.7-0.4,0.7-0.4c0,0.4-0.1,0.7-0.1,1.1c-0.1,0.4,0,0.6,0.1,0.8c0.1,0.2,0.3,0.3,0.3,0.3
		s-0.1,0-0.2,0.1c-0.1,0.1-0.2,0.1-0.4,0.2c-0.2,0-0.3,0-0.4-0.1c-0.1-0.1-0.3-0.1-0.3-0.1s0.1-0.2,0-0.3c0-0.2-0.1-0.4-0.1-0.6
		C26.6,14.3,26.7,13.9,27.1,13.6L27.1,13.6z M25.7,15.7c-0.1,0.1-0.3,0-0.5,0c-0.2-0.1-0.3-0.1-0.3-0.1s0,0,0.1-0.1
		c0-0.1,0-0.2,0-0.4c0-0.2-0.1-0.4,0-0.6c0-0.1,0-0.3,0.2-0.5c0.2-0.2,0.6-0.4,0.6-0.4s0,0.1-0.1,0.2c-0.1,0.2-0.3,0.6-0.3,1.1
		c0,0.4,0.3,0.5,0.4,0.6C25.8,15.6,25.8,15.6,25.7,15.7L25.7,15.7z M30.9,19.5c-0.4,0.2-0.6,0.2-0.6,0.3c0,0.2,0.4,0.3,0.4,0.3
		s-0.4,0.4-0.6,0.5c-0.3,0.2-0.6,0.3-0.6,0.3s-0.1,0,0,0.2c0.1,0.2,0.2,0.3,0.3,0.3c0.1,0,0.1,0.1,0.1,0.1s-0.5,0.5-0.7,0.7
		c-0.2,0.2-0.3,0.2-0.5,0.3c-0.2,0.1-0.1,0.4,0,0.5c0,0.1,0.2,0.3,0.3,0.3c0.1,0,0.1,0.1,0,0.3c-0.1,0.1-0.4,0.5-0.5,0.7l0,0
		c-0.1-0.2-0.4-0.5-0.5-0.7c-0.1-0.2-0.1-0.2,0-0.3c0.1,0,0.2-0.2,0.3-0.3c0-0.1,0.1-0.4,0-0.5c-0.2-0.1-0.3-0.1-0.5-0.3
		c-0.2-0.2-0.7-0.7-0.7-0.7s0,0,0.1-0.1c0.1,0,0.2-0.2,0.3-0.3c0.1-0.2,0-0.2,0-0.2s-0.3-0.1-0.6-0.3c-0.3-0.2-0.6-0.5-0.6-0.5
		s0.3-0.1,0.4-0.3c0-0.2-0.2-0.1-0.6-0.3c-0.4-0.2-0.5-0.5-0.5-0.5s0.4-0.1,0.7-0.6c0.1-0.2,0.1-0.3,0.1-0.4l0,0
		c0.7,0.2,1.5,0.3,2.3,0.3c0.7,0,1.6-0.1,2.3-0.3l0,0c0,0.1,0,0.3,0.1,0.4c0.2,0.4,0.7,0.6,0.7,0.6S31.3,19.2,30.9,19.5L30.9,19.5z"
		/>
	<path fill="#D4AF3A" d="M33.2,28.1c0-1.2,0.6-2,0.6-2l-1.5-1.7c-1.4,0.6-2.7,0.6-3.9,0c-1.2,0.6-2.5,0.6-3.9,0l-1.5,1.7
		c0,0,0.6,0.8,0.6,2c0,1.2-0.2,2.1-0.4,2.7c-0.1,0.6-0.3,1.7,0.1,2.4c0.3,0.8,0.6,1.5,2,2s2,0.9,2.5,1.2c0.5,0.4,0.7,0.7,0.7,0.7
		s0.2-0.3,0.7-0.7c0.5-0.4,1.2-0.7,2.5-1.2c1.3-0.6,1.7-1.2,2-2c0.3-0.8,0.2-1.9,0.1-2.4C33.4,30.2,33.2,29.3,33.2,28.1L33.2,28.1z"
		/>
	<path fill="#B96B29" d="M32.7,28.6c-0.2-1.1,0.5-2.2,0.5-2.2l-1.3-1.5c-1,0.6-2.4,0.5-3.6-0.1c-1.2,0.6-2.6,0.6-3.6,0.1l-1.3,1.5
		c0,0,0.7,1,0.5,2.2c-0.2,1.1-0.6,3-0.5,3.7c0.1,0.7,0.6,1.6,1.2,2s1.3,0.8,1.9,1c0.6,0.2,1.1,0.6,1.4,0.8c0.3,0.2,0.4,0.4,0.4,0.4
		s0.2-0.2,0.4-0.4c0.3-0.2,0.8-0.6,1.4-0.8c0.6-0.2,1.4-0.6,1.9-1c0.5-0.5,1.1-1.3,1.2-2C33.3,31.5,32.9,29.7,32.7,28.6L32.7,28.6z"
		/>
	<path fill="#1D5E91" d="M32.6,28.7c-0.2-1.2,0.4-2.2,0.4-2.2l-1.2-1.3c-1,0.5-2.2,0.4-3.5-0.1c-1.3,0.5-2.5,0.6-3.5,0.1l-1.2,1.3
		c0,0,0.6,1,0.4,2.2c-0.2,1.2-0.5,2.6-0.4,3.5c0,0.1,0,0.1,0,0.2h1.1c0,0,0.1-0.1,0.2-0.1c0.1-0.1,0.2-0.1,0.2-0.1s0-0.2,0.2-0.3
		c0.1,0,0.2,0,0.2,0c0.1,0,0.1,0,0.2-0.1c0.1-0.1,0.2-0.2,0.3-0.4S26,31,26,30.9c0-0.1,0.1-0.4,0.1-0.4s0-0.1-0.1,0
		c-0.1,0-0.1-0.1-0.1-0.2c0-0.1,0-0.3,0.1-0.4c0.1-0.1,0.1-0.1,0.1-0.1l0-0.2c0,0-0.7,0.1-0.8-0.4C25,28.7,25,28.4,25,28.4
		c0-0.1,0-0.1-0.1-0.1c-0.1,0-0.3-0.1-0.4-0.3c-0.1-0.3-0.1-0.4-0.1-0.5c0-0.1,0.1-0.1,0.1,0c0,0,0.2,0.3,0.3,0.2
		c0.1-0.1,0-0.1-0.1-0.3c-0.1-0.2-0.1-0.3-0.1-0.4c0-0.1,0-0.2,0-0.3c0-0.1,0.1-0.1,0.1-0.1c0.1,0,0.1,0.1,0.1,0.1
		c0,0,0,0.1,0.1,0.1c0.1,0,0-0.2,0-0.3c0-0.1,0.1-0.1,0.2-0.1c0.1,0.1,0.1,0.1,0.1,0.2c0,0.1,0,0.1,0,0.1c0,0,0.1-0.1,0.1-0.2
		c0-0.1,0-0.2,0.1-0.1c0.1,0.1,0.1,0.2,0.1,0.3c0,0.1,0,0.1,0,0.3c0,0.2-0.1,0.3-0.1,0.5c0,0.2,0,0.3,0.1,0.5
		c0.1,0.2,0.2,0.4,0.3,0.5c0.2,0,0.2,0,0.2,0s0.2-0.3,0.3-0.4c0.1-0.1,0.3-0.1,0.5-0.1C27,28.1,27,28,27,28s0,0-0.2-0.1
		c-0.2,0-0.3-0.1-0.3-0.2c0-0.1,0-0.2-0.1-0.2c-0.1,0-0.4-0.1-0.5-0.3c-0.1-0.2-0.1-0.2-0.1-0.3c0-0.1,0.1-0.3,0.2-0.1
		s0.1,0.2,0.2,0.2c0.1,0,0.2,0.1,0.1-0.1c0-0.1-0.1-0.2-0.1-0.3c0-0.1,0.1-0.1,0.1-0.1c0.1,0,0.3-0.1,0.4-0.1c0.1,0,0.1,0,0.1,0
		s0-0.1,0.2-0.1c0.1,0,0.2-0.1,0.3-0.1c0.1,0,0.2,0,0.3-0.1c0.1-0.1,0.3-0.1,0.3-0.1c0.1,0,0.2,0,0.2,0.1c0.1,0,0,0.1,0,0.2
		c0,0.1,0,0.1,0.1,0.1c0.1,0,0.2,0,0.3,0c0.1,0,0.2,0.1,0.1,0.2c-0.1,0.1-0.1,0.2-0.1,0.2c-0.1,0,0,0.1-0.1,0.1c0,0,0,0.1,0,0.1
		c0.1,0,0.1,0.1,0.1,0.1c0.1,0.1,0.2,0.2,0.1,0.3c-0.1,0.1-0.3,0.2-0.3,0.2s-0.1,0.1,0,0.1c0.1,0.1,0.2,0.2,0.2,0.3
		c0.1,0,0.1,0.1,0.1,0.1c0,0,0,0.1,0,0.1s-0.1,0.1-0.2,0.1c-0.1,0-0.2,0.1-0.3,0.1c-0.1,0-0.1,0-0.1,0.1c0,0.1,0.1,0.2,0.1,0.2
		c0,0.1,0,0.1,0,0.1s0.2,0,0.3,0c0.1,0,0.2,0,0.5,0c0.3,0,0.4,0,0.7,0c0.3,0,0.3,0,0.4,0.1c0.1,0,0.2,0.1,0.2,0.1s0.4,0,0.7-0.1
		c0.2-0.1,0.3-0.2,0.3-0.3c0-0.1,0-0.2-0.4-0.3c-0.4-0.1-0.6,0-0.9-0.1c-0.3-0.1-0.8-0.2-0.9-0.6c-0.1-0.4,0.2-0.6,0.4-0.6
		c0.2-0.1,0.5-0.2,0.7-0.3c0.2-0.1,0.5-0.1,0.8-0.1c0.3,0,0.5,0.1,0.6,0.1c0.1-0.1,0.2,0,0.2,0.1c0,0.1-0.1,0.3-0.5,0.5
		c-0.4,0.1-0.8,0.1-1,0.1c-0.2-0.1-0.4-0.2-0.5-0.1c-0.1,0.1-0.3,0.2-0.1,0.4c0.2,0.2,0.9,0.3,1.1,0.3c0.2,0,1,0,1.2,0.3
		c0.2,0.4,0,0.8-0.2,0.9c-0.3,0.1-0.5,0.2-0.7,0.2c-0.2,0-0.2,0-0.2,0s0.1,0.2,0.1,0.3c0,0.1,0,0.2,0.1,0.3c0.1,0.1,0.2,0.1,0.4,0.1
		c0.2,0,0.4,0.1,0.4,0.2c0,0.1,0.1,0.3,0.1,0.6c0,0.3,0,0.5,0,0.5s0,0.1-0.1,0.2c0,0.1-0.2,0.5-0.2,0.5H33c0-0.1,0-0.1,0-0.2
		C33.1,31.3,32.8,29.9,32.6,28.7L32.6,28.7z"/>
	<path fill="#6D8C3E" d="M23.8,32.9c0.2,0.6,0.7,1.3,1.4,1.7c1,0.6,1.4,0.5,2.3,1.1c0.9,0.6,0.9,0.7,0.9,0.7s0-0.1,0.9-0.7
		c0.9-0.6,1.3-0.5,2.3-1.1c0.7-0.4,1.2-1.1,1.4-1.7H23.8L23.8,32.9z"/>
	<path fill="#D4AF3A" d="M24.6,28c0.1,0.1,0.2,0.1,0.3,0.1c0.2,0,0.2,0.1,0.2,0.2c0,0.1,0,0.4,0.1,0.7c0.1,0.3,0.5,0.3,0.5,0.3
		c0-0.1,0.1-0.3,0.1-0.5c0,0,0.1-0.1-0.1-0.1s-0.1-0.1-0.2-0.2c-0.1-0.1-0.2-0.5-0.3-0.7c0-0.2,0-0.6,0.1-0.7c0-0.1,0-0.2,0-0.2
		c0,0-0.1,0-0.1,0s0,0.1,0,0.1c0,0-0.1-0.1-0.1-0.1c0-0.1-0.1-0.1-0.1-0.1c-0.1,0-0.1,0.1,0,0.1c0,0.1,0,0.2,0,0.2S25,27.1,24.9,27
		c0,0-0.2,0-0.2,0.1c0,0.1,0,0.2,0.1,0.3c0.1,0.1,0.1,0.3,0.1,0.3c0,0.1-0.2,0.1-0.2,0c0,0-0.1,0-0.1,0C24.5,27.9,24.5,27.9,24.6,28
		L24.6,28z"/>
	<path fill="#D4AF3A" d="M24.5,27.7C24.5,27.7,24.5,27.7,24.5,27.7c-0.1-0.1-0.1-0.2-0.1-0.2s0,0,0,0.1S24.5,27.8,24.5,27.7
		L24.5,27.7L24.5,27.7z"/>
	<path fill="#D4AF3A" d="M24.8,27C24.8,26.9,24.9,26.9,24.8,27c0-0.1,0-0.2-0.1-0.2c0,0-0.1,0-0.1,0S24.7,26.8,24.8,27
		C24.7,27,24.7,27,24.8,27L24.8,27z"/>
	<path fill="#D4AF3A" d="M25.1,26.7C25.1,26.8,25.1,26.8,25.1,26.7C25.2,26.8,25.2,26.7,25.1,26.7c0.1-0.1,0-0.2,0-0.2l0,0
		C25,26.6,25.1,26.7,25.1,26.7L25.1,26.7z"/>
	<path fill="#D4AF3A" d="M25.5,26.8c0-0.1,0-0.1,0-0.1S25.4,26.8,25.5,26.8C25.4,26.8,25.4,26.8,25.5,26.8
		C25.5,26.9,25.5,26.9,25.5,26.8L25.5,26.8z"/>
	<path fill="#D4AF3A" d="M26.1,29.6c0.1,0.2,0.3-0.1,0.5-0.3c0.2-0.2,0.2-0.1,0.2,0.1c0,0.2,0,0.4,0.1,0.5c0.1,0.1,0.1,0.1,0.2,0
		c0-0.1,0.1-0.3,0.1-0.4c0.1-0.1,0.1,0,0.1,0.1c0,0.1,0.1,0.3,0.2,0.4c0.1,0.1,0.1,0,0.2-0.2c0-0.1,0.1-0.3,0.1-0.4
		c0-0.1,0.1,0,0.1,0s0.1,0.1,0.2,0.2c0.1,0.1,0.1-0.1,0.1-0.2c0-0.1,0-0.3,0-0.3c0,0,0.1,0,0.3,0.1c0.2,0.1,0.2-0.1,0.1-0.2
		c0-0.1-0.1-0.3-0.2-0.4c-0.1-0.1-0.1-0.2-0.1-0.3c0-0.1,0.2,0,0.3,0c0.1,0,0.1,0,0.2,0c0.1,0,0.1-0.1,0.1-0.1s-0.1-0.1-0.2-0.2
		c-0.1-0.1-0.2-0.2-0.3-0.2c-0.1,0-0.3,0-0.3,0s0,0,0,0c0,0-0.1,0-0.1,0c0,0-0.1,0.1-0.1,0.1c0,0-0.1,0.1-0.1,0c0,0,0-0.1,0-0.1
		s0.1,0,0.1-0.2c0.1-0.1,0.1-0.2,0-0.3c0-0.1-0.2,0-0.3,0c-0.1,0-0.1,0-0.1,0c0,0,0.1,0,0.2,0c0.1,0,0.1-0.1,0.2-0.2s0.1-0.1,0.1,0
		c0.1,0.1,0.1,0,0.1,0c0,0,0.1-0.1,0.1-0.2c0.1-0.1,0.1-0.2,0-0.3c-0.1-0.1-0.2-0.1-0.3,0c-0.1,0.1-0.1,0.1-0.1,0.2
		c0,0.1-0.1,0.1-0.1,0c0,0-0.1-0.1,0-0.2c0-0.1,0-0.1,0-0.1s0-0.1-0.1-0.1s-0.3,0-0.4,0c-0.1,0-0.1,0.1-0.1,0.1s-0.1,0-0.2,0
		c-0.1,0-0.2,0.1-0.3,0.1c-0.1,0-0.1,0-0.1,0.1c0,0,0,0.1,0,0.1s0.1,0,0.1,0c0,0,0,0.1,0,0.1c0,0-0.1,0-0.1,0.1c0,0.1,0,0.1,0.1,0.1
		c0,0,0.2,0,0.3,0.1c0.1,0.1,0.2,0.2,0.1,0.2c0,0.1-0.2,0.1-0.3,0.1c-0.1,0-0.1,0-0.1,0.1c0,0.1,0.1,0,0.1,0s0.1,0,0.3,0
		c0.2,0,0.2,0.1,0.3,0.1c0.1,0.1,0,0.1,0,0.1c0,0-0.1,0.1-0.2,0.1c-0.1,0-0.1,0.1-0.2,0.1c-0.1,0-0.2,0-0.5,0.1
		c-0.3,0.1-0.4,0.5-0.4,0.5s0,0,0.2-0.1c0.1-0.1,0.3-0.1,0.4-0.2c0.1-0.1,0.1,0,0.1,0.2c-0.1,0.1,0.1,0.1,0.1,0.1
		c0,0,0.1-0.1,0.2-0.1c0.1-0.1,0.1,0,0.1,0s0,0.1-0.1,0.3c0,0.2,0.2,0,0.3-0.1c0.1-0.1,0.1,0,0.1,0.1c-0.1,0.1-0.2,0.3-0.3,0.3
		c-0.1,0-0.1-0.1-0.1-0.1c0,0,0-0.2,0-0.2c0,0-0.2,0-0.3,0.1c-0.1,0.1-0.1,0-0.2,0c0-0.1,0-0.1,0-0.1c0,0-0.1,0-0.1,0
		c0,0-0.1,0.1-0.3,0.2C26,29,26,29.1,26,29.2S26,29.4,26.1,29.6L26.1,29.6z"/>
	<path fill="#D4AF3A" d="M28,26.5c0,0,0.1-0.1,0.1-0.1s0.1,0,0.2,0c0.1,0,0.1-0.1,0.1-0.1c0,0-0.1-0.1-0.2-0.1
		c-0.1,0-0.2,0.1-0.2,0.1c-0.1,0-0.1,0-0.1,0s0,0,0.1,0.1C27.9,26.5,27.9,26.5,28,26.5L28,26.5z"/>
	<path fill="#D4AF3A" d="M28.4,26.9C28.5,26.9,28.5,26.9,28.4,26.9c0.1,0,0.2-0.1,0.2-0.1c0.1,0,0.1,0,0.1-0.1c0-0.1,0-0.1-0.2-0.1
		c-0.1,0-0.2,0-0.2,0.1C28.4,26.7,28.4,26.7,28.4,26.9C28.3,26.9,28.4,26.9,28.4,26.9L28.4,26.9z"/>
	<path fill="#D4AF3A" d="M28.4,27c-0.1,0-0.3,0.2-0.3,0.2c-0.1,0,0,0.1,0,0.1s0,0.1,0.1,0.1c0,0.1,0,0.2,0,0.2s0,0,0.1,0
		c0.1,0,0.1,0,0.2-0.1s0.1-0.1,0.2-0.1c0.1,0,0.1,0,0.3-0.1c0.1-0.1-0.1-0.2-0.2-0.3C28.6,27.1,28.5,27,28.4,27L28.4,27z"/>
	<path fill="#D4AF3A" d="M26.7,27.5c0.1,0,0.1-0.1,0.1-0.1c0-0.1,0-0.1-0.2-0.1c-0.3,0-0.6-0.1-0.7-0.4c0,0-0.1,0.2,0.1,0.4
		C26.3,27.5,26.6,27.5,26.7,27.5L26.7,27.5z"/>
	<path fill="#D4AF3A" d="M25.7,32.3C25.7,32.3,25.7,32.3,25.7,32.3l0.5,0.1c0.1,0,0.1-0.1,0.1-0.1c0-0.1,0.1-0.2,0.1-0.5
		c0.1-0.3,0.2-0.5,0.2-0.7c0-0.1,0-0.2-0.1-0.2c0-0.1-0.1-0.2-0.1-0.3c0-0.1-0.1-0.1-0.2-0.1s-0.1,0.1-0.1,0.2
		c0,0.1-0.1,0.4-0.1,0.6c0,0.2-0.3,0.6-0.4,0.6c-0.1,0.1-0.1,0.1-0.2,0.1s-0.2,0-0.2,0c-0.1,0-0.1,0.1-0.1,0.2
		c0,0.1,0.1,0.1,0.1,0.1s0.1-0.1,0.1-0.1c0,0,0.1-0.1,0.2-0.1c0.1,0,0.1,0,0.1,0.1C25.6,32.2,25.6,32.2,25.7,32.3L25.7,32.3z"/>
	<path fill="#D4AF3A" d="M24.9,32.3C24.9,32.3,24.9,32.3,24.9,32.3l0.2,0.1c0,0,0-0.1,0-0.1C25.1,32.2,25,32.3,24.9,32.3z"/>
	<path fill="#D4AF3A" d="M25.4,32.3c0,0-0.1,0.1-0.1,0.1h0.3c0,0,0-0.1,0-0.1C25.5,32.2,25.4,32.2,25.4,32.3L25.4,32.3z"/>
	<path fill="#D4AF3A" d="M28.2,32.1c0,0-0.1,0-0.1,0.1c-0.1,0-0.1,0.1-0.1,0.1c0,0,0,0,0,0h0.1c0,0,0,0,0,0
		C28.2,32.3,28.2,32.3,28.2,32.1C28.3,32.2,28.3,32.1,28.2,32.1L28.2,32.1z"/>
	<path fill="#D4AF3A" d="M28.5,32.3C28.5,32.2,28.5,32.2,28.5,32.3c-0.1-0.1-0.1,0-0.2,0c0,0,0,0-0.1,0.1L28.5,32.3
		C28.5,32.3,28.5,32.3,28.5,32.3L28.5,32.3z"/>
	<path fill="#D4AF3A" d="M29.8,30.8c0.1-0.1,0.1-0.1,0.1-0.2c0-0.1,0-0.1,0-0.1c0,0-0.2-0.1-0.3-0.1c-0.1,0-0.4,0-0.5,0.1
		c-0.1,0.1-0.1,0.3-0.1,0.4s0,0.1,0.1,0.1S29,31,29,31s0.1,0.2,0.2,0.3c0.1,0.1,0,0.2,0,0.3c0,0.1-0.2,0.3-0.3,0.4
		c-0.1,0.1-0.2,0-0.3,0c-0.1,0-0.2,0-0.3,0.1s0,0.1,0,0.1c0,0,0.1,0,0.2,0.1c0,0,0,0.1,0,0.2h0.6c0.1,0,0.2-0.2,0.2-0.3
		c0-0.1,0.2-0.2,0.2-0.3c0.1-0.1,0.1-0.1,0.1-0.2c0-0.1,0-0.2-0.1-0.3c0-0.1-0.1-0.2-0.1-0.3C29.6,30.9,29.7,30.8,29.8,30.8
		L29.8,30.8z"/>
	<path fill="#D4AF3A" d="M28.8,29.2c0.1,0.1,0,0.1-0.1,0.1c-0.1,0-0.2,0-0.3,0c-0.1,0-0.1,0-0.1,0.1c0,0.1,0,0.2-0.1,0.3
		c-0.1,0.1-0.2,0.1-0.2,0c-0.1,0-0.1,0-0.1,0c0,0.1-0.1,0.1-0.1,0.2c-0.1,0.1-0.1,0.1-0.2,0.1c0,0-0.1-0.1-0.1-0.1
		c0,0-0.1-0.1-0.2-0.2c-0.1-0.1-0.1,0-0.1,0.1c0,0.1-0.1,0.2-0.2,0.2c-0.1,0-0.2-0.2-0.2-0.3c0-0.1-0.1-0.2-0.2-0.2
		c-0.1,0-0.2,0.2-0.3,0.2c-0.1,0-0.1,0-0.1,0c0-0.1-0.1,0-0.1,0.1c0,0.1,0,0.2,0.1,0.3c0.1,0,0.2-0.1,0.3-0.1c0.1-0.1,0.1,0,0.2,0
		c0.1,0,0.1,0.2,0.1,0.4c0,0.2,0.2,0.3,0.2,0.3s0,0,0.1-0.1c0.1-0.2,0.1-0.3,0.2-0.3c0.1,0,0.1,0,0.2,0.2c0.1,0.1,0.2,0.2,0.2,0.1
		c0.1-0.1,0.1-0.3,0.2-0.3c0.1-0.1,0.1-0.1,0.1,0c-0.1,0.1-0.1,0.2,0,0.2c0.1,0,0.7-0.3,0.9-0.3c0,0,0.3,0,0.6-0.1
		c0.3,0,0.4,0,0.5,0c0.1,0,0.1,0,0.1-0.1c0-0.1-0.1-0.1-0.3-0.1c-0.2,0-0.4,0-0.5,0C29,30,29,30,29,30c0,0,0.1-0.1,0.2-0.1
		c0.2,0,0.5,0,0.7,0c0.2,0,0.1,0.1,0.1,0.2c0,0.1,0,0.3,0,0.4c0,0.1,0,0.1,0.1,0.3c0.1,0.2,0.4,0.3,0.5,0.3c0.1,0.1,0.1,0,0.1-0.1
		c0-0.1,0.1-0.1,0.2,0c0.1,0,0.2,0.1,0.3,0.1c0.1,0,0.1,0,0.1,0.1c0,0.1,0,0.2,0,0.3c0,0.1,0,0.1,0,0.2c0,0.1-0.2,0.3-0.2,0.3
		s-0.1,0-0.3,0c-0.2,0-0.2,0.1-0.3,0.2s0,0.1,0,0.1c0,0,0,0.1,0,0.1h0c0,0,0-0.1,0.1-0.1c0.1-0.1,0.2-0.1,0.3-0.1
		c0.1,0,0.1,0.1,0.1,0.2h0.4c0.1-0.1,0.2-0.4,0.2-0.5c0-0.1,0.1-0.2,0.1-0.3c0-0.1,0-0.7,0-0.7c0,0,0-0.1,0-0.3c0-0.2,0-0.3-0.3-0.3
		c-0.3,0-0.4-0.1-0.5-0.2c-0.1-0.1-0.1-0.3-0.1-0.6c-0.1-0.3-0.3-0.3-0.6-0.4c-0.3-0.1-0.6-0.1-0.8,0c-0.2,0-0.6,0.1-0.7,0
		C28.7,29.1,28.7,29.1,28.8,29.2L28.8,29.2z"/>
	<path fill="#D4AF3A" d="M30.4,32.3C30.4,32.3,30.3,32.3,30.4,32.3l0.2,0.1c0,0,0-0.1,0-0.1C30.5,32.2,30.5,32.2,30.4,32.3
		L30.4,32.3z"/>
	<path fill="#D4AF3A" d="M30.9,32.3C30.9,32.3,30.8,32.3,30.9,32.3l0.2,0.1c0,0,0,0,0,0C31.1,32.3,31,32.2,30.9,32.3L30.9,32.3z"/>
	<path fill="#D4AF3A" d="M23.7,32.5c0,0.1,0,0.2,0.1,0.3h9.2c0-0.1,0-0.2,0.1-0.3H23.7L23.7,32.5z"/>
	<path fill="#D4AF3A" d="M29.9,28.1c0.3,0.2,1.2,0.2,1.6,0.3c0.4,0.1,0.4,0.4,0.3,0.6c-0.1,0.2-0.7,0.2-0.8,0.2
		c0.1,0,0.1,0.2,0.1,0.2s0.1,0,0.2,0c0.2,0,0.5-0.1,0.7-0.2c0.2-0.2,0.2-0.5,0-0.7c-0.2-0.2-0.5-0.2-0.8-0.3c-0.3,0-0.6-0.1-0.9-0.1
		c-0.4-0.1-0.5-0.2-0.5-0.4c0-0.2,0.2-0.3,0.3-0.4c0.1,0,0.4-0.1,0.6,0c0.2,0.1,0.4,0.1,0.8,0c0.4-0.1,0.5-0.3,0.5-0.3s-0.1,0-0.3,0
		c-0.2,0-0.4-0.1-0.7-0.1c-0.4,0-0.5,0.1-0.7,0.2c-0.2,0.1-0.6,0.1-0.8,0.4C29.4,27.7,29.6,27.9,29.9,28.1L29.9,28.1z"/>
	<ellipse fill="#B96B29" cx="27.5" cy="26.7" rx="0.2" ry="0.2"/>
	<path fill="#B96B29" d="M31.2,27c-0.2,0-0.5,0-0.5,0s0.1,0,0.1,0c0.1,0,0.2,0,0.4,0c0.2,0,0.4-0.1,0.4-0.1S31.4,27,31.2,27L31.2,27
		z"/>
	<path fill="#1D5E91" d="M29,31.2c-0.1-0.1-0.1-0.1-0.1,0c-0.1,0.1-0.1-0.1-0.1-0.3c0-0.1,0-0.5,0-0.5s-0.3,0.1-0.5,0.1
		c-0.2,0.1-0.3,0.1-0.5,0.1s-0.2,0.1-0.3,0c-0.1,0-0.2,0-0.3,0s-0.1,0-0.2,0.1c-0.1,0.1-0.2,0.2-0.2,0.4c-0.1,0.2-0.1,0.4-0.2,0.7
		c0,0.2-0.1,0.3-0.1,0.4h1.4c0,0,0-0.1,0.1-0.1c0-0.1,0.1-0.1,0.2-0.2c0.1,0,0.1,0,0.1-0.1c0-0.1,0.1-0.1,0.2-0.2c0.1,0,0.2,0,0.3,0
		c0.1,0,0.2,0,0.2-0.1c0,0,0-0.1,0.1-0.2c0.1-0.1,0-0.2,0-0.2S29.1,31.3,29,31.2L29,31.2z"/>
	<path fill="#1D5E91" d="M31.3,31.3c0-0.1,0-0.1-0.1-0.1c0,0-0.1,0-0.2-0.1c-0.1,0-0.1,0.2-0.1,0.2s-0.2,0-0.4,0
		c-0.2,0-0.4-0.2-0.5-0.3C30,31,30,30.8,30,30.8s-0.1,0.1-0.1,0.1c-0.1,0-0.1,0.2-0.1,0.3c0,0.1,0.1,0.3,0.2,0.4
		c0,0.1-0.1,0.4-0.2,0.5c0,0.1-0.1,0.2-0.1,0.3h0.7c0,0,0-0.1,0.1-0.1c0.1-0.1,0.2-0.1,0.2-0.1s0,0,0-0.1c0-0.1,0.1-0.1,0.3-0.2
		c0.2-0.1,0.4-0.1,0.4-0.1s0.1-0.1,0.1-0.2C31.4,31.5,31.3,31.4,31.3,31.3L31.3,31.3z"/>
	<path fill="#D4AF3A" d="M25.5,38.9c0.1,0,0.4-0.1,0.5-0.2c0.1-0.1,0.2-0.4,0.2-0.5c0.1-0.1,0.1-0.2,0.1-0.2s0,0.2-0.1,0.5
		c-0.1,0.3-0.1,0.6-0.1,0.8c0.1,0.3,0.3,0.4,0.4,0.3c0.1,0,0.2-0.2,0.4-0.4c0-0.1,0.1-0.2,0.1-0.2c0.1-0.2,0.2-0.4,0.2-0.4
		c0.1,0,0,0.2,0,0.3c-0.1,0.2-0.2,0.6-0.2,0.8c0,0.2,0,0.6,0.2,0.6c0.2,0,0.3-0.2,0.4-0.6c0.1-0.4,0.1-0.6,0.2-0.6
		c0.1,0,0.1,0.3,0.1,0.4c0,0,0,0.2,0,0.3c0,0.2,0.1,0.5,0.2,0.6c0.1,0.1,0.2,0.1,0.2,0.1s0.1,0,0.2-0.1c0.1-0.1,0.2-0.7,0.2-0.9
		s0-0.4,0.1-0.4c0.1,0,0.1,0.1,0.2,0.6c0.1,0.4,0.2,0.6,0.4,0.6c0.2,0,0.2-0.4,0.2-0.6s-0.1-0.6-0.2-0.8c-0.1-0.2,0-0.2,0.2,0.1
		c0.1,0.1,0.1,0.2,0.2,0.3c0.1,0.2,0.2,0.3,0.3,0.3c0.1,0,0.3,0,0.4-0.3c0.1-0.3-0.2-1.2-0.2-1.2s0,0,0.1,0.2
		c0.1,0.1,0.1,0.4,0.2,0.5c0.1,0.1,0.4,0.2,0.5,0.2c0.1,0,0.1-0.3,0.1-0.7c-0.1-0.4-0.5-0.7-0.8-1c-0.3-0.3-0.4-0.9-0.5-1
		c-0.3,0.2-0.7,0.4-0.9,0.7c-0.6,0.6-0.7,0.7-0.7,0.7s-0.1-0.1-0.7-0.7c-0.3-0.3-0.6-0.5-0.9-0.7c0,0.1-0.3,0.6-0.5,0.9
		c-0.1,0.2-0.3,0.3-0.4,0.4c-0.1,0.2-0.2,0.4-0.3,0.6C25.4,38.6,25.4,38.9,25.5,38.9L25.5,38.9z"/>
	<path fill="#D4AF3A" d="M25.5,40.4c0.2-0.1,0.3-0.2,0.3-0.2s0.1-0.1,0.1,0.1c0,0.2-0.1,0.6-0.1,0.8c0,0.2,0.1,0.3,0.3,0.2
		c0.2-0.1,0.3-0.2,0.4-0.3c0.1-0.1,0.2-0.2,0.2,0c0,0.2-0.1,0.4-0.1,0.8c0,0.3,0.2,0.4,0.4,0.1c0.2-0.3,0.3-0.6,0.4-0.7
		c0.1-0.1,0.2-0.3,0.2,0c0,0.6,0.1,1.4,0.8,1.6c0.6-0.2,0.8-1,0.8-1.6c0-0.3,0.1-0.1,0.2,0c0.1,0.1,0.2,0.4,0.4,0.7
		c0.2,0.3,0.4,0.2,0.4-0.1c0-0.3,0-0.6-0.1-0.8s0.1-0.1,0.2,0c0.1,0.1,0.2,0.2,0.4,0.3c0.2,0.1,0.2,0,0.3-0.2c0-0.2,0-0.6-0.1-0.8
		c0-0.2,0.1-0.1,0.1-0.1s0.1,0.1,0.3,0.2c0.2,0.1,0.4,0.2,0.4,0.2s0.1-0.6-0.1-0.9c-0.2-0.4-0.3-0.5-0.3-0.5s-0.1,0-0.2,0
		c-0.1,0-0.2-0.1-0.2-0.1s0,0.2,0,0.2v0.1c0,0,0.3,0.3,0.4,0.4c0.1,0.1,0.2,0.2,0,0.1c-0.2-0.1-0.4-0.3-0.4-0.3s0,0.3-0.1,0.4
		c-0.1,0.1-0.2,0.1-0.3,0.1c-0.1,0-0.1,0-0.1,0l0,0.1c0,0,0.2,0.3,0.2,0.5c0,0.1,0,0.1-0.1-0.1C30.2,40.3,30,40,30,39.9
		c-0.1-0.1-0.2-0.2-0.2-0.1c0,0.2-0.1,0.5-0.1,0.6c-0.1,0.1-0.1,0.1-0.1,0.1s0.1,0.4,0.1,0.5c0,0.1,0,0.2-0.1,0.1
		c-0.1-0.1-0.3-0.5-0.3-0.5s-0.2,0-0.3-0.1c-0.1-0.1-0.2-0.3-0.2-0.3s-0.1,0.3-0.2,0.5c-0.1,0.1-0.3,0.2-0.3,0.2s0,0.6,0,0.7
		c0,0.1,0,0.2-0.1,0.2c0,0,0,0-0.1-0.2c0-0.1,0-0.7,0-0.7s-0.2-0.1-0.3-0.2c-0.1-0.1-0.2-0.5-0.2-0.5s-0.1,0.3-0.2,0.3
		c-0.1,0.1-0.3,0.1-0.3,0.1S27.1,41,27,41.1C27,41.2,27,41.1,27,41c0-0.1,0.1-0.5,0.1-0.5s0,0-0.1-0.1c-0.1-0.1-0.1-0.4-0.1-0.6
		c0-0.2-0.1-0.1-0.2,0.1c-0.1,0.1-0.2,0.4-0.3,0.5c-0.1,0.2-0.1,0.2-0.1,0.1s0.2-0.5,0.2-0.5l0-0.1l-0.1,0c-0.1,0-0.2,0-0.3-0.1
		c-0.1-0.1-0.1-0.4-0.1-0.4s-0.2,0.1-0.4,0.3c-0.2,0.1-0.1,0,0-0.1c0.1-0.1,0.4-0.4,0.4-0.4s0,0,0-0.1V39c0,0-0.1,0.1-0.2,0.1
		c-0.1,0-0.2,0-0.2,0s-0.1,0.1-0.3,0.5s-0.1,0.9-0.1,0.9S25.4,40.5,25.5,40.4L25.5,40.4z"/>
	<path fill="#D4AF3A" d="M28.6,44.3c-0.2-0.2-0.2-0.3-0.2-0.3s-0.1,0.1-0.2,0.3c-0.2,0.2-0.5,0.5-0.5,0.5s0,0.5,0.2,0.8
		c0.2,0.2,0.3,0.4,0.5,0.6c0.2-0.2,0.4-0.4,0.5-0.6c0.2-0.3,0.2-0.8,0.2-0.8S28.7,44.5,28.6,44.3L28.6,44.3z"/>
	<path fill="#B96B29" d="M28.3,45c0,0.1,0,0.4,0.1,0.4c0.1,0,0.1-0.3,0.1-0.4c0-0.1,0-0.4,0-0.4h-0.2C28.3,44.6,28.3,44.8,28.3,45
		L28.3,45z"/>
	<path fill="#D4AF3A" d="M28.3,17.9c-0.7,0-1.4-0.1-1.9-0.2c-0.2,0-0.3,0.1-0.5,0.1c0.7,0.3,1.3,0.4,2.3,0.4c1,0,1.6-0.1,2.3-0.4
		c-0.2,0-0.3-0.1-0.5-0.1C29.8,17.8,29,17.9,28.3,17.9L28.3,17.9z"/>
	<path fill="#D4AF3A" d="M30.8,17.3c-0.1,0-0.4-0.3-0.4-0.3c-0.1,0,0-0.1,0-0.2c0,0,0.4-0.1,0.5-0.2c0.2,0,0.2-0.1,0.2-0.1
		s-0.1-0.1-0.8-0.2c-0.7-0.1-1.9-0.1-1.9-0.1s-1.2,0-1.9,0.1c-0.7,0.1-0.8,0.2-0.8,0.2s0,0,0.2,0.1c0.2,0,0.5,0.1,0.5,0.2
		c0,0,0.1,0.2,0,0.2c-0.1,0-0.4,0.3-0.4,0.3c-0.1,0-0.1,0.1,0,0.1c0.1,0,0.1,0,0.3,0c0.7-0.1,1.4-0.2,2.1-0.2c0.7,0,1.4,0,2.1,0.2
		c0.2,0,0.2,0,0.3,0C30.8,17.4,30.8,17.4,30.8,17.3L30.8,17.3z"/>
	<path fill="#D4AF3A" d="M30,17.6c-0.5-0.1-0.8-0.1-1.6-0.1c-0.9,0-1.2,0.1-1.6,0.1c0.3,0.1,0.8,0.2,1.6,0.2
		C29.2,17.8,29.7,17.7,30,17.6L30,17.6z"/>
	<polygon fill="#D4AF3A" points="28.2,11.1 28.6,11.1 28.5,10.8 28.9,10.9 28.9,10.5 28.5,10.6 28.6,10.2 28.1,10.2 28.2,10.6 
		27.8,10.5 27.8,10.9 28.2,10.8 	"/>
	<path fill="#D4AF3A" d="M29,11.7h-0.5v-0.4c0,0-0.1,0-0.1,0c0,0-0.1,0-0.1,0v0.4h-0.5c0,0.1,0,0.1,0,0.2c0,0,0,0,0,0.1H29
		c0,0,0,0,0-0.1C29,11.8,29,11.7,29,11.7L29,11.7z"/>
	<path fill="#1D5E91" d="M28.4,12.4c0.3,0,0.5-0.2,0.6-0.4h-1.2C27.8,12.2,28.1,12.4,28.4,12.4L28.4,12.4z"/>
	<path fill="#1D5E91" d="M28.6,11.3v0.3h0.3C28.9,11.4,28.8,11.3,28.6,11.3L28.6,11.3z"/>
	<path fill="#1D5E91" d="M28.1,11.3c-0.1,0.1-0.3,0.2-0.3,0.3h0.3V11.3z"/>
	<path fill="#B96B29" d="M28.7,16.5c-0.1-0.1-0.4-0.2-0.4-0.2s-0.3,0.1-0.4,0.2c-0.1,0.1-0.1,0-0.2,0.1c0,0.1,0,0.1,0.1,0.2
		c0.1,0,0.5,0.2,0.5,0.2s0.4-0.2,0.5-0.2c0.1,0,0.1-0.1,0.1-0.2C28.9,16.6,28.9,16.6,28.7,16.5L28.7,16.5z"/>
	<polygon fill="#D4AF3A" points="27.9,16.7 28.4,16.9 28.8,16.7 28.3,16.5 	"/>
	<path fill="#D4AF3A" d="M28.3,15c0,0,0,0.2-0.1,0.2c0,0.1-0.1,0.1-0.1,0.2c0,0.1,0.1,0.1,0.2,0.1c0.1,0,0.1-0.1,0.2-0.1
		c0-0.1,0-0.1-0.1-0.2C28.4,15.1,28.3,15,28.3,15L28.3,15z"/>
	<circle fill="#D4AF3A" cx="28.3" cy="15.7" r="0.1"/>
	<path fill="#D4AF3A" d="M28.1,15.3c0,0,0.1-0.2,0.2-0.3c0.1-0.1,0.1-0.2,0.1-0.2s0,0.1,0.1,0.2c0.1,0.1,0.2,0.3,0.2,0.3
		s0.2-0.1,0.3-0.5c0.1-0.4,0-0.8-0.1-1.2s-0.1-1.2-0.1-1.2c-0.1,0.1-0.3,0.1-0.4,0.1c-0.1,0-0.3,0-0.4-0.1c0,0,0,0.7-0.1,1.2
		c-0.1,0.4-0.2,0.8-0.1,1.2C27.9,15.2,28.1,15.3,28.1,15.3L28.1,15.3z"/>
	<ellipse fill="#B96B29" cx="28.3" cy="14.4" rx="0.3" ry="0.3"/>
	<ellipse fill="#B96B29" cx="28.3" cy="13.7" rx="0.3" ry="0.3"/>
	<ellipse fill="#B96B29" cx="28.3" cy="13" rx="0.3" ry="0.3"/>
	<ellipse fill="#D4AF3A" cx="28.3" cy="14.4" rx="0.2" ry="0.2"/>
	<ellipse fill="#D4AF3A" cx="28.3" cy="13.6" rx="0.2" ry="0.2"/>
	<ellipse fill="#D4AF3A" cx="28.3" cy="12.9" rx="0.2" ry="0.1"/>
	<path fill="#B96B29" d="M28.3,39.7c0,0,0,0,0-0.1c0-0.1,0-0.3,0-0.5c0-0.1,0-0.1-0.1-0.1c0,0-0.1,0.1-0.1,0.2
		C28.3,39.2,28.3,39.5,28.3,39.7C28.3,39.7,28.3,39.7,28.3,39.7L28.3,39.7z"/>
	<path fill="#D4AF3A" d="M24.9,42.4c0.1-0.1,0.3-0.2,0.6-0.4c0.3-0.2,0.5-0.5,0.5-0.5h-0.1c-0.1,0-0.1-0.1-0.1-0.2
		c0-0.1,0-0.3,0-0.5c0-0.2,0-0.4,0-0.4s-0.1,0.1-0.4,0.2c-0.2,0.1-0.3,0.1-0.3,0.1L25,40.6c0,0-0.1,0.2-0.2,0.4
		c-0.1,0.2-0.5,0.5-0.8,0.7c-0.3,0.2-0.5,0.4-0.8,0.5c-0.2,0.1-0.1,0.2-0.1,0.2s0.2,0.2,0.8,0.3S24.7,42.5,24.9,42.4L24.9,42.4z"/>
	<path fill="#D4AF3A" d="M26.8,42.2c-0.2,0-0.3-0.1-0.4-0.3c0-0.1,0-0.7,0-0.7s-0.1,0.1-0.1,0.1c-0.1,0.1-0.2,0.1-0.2,0.1
		s0,0.1-0.1,0.2c-0.1,0.1-0.2,0.3-0.4,0.4c-0.2,0.1-0.4,0.3-0.6,0.4c-0.1,0.1-0.3,0.3-0.5,0.4c-0.2,0.1-0.4,0.3-0.4,0.6
		c-0.1,0.3,0,0.4,0.2,0.4c0.2,0,0.2,0,0.6-0.1c0.4-0.1,0.9-0.5,1.2-0.7C26.5,42.7,26.8,42.2,26.8,42.2L26.8,42.2z"/>
	<path fill="#D4AF3A" d="M27.8,42.5c0,0-0.1-0.2-0.2-0.4c-0.1-0.2-0.2-0.6-0.2-0.6s0,0.1-0.2,0.4c-0.1,0.3-0.3,0.3-0.3,0.3
		s0,0.1-0.2,0.3c-0.2,0.2-0.4,0.4-0.7,0.6c-0.3,0.1-0.6,0.4-0.8,0.6c-0.2,0.3-0.2,0.5-0.1,0.6c0.1,0.1,0.2,0,0.4-0.1
		c0.2-0.1,0.7-0.2,1.3-0.5C27.5,43.3,27.8,42.5,27.8,42.5L27.8,42.5z"/>
	<path fill="#D4AF3A" d="M28,44c0.2-0.3,0.2-0.9,0.2-0.9s-0.1,0-0.2-0.1c-0.1-0.1-0.3-0.3-0.3-0.3s-0.1,0.2-0.2,0.4
		c-0.1,0.2-0.2,0.3-0.4,0.5c-0.2,0.2-0.6,0.5-0.7,0.7c-0.1,0.2-0.1,0.7,0,0.9c0.1,0.2,0.2,0.1,0.4,0C27,45,27,45,27.3,44.8
		C27.5,44.6,27.9,44.3,28,44L28,44z"/>
	<path fill="#B96B29" d="M25.9,38.4c0.1-0.2,0.2-0.4,0.3-0.6c0.1-0.1,0.2-0.3,0.2-0.3S26.1,37.8,26,38
		C25.9,38.1,25.8,38.3,25.9,38.4C25.7,38.6,25.8,38.6,25.9,38.4z"/>
	<path fill="#B96B29" d="M26.8,38.6c0-0.1,0.1-0.2,0.1-0.2s0-0.1,0-0.1c0,0-0.1,0.1-0.2,0.3c-0.1,0.2-0.2,0.5-0.1,0.5
		C26.6,39.1,26.8,38.7,26.8,38.6L26.8,38.6z"/>
	<path fill="#B96B29" d="M27.6,39.2C27.6,39.1,27.6,39.1,27.6,39.2c0-0.1,0.1-0.3,0.1-0.4c0-0.1,0-0.1-0.1,0
		C27.5,38.9,27.5,39.1,27.6,39.2c-0.1,0-0.1,0.2-0.1,0.2C27.5,39.4,27.5,39.3,27.6,39.2L27.6,39.2z"/>
	<path fill="#B96B29" d="M25.2,41.5L25.2,41.5c-0.1-0.1-0.2,0-0.2,0.1c-0.1,0.1-0.2,0.1-0.2,0.2c-0.1,0.1-0.2,0.2-0.3,0.3
		c-0.2,0.1-0.2,0.1-0.2,0.1c0,0,0.1,0,0.1,0s0,0,0.2-0.1c0.2-0.1,0.2-0.2,0.3-0.3S25.2,41.5,25.2,41.5z"/>
	<path fill="#B96B29" d="M26,42.4c0.1-0.1,0.1-0.1,0.1-0.2c0,0-0.1,0-0.2,0c-0.1,0.1-0.2,0.2-0.3,0.3c-0.1,0.1-0.2,0.1-0.2,0.2
		c-0.1,0.1-0.3,0.2-0.4,0.2c-0.1,0,0,0.1,0,0.1s0.1,0,0.1-0.1c0.1,0,0.3-0.1,0.3-0.1s0.1,0,0.2-0.1C25.8,42.6,26,42.5,26,42.4
		L26,42.4z"/>
	<path fill="#B96B29" d="M27,43.1c0.1-0.1,0-0.1-0.1,0c-0.1,0-0.3,0.3-0.5,0.4c-0.1,0.1-0.2,0.1-0.3,0.2C26,43.6,26,43.7,26,43.7
		c0,0,0,0,0.1,0c0,0,0.2-0.1,0.2-0.1s0.1,0,0.1,0c0.1,0,0.1-0.1,0.3-0.2C26.8,43.2,26.9,43.2,27,43.1L27,43.1z"/>
	<path fill="#B96B29" d="M27.4,43.9c-0.2,0.1-0.4,0.3-0.5,0.5c-0.1,0.1-0.1,0.3-0.1,0.3c0,0,0.1,0,0.1-0.1c0-0.1,0.1-0.1,0.1-0.1
		s0.3-0.3,0.4-0.3s0.3-0.2,0.3-0.4c0-0.1,0-0.2,0-0.2S27.6,43.8,27.4,43.9L27.4,43.9z"/>
	<path fill="#C52126" d="M23,20.1c-0.2-0.1-0.6-0.3-1-0.3c-0.4,0-0.8,0-1.1,0.1c-0.3,0.1-0.5,0.1-0.7,0c-0.3-0.1-0.5-0.4-0.6-0.7
		c0,0-0.3,0.4,0,0.8c0.1,0.2,0.3,0.3,0.5,0.3c0.6,0.1,1.2-0.2,1.7-0.3c0.5,0,0.9,0.3,0.9,0.3s0.1,0.1,0.3,0
		C23.1,20.2,23.2,20.2,23,20.1z"/>
	<path fill="#D4AF3A" d="M21.3,37.5c0,0-0.1,0-0.1,0c-0.1,0-0.3-0.1-0.3-0.1c-0.1,0-0.1,0-0.2,0c-0.1,0.1-0.5,0.3-0.5,0.3h0.7
		C21.1,37.7,21.3,37.5,21.3,37.5L21.3,37.5z"/>
	<path fill="#D4AF3A" d="M23.3,37.4L23.3,37.4l-0.1-0.3c0,0-0.1,0.1-0.2,0.2c-0.1,0.1-0.3,0.3-0.4,0.4c-0.1,0.2-0.3,0.3-0.1,0.1
		c0.1-0.2,0.2-0.3,0.3-0.5C22.9,37.1,23,37,23,37c0,0-0.1,0-0.4-0.1c-0.3,0-0.5-0.2-0.6-0.2c-0.1-0.1-0.4-0.2-0.4-0.2
		s-0.5,0.2-0.7,0.3c-0.2,0-0.3,0.1-0.1,0.2c0.2,0.1,0.3,0.1,0.4,0.2c0.1,0.1,0.4,0.1,0.5,0.1c0.2,0,0.5,0,0.3,0.1
		c-0.1,0.1-0.2,0.3-0.4,0.7c-0.1,0.3-0.1,0.7-0.1,0.8c0,0.2,0,0.3,0,0.3s0.2-0.2,0.8-0.6c0.6-0.4,0.8-0.5,0.9-0.5
		c0.1,0,0.2,0,0.1-0.2C23.4,37.8,23.3,37.4,23.3,37.4L23.3,37.4z"/>
	<path fill="#D4AF3A" d="M25.5,35.7c0,0-0.1,0-0.1,0c0,0,0,0,0,0c-0.1,0-0.4,0.3-0.5,0.5c-0.1,0.2-0.3,0.2-0.1,0
		c0.2-0.2,0.3-0.4,0.4-0.5c0,0,0.1-0.1,0.1-0.1c-0.3-0.1-0.6-0.3-0.9-0.5c0,0.1-0.1,0.2-0.2,0.3c-0.1,0.1-0.4,0.2-0.4,0.2
		s0.2-0.2,0.3-0.4c0-0.1,0.1-0.2,0.1-0.3c-0.2-0.2-0.4-0.3-0.6-0.5c0,0.1-0.1,0.5-0.5,0.9c-0.4,0.5-1.3,0.7-1.3,0.7s-0.3,0-0.1,0.1
		s0.4,0.2,0.9,0.1c0.5-0.1,0.5-0.1,0.6-0.1c0.1,0,0.2,0,0,0.1c-0.2,0.1-0.8,0.2-1,0.2c-0.2,0-0.5-0.1-0.2,0.1s0.4,0.2,0.6,0.2
		c0.2,0,0.3,0.1,0.5,0.1c0.2,0,0.2,0,0.4-0.1c0.1,0,0.2,0,0.2,0.1c0,0.1-0.2,0.2-0.2,0.6c0,0.4,0,0.6,0.1,0.7c0,0.1,0.1,0.3,0.2,0.4
		c0.1,0.1,0.1,0.2,0.1,0c0.1-0.2,0.2-0.5,0.2-0.7c0-0.2,0.1-0.2,0.1-0.3c0-0.1,0.1-0.2,0.1,0c-0.1,0.2-0.1,0.4-0.2,0.6
		c0,0.2-0.1,0.5,0,0.2c0.2-0.3,0.8-0.9,0.9-1c0.1-0.1,0.2-0.2,0.3-0.3c0.1-0.1,0.3-0.2,0.4-0.4c0.1-0.1,0.4-0.4,0.5-0.5
		C25.8,35.8,25.7,35.7,25.5,35.7L25.5,35.7z"/>
	<path fill="#D4AF3A" d="M17.3,20.4c0,0.4,0.4,1.1,0.6,1.4c0.2,0.4,0.3,0.5,0.3,0.5c0,0-0.1-0.2-0.3-0.3c-0.1-0.2-0.4-0.6-0.6-0.8
		c-0.2-0.3-0.5-1-0.5-1.1c0-0.1-0.1-0.1-0.2,0c-0.1,0.1-0.3,0.8-0.1,1.4c0.2,0.5,0.6,0.9,0.7,1.1c0.2,0.2,0.3,0.5,0.3,0.5
		c0,0-0.1,0-0.3-0.2s-0.5-0.5-0.7-0.8c-0.2-0.2-0.4-0.6-0.5-0.7c0-0.1-0.1,0-0.1,0C16,21.4,15.9,21.6,16,22c0.1,0.6,0.4,0.9,0.6,1.2
		c0.3,0.3,0.5,0.5,0.5,0.6c0,0-0.3-0.2-0.5-0.4c-0.2-0.2-0.7-0.6-0.8-0.8c-0.1-0.1-0.3-0.1-0.2,0.4s0.6,1,0.8,1.3
		c0.2,0.3,0.5,0.4,0.5,0.5c0,0.1-0.3-0.1-0.4-0.2c-0.2-0.1-0.7-0.5-0.8-0.5c-0.1-0.1-0.2,0.1,0,0.5c0.1,0.5,0.6,0.9,0.8,1
		c0.2,0.2,0.6,0.4,0.6,0.4c0,0.1-0.2,0-0.4-0.1c-0.2-0.1-0.5-0.2-0.7-0.3c-0.2-0.1-0.2,0.1-0.2,0.1s0,0.4,0.3,0.7
		c0.3,0.3,0.6,0.5,0.9,0.5c0.3,0.1,0.4,0.1,0.4,0.1c0,0,0,0.1-0.1,0.1s-0.4,0-0.6,0s-0.4,0.1-0.4,0.2s0,0.3,0.4,0.5
		c0.4,0.3,0.9,0.3,1,0.3c0.2,0,0.2,0.1,0.2,0.1c0,0.1-0.1,0-0.4,0.1c-0.3,0-0.5,0.2-0.5,0.2c0,0.1,0,0.3,0.3,0.5
		c0.2,0.2,0.6,0.2,1,0.2c0.5,0,0.6,0,0.6,0c0,0.1-0.1,0.1-0.4,0.1c-0.2,0-0.4,0-0.6,0.2c-0.1,0.1,0,0.3,0.2,0.5s0.8,0.2,1,0.2
		c0.2,0,0.6-0.1,0.6,0c0,0.1-0.2,0.2-0.4,0.2c-0.2,0.1-0.3,0.1-0.4,0.2c0,0.1,0,0.2,0.3,0.3c0.3,0.1,0.7,0.1,0.9,0
		c0.2-0.1,0.3-0.1,0.4-0.1c0,0,0,0.1,0,0.1c0,0.1-0.2,0.2-0.5,0.3c-0.2,0.1-0.3,0.1-0.4,0.3c-0.1,0.2,0.1,0.4,0.6,0.4
		c0.4,0,1-0.2,1.2-0.3c0.2-0.1,0.3-0.1,0.3-0.1c0,0,0,0.1-0.1,0.1c-0.1,0.1-0.4,0.3-0.5,0.3c-0.2,0-0.2,0.2-0.2,0.3
		c0,0.1,0,0.3,0.4,0.4c0.4,0.1,0.9,0,1.3-0.3c0.1-0.1,0.2-0.2,0.3-0.2c0-0.4,0-0.7,0-0.9c-0.1,0-0.2,0-0.4-0.1
		c-0.2-0.1-0.3-0.3-0.4-0.4c-0.1-0.1-0.1-0.1-0.2-0.1c-0.1,0-0.2,0.1-0.3,0.1c-0.1,0-0.4-0.1-0.6-0.3c-0.2-0.2-0.2-0.5-0.2-0.6
		c0-0.1-0.2,0-0.3,0c-0.1,0-0.4,0-0.6-0.2c-0.3-0.2-0.3-0.4-0.3-0.5c0-0.1-0.1-0.2-0.2-0.2c-0.1,0-0.2-0.1-0.4-0.2
		c-0.2-0.1-0.2-0.4-0.2-0.5c0-0.1-0.1-0.1-0.5-0.3c-0.4-0.2-0.3-0.6-0.3-0.7c0-0.2,0.2-0.3,0.2-0.3c0-0.1-0.1-0.1-0.2-0.1
		c-0.1-0.1-0.4-0.2-0.4-0.6c0-0.4,0.3-0.5,0.3-0.5s-0.1,0-0.2-0.1C17.4,25.5,17,25.3,17,25c0-0.3,0.1-0.4,0.2-0.4
		c0.1-0.1,0.3-0.1,0.3-0.1s-0.2-0.1-0.2-0.3c-0.1-0.2-0.1-0.5,0.1-0.6c0.2-0.2,0.4-0.2,0.5-0.2c0.1,0,0.3,0.1,0.3,0
		c0,0,0.1-0.1,0-0.2c0-0.1-0.1-0.4,0-0.4c0-0.1,0-0.3,0.4-0.4c0.3-0.1,0.7,0.1,0.8,0.2s0.1-0.1,0.1-0.2c0-0.1-0.2-0.4-0.5-0.8
		c-0.3-0.4-0.4-0.6-0.7-1.2c-0.3-0.6-0.5-1.4-0.5-1.6c0-0.2-0.1-0.1-0.1-0.1s-0.1,0-0.3,0.5C17.3,19.6,17.2,20.1,17.3,20.4
		L17.3,20.4z"/>
	<path fill="#D4AF3A" d="M23.2,28.5c-0.2,0-0.5-0.1-0.7-0.4c-0.2-0.3-0.5-0.4-1-0.4c-0.5,0-0.8-0.2-0.9-0.6c-0.1-0.4,0-0.8,0.6-1.1
		c0.5-0.3,0.8-0.6,0.8-1c0-0.5-0.5-1-1.1-1.7c-0.6-0.6-1-1.5-1-1.5s-0.2,0.2-0.2,0.4s0.1,0.4,0,0.5c-0.1,0.1-0.1-0.1-0.4-0.2
		c-0.3-0.1-0.6-0.2-0.8,0.1c-0.2,0.2,0,0.6,0.2,0.8c0.2,0.2,0.3,0.3,0.3,0.4c-0.1,0.1-0.3-0.1-0.4-0.2c-0.1-0.1-0.3-0.3-0.6-0.3
		c-0.3,0-0.4,0.1-0.5,0.4c0,0.3,0.3,0.5,0.5,0.6c0.2,0.1,0.3,0.2,0.2,0.2c-0.1,0-0.1,0-0.2,0c-0.1,0-0.3-0.1-0.5,0
		c-0.2,0.1-0.4,0.3-0.2,0.6c0.2,0.3,0.8,0.4,0.9,0.4c0.1,0,0.2,0,0.2,0.1c0,0.1-0.2,0.1-0.5,0.1s-0.4,0.3-0.3,0.5
		c0,0.2,0.5,0.4,0.8,0.5c0.3,0,0.3,0,0.4,0.1c0,0.1,0,0.1-0.2,0.1c-0.1,0-0.4,0.1-0.5,0.3c-0.1,0.2-0.1,0.3,0.2,0.5
		c0.2,0.2,0.6,0.2,0.7,0.1c0.1,0,0.2-0.1,0.3,0c0.1,0.1-0.1,0.2-0.3,0.3c-0.2,0.1-0.2,0.4,0.1,0.5c0.3,0.2,0.6,0.1,0.7,0.1
		c0.1,0,0.3-0.2,0.4-0.1c0.1,0.1-0.3,0.2-0.4,0.3c-0.1,0.2-0.1,0.5,0.2,0.6c0.3,0.2,0.8,0.1,0.8,0c0.1-0.1,0.2-0.1,0.2,0
		c0.1,0.1,0,0.2-0.1,0.4c-0.1,0.1-0.2,0.6,0.3,0.7c0.4,0.2,0.8-0.2,0.9-0.3c0.1-0.1,0.1-0.1,0.2-0.1c0.1,0,0,0.1,0,0.2
		c-0.1,0.1-0.2,0.4,0.1,0.6c0.2,0.1,0.4,0.1,0.6,0.1c0.1-0.2,0.1-0.5,0.2-0.9H23c0,0,0,0.1,0,0.1s0,0,0,0c0,0,0,0-0.1,0.1
		c-0.1,0-0.1,0.1-0.1,0.1c0,0,0.1-0.1,0.1-0.1c0,0,0.1-0.1,0.1-0.2c0,0,0-0.1,0.1-0.1c0,0,0,0,0.1-0.1c0-0.2,0.1-0.5,0.1-0.9
		c0-0.2,0-0.4,0.1-0.6L23.2,28.5L23.2,28.5z"/>
	<path fill="#D4AF3A" d="M14.5,22.2c0.5,0.9,1.1,1.4,1.1,1.4s-0.1-0.2-0.1-0.4c0-0.2,0-0.3,0-0.3s-0.2-0.2-0.5-0.7
		c-0.3-0.5-0.5-1.1-0.5-1.1s0.3,0.7,0.5,1c0.2,0.4,0.5,0.7,0.5,0.7s0.1-0.3,0.1-0.3c0.1,0,0.1,0,0.2,0.1c0.1,0.1,0.1,0.1,0.1,0.1
		s-0.1-0.2-0.2-0.3c-0.1-0.1-0.1-0.2-0.2-0.3c-0.2-0.3-0.5-0.8-0.7-1.3c-0.2-0.5-0.6-1.8-0.7-2.2c-0.1-0.4-0.1-0.2-0.2,0.1
		c-0.1,0.3-0.2,0.7-0.1,1.3S14.1,21.2,14.5,22.2L14.5,22.2z"/>
	<path fill="#D4AF3A" d="M15.1,24.6c0.2,0.1,0.4,0.3,0.4,0.3s0-0.1-0.1-0.2s0-0.3,0-0.3s-0.2-0.2-0.3-0.3c-0.1-0.1-0.3-0.3-0.7-0.7
		c-0.3-0.4-0.1-0.2,0.2,0.1c0.3,0.3,0.8,0.8,0.8,0.8s0,0,0-0.1c0-0.1,0-0.2,0.1-0.2c0-0.1,0-0.1-0.3-0.3c-0.3-0.2-1.1-1.1-1.4-1.6
		c-0.3-0.5-0.7-1.2-0.7-1.2S13,21.8,13.7,23C14.3,24.1,14.9,24.5,15.1,24.6z"/>
	<path fill="#D4AF3A" d="M18.5,31.3c0.4-0.1,0.3-0.5,0.3-0.5s-0.2,0.1-0.4,0.1c-0.2,0.1-0.7,0.2-0.9,0.2c-0.2,0-0.2,0-0.2-0.1
		c0,0,0.1,0,0.4-0.1c0.3-0.1,0.8-0.3,0.9-0.4c0.1-0.1,0.1-0.1-0.1-0.1c-0.1,0-0.2-0.1-0.3-0.1c0,0-0.2,0-0.5,0.1
		c-0.3,0.1-1,0.2-1.5,0.2c-0.5,0-1-0.1-1.1-0.1c-0.1,0-0.2,0,0.1,0.4c0.2,0.4,1.1,0.6,1.7,0.6C17.5,31.7,18.1,31.4,18.5,31.3
		L18.5,31.3z"/>
	<path fill="#D4AF3A" d="M16.9,30.4c0.6,0,0.8-0.2,0.8-0.2s0,0-0.1-0.2c-0.1-0.1-0.1-0.3-0.1-0.3s-0.1,0-0.4,0.1
		c-0.3,0-0.6,0.1-0.9,0c-0.3-0.1-0.2-0.1,0.1-0.1c0.3,0,0.8-0.1,0.9-0.1c0.2-0.1,0.1-0.1,0-0.1c-0.1,0-0.4-0.2-0.4-0.2
		s-0.7,0.1-1.4,0c-0.7-0.1-1.1-0.3-1.3-0.3c-0.1,0-0.1,0-0.1,0s0,0.1,0.2,0.4c0.2,0.4,0.7,0.6,1.1,0.7
		C15.7,30.4,16.3,30.4,16.9,30.4L16.9,30.4z"/>
	<path fill="#D4AF3A" d="M16.7,29c0,0,0,0-0.1-0.2c0-0.1,0.1-0.2,0.1-0.2s-0.1,0-0.6-0.1c-0.5-0.1-0.5-0.1-0.8-0.2
		c-0.3-0.1-0.5-0.1-0.5-0.2c0,0,0.1,0,0.3,0.1c0.2,0.1,0.9,0.1,1.2,0.2c0.3,0,0.5,0.1,0.5,0c0.1,0,0.2-0.1,0.2-0.1s-0.1,0-0.3-0.1
		c-0.2,0-0.3-0.1-0.4-0.2c-0.1-0.1-0.1-0.1-0.5-0.1c-0.4,0-0.7-0.2-1.3-0.4c-0.7-0.2-1.2-0.5-1.3-0.6c-0.1-0.1-0.1,0-0.1,0.1
		c0,0.1,0,0.3,0.4,0.7c0.3,0.4,0.5,0.6,1.4,0.9C15.8,29,16.7,29,16.7,29L16.7,29z"/>
	<path fill="#D4AF3A" d="M14.2,26.9c0.8,0.5,1.6,0.7,1.8,0.8c0,0,0-0.2,0-0.3c0-0.1,0.1-0.1,0.3-0.1c0.2,0,0.1,0,0,0s-0.1,0-0.4-0.1
		c-0.3-0.1-0.6-0.1-1-0.3c-0.4-0.2-0.5-0.3-0.5-0.3c0,0,0.2,0.1,0.6,0.2c0.4,0.1,0.8,0.2,1.1,0.3c0.2,0.1,0-0.1-0.1-0.1
		c-0.1-0.1-0.3-0.3-0.3-0.3s-0.3,0-0.7-0.2c-0.4-0.1-0.8-0.3-1.2-0.5c-0.1-0.1-0.2-0.2-0.4-0.3c-0.3-0.2-0.5-0.4-0.6-0.4
		c-0.2-0.1-0.1,0-0.1,0c0,0.1,0.1,0.4,0.4,0.7C13.4,26.3,13.4,26.4,14.2,26.9z"/>
	<path fill="#D4AF3A" d="M14.1,25.4c0.7,0.6,1.4,0.8,1.5,0.8c0.1,0,0.1,0,0.1-0.1c0-0.1,0-0.3,0-0.3s-0.3-0.2-0.6-0.3
		c-0.3-0.2-0.6-0.4-0.8-0.6c-0.2-0.2-0.1-0.1,0-0.1c0.1,0.1,0.4,0.2,0.7,0.4c0.3,0.2,0.8,0.5,0.8,0.5s0-0.1,0.1-0.2
		c0.1-0.1,0.2,0,0.2,0s-0.1-0.1-0.1-0.2c0-0.1-0.3-0.2-0.6-0.3c-0.3-0.1-0.8-0.5-1.1-0.8c-0.4-0.3-1.1-1.1-1.1-1.1
		c0-0.1-0.1-0.1-0.1,0c0,0.1,0,0.1,0,0.5C13,24.1,13.3,24.8,14.1,25.4z"/>
	<path fill="#D4AF3A" d="M16.7,19.8c0.1,0.2,0.2,0.3,0.2,0.4c0.1,0.2,0.2,0.3,0.2,0.3s0-0.1,0-0.2c0-0.1,0-0.2,0-0.4
		c0-0.1,0-0.2,0-0.3c0-0.1,0-0.2,0-0.2c0-0.1-0.1-0.5-0.2-0.8c-0.1-0.3-0.1-0.7-0.1-1.1c0-0.4,0.1-0.2,0.1,0s0,0.5,0.1,0.9
		c0.1,0.4,0.2,1.1,0.2,1.1s0-0.1,0.1-0.3s0.1-0.3,0.2-0.5c0.1-0.2,0-0.2,0-0.2s-0.3-1.3-0.3-1.8c-0.1-0.6-0.2-2.1-0.2-2.1
		c-0.4,0.4-0.7,1.4-0.7,2.4c0,0.7,0.1,1.4,0.1,1.7C16.5,19.1,16.6,19.6,16.7,19.8L16.7,19.8z"/>
	<path fill="#D4AF3A" d="M15.9,21.8c0-0.3,0.1-0.5,0.3-0.6c0,0-0.2-0.3-0.3-0.7c-0.1-0.3-0.2-0.6-0.2-0.9c-0.1-0.7-0.2-1.4,0-0.2
		c0.2,1.1,0.4,1.5,0.4,1.5l0.3,0.5c0-0.2,0-0.4,0-0.6c0-0.2,0-0.5,0.1-0.8c0,0-0.4-0.7-0.6-1.5c-0.2-0.8-0.3-1.6-0.4-2.1
		c0-0.4,0-0.6,0-0.6s-0.4,0.3-0.5,1.6c-0.1,1.4,0.2,2.7,0.4,3.2C15.6,21.2,15.9,21.8,15.9,21.8L15.9,21.8z"/>
	<path fill="#D4AF3A" d="M19.8,32.3c0,0-0.1,0-0.2-0.1c-0.2-0.1-0.1-0.4-0.1-0.4s0,0-0.2,0.1c-0.1,0.1-0.3,0.2-0.4,0.2
		c-0.2,0.1-0.3,0.1-0.4,0.1c-0.1,0-0.1,0,0-0.1c0.1-0.1,0.1-0.1,0.3-0.2c0.2-0.1,0.7-0.5,0.7-0.5s-0.1,0-0.3,0s-0.4-0.1-0.4-0.1
		s-0.2,0.2-0.9,0.5c-0.8,0.3-1.4,0.4-1.4,0.4s0.1,0.4,0.4,0.5c0.3,0.1,0.7,0.2,1.5,0C19.2,32.6,19.8,32.3,19.8,32.3L19.8,32.3z"/>
	<path fill="#D4AF3A" d="M20.8,33.1c0.1-0.3-0.1-0.5-0.1-0.5s0,0-0.2,0.1c-0.1,0.1-0.3,0.3-0.6,0.5c-0.3,0.2-0.4,0.1-0.1,0
		s0.8-0.6,0.8-0.6l-0.1,0c-0.1,0-0.3,0-1.2,0.5c-0.9,0.5-1.4,0.5-1.4,0.5s0.4,0.5,1.4,0.4C20.3,33.9,20.7,33.4,20.8,33.1L20.8,33.1z
		"/>
	<path fill="#D4AF3A" d="M22.7,32.7c0,0-0.1,0.2-0.3,0.3c-0.2,0.1-0.6,0.2-0.6,0.2s0,0-0.1,0.1c-0.1,0.1-0.3,0.3-0.4,0.5
		c-0.2,0.1-0.5,0.2-0.5,0.2c0,0,0.2-0.1,0.3-0.2c0.2-0.1,0.3-0.3,0.5-0.4c0.1-0.1-0.1-0.1-0.1-0.1s-0.2,0-0.4,0
		c-0.2,0-0.2,0-0.2,0.1s-0.1,0.2-0.3,0.4c-0.2,0.2-0.4,0.4-0.5,0.6c-0.1,0.1,0,0.2,0,0.2s0.1,0.1,0.5,0.1c0.3,0,0.6,0,0.9-0.2
		c0.2-0.1,0.4-0.3,0.6-0.5C22.8,33.2,22.7,32.7,22.7,32.7L22.7,32.7z"/>
	<path fill="#D4AF3A" d="M23,33.9c-0.1,0.1-0.2,0.2-0.2,0.2s0.1-0.2,0.1-0.4c0-0.1,0.1-0.1,0.1-0.2c-0.1-0.2-0.1-0.4-0.2-0.6
		c-0.1,0.2-0.2,0.6-0.4,1c-0.2,0.4-0.4,0.5-0.3,0.6c0.1,0.1,0.4,0.1,0.7,0c0.3-0.1,0.4-0.4,0.4-0.6c-0.1-0.1-0.1-0.2-0.1-0.2
		C23.1,33.8,23,33.9,23,33.9L23,33.9z"/>
	<ellipse fill="#D4AF3A" cx="22.9" cy="18.7" rx="0.2" ry="0.2"/>
	<path fill="#D4AF3A" d="M22.5,18.4c0.2,0,0.3-0.1,0.5-0.1c0.3,0,0.6,0.2,1,0.4c0.3,0.1,0.7,0.2,1.2,0.1c0.1,0,0.2-0.1,0.3-0.2
		c0.5-0.3,0.4-0.8,0.4-0.8c-0.4,0.3-0.8,0.4-1.3,0.4c0,0,0,0,0.1,0.1c0.1,0.1,0.2,0.2,0.2,0.2c0,0-0.2-0.1-0.4-0.3
		c-0.2-0.1-0.4-0.3-0.8-0.4c-0.4-0.1-0.8-0.1-1.1,0c-0.3,0.2-0.3,0.4-0.3,0.4C22.4,18.4,22.4,18.4,22.5,18.4z"/>
	<path fill="#D4AF3A" d="M27.9,22.5c-0.1,0-0.2,0-0.4-0.2c-0.2-0.2-0.7-0.7-0.7-0.8c-0.1-0.1,0-0.2,0.1-0.2c0.1-0.1,0.2-0.2,0.2-0.2
		s-0.3-0.1-0.5-0.3c-0.2-0.1-0.7-0.6-0.7-0.7c-0.1-0.1,0-0.1,0.1-0.2c0.1,0,0.1-0.1,0.1-0.1s-0.2-0.1-0.4-0.3
		c-0.2-0.2-0.5-0.4-0.5-0.4c-0.3,0.1-0.8,0.1-1,0c-0.5-0.1-0.8-0.3-0.8-0.3s0,0.1-0.1,0.2c-0.1,0.1-0.3,0.2-0.5,0.1
		c-0.2-0.1-0.2-0.4-0.2-0.4s-0.2-0.1-0.5-0.2c-0.3-0.1-0.6-0.1-0.9,0c-0.3,0.1-0.4,0.5-0.4,0.8c0,0.3,0.2,0.2,0.2,0.1
		c0,0,0.1-0.3,0.5-0.3c0.4-0.1,0.7,0.1,1.1,0.4c0.4,0.3,0.5,0.4,0.7,0.6c0.2,0.2,0,0.3-0.3,0.4s-0.8-0.1-0.8-0.1
		c-0.1,0,0.2,0.3,0.5,0.5c0.3,0.1,0.7,0,1-0.1c0.2-0.1,0.2,0,0.3,0.1c0.3,0.3,0.4,0.7,0.5,1.1c0.2-0.1,0.3-0.2,0.3-0.4
		c0-0.1,0-0.2,0.1-0.1c0.1,0.1,0.2,0.7,0.2,1S24.8,23,24.8,23l0.1,0c0,0,0.1-0.1,0.3-0.1c0.1-0.1,0.1,0,0.1,0.2c0,0.1,0,0.4,0.2,0.9
		c0.2,0.5,0.5,0.7,0.5,0.7s0.1-0.1,0.1-0.3c0.1-0.2,0.1-0.6,0.1-0.9s-0.1-1-0.1-1s0.4,0.5,0.8,0.6c0.4,0.1,0.8,0,1-0.2
		C28.2,22.6,28,22.5,27.9,22.5L27.9,22.5z"/>
	<path fill="#D4AF3A" d="M25.2,23.7c0,0-0.1,0.3-0.2,0.4c-0.1,0.1-0.1,0.1-0.1,0.1s0.1,0.1,0.3,0.2c0.2,0.1,0.4,0.1,0.4,0.1
		s-0.2-0.3-0.3-0.5C25.2,23.8,25.2,23.7,25.2,23.7L25.2,23.7z"/>
	<path fill="#D4AF3A" d="M27.7,23.6c-0.1-0.2-0.1-0.2-0.1-0.2c-0.3,0.1-0.7-0.1-1-0.2c0,0,0.2,0.4,0.4,0.5c0.2,0.1,0.2,0.1,0.2,0.1
		s-0.2,0-0.5-0.2c-0.3-0.3-0.4-0.6-0.4-0.6s0.1,0.7,0,1.1c-0.1,0.4-0.1,0.5-0.1,0.5s0.6,0.1,1.2-0.1c0.6-0.2,0.7-0.2,0.7-0.2
		s0.1,0,0-0.1C27.9,24,27.7,23.7,27.7,23.6L27.7,23.6z"/>
	<path fill="#B96B29" d="M26.6,22.1c-0.2-0.2-0.2-0.3-0.2-0.3s-0.1,0.1,0,0.2c0.1,0.1,0.3,0.3,0.5,0.4c0.2,0.1,0.4,0.1,0.4,0.1l0,0
		C27.2,22.5,26.8,22.3,26.6,22.1z"/>
	<path fill="#B96B29" d="M25.8,23.5c0,0,0-0.9,0-1c0-0.1-0.1-0.1-0.1-0.1l-0.1,0c0,0,0.2,1.1,0.2,1.3c0,0.1,0.1,0.1,0.1,0.1
		C25.8,23.8,25.8,23.5,25.8,23.5L25.8,23.5z"/>
	<path fill="#B96B29" d="M24.7,19.8C24.6,19.7,24.4,19.7,24.7,19.8c0.1,0.2,0.3,0.4,0.3,0.6c0.1,0.2,0.1,0.4,0,0.3
		c-0.1,0-0.2,0-0.3-0.1c-0.1-0.1-0.3-0.2-0.4-0.3c-0.1,0-0.2,0-0.1,0.1c0.1,0.1,0.2,0.3,0.5,0.4c0.2,0.2,0.3,0.2,0.5,0.3
		c0.1,0.1,0.2,0.2,0.2,0.2s-0.1-0.7-0.3-1C24.9,20,24.7,19.9,24.7,19.8z"/>
	<path fill="#B96B29" d="M20.9,31.5c-0.1,0.1-0.3,0.2-0.3,0.2s-0.1,0-0.1,0c0,0,0.1,0,0.2,0c0.1,0,0.3-0.1,0.3-0.2
		c0.1,0,0.1-0.1,0.1-0.2C21.1,31.3,21,31.4,20.9,31.5L20.9,31.5z"/>
	<path fill="#B96B29" d="M22.1,32.2c0,0-0.3,0.2-0.3,0.2s-0.1,0-0.2,0.1c-0.1,0-0.1,0.1-0.1,0.1s0,0,0.1,0
		C21.8,32.5,22,32.3,22.1,32.2C22.2,32.2,22.2,32.2,22.1,32.2C22.2,32.1,22.1,32.1,22.1,32.2L22.1,32.2z"/>
	<path fill="#B96B29" d="M17.2,23.4c0,0.1,0.1,0.1,0.1,0.1C17.3,23.5,17.3,23.4,17.2,23.4c0-0.1,0-0.1,0-0.1S17,23.1,17,23.1
		c0,0-0.1-0.1,0,0C17.1,23.2,17.1,23.3,17.2,23.4z"/>
	<path fill="#B96B29" d="M16.8,24.2c0.1,0,0.1,0.1,0.2,0.2s0.1,0.1,0.1,0.1c0,0-0.1-0.1-0.1-0.2C16.9,24.2,16.8,24.2,16.8,24.2
		c-0.1-0.1-0.2-0.2-0.2-0.2S16.7,24.1,16.8,24.2L16.8,24.2z"/>
	<path fill="#B96B29" d="M16.9,25.5c0.1,0.1,0.2,0.1,0.2,0.1c0,0,0-0.1-0.1-0.1c-0.1,0-0.2-0.1-0.3-0.2c-0.1,0-0.1-0.1-0.2-0.1
		c0,0-0.1-0.1-0.1-0.1c0,0,0.1,0.2,0.2,0.2C16.8,25.4,16.8,25.4,16.9,25.5L16.9,25.5z"/>
	<path fill="#B96B29" d="M17.2,26.6C17.2,26.6,17.2,26.5,17.2,26.6c-0.1-0.1-0.3-0.1-0.3-0.1s-0.2-0.1-0.2,0c0,0,0.1,0.1,0.2,0.1
		C17,26.6,17.1,26.6,17.2,26.6C17.2,26.6,17.2,26.6,17.2,26.6L17.2,26.6z"/>
	<path fill="#B96B29" d="M17.3,27.7c-0.2,0-0.3,0-0.3,0c0,0,0.1,0.1,0.2,0.1c0.1,0,0.2,0,0.3,0c0.1,0,0.1,0,0.1-0.1
		C17.6,27.7,17.5,27.7,17.3,27.7z"/>
	<path fill="#B96B29" d="M18.6,29c0,0-0.1,0-0.2,0c-0.1,0-0.2,0-0.3,0c-0.1,0-0.3,0-0.3,0l-0.1,0c0,0,0.1,0,0.3,0c0.2,0,0.3,0,0.4,0
		C18.6,29.1,18.6,29,18.6,29L18.6,29z"/>
	<path fill="#B96B29" d="M19.2,29.9c-0.1,0-0.2,0-0.3,0c-0.1,0-0.3,0-0.3,0s-0.1,0-0.1,0c0,0,0,0,0.1,0c0.1,0,0.1,0,0.3,0
		c0.1,0,0.2,0,0.3-0.1c0.1,0,0.2-0.1,0.1-0.1C19.3,29.8,19.3,29.9,19.2,29.9L19.2,29.9z"/>
	<path fill="#B96B29" d="M20.2,30.6c-0.1,0.1-0.3,0.2-0.3,0.2s0,0-0.1,0.1c-0.1,0-0.1,0.1-0.1,0.1s0.1,0,0.1-0.1
		c0,0,0.2-0.1,0.3-0.2C20.2,30.7,20.3,30.6,20.2,30.6C20.3,30.5,20.3,30.5,20.2,30.6L20.2,30.6z"/>
	<path fill="#B96B29" d="M18.5,21.8c0,0,0,0,0.2,0.3c0.2,0.2,0.1,0,0,0c0-0.1-0.3-0.4-0.4-0.5c-0.1-0.1-0.1-0.1-0.1,0
		C18.3,21.5,18.5,21.8,18.5,21.8z"/>
	<path fill="#B96B29" d="M18.1,22.9c0,0,0-0.1-0.1-0.2c-0.1-0.1-0.3-0.4-0.3-0.4s-0.1-0.1-0.1-0.1c0,0,0.1,0.2,0.2,0.3
		c0.1,0.1,0.2,0.2,0.3,0.3S18.1,23,18.1,22.9L18.1,22.9z"/>
	<path fill="#B96B29" d="M18.6,25.1c0-0.1-0.2-0.1-0.3-0.1C18.2,25,18,25,18,25s-0.2,0-0.2,0c0,0,0,0,0.1,0.1c0.1,0,0.3,0.1,0.4,0.1
		C18.5,25.1,18.6,25.2,18.6,25.1L18.6,25.1z"/>
	<path fill="#B96B29" d="M18.1,23.9c0.1,0.1,0.2,0.2,0.3,0.2c0.1,0,0.1,0.1,0.2,0.1c0,0,0-0.1-0.1-0.1C18.3,24,18.2,24,18.2,24
		S18.2,23.9,18.1,23.9C18,23.9,17.9,23.8,18.1,23.9L18.1,23.9z"/>
	<path fill="#B96B29" d="M19.2,23.2c-0.1-0.1-0.2-0.1-0.2-0.1S19,22.9,19,23C18.9,23,19.1,23.1,19.2,23.2c0,0.1,0.1,0.2,0.1,0.2
		C19.4,23.3,19.3,23.2,19.2,23.2z"/>
	<path fill="#B96B29" d="M18.5,26.2c0,0-0.1,0-0.2,0c-0.1,0-0.1,0.1,0.1,0.1s0.2,0,0.3-0.1c0.1,0,0.2,0,0.2-0.1c0,0-0.1,0-0.1,0
		C18.6,26.2,18.5,26.2,18.5,26.2z"/>
	<path fill="#B96B29" d="M18.7,27.3c0,0,0.1,0,0.2,0c0.1,0,0.2-0.1,0.3-0.1c0.1,0,0.1,0,0.1-0.1c0,0-0.1,0-0.2,0
		C18.9,27.1,18.8,27.2,18.7,27.3C18.8,27.2,18.7,27.3,18.7,27.3L18.7,27.3z"/>
	<path fill="#B96B29" d="M20.1,28c0.1-0.1,0.1-0.1,0.1-0.1C20.2,27.8,20.1,27.8,20.1,28c-0.1,0-0.3,0.1-0.3,0.1s-0.1,0-0.1,0.1
		c-0.1,0-0.1,0.1-0.1,0.1c0,0,0.1,0,0.2-0.1C19.8,28.1,20,28,20.1,28L20.1,28z"/>
	<path fill="#B96B29" d="M20.8,28.8c0,0,0.2-0.1,0.2-0.1c0.1,0,0.1-0.2,0-0.2c0,0-0.1,0-0.2,0.1c-0.1,0.1-0.4,0.3-0.4,0.3l-0.1,0
		c-0.1,0,0,0.1,0,0c0.1,0,0.1,0,0.2-0.1C20.7,28.9,20.7,28.9,20.8,28.8z"/>
	<path fill="#B96B29" d="M21.8,29.7c0.1,0,0.2-0.1,0.3-0.2c0.1-0.1,0.1-0.1,0.1-0.2c0,0-0.1,0-0.2,0.1
		C21.9,29.5,21.7,29.7,21.8,29.7c-0.1,0-0.1,0-0.2,0.1c-0.1,0.1,0,0.1,0,0C21.7,29.7,21.7,29.7,21.8,29.7L21.8,29.7z"/>
	<polygon fill="#D4AF3A" points="25.8,17.1 26.2,16.8 25.7,16.7 25.4,16.9 	"/>
	<ellipse fill="#B96B29" cx="27.1" cy="16.8" rx="0.4" ry="0.4"/>
	<ellipse fill="#D4AF3A" cx="27.1" cy="16.7" rx="0.2" ry="0.2"/>
	<path fill="#D4AF3A" d="M26.3,15.5c0.1,0,0.2,0,0.2,0s0-0.2-0.1-0.3c-0.1-0.1-0.2-0.1-0.2-0.2C26.2,15,26.1,15,26.1,15s0,0.1,0,0.2
		C26.1,15.3,26.2,15.5,26.3,15.5L26.3,15.5z"/>
	<ellipse fill="#D4AF3A" cx="26.5" cy="15.7" rx="0.1" ry="0.1"/>
	<path fill="#D4AF3A" d="M26,15.6c0,0-0.1,0.1-0.1,0.1s0.1,0,0.1,0c0.1,0,0.1,0.1,0.2,0.1c0.1,0,0.1-0.1,0.1-0.1
		c0-0.1-0.1-0.1-0.2-0.1C26,15.5,26,15.6,26,15.6z"/>
	<path fill="#D4AF3A" d="M26.2,16.1c-0.2,0-0.6-0.2-0.6-0.2c0,0.2-0.2,0.3-0.4,0.4l0,0c0,0,0.2,0.1,0.4,0.1c0.1,0,0.2,0,0.3,0
		c0.1,0,0.3-0.1,0.4-0.1c0.1-0.1,0.1-0.3,0.1-0.3S26.5,16.1,26.2,16.1L26.2,16.1z"/>
	<path fill="#D4AF3A" d="M25.3,15.8c-0.1,0-0.2-0.1-0.3-0.1c-0.1,0-0.2,0-0.1,0.1c0,0.1,0.1,0.2,0.2,0.2C25.2,16,25.3,16,25.3,15.8
		C25.4,15.9,25.4,15.9,25.3,15.8z"/>
	<path fill="#D4AF3A" d="M24.5,15.4c-0.1-0.1-0.2-0.1-0.2-0.1s-0.1,0.2,0,0.3c0,0.1,0.1,0.1,0.2,0.1c0.1,0,0.3-0.1,0.2-0.1
		C24.7,15.6,24.7,15.5,24.5,15.4z"/>
	<ellipse fill="#D4AF3A" cx="24.6" cy="16" rx="0.1" ry="0.1"/>
	<path fill="#D4AF3A" d="M24.9,15c-0.1-0.3-0.1-0.7,0.2-1.1c0.3-0.4,0.8-0.6,0.8-0.6s0,0,0.2-0.2c0.2-0.2,0.5-0.4,0.5-0.4
		s-0.4,0.1-0.6,0.2c0,0,0,0,0,0c0,0.2-0.1,0.3-0.3,0.3c-0.1,0-0.1,0-0.2,0c-0.1,0-0.5,0.3-0.6,0.3c0,0,0,0.1,0,0.1
		c0,0.2-0.1,0.3-0.3,0.3c0,0-0.1,0-0.1,0c0,0,0,0,0,0.1c-0.1,0.2-0.1,0.3-0.2,0.4c0.1,0,0.1,0.1,0.1,0.2c0,0.1-0.1,0.3-0.2,0.3
		c0,0.1,0,0.1,0,0.2c0,0.1,0,0.1,0.2,0.2c0.2,0,0.4,0.3,0.4,0.3C24.8,15.5,25,15.3,24.9,15L24.9,15z"/>
	<path fill="#D4AF3A" d="M25.8,13c0.1,0,0.1-0.1,0-0.2c0,0-0.1,0-0.2,0c-0.1,0-0.1,0.1,0,0.2C25.7,13.1,25.8,13.1,25.8,13z"/>
	<path fill="#D4AF3A" d="M24.8,13.7c0.1-0.1,0.1-0.1,0-0.2c-0.1-0.1-0.1,0-0.2,0c-0.1,0.1-0.1,0.1,0,0.2
		C24.7,13.8,24.8,13.8,24.8,13.7z"/>
	<ellipse fill="#D4AF3A" cx="24.2" cy="14.5" rx="0.2" ry="0.2"/>
	<path fill="#D4AF3A" d="M27.6,12.4c-0.1,0-0.2,0.1-0.4,0.2h0c0.2,0,0.3,0.1,0.3,0.2c0,0.1-0.1,0.3-0.3,0.3s-0.3-0.1-0.3-0.3
		c0,0,0-0.1,0-0.1c-0.1,0-0.1,0.1-0.2,0.1c-0.5,0.3-0.6,0.5-0.8,0.9c-0.2,0.5-0.3,0.9-0.2,1.2c0.1,0.3,0.5,0.4,0.5,0.4s0,0,0-0.1
		c0-0.1,0-0.1,0-0.2c0-0.1,0-0.2,0-0.2s0.1,0,0.1,0c0,0.1,0.1,0.1,0.2,0.2c0,0.1,0.2,0.2,0.2,0.2s0.1-0.1,0.1-0.2
		c0-0.1-0.1-0.3-0.1-0.5c0-0.2,0.1-0.6,0.3-0.9c0.2-0.3,0.7-0.6,0.8-0.6c0.1-0.1,0.1-0.2,0.2-0.2c0-0.1,0-0.1,0-0.2
		C27.8,12.4,27.7,12.4,27.6,12.4L27.6,12.4z"/>
	<path fill="#D4AF3A" d="M27.1,12.9c0.1,0,0.2-0.1,0.2-0.1c0-0.1-0.1-0.1-0.2-0.1c-0.1,0-0.2,0.1-0.2,0.1S27,12.9,27.1,12.9z"/>
	<path fill="#D4AF3A" d="M27.8,15.8c0.1,0,0.3,0,0.3,0c0.1,0,0.1-0.1,0-0.2c-0.1-0.1-0.2-0.1-0.3,0c-0.1,0-0.2,0.1-0.2,0.1
		S27.7,15.8,27.8,15.8z"/>
	<path fill="#D4AF3A" d="M28.2,15.9c0,0.1-0.1,0.1-0.2,0.1s-0.3,0-0.4-0.1c-0.1-0.1-0.1-0.2-0.1-0.2l-0.1,0c0,0,0,0.2-0.1,0.3
		c-0.1,0.1-0.3,0.1-0.4,0c-0.1-0.1-0.2-0.2-0.2-0.2c0,0,0,0.1,0.1,0.2c0.1,0.1,0.2,0.1,0.3,0.1H28c0,0,0.2,0,0.2-0.1
		C28.3,16,28.3,15.9,28.2,15.9C28.2,15.8,28.2,15.9,28.2,15.9L28.2,15.9z"/>
	<path fill="#D4AF3A" d="M26.7,15.8c0.1,0.1,0.2,0,0.3,0c0.1-0.1,0.1-0.1,0.1-0.1s-0.1,0-0.2-0.1c-0.1,0-0.1-0.1-0.2-0.1
		c-0.1,0-0.1,0-0.1,0S26.6,15.7,26.7,15.8L26.7,15.8z"/>
	<ellipse fill="#B96B29" cx="26.1" cy="14.4" rx="0.3" ry="0.3"/>
	<path fill="#B96B29" d="M26.6,13.3c-0.1-0.1-0.3-0.1-0.4,0.1c-0.1,0.1-0.1,0.3,0,0.4c0.1,0.1,0.3,0.1,0.4-0.1
		C26.8,13.6,26.7,13.4,26.6,13.3z"/>
	<ellipse fill="#D4AF3A" cx="26.1" cy="14.4" rx="0.2" ry="0.2"/>
	<path fill="#D4AF3A" d="M26.5,13.3c-0.1,0-0.2,0-0.2,0.1c0,0.1,0,0.1,0.1,0.2C26.6,13.6,26.7,13.4,26.5,13.3L26.5,13.3z"/>
	<path fill="#D4AF3A" d="M21.7,37.7c0,0-0.5,0.2-0.6,0.3c-0.2,0-0.2,0-0.2,0s-0.3,0.3-0.6,0.4c-0.3,0.2-0.5,0.3-0.8,0.3
		c-0.4,0-1.4,0-1.9,0c-0.5,0-0.8,0.1-1,0.3c-0.2,0.2-0.2,0.6,0,0.8c0.3,0.2,0.5,0.1,0.6,0c0.1-0.2,0-0.4,0-0.4
		c0-0.1,0.1-0.1,0.2-0.1c0.1,0,0.3,0,0.6,0c0.2,0,0.6,0.1,0.7,0.2c0.2,0.1,0.1,0.1,0,0.1c-0.1,0-0.2-0.1-0.4-0.1
		c-0.2-0.1-0.3-0.1-0.5-0.1c-0.1,0-0.1,0.1-0.1,0.1c0,0,0.1,0.1,0.1,0.2c0,0,0,0.2,0,0.2l0.1,0.1c0,0,0.1-0.1,0.1-0.2
		c0-0.1,0-0.2,0-0.2c0-0.1,0.1-0.1,0.2,0c0.1,0.1,0.2,0.2,0.2,0.4c0,0.2,0,0.4,0,0.4s0.1,0.1,0.1,0.1c0,0.1,0,0.3,0,0.3
		s0.1,0,0.1-0.1c0.1-0.1,0.1-0.3,0.1-0.4c0-0.1,0.1-0.2,0.2-0.1c0.1,0.1,0.2,0.2,0.2,0.3c0,0.1,0,0.1,0,0.1s0.2-0.2,0.3-0.3
		c0.1-0.1,0.2-0.3,0.4-0.5c0.2-0.2,0.6-0.5,0.7-0.6c0.2-0.1,0.6-0.4,0.7-0.4c0.1-0.1,0.2-0.1,0.2-0.3c0-0.2,0.1-0.4,0.2-0.6
		C21.7,37.7,21.7,37.7,21.7,37.7L21.7,37.7z"/>
	<path fill="#D4AF3A" d="M13.9,29c0,0-0.1-0.2-0.1-0.2c0-0.1-0.1,0-0.1,0s-0.2,0.1-0.3,0.1c-0.1,0-0.1,0-0.1-0.1
		c0-0.1,0-0.2-0.1-0.4c0-0.1,0-0.1-0.1-0.1c0,0-0.2,0.1-0.3,0.1c-0.1,0-0.1,0.1,0,0.1c0,0.1,0.1,0.3,0.2,0.4C13.1,29,13,29,13,29
		c-0.1,0-0.1,0-0.3,0.1c-0.1,0-0.1,0.1-0.1,0.1c0,0,0.1,0.2,0.1,0.3c0,0.1,0.1,0,0.1,0s0.1-0.1,0.2-0.2c0.1-0.1,0.1,0,0.1,0
		c0,0.1,0.2,0.5,0.2,0.6c0,0.1,0.1,0.1,0.1,0c0.1,0,0.1,0,0.2-0.1c0.1,0,0.1-0.1,0.1-0.1s-0.2-0.4-0.3-0.5c-0.1-0.1,0-0.1,0-0.1
		c0,0,0.2,0,0.3-0.1C13.9,29.1,13.9,29,13.9,29L13.9,29z"/>
	<path fill="#D4AF3A" d="M16.5,40.4c0-0.1,0-0.2-0.1-0.3c-0.1-0.1-0.2-0.2-0.2-0.4c0-0.1,0-0.2,0-0.3c0-0.1-0.1-0.1-0.2,0
		c-0.1,0.1-0.2,0.1-0.2,0.4c0,0.2,0.1,0.5,0.4,0.6C16.6,40.5,16.6,40.5,16.5,40.4L16.5,40.4z"/>
	<path fill="#D4AF3A" d="M16.9,40.3C16.9,40.3,16.8,40.2,16.9,40.3c-0.1,0.1-0.1,0.1,0,0.2s0.1,0.2,0.2,0.2c0.1,0.1,0-0.1,0-0.1
		c0,0,0-0.1,0-0.1c0,0,0-0.1,0-0.2C17,40.3,16.9,40.3,16.9,40.3L16.9,40.3z"/>
	<path fill="#D4AF3A" d="M17.2,41.3c0.1-0.1,0.1-0.1,0.3-0.2s0.4-0.1,0.5-0.1c0.1,0,0.3-0.2,0.3-0.4c0-0.2-0.2-0.2-0.3-0.3
		c-0.1,0-0.2,0-0.2,0c0,0.1-0.1,0.1-0.2,0.2c-0.1,0-0.1,0.1-0.2,0.1c-0.1,0,0,0.1-0.1,0.1c-0.1,0.1-0.2,0-0.3,0
		c-0.1,0-0.1,0-0.2-0.1c-0.1,0-0.4,0-0.4,0s0,0-0.1,0c-0.1,0-0.1,0-0.1,0.1c0,0.1,0,0.2,0.1,0.3c0.1,0.1,0.3,0.1,0.5,0.2
		c0.2,0,0.2,0.1,0.4,0.1C17.2,41.4,17.2,41.4,17.2,41.3L17.2,41.3z"/>
	<path fill="#D4AF3A" d="M18.7,41.5c0.1-0.1,0.1-0.2,0-0.3c0-0.1-0.2-0.1-0.3-0.1c-0.1,0-0.1,0-0.2,0c0,0-0.1,0.1-0.2,0.1
		c-0.1,0-0.2,0.1-0.4,0.2c-0.2,0.1-0.2,0.2-0.3,0.2c-0.1,0-0.2,0-0.2,0s-0.1,0-0.1,0c0,0,0,0.1,0.1,0.2c0.1,0.1,0.2,0.1,0.4,0.1
		c0.2,0,0.2,0,0.2,0c0.1,0,0.1-0.1,0.2-0.2c0.1-0.1,0.3-0.1,0.5-0.1C18.4,41.6,18.6,41.6,18.7,41.5L18.7,41.5z"/>
	<path fill="#D4AF3A" d="M18.7,40.9c0.1,0,0.1,0.1,0.2,0c0-0.1,0.1-0.2,0.1-0.3c-0.1-0.1-0.1-0.2-0.1-0.2s-0.1,0.3-0.1,0.3
		C18.6,40.9,18.6,40.9,18.7,40.9L18.7,40.9z"/>
	<path fill="#D4AF3A" d="M18.2,40.1c0-0.2-0.1-0.3-0.1-0.3s0,0.1-0.1,0.3c-0.1,0.1-0.1,0.2-0.1,0.2s0.2,0,0.2,0S18.2,40.3,18.2,40.1
		L18.2,40.1z"/>
	<path fill="#D4AF3A" d="M17.3,40.4c0.2,0,0.3-0.1,0.3-0.2s0.1-0.2,0.1-0.3c0-0.1-0.2-0.2-0.2-0.2h-0.1c0,0,0,0.2-0.1,0.2
		c-0.1,0.1-0.1,0.1-0.1,0.2C17.2,40.4,17.1,40.5,17.3,40.4L17.3,40.4z"/>
	<path fill="#D4AF3A" d="M17.7,39.7c0-0.1,0-0.2-0.1-0.2c-0.1-0.1-0.1-0.1-0.1-0.1s0,0.1,0,0.2c0,0.1,0,0.1,0,0.1s0,0,0.1,0.1
		C17.6,39.7,17.6,39.8,17.7,39.7L17.7,39.7z"/>
	<path fill="#D4AF3A" d="M15.6,35.5l0.1-0.7c-0.1-0.7-0.4-1.4-0.7-1.8c-0.3-0.5-0.6-1.2-0.7-1.6C14.1,31,14,30.5,14,30.2
		c0-0.3,0.1-0.4,0.1-0.4s0.1-0.1,0-0.1c0,0-0.1,0-0.2,0.1s-0.2,0.2-0.2,0.3c0,0.1,0,0.1,0,0.1s-0.1,0-0.4,0c-0.2,0-0.4,0-0.4,0.1
		c0,0.1,0,0.1,0.2,0.2c0.2,0.1,0.3,0.1,0.4,0.2c0.1,0.1,0.3,0.6,0.4,0.9c0.1,0.2,0.2,0.9,0.3,1.4s0.2,1.2,0.5,1.7
		C14.8,34.8,15.2,35.6,15.6,35.5L15.6,35.5z"/>
	<path fill="#D4AF3A" d="M16,36.7c-0.2,0.1-0.2,0.8-0.1,1.1c0.1,0.3,0.4,0.8,0.5,0.9c0.1,0.1,0.1,0.1,0.2,0.1c0.1,0,0.1,0,0.1,0
		s0.1,0,0.3-0.1c0.1-0.1,0.1-0.3,0-0.5c0-0.2-0.2-0.6-0.4-1C16.3,36.7,16.2,36.6,16,36.7L16,36.7z"/>
	<path fill="#D4AF3A" d="M16.2,36.2c0-0.2-0.2-0.4-0.4-0.4c-0.1,0-0.2,0-0.2,0.1c-0.2,0.2-0.1,0.7,0.2,0.7c0.1,0,0.2,0,0.3-0.1
		C16.2,36.4,16.2,36.3,16.2,36.2L16.2,36.2z"/>
	<path fill="#D4AF3A" d="M19.3,42.4c-0.1,0-0.1-0.1-0.3-0.1c-0.1-0.1-0.3-0.3-0.4-0.4c0-0.1,0-0.1-0.2-0.1c-0.1,0-0.3,0-0.4,0
		c-0.1,0,0,0.2,0.1,0.3c0.1,0.1,0.1,0.6,0.1,0.6s0,0,0,0.1c0,0.1,0,0.1,0,0.1c0,0,0.1,0,0.1-0.1c0.1-0.1,0.3-0.4,0.3-0.4s0,0,0.2,0
		c0.1,0,0.4,0,0.5,0C19.5,42.5,19.4,42.4,19.3,42.4L19.3,42.4z"/>
	<path fill="#D4AF3A" d="M18.8,42.8c-0.1,0-0.1,0-0.1,0c0,0-0.1,0.1-0.1,0.2c0,0,0,0.1,0,0.1c0,0,0.1,0.1,0.1,0.1s0.1,0.1,0.1,0.1
		c0.1,0,0.1-0.1,0.1-0.1c0-0.1,0-0.2,0-0.2S18.9,42.8,18.8,42.8L18.8,42.8z"/>
	<path fill="#1D5E91" d="M41.9,38.3c-0.1,0-0.2-0.1-0.2-0.1s-0.1,0-0.1,0.1c0,0.1-0.2,0.2-0.2,0.2s-0.3,0.1-0.3,0.3
		c0,0.2,0.1,0.2,0.2,0.2c0.1,0,0.4-0.1,0.6-0.2c0.1-0.2,0.2-0.3,0.2-0.3C42.1,38.3,42.1,38.3,41.9,38.3L41.9,38.3z"/>
	<path fill="#1D5E91" d="M42.3,36.8c-0.1-0.4-0.4-0.9-0.9-1.2c0,0-0.2,0.7-0.2,0.9c-0.1,0.2-0.1,0.2,0.1,0.2c0.2,0,0.7,0.2,0.8,0.2
		S42.4,37.1,42.3,36.8L42.3,36.8z"/>
	<path fill="#1D5E91" d="M39.9,36.4c0.1,0,0.1,0,0.1-0.2c0-0.2,0.3-1,0.3-1s-0.5,0-1,0.2c-0.5,0.2-0.7,0.6-0.7,0.6s0.1,0,0.4,0.1
		C39.4,36.3,39.8,36.4,39.9,36.4L39.9,36.4z"/>
	<path fill="#1D5E91" d="M38.7,37.6c-0.2,0-0.3-0.1-0.3-0.1s0.1,0.5,0.3,0.7c0.2,0.3,0.4,0.4,0.8,0.4c0.4,0,0.7-0.2,0.8-0.4
		c0-0.2,0.1-0.3,0.1-0.3s-0.7-0.1-1-0.2C39.1,37.7,38.9,37.6,38.7,37.6L38.7,37.6z"/>
	<path fill="#D4AF3A" d="M38.5,37.3c0.2,0,1.7,0.3,1.8,0.4c0.1,0,0.2,0.1,0.3,0c0,0,0.1-0.1,0.2-0.1c0.1,0,0.1-0.2,0.1-0.2
		s0-0.1,0-0.3c0-0.1,0.1-0.2,0.2,0c0.1,0.2,0.2,0.4,0.2,0.6c0,0.2,0.4,0.3,0.5,0.3c0.1,0,0.2,0,0.3-0.1c0.1-0.1,0.1-0.4,0.1-0.5
		c0-0.2,0-0.1-0.2-0.2c-0.2,0-1-0.2-1.1-0.3c-0.1,0-0.1-0.1-0.1-0.2s0.3-1.1,0.3-1.1c-0.2-0.1-0.5-0.2-0.9-0.3c0,0-0.2,1-0.3,1.2
		c0,0.2-0.1,0.2-0.3,0.1c-0.2,0-1.3-0.3-1.3-0.3s0,0-0.1,0.2c-0.1,0.2-0.1,0.5-0.1,0.6S38.4,37.2,38.5,37.3L38.5,37.3z"/>
	<path fill="#D4AF3A" d="M42.6,38.2c-0.2-0.1-0.3-0.1-0.4,0.1c-0.1,0.2-0.1,0.5-0.3,0.7c-0.2,0.2-0.5,0.4-0.8,0.4
		c-0.3,0-0.4-0.1-0.4-0.4c0.1-0.3,0.5-0.4,0.6-0.6c0.1-0.2,0.1-0.4-0.1-0.5c-0.1-0.1-0.4-0.2-0.4-0.1c-0.1,0-0.2,0.2-0.3,0.4
		c-0.1,0.2-0.1,0.4-0.3,0.6c-0.2,0.2-0.7,0.3-1.1,0.2c-0.4-0.1-0.5-0.2-0.7-0.6c-0.1-0.4-0.3-1-0.4-1.1c-0.1-0.1-0.2-0.1-0.3,0
		c-0.2,0.1-0.2,0.3-0.2,0.4c0,0.1,0,0.3,0.2,0.5c0.2,0.2,0.3,0.4,0.4,0.6c0.1,0.2,0.2,0.5,0,0.5c-0.3,0-0.4,0-0.6-0.2
		c-0.2-0.2-1-0.7-1.2-0.9c-0.2-0.2-0.3-0.2-0.3-0.2c-0.4,0-0.7-0.2-1.1-0.4c0,0,0.2,0.5,0.2,0.7c0,0.2,0,0.3,0,0.3s0.8,0.4,1.1,0.5
		c0.3,0.1,0.9,0.5,1.2,0.7c0.3,0.2,0.5,0.5,1.1,0.4c0.5-0.1,1.6-0.4,1.9-0.5c0.3-0.1,1.3-0.3,1.7-0.6c0.4-0.2,0.4-0.2,0.4-0.5
		C42.8,38.4,42.7,38.3,42.6,38.2L42.6,38.2z"/>
	<path fill="#D4AF3A" d="M40.5,34.5c0.1,0,0.1,0,0.3,0c0.2,0,0.1,0.1,0.1,0.2c0,0.1-0.1,0.2-0.2,0.3c-0.1,0.1,0,0.1,0.1,0.2
		c0.1,0,0.1,0,0.3,0.1c0.1,0,0.1-0.1,0.1-0.1c0-0.1,0-0.3,0-0.4c0-0.1,0.1-0.1,0.1-0.1c0,0,0.1,0.1,0.2,0.1c0.1,0,0.1,0,0.1,0
		c0,0,0.1-0.1,0.1-0.2c0-0.1,0-0.1-0.1-0.1c-0.1,0-0.2,0-0.3,0c-0.1,0,0-0.1,0-0.1s0.1-0.1,0.2-0.2c0.1-0.1,0-0.1,0-0.1
		c-0.1,0-0.3-0.1-0.3-0.1c-0.1,0-0.1,0-0.1,0c0,0,0,0.2,0,0.3c0,0.1,0,0.1-0.1,0.1c-0.1,0-0.2-0.1-0.2-0.1c-0.1-0.1-0.1-0.1-0.1,0
		C40.5,34.1,40.5,34.4,40.5,34.5C40.4,34.5,40.5,34.5,40.5,34.5L40.5,34.5z"/>
	<path fill="#D4AF3A" d="M41.1,37.1c0,0,0,0.2,0,0.3c0,0.1-0.1,0.2,0,0.2c0.1,0,0.2,0.1,0.2,0c0,0,0-0.1,0-0.2
		C41.3,37.3,41.2,37.2,41.1,37.1C41.1,37.1,41.1,37.1,41.1,37.1L41.1,37.1z"/>
	<path fill="#D4AF3A" d="M42.3,37.9c0,0.1,0.1,0.1,0.1,0.1c0,0,0.1,0,0.1-0.1s0-0.2,0-0.3c-0.1-0.1-0.1-0.1-0.1,0
		C42.3,37.8,42.3,37.9,42.3,37.9L42.3,37.9z"/>
	<path fill="#D4AF3A" d="M38,37.1c0,0,0.2,0,0.2,0s0-0.2,0-0.3c0-0.1,0.1-0.2,0-0.2s-0.1,0-0.1,0.1c0,0.1-0.1,0.1-0.2,0.2
		C37.9,37.1,38,37.1,38,37.1L38,37.1z"/>
	<circle fill="#B96B29" cx="38.8" cy="36.8" r="0.3"/>
	<circle fill="#B96B29" cx="39.6" cy="36.9" r="0.3"/>
	<circle fill="#B96B29" cx="41.9" cy="37.4" r="0.3"/>
	<circle fill="#B96B29" cx="40.4" cy="37.1" r="0.3"/>
	<circle fill="#B96B29" cx="40.6" cy="36.4" r="0.3"/>
	<circle fill="#B96B29" cx="40.8" cy="35.8" r="0.3"/>
	<circle fill="#D4AF3A" cx="38.9" cy="36.7" r="0.1"/>
	<circle fill="#D4AF3A" cx="39.6" cy="36.9" r="0.1"/>
	<circle fill="#D4AF3A" cx="41.9" cy="37.4" r="0.1"/>
	<circle fill="#D4AF3A" cx="40.4" cy="37.1" r="0.1"/>
	<circle fill="#D4AF3A" cx="40.6" cy="36.4" r="0.1"/>
	<circle fill="#D4AF3A" cx="40.8" cy="35.7" r="0.1"/>
	<path fill="#D4AF3A" d="M31.8,42.4c-0.1-0.1-0.3-0.2-0.6-0.4c-0.3-0.2-0.5-0.5-0.5-0.5h0.1c0.1,0,0.1-0.1,0.1-0.2
		c0-0.1,0-0.3,0-0.5c0-0.2,0-0.4,0-0.4s0.1,0.1,0.4,0.2c0.2,0.1,0.3,0.1,0.3,0.1l0.1-0.2c0,0,0.1,0.2,0.2,0.4
		c0.1,0.2,0.5,0.5,0.8,0.7c0.3,0.2,0.5,0.4,0.8,0.5c0.2,0.1,0.1,0.2,0.1,0.2s-0.2,0.2-0.8,0.3C32.2,42.7,32,42.5,31.8,42.4
		L31.8,42.4z"/>
	<path fill="#D4AF3A" d="M29.9,42.2c0.2,0,0.3-0.1,0.4-0.3c0-0.1,0-0.7,0-0.7s0.1,0.1,0.1,0.1c0.1,0.1,0.2,0.1,0.2,0.1
		s0,0.1,0.1,0.2c0.1,0.1,0.2,0.3,0.4,0.4c0.2,0.1,0.4,0.3,0.6,0.4c0.1,0.1,0.3,0.3,0.5,0.4c0.2,0.1,0.4,0.3,0.4,0.6
		c0.1,0.3,0,0.4-0.2,0.4c-0.2,0-0.2,0-0.6-0.1c-0.4-0.1-0.9-0.5-1.2-0.7C30.2,42.7,29.9,42.2,29.9,42.2L29.9,42.2z"/>
	<path fill="#D4AF3A" d="M28.9,42.5c0,0,0.1-0.2,0.2-0.4c0.1-0.2,0.2-0.6,0.2-0.6s0,0.1,0.2,0.4c0.1,0.3,0.3,0.3,0.3,0.3
		s0,0.1,0.2,0.3c0.2,0.2,0.4,0.4,0.7,0.6c0.3,0.1,0.6,0.4,0.8,0.6c0.2,0.3,0.2,0.5,0.1,0.6c-0.1,0.1-0.2,0-0.4-0.1
		c-0.2-0.1-0.7-0.2-1.3-0.5C29.1,43.3,28.9,42.5,28.9,42.5L28.9,42.5z"/>
	<path fill="#D4AF3A" d="M28.6,44c-0.2-0.3-0.2-0.9-0.2-0.9s0.1,0,0.2-0.1c0.1-0.1,0.3-0.3,0.3-0.3s0.1,0.2,0.2,0.4
		c0.1,0.2,0.2,0.3,0.4,0.5c0.2,0.2,0.6,0.5,0.7,0.7c0.1,0.2,0.1,0.7,0,0.9c-0.1,0.2-0.2,0.1-0.4,0c-0.1-0.1-0.2-0.2-0.4-0.4
		C29.2,44.6,28.8,44.3,28.6,44L28.6,44z"/>
	<path fill="#B96B29" d="M30.8,38.4c-0.1-0.2-0.2-0.4-0.3-0.6c-0.1-0.1-0.2-0.3-0.2-0.3s0.2,0.2,0.3,0.4
		C30.8,38.1,30.9,38.3,30.8,38.4C30.9,38.6,30.9,38.6,30.8,38.4z"/>
	<path fill="#B96B29" d="M29.9,38.6c0-0.1-0.1-0.2-0.1-0.2s0-0.1,0-0.1c0,0,0.1,0.1,0.2,0.3c0.1,0.2,0.2,0.5,0.1,0.5
		C30.1,39.1,29.9,38.7,29.9,38.6L29.9,38.6z"/>
	<path fill="#B96B29" d="M29.1,39.2C29.1,39.1,29.1,39.1,29.1,39.2c0-0.1-0.1-0.3-0.1-0.4c0-0.1,0-0.1,0.1,0
		C29.2,38.9,29.2,39.1,29.1,39.2c0.1,0,0.1,0.2,0.1,0.2C29.2,39.4,29.2,39.3,29.1,39.2L29.1,39.2z"/>
	<path fill="#B96B29" d="M31.4,41.5L31.4,41.5c0.1-0.1,0.2,0,0.2,0.1c0.1,0.1,0.2,0.1,0.2,0.2c0.1,0.1,0.2,0.2,0.3,0.3
		s0.2,0.1,0.2,0.1c0,0-0.1,0-0.1,0s0,0-0.2-0.1c-0.2-0.1-0.2-0.2-0.3-0.3S31.4,41.5,31.4,41.5z"/>
	<path fill="#B96B29" d="M30.6,42.4c-0.1-0.1-0.1-0.1-0.1-0.2c0,0,0.1,0,0.2,0c0.1,0.1,0.2,0.2,0.3,0.3c0.1,0.1,0.2,0.1,0.2,0.2
		c0.1,0.1,0.3,0.2,0.4,0.2c0.1,0,0,0.1,0,0.1s-0.1,0-0.1-0.1c-0.1,0-0.3-0.1-0.3-0.1s-0.1,0-0.2-0.1C30.9,42.6,30.7,42.5,30.6,42.4
		L30.6,42.4z"/>
	<path fill="#B96B29" d="M29.7,43.1c-0.1-0.1,0-0.1,0.1,0c0.1,0,0.3,0.3,0.5,0.4c0.1,0.1,0.2,0.1,0.3,0.2c0.1,0.1,0.1,0.1,0.1,0.1
		c0,0,0,0-0.1,0c0,0-0.2-0.1-0.2-0.1s-0.1,0-0.1,0c-0.1,0-0.1-0.1-0.3-0.2C29.9,43.2,29.8,43.2,29.7,43.1L29.7,43.1z"/>
	<path fill="#B96B29" d="M29.3,43.9c0.2,0.1,0.4,0.3,0.5,0.5c0.1,0.1,0.1,0.3,0.1,0.3c0,0-0.1,0-0.1-0.1c0-0.1-0.1-0.1-0.1-0.1
		s-0.3-0.3-0.4-0.3S29,43.8,29,43.7c0-0.1,0-0.2,0-0.2S29.1,43.8,29.3,43.9L29.3,43.9z"/>
	<path fill="#C52126" d="M33.7,20.1c0.2-0.1,0.6-0.3,1-0.3c0.4,0,0.8,0,1.1,0.1c0.3,0.1,0.5,0.1,0.7,0c0.3-0.1,0.5-0.4,0.6-0.7
		c0,0,0.3,0.4,0,0.8c-0.1,0.2-0.3,0.3-0.5,0.3c-0.6,0.1-1.2-0.2-1.7-0.3c-0.5,0-0.9,0.3-0.9,0.3s-0.1,0.1-0.3,0
		C33.6,20.2,33.5,20.2,33.7,20.1z"/>
	<path fill="#D4AF3A" d="M35.4,37.5c0,0,0.1,0,0.1,0c0.1,0,0.3-0.1,0.3-0.1c0.1,0,0.1,0,0.2,0c0.1,0.1,0.5,0.3,0.5,0.3h-0.7
		C35.6,37.7,35.4,37.5,35.4,37.5L35.4,37.5z"/>
	<path fill="#D4AF3A" d="M33.4,37.4L33.4,37.4l0.1-0.3c0,0,0.1,0.1,0.2,0.2c0.1,0.1,0.3,0.3,0.4,0.4c0.1,0.2,0.3,0.3,0.1,0.1
		c-0.1-0.2-0.2-0.3-0.3-0.5c-0.1-0.2-0.2-0.2-0.2-0.2c0,0,0.1,0,0.4-0.1c0.3,0,0.5-0.2,0.6-0.2c0.1-0.1,0.4-0.2,0.4-0.2
		s0.5,0.2,0.7,0.3c0.2,0,0.3,0.1,0.1,0.2c-0.2,0.1-0.3,0.1-0.4,0.2c-0.1,0.1-0.4,0.1-0.5,0.1c-0.2,0-0.5,0-0.3,0.1
		c0.1,0.1,0.2,0.3,0.4,0.7c0.1,0.3,0.1,0.7,0.1,0.8c0,0.2,0,0.3,0,0.3s-0.2-0.2-0.8-0.6c-0.6-0.4-0.8-0.5-0.9-0.5
		c-0.1,0-0.2,0-0.1-0.2C33.3,37.8,33.4,37.4,33.4,37.4L33.4,37.4z"/>
	<path fill="#D4AF3A" d="M31.2,35.7c0,0,0.1,0,0.1,0c0,0,0,0,0,0c0.1,0,0.4,0.3,0.5,0.5c0.1,0.2,0.3,0.2,0.1,0
		c-0.2-0.2-0.3-0.4-0.4-0.5c0,0-0.1-0.1-0.1-0.1c0.3-0.1,0.6-0.3,0.9-0.5c0,0.1,0.1,0.2,0.2,0.3c0.1,0.1,0.4,0.2,0.4,0.2
		s-0.2-0.2-0.3-0.4c0-0.1-0.1-0.2-0.1-0.3c0.2-0.2,0.4-0.3,0.6-0.5c0,0.1,0.1,0.5,0.5,0.9C34.1,35.7,35,36,35,36s0.3,0,0.1,0.1
		s-0.4,0.2-0.9,0.1c-0.5-0.1-0.5-0.1-0.6-0.1c-0.1,0-0.2,0,0,0.1c0.2,0.1,0.8,0.2,1,0.2c0.2,0,0.5-0.1,0.2,0.1s-0.4,0.2-0.6,0.2
		c-0.2,0-0.3,0.1-0.5,0.1c-0.2,0-0.2,0-0.4-0.1c-0.1,0-0.2,0-0.2,0.1c0,0.1,0.2,0.2,0.2,0.6c0,0.4,0,0.6-0.1,0.7
		c0,0.1-0.1,0.3-0.2,0.4c-0.1,0.1-0.1,0.2-0.1,0c-0.1-0.2-0.2-0.5-0.2-0.7c0-0.2-0.1-0.2-0.1-0.3c0-0.1-0.1-0.2-0.1,0
		c0.1,0.2,0.1,0.4,0.2,0.6c0,0.2,0.1,0.5,0,0.2c-0.2-0.3-0.8-0.9-0.9-1c-0.1-0.1-0.2-0.2-0.3-0.3c-0.1-0.1-0.3-0.2-0.4-0.4
		c-0.1-0.1-0.4-0.4-0.5-0.5C30.9,35.8,31,35.7,31.2,35.7L31.2,35.7z"/>
	<path fill="#D4AF3A" d="M39.4,20.4c0,0.4-0.4,1.1-0.6,1.4c-0.2,0.4-0.3,0.5-0.3,0.5c0,0,0.1-0.2,0.3-0.3c0.1-0.2,0.4-0.6,0.6-0.8
		c0.2-0.3,0.5-1,0.5-1.1c0-0.1,0.1-0.1,0.2,0c0.1,0.1,0.3,0.8,0.1,1.4c-0.2,0.5-0.6,0.9-0.7,1.1c-0.2,0.2-0.3,0.5-0.3,0.5
		c0,0,0.1,0,0.3-0.2s0.5-0.5,0.7-0.8c0.2-0.2,0.4-0.6,0.5-0.7c0-0.1,0.1,0,0.1,0c0.1,0.1,0.2,0.2,0.1,0.6c-0.1,0.6-0.4,0.9-0.6,1.2
		c-0.3,0.3-0.5,0.5-0.5,0.6s0.3-0.2,0.5-0.4c0.2-0.2,0.7-0.6,0.8-0.8c0.1-0.1,0.3-0.1,0.2,0.4s-0.6,1-0.8,1.3
		c-0.2,0.3-0.5,0.4-0.5,0.5c0,0.1,0.3-0.1,0.4-0.2c0.2-0.1,0.7-0.5,0.8-0.5c0.1-0.1,0.2,0.1,0,0.5c-0.1,0.5-0.6,0.9-0.8,1
		c-0.2,0.2-0.6,0.4-0.6,0.4c0,0.1,0.2,0,0.4-0.1c0.2-0.1,0.5-0.2,0.7-0.3c0.2-0.1,0.2,0.1,0.2,0.1s0,0.4-0.3,0.7
		c-0.3,0.3-0.6,0.5-0.9,0.5c-0.3,0.1-0.4,0.1-0.4,0.1c0,0,0,0.1,0.1,0.1s0.4,0,0.6,0s0.4,0.1,0.4,0.2s0,0.3-0.4,0.5
		c-0.4,0.3-0.9,0.3-1,0.3c-0.2,0-0.2,0.1-0.2,0.1c0,0.1,0.1,0,0.4,0.1c0.3,0,0.5,0.2,0.5,0.2c0,0.1,0,0.3-0.3,0.5
		c-0.2,0.2-0.6,0.2-1,0.2c-0.5,0-0.6,0-0.6,0c0,0.1,0.1,0.1,0.4,0.1c0.2,0,0.4,0,0.6,0.2c0.1,0.1,0,0.3-0.2,0.5s-0.8,0.2-1,0.2
		s-0.6-0.1-0.6,0c0,0.1,0.2,0.2,0.4,0.2c0.2,0.1,0.3,0.1,0.4,0.2c0,0.1,0,0.2-0.3,0.3c-0.3,0.1-0.7,0.1-0.9,0
		c-0.2-0.1-0.3-0.1-0.4-0.1c0,0,0,0.1,0,0.1c0,0.1,0.2,0.2,0.5,0.3c0.2,0.1,0.3,0.1,0.4,0.3c0.1,0.2-0.1,0.4-0.6,0.4
		c-0.4,0-1-0.2-1.2-0.3c-0.2-0.1-0.3-0.1-0.3-0.1c0,0,0,0.1,0.1,0.1c0.1,0.1,0.4,0.3,0.5,0.3c0.2,0,0.2,0.2,0.2,0.3
		c0,0.1,0,0.3-0.4,0.4c-0.4,0.1-0.9,0-1.3-0.3c-0.1-0.1-0.2-0.2-0.3-0.2c0-0.4,0-0.7,0-0.9c0.1,0,0.2,0,0.4-0.1
		c0.2-0.1,0.3-0.3,0.4-0.4c0.1-0.1,0.1-0.1,0.2-0.1c0.1,0,0.2,0.1,0.3,0.1c0.1,0,0.4-0.1,0.6-0.3c0.2-0.2,0.2-0.5,0.2-0.6
		c0-0.1,0.2,0,0.3,0c0.1,0,0.4,0,0.6-0.2c0.3-0.2,0.3-0.4,0.3-0.5c0-0.1,0.1-0.2,0.2-0.2c0.1,0,0.2-0.1,0.4-0.2
		c0.2-0.1,0.2-0.4,0.2-0.5c0-0.1,0.1-0.1,0.5-0.3c0.4-0.2,0.3-0.6,0.3-0.7c0-0.2-0.2-0.3-0.2-0.3c0-0.1,0.1-0.1,0.2-0.1
		c0.1-0.1,0.4-0.2,0.4-0.6c0-0.4-0.3-0.5-0.3-0.5s0.1,0,0.2-0.1c0.1-0.1,0.4-0.3,0.4-0.6c0-0.3-0.1-0.4-0.2-0.4
		c-0.1-0.1-0.3-0.1-0.3-0.1s0.2-0.1,0.2-0.3c0.1-0.2,0.1-0.5-0.1-0.6c-0.2-0.2-0.4-0.2-0.5-0.2s-0.3,0.1-0.3,0c0,0-0.1-0.1,0-0.2
		c0-0.1,0.1-0.4,0-0.4c0-0.1,0-0.3-0.4-0.4c-0.3-0.1-0.7,0.1-0.8,0.2c-0.1,0.1-0.1-0.1-0.1-0.2c0-0.1,0.2-0.4,0.5-0.8
		c0.3-0.4,0.4-0.6,0.7-1.2c0.3-0.6,0.5-1.4,0.5-1.6c0-0.2,0.1-0.1,0.1-0.1s0.1,0,0.3,0.5C39.4,19.6,39.5,20.1,39.4,20.4L39.4,20.4z"
		/>
	<path fill="#D4AF3A" d="M33.5,28.5c0.2,0,0.5-0.1,0.7-0.4c0.2-0.3,0.5-0.4,1-0.4c0.5,0,0.8-0.2,0.9-0.6c0.1-0.4,0-0.8-0.6-1.1
		c-0.5-0.3-0.8-0.6-0.8-1c0-0.5,0.5-1,1.1-1.7c0.6-0.6,1-1.5,1-1.5S37,22,37,22.3s-0.1,0.4,0,0.5c0.1,0.1,0.1-0.1,0.4-0.2
		c0.3-0.1,0.6-0.2,0.8,0.1c0.2,0.2,0,0.6-0.2,0.8c-0.2,0.2-0.3,0.3-0.3,0.4c0.1,0.1,0.3-0.1,0.4-0.2c0.1-0.1,0.3-0.3,0.6-0.3
		c0.3,0,0.4,0.1,0.5,0.4c0,0.3-0.3,0.5-0.5,0.6c-0.2,0.1-0.3,0.2-0.2,0.2c0.1,0,0.1,0,0.2,0c0.1,0,0.3-0.1,0.5,0
		c0.2,0.1,0.4,0.3,0.2,0.6c-0.2,0.3-0.8,0.4-0.9,0.4c-0.1,0-0.2,0-0.2,0.1c0,0.1,0.2,0.1,0.5,0.1s0.4,0.3,0.3,0.5
		c0,0.2-0.5,0.4-0.8,0.5c-0.3,0-0.3,0-0.4,0.1c0,0.1,0,0.1,0.2,0.1c0.1,0,0.4,0.1,0.5,0.3c0.1,0.2,0.1,0.3-0.2,0.5
		c-0.2,0.2-0.6,0.2-0.7,0.1c-0.1,0-0.2-0.1-0.3,0c-0.1,0.1,0.1,0.2,0.3,0.3c0.2,0.1,0.2,0.4-0.1,0.5c-0.3,0.2-0.6,0.1-0.7,0.1
		c-0.1,0-0.3-0.2-0.4-0.1c-0.1,0.1,0.3,0.2,0.4,0.3c0.1,0.2,0.1,0.5-0.2,0.6c-0.3,0.2-0.8,0.1-0.8,0c-0.1-0.1-0.2-0.1-0.2,0
		c-0.1,0.1,0,0.2,0.1,0.4c0.1,0.1,0.2,0.6-0.3,0.7c-0.4,0.2-0.8-0.2-0.9-0.3c-0.1-0.1-0.1-0.1-0.2-0.1c-0.1,0,0,0.1,0,0.2
		c0.1,0.1,0.2,0.4-0.1,0.6c-0.2,0.1-0.4,0.1-0.6,0.1c-0.1-0.2-0.1-0.5-0.2-0.9h0.1c0,0,0,0.1,0,0.1s0,0,0,0c0,0,0,0,0.1,0.1
		c0.1,0,0.1,0.1,0.1,0.1c0,0-0.1-0.1-0.1-0.1c0,0-0.1-0.1-0.1-0.2c0,0,0-0.1-0.1-0.1c0,0,0,0-0.1-0.1c0-0.2-0.1-0.5-0.1-0.9
		c0-0.2,0-0.4-0.1-0.6L33.5,28.5L33.5,28.5z"/>
	<path fill="#D4AF3A" d="M42.2,22.2c-0.5,0.9-1.1,1.4-1.1,1.4s0.1-0.2,0.1-0.4c0-0.2,0-0.3,0-0.3s0.2-0.2,0.5-0.7
		c0.3-0.5,0.5-1.1,0.5-1.1s-0.3,0.7-0.5,1c-0.2,0.4-0.5,0.7-0.5,0.7s-0.1-0.3-0.1-0.3c-0.1,0-0.1,0-0.2,0.1
		c-0.1,0.1-0.1,0.1-0.1,0.1s0.1-0.2,0.2-0.3c0.1-0.1,0.1-0.2,0.2-0.3c0.2-0.3,0.5-0.8,0.7-1.3c0.2-0.5,0.6-1.8,0.7-2.2
		c0.1-0.4,0.1-0.2,0.2,0.1c0.1,0.3,0.2,0.7,0.1,1.3C42.8,20.5,42.6,21.2,42.2,22.2L42.2,22.2z"/>
	<path fill="#D4AF3A" d="M41.6,24.6c-0.2,0.1-0.4,0.3-0.4,0.3s0-0.1,0.1-0.2s0-0.3,0-0.3s0.2-0.2,0.3-0.3c0.1-0.1,0.3-0.3,0.7-0.7
		c0.3-0.4,0.1-0.2-0.2,0.1c-0.3,0.3-0.8,0.8-0.8,0.8s0,0,0-0.1c0-0.1,0-0.2-0.1-0.2c0-0.1,0-0.1,0.3-0.3c0.3-0.2,1.1-1.1,1.4-1.6
		c0.3-0.5,0.7-1.2,0.7-1.2s0.2,1.1-0.5,2.2C42.4,24.1,41.8,24.5,41.6,24.6z"/>
	<path fill="#D4AF3A" d="M38.2,31.3c-0.4-0.1-0.3-0.5-0.3-0.5s0.2,0.1,0.4,0.1c0.2,0.1,0.7,0.2,0.9,0.2c0.2,0,0.2,0,0.2-0.1
		c0,0-0.1,0-0.4-0.1c-0.3-0.1-0.8-0.3-0.9-0.4c-0.1-0.1-0.1-0.1,0.1-0.1c0.1,0,0.2-0.1,0.3-0.1c0,0,0.2,0,0.5,0.1
		c0.3,0.1,1,0.2,1.5,0.2s1-0.1,1.1-0.1c0.1,0,0.2,0-0.1,0.4c-0.2,0.4-1.1,0.6-1.7,0.6C39.2,31.7,38.6,31.4,38.2,31.3L38.2,31.3z"/>
	<path fill="#D4AF3A" d="M39.8,30.4c-0.6,0-0.8-0.2-0.8-0.2s0,0,0.1-0.2c0.1-0.1,0.1-0.3,0.1-0.3s0.1,0,0.4,0.1c0.3,0,0.6,0.1,0.9,0
		s0.2-0.1-0.1-0.1c-0.3,0-0.8-0.1-0.9-0.1c-0.2-0.1-0.1-0.1,0-0.1c0.1,0,0.4-0.2,0.4-0.2s0.7,0.1,1.4,0c0.7-0.1,1.1-0.3,1.3-0.3
		c0.1,0,0.1,0,0.1,0s0,0.1-0.2,0.4c-0.2,0.4-0.7,0.6-1.1,0.7C41,30.4,40.4,30.4,39.8,30.4L39.8,30.4z"/>
	<path fill="#D4AF3A" d="M40,29c0,0,0,0,0.1-0.2c0-0.1-0.1-0.2-0.1-0.2s0.1,0,0.6-0.1c0.5-0.1,0.5-0.1,0.8-0.2
		c0.3-0.1,0.5-0.1,0.5-0.2c0,0-0.1,0-0.3,0.1c-0.2,0.1-0.9,0.1-1.2,0.2c-0.3,0-0.5,0.1-0.5,0c-0.1,0-0.2-0.1-0.2-0.1s0.1,0,0.3-0.1
		c0.2,0,0.3-0.1,0.4-0.2c0.1-0.1,0.1-0.1,0.5-0.1c0.4,0,0.7-0.2,1.3-0.4c0.7-0.2,1.2-0.5,1.3-0.6c0.1-0.1,0.1,0,0.1,0.1
		c0,0.1,0,0.3-0.4,0.7c-0.3,0.4-0.5,0.6-1.4,0.9C40.9,29,40,29,40,29L40,29z"/>
	<path fill="#D4AF3A" d="M42.5,26.9c-0.8,0.5-1.6,0.7-1.8,0.8c0,0,0-0.2,0-0.3c0-0.1-0.1-0.1-0.3-0.1c-0.2,0-0.1,0,0,0
		s0.1,0,0.4-0.1c0.3-0.1,0.6-0.1,1-0.3c0.4-0.2,0.5-0.3,0.5-0.3c0,0-0.2,0.1-0.6,0.2c-0.4,0.1-0.8,0.2-1.1,0.3
		c-0.2,0.1,0-0.1,0.1-0.1c0.1-0.1,0.3-0.3,0.3-0.3s0.3,0,0.7-0.2c0.4-0.1,0.8-0.3,1.2-0.5c0.1-0.1,0.2-0.2,0.4-0.3
		c0.3-0.2,0.5-0.4,0.6-0.4c0.2-0.1,0.1,0,0.1,0c0,0.1-0.1,0.4-0.4,0.7C43.3,26.3,43.2,26.4,42.5,26.9z"/>
	<path fill="#D4AF3A" d="M42.6,25.4c-0.7,0.6-1.4,0.8-1.5,0.8c-0.1,0-0.1,0-0.1-0.1c0-0.1,0-0.3,0-0.3s0.3-0.2,0.6-0.3
		c0.3-0.2,0.6-0.4,0.8-0.6c0.2-0.2,0.1-0.1,0-0.1c-0.1,0.1-0.4,0.2-0.7,0.4c-0.3,0.2-0.8,0.5-0.8,0.5s0-0.1-0.1-0.2
		c-0.1-0.1-0.2,0-0.2,0s0.1-0.1,0.1-0.2c0-0.1,0.3-0.2,0.6-0.3c0.3-0.1,0.8-0.5,1.1-0.8c0.4-0.3,1.1-1.1,1.1-1.1
		c0-0.1,0.1-0.1,0.1,0c0,0.1,0,0.1,0,0.5C43.7,24.1,43.4,24.8,42.6,25.4z"/>
	<path fill="#D4AF3A" d="M40,19.8c-0.1,0.2-0.2,0.3-0.2,0.4c-0.1,0.2-0.2,0.3-0.2,0.3s0-0.1,0-0.2c0-0.1,0-0.2,0-0.4
		c0-0.1,0-0.2,0-0.3c0-0.1,0-0.2,0-0.2c0-0.1,0.1-0.5,0.2-0.8c0.1-0.3,0.1-0.7,0.1-1.1c0-0.4-0.1-0.2-0.1,0s0,0.5-0.1,0.9
		c-0.1,0.4-0.2,1.1-0.2,1.1s0-0.1-0.1-0.3c-0.1-0.1-0.1-0.3-0.2-0.5c-0.1-0.2,0-0.2,0-0.2s0.3-1.3,0.3-1.8c0.1-0.6,0.2-2.1,0.2-2.1
		c0.4,0.4,0.7,1.4,0.7,2.4c0,0.7-0.1,1.4-0.1,1.7C40.2,19.1,40.1,19.6,40,19.8L40,19.8z"/>
	<path fill="#D4AF3A" d="M40.8,21.8c0-0.3-0.1-0.5-0.3-0.6c0,0,0.2-0.3,0.3-0.7c0.1-0.3,0.2-0.6,0.2-0.9c0.1-0.7,0.2-1.4,0-0.2
		c-0.2,1.1-0.4,1.5-0.4,1.5l-0.3,0.5c0-0.2,0-0.4,0-0.6c0-0.2,0-0.5-0.1-0.8c0,0,0.4-0.7,0.6-1.5s0.3-1.6,0.4-2.1c0-0.4,0-0.6,0-0.6
		s0.4,0.3,0.5,1.6c0.1,1.4-0.2,2.7-0.4,3.2C41.1,21.2,40.8,21.8,40.8,21.8L40.8,21.8z"/>
	<path fill="#D4AF3A" d="M36.9,32.3c0,0,0.1,0,0.2-0.1c0.2-0.1,0.1-0.4,0.1-0.4s0,0,0.2,0.1c0.1,0.1,0.3,0.2,0.4,0.2
		c0.2,0.1,0.3,0.1,0.4,0.1c0.1,0,0.1,0,0-0.1c-0.1-0.1-0.1-0.1-0.3-0.2c-0.2-0.1-0.7-0.5-0.7-0.5s0.1,0,0.3,0c0.2,0,0.4-0.1,0.4-0.1
		s0.2,0.2,0.9,0.5c0.8,0.3,1.4,0.4,1.4,0.4s-0.1,0.4-0.4,0.5c-0.3,0.1-0.7,0.2-1.5,0C37.5,32.6,36.9,32.3,36.9,32.3L36.9,32.3z"/>
	<path fill="#D4AF3A" d="M35.9,33.1c-0.1-0.3,0.1-0.5,0.1-0.5s0,0,0.2,0.1c0.1,0.1,0.3,0.3,0.6,0.5c0.3,0.2,0.4,0.1,0.1,0
		s-0.8-0.6-0.8-0.6l0.1,0c0.1,0,0.3,0,1.2,0.5c0.9,0.5,1.4,0.5,1.4,0.5s-0.4,0.5-1.4,0.4C36.3,33.9,36,33.4,35.9,33.1L35.9,33.1z"/>
	<path fill="#D4AF3A" d="M33.9,32.7c0,0,0.1,0.2,0.3,0.3c0.2,0.1,0.6,0.2,0.6,0.2s0,0,0.1,0.1c0.1,0.1,0.3,0.3,0.4,0.5
		c0.2,0.1,0.5,0.2,0.5,0.2c0,0-0.2-0.1-0.3-0.2c-0.2-0.1-0.3-0.3-0.5-0.4c-0.1-0.1,0.1-0.1,0.1-0.1s0.2,0,0.4,0c0.2,0,0.2,0,0.2,0.1
		c0.1,0.1,0.1,0.2,0.3,0.4c0.2,0.2,0.4,0.4,0.5,0.6c0.1,0.1,0,0.2,0,0.2s-0.1,0.1-0.5,0.1c-0.3,0-0.6,0-0.9-0.2
		c-0.2-0.1-0.4-0.3-0.6-0.5C33.9,33.2,33.9,32.7,33.9,32.7L33.9,32.7z"/>
	<path fill="#D4AF3A" d="M33.7,33.9c0.1,0.1,0.2,0.2,0.2,0.2s-0.1-0.2-0.1-0.4c0-0.1-0.1-0.1-0.1-0.2c0.1-0.2,0.1-0.4,0.2-0.6
		c0.1,0.2,0.2,0.6,0.4,1c0.2,0.4,0.4,0.5,0.3,0.6c-0.1,0.1-0.4,0.1-0.7,0c-0.3-0.1-0.4-0.4-0.4-0.6c0.1-0.1,0.1-0.2,0.1-0.2
		C33.6,33.8,33.6,33.9,33.7,33.9L33.7,33.9z"/>
	<ellipse fill="#D4AF3A" cx="33.8" cy="18.7" rx="0.2" ry="0.2"/>
	<path fill="#D4AF3A" d="M34.2,18.4c-0.2,0-0.3-0.1-0.5-0.1c-0.3,0-0.6,0.2-1,0.4c-0.3,0.1-0.7,0.2-1.2,0.1c-0.1,0-0.2-0.1-0.3-0.2
		c-0.5-0.3-0.4-0.8-0.4-0.8c0.4,0.3,0.8,0.4,1.3,0.4c0,0,0,0-0.1,0.1c-0.1,0.1-0.2,0.2-0.2,0.2c0,0,0.2-0.1,0.4-0.3
		c0.2-0.1,0.4-0.3,0.8-0.4c0.4-0.1,0.8-0.1,1.1,0c0.3,0.2,0.3,0.4,0.3,0.4C34.3,18.4,34.3,18.4,34.2,18.4z"/>
	<path fill="#D4AF3A" d="M28.8,22.5c0.1,0,0.2,0,0.4-0.2c0.2-0.2,0.7-0.7,0.7-0.8c0.1-0.1,0-0.2-0.1-0.2c-0.1-0.1-0.2-0.2-0.2-0.2
		s0.3-0.1,0.5-0.3c0.2-0.1,0.7-0.6,0.7-0.7s0-0.1-0.1-0.2c-0.1,0-0.1-0.1-0.1-0.1s0.2-0.1,0.4-0.3c0.2-0.2,0.5-0.4,0.5-0.4
		c0.3,0.1,0.8,0.1,1,0c0.5-0.1,0.8-0.3,0.8-0.3s0,0.1,0.1,0.2c0.1,0.1,0.3,0.2,0.5,0.1c0.2-0.1,0.2-0.4,0.2-0.4s0.2-0.1,0.5-0.2
		c0.3-0.1,0.6-0.1,0.9,0c0.3,0.1,0.4,0.5,0.4,0.8c0,0.3-0.2,0.2-0.2,0.1c0,0-0.1-0.3-0.5-0.3c-0.4-0.1-0.7,0.1-1.1,0.4
		c-0.4,0.3-0.5,0.4-0.7,0.6c-0.2,0.2,0,0.3,0.3,0.4s0.8-0.1,0.8-0.1c0.1,0-0.2,0.3-0.5,0.5c-0.3,0.1-0.7,0-1-0.1
		c-0.2-0.1-0.2,0-0.3,0.1c-0.3,0.3-0.4,0.7-0.5,1.1c-0.2-0.1-0.3-0.2-0.3-0.4c0-0.1,0-0.2-0.1-0.1c-0.1,0.1-0.2,0.7-0.2,1
		s0.1,0.6,0.1,0.6l-0.1,0c0,0-0.1-0.1-0.3-0.1c-0.1-0.1-0.1,0-0.1,0.2c0,0.1,0,0.4-0.2,0.9c-0.2,0.5-0.5,0.7-0.5,0.7
		s-0.1-0.1-0.1-0.3c-0.1-0.2-0.1-0.6-0.1-0.9s0.1-1,0.1-1s-0.4,0.5-0.8,0.6c-0.4,0.1-0.8,0-1-0.2C28.5,22.6,28.7,22.5,28.8,22.5
		L28.8,22.5z"/>
	<path fill="#D4AF3A" d="M31.5,23.7c0,0,0.1,0.3,0.2,0.4c0.1,0.1,0.1,0.1,0.1,0.1s-0.1,0.1-0.3,0.2c-0.2,0.1-0.4,0.1-0.4,0.1
		s0.2-0.3,0.3-0.5C31.5,23.8,31.5,23.7,31.5,23.7L31.5,23.7z"/>
	<path fill="#D4AF3A" d="M29,23.6c0.1-0.2,0.1-0.2,0.1-0.2c0.3,0.1,0.7-0.1,1-0.2c0,0-0.2,0.4-0.4,0.5c-0.2,0.1-0.2,0.1-0.2,0.1
		s0.2,0,0.5-0.2c0.3-0.3,0.4-0.6,0.4-0.6s-0.1,0.7,0,1.1c0.1,0.4,0.1,0.5,0.1,0.5s-0.6,0.1-1.2-0.1c-0.6-0.2-0.7-0.2-0.7-0.2
		s-0.1,0,0-0.1C28.8,24,28.9,23.7,29,23.6L29,23.6z"/>
	<path fill="#B96B29" d="M30.1,22.1c0.2-0.2,0.2-0.3,0.2-0.3s0.1,0.1,0,0.2c-0.1,0.1-0.3,0.3-0.5,0.4c-0.2,0.1-0.4,0.1-0.4,0.1l0,0
		C29.5,22.5,29.9,22.3,30.1,22.1z"/>
	<path fill="#B96B29" d="M30.9,23.5c0,0,0-0.9,0-1c0-0.1,0.1-0.1,0.1-0.1l0.1,0c0,0-0.2,1.1-0.2,1.3c0,0.1-0.1,0.1-0.1,0.1
		C30.8,23.8,30.9,23.5,30.9,23.5L30.9,23.5z"/>
	<path fill="#B96B29" d="M32,19.8C32.1,19.7,32.2,19.7,32,19.8c-0.1,0.2-0.3,0.4-0.3,0.6c-0.1,0.2-0.1,0.4,0,0.3
		c0.1,0,0.2,0,0.3-0.1c0.1-0.1,0.3-0.2,0.4-0.3c0.1,0,0.2,0,0.1,0.1c-0.1,0.1-0.2,0.3-0.5,0.4c-0.2,0.2-0.3,0.2-0.5,0.3
		c-0.1,0.1-0.2,0.2-0.2,0.2s0.1-0.7,0.3-1C31.8,20,31.9,19.9,32,19.8z"/>
	<path fill="#B96B29" d="M35.8,31.5c0.1,0.1,0.3,0.2,0.3,0.2s0.1,0,0.1,0c0,0-0.1,0-0.2,0c-0.1,0-0.3-0.1-0.3-0.2
		c-0.1,0-0.1-0.1-0.1-0.2C35.6,31.3,35.7,31.4,35.8,31.5L35.8,31.5z"/>
	<path fill="#B96B29" d="M34.6,32.2c0,0,0.3,0.2,0.3,0.2s0.1,0,0.2,0.1c0.1,0,0.1,0.1,0.1,0.1s0,0-0.1,0
		C34.9,32.5,34.7,32.3,34.6,32.2C34.5,32.2,34.5,32.2,34.6,32.2C34.5,32.1,34.5,32.1,34.6,32.2L34.6,32.2z"/>
	<path fill="#B96B29" d="M39.5,23.4c0,0.1-0.1,0.1-0.1,0.1C39.4,23.5,39.4,23.4,39.5,23.4c0-0.1,0-0.1,0-0.1s0.1-0.1,0.1-0.2
		c0,0,0.1-0.1,0,0C39.6,23.2,39.6,23.3,39.5,23.4z"/>
	<path fill="#B96B29" d="M39.9,24.2c-0.1,0-0.1,0.1-0.2,0.2c-0.1,0.1-0.1,0.1-0.1,0.1c0,0,0.1-0.1,0.1-0.2
		C39.8,24.2,39.8,24.2,39.9,24.2c0.1-0.1,0.2-0.2,0.2-0.2S40,24.1,39.9,24.2L39.9,24.2z"/>
	<path fill="#B96B29" d="M39.8,25.5c-0.1,0.1-0.2,0.1-0.2,0.1c0,0,0-0.1,0.1-0.1c0.1,0,0.2-0.1,0.3-0.2c0.1,0,0.1-0.1,0.2-0.1
		c0,0,0.1-0.1,0.1-0.1c0,0-0.1,0.2-0.2,0.2C39.9,25.4,39.9,25.4,39.8,25.5L39.8,25.5z"/>
	<path fill="#B96B29" d="M39.5,26.6C39.5,26.6,39.5,26.5,39.5,26.6c0.1-0.1,0.3-0.1,0.3-0.1s0.2-0.1,0.2,0c0,0-0.1,0.1-0.2,0.1
		C39.7,26.6,39.6,26.6,39.5,26.6C39.5,26.6,39.5,26.6,39.5,26.6L39.5,26.6z"/>
	<path fill="#B96B29" d="M39.4,27.7c0.2,0,0.3,0,0.3,0c0,0-0.1,0.1-0.2,0.1c-0.1,0-0.2,0-0.3,0c-0.1,0-0.1,0-0.1-0.1
		C39.1,27.7,39.2,27.7,39.4,27.7z"/>
	<path fill="#B96B29" d="M38.1,29c0,0,0.1,0,0.2,0c0.1,0,0.2,0,0.3,0s0.3,0,0.3,0l0.1,0c0,0-0.1,0-0.3,0c-0.2,0-0.3,0-0.4,0
		C38.1,29.1,38,29,38.1,29L38.1,29z"/>
	<path fill="#B96B29" d="M37.5,29.9c0.1,0,0.2,0,0.3,0c0.1,0,0.3,0,0.3,0s0.1,0,0.1,0c0,0,0,0-0.1,0c-0.1,0-0.1,0-0.3,0
		c-0.1,0-0.2,0-0.3-0.1c-0.1,0-0.2-0.1-0.1-0.1C37.3,29.8,37.4,29.9,37.5,29.9L37.5,29.9z"/>
	<path fill="#B96B29" d="M36.5,30.6c0.1,0.1,0.3,0.2,0.3,0.2s0,0,0.1,0.1C37,30.9,37,31,37,31s-0.1,0-0.1-0.1c0,0-0.2-0.1-0.3-0.2
		C36.5,30.7,36.4,30.6,36.5,30.6C36.4,30.5,36.4,30.5,36.5,30.6L36.5,30.6z"/>
	<path fill="#B96B29" d="M38.2,21.8c0,0,0,0-0.2,0.3c-0.2,0.2-0.1,0,0,0c0-0.1,0.3-0.4,0.4-0.5c0.1-0.1,0.1-0.1,0.1,0
		C38.4,21.5,38.2,21.8,38.2,21.8z"/>
	<path fill="#B96B29" d="M38.6,22.9c0,0,0-0.1,0.1-0.2c0.1-0.1,0.3-0.4,0.3-0.4s0.1-0.1,0.1-0.1c0,0-0.1,0.2-0.2,0.3
		c-0.1,0.1-0.2,0.2-0.3,0.3S38.6,23,38.6,22.9L38.6,22.9z"/>
	<path fill="#B96B29" d="M38.1,25.1c0-0.1,0.2-0.1,0.3-0.1c0.1,0,0.3-0.1,0.3-0.1s0.2,0,0.2,0c0,0,0,0-0.1,0.1
		c-0.1,0-0.3,0.1-0.4,0.1C38.2,25.1,38.1,25.2,38.1,25.1L38.1,25.1z"/>
	<path fill="#B96B29" d="M38.6,23.9c-0.1,0.1-0.2,0.2-0.3,0.2c-0.1,0-0.1,0.1-0.2,0.1c0,0,0-0.1,0.1-0.1c0.1-0.1,0.2-0.1,0.2-0.1
		S38.5,23.9,38.6,23.9C38.6,23.9,38.7,23.8,38.6,23.9L38.6,23.9z"/>
	<path fill="#B96B29" d="M37.4,23.2c0.1-0.1,0.2-0.1,0.2-0.1s0.1-0.1,0.1-0.1C37.7,23,37.6,23.1,37.4,23.2c0,0.1-0.1,0.2-0.1,0.2
		C37.2,23.3,37.4,23.2,37.4,23.2z"/>
	<path fill="#B96B29" d="M38.2,26.2c0,0,0.1,0,0.2,0s0.1,0.1-0.1,0.1c-0.1,0-0.2,0-0.3-0.1c-0.1,0-0.2,0-0.2-0.1c0,0,0.1,0,0.1,0
		S38.2,26.2,38.2,26.2z"/>
	<path fill="#B96B29" d="M38,27.3c0,0-0.1,0-0.2,0c-0.1,0-0.2-0.1-0.3-0.1c-0.1,0-0.1,0-0.1-0.1c0,0,0.1,0,0.2,0
		C37.8,27.1,37.9,27.2,38,27.3C37.9,27.2,38,27.3,38,27.3L38,27.3z"/>
	<path fill="#B96B29" d="M36.6,28c-0.1-0.1-0.1-0.1-0.1-0.1C36.5,27.8,36.6,27.8,36.6,28c0.1,0,0.3,0.1,0.3,0.1s0.1,0,0.1,0.1
		c0.1,0,0.1,0.1,0.1,0.1c0,0-0.1,0-0.2-0.1C36.9,28.1,36.7,28,36.6,28L36.6,28z"/>
	<path fill="#B96B29" d="M35.9,28.8c0,0-0.2-0.1-0.2-0.1c-0.1,0-0.1-0.2,0-0.2c0,0,0.1,0,0.2,0.1c0.1,0.1,0.4,0.3,0.4,0.3l0.1,0
		c0.1,0,0,0.1,0,0c-0.1,0-0.1,0-0.2-0.1C36,28.9,36,28.9,35.9,28.8z"/>
	<path fill="#B96B29" d="M34.9,29.7c-0.1,0-0.2-0.1-0.3-0.2c-0.1-0.1-0.1-0.1-0.1-0.2c0,0,0.1,0,0.2,0.1
		C34.8,29.5,35,29.7,34.9,29.7c0.1,0,0.1,0,0.2,0.1c0.1,0.1,0,0.1,0,0C35,29.7,35,29.7,34.9,29.7L34.9,29.7z"/>
	<polygon fill="#D4AF3A" points="30.9,17.1 30.5,16.8 31,16.7 31.3,16.9 	"/>
	<ellipse fill="#B96B29" cx="29.6" cy="16.8" rx="0.4" ry="0.4"/>
	<ellipse fill="#D4AF3A" cx="29.6" cy="16.7" rx="0.2" ry="0.2"/>
	<path fill="#D4AF3A" d="M30.4,15.5c-0.1,0-0.2,0-0.2,0s0-0.2,0.1-0.3c0.1-0.1,0.2-0.1,0.2-0.2c0.1-0.1,0.1-0.1,0.1-0.1s0,0.1,0,0.2
		C30.6,15.3,30.5,15.5,30.4,15.5L30.4,15.5z"/>
	<ellipse fill="#D4AF3A" cx="30.2" cy="15.7" rx="0.1" ry="0.1"/>
	<path fill="#D4AF3A" d="M30.7,15.6c0,0,0.1,0.1,0.1,0.1s-0.1,0-0.1,0c-0.1,0-0.1,0.1-0.2,0.1c-0.1,0-0.1-0.1-0.1-0.1
		c0-0.1,0.1-0.1,0.2-0.1C30.7,15.5,30.7,15.6,30.7,15.6z"/>
	<path fill="#D4AF3A" d="M30.5,16.1c0.2,0,0.6-0.2,0.6-0.2c0,0.2,0.2,0.3,0.4,0.4l0,0c0,0-0.2,0.1-0.4,0.1c-0.1,0-0.2,0-0.3,0
		c-0.1,0-0.3-0.1-0.4-0.1c-0.1-0.1-0.1-0.3-0.1-0.3S30.2,16.1,30.5,16.1L30.5,16.1z"/>
	<path fill="#D4AF3A" d="M31.4,15.8c0.1,0,0.2-0.1,0.3-0.1c0.1,0,0.2,0,0.1,0.1c0,0.1-0.1,0.2-0.2,0.2C31.5,16,31.4,16,31.4,15.8
		C31.3,15.9,31.3,15.9,31.4,15.8z"/>
	<path fill="#D4AF3A" d="M32.1,15.4c0.1-0.1,0.2-0.1,0.2-0.1s0.1,0.2,0,0.3c0,0.1-0.1,0.1-0.2,0.1c-0.1,0-0.3-0.1-0.2-0.1
		C32,15.6,32,15.5,32.1,15.4z"/>
	<ellipse fill="#D4AF3A" cx="32" cy="16" rx="0.1" ry="0.1"/>
	<path fill="#D4AF3A" d="M31.8,15c0.1-0.3,0.1-0.7-0.2-1.1c-0.3-0.4-0.8-0.6-0.8-0.6s0,0-0.2-0.2c-0.2-0.2-0.5-0.4-0.5-0.4
		s0.4,0.1,0.6,0.2c0,0,0,0,0,0c0,0.2,0.1,0.3,0.3,0.3c0.1,0,0.1,0,0.2,0c0.1,0,0.5,0.3,0.6,0.3c0,0,0,0.1,0,0.1
		c0,0.2,0.1,0.3,0.3,0.3c0,0,0.1,0,0.1,0c0,0,0,0,0,0.1c0.1,0.2,0.1,0.3,0.2,0.4c-0.1,0-0.1,0.1-0.1,0.2c0,0.1,0.1,0.3,0.2,0.3
		c0,0.1,0,0.1,0,0.2c0,0.1,0,0.1-0.2,0.2c-0.2,0-0.4,0.3-0.4,0.3C31.8,15.5,31.7,15.3,31.8,15L31.8,15z"/>
	<path fill="#D4AF3A" d="M30.9,13c-0.1,0-0.1-0.1,0-0.2c0,0,0.1,0,0.2,0c0.1,0,0.1,0.1,0,0.2C31,13.1,30.9,13.1,30.9,13z"/>
	<path fill="#D4AF3A" d="M31.9,13.7c-0.1-0.1-0.1-0.1,0-0.2c0.1-0.1,0.1,0,0.2,0c0.1,0.1,0.1,0.1,0,0.2C32,13.8,31.9,13.8,31.9,13.7
		z"/>
	<ellipse fill="#D4AF3A" cx="32.5" cy="14.5" rx="0.2" ry="0.2"/>
	<path fill="#D4AF3A" d="M29.1,12.4c0.1,0,0.2,0.1,0.4,0.2h0c-0.2,0-0.3,0.1-0.3,0.2c0,0.1,0.1,0.3,0.3,0.3c0.2,0,0.3-0.1,0.3-0.3
		c0,0,0-0.1,0-0.1c0.1,0,0.1,0.1,0.2,0.1c0.5,0.3,0.6,0.5,0.8,0.9c0.2,0.5,0.3,0.9,0.2,1.2c-0.1,0.3-0.5,0.4-0.5,0.4s0,0,0-0.1
		c0-0.1,0-0.1,0-0.2c0-0.1,0-0.2,0-0.2s-0.1,0-0.1,0c0,0.1-0.1,0.1-0.2,0.2c0,0.1-0.2,0.2-0.2,0.2s-0.1-0.1-0.1-0.2
		c0-0.1,0.1-0.3,0.1-0.5c0-0.2-0.1-0.6-0.3-0.9c-0.2-0.3-0.7-0.6-0.8-0.6c-0.1-0.1-0.1-0.2-0.2-0.2c0-0.1,0-0.1,0-0.2
		C28.9,12.4,29,12.4,29.1,12.4L29.1,12.4z"/>
	<path fill="#D4AF3A" d="M29.6,12.9c-0.1,0-0.2-0.1-0.2-0.1c0-0.1,0.1-0.1,0.2-0.1c0.1,0,0.2,0.1,0.2,0.1S29.7,12.9,29.6,12.9z"/>
	<path fill="#D4AF3A" d="M28.9,15.8c-0.1,0-0.3,0-0.3,0c-0.1,0-0.1-0.1,0-0.2c0.1-0.1,0.2-0.1,0.3,0c0.1,0,0.2,0.1,0.2,0.1
		S29,15.8,28.9,15.8z"/>
	<path fill="#D4AF3A" d="M28.5,15.9c0,0.1,0.1,0.1,0.2,0.1s0.3,0,0.4-0.1c0.1-0.1,0.1-0.2,0.1-0.2l0.1,0c0,0,0,0.2,0.1,0.3
		c0.1,0.1,0.3,0.1,0.4,0c0.1-0.1,0.2-0.2,0.2-0.2c0,0,0,0.1-0.1,0.2c-0.1,0.1-0.2,0.1-0.3,0.1h-0.9c0,0-0.2,0-0.2-0.1
		C28.4,16,28.4,15.9,28.5,15.9C28.4,15.8,28.5,15.9,28.5,15.9L28.5,15.9z"/>
	<path fill="#D4AF3A" d="M29.9,15.8c-0.1,0.1-0.2,0-0.3,0c-0.1-0.1-0.1-0.1-0.1-0.1s0.1,0,0.2-0.1c0.1,0,0.1-0.1,0.2-0.1
		c0.1,0,0.1,0,0.1,0S30.1,15.7,29.9,15.8L29.9,15.8z"/>
	<ellipse fill="#B96B29" cx="30.6" cy="14.4" rx="0.3" ry="0.3"/>
	<path fill="#B96B29" d="M30.1,13.3c0.1-0.1,0.3-0.1,0.4,0.1c0.1,0.1,0.1,0.3,0,0.4c-0.1,0.1-0.3,0.1-0.4-0.1
		C29.9,13.6,30,13.4,30.1,13.3z"/>
	<ellipse fill="#D4AF3A" cx="30.6" cy="14.4" rx="0.2" ry="0.2"/>
	<path fill="#D4AF3A" d="M30.2,13.3c0.1,0,0.2,0,0.2,0.1c0,0.1,0,0.1-0.1,0.2C30.1,13.6,30,13.4,30.2,13.3L30.2,13.3z"/>
</g>
</svg>
