<?xml version="1.0" encoding="iso-8859-1"?>
<!-- Generator: Adobe Illustrator 18.1.1, SVG Export Plug-In . SVG Version: 6.00 Build 0)  -->
<svg version="1.1" id="Layer_130" xmlns="http://www.w3.org/2000/svg" xmlns:xlink="http://www.w3.org/1999/xlink" x="0px" y="0px"
	 viewBox="0 0 56.692 56.692" style="enable-background:new 0 0 56.692 56.692;" xml:space="preserve">
<g>
	<defs>
		<circle id="SVGID_1_" cx="28.346" cy="28.346" r="28.347"/>
	</defs>
	<clipPath id="SVGID_2_">
		<use xlink:href="#SVGID_1_"  style="overflow:visible;"/>
	</clipPath>
	<polygon style="clip-path:url(#SVGID_2_);fill:#0A3C9B;" points="85.041,2.427 85.041,0 -0.001,0 -0.001,50.013 	"/>
	<polygon style="clip-path:url(#SVGID_2_);fill:#0A3C9B;" points="-0.001,54.381 -0.001,56.693 85.041,56.693 85.041,25.902 	"/>
	<polygon style="clip-path:url(#SVGID_2_);fill:#FFFFFF;" points="-0.001,54.381 85.041,25.902 85.041,13.989 -0.001,52.069 	"/>
	<polygon style="clip-path:url(#SVGID_2_);fill:#F07D0A;" points="-0.001,52.069 85.041,13.989 85.041,2.427 -0.001,50.013 	"/>
	<polygon style="clip-path:url(#SVGID_2_);fill:#FFFFFF;" points="24.247,19.709 34.581,18.867 24.425,18.041 31.517,15.59 
		23.38,16.99 30.183,12.312 22.767,15.802 28.073,9.554 21.947,14.759 25.464,7.531 20.697,14.276 22.202,6.154 19.601,13.378 
		18.761,3.045 17.935,13.207 15.484,6.112 16.882,14.251 12.206,7.445 15.695,14.863 9.447,9.554 14.652,15.681 7.423,12.164 
		14.167,16.929 6.048,15.425 13.271,18.027 2.939,18.867 13.097,19.694 6.005,22.144 14.142,20.746 7.337,25.423 14.755,21.933 
		9.447,28.181 15.572,22.978 12.056,30.205 16.822,23.46 15.318,31.581 17.919,24.351 18.761,34.69 19.587,24.531 22.036,31.625 
		20.638,23.485 25.316,30.291 21.823,22.872 28.073,28.181 22.868,22.054 30.097,25.572 23.353,20.805 31.474,22.31 	"/>
</g>
</svg>
