<?xml version="1.0" encoding="iso-8859-1"?>
<!-- Generator: Adobe Illustrator 18.1.1, SVG Export Plug-In . SVG Version: 6.00 Build 0)  -->
<svg version="1.1" id="Layer_219" xmlns="http://www.w3.org/2000/svg" xmlns:xlink="http://www.w3.org/1999/xlink" x="0px" y="0px"
	 viewBox="0 0 56.692 56.692" style="enable-background:new 0 0 56.692 56.692;" xml:space="preserve">
<g>
	<defs>
		<circle id="SVGID_1_" cx="28.346" cy="28.346" r="28.347"/>
	</defs>
	<clipPath id="SVGID_2_">
		<use xlink:href="#SVGID_1_"  style="overflow:visible;"/>
	</clipPath>
	<rect x="-14.174" y="0" style="clip-path:url(#SVGID_2_);fill:#D20000;" width="85.04" height="56.693"/>
	<path style="clip-path:url(#SVGID_2_);fill:#FFE600;" d="M26.899,18.233L22.621,0h11.361L29.707,18.22
		c-0.445-0.061-0.898-0.102-1.359-0.102C27.855,18.119,27.373,18.166,26.899,18.233z M20.469,21.83L-11.247,0h-2.928v7.082
		l33.389,16.685C19.564,23.074,19.98,22.421,20.469,21.83z M28.347,20.103c-4.547,0-8.244,3.697-8.244,8.243
		c0,4.545,3.697,8.243,8.244,8.243c4.544,0,8.242-3.698,8.242-8.243C36.589,23.8,32.891,20.103,28.347,20.103z M18.119,28.346
		c0-0.381,0.025-0.755,0.066-1.124l-32.359-3.214v8.562l32.344-3.211C18.138,29.026,18.119,28.688,18.119,28.346z M67.939,0
		L36.222,21.83c0.49,0.592,0.908,1.245,1.256,1.938L70.866,7.082V0H67.939z M19.214,32.925l-33.389,16.686v7.082h2.928l31.716-21.83
		C19.98,34.271,19.564,33.618,19.214,32.925z M38.574,28.346c0,0.342-0.018,0.68-0.051,1.014l32.343,3.211v-8.562l-32.356,3.214
		C38.549,27.591,38.574,27.965,38.574,28.346z M36.222,34.862l31.717,21.831h2.927v-7.082L37.478,32.925
		C37.13,33.618,36.712,34.27,36.222,34.862z M28.347,38.574c-0.492,0-0.975-0.047-1.448-0.114l-4.278,18.233h11.361l-4.274-18.221
		C29.261,38.532,28.81,38.574,28.347,38.574z"/>
</g>
</svg>
