<?xml version="1.0" encoding="iso-8859-1"?>
<!-- Generator: Adobe Illustrator 18.1.1, SVG Export Plug-In . SVG Version: 6.00 Build 0)  -->
<svg version="1.1" xmlns="http://www.w3.org/2000/svg" xmlns:xlink="http://www.w3.org/1999/xlink" x="0px" y="0px"
	 viewBox="0 0 56.692 56.692" style="enable-background:new 0 0 56.692 56.692;" xml:space="preserve">
<g id="Layer_64">
	<g>
		<defs>
			<circle id="SVGID_1_" cx="28.346" cy="28.346" r="28.347"/>
		</defs>
		<clipPath id="SVGID_2_">
			<use xlink:href="#SVGID_1_"  style="overflow:visible;"/>
		</clipPath>
		<g style="clip-path:url(#SVGID_2_);">
			<rect x="-0.935" y="0" style="fill:#DC171C;" width="20.822" height="56.754"/>
			<rect x="19.888" y="0" style="fill:#47AECF;" width="18.919" height="56.754"/>
			<rect x="38.806" y="0" style="fill:#DC171C;" width="18.918" height="56.754"/>
			<rect x="2.823" y="22.36" style="fill:#FBEA0F;" width="3.444" height="16.767"/>
			<rect x="14.761" y="22.36" style="fill:#FBEA0F;" width="3.445" height="16.767"/>
			<rect x="6.988" y="25.11" style="fill:#FBEA0F;" width="6.97" height="1.442"/>
			<rect x="6.988" y="34.882" style="fill:#FBEA0F;" width="6.97" height="1.442"/>
			<circle style="fill:#FBEA0F;" cx="10.472" cy="16.738" r="2.764"/>
			<path style="fill:#FBEA0F;" d="M10.472,20.3c-1.782,0-3.29-1.118-3.803-2.663c-0.004,0.062-0.019,0.121-0.019,0.185
				c0,2.11,1.711,3.822,3.822,3.822c2.111,0,3.822-1.712,3.822-3.822c0-0.064-0.016-0.123-0.02-0.185
				C13.763,19.182,12.255,20.3,10.472,20.3z"/>
			<polygon style="fill:#FBEA0F;" points="7.133,22.36 10.327,24.568 13.812,22.36 			"/>
			<polygon style="fill:#FBEA0F;" points="10.327,39.161 13.812,36.953 7.133,36.953 			"/>
			<path style="fill:#FBEA0F;" d="M8.948,33.828c-0.4-0.5-0.543-1.097-0.47-1.621c0.113-0.814,0.771-1.667,1.982-1.738
				c0.893-0.053,1.499-0.539,1.621-1.298c0.112-0.695-0.153-1.69-1.116-1.959c0,0-0.323-0.05-0.492-0.05
				c-1.94,0-3.513,1.573-3.513,3.514C6.959,32.069,7.775,33.259,8.948,33.828z M10.507,28.188c0.37,0,0.669,0.3,0.669,0.668
				c0,0.37-0.3,0.67-0.669,0.67c-0.37,0-0.669-0.3-0.669-0.67C9.838,28.489,10.137,28.188,10.507,28.188z"/>
			<path style="fill:#FBEA0F;" d="M12.062,27.559c0.38,0.51,0.517,1.139,0.431,1.678c-0.12,0.747-0.71,1.571-2.009,1.648
				c-0.859,0.052-1.483,0.592-1.594,1.381c-0.084,0.603,0.127,1.655,1.11,1.877c0,0,0.31,0.046,0.471,0.046
				c1.941,0,3.513-1.573,3.513-3.512C13.986,29.312,13.2,28.142,12.062,27.559z M10.507,33.201c-0.37,0-0.669-0.3-0.669-0.67
				c0-0.37,0.3-0.668,0.669-0.668c0.37,0,0.669,0.299,0.669,0.668C11.176,32.9,10.877,33.201,10.507,33.201z"/>
			<path style="fill:#FBEA0F;" d="M8.787,11.702c0.037,0.903,0.777,1.626,1.689,1.626c0.938,0,1.697-0.761,1.697-1.698h-0.004
				c0.088-0.546-0.343-0.768-0.384-1.072c-0.04-0.302,0.201-0.56-0.19-1.047c0.034,0.531-0.195,0.578-0.195,0.958
				c0,0.379,0.115,0.348,0.149,0.723c0.035,0.377-0.115,0.391-0.409,0.393c-0.293,0-0.347-0.515-0.347-0.515
				s0.408-0.757,0.347-1.498c-0.06-0.743-1.09-1.273-0.667-1.788c-0.523,0.236-0.301,0.379-0.226,1.303
				c0.06,0.382-0.308,0.578-0.379,1.106c-0.07,0.528,0.358,0.622,0.302,0.999c-0.056,0.379-0.197,0.371-0.497,0.359
				c-0.448-0.206-0.034-0.759-0.048-1.116c-0.013-0.355-0.268-0.608-0.204-0.919c-0.339,0.023-0.265,0.644-0.219,0.919
				c-0.068,0.61-0.436,0.473-0.426,1.196C8.78,11.661,8.784,11.677,8.787,11.702z"/>
		</g>
	</g>
</g>
<g id="Layer_1">
</g>
</svg>
