<?xml version="1.0" encoding="iso-8859-1"?>
<!-- Generator: Adobe Illustrator 18.1.1, SVG Export Plug-In . SVG Version: 6.00 Build 0)  -->
<svg version="1.1" id="Layer_173" xmlns="http://www.w3.org/2000/svg" xmlns:xlink="http://www.w3.org/1999/xlink" x="0px" y="0px"
	 viewBox="0 0 56.692 56.692" style="enable-background:new 0 0 56.692 56.692;" xml:space="preserve">
<g>
	<defs>
		<circle id="SVGID_1_" cx="28.346" cy="28.347" r="28.346"/>
	</defs>
	<clipPath id="SVGID_2_">
		<use xlink:href="#SVGID_1_"  style="overflow:visible;"/>
	</clipPath>
	<g style="clip-path:url(#SVGID_2_);">
		<rect x="-14.173" y="0" style="fill:#00785E;" width="85.039" height="56.693"/>
	</g>
	<g style="clip-path:url(#SVGID_2_);">
		<path style="fill:#FFFFFF;" d="M20.752,42.494h15.029c0.551-0.273,1.086-0.57,1.6-0.898H19.153
			C19.668,41.923,20.202,42.22,20.752,42.494z M28.268,44.261c2.252,0,4.398-0.447,6.365-1.244H21.901
			C23.87,43.814,26.014,44.261,28.268,44.261z M18.045,40.822h20.445c0.289-0.219,0.576-0.441,0.852-0.68H17.194
			C17.469,40.38,17.754,40.603,18.045,40.822z M16.129,39.152h24.277c0.145-0.148,0.277-0.307,0.418-0.459H15.711
			C15.85,38.845,15.983,39.003,16.129,39.152z M28.678,34.398l-0.318-0.266l-0.318,0.266c-1.363,1.142-3.082,2.355-6.23,2.355
			l-7.664-0.025c0.231,0.342,0.484,0.668,0.738,0.994l6.926,0.024c3.102,0,5-1.091,6.549-2.333c1.551,1.242,3.447,2.333,6.549,2.333
			l6.742-0.026c0.254-0.324,0.508-0.65,0.738-0.994l-7.48,0.027C31.762,36.753,30.043,35.54,28.678,34.398z M13.993,28.918
			c0.994,3.012,5.604,7.932,12.07,5.396c-6.113,2.558-9.738-0.963-10.65-1.762c-0.309,0.125-0.918,0.188-1.207,0.209
			c1.477,2.238,8.518,5.947,14.053,0.438c-0.039-0.045-0.068-0.088-0.105-0.135c0,0.002,0.002,0.004,0.004,0.006
			c0.037,0.043,0.064,0.086,0.102,0.129c0.037-0.031,0.07-0.064,0.105-0.098c-0.029,0.033-0.059,0.064-0.088,0.098
			c5.535,5.51,12.578,1.801,14.053-0.438c-0.287-0.022-0.896-0.084-1.207-0.209c-0.91,0.799-4.535,4.319-10.65,1.762
			c6.469,2.535,11.076-2.385,12.072-5.396c-3.965-1.574-8.156-1.002-11.777,1.848c4.23-3.646,6.897-3.463,8.338-3.516
			c0.185-0.277,0.592-0.881,0.818-1.059c-2.797-0.065-5.481,0.521-8.379,3.184c3.029-4.895,1.25-8.922,0.32-10.094
			c-0.205,0.717-0.631,1.225-0.805,1.483c0.602,1.582,2.297,5.26-1.537,10.779c-0.031,0.039-0.062,0.079-0.096,0.117
			c4.082-6.024,1.369-11.383-1.168-13.516c-2.52,2.121-5.211,7.424-1.24,13.402c-0.043-0.05-0.086-0.105-0.127-0.156
			c-3.697-5.434-2.027-9.059-1.432-10.627c-0.174-0.258-0.6-0.766-0.807-1.483c-0.928,1.17-2.699,5.18,0.299,10.057
			c-2.883-2.631-5.553-3.211-8.338-3.146c0.227,0.178,0.631,0.781,0.818,1.059c1.441,0.053,4.111-0.131,8.344,3.519
			C22.155,27.916,17.961,27.343,13.993,28.918z"/>
		<path style="fill:#FBD116;" d="M21.87,14.552l-1.275,0.853l-1.23-0.92l0.422,1.477l-1.258,0.887l1.537,0.057l0.451,1.469
			l0.529-1.441l1.537,0.023l-1.209-0.95L21.87,14.552z M29.018,12.82l-0.721-2.137l-0.719,2.137l-2.258,0.025l1.81,1.346
			l-0.672,2.152l1.838-1.307l1.84,1.307l-0.674-2.152l1.811-1.346L29.018,12.82z M37.17,14.486l-1.229,0.92l-1.277-0.853
			l0.496,1.453l-1.207,0.95l1.537-0.023l0.529,1.441l0.451-1.469l1.535-0.057l-1.256-0.887L37.17,14.486z M16.692,20.953
			l-0.314-1.504l-0.662,1.387l-1.529-0.166l1.115,1.059l-0.633,1.4l1.352-0.732l1.139,1.033l-0.279-1.51l1.334-0.762L16.692,20.953z
			 M42.348,20.669l-1.529,0.166l-0.662-1.387l-0.312,1.504l-1.521,0.205l1.332,0.762l-0.277,1.51l1.137-1.033l1.352,0.732
			l-0.633-1.4L42.348,20.669z"/>
	</g>
</g>
</svg>
