<?xml version="1.0" encoding="iso-8859-1"?>
<!-- Generator: Adobe Illustrator 18.1.1, SVG Export Plug-In . SVG Version: 6.00 Build 0)  -->
<svg version="1.1" id="Layer_80" xmlns="http://www.w3.org/2000/svg" xmlns:xlink="http://www.w3.org/1999/xlink" x="0px" y="0px"
	 viewBox="0 0 56.692 56.692" style="enable-background:new 0 0 56.692 56.692;" xml:space="preserve">
<g>
	<defs>
		<circle id="SVGID_1_" cx="28.346" cy="28.346" r="28.347"/>
	</defs>
	<clipPath id="SVGID_2_">
		<use xlink:href="#SVGID_1_"  style="overflow:visible;"/>
	</clipPath>
	<rect x="-14.173" y="0.001" style="clip-path:url(#SVGID_2_);fill:#006233;" width="85.039" height="56.691"/>
	<g style="clip-path:url(#SVGID_2_);">
		<g>
			<path style="fill:#FFC400;" d="M45.911,16.901c0,0.025,0.002,0.053,0.002,0.078c0,9.701-7.865,17.566-17.566,17.566
				c-9.701,0-17.566-7.865-17.566-17.566c0-0.025,0.002-0.053,0.002-0.078c-0.4,1.502-0.617,3.078-0.617,4.705
				c0,10.043,8.141,18.182,18.182,18.182c10.041,0,18.182-8.139,18.182-18.182C46.528,19.979,46.311,18.403,45.911,16.901z"/>
			<polygon style="fill:#FFC400;" points="28.329,9.756 29.899,14.385 34.971,14.385 30.858,17.397 32.379,21.985 28.332,19.258 
				24.282,21.985 25.801,17.397 21.721,14.385 26.797,14.385 			"/>
		</g>
	</g>
</g>
</svg>
