<?xml version="1.0" encoding="utf-8"?>
<!-- Generator: Adobe Illustrator 18.1.1, SVG Export Plug-In . SVG Version: 6.00 Build 0)  -->
<!DOCTYPE svg PUBLIC "-//W3C//DTD SVG 1.1//EN" "http://www.w3.org/Graphics/SVG/1.1/DTD/svg11.dtd">
<svg version="1.1" id="Layer_169" xmlns="http://www.w3.org/2000/svg" xmlns:xlink="http://www.w3.org/1999/xlink" x="0px" y="0px"
	 width="56.7px" height="56.7px" viewBox="0 0 56.7 56.7" enable-background="new 0 0 56.7 56.7" xml:space="preserve">
<path fill="#FFFFFF" d="M28.1,0h0.3C12.7,0,0,12.8,0,28.3c0,15.6,12.7,28.4,28.3,28.4h-0.3V0z"/>
<path fill="#CF142B" d="M28.1,56.7h0.3c15.6,0,28.3-12.8,28.3-28.4C56.7,12.8,44,0,28.4,0h-0.3V56.7z"/>
<g>
	<path fill="#E60D2E" d="M9,11.8v4.3h4.3c0,0.7,0.7,1.4,1.4,1.4v4.3H19v-4.3c0.7,0,1.4-0.7,1.4-1.4h4.3v-4.3h-4.3
		c0-0.7-0.7-1.4-1.4-1.4V6.1h-4.3v4.3c-0.7,0-1.4,0.7-1.4,1.4H9z"/>
	<path fill="#96877D" d="M9.3,12.1v3.7h4.3c0,0.7,0.7,1.4,1.4,1.4v4.3h3.7v-4.3c0.7,0,1.4-0.7,1.4-1.4h4.3v-3.7h-4.3
		c0-0.7-0.7-1.4-1.4-1.4V6.4H15v4.3c-0.7,0-1.4,0.7-1.4,1.4H9.3z"/>
	<path fill="#CCCCCC" d="M9.4,12.3v3.4h4.3c0,0.7,0.7,1.4,1.4,1.4v4.3h3.4v-4.3c0.7,0,1.4-0.7,1.4-1.4h4.3v-3.4H20
		c0-0.7-0.7-1.4-1.4-1.4V6.5h-3.4v4.3c-0.7,0-1.4,0.7-1.4,1.4H9.4z"/>
	<path fill="#96877D" d="M14.9,10.8c0.3,0.3,0.2,0.7-0.2,1.1c-0.3,0.3-0.8,0.4-1.1,0.2c-0.3-0.3-0.2-0.7,0.2-1.1
		C14.2,10.6,14.6,10.5,14.9,10.8z"/>
	<path fill="#D0D0D0" d="M13.6,11.5l0.1-0.1l0.4,0.2l-0.2-0.4l0.1-0.1l0.4,0.8L13.6,11.5L13.6,11.5z"/>
	<path fill="#D0D0D0" d="M14.2,10.9l0.1-0.1l0.6,0.6l-0.1,0.1L14.2,10.9z"/>
	<path fill="#96877D" d="M20.1,12c-0.3,0.3-0.7,0.2-1.1-0.2c-0.3-0.3-0.4-0.8-0.2-1.1c0.3-0.3,0.7-0.2,1.1,0.2
		C20.3,11.3,20.3,11.7,20.1,12z"/>
	<path fill="#D0D0D0" d="M19.3,10.7l0.1,0.1l-0.2,0.4l0.4-0.2l0.1,0.1l-0.8,0.4L19.3,10.7L19.3,10.7z"/>
	<path fill="#D0D0D0" d="M19.9,11.3l0.1,0.1L19.4,12l-0.1-0.1L19.9,11.3z"/>
	<path fill="#96877D" d="M18.9,17.2c-0.3-0.3-0.2-0.7,0.2-1.1c0.3-0.3,0.8-0.4,1.1-0.2c0.3,0.3,0.2,0.7-0.2,1.1
		C19.6,17.4,19.1,17.4,18.9,17.2z"/>
	<path fill="#D0D0D0" d="M20.1,16.4L20,16.5l-0.4-0.2l0.2,0.4l-0.1,0.1L19.3,16L20.1,16.4L20.1,16.4z"/>
	<path fill="#D0D0D0" d="M19.5,17l-0.1,0.1l-0.6-0.6l0.1-0.1L19.5,17z"/>
	<path fill="#96877D" d="M13.7,16c0.3-0.3,0.7-0.2,1.1,0.2c0.3,0.3,0.4,0.8,0.2,1.1c-0.3,0.3-0.7,0.2-1.1-0.2
		C13.5,16.7,13.4,16.2,13.7,16z"/>
	<path fill="#D0D0D0" d="M14.4,17.2l-0.1-0.1l0.2-0.4l-0.4,0.2L14,16.8l0.8-0.4L14.4,17.2L14.4,17.2z"/>
	<path fill="#D0D0D0" d="M13.8,16.6l-0.1-0.1l0.6-0.6l0.1,0.1L13.8,16.6z"/>
	<circle fill="none" stroke="#96877D" stroke-width="4.856649e-02" cx="16.9" cy="14" r="3"/>
	<circle fill="none" stroke="#96877D" stroke-width="4.856649e-02" cx="16.9" cy="14" r="2.3"/>
	<circle cx="15.7" cy="16.4" r="0.1"/>
	<circle cx="18" cy="16.4" r="0.1"/>
	<path d="M16.8,16.4v0.1h-0.2c-0.2,0-0.2,0.1,0,0.1h0.2v0.1c0,0.2,0.2,0.2,0.2,0l0-0.2h0.2c0.2,0,0.2-0.1,0-0.1H17v-0.1
		C17,16.3,16.8,16.3,16.8,16.4L16.8,16.4z"/>
	<path d="M14.1,14.7l0.2,0l0-0.1c0,0,0,0,0,0c0,0,0,0-0.1,0l0,0l0.2,0l0,0c0,0,0,0,0,0c0,0,0,0,0,0c0,0,0,0,0,0l0,0.1l0.2,0
		c0,0,0,0,0,0c0,0,0,0,0,0c0,0,0,0,0,0l0,0l0,0l0.1,0.2l0,0l0,0c0,0,0,0,0,0c0,0,0,0-0.1,0L14.1,14.7C14.1,14.8,14.1,14.8,14.1,14.7
		C14.1,14.8,14.1,14.8,14.1,14.7c0,0.1,0,0.1,0,0.1l0,0l0,0L14,14.5l0.1,0l0,0c0,0,0,0,0,0c0,0,0,0,0,0c0,0,0,0,0,0.1L14.1,14.7
		L14.1,14.7z M14,13.8c0-0.1,0-0.1,0.1-0.2c0.1,0,0.1-0.1,0.2-0.1c0.1,0,0.1,0,0.2,0.1c0,0.1,0.1,0.1,0.1,0.2c0,0.1,0,0.1-0.1,0.2
		c-0.1,0-0.1,0.1-0.2,0.1c-0.1,0-0.1,0-0.2-0.1C14,14,13.9,13.9,14,13.8L14,13.8z M14,13.8c0,0,0,0.1,0,0.1c0,0,0.1,0.1,0.2,0.1
		c0.1,0,0.1,0,0.2,0c0,0,0.1-0.1,0.1-0.1c0,0,0-0.1,0-0.1c0,0-0.1-0.1-0.2-0.1c-0.1,0-0.2,0-0.2,0C14,13.7,14,13.8,14,13.8L14,13.8z
		 M14.7,12.9l0,0.1l-0.3,0.1c0,0,0,0,0,0c0,0,0,0,0,0c0,0,0,0,0,0l0.1,0.1c0,0,0.1,0,0.1,0c0,0,0,0,0,0l0,0l0,0l-0.1,0.2l0,0l0,0
		c0,0,0,0,0-0.1c0,0,0,0,0,0l-0.3-0.1c0,0-0.1,0-0.1,0c0,0,0,0,0,0l0,0l0,0l0.1-0.2c0-0.1,0-0.1,0.1-0.1c0,0,0,0,0.1,0
		c0,0,0.1,0,0.1,0c0,0,0.1,0,0.1,0.1c0,0,0,0.1,0,0.1l0.2,0C14.6,13,14.6,13,14.7,12.9C14.7,12.9,14.7,12.9,14.7,12.9L14.7,12.9
		L14.7,12.9z M14.3,13.1C14.3,13.1,14.3,13.1,14.3,13.1C14.4,13.1,14.4,13.1,14.3,13.1c0-0.1,0-0.1,0-0.1c0,0,0-0.1-0.1-0.1
		c0,0-0.1,0-0.1,0c0,0,0,0-0.1,0.1c0,0,0,0,0,0.1L14.3,13.1L14.3,13.1z M15.4,11.4l0.1,0.1l0,0C15.5,11.5,15.5,11.5,15.4,11.4
		c0,0.1-0.1,0.1-0.1,0.1c-0.1,0-0.1,0.1-0.1,0.1c0,0.1,0,0.1,0,0.2c0,0,0.1,0.1,0.1,0.1c0,0,0.1,0,0.1,0c0,0,0.1,0,0.1,0
		c0,0,0,0,0,0c0,0,0,0,0,0l-0.1-0.1c0,0,0,0,0,0c0,0,0,0,0,0c0,0,0,0,0,0l0,0l0.2-0.1l0,0l0,0c0,0,0,0,0,0c0,0,0,0,0,0.1l0.1,0.1
		c0,0,0,0.1-0.1,0.1s0,0-0.1,0.1c-0.1,0.1-0.2,0.1-0.2,0c-0.1,0-0.1-0.1-0.1-0.1c0,0,0-0.1,0-0.1c0-0.1,0-0.1,0-0.2
		c0,0,0.1-0.1,0.1-0.1c0,0,0,0,0,0C15.4,11.5,15.4,11.5,15.4,11.4C15.4,11.5,15.4,11.5,15.4,11.4C15.4,11.5,15.4,11.5,15.4,11.4
		C15.4,11.5,15.4,11.5,15.4,11.4L15.4,11.4L15.4,11.4z M16.3,11.5l-0.2,0.1l0,0.1c0,0,0,0,0,0c0,0,0,0,0,0c0,0,0,0,0,0l0,0l-0.2,0
		l0,0c0,0,0,0,0,0c0,0,0,0,0-0.1l0.1-0.5l0,0l0.3,0.4c0,0,0,0,0.1,0.1c0,0,0,0,0.1,0l0,0l-0.2,0.1l0,0c0,0,0,0,0,0c0,0,0,0,0,0
		C16.4,11.6,16.3,11.6,16.3,11.5L16.3,11.5L16.3,11.5z M16.3,11.5l-0.1-0.2l0,0.2L16.3,11.5L16.3,11.5z M17.2,11.5L17.2,11.5l0,0.1
		l-0.4,0l0,0l0,0c0,0,0,0,0,0c0,0,0,0,0-0.1l0-0.3c0,0,0-0.1,0-0.1c0,0,0,0,0,0l0,0l0,0l0.2,0l0,0c0,0,0,0-0.1,0c0,0,0,0,0,0
		c0,0,0,0,0,0.1l0,0.3c0,0,0,0,0,0c0,0,0,0,0,0c0,0,0,0,0.1,0l0,0C17,11.6,17.1,11.6,17.2,11.5C17.1,11.6,17.1,11.6,17.2,11.5
		C17.1,11.5,17.2,11.5,17.2,11.5L17.2,11.5z M17.9,11.7L17.9,11.7l-0.1,0.1l-0.4-0.1l0,0l0,0c0,0,0,0,0.1,0c0,0,0,0,0-0.1l0.1-0.3
		c0,0,0-0.1,0-0.1c0,0,0,0,0,0l0,0l0,0l0.2,0.1l0,0c0,0,0,0-0.1,0c0,0,0,0,0,0c0,0,0,0,0,0.1l-0.1,0.3c0,0,0,0,0,0c0,0,0,0,0,0
		c0,0,0,0,0.1,0l0,0c0,0,0.1,0,0.1,0C17.8,11.7,17.8,11.7,17.9,11.7C17.8,11.7,17.8,11.7,17.9,11.7L17.9,11.7z M18.4,11.9l-0.2-0.1
		l-0.1,0c0,0,0,0,0,0c0,0,0,0,0,0c0,0,0,0,0,0l0,0L18,11.9l0,0c0,0,0,0,0,0c0,0,0,0,0.1,0l0.4-0.2l0,0l-0.1,0.5c0,0,0,0.1,0,0.1
		c0,0,0,0,0,0l0,0l-0.2-0.1l0,0c0,0,0,0,0,0c0,0,0,0,0,0C18.4,12.1,18.4,12,18.4,11.9L18.4,11.9L18.4,11.9z M18.4,11.9l0-0.2
		l-0.2,0.1L18.4,11.9L18.4,11.9z M19,12l0.1,0.1L19,12.6l0.2-0.2c0,0,0,0,0,0c0,0,0,0,0,0l0,0l0,0l0.1,0.1l0,0l0,0c0,0,0,0,0,0
		c0,0,0,0,0,0l-0.3,0.3l0,0l0.1-0.5l-0.3,0.2c0,0,0,0,0,0c0,0,0,0,0,0l0,0l0,0l-0.1-0.1l0,0l0,0c0,0,0,0,0,0c0,0,0,0,0,0l0.3-0.2
		C19,12.1,19,12.1,19,12C19,12.1,19,12.1,19,12C19,12.1,19,12,19,12L19,12L19,12z M19.7,13.2l-0.1,0l0,0
		C19.6,13.2,19.6,13.2,19.7,13.2C19.6,13.2,19.6,13.2,19.7,13.2C19.6,13.2,19.6,13.2,19.7,13.2l-0.1-0.2l-0.4,0.1c0,0,0,0-0.1,0
		c0,0,0,0,0,0l0,0l0,0l-0.1-0.2l0,0l0,0c0,0,0,0,0,0c0,0,0,0,0.1,0l0.4-0.1l0-0.1c0,0,0,0,0,0c0,0,0,0,0,0c0,0,0,0-0.1,0l0,0l0.1,0
		L19.7,13.2L19.7,13.2z M19.3,14.1l0-0.1l0.2-0.2c0,0,0,0,0,0c0,0,0,0,0,0c0,0,0,0,0,0l-0.1,0c0,0-0.1,0-0.1,0c0,0,0,0,0,0l0,0l0,0
		l0-0.2l0,0l0,0c0,0,0,0,0,0c0,0,0,0,0.1,0l0.3,0c0,0,0.1,0,0.1,0c0,0,0,0,0,0l0,0l0,0l0,0.2c0,0.1,0,0.1,0,0.1c0,0,0,0,0,0.1
		s0,0-0.1,0c0,0-0.1,0-0.1,0c0,0,0-0.1-0.1-0.1L19.4,14C19.3,14,19.3,14,19.3,14.1C19.3,14.1,19.3,14.1,19.3,14.1L19.3,14.1
		L19.3,14.1z M19.5,13.8C19.5,13.8,19.5,13.8,19.5,13.8C19.5,13.8,19.5,13.8,19.5,13.8c0,0.1,0,0.1,0,0.1c0,0,0.1,0,0.1,0
		c0,0,0.1,0,0.1,0c0,0,0,0,0-0.1c0,0,0,0,0-0.1L19.5,13.8L19.5,13.8z M19.7,14.8l0,0.2l0,0l0,0c0,0,0,0,0,0
		C19.6,14.9,19.6,14.9,19.7,14.8c-0.1,0.1-0.1,0.1-0.1,0l-0.2-0.2l-0.1,0c0,0-0.1,0-0.1,0c0,0,0,0,0,0l0,0l0,0l0.1-0.2l0,0l0,0
		c0,0,0,0,0,0c0,0,0,0,0.1,0l0.1,0l0.2-0.1c0,0,0,0,0.1,0c0,0,0,0,0,0c0,0,0,0,0,0l0,0l-0.1,0.2l0,0l0,0c0,0,0,0,0,0c0,0,0,0,0,0
		c0,0,0,0-0.1,0l-0.2,0.1l0.1,0.1C19.6,14.8,19.6,14.9,19.7,14.8C19.6,14.9,19.6,14.9,19.7,14.8C19.6,14.9,19.6,14.8,19.7,14.8
		C19.6,14.8,19.6,14.8,19.7,14.8L19.7,14.8L19.7,14.8z"/>
	<path fill="#96877D" stroke="#000000" stroke-width="1.918093e-02" d="M18.5,14.4c0.1,0,0.1,0,0.1,0s0,0,0,0c0,0,0.1,0,0.1,0
		s0,0-0.1,0c0,0,0.1,0,0.1,0s-0.1,0-0.1,0c0,0,0,0.1,0,0.1S18.6,14.6,18.5,14.4"/>
	<path fill="#96877D" stroke="#000000" stroke-width="1.918093e-02" d="M18.3,14.3c0,0.1-0.2-0.1-0.2-0.1s0.1,0.1,0.2,0.2"/>
	<path fill="#96877D" stroke="#000000" stroke-width="1.918093e-02" d="M15.7,15.7h2.4l0.2-0.2L18,15.4l-0.5-0.2l-0.2-0.1l-0.4,0
		l-0.3,0.2l-0.4,0l-0.1,0.1l-0.3,0l-0.5,0l0.8,0.1l-0.7,0L15.7,15.7L15.7,15.7z"/>
	<path fill="#96877D" stroke="#000000" stroke-width="1.918093e-02" d="M17,15c-0.3-0.2-0.4,0.2-0.5,0.3c0.2,0,0.3-0.1,0.5-0.2
		c0.1,0.3,0.3,0.1,0.3,0.1s0.2,0.3,0.4,0.2c0.1,0.1,0.1,0,0.1,0s0.1,0,0.1,0c0,0,0.1,0,0.1,0s0.1,0,0.1-0.1c0.2,0,0.4-0.3,0.4-0.3
		l0.1-0.1l0.1,0c0,0,0-0.1,0-0.1c0,0,0-0.1-0.1,0c0,0,0,0,0,0c-0.1,0-0.1,0.2-0.1,0.2S18.3,15,18.3,15c0-0.1-0.2-0.3-0.2-0.4
		c0-0.1,0.2,0.1,0.3,0.1c0.1,0,0.2-0.2,0.2-0.3c0-0.1-0.1-0.2-0.1-0.2l-0.1,0L18.3,14c0,0-0.1,0.1-0.1,0.2c0,0.1,0.2,0.2,0.2,0.2
		s-0.1,0.1-0.2,0c0,0.1,0.1,0.1,0.1,0.1c0,0.1,0.1,0.1,0.1,0.1s0,0.1-0.1,0.1c-0.1,0-0.2-0.2-0.3-0.1c-0.1,0.1,0.1,0.3,0.1,0.3
		s-0.1,0.1-0.2,0.2C17.5,14.8,17.4,14.9,17,15L17,15z"/>
	<path fill="#96877D" stroke="#000000" stroke-width="1.918093e-02" d="M16.6,14.6c0.1,0.1,0,0.3,0.1,0.4c0.1,0,0.1,0,0.1,0
		c0.1,0,0.4,0,0.4,0c0.1,0.1,0.1,0,0.1,0c0.1,0.1,0.2,0.1,0.2,0.1s-0.2-0.2-0.3-0.2c-0.1,0-0.3,0.1-0.4,0c0,0,0-0.1,0-0.1
		c0.1-0.1,0-0.3,0-0.4C16.6,14.2,16.4,14.4,16.6,14.6L16.6,14.6z"/>
	<path fill="#96877D" stroke="#000000" stroke-width="1.918093e-02" d="M15.7,14.2c-0.2,0-0.4-0.2-0.6-0.1c-0.1,0.1-0.1,0.3,0,0.4
		c0.1,0.1-0.1,0.2-0.2,0.2c-0.1,0.1,0,0.1,0,0.1l0.1,0l0,0.1l0,0.1c0,0,0,0,0,0c0,0,0,0.1,0.1,0.1c0,0,0-0.2,0-0.2s0.1,0,0.1,0
		c0,0,0-0.2,0-0.2h0c0,0-0.1-0.1-0.1-0.1s0.2-0.1,0.2-0.2c0-0.1-0.3-0.2-0.2-0.3c0.1-0.1,0.3,0.2,0.4,0.1c0.2-0.1,0.1,0,0.1,0
		S15.9,14.2,15.7,14.2L15.7,14.2z"/>
	<path fill="#96877D" stroke="#000000" stroke-width="1.918093e-02" d="M16.6,12.5c-0.2-0.1-0.6-0.1-0.9-0.2c-0.1,0-0.2,0.1-0.2,0.1
		c-0.1,0-0.2,0.2-0.2,0.2c-0.2-0.1-0.3,0.2-0.2,0.3c-0.2,0-0.2,0.2-0.2,0.3c-0.1,0.1,0,0.2,0.1,0.1c0,0.1,0,0.1-0.1,0.1
		c0.3,0.3,0.5-0.2,0.7-0.2c0.3-0.1,0.5-0.3,0.5-0.3l0.1,0L16.6,12.5L16.6,12.5z"/>
	<circle fill="#96877D" stroke="#000000" stroke-width="1.918093e-02" cx="16.8" cy="12.3" r="0.3"/>
	<path fill="#96877D" stroke="#000000" stroke-width="1.918093e-02" d="M16.3,14.7c-0.2,0-0.5-0.2-0.5-0.5c0.2-0.7,1.1-0.3,1.2-0.9
		c0-0.4,0-0.7,0.2-1c0.1-0.1,0.2-0.1,0.2-0.1s0,0.1,0,0.1c0.2,0,0.4,0.1,0.5,0.1c0,0.1,0,0.1,0,0.2c0,0.1-0.1,0-0.1,0
		c0,0-0.1,0.1-0.2,0.1c-0.1,0.1-0.2,0.1-0.2,0.1s0.3,0.4,0.3,0.5c0.1,0,0.2,0.2,0.2,0.2s0.2-0.1,0.3-0.2c0.1,0,0.4,0.1,0.5,0.2
		c0.1,0.1,0.3,0.2,0.3,0.2s-0.2,0.1-0.2,0c-0.1,0-0.3-0.2-0.5-0.1c0,0.2-0.3,0.4-0.3,0.4s0.2,0,0.4,0c0.1,0.1,0.3,0.3,0.3,0.3
		l0.2,0.3c0,0-0.2,0-0.2-0.2c-0.1,0.2-0.1-0.1-0.3-0.2c-0.1,0-0.1,0-0.2,0c-0.2,0-0.4,0.1-0.6,0.1c-0.2,0.1-0.3,0.2-0.5,0.3
		c-0.2,0.1-0.2,0-0.2,0l-0.1,0c0,0.1,0,0.2-0.1,0.2c0,0.1,0,0.3-0.1,0.3c0,0.1,0.2,0.2,0.3,0.3c0,0,0.1,0,0.2,0
		c0.1,0.1,0.1,0.2,0.1,0.2s-0.1,0-0.2,0c0,0,0-0.1-0.1-0.1c-0.3-0.3-0.5-0.2-0.5-0.2C16.2,15,16.3,14.8,16.3,14.7L16.3,14.7z"/>
	<path fill="#96877D" stroke="#000000" stroke-width="1.918093e-02" d="M15.5,13.4c0,0,0.1,0,0.1,0l0.2,0.1l0.4,0.3l0.2,0.2L16.2,14
		l-0.4-0.3l-0.2-0.1C15.6,13.5,15.5,13.4,15.5,13.4L15.5,13.4z"/>
	<path fill="#96877D" stroke="#000000" stroke-width="1.918093e-02" d="M18.1,14.1c-0.2,0-0.5,0.4-0.5,0.4l0.3,0.3
		C17.9,14.9,17.9,14.3,18.1,14.1z"/>
	<path fill="#96877D" stroke="#000000" stroke-width="1.918093e-02" d="M16.3,12.9c-0.1,0.1-0.1,0.3,0,0.4c0,0.1,0.1,0.4,0.2,0.4
		c0.1,0,0.5,0.1,0.6,0.1c0,0.2,0.2,0.4,0.3,0.6c0,0,0,0,0,0.1c0,0,0.1,0,0.1,0c0,0.1,0.2,0.1,0.3,0.1c0,0-0.3-0.2-0.4-0.3
		c-0.1-0.1-0.2-0.3-0.2-0.5c-0.2-0.2-0.4-0.2-0.4-0.2l0-0.4l0-0.4l-0.1-0.1c0,0,0,0,0,0c0,0,0.1-0.1,0.1-0.1c0,0,0.1,0,0.1,0
		c0,0,0-0.1,0-0.1c0.1-0.1,0-0.3-0.2-0.3c-0.2,0-0.2,0.2-0.2,0.2c0,0.1,0,0.1,0,0.1c0,0-0.1,0-0.1,0s-0.1,0-0.2,0
		c-0.1,0-0.2,0.1-0.2,0.2c0,0-0.1,0.1-0.1,0.1c0,0-0.1,0-0.2,0.2c-0.2,0.1-0.2,0.4-0.2,0.4s0,0.1,0,0.1c0,0,0,0.1,0,0.1c0,0,0,0,0,0
		c0,0,0,0,0.1,0c0,0,0.1,0,0.1,0c0,0,0-0.1,0-0.1c0,0,0.1,0,0.1,0c0,0,0,0,0-0.1c0,0-0.1,0-0.1-0.1c0-0.1,0-0.1,0-0.1S16,13.1,16,13
		C16.1,13,16.2,12.9,16.3,12.9L16.3,12.9z"/>
	<path fill="#96877D" stroke="#000000" stroke-width="1.918093e-02" d="M15.9,12.3c0-0.1,0.2-0.1,0.2-0.1s0.1-0.1,0.3-0.1
		c0.1-0.1,0.3,0,0.3,0s0.1-0.1,0.2-0.1c0.2,0,0.2,0.2,0.2,0.2c-0.1,0-0.3-0.1-0.4-0.1c-0.1,0-0.2,0.1-0.2,0.2
		C16.3,12.5,16.1,12.3,15.9,12.3L15.9,12.3z"/>
	<path fill="#96877D" stroke="#000000" stroke-width="1.918093e-02" d="M16.3,12.5c0,0,0.2-0.1,0.2,0c0.1,0.1,0.2,0.2,0.2,0.2
		l0.1,0.1l0.1,0l0,0.6c-0.1-0.1-0.2-0.2-0.3-0.3c0-0.1,0-0.2-0.1-0.3C16.4,12.7,16.3,12.6,16.3,12.5L16.3,12.5z"/>
	<path fill="#96877D" stroke="#000000" stroke-width="1.918093e-02" d="M16.7,12.7C16.7,12.7,16.7,12.7,16.7,12.7c0.1,0,0.1,0,0.1,0
		c0,0,0,0,0,0c0,0,0,0.1,0,0.1l0,0c0,0,0,0,0-0.1c0,0-0.1,0-0.1,0C16.7,12.8,16.7,12.8,16.7,12.7C16.7,12.7,16.7,12.7,16.7,12.7
		L16.7,12.7z"/>
	<path fill="#96877D" stroke="#000000" stroke-width="1.918093e-02" d="M17.3,12.3c0,0-0.1,0-0.1,0L17,12.6l-0.1,0.1l0,0.3l0.1,0.2
		l0,0.2c0,0,0.1-0.1,0.1-0.1c0,0,0-0.2,0-0.2s-0.1-0.1,0-0.3C17.1,12.6,17.2,12.4,17.3,12.3L17.3,12.3z"/>
	<path fill="#96877D" stroke="#000000" stroke-width="1.918093e-02" d="M17.7,12.6c0,0-0.3,0.4-0.8,0.6c-0.1,0-0.1-0.3-0.1-0.3l0,0
		c0,0-0.1,0.3,0.1,0.3C17.4,13.1,17.8,12.6,17.7,12.6L17.7,12.6L17.7,12.6z"/>
	<path fill="#96877D" stroke="#000000" stroke-width="1.918093e-02" d="M17.9,15.1c0,0,0,0-0.1,0c0-0.1-0.1-0.1-0.1-0.1
		s-0.1-0.2-0.1-0.1c0-0.1-0.1,0-0.1,0s0-0.1-0.1-0.1c0-0.1-0.2-0.1-0.2-0.1s0-0.2-0.3-0.1c0.6-0.3,1.1,0.4,1.1,0.4"/>
	<path fill="#96877D" stroke="#000000" stroke-width="1.918093e-02" d="M18.2,15.1c0,0,0.1,0.2,0.2,0.2c0.1,0,0.1-0.2,0.1-0.2
		s0,0.1,0.1,0c0,0,0,0.1,0,0.1s-0.1,0.3-0.5,0"/>
	<path fill="#96877D" stroke="#000000" stroke-width="1.918093e-02" d="M17.2,15.2l0,0.2c0,0-0.1,0.1,0,0.1c0,0,0.1,0,0.1,0
		s0.2,0,0.2-0.1c0,0.1,0.1,0.1,0.1,0.1s0,0,0,0c0,0,0.1,0,0.1,0s0-0.1,0-0.1c0,0,0-0.1,0-0.1c-0.1,0.1-0.2,0.1-0.2,0.1
		c0,0,0.1-0.1,0.1-0.2"/>
</g>
</svg>
