<?xml version="1.0" encoding="iso-8859-1"?>
<!-- Generator: Adobe Illustrator 18.1.1, SVG Export Plug-In . SVG Version: 6.00 Build 0)  -->
<svg version="1.1" id="Layer_120" xmlns="http://www.w3.org/2000/svg" xmlns:xlink="http://www.w3.org/1999/xlink" x="0px" y="0px"
	 viewBox="0 0 56.692 56.692" style="enable-background:new 0 0 56.692 56.692;" xml:space="preserve">
<g>
	<defs>
		<circle id="SVGID_1_" cx="28.346" cy="28.347" r="28.347"/>
	</defs>
	<clipPath id="SVGID_2_">
		<use xlink:href="#SVGID_1_"  style="overflow:visible;"/>
	</clipPath>
	<rect x="-14.173" y="37.796" style="clip-path:url(#SVGID_2_);fill:#319400;" width="85.039" height="18.896"/>
	<rect x="-14.173" y="18.899" style="clip-path:url(#SVGID_2_);fill:#DE2110;" width="85.039" height="18.897"/>
	<rect x="-14.173" y="0.002" style="clip-path:url(#SVGID_2_);" width="85.039" height="18.897"/>
	<g style="clip-path:url(#SVGID_2_);">
		<path style="fill:#DE2110;" d="M38,4.929c-1.117-0.553-2.619,4.42-2.838,4.934C35.496,9.416,39.038,5.618,38,4.929z"/>
		<path style="fill:#DE2110;" d="M36.514,4.156c-1.162-0.454-2.232,4.627-2.406,5.156C34.401,8.839,37.606,4.752,36.514,4.156z"/>
		<path style="fill:#DE2110;" d="M39.428,5.837c-1.066-0.648-2.998,4.172-3.262,4.664C36.54,10.086,40.401,6.613,39.428,5.837z"/>
		<path style="fill:#DE2110;" d="M30.028,2.416c-1.246-0.029-0.518,5.113-0.5,5.67C29.643,7.541,31.258,2.605,30.028,2.416z"/>
		<path style="fill:#DE2110;" d="M42.94,17.48h3.203c0.572-0.199,0.945-0.456,0.877-0.802C46.745,15.863,44.489,16.77,42.94,17.48z"
			/>
		<path style="fill:#DE2110;" d="M40.77,6.868c-1.004-0.739-3.354,3.892-3.658,4.358C37.518,10.845,41.67,7.726,40.77,6.868z"/>
		<path style="fill:#DE2110;" d="M33.338,3c-1.221-0.244-1.389,4.947-1.467,5.5C32.079,7.98,34.52,3.396,33.338,3z"/>
		<path style="fill:#DE2110;" d="M34.944,3.496c-1.195-0.348-1.805,4.809-1.932,5.354C33.264,8.351,36.086,3.993,34.944,3.496z"/>
		<path style="fill:#DE2110;" d="M30.709,8.243c0.162-0.536,2.203-5.311,0.992-5.606C30.463,2.498,30.741,7.683,30.709,8.243z"/>
		<path style="fill:#DE2110;" d="M41.165,17.013c0.543-0.127,5.697-0.756,5.346-1.949C46.01,13.921,41.663,16.761,41.165,17.013z"/>
		<path style="fill:#DE2110;" d="M28.344,9.496c-5.252,0-9.715,3.328-11.428,7.984h22.855C38.057,12.824,33.596,9.496,28.344,9.496z
			"/>
		<path style="fill:#DE2110;" d="M45.862,13.5c-0.598-1.092-4.68,2.119-5.154,2.414C41.239,15.741,46.319,14.661,45.862,13.5z"/>
		<path style="fill:#DE2110;" d="M45.083,12.003c-0.691-1.035-4.479,2.52-4.924,2.856C40.672,14.638,45.637,13.119,45.083,12.003z"
			/>
		<path style="fill:#DE2110;" d="M37.989,12.031c0.439-0.346,4.844-3.096,4.02-4.029C41.071,7.179,38.334,11.591,37.989,12.031z"/>
		<path style="fill:#DE2110;" d="M38.793,12.911c0.467-0.308,5.096-2.663,4.355-3.665C42.29,8.345,39.176,12.502,38.793,12.911z"/>
		<path style="fill:#DE2110;" d="M39.518,13.853c0.492-0.264,5.311-2.203,4.662-3.266C43.401,9.615,39.934,13.482,39.518,13.853z"/>
		<path style="fill:#DE2110;" d="M18.678,4.929c-1.037,0.688,2.504,4.486,2.838,4.934C21.297,9.349,19.795,4.377,18.678,4.929z"/>
		<path style="fill:#DE2110;" d="M16.52,14.857c-0.447-0.334-4.232-3.889-4.924-2.854C11.042,13.119,16.006,14.638,16.52,14.857z"/>
		<path style="fill:#DE2110;" d="M18.688,12.031c-0.344-0.439-3.082-4.852-4.018-4.029C13.846,8.935,18.25,11.685,18.688,12.031z"/>
		<path style="fill:#DE2110;" d="M17.883,12.911c-0.381-0.409-3.494-4.566-4.356-3.665C12.79,10.248,17.417,12.603,17.883,12.911z"
			/>
		<path style="fill:#DE2110;" d="M17.159,13.853c-0.414-0.371-3.881-4.238-4.66-3.266C11.85,11.65,16.667,13.589,17.159,13.853z"/>
		<path style="fill:#DE2110;" d="M10.536,17.48h3.201c-1.549-0.71-3.805-1.617-4.078-0.802C9.59,17.024,9.963,17.281,10.536,17.48z"
			/>
		<path style="fill:#DE2110;" d="M15.969,15.914c-0.473-0.295-4.555-3.506-5.154-2.414C10.36,14.661,15.44,15.741,15.969,15.914z"/>
		<path style="fill:#DE2110;" d="M15.514,17.013c-0.498-0.252-4.846-3.092-5.346-1.949C9.815,16.257,14.971,16.886,15.514,17.013z"
			/>
		<path style="fill:#DE2110;" d="M23.34,3c-1.182,0.396,1.26,4.981,1.467,5.5C24.729,7.947,24.561,2.755,23.34,3z"/>
		<path style="fill:#DE2110;" d="M19.567,11.226c-0.305-0.467-2.654-5.098-3.658-4.358C15.008,7.726,19.159,10.845,19.567,11.226z"
			/>
		<path style="fill:#DE2110;" d="M24.977,2.636c-1.211,0.295,0.83,5.07,0.992,5.606C25.938,7.683,26.215,2.498,24.977,2.636z"/>
		<path style="fill:#DE2110;" d="M26.651,2.416c-1.23,0.19,0.383,5.123,0.498,5.67C27.167,7.529,27.897,2.386,26.651,2.416z"/>
		<path style="fill:#DE2110;" d="M28.338,2.343c-1.242,0.078-0.066,5.137,0,5.692C28.407,7.48,29.583,2.421,28.338,2.343z"/>
		<path style="fill:#DE2110;" d="M20.51,10.502c-0.262-0.492-2.195-5.312-3.26-4.664C16.278,6.613,20.139,10.086,20.51,10.502z"/>
		<path style="fill:#DE2110;" d="M20.164,4.156c-1.092,0.596,2.111,4.684,2.406,5.156C22.397,8.783,21.325,3.702,20.164,4.156z"/>
		<path style="fill:#DE2110;" d="M21.733,3.496c-1.143,0.497,1.682,4.856,1.932,5.354C23.539,8.304,22.93,3.148,21.733,3.496z"/>
	</g>
</g>
</svg>
