<?xml version="1.0" encoding="iso-8859-1"?>
<!-- Generator: Adobe Illustrator 18.1.1, SVG Export Plug-In . SVG Version: 6.00 Build 0)  -->
<svg version="1.1" id="Layer_17" xmlns="http://www.w3.org/2000/svg" xmlns:xlink="http://www.w3.org/1999/xlink" x="0px" y="0px"
	 viewBox="0 0 56.692 56.692" style="enable-background:new 0 0 56.692 56.692;" xml:space="preserve">
<g>
	<defs>
		<circle id="SVGID_1_" cx="28.346" cy="28.345" r="28.347"/>
	</defs>
	<clipPath id="SVGID_2_">
		<use xlink:href="#SVGID_1_"  style="overflow:visible;"/>
	</clipPath>
	<rect x="-13.323" y="0" style="clip-path:url(#SVGID_2_);fill:#FFFFFF;" width="85.039" height="56.693"/>
	<g style="clip-path:url(#SVGID_2_);">
		<rect x="29.197" y="0" style="fill:#CC0001;" width="42.52" height="4.051"/>
		<rect x="29.197" y="8.099" style="fill:#CC0001;" width="42.52" height="4.049"/>
		<rect x="29.197" y="16.199" style="fill:#CC0001;" width="42.52" height="4.049"/>
		<rect x="29.197" y="24.297" style="fill:#CC0001;" width="42.52" height="4.05"/>
		<rect x="-13.323" y="32.396" style="fill:#CC0001;" width="85.039" height="4.049"/>
		<rect x="-13.323" y="40.496" style="fill:#CC0001;" width="85.039" height="4.049"/>
		<rect x="-13.323" y="48.593" style="fill:#CC0001;" width="85.039" height="4.051"/>
	</g>
	<rect x="-13.323" y="0" style="clip-path:url(#SVGID_2_);fill:#010066;" width="42.52" height="32.385"/>
	<path style="clip-path:url(#SVGID_2_);fill:#FFCC00;" d="M14.61,24.849c-3.76,0-6.807-3.049-6.807-6.809s3.047-6.807,6.807-6.807
		c0.681,0,1.337,0.104,1.957,0.289c-1.151-0.695-2.495-1.103-3.938-1.103c-4.21,0-7.623,3.412-7.623,7.621
		c0,4.211,3.413,7.623,7.623,7.623c1.442,0,2.787-0.407,3.935-1.104C15.945,24.746,15.289,24.849,14.61,24.849z"/>
	<polygon style="clip-path:url(#SVGID_2_);fill:#FFCC00;" points="20.179,11.937 20.852,15.039 22.805,12.537 22.065,15.623 
		24.91,14.214 22.906,16.675 26.079,16.642 23.204,17.988 26.079,19.334 22.906,19.3 24.91,21.761 22.065,20.353 22.805,23.439 
		20.852,20.937 20.179,24.039 19.506,20.937 17.555,23.439 18.293,20.353 15.449,21.761 17.454,19.3 14.28,19.334 17.154,17.988 
		14.28,16.642 17.454,16.675 15.449,14.214 18.293,15.623 17.555,12.537 19.506,15.039 	"/>
</g>
</svg>
