<?xml version="1.0" encoding="utf-8"?>
<!-- Generator: Adobe Illustrator 18.1.1, SVG Export Plug-In . SVG Version: 6.00 Build 0)  -->
<!DOCTYPE svg PUBLIC "-//W3C//DTD SVG 1.1//EN" "http://www.w3.org/Graphics/SVG/1.1/DTD/svg11.dtd">
<svg version="1.1" id="Layer_179" xmlns="http://www.w3.org/2000/svg" xmlns:xlink="http://www.w3.org/1999/xlink" x="0px" y="0px"
	 width="56.7px" height="56.7px" viewBox="0 0 56.7 56.7" enable-background="new 0 0 56.7 56.7" xml:space="preserve">
<path fill="#FFFFFF" d="M25.6,19.5h29.7c-0.2-0.6-0.4-1.2-0.6-1.8H23.3L25.6,19.5z"/>
<path fill="#FFFFFF" d="M23.3,39h31.4c0.2-0.6,0.5-1.2,0.7-1.8H25.6L23.3,39z"/>
<path fill="#D21034" d="M9.5,7.2C3.7,12.4,0,19.9,0,28.3c0,8.4,3.7,15.9,9.5,21.1l27.7-21.1L9.5,7.2z"/>
<path fill="#007168" d="M23.3,17.7h31.4C50.4,7.3,40.2,0,28.3,0C21.1,0,14.5,2.7,9.5,7.2L23.3,17.7z"/>
<path fill="#FCE100" d="M54.6,39H23.3L9.5,49.5c5,4.5,11.6,7.2,18.9,7.2C40.2,56.7,50.4,49.4,54.6,39z"/>
<path d="M37.2,28.3l-11.6,8.8h29.7c0.9-2.8,1.4-5.7,1.4-8.8c0-3.1-0.5-6.1-1.4-8.9H25.6L37.2,28.3z"/>
<g>
	<path fill="#FCE100" d="M20.3,39l-6.9-5.1L6.5,39l2.7-8.1l-6.9-5l8.6,0l2.6-8.2l2.6,8.2l8.6,0l-6.9,5L20.3,39z"/>
	<path fill="#FFFFFF" stroke="#000000" stroke-width="0.1181" stroke-linecap="round" stroke-linejoin="round" d="M7.4,33.3h5
		c0.4,0.4,1.3,0.6,2.1,0c1.6-0.9,4.6,0,4.6,0l0.6-0.6l-1.4-4.8l-0.5-0.6c0,0-1.1-0.7-3.2-0.4c-2.1,0.2-2.9-0.1-2.9-0.1
		s-1.9,0.2-2.4,0.5c-0.1,0-0.6,0.6-0.6,0.6L7.4,33.3z"/>
	<path fill="none" stroke="#000000" stroke-width="0.1181" stroke-linecap="round" stroke-linejoin="round" d="M8.4,32.1
		c0,0,4.8-0.6,6.1,1.2c-0.8,0.5-1.5,0.6-2.2,0c0.1-0.2,1.7-1.9,5.8-1.3"/>
	<path stroke="#000000" stroke-width="0.1181" stroke-linecap="round" stroke-linejoin="round" d="M13.5,27.3l0,5.2 M17.7,27.4
		l0.9,4.2 M9.3,27.3l-0.5,2.1"/>
	<path stroke="#000000" stroke-width="0.1181" stroke-linecap="round" stroke-linejoin="round" d="M4.2,33.9l1.2,1.4
		c0.1,0.1,0.3,0.1,0.4,0l1.7-2.1l0.7-0.9c0.1-0.1,0.1-0.3,0.1-0.4l1.4-1.2c0.1,0,0.2,0,0.3,0c-0.1,0-0.2-0.1-0.1-0.2l0.3-0.2
		l0.2,0.3c0,0-0.3,0.5-0.4,0.5c0,0-0.4,0-0.4,0l-0.7,0.7l0.3,0.3l0.5,1.3l0.6-0.4L10,31.4l0.8-0.9L10.5,30l0.2-0.3
		c0,0,2.9,1.8,4,1.3c0,0,0.1-1.3,0.1-1.3s-3-0.3-3.1-0.9c-0.1-0.6,0.7-0.7,0.7-0.7L12,27.7l0.1-0.2l0.5,0.7l1.2-1l6.9,7.9
		c0.4-0.2,0.5-0.2,0.5-0.6c0,0-6.8-7.8-6.8-7.8l0.5-0.6c0.1-0.1,0.1-0.2,0.1-0.3l0.8-0.7c0.2,0.1,0.4,0.2,0.5,0.4l2.2-1.9
		c0.1,0.1,0.2,0.1,0.4,0.1l3.6-3.5l-4,2.8l-0.1-0.1c0-0.1,0.1-0.1,0-0.3c-0.2-0.2-0.4,0.2-0.4,0.2c0,0-0.6-0.2-0.7-0.4l0,0.6l-1,0.9
		l-0.8,0l-1.1,1.1l-0.1,0.4l0.2,0.3c0,0-0.6,0.5-0.6,0.5c0,0-0.1-0.2-0.1-0.2l0.5-0.5l0.1-0.3l-0.2-0.3c-0.1,0-0.7,0.7-0.7,0.6
		c-0.1-0.1-1.9-2.1-1.9-2.1l0.1-0.4l-1.2-1.3c-0.4-0.1-1.1-0.2-1.2,0.8c-0.1,0.2-1,0-1,0l-0.5,0.1L5,26.6l1.5,1.8l3.1-4l0.1-1.1
		l0.7,0.7c0.2,0,0.4,0,0.6-0.1l1.9,2.1l-0.3,0.3c0.1,0.1,0.2,0.2,0.3,0.3c0.1-0.1,0.2-0.2,0.3-0.2c0,0,0.1,0.1,0.1,0.2
		c-0.2,0.1-0.3,0.2-0.4,0.3c-0.2-0.2-0.5-0.4-0.5-0.7l-1,0.9l0,0.2l-3.1,2.6l-0.3,0l-0.1,0.8l2-1.7v-0.2l0.2,0.2l1.6-1.2
		c0,0,0.1,0.1,0.1,0.1c0,0-1.4,1.2-1.4,1.2l0,0.1l-0.2,0.2L10,29.3L8.1,31H7.8l-1,1c-0.3,0-0.5,0.1-0.7,0.2L4.2,33.9z"/>
</g>
</svg>
