<?xml version="1.0" encoding="iso-8859-1"?>
<!-- Generator: Adobe Illustrator 18.1.1, SVG Export Plug-In . SVG Version: 6.00 Build 0)  -->
<svg version="1.1" id="Layer_126" xmlns="http://www.w3.org/2000/svg" xmlns:xlink="http://www.w3.org/1999/xlink" x="0px" y="0px"
	 viewBox="0 0 56.692 56.692" style="enable-background:new 0 0 56.692 56.692;" xml:space="preserve">
<g>
	<defs>
		<circle id="SVGID_1_" cx="28.346" cy="28.347" r="28.347"/>
	</defs>
	<clipPath id="SVGID_2_">
		<use xlink:href="#SVGID_1_"  style="overflow:visible;"/>
	</clipPath>
	<g style="clip-path:url(#SVGID_2_);">
		<rect x="0" y="0.001" style="fill:#FFFFFF;" width="85.039" height="56.691"/>
		<polygon style="fill:#3C960A;" points="17.777,56.693 85.039,10.689 85.039,56.693 		"/>
		<polygon style="fill:#0A3C96;" points="67.262,0.001 0,46.003 0,0.001 		"/>
		<polygon style="fill:#DC2819;" points="73.047,0.001 0,49.851 0,56.693 11.721,56.693 85.039,6.525 85.039,0.001 		"/>
	</g>
	<g style="clip-path:url(#SVGID_2_);">
		<path style="fill:#FFDE00;" d="M22.072,18.593l1.824-0.713l2.24-0.875l-2.24-0.877l-1.822-0.709l1.231-1.519l1.514-1.869
			l-2.381,0.346l-2.018,0.299l0.297-2.019l0.35-2.379l-1.871,1.512l-1.521,1.232l-0.709-1.824l-0.877-2.24l-0.875,2.24l-0.711,1.822
			l-1.517-1.232l-1.871-1.512l0.348,2.379l0.297,2.02L9.74,12.375l-2.381-0.35l1.512,1.871l1.232,1.521l-1.824,0.711l-2.24,0.877
			l2.24,0.875l1.822,0.711l-1.233,1.517L7.355,21.98l2.381-0.35l2.02-0.295l-0.299,2.018l-0.35,2.381l1.871-1.514l1.522-1.23
			l0.713,1.824l0.875,2.24l0.877-2.24l0.709-1.822l1.52,1.231l1.869,1.514l-0.348-2.381l-0.299-2.017l2.019,0.297l2.381,0.35
			l-1.512-1.871L22.072,18.593z M16.086,22.986c-3.303,0-5.98-2.677-5.98-5.98c0-3.305,2.678-5.982,5.98-5.982
			c3.306,0,5.983,2.678,5.983,5.982C22.068,20.309,19.392,22.986,16.086,22.986z M20.867,17.005c0,2.639-2.141,4.779-4.781,4.779
			c-2.639,0-4.779-2.141-4.779-4.779c0-2.641,2.141-4.78,4.779-4.78C18.727,12.225,20.867,14.365,20.867,17.005z"/>
	</g>
</g>
</svg>
