<?xml version="1.0" encoding="iso-8859-1"?>
<!-- Generator: Adobe Illustrator 18.1.1, SVG Export Plug-In . SVG Version: 6.00 Build 0)  -->
<svg version="1.1" id="Layer_179" xmlns="http://www.w3.org/2000/svg" xmlns:xlink="http://www.w3.org/1999/xlink" x="0px" y="0px"
	 viewBox="0 0 56.692 56.692" style="enable-background:new 0 0 56.692 56.692;" xml:space="preserve">
<g>
	<defs>
		<circle id="SVGID_1_" cx="28.346" cy="28.347" r="28.346"/>
	</defs>
	<clipPath id="SVGID_2_">
		<use xlink:href="#SVGID_1_"  style="overflow:visible;"/>
	</clipPath>
	<g style="clip-path:url(#SVGID_2_);">
		<rect x="-13.873" y="-0.18" style="fill:#009543;" width="113.746" height="56.873"/>
		<rect x="-13.873" y="-0.18" style="fill:#ED4135;" width="113.746" height="37.915"/>
		<rect x="-13.873" y="-0.18" style="fill:#0035AD;" width="113.746" height="18.958"/>
		<circle style="fill:#FAE600;stroke:#000000;stroke-width:0.6319;" cx="24.042" cy="28.256" r="18.639"/>
		<path style="stroke:#000000;stroke-width:0.7583;" d="M20.883,31.037h6.319 M20.883,26.361h6.319 M24.042,9.678v31.849"/>
		<path d="M16.538,45.371c7.607,3.107,14.737,0.191,14.737,0.191s-2.692-2.913-4.071-4.05c-1.346-1.109-5.307-1.066-6.659,0
			C19.417,42.401,16.182,45.679,16.538,45.371z"/>
		<ellipse cx="24.042" cy="36.851" rx="2.085" ry="3.033"/>
		<ellipse cx="24.042" cy="28.699" rx="2.528" ry="1.6"/>
		<ellipse cx="24.042" cy="21.305" rx="2.528" ry="2.528"/>
		<path d="M27.076,11.89c-0.001-0.002,0.219,0.363-0.242,1.193c-2.202,3.966-4.412,4.052-4.832,4.394
			c-0.462,0.376-0.657,0.351-0.657,0.351c0.033-0.34,0.064-1.729,0.088-1.863c0.334-1.853,3.134-1.828,5.325-3.725
			c0.342-0.296,0.318-0.351,0.318-0.351L27.076,11.89z"/>
		<g id="leaf">
			<path d="M19.682,20.421c0,0,0.495,1.419,0.569,2.844c0.118,2.274,2.298,2.338,3.792,2.338v-1.264
				c-1.12,0-2.092-0.166-2.907-1.833C20.734,21.684,19.682,20.421,19.682,20.421z"/>
			<path d="M19.619,38.746c0,0,0.796-0.981,1.727-3.283c0.486-1.201,1.637-1.899,2.697-1.899v-1.769
				c-2.405,0-3.558,0.892-3.679,2.194C20.113,36.666,19.619,38.746,19.619,38.746z"/>
		</g>
		<g transform="translate(600,0)scale(-1,1)">
			<g id="leaf_1_">
				<path d="M28.403,20.421c0,0-0.495,1.419-0.569,2.844c-0.118,2.274-2.298,2.338-3.792,2.338v-1.264
					c1.12,0,2.092-0.166,2.907-1.833C27.351,21.684,28.403,20.421,28.403,20.421z"/>
				<path d="M28.466,38.746c0,0-0.796-0.981-1.727-3.283c-0.486-1.201-1.637-1.899-2.697-1.899v-1.769
					c2.405,0,3.558,0.892,3.679,2.194C27.972,36.666,28.466,38.746,28.466,38.746z"/>
			</g>
		</g>
	</g>
</g>
</svg>
