<?xml version="1.0" encoding="iso-8859-1"?>
<!-- Generator: Adobe Illustrator 18.1.1, SVG Export Plug-In . SVG Version: 6.00 Build 0)  -->
<svg version="1.1" id="Layer_2" xmlns="http://www.w3.org/2000/svg" xmlns:xlink="http://www.w3.org/1999/xlink" x="0px" y="0px"
	 viewBox="0 0 56.692 56.692" style="enable-background:new 0 0 56.692 56.692;" xml:space="preserve">
<g>
	<defs>
		<circle id="SVGID_1_" cx="28.346" cy="28.347" r="28.347"/>
	</defs>
	<clipPath id="SVGID_2_">
		<use xlink:href="#SVGID_1_"  style="overflow:visible;"/>
	</clipPath>
	<circle style="clip-path:url(#SVGID_2_);fill:#FFFFFF;" cx="28.346" cy="28.347" r="28.347"/>
	<polygon style="clip-path:url(#SVGID_2_);fill:#003893;" points="7.959,0 7.959,56.673 52.747,56.693 25.162,29.116 54.427,29.095 
			"/>
	<polygon style="clip-path:url(#SVGID_2_);fill:#DC143C;" points="9.658,54.974 9.658,3.072 48.468,27.377 21.062,27.421 
		48.64,54.992 	"/>
	<polygon style="clip-path:url(#SVGID_2_);fill:#FFFFFF;" points="19.426,32.903 20.853,35.88 23.576,34.015 23.322,37.308 
		26.615,37.054 24.748,39.777 27.726,41.205 24.748,42.63 26.615,45.355 23.322,45.101 23.576,48.392 20.853,46.527 19.426,49.505 
		17.998,46.527 15.275,48.392 15.529,45.101 12.236,45.355 14.102,42.63 11.125,41.205 14.102,39.777 12.236,37.054 15.529,37.308 
		15.275,34.015 17.998,35.88 	"/>
	<path style="clip-path:url(#SVGID_2_);fill:#FFFFFF;" d="M27.088,18.154c-0.572,1.789-1.818,3.282-3.44,4.262l-0.758-0.586
		l1.27-0.947l-1.531-0.414l0.811-1.363l-1.572,0.203l0.227-1.567l-1.375,0.79l-0.391-1.536l-0.967,1.255l-0.951-1.271l-0.412,1.533
		l-1.363-0.809l0.205,1.572l-1.572-0.227l0.791,1.375l-1.535,0.391l1.256,0.967l-0.797,0.596c-1.588-0.979-2.809-2.455-3.375-4.221
		c0,0.043-0.006,0.084-0.006,0.127c0,4.28,3.469,7.748,7.746,7.748c4.279,0,7.748-3.468,7.748-7.748
		C27.096,18.238,27.09,18.197,27.088,18.154z"/>
</g>
</svg>
