<?xml version="1.0" encoding="iso-8859-1"?>
<!-- Generator: Adobe Illustrator 18.1.1, SVG Export Plug-In . SVG Version: 6.00 Build 0)  -->
<svg version="1.1" id="Layer_122" xmlns="http://www.w3.org/2000/svg" xmlns:xlink="http://www.w3.org/1999/xlink" x="0px" y="0px"
	 viewBox="0 0 56.692 56.692" style="enable-background:new 0 0 56.692 56.692;" xml:space="preserve">
<g>
	<defs>
		<circle id="SVGID_1_" cx="28.346" cy="28.347" r="28.347"/>
	</defs>
	<clipPath id="SVGID_2_">
		<use xlink:href="#SVGID_1_"  style="overflow:visible;"/>
	</clipPath>
	<rect x="-9.771" y="0" style="clip-path:url(#SVGID_2_);fill:#002B7F;" width="85.039" height="56.693"/>
	<rect x="-9.771" y="26.035" style="clip-path:url(#SVGID_2_);fill:#FFC61E;" width="85.039" height="4.623"/>
	<polygon style="clip-path:url(#SVGID_2_);fill:#FFFFFF;" points="15.454,30.767 16.713,35.447 20.143,32.025 18.895,36.707 
		23.58,35.459 20.157,38.888 24.834,40.148 20.157,41.408 23.58,44.838 18.895,43.589 20.143,48.271 16.713,44.849 15.454,49.529 
		14.196,44.849 10.764,48.271 12.012,43.589 7.331,44.838 10.752,41.408 6.075,40.148 10.752,38.888 7.331,35.459 12.012,36.707 
		10.764,32.025 14.196,35.447 	"/>
</g>
</svg>
