<?xml version="1.0" encoding="iso-8859-1"?>
<!-- Generator: Adobe Illustrator 18.1.1, SVG Export Plug-In . SVG Version: 6.00 Build 0)  -->
<svg version="1.1" id="Layer_45" xmlns="http://www.w3.org/2000/svg" xmlns:xlink="http://www.w3.org/1999/xlink" x="0px" y="0px"
	 viewBox="0 0 56.692 56.692" style="enable-background:new 0 0 56.692 56.692;" xml:space="preserve">
<g>
	<defs>
		<circle id="SVGID_1_" cx="28.346" cy="28.345" r="28.347"/>
	</defs>
	<clipPath id="SVGID_2_">
		<use xlink:href="#SVGID_1_"  style="overflow:visible;"/>
	</clipPath>
	<rect x="-14.172" y="0" style="clip-path:url(#SVGID_2_);fill:#FCD116;" width="85.039" height="56.693"/>
	<g style="clip-path:url(#SVGID_2_);">
		<rect x="-14.172" y="0" style="fill:#002868;" width="44.354" height="26.539"/>
		<g>
			<polygon style="fill:#FFFFFF;" points="30.181,0 24.246,0 12.333,7.257 12.333,0 3.501,0 3.501,7.255 -8.401,0 -14.172,0 
				-14.172,3.122 -4.774,8.852 -14.172,8.852 -14.172,17.683 -4.78,17.683 -14.172,23.408 -14.172,26.539 -8.411,26.539 
				3.501,19.279 3.501,26.539 12.333,26.539 12.333,19.28 24.236,26.539 30.181,26.539 30.181,23.521 20.609,17.683 30.181,17.683 
				30.181,8.852 20.615,8.852 30.181,3.025 			"/>
			<g>
				<g>
					<polygon style="fill:#CF142B;" points="0.623,8.852 -13.899,0 -14.172,0 -14.172,1.872 -2.723,8.852 					"/>
				</g>
				<g>
					<polygon style="fill:#CF142B;" points="15.291,8.852 30.095,0 26.703,0 11.898,8.852 					"/>
				</g>
				<g>
					<path style="fill:#CF142B;" d="M10.64,10.525V0H5.359v10.525h-19.531c0,0,0.01,5.221,0.025,5.279l19.506,0.012v10.723h5.281
						V15.816v-0.012h19.541v-5.279H10.64z"/>
				</g>
				<g>
					<polygon style="fill:#CF142B;" points="14.902,17.485 29.748,26.539 30.181,26.539 30.181,24.76 18.249,17.485 					"/>
				</g>
				<g>
					<polygon style="fill:#CF142B;" points="0.796,17.485 -14.172,26.439 -14.172,26.539 -10.944,26.539 4.191,17.485 					"/>
				</g>
			</g>
		</g>
		<g>
			<g>
				<circle style="fill:#002868;" cx="8.016" cy="13.267" r="4.231"/>
				<polygon style="fill:#FCD116;" points="8.005,9.155 8.958,11.966 12.041,11.966 9.541,13.796 10.464,16.585 8.005,14.926 
					5.546,16.585 6.47,13.796 3.992,11.966 7.074,11.966 				"/>
			</g>
			<polygon style="fill:#FCD116;" points="22.65,10.976 23.236,12.705 25.132,12.705 23.593,13.83 24.164,15.546 22.65,14.526 
				21.138,15.546 21.707,13.83 20.181,12.705 22.078,12.705 			"/>
			<polygon style="fill:#FCD116;" points="-6.657,10.976 -6.069,12.705 -4.174,12.705 -5.713,13.83 -5.143,15.546 -6.657,14.526 
				-8.168,15.546 -7.602,13.83 -9.126,12.705 -7.229,12.705 			"/>
			<polygon style="fill:#FCD116;" points="8.009,2.587 8.597,4.316 10.492,4.316 8.955,5.441 9.523,7.155 8.009,6.135 6.496,7.155 
				7.066,5.441 5.541,4.316 7.437,4.316 			"/>
			<polygon style="fill:#FCD116;" points="8.009,19.38 8.597,21.109 10.492,21.109 8.955,22.234 9.523,23.948 8.009,22.929 
				6.496,23.948 7.066,22.234 5.541,21.109 7.437,21.109 			"/>
		</g>
	</g>
</g>
</svg>
