<?xml version="1.0" encoding="iso-8859-1"?>
<!-- Generator: Adobe Illustrator 18.1.1, SVG Export Plug-In . SVG Version: 6.00 Build 0)  -->
<svg version="1.1" id="Layer_23" xmlns="http://www.w3.org/2000/svg" xmlns:xlink="http://www.w3.org/1999/xlink" x="0px" y="0px"
	 viewBox="0 0 56.692 56.692" style="enable-background:new 0 0 56.692 56.692;" xml:space="preserve">
<g>
	<defs>
		<circle id="SVGID_1_" cx="28.346" cy="28.345" r="28.347"/>
	</defs>
	<clipPath id="SVGID_2_">
		<use xlink:href="#SVGID_1_"  style="overflow:visible;"/>
	</clipPath>
	<rect x="-14.173" y="0" style="clip-path:url(#SVGID_2_);fill:#000066;" width="85.04" height="56.693"/>
	<g style="clip-path:url(#SVGID_2_);">
		<polygon style="fill:#FFFFFF;" points="28.347,0 22.656,0 11.238,7.754 11.238,0 2.77,0 2.77,7.752 -8.641,0 -14.173,0 
			-14.173,3.337 -5.163,9.459 -14.173,9.459 -14.173,18.89 -5.169,18.89 -14.173,25.004 -14.173,28.347 -8.649,28.347 2.77,20.593 
			2.77,28.347 11.238,28.347 11.238,20.597 22.647,28.347 28.347,28.347 28.347,25.125 19.169,18.89 28.347,18.89 28.347,9.459 
			19.175,9.459 28.347,3.232 		"/>
		<g>
			<polygon style="fill:#CC0000;" points="0.011,9.459 -13.911,0 -14.173,0 -14.173,2.001 -3.198,9.459 			"/>
			<polygon style="fill:#CC0000;" points="14.072,9.459 28.264,0 25.012,0 10.819,9.459 			"/>
			<path style="fill:#CC0000;" d="M9.615,11.242V0H4.55v11.242h-18.724c0,0,0.01,5.578,0.024,5.641L4.55,16.894v11.453h5.064V16.894
				v-0.012h18.732v-5.641H9.615z"/>
			<polygon style="fill:#CC0000;" points="13.699,18.679 27.931,28.347 28.347,28.347 28.347,26.449 16.907,18.679 			"/>
			<polygon style="fill:#CC0000;" points="0.177,18.679 -14.173,28.24 -14.173,28.347 -11.078,28.347 3.431,18.679 			"/>
		</g>
	</g>
	<g style="clip-path:url(#SVGID_2_);">
		<polygon style="fill:#FFFFFF;" points="49.408,6.837 50.454,9.925 53.838,9.925 51.094,11.933 52.109,14.994 49.41,13.175 
			46.707,14.994 47.724,11.933 45.001,9.925 48.387,9.925 		"/>
		<polygon style="fill:#CC0000;" points="48.325,11.742 46.553,10.435 48.756,10.435 49.413,8.447 50.087,10.435 52.276,10.435 
			50.493,11.74 51.154,13.736 49.41,12.56 47.663,13.736 		"/>
	</g>
	<g style="clip-path:url(#SVGID_2_);">
		<polygon style="fill:#FFFFFF;" points="60.657,17.087 61.593,19.854 64.623,19.854 62.167,21.65 63.076,24.39 60.659,22.761 
			58.239,24.39 59.149,21.65 56.711,19.854 59.743,19.854 		"/>
		<polygon style="fill:#CC0000;" points="59.688,21.479 58.101,20.31 60.074,20.31 60.662,18.529 61.266,20.31 63.225,20.31 
			61.627,21.479 62.219,23.263 60.659,22.211 59.095,23.263 		"/>
	</g>
	<g style="clip-path:url(#SVGID_2_);">
		<polygon style="fill:#FFFFFF;" points="36.316,20.152 37.333,23.158 40.627,23.158 37.957,25.111 38.945,28.091 36.318,26.32 
			33.687,28.091 34.676,25.111 32.027,23.158 35.322,23.158 		"/>
		<polygon style="fill:#CC0000;" points="35.262,24.925 33.538,23.654 35.681,23.654 36.321,21.718 36.978,23.654 39.107,23.654 
			37.371,24.923 38.014,26.867 36.318,25.722 34.619,26.867 		"/>
	</g>
	<g style="clip-path:url(#SVGID_2_);">
		<polygon style="fill:#FFFFFF;" points="49.499,40.39 50.657,43.802 54.397,43.802 51.363,46.021 52.486,49.404 49.501,47.394 
			46.515,49.404 47.637,46.021 44.629,43.802 48.372,43.802 		"/>
		<polygon style="fill:#CC0000;" points="48.238,45.832 46.18,44.313 48.742,44.313 49.506,41.998 50.29,44.313 52.835,44.313 
			50.761,45.83 51.53,48.147 49.501,46.779 47.47,48.147 		"/>
	</g>
</g>
</svg>
