<?xml version="1.0" encoding="iso-8859-1"?>
<!-- Generator: Adobe Illustrator 18.1.1, SVG Export Plug-In . SVG Version: 6.00 Build 0)  -->
<svg version="1.1" id="Layer_179" xmlns="http://www.w3.org/2000/svg" xmlns:xlink="http://www.w3.org/1999/xlink" x="0px" y="0px"
	 viewBox="0 0 56.692 56.692" style="enable-background:new 0 0 56.692 56.692;" xml:space="preserve">
<g>
	<defs>
		<circle id="SVGID_1_" cx="28.346" cy="28.347" r="28.346"/>
	</defs>
	<clipPath id="SVGID_2_">
		<use xlink:href="#SVGID_1_"  style="overflow:visible;"/>
	</clipPath>
	<g style="clip-path:url(#SVGID_2_);">
		<rect x="-0.18" y="-0.18" style="fill:#DB161B;" width="113.745" height="56.872"/>
		<rect x="28.256" y="-0.18" style="fill:#FFFFFF;" width="85.309" height="18.957"/>
		<rect x="28.256" y="37.735" style="fill:#008000;" width="85.309" height="18.957"/>
		<g id="a">
			<path style="fill:#FFFFFF;stroke:#DB161B;stroke-width:0.0537;" d="M6.367,9.549h3.056c0.168,0,0.305,0.128,0.305,0.286v1.439
				c0,0.158-0.136,0.286-0.305,0.286H6.367c-0.168,0-0.305-0.128-0.305-0.286V9.835C6.062,9.677,6.198,9.549,6.367,9.549z"/>
			<path style="fill:#FFFFFF;stroke:#DB161B;stroke-width:0.0501;" d="M6.445,9.632h2.899c0.16,0,0.289,0.117,0.289,0.262v1.32
				c0,0.145-0.129,0.262-0.289,0.262H6.445c-0.16,0-0.289-0.117-0.289-0.262v-1.32C6.156,9.75,6.286,9.632,6.445,9.632z"/>
			<path style="fill:#FFFFFF;stroke:#DB161B;stroke-width:0.0316;" d="M7.773,10.136l0.176,0.006l0.008,0.08L8.1,10.294l0.112-0.091
				l0.136,0.073l-0.128,0.08l0.032,0.11l0.16-0.006v0.147L8.284,10.6L8.22,10.692l0.144,0.104l-0.112,0.085l-0.12-0.092
				l-0.176,0.037l0.008,0.135l-0.192,0.012l-0.024-0.129l-0.16-0.067l-0.088,0.092l-0.136-0.067l0.08-0.104L7.35,10.63H7.214
				l-0.008-0.19l0.136,0.012l0.096-0.11l-0.112-0.085l0.144-0.099l0.104,0.08l0.176-0.024L7.773,10.136z"/>
			<ellipse style="fill:#FFFFFF;stroke:#DB161B;stroke-width:0.1896;" cx="7.826" cy="10.533" rx="0.193" ry="0.165"/>
			<path style="fill:#FFFFFF;stroke:#DB161B;stroke-width:0.0501;" d="M6.626,9.717L6.344,9.968"/>
			<path style="fill:#FFFFFF;stroke:#DB161B;stroke-width:0.0501;" d="M6.814,9.717L6.532,9.968"/>
			<path style="fill:#FFFFFF;stroke:#DB161B;stroke-width:0.0501;" d="M7.002,9.717L6.72,9.968"/>
			<path style="fill:#FFFFFF;stroke:#DB161B;stroke-width:0.0501;" d="M7.19,9.717L6.908,9.968"/>
			<path style="fill:#FFFFFF;stroke:#DB161B;stroke-width:0.0501;" d="M7.378,9.717L7.096,9.968"/>
			<path style="fill:#FFFFFF;stroke:#DB161B;stroke-width:0.0501;" d="M7.566,9.717L7.284,9.968"/>
			<path style="fill:#FFFFFF;stroke:#DB161B;stroke-width:0.0501;" d="M7.754,9.717L7.472,9.968"/>
			<path style="fill:#FFFFFF;stroke:#DB161B;stroke-width:0.0501;" d="M7.942,9.717L7.66,9.968"/>
			<path style="fill:#FFFFFF;stroke:#DB161B;stroke-width:0.0501;" d="M8.13,9.717L7.848,9.968"/>
			<path style="fill:#FFFFFF;stroke:#DB161B;stroke-width:0.0501;" d="M8.318,9.717L8.036,9.968"/>
			<path style="fill:#FFFFFF;stroke:#DB161B;stroke-width:0.0501;" d="M8.506,9.717L8.224,9.968"/>
			<path style="fill:#FFFFFF;stroke:#DB161B;stroke-width:0.0501;" d="M8.694,9.717L8.412,9.968"/>
			<path style="fill:#FFFFFF;stroke:#DB161B;stroke-width:0.0501;" d="M7.942,9.717L7.66,9.968"/>
			<path style="fill:#FFFFFF;stroke:#DB161B;stroke-width:0.0501;" d="M8.882,9.717L8.6,9.968"/>
			<path style="fill:#FFFFFF;stroke:#DB161B;stroke-width:0.0501;" d="M9.07,9.717L8.788,9.968"/>
			<path style="fill:#FFFFFF;stroke:#DB161B;stroke-width:0.0501;" d="M9.257,9.717L8.975,9.968"/>
			<path style="fill:#FFFFFF;stroke:#DB161B;stroke-width:0.0501;" d="M9.446,9.717L9.163,9.968"/>
			<path style="fill:#FFFFFF;stroke:#DB161B;stroke-width:0.0501;" d="M9.163,9.717l0.282,0.251"/>
			<path style="fill:#FFFFFF;stroke:#DB161B;stroke-width:0.0501;" d="M8.975,9.717l0.282,0.251"/>
			<path style="fill:#FFFFFF;stroke:#DB161B;stroke-width:0.0501;" d="M8.788,9.717L9.07,9.968"/>
			<path style="fill:#FFFFFF;stroke:#DB161B;stroke-width:0.0501;" d="M8.6,9.717l0.282,0.251"/>
			<path style="fill:#FFFFFF;stroke:#DB161B;stroke-width:0.0501;" d="M8.412,9.717l0.282,0.251"/>
			<path style="fill:#FFFFFF;stroke:#DB161B;stroke-width:0.0501;" d="M8.224,9.717l0.282,0.251"/>
			<path style="fill:#FFFFFF;stroke:#DB161B;stroke-width:0.0501;" d="M8.036,9.717l0.282,0.251"/>
			<path style="fill:#FFFFFF;stroke:#DB161B;stroke-width:0.0501;" d="M7.848,9.717L8.13,9.968"/>
			<path style="fill:#FFFFFF;stroke:#DB161B;stroke-width:0.0501;" d="M7.66,9.717l0.282,0.251"/>
			<path style="fill:#FFFFFF;stroke:#DB161B;stroke-width:0.0501;" d="M7.472,9.717l0.282,0.251"/>
			<path style="fill:#FFFFFF;stroke:#DB161B;stroke-width:0.0501;" d="M7.284,9.717l0.282,0.251"/>
			<path style="fill:#FFFFFF;stroke:#DB161B;stroke-width:0.0501;" d="M7.096,9.717l0.282,0.251"/>
			<path style="fill:#FFFFFF;stroke:#DB161B;stroke-width:0.0501;" d="M7.848,9.717L8.13,9.968"/>
			<path style="fill:#FFFFFF;stroke:#DB161B;stroke-width:0.0501;" d="M6.908,9.717L7.19,9.968"/>
			<path style="fill:#FFFFFF;stroke:#DB161B;stroke-width:0.0501;" d="M6.72,9.717l0.282,0.251"/>
			<path style="fill:#FFFFFF;stroke:#DB161B;stroke-width:0.0501;" d="M6.532,9.717l0.282,0.251"/>
			<path style="fill:#FFFFFF;stroke:#DB161B;stroke-width:0.0501;" d="M6.344,9.717l0.282,0.251"/>
			<path style="fill:#FFFFFF;stroke:#DB161B;stroke-width:0.0501;" d="M6.626,11.14l-0.282,0.252"/>
			<path style="fill:#FFFFFF;stroke:#DB161B;stroke-width:0.0501;" d="M6.814,11.14l-0.282,0.252"/>
			<path style="fill:#FFFFFF;stroke:#DB161B;stroke-width:0.0501;" d="M7.002,11.14L6.72,11.393"/>
			<path style="fill:#FFFFFF;stroke:#DB161B;stroke-width:0.0501;" d="M7.19,11.14l-0.282,0.252"/>
			<path style="fill:#FFFFFF;stroke:#DB161B;stroke-width:0.0501;" d="M7.378,11.14l-0.282,0.252"/>
			<path style="fill:#FFFFFF;stroke:#DB161B;stroke-width:0.0501;" d="M7.566,11.14l-0.282,0.252"/>
			<path style="fill:#FFFFFF;stroke:#DB161B;stroke-width:0.0501;" d="M7.754,11.14l-0.282,0.252"/>
			<path style="fill:#FFFFFF;stroke:#DB161B;stroke-width:0.0501;" d="M7.942,11.14L7.66,11.393"/>
			<path style="fill:#FFFFFF;stroke:#DB161B;stroke-width:0.0501;" d="M8.13,11.14l-0.282,0.252"/>
			<path style="fill:#FFFFFF;stroke:#DB161B;stroke-width:0.0501;" d="M8.318,11.14l-0.282,0.252"/>
			<path style="fill:#FFFFFF;stroke:#DB161B;stroke-width:0.0501;" d="M8.506,11.14l-0.282,0.252"/>
			<path style="fill:#FFFFFF;stroke:#DB161B;stroke-width:0.0501;" d="M8.694,11.14l-0.282,0.252"/>
			<path style="fill:#FFFFFF;stroke:#DB161B;stroke-width:0.0501;" d="M7.942,11.14L7.66,11.393"/>
			<path style="fill:#FFFFFF;stroke:#DB161B;stroke-width:0.0501;" d="M8.882,11.14L8.6,11.393"/>
			<path style="fill:#FFFFFF;stroke:#DB161B;stroke-width:0.0501;" d="M9.07,11.14l-0.282,0.252"/>
			<path style="fill:#FFFFFF;stroke:#DB161B;stroke-width:0.0501;" d="M9.257,11.14l-0.282,0.252"/>
			<path style="fill:#FFFFFF;stroke:#DB161B;stroke-width:0.0501;" d="M9.446,11.14l-0.282,0.252"/>
			<path style="fill:#FFFFFF;stroke:#DB161B;stroke-width:0.0501;" d="M9.163,11.14l0.282,0.252"/>
			<path style="fill:#FFFFFF;stroke:#DB161B;stroke-width:0.0501;" d="M8.975,11.14l0.282,0.252"/>
			<path style="fill:#FFFFFF;stroke:#DB161B;stroke-width:0.0501;" d="M8.788,11.14l0.282,0.252"/>
			<path style="fill:#FFFFFF;stroke:#DB161B;stroke-width:0.0501;" d="M8.6,11.14l0.282,0.252"/>
			<path style="fill:#FFFFFF;stroke:#DB161B;stroke-width:0.0501;" d="M8.412,11.14l0.282,0.252"/>
			<path style="fill:#FFFFFF;stroke:#DB161B;stroke-width:0.0501;" d="M8.224,11.14l0.282,0.252"/>
			<path style="fill:#FFFFFF;stroke:#DB161B;stroke-width:0.0501;" d="M8.036,11.14l0.282,0.252"/>
			<path style="fill:#FFFFFF;stroke:#DB161B;stroke-width:0.0501;" d="M7.848,11.14l0.282,0.252"/>
			<path style="fill:#FFFFFF;stroke:#DB161B;stroke-width:0.0501;" d="M7.66,11.14l0.282,0.252"/>
			<path style="fill:#FFFFFF;stroke:#DB161B;stroke-width:0.0501;" d="M7.472,11.14l0.282,0.252"/>
			<path style="fill:#FFFFFF;stroke:#DB161B;stroke-width:0.0501;" d="M7.284,11.14l0.282,0.252"/>
			<path style="fill:#FFFFFF;stroke:#DB161B;stroke-width:0.0501;" d="M7.096,11.14l0.282,0.252"/>
			<path style="fill:#FFFFFF;stroke:#DB161B;stroke-width:0.0501;" d="M7.848,11.14l0.282,0.252"/>
			<path style="fill:#FFFFFF;stroke:#DB161B;stroke-width:0.0501;" d="M6.908,11.14l0.282,0.252"/>
			<path style="fill:#FFFFFF;stroke:#DB161B;stroke-width:0.0501;" d="M6.72,11.14l0.282,0.252"/>
			<path style="fill:#FFFFFF;stroke:#DB161B;stroke-width:0.0501;" d="M6.532,11.14l0.282,0.252"/>
			<path style="fill:#FFFFFF;stroke:#DB161B;stroke-width:0.0501;" d="M6.344,11.14l0.282,0.252"/>
		</g>
		<g transform="scale(-1,1)">
			<g id="a_1_">
				<path style="fill:#FFFFFF;stroke:#DB161B;stroke-width:0.0537;" d="M21.709,9.549h-3.056c-0.168,0-0.305,0.128-0.305,0.286
					v1.439c0,0.158,0.136,0.286,0.305,0.286h3.056c0.168,0,0.305-0.128,0.305-0.286V9.835C22.014,9.677,21.878,9.549,21.709,9.549z"
					/>
				<path style="fill:#FFFFFF;stroke:#DB161B;stroke-width:0.0501;" d="M21.631,9.632h-2.899c-0.16,0-0.289,0.117-0.289,0.262v1.32
					c0,0.145,0.129,0.262,0.289,0.262h2.899c0.16,0,0.289-0.117,0.289-0.262v-1.32C21.92,9.75,21.79,9.632,21.631,9.632z"/>
				<path style="fill:#FFFFFF;stroke:#DB161B;stroke-width:0.0316;" d="M20.303,10.136l-0.176,0.006l-0.008,0.08l-0.144,0.073
					l-0.112-0.091l-0.136,0.073l0.128,0.08l-0.032,0.11l-0.16-0.006v0.147l0.128-0.007l0.064,0.092l-0.144,0.104l0.112,0.085
					l0.12-0.092l0.176,0.037l-0.008,0.135l0.192,0.012l0.024-0.129l0.16-0.067l0.088,0.092l0.136-0.067l-0.08-0.104l0.096-0.067
					h0.136l0.008-0.19l-0.136,0.012l-0.096-0.11l0.112-0.085l-0.144-0.099l-0.104,0.08l-0.176-0.024L20.303,10.136z"/>
				<ellipse style="fill:#FFFFFF;stroke:#DB161B;stroke-width:0.1896;" cx="20.25" cy="10.533" rx="0.193" ry="0.165"/>
				<path style="fill:#FFFFFF;stroke:#DB161B;stroke-width:0.0501;" d="M21.45,9.717l0.282,0.251"/>
				<path style="fill:#FFFFFF;stroke:#DB161B;stroke-width:0.0501;" d="M21.262,9.717l0.282,0.251"/>
				<path style="fill:#FFFFFF;stroke:#DB161B;stroke-width:0.0501;" d="M21.074,9.717l0.282,0.251"/>
				<path style="fill:#FFFFFF;stroke:#DB161B;stroke-width:0.0501;" d="M20.886,9.717l0.282,0.251"/>
				<path style="fill:#FFFFFF;stroke:#DB161B;stroke-width:0.0501;" d="M20.698,9.717l0.282,0.251"/>
				<path style="fill:#FFFFFF;stroke:#DB161B;stroke-width:0.0501;" d="M20.51,9.717l0.282,0.251"/>
				<path style="fill:#FFFFFF;stroke:#DB161B;stroke-width:0.0501;" d="M20.322,9.717l0.282,0.251"/>
				<path style="fill:#FFFFFF;stroke:#DB161B;stroke-width:0.0501;" d="M20.134,9.717l0.282,0.251"/>
				<path style="fill:#FFFFFF;stroke:#DB161B;stroke-width:0.0501;" d="M19.946,9.717l0.282,0.251"/>
				<path style="fill:#FFFFFF;stroke:#DB161B;stroke-width:0.0501;" d="M19.758,9.717l0.282,0.251"/>
				<path style="fill:#FFFFFF;stroke:#DB161B;stroke-width:0.0501;" d="M19.57,9.717l0.282,0.251"/>
				<path style="fill:#FFFFFF;stroke:#DB161B;stroke-width:0.0501;" d="M19.382,9.717l0.282,0.251"/>
				<path style="fill:#FFFFFF;stroke:#DB161B;stroke-width:0.0501;" d="M20.134,9.717l0.282,0.251"/>
				<path style="fill:#FFFFFF;stroke:#DB161B;stroke-width:0.0501;" d="M19.194,9.717l0.282,0.251"/>
				<path style="fill:#FFFFFF;stroke:#DB161B;stroke-width:0.0501;" d="M19.006,9.717l0.282,0.251"/>
				<path style="fill:#FFFFFF;stroke:#DB161B;stroke-width:0.0501;" d="M18.818,9.717L19.1,9.968"/>
				<path style="fill:#FFFFFF;stroke:#DB161B;stroke-width:0.0501;" d="M18.63,9.717l0.282,0.251"/>
				<path style="fill:#FFFFFF;stroke:#DB161B;stroke-width:0.0501;" d="M18.913,9.717L18.63,9.968"/>
				<path style="fill:#FFFFFF;stroke:#DB161B;stroke-width:0.0501;" d="M19.1,9.717l-0.282,0.251"/>
				<path style="fill:#FFFFFF;stroke:#DB161B;stroke-width:0.0501;" d="M19.288,9.717l-0.282,0.251"/>
				<path style="fill:#FFFFFF;stroke:#DB161B;stroke-width:0.0501;" d="M19.476,9.717l-0.282,0.251"/>
				<path style="fill:#FFFFFF;stroke:#DB161B;stroke-width:0.0501;" d="M19.664,9.717l-0.282,0.251"/>
				<path style="fill:#FFFFFF;stroke:#DB161B;stroke-width:0.0501;" d="M19.852,9.717L19.57,9.968"/>
				<path style="fill:#FFFFFF;stroke:#DB161B;stroke-width:0.0501;" d="M20.04,9.717l-0.282,0.251"/>
				<path style="fill:#FFFFFF;stroke:#DB161B;stroke-width:0.0501;" d="M20.228,9.717l-0.282,0.251"/>
				<path style="fill:#FFFFFF;stroke:#DB161B;stroke-width:0.0501;" d="M20.416,9.717l-0.282,0.251"/>
				<path style="fill:#FFFFFF;stroke:#DB161B;stroke-width:0.0501;" d="M20.604,9.717l-0.282,0.251"/>
				<path style="fill:#FFFFFF;stroke:#DB161B;stroke-width:0.0501;" d="M20.792,9.717L20.51,9.968"/>
				<path style="fill:#FFFFFF;stroke:#DB161B;stroke-width:0.0501;" d="M20.98,9.717l-0.282,0.251"/>
				<path style="fill:#FFFFFF;stroke:#DB161B;stroke-width:0.0501;" d="M20.228,9.717l-0.282,0.251"/>
				<path style="fill:#FFFFFF;stroke:#DB161B;stroke-width:0.0501;" d="M21.168,9.717l-0.282,0.251"/>
				<path style="fill:#FFFFFF;stroke:#DB161B;stroke-width:0.0501;" d="M21.356,9.717l-0.282,0.251"/>
				<path style="fill:#FFFFFF;stroke:#DB161B;stroke-width:0.0501;" d="M21.544,9.717l-0.282,0.251"/>
				<path style="fill:#FFFFFF;stroke:#DB161B;stroke-width:0.0501;" d="M21.732,9.717L21.45,9.968"/>
				<path style="fill:#FFFFFF;stroke:#DB161B;stroke-width:0.0501;" d="M21.45,11.14l0.282,0.252"/>
				<path style="fill:#FFFFFF;stroke:#DB161B;stroke-width:0.0501;" d="M21.262,11.14l0.282,0.252"/>
				<path style="fill:#FFFFFF;stroke:#DB161B;stroke-width:0.0501;" d="M21.074,11.14l0.282,0.252"/>
				<path style="fill:#FFFFFF;stroke:#DB161B;stroke-width:0.0501;" d="M20.886,11.14l0.282,0.252"/>
				<path style="fill:#FFFFFF;stroke:#DB161B;stroke-width:0.0501;" d="M20.698,11.14l0.282,0.252"/>
				<path style="fill:#FFFFFF;stroke:#DB161B;stroke-width:0.0501;" d="M20.51,11.14l0.282,0.252"/>
				<path style="fill:#FFFFFF;stroke:#DB161B;stroke-width:0.0501;" d="M20.322,11.14l0.282,0.252"/>
				<path style="fill:#FFFFFF;stroke:#DB161B;stroke-width:0.0501;" d="M20.134,11.14l0.282,0.252"/>
				<path style="fill:#FFFFFF;stroke:#DB161B;stroke-width:0.0501;" d="M19.946,11.14l0.282,0.252"/>
				<path style="fill:#FFFFFF;stroke:#DB161B;stroke-width:0.0501;" d="M19.758,11.14l0.282,0.252"/>
				<path style="fill:#FFFFFF;stroke:#DB161B;stroke-width:0.0501;" d="M19.57,11.14l0.282,0.252"/>
				<path style="fill:#FFFFFF;stroke:#DB161B;stroke-width:0.0501;" d="M19.382,11.14l0.282,0.252"/>
				<path style="fill:#FFFFFF;stroke:#DB161B;stroke-width:0.0501;" d="M20.134,11.14l0.282,0.252"/>
				<path style="fill:#FFFFFF;stroke:#DB161B;stroke-width:0.0501;" d="M19.194,11.14l0.282,0.252"/>
				<path style="fill:#FFFFFF;stroke:#DB161B;stroke-width:0.0501;" d="M19.006,11.14l0.282,0.252"/>
				<path style="fill:#FFFFFF;stroke:#DB161B;stroke-width:0.0501;" d="M18.818,11.14l0.282,0.252"/>
				<path style="fill:#FFFFFF;stroke:#DB161B;stroke-width:0.0501;" d="M18.63,11.14l0.282,0.252"/>
				<path style="fill:#FFFFFF;stroke:#DB161B;stroke-width:0.0501;" d="M18.913,11.14l-0.282,0.252"/>
				<path style="fill:#FFFFFF;stroke:#DB161B;stroke-width:0.0501;" d="M19.1,11.14l-0.282,0.252"/>
				<path style="fill:#FFFFFF;stroke:#DB161B;stroke-width:0.0501;" d="M19.288,11.14l-0.282,0.252"/>
				<path style="fill:#FFFFFF;stroke:#DB161B;stroke-width:0.0501;" d="M19.476,11.14l-0.282,0.252"/>
				<path style="fill:#FFFFFF;stroke:#DB161B;stroke-width:0.0501;" d="M19.664,11.14l-0.282,0.252"/>
				<path style="fill:#FFFFFF;stroke:#DB161B;stroke-width:0.0501;" d="M19.852,11.14l-0.282,0.252"/>
				<path style="fill:#FFFFFF;stroke:#DB161B;stroke-width:0.0501;" d="M20.04,11.14l-0.282,0.252"/>
				<path style="fill:#FFFFFF;stroke:#DB161B;stroke-width:0.0501;" d="M20.228,11.14l-0.282,0.252"/>
				<path style="fill:#FFFFFF;stroke:#DB161B;stroke-width:0.0501;" d="M20.416,11.14l-0.282,0.252"/>
				<path style="fill:#FFFFFF;stroke:#DB161B;stroke-width:0.0501;" d="M20.604,11.14l-0.282,0.252"/>
				<path style="fill:#FFFFFF;stroke:#DB161B;stroke-width:0.0501;" d="M20.792,11.14l-0.282,0.252"/>
				<path style="fill:#FFFFFF;stroke:#DB161B;stroke-width:0.0501;" d="M20.98,11.14l-0.282,0.252"/>
				<path style="fill:#FFFFFF;stroke:#DB161B;stroke-width:0.0501;" d="M20.228,11.14l-0.282,0.252"/>
				<path style="fill:#FFFFFF;stroke:#DB161B;stroke-width:0.0501;" d="M21.168,11.14l-0.282,0.252"/>
				<path style="fill:#FFFFFF;stroke:#DB161B;stroke-width:0.0501;" d="M21.356,11.14l-0.282,0.252"/>
				<path style="fill:#FFFFFF;stroke:#DB161B;stroke-width:0.0501;" d="M21.544,11.14l-0.282,0.252"/>
				<path style="fill:#FFFFFF;stroke:#DB161B;stroke-width:0.0501;" d="M21.732,11.14l-0.282,0.252"/>
			</g>
		</g>
		<g id="b">
			<path style="fill:#FFFFFF;stroke:#DB161B;stroke-width:0.0803;" d="M11.811,13.765c-4.561,4.46-6.506,5.024-5.593,5.383
				c0.913,0.359,3.85-1.942,6.906-5c3.056-3.057,4.927-5.778,4.014-6.137C16.226,7.651,16.662,9.021,11.811,13.765z"/>
			<path style="fill:#FFFFFF;stroke:#DB161B;stroke-width:0.0626;" d="M7.972,17.006l1.597,0.419
				c-1.503,1.425-3.195,2.011-3.665,1.76C5.435,18.934,6.751,18.347,7.972,17.006z"/>
			<path style="fill:#FFFFFF;stroke:#DB161B;stroke-width:0.0626;" d="M7.972,17.174l1.316,0.336
				C7.823,18.879,6.375,19.268,6,19.102C5.623,18.934,6.782,18.463,7.972,17.174z"/>
			<path style="fill:none;stroke:#DB161B;stroke-width:0.0626;" d="M12.881,13.57c-0.004,0.022-0.014,0.118-0.024,0.155
				c0,0.053-0.006,0.093-0.011,0.135c-0.015,0.036-0.012,0.069-0.059,0.082c-0.031,0.044-0.051,0.055-0.093,0.073
				c-0.028,0.022-0.072,0.044-0.118,0.062c-0.046,0.018-0.089,0.02-0.139,0.01c-0.042-0.026-0.071-0.051-0.105-0.072
				c-0.009-0.033-0.015-0.082-0.024-0.114c0.012,0.033,0.022,0.086,0.024,0.134c-0.005,0.052-0.024,0.075-0.046,0.114"/>
			<path style="fill:none;stroke:#DB161B;stroke-width:0.0626;" d="M12.448,14.263c-0.004-0.003-0.008-0.007-0.011-0.01
				c0.027,0.025,0.016,0.013-0.047-0.02c-0.045-0.021-0.093-0.032-0.152-0.042h-0.163c-0.064,0-0.106,0.009-0.152,0.021
				c-0.033,0.029-0.082,0.045-0.117,0.072c-0.036,0.022-0.051,0.047-0.07,0.082c-0.032,0.028-0.053,0.072-0.082,0.094
				c-0.012,0.047-0.04,0.045-0.058,0.082c0.055,0.004,0.1,0.01,0.128,0.041c0.049,0.023-0.041-0.022-0.058-0.041
				c-0.039-0.01-0.048-0.021-0.105-0.021c-0.053-0.015-0.085,0.012-0.14,0.021c-0.031,0.016-0.041,0.021-0.082,0.021"/>
			<path style="fill:none;stroke:#DB161B;stroke-width:0.0626;" d="M11.818,14.78c-0.024,0.001-0.133,0.019-0.175,0
				c-0.047-0.011-0.076-0.034-0.105-0.073c-0.014-0.027,0,0.05,0,0.083c-0.005,0.061-0.026,0.062-0.058,0.103
				c-0.034,0.019-0.07,0.046-0.105,0.062c-0.029,0.023-0.065,0.038-0.105,0.052c-0.035,0.014-0.077,0.029-0.105,0.051
				c-0.039,0.025-0.035,0.055-0.058,0.093c0.004,0.051,0.013,0.08,0.046,0.104c0.013,0.034,0.045,0.069,0.07,0.093
				c0.028,0.047,0.061,0.069-0.012,0.082c-0.04,0.015-0.062,0.003-0.104,0"/>
			<path style="fill:none;stroke:#DB161B;stroke-width:0.0626;" d="M11.083,15.504c-0.028-0.006-0.131-0.036-0.175-0.051h-0.163
				c-0.064,0.004-0.076,0.021-0.129,0.041c-0.034,0.031-0.058,0.053-0.105,0.073c-0.025,0.028-0.074,0.077-0.093,0.114
				c-0.014,0.035-0.024,0.082-0.024,0.135c0.001,0.06,0.019,0.07,0.024,0.124c0.013,0.044,0.034,0.084,0.07,0.123
				c0.005,0.013,0.009,0.017,0.023,0.021"/>
			<path style="fill:none;stroke:#DB161B;stroke-width:0.0626;" d="M10.526,16.218c-0.005,0-0.016,0.027-0.033,0.049
				c-0.037,0.038-0.042,0.041-0.1,0.041c-0.051-0.002-0.046-0.02-0.082-0.033c-0.017-0.026-0.039-0.046-0.058-0.082
				c-0.013-0.021-0.026-0.054-0.042-0.073c-0.015-0.025-0.034-0.043-0.05-0.065c-0.015-0.007-0.021-0.013-0.041-0.016
				c0.047,0.008,0.051,0.024,0.082,0.048c0.014,0.024,0.029,0.047,0.042,0.074c0.005,0.035,0.016,0.063,0.016,0.106
				c0,0.045,0,0.077-0.016,0.114c-0.02,0.021-0.034,0.042-0.058,0.058c-0.02,0.018-0.044,0.043-0.059,0.064
				c-0.026,0.016-0.045,0.029-0.074,0.049c-0.026,0.014-0.052,0.029-0.091,0.033c-0.049-0.004-0.064-0.017-0.1-0.033
				c-0.031-0.023-0.056-0.037-0.083-0.057c-0.022-0.015-0.044-0.045-0.058-0.065c-0.045-0.011-0.073-0.007-0.1,0.016
				C9.6,16.462,9.58,16.482,9.565,16.504c-0.014,0.007-0.036,0.027-0.05,0.033"/>
			<path style="fill:none;stroke:#DB161B;stroke-width:0.0626;" d="M9.613,16.556c0.013,0.006,0.061,0.039,0.082,0.051
				c0.013,0.043,0.034,0.066,0.041,0.112c0.011,0.045,0.01,0.093,0.01,0.143c-0.011,0.052-0.033,0.09-0.051,0.132
				c-0.033,0.023-0.049,0.038-0.093,0.062c-0.041,0.006-0.082,0.01-0.134,0.01c-0.032,0.01-0.093,0.015-0.124,0
				c-0.045-0.007-0.08-0.025-0.113-0.041c-0.038-0.022-0.062-0.042-0.103-0.062c-0.02-0.029-0.052-0.056-0.082-0.092
				c-0.026-0.034-0.045-0.053-0.062-0.091C9,16.824,9.023,16.862,9.036,16.903c0.023,0.043,0.037,0.059,0.041,0.112
				c0.014,0.043,0.01,0.094,0.01,0.142c-0.005,0.033-0.007,0.096-0.021,0.122v0.031"/>
			<path style="fill:none;stroke:#DB161B;stroke-width:0.0626;" d="M8.089,17.472v0.015c0-0.04-0.001-0.02,0.017,0.059
				c0.031,0.035,0.105,0.045,0.166,0.029c0.054-0.039,0.052-0.069,0.149-0.088c0.094,0.006,0.13,0.03,0.182,0.059
				c0.062,0.027,0.091,0.042,0.133,0.103c0.021,0.05,0.032,0.084-0.033,0.103c-0.052,0.033-0.113,0.051-0.182,0.06
				c-0.077,0-0.132-0.009-0.166,0.029c-0.053,0.048-0.05,0.078-0.05,0.162c-0.018,0.027-0.021,0.104-0.033,0.134
				c-0.046,0.019-0.073,0.029-0.149,0.029c-0.018-0.045-0.038-0.128-0.05-0.177c-0.013-0.053-0.017-0.127-0.05-0.163
				c-0.031-0.04-0.07-0.076-0.116-0.103c-0.02-0.026-0.059-0.046-0.099-0.059c0.065,0.029,0.074,0.062,0.083,0.133
				c-0.057,0.026-0.072,0.044-0.166,0.045c-0.092-0.007-0.114-0.027-0.149-0.074c-0.006,0.074-0.033,0.099-0.05,0.163
				c-0.034,0.045-0.049,0.09-0.083,0.147c0.015,0.072,0.046,0.075,0.05,0.163c0.022,0.058,0.019,0.113,0.066,0.148
				c0.021,0.023,0.037,0.027,0.083,0.029c-0.096,0-0.152-0.009-0.216-0.045c-0.049-0.027-0.086-0.061-0.133-0.088
				c-0.059-0.038-0.131-0.073-0.199-0.089c-0.077,0-0.132-0.008-0.166,0.029c-0.047,0.03-0.078,0.082-0.099,0.148
				c-0.015,0.077-0.021,0.128,0.017,0.177c0.028,0.058,0.034,0.08,0,0.148c-0.039,0.048-0.096,0.054-0.182,0.074
				c-0.063-0.003-0.124-0.015-0.166-0.029"/>
			<path style="fill:#FFFFFF;stroke:#DB161B;stroke-width:0.0635;" d="M17.015,9.74c2.024-3.494,3.367-6.467,2.997-6.636
				c-0.369-0.17-2.31,2.528-4.334,6.021L17.015,9.74z"/>
			<path style="fill:#FFFFFF;stroke:#DB161B;stroke-width:0.0558;" d="M16.882,9.679c1.952-3.37,3.297-6.216,3.002-6.351
				s-2.118,2.489-4.071,5.859"/>
			<path style="fill:#FFFFFF;stroke:#DB161B;stroke-width:0.0634;" d="M16.546,7.921c-0.238,0.394-0.489,0.844-0.734,1.266
				l1.069,0.493c0.244-0.422,0.51-0.865,0.733-1.266L16.546,7.921z"/>
			<path style="fill:#FFFFFF;stroke:#DB161B;stroke-width:0.0634;" d="M16.636,8.057c-0.237,0.394-0.403,0.696-0.646,1.117
				l0.801,0.369c0.245-0.421,0.425-0.716,0.647-1.117L16.636,8.057z"/>
			<polygon style="fill:#FFFFFF;stroke:#DB161B;stroke-width:0.0635;" points="17.218,8.513 16.683,8.267 16.209,9.086 
				16.743,9.332 			"/>
			<path style="fill:#FFFFFF;stroke:#DB161B;stroke-width:0.0634;" d="M17.218,8.513L16.21,9.086"/>
			<path style="fill:#FFFFFF;stroke:#DB161B;stroke-width:0.0634;" d="M16.743,9.332l-0.06-1.065"/>
			<path style="fill:#FFFFFF;stroke:#DB161B;stroke-width:0.0634;" d="M19.633,4.344l-0.535-0.246"/>
			
				<ellipse transform="matrix(-0.2492 -0.9685 0.9685 -0.2492 20.7785 23.7608)" style="fill:#DB161B;stroke:#DB161B;stroke-width:0.1896;" cx="19.6" cy="3.826" rx="0.137" ry="0.156"/>
		</g>
		<g transform="scale(-1,1)">
			<g id="b_1_">
				<path style="fill:#FFFFFF;stroke:#DB161B;stroke-width:0.0803;" d="M16.265,13.765c4.561,4.46,6.506,5.024,5.593,5.383
					c-0.913,0.359-3.85-1.942-6.906-5c-3.056-3.057-4.927-5.778-4.014-6.137C11.85,7.651,11.414,9.021,16.265,13.765z"/>
				<path style="fill:#FFFFFF;stroke:#DB161B;stroke-width:0.0626;" d="M20.104,17.006l-1.597,0.419
					c1.503,1.425,3.195,2.011,3.665,1.76C22.641,18.934,21.325,18.347,20.104,17.006z"/>
				<path style="fill:#FFFFFF;stroke:#DB161B;stroke-width:0.0626;" d="M20.104,17.174l-1.316,0.336
					c1.465,1.37,2.913,1.759,3.288,1.592C22.453,18.934,21.294,18.463,20.104,17.174z"/>
				<path style="fill:none;stroke:#DB161B;stroke-width:0.0626;" d="M15.195,13.57c0.004,0.022,0.014,0.118,0.024,0.155
					c0,0.053,0.006,0.093,0.011,0.135c0.015,0.036,0.012,0.069,0.059,0.082c0.031,0.044,0.051,0.055,0.093,0.073
					c0.028,0.022,0.072,0.044,0.118,0.062c0.046,0.018,0.089,0.02,0.139,0.01c0.042-0.026,0.071-0.051,0.105-0.072
					c0.009-0.033,0.015-0.082,0.024-0.114c-0.012,0.033-0.022,0.086-0.024,0.134c0.005,0.052,0.024,0.075,0.046,0.114"/>
				<path style="fill:none;stroke:#DB161B;stroke-width:0.0626;" d="M15.628,14.263c0.004-0.003,0.008-0.007,0.011-0.01
					c-0.027,0.025-0.016,0.013,0.047-0.02c0.045-0.021,0.093-0.032,0.152-0.042h0.163c0.064,0,0.106,0.009,0.152,0.021
					c0.033,0.029,0.082,0.045,0.117,0.072c0.036,0.022,0.051,0.047,0.07,0.082c0.032,0.028,0.053,0.072,0.082,0.094
					c0.012,0.047,0.04,0.045,0.058,0.082c-0.055,0.004-0.1,0.01-0.128,0.041c-0.049,0.023,0.041-0.022,0.058-0.041
					c0.039-0.01,0.048-0.021,0.105-0.021c0.053-0.015,0.085,0.012,0.14,0.021c0.031,0.016,0.041,0.021,0.082,0.021"/>
				<path style="fill:none;stroke:#DB161B;stroke-width:0.0626;" d="M16.258,14.78c0.024,0.001,0.133,0.019,0.175,0
					c0.047-0.011,0.076-0.034,0.105-0.073c0.014-0.027,0,0.05,0,0.083c0.005,0.061,0.026,0.062,0.058,0.103
					c0.034,0.019,0.07,0.046,0.105,0.062c0.029,0.023,0.065,0.038,0.105,0.052c0.035,0.014,0.077,0.029,0.105,0.051
					c0.039,0.025,0.035,0.055,0.058,0.093c-0.004,0.051-0.013,0.08-0.046,0.104c-0.013,0.034-0.045,0.069-0.07,0.093
					c-0.028,0.047-0.061,0.069,0.012,0.082c0.04,0.015,0.062,0.003,0.104,0"/>
				<path style="fill:none;stroke:#DB161B;stroke-width:0.0626;" d="M16.993,15.504c0.028-0.006,0.131-0.036,0.175-0.051h0.163
					c0.064,0.004,0.076,0.021,0.129,0.041c0.034,0.031,0.058,0.053,0.105,0.073c0.025,0.028,0.074,0.077,0.093,0.114
					c0.014,0.035,0.024,0.082,0.024,0.135c-0.001,0.06-0.019,0.07-0.024,0.124c-0.013,0.044-0.034,0.084-0.07,0.123
					c-0.005,0.013-0.009,0.017-0.023,0.021"/>
				<path style="fill:none;stroke:#DB161B;stroke-width:0.0626;" d="M17.55,16.218c0.005,0,0.016,0.027,0.033,0.049
					c0.037,0.038,0.042,0.041,0.1,0.041c0.051-0.002,0.046-0.02,0.082-0.033c0.017-0.026,0.039-0.046,0.058-0.082
					c0.013-0.021,0.026-0.054,0.042-0.073c0.015-0.025,0.034-0.043,0.05-0.065c0.015-0.007,0.021-0.013,0.041-0.016
					c-0.047,0.008-0.051,0.024-0.082,0.048c-0.014,0.024-0.029,0.047-0.042,0.074c-0.005,0.035-0.016,0.063-0.016,0.106
					c0,0.045,0,0.077,0.016,0.114c0.02,0.021,0.034,0.042,0.058,0.058c0.02,0.018,0.044,0.043,0.059,0.064
					c0.026,0.016,0.045,0.029,0.074,0.049c0.026,0.014,0.052,0.029,0.091,0.033c0.049-0.004,0.064-0.017,0.1-0.033
					c0.031-0.023,0.056-0.037,0.083-0.057c0.022-0.015,0.044-0.045,0.058-0.065c0.045-0.011,0.073-0.007,0.1,0.016
					c0.023,0.015,0.043,0.035,0.058,0.057c0.014,0.007,0.036,0.027,0.05,0.033"/>
				<path style="fill:none;stroke:#DB161B;stroke-width:0.0626;" d="M18.463,16.556c-0.013,0.006-0.061,0.039-0.082,0.051
					c-0.013,0.043-0.034,0.066-0.041,0.112c-0.011,0.045-0.01,0.093-0.01,0.143c0.011,0.052,0.033,0.09,0.051,0.132
					c0.033,0.023,0.049,0.038,0.093,0.062c0.041,0.006,0.082,0.01,0.134,0.01c0.032,0.01,0.093,0.015,0.124,0
					c0.045-0.007,0.08-0.025,0.113-0.041c0.038-0.022,0.062-0.042,0.103-0.062c0.02-0.029,0.052-0.056,0.082-0.092
					c0.026-0.034,0.045-0.053,0.062-0.091c-0.015,0.044-0.038,0.082-0.052,0.122c-0.023,0.043-0.037,0.059-0.041,0.112
					c-0.014,0.043-0.01,0.094-0.01,0.142c0.005,0.033,0.007,0.096,0.021,0.122v0.031"/>
				<path style="fill:none;stroke:#DB161B;stroke-width:0.0626;" d="M19.987,17.472v0.015c0-0.04,0.001-0.02-0.017,0.059
					c-0.031,0.035-0.105,0.045-0.166,0.029c-0.054-0.039-0.052-0.069-0.149-0.088c-0.094,0.006-0.13,0.03-0.182,0.059
					c-0.062,0.027-0.091,0.042-0.133,0.103c-0.021,0.05-0.032,0.084,0.033,0.103c0.052,0.033,0.113,0.051,0.182,0.06
					c0.077,0,0.132-0.009,0.166,0.029c0.053,0.048,0.05,0.078,0.05,0.162c0.018,0.027,0.021,0.104,0.033,0.134
					c0.046,0.019,0.073,0.029,0.149,0.029c0.018-0.045,0.038-0.128,0.05-0.177c0.013-0.053,0.017-0.127,0.05-0.163
					c0.031-0.04,0.07-0.076,0.116-0.103c0.02-0.026,0.059-0.046,0.099-0.059c-0.065,0.029-0.074,0.062-0.083,0.133
					c0.057,0.026,0.072,0.044,0.166,0.045c0.092-0.007,0.114-0.027,0.149-0.074c0.006,0.074,0.033,0.099,0.05,0.163
					c0.034,0.045,0.049,0.09,0.083,0.147c-0.015,0.072-0.046,0.075-0.05,0.163c-0.022,0.058-0.019,0.113-0.066,0.148
					c-0.021,0.023-0.037,0.027-0.083,0.029c0.096,0,0.152-0.009,0.216-0.045c0.049-0.027,0.086-0.061,0.133-0.088
					c0.059-0.038,0.131-0.073,0.199-0.089c0.077,0,0.132-0.008,0.166,0.029c0.047,0.03,0.078,0.082,0.099,0.148
					c0.015,0.077,0.021,0.128-0.017,0.177c-0.028,0.058-0.034,0.08,0,0.148c0.039,0.048,0.096,0.054,0.182,0.074
					c0.063-0.003,0.124-0.015,0.166-0.029"/>
				<path style="fill:#FFFFFF;stroke:#DB161B;stroke-width:0.0635;" d="M11.061,9.74C9.037,6.247,7.694,3.274,8.064,3.104
					c0.369-0.17,2.31,2.528,4.334,6.021L11.061,9.74z"/>
				<path style="fill:#FFFFFF;stroke:#DB161B;stroke-width:0.0558;" d="M11.194,9.679c-1.952-3.37-3.297-6.216-3.002-6.351
					c0.295-0.136,2.118,2.489,4.071,5.859"/>
				<path style="fill:#FFFFFF;stroke:#DB161B;stroke-width:0.0634;" d="M11.53,7.921c0.238,0.394,0.489,0.844,0.734,1.266
					l-1.069,0.493c-0.244-0.422-0.51-0.865-0.733-1.266L11.53,7.921z"/>
				<path style="fill:#FFFFFF;stroke:#DB161B;stroke-width:0.0634;" d="M11.44,8.057c0.237,0.394,0.403,0.696,0.646,1.117
					l-0.801,0.369c-0.245-0.421-0.425-0.716-0.647-1.117L11.44,8.057z"/>
				<polygon style="fill:#FFFFFF;stroke:#DB161B;stroke-width:0.0635;" points="10.858,8.513 11.393,8.267 11.867,9.086 
					11.333,9.332 				"/>
				<path style="fill:#FFFFFF;stroke:#DB161B;stroke-width:0.0634;" d="M10.858,8.513l1.009,0.573"/>
				<path style="fill:#FFFFFF;stroke:#DB161B;stroke-width:0.0634;" d="M11.333,9.332l0.06-1.065"/>
				<path style="fill:#FFFFFF;stroke:#DB161B;stroke-width:0.0634;" d="M8.443,4.344l0.535-0.246"/>
				
					<ellipse transform="matrix(0.2492 -0.9685 0.9685 0.2492 2.6589 11.0813)" style="fill:#DB161B;stroke:#DB161B;stroke-width:0.1896;" cx="8.476" cy="3.826" rx="0.137" ry="0.156"/>
			</g>
		</g>
		<path style="fill:#FFFFFF;stroke:#DB161B;stroke-width:0.0578;" d="M12.641,7.873c0,2.933,0.017,4.038-0.199,4.19
			c-0.205,0.162-5.91,0-5.91,0.838c0,0.838,4.699,1.676,6.109,1.676c1.88,0,2.82-0.838,2.82-2.514v-4.19L12.641,7.873z"/>
		<path style="fill:#FFFFFF;stroke:#DB161B;stroke-width:0.0501;" d="M12.641,8.711V9.13c0.94,0.14,1.88,0.14,2.82,0V8.711
			C14.52,8.851,13.581,8.851,12.641,8.711z"/>
		<path style="fill:#FFFFFF;stroke:#DB161B;stroke-width:0.0501;" d="M12.641,7.873v0.419c0.94,0.14,1.88,0.14,2.82,0V7.873
			C14.52,8.013,13.581,8.013,12.641,7.873z"/>
		<path style="fill:#FFFFFF;stroke:#DB161B;stroke-width:0.0501;" d="M12.641,8.292v0.419c0.94,0.14,1.88,0.14,2.82,0V8.292
			C14.52,8.432,13.581,8.432,12.641,8.292z"/>
		<path style="fill:#FFFFFF;stroke:#DB161B;stroke-width:0.0501;" d="M12.641,9.13v0.419c0.94,0.139,1.88,0.139,2.82,0V9.13
			C14.52,9.27,13.581,9.27,12.641,9.13z"/>
		<ellipse style="fill:#FFFFFF;stroke:#DB161B;stroke-width:0.846;" cx="12.769" cy="8.53" rx="0.128" ry="0.09"/>
		<ellipse style="fill:#FFFFFF;stroke:#DB161B;stroke-width:0.846;" cx="13.282" cy="8.575" rx="0.128" ry="0.09"/>
		<ellipse style="fill:#FFFFFF;stroke:#DB161B;stroke-width:0.8461;" cx="13.794" cy="8.62" rx="0.128" ry="0.09"/>
		<ellipse style="fill:#FFFFFF;stroke:#DB161B;stroke-width:0.8461;" cx="14.307" cy="8.62" rx="0.128" ry="0.09"/>
		<ellipse style="fill:#FFFFFF;stroke:#DB161B;stroke-width:0.846;" cx="14.82" cy="8.575" rx="0.128" ry="0.09"/>
		<ellipse style="fill:#FFFFFF;stroke:#DB161B;stroke-width:0.846;" cx="15.332" cy="8.53" rx="0.128" ry="0.09"/>
		<g>
			<path style="fill:#FFFFFF;stroke:#DB161B;stroke-width:0.0501;" d="M12.641,9.968l2.82,2.263"/>
			<path style="fill:#FFFFFF;stroke:#DB161B;stroke-width:0.0501;" d="M12.922,9.968l2.538,2.01"/>
			<path style="fill:#FFFFFF;stroke:#DB161B;stroke-width:0.0501;" d="M13.299,10.051l2.162,1.676"/>
			<path style="fill:#FFFFFF;stroke:#DB161B;stroke-width:0.0501;" d="M13.581,10.051l1.88,1.425"/>
			<path style="fill:#FFFFFF;stroke:#DB161B;stroke-width:0.0501;" d="M13.863,10.051l1.598,1.173"/>
			<path style="fill:#FFFFFF;stroke:#DB161B;stroke-width:0.0501;" d="M14.144,10.051l1.317,0.922"/>
			<path style="fill:#FFFFFF;stroke:#DB161B;stroke-width:0.0501;" d="M14.427,10.051l1.034,0.67"/>
			<path style="fill:#FFFFFF;stroke:#DB161B;stroke-width:0.0501;" d="M14.708,10.051l0.753,0.503"/>
			<path style="fill:#FFFFFF;stroke:#DB161B;stroke-width:0.0501;" d="M14.991,10.051l0.47,0.336"/>
			<path style="fill:#FFFFFF;stroke:#DB161B;stroke-width:0.0501;" d="M15.272,10.051l0.189,0.168"/>
			<path style="fill:#FFFFFF;stroke:#DB161B;stroke-width:0.0501;" d="M12.641,10.219l2.82,2.263"/>
			<path style="fill:#FFFFFF;stroke:#DB161B;stroke-width:0.0501;" d="M15.461,9.968l-3.101,2.514"/>
			<path style="fill:#FFFFFF;stroke:#DB161B;stroke-width:0.0501;" d="M15.178,9.968l-2.725,2.178"/>
			<path style="fill:#FFFFFF;stroke:#DB161B;stroke-width:0.0501;" d="M14.803,10.051l-2.162,1.676"/>
			<path style="fill:#FFFFFF;stroke:#DB161B;stroke-width:0.0501;" d="M14.52,10.051l-1.88,1.425"/>
			<path style="fill:#FFFFFF;stroke:#DB161B;stroke-width:0.0501;" d="M14.239,10.051l-1.598,1.173"/>
			<path style="fill:#FFFFFF;stroke:#DB161B;stroke-width:0.0501;" d="M13.956,10.051l-1.316,0.922"/>
			<path style="fill:#FFFFFF;stroke:#DB161B;stroke-width:0.0501;" d="M13.675,10.051l-1.034,0.67"/>
			<path style="fill:#FFFFFF;stroke:#DB161B;stroke-width:0.0501;" d="M13.392,10.051l-0.752,0.503"/>
			<path style="fill:#FFFFFF;stroke:#DB161B;stroke-width:0.0501;" d="M13.111,10.051l-0.47,0.336"/>
			<path style="fill:#FFFFFF;stroke:#DB161B;stroke-width:0.0501;" d="M12.829,10.051l-0.188,0.168"/>
			<path style="fill:#FFFFFF;stroke:#DB161B;stroke-width:0.0501;" d="M15.461,10.219l-3.101,2.514"/>
			<path style="fill:#FFFFFF;stroke:#DB161B;stroke-width:0.0501;" d="M15.461,10.47l-3.101,2.514"/>
			<path style="fill:#FFFFFF;stroke:#DB161B;stroke-width:0.0501;" d="M15.461,10.721l-3.101,2.515"/>
			<path style="fill:#FFFFFF;stroke:#DB161B;stroke-width:0.0501;" d="M15.461,10.974l-3.101,2.514"/>
			<path style="fill:#FFFFFF;stroke:#DB161B;stroke-width:0.0501;" d="M15.461,11.225l-3.101,2.514"/>
			<path style="fill:#FFFFFF;stroke:#DB161B;stroke-width:0.0501;" d="M15.461,11.476l-3.101,2.514"/>
			<path style="fill:#FFFFFF;stroke:#DB161B;stroke-width:0.0501;" d="M15.461,11.727l-3.101,2.514"/>
			<path style="fill:#FFFFFF;stroke:#DB161B;stroke-width:0.0501;" d="M15.461,11.979l-3.101,2.514"/>
			<path style="fill:#FFFFFF;stroke:#DB161B;stroke-width:0.0501;" d="M15.461,12.231l-2.914,2.346"/>
			<path style="fill:#FFFFFF;stroke:#DB161B;stroke-width:0.0501;" d="M15.461,12.482l-2.632,2.095"/>
			<path style="fill:#FFFFFF;stroke:#DB161B;stroke-width:0.0501;" d="M15.366,12.817l-2.067,1.676"/>
			<path style="fill:#FFFFFF;stroke:#DB161B;stroke-width:0.0501;" d="M15.272,13.152l-1.691,1.341"/>
			<path style="fill:#FFFFFF;stroke:#DB161B;stroke-width:0.0501;" d="M15.084,13.571l-0.846,0.67"/>
			<path style="fill:#FFFFFF;stroke:#DB161B;stroke-width:0.0501;" d="M12.641,10.47l2.725,2.179"/>
			<path style="fill:#FFFFFF;stroke:#DB161B;stroke-width:0.0501;" d="M12.641,10.721l2.725,2.179"/>
			<path style="fill:#FFFFFF;stroke:#DB161B;stroke-width:0.0501;" d="M12.641,10.974l2.631,2.095"/>
			<path style="fill:#FFFFFF;stroke:#DB161B;stroke-width:0.0501;" d="M12.641,11.225l2.631,2.095"/>
			<path style="fill:#FFFFFF;stroke:#DB161B;stroke-width:0.0501;" d="M12.641,11.476l2.537,2.011"/>
			<path style="fill:#FFFFFF;stroke:#DB161B;stroke-width:0.0501;" d="M12.547,11.644l2.537,2.011"/>
			<path style="fill:#FFFFFF;stroke:#DB161B;stroke-width:0.0501;" d="M12.547,11.895l2.35,1.844"/>
			<path style="fill:#FFFFFF;stroke:#DB161B;stroke-width:0.0501;" d="M12.453,12.063l2.35,1.844"/>
			<path style="fill:#FFFFFF;stroke:#DB161B;stroke-width:0.0501;" d="M12.359,12.231l2.255,1.759"/>
			<path style="fill:#FFFFFF;stroke:#DB161B;stroke-width:0.0501;" d="M12.359,12.482l2.161,1.676"/>
			<path style="fill:#FFFFFF;stroke:#DB161B;stroke-width:0.0501;" d="M12.359,12.733l1.88,1.508"/>
		</g>
		<path style="fill:#FFFFFF;stroke:#DB161B;stroke-width:0.0501;" d="M12.641,9.549v0.419c0.94,0.139,1.88,0.139,2.82,0V9.549
			C14.52,9.688,13.581,9.688,12.641,9.549z"/>
		<path style="fill:#FFFFFF;stroke:#DB161B;stroke-width:0.0501;" d="M12.359,12.984l1.691,1.341"/>
		<path style="fill:#FFFFFF;stroke:#DB161B;stroke-width:0.0501;" d="M12.359,13.236l1.503,1.173"/>
		<path style="fill:#FFFFFF;stroke:#DB161B;stroke-width:0.0501;" d="M12.359,13.487l1.316,1.006"/>
		<path style="fill:#FFFFFF;stroke:#DB161B;stroke-width:0.0501;" d="M12.359,13.739l0.939,0.755"/>
		<path style="fill:#FFFFFF;stroke:#DB161B;stroke-width:0.0501;" d="M12.359,13.99l0.752,0.587"/>
		<path style="fill:#FFFFFF;stroke:#DB161B;stroke-width:0.0501;" d="M12.359,14.241l0.469,0.336"/>
		<ellipse style="fill:#FFFFFF;stroke:#DB161B;stroke-width:0.846;" cx="12.769" cy="9.787" rx="0.128" ry="0.09"/>
		<ellipse style="fill:#FFFFFF;stroke:#DB161B;stroke-width:0.846;" cx="13.282" cy="9.832" rx="0.128" ry="0.09"/>
		<ellipse style="fill:#FFFFFF;stroke:#DB161B;stroke-width:0.8461;" cx="13.794" cy="9.877" rx="0.128" ry="0.09"/>
		<ellipse style="fill:#FFFFFF;stroke:#DB161B;stroke-width:0.8461;" cx="14.307" cy="9.877" rx="0.128" ry="0.09"/>
		<ellipse style="fill:#FFFFFF;stroke:#DB161B;stroke-width:0.846;" cx="14.82" cy="9.832" rx="0.128" ry="0.09"/>
		<ellipse style="fill:#FFFFFF;stroke:#DB161B;stroke-width:0.846;" cx="15.332" cy="9.787" rx="0.128" ry="0.09"/>
		<g>
			<path style="fill:#FFFFFF;stroke:#DB161B;stroke-width:0.0501;" d="M8.6,13.906l3.383-1.76"/>
			<path style="fill:#FFFFFF;stroke:#DB161B;stroke-width:0.0501;" d="M8.412,13.822l3.195-1.676"/>
			<path style="fill:#FFFFFF;stroke:#DB161B;stroke-width:0.0501;" d="M8.318,13.655l2.914-1.509"/>
			<path style="fill:#FFFFFF;stroke:#DB161B;stroke-width:0.0501;" d="M8.224,13.487l2.538-1.341"/>
			<path style="fill:#FFFFFF;stroke:#DB161B;stroke-width:0.0501;" d="M8.036,13.32l2.349-1.173"/>
			<path style="fill:#FFFFFF;stroke:#DB161B;stroke-width:0.0501;" d="M8.13,13.068l1.597-0.838"/>
			<path style="fill:#FFFFFF;stroke:#DB161B;stroke-width:0.0501;" d="M8.036,12.901l1.222-0.67"/>
			<path style="fill:#FFFFFF;stroke:#DB161B;stroke-width:0.0501;" d="M8.036,12.649l0.846-0.419"/>
			<path style="fill:#FFFFFF;stroke:#DB161B;stroke-width:0.0501;" d="M8.882,13.99l3.195-1.676"/>
			<path style="fill:#FFFFFF;stroke:#DB161B;stroke-width:0.0501;" d="M9.163,14.074l3.007-1.592"/>
			<path style="fill:#FFFFFF;stroke:#DB161B;stroke-width:0.0501;" d="M9.446,14.158l2.819-1.508"/>
			<path style="fill:#FFFFFF;stroke:#DB161B;stroke-width:0.0501;" d="M9.727,14.241l2.35-1.257"/>
			<path style="fill:#FFFFFF;stroke:#DB161B;stroke-width:0.0501;" d="M10.103,14.241l2.067-1.089"/>
			<path style="fill:#FFFFFF;stroke:#DB161B;stroke-width:0.0501;" d="M10.385,14.325l1.786-0.922"/>
			<path style="fill:#FFFFFF;stroke:#DB161B;stroke-width:0.0501;" d="M10.667,14.409l1.409-0.754"/>
			<path style="fill:#FFFFFF;stroke:#DB161B;stroke-width:0.0501;" d="M11.043,14.409l1.128-0.587"/>
			<path style="fill:#FFFFFF;stroke:#DB161B;stroke-width:0.0501;" d="M11.419,14.493l0.752-0.419"/>
			<path style="fill:#FFFFFF;stroke:#DB161B;stroke-width:0.0501;" d="M11.795,14.493l0.469-0.252"/>
		</g>
		<path style="fill:#FFFFFF;stroke:#DB161B;stroke-width:0.0501;" d="M12.453,12.063h-0.47c-0.156,0.838-0.156,1.676,0,2.514h0.47
			C12.296,13.739,12.296,12.901,12.453,12.063z"/>
		<path style="fill:#FFFFFF;stroke:#DB161B;stroke-width:0.0501;" d="M6.908,13.236l1.128-0.838"/>
		<path style="fill:#FFFFFF;stroke:#DB161B;stroke-width:0.0501;" d="M6.908,12.649l1.128,1.006"/>
		<path style="fill:#FFFFFF;stroke:#DB161B;stroke-width:0.0357;" d="M8.6,12.231l-0.564,0.083c-0.125,0.531-0.125,0.977,0,1.508
			L8.6,13.99C8.474,13.459,8.474,12.761,8.6,12.231z"/>
		<path style="fill:#FFFFFF;stroke:#DB161B;stroke-width:0.0613;" d="M15.457,8.041V7.618c-0.422,0.004-0.704-0.248-0.704-0.503
			l-1.408,0.004c0,0.251-0.282,0.503-0.704,0.503v0.419H15.457z"/>
		<rect x="13.446" y="6.616" style="fill:#FFFFFF;stroke:#DB161B;stroke-width:0.0518;" width="1.207" height="0.503"/>
		<rect x="13.546" y="6.113" style="fill:#FFFFFF;stroke:#DB161B;stroke-width:0.0518;" width="1.006" height="0.503"/>
		<rect x="13.546" y="5.61" style="fill:#FFFFFF;stroke:#DB161B;stroke-width:0.0518;" width="1.006" height="0.503"/>
		<rect x="13.647" y="4.94" style="fill:#FFFFFF;stroke:#DB161B;stroke-width:0.0518;" width="0.805" height="0.67"/>
		<rect x="13.612" y="4.354" style="fill:#FFFFFF;stroke:#DB161B;stroke-width:0.054;" width="0.874" height="0.587"/>
		<ellipse style="fill:#FFFFFF;stroke:#DB161B;stroke-width:0.1896;" cx="14.098" cy="3.809" rx="1.165" ry="0.796"/>
		<path style="fill:#FFFFFF;stroke:#DB161B;stroke-width:0.0509;" d="M14.681,3.767c0,0.22,0.291,0.587,0.291,0.587
			c-0.211,0.144-0.553,0.251-0.874,0.251s-0.722-0.06-0.874-0.251c0,0,0.291-0.367,0.291-0.587c0-0.22-0.291-0.503-0.291-0.503
			c0.21-0.144,0.553-0.251,0.874-0.251s0.663,0.107,0.874,0.251C14.972,3.264,14.681,3.547,14.681,3.767z"/>
		<path style="fill:#FFFFFF;stroke:#DB161B;stroke-width:0.0509;" d="M14.486,3.767c0,0.22,0.291,0.67,0.291,0.67
			c-0.21,0.144-0.358,0.168-0.68,0.168s-0.528,0.024-0.68-0.168c0,0,0.291-0.451,0.291-0.67c0-0.22-0.291-0.587-0.291-0.587
			c0.21-0.144,0.358-0.168,0.68-0.168s0.469,0.024,0.68,0.168C14.777,3.18,14.486,3.547,14.486,3.767z"/>
		<ellipse style="fill:#FFFFFF;stroke:#DB161B;stroke-width:0.1896;" cx="12.932" cy="3.851" rx="0.291" ry="0.251"/>
		<ellipse style="fill:#FFFFFF;stroke:#DB161B;stroke-width:0.1896;" cx="15.263" cy="3.851" rx="0.291" ry="0.251"/>
		<ellipse style="fill:#FFFFFF;stroke:#DB161B;stroke-width:0.1896;" cx="14.098" cy="3.851" rx="0.291" ry="0.251"/>
		<ellipse style="fill:#FFFFFF;stroke:#DB161B;stroke-width:0.1896;" cx="14.098" cy="3.013" rx="0.291" ry="0.251"/>
		<ellipse style="fill:#FFFFFF;stroke:#DB161B;stroke-width:0.1896;" cx="13.244" cy="7.789" rx="0.302" ry="0.251"/>
		<ellipse style="fill:#FFFFFF;stroke:#DB161B;stroke-width:0.1896;" cx="14.854" cy="7.789" rx="0.302" ry="0.251"/>
		<path style="fill:#FFFFFF;stroke:#DB161B;stroke-width:0.0518;" d="M13.345,7.119h1.408l-0.703,0.754L13.345,7.119z"/>
		<ellipse style="fill:#FFFFFF;stroke:#DB161B;stroke-width:0.1896;" cx="14.049" cy="7.705" rx="0.402" ry="0.335"/>
		<path style="fill:#FFFFFF;stroke:#DB161B;stroke-width:0.0626;" d="M12.617,10.22h1.927c0.065,0,0.117,0.04,0.117,0.089v0.325
			c0,0.049-0.053,0.089-0.117,0.089h-1.927c-0.065,0-0.117-0.04-0.117-0.089v-0.325C12.5,10.26,12.552,10.22,12.617,10.22z"/>
		<path style="fill:#FFFFFF;stroke:#DB161B;stroke-width:0.0626;" d="M15.32,9.801c-0.261,0-0.47,0.195-0.47,0.438v0.381
			c0,0.243,0.209,0.438,0.47,0.438c0.261,0,0.47-0.195,0.47-0.438v-0.381C15.79,9.996,15.58,9.801,15.32,9.801z M15.32,9.969
			c-0.156,0-0.282,0.156-0.282,0.351v0.221c0,0.194,0.126,0.35,0.282,0.35c0.156,0,0.282-0.155,0.282-0.35V10.32
			C15.601,10.125,15.476,9.969,15.32,9.969z"/>
		<path style="fill:#FFFFFF;stroke:#DB161B;stroke-width:0.0626;" d="M12.876,9.885c-0.156,0-0.282,0.155-0.282,0.35v0.389
			c0,0.194,0.125,0.351,0.282,0.351s0.282-0.156,0.282-0.351v-0.389C13.157,10.041,13.032,9.885,12.876,9.885z M12.876,9.718
			c-0.261,0-0.47,0.195-0.47,0.438v0.549c0,0.243,0.209,0.438,0.47,0.438s0.47-0.195,0.47-0.438v-0.549
			C13.346,9.913,13.137,9.718,12.876,9.718z"/>
		<path style="fill:#FFFFFF;stroke:#DB161B;stroke-width:0.0626;" d="M12.124,10.052c-0.156,0-0.282,0.156-0.282,0.351v0.091
			c0,0.194,0.126,0.351,0.282,0.351c0.156,0,0.282-0.156,0.282-0.351v-0.091C12.406,10.209,12.281,10.052,12.124,10.052z
			 M12.124,9.885c-0.261,0-0.47,0.195-0.47,0.438v0.251c0,0.243,0.209,0.438,0.47,0.438c0.26,0,0.47-0.195,0.47-0.438v-0.251
			C12.594,10.081,12.384,9.885,12.124,9.885z"/>
		<path style="fill:#FFFFFF;stroke:#DB161B;stroke-width:0.0626;" d="M10.996,9.821c-0.282,0-0.507,0.174-0.507,0.391v0.434
			c0,0.217,0.226,0.391,0.507,0.391c0.282,0,0.507-0.174,0.507-0.391v-0.434C11.503,9.995,11.278,9.821,10.996,9.821z M10.996,9.633
			c-0.468,0-0.846,0.219-0.846,0.49v0.613c0,0.271,0.377,0.489,0.846,0.489c0.468,0,0.846-0.218,0.846-0.489v-0.613
			C11.842,9.852,11.465,9.633,10.996,9.633z"/>
		<path style="fill:#FFFFFF;stroke:#DB161B;stroke-width:0.0626;" d="M17.105,9.904c-0.282,0-0.508,0.175-0.508,0.392v0.434
			c0,0.217,0.227,0.391,0.508,0.391c0.281,0,0.507-0.174,0.507-0.391v-0.434C17.612,10.08,17.386,9.904,17.105,9.904z M17.105,9.718
			c-0.469,0-0.846,0.218-0.846,0.489v0.613c0,0.271,0.377,0.489,0.846,0.489c0.468,0,0.846-0.218,0.846-0.489v-0.613
			C17.951,9.936,17.574,9.718,17.105,9.718z"/>
		<path style="fill:#FFFFFF;stroke:#DB161B;stroke-width:0.0626;" d="M15.568,10.22h1.005c0.034,0,0.061,0.04,0.061,0.089v0.325
			c0,0.049-0.027,0.089-0.061,0.089h-1.005c-0.034,0-0.061-0.04-0.061-0.089v-0.325C15.507,10.26,15.535,10.22,15.568,10.22z"/>
		<path style="fill:#FFFFFF;stroke:#DB161B;stroke-width:0.0626;" d="M14.51,10.137h0.586c0.02,0,0.036,0.053,0.036,0.119v0.433
			c0,0.065-0.016,0.119-0.036,0.119H14.51c-0.02,0-0.036-0.053-0.036-0.119v-0.433C14.474,10.19,14.49,10.137,14.51,10.137z"/>
		<path style="fill:#FFFFFF;stroke:#DB161B;stroke-width:0.0626;" d="M11.408,10.137h0.586c0.02,0,0.036,0.053,0.036,0.119v0.433
			c0,0.065-0.016,0.119-0.036,0.119h-0.586c-0.02,0-0.036-0.053-0.036-0.119v-0.433C11.373,10.19,11.389,10.137,11.408,10.137z"/>
		<path style="fill:#FFFFFF;stroke:#DB161B;stroke-width:0.0626;" d="M9.376,10.052h1.173c0.039,0,0.071,0.066,0.071,0.148v0.542
			c0,0.082-0.032,0.148-0.071,0.148H9.376c-0.039,0-0.071-0.066-0.071-0.148V10.2C9.304,10.119,9.336,10.052,9.376,10.052z"/>
		<path style="fill:#FFFFFF;stroke:#DB161B;stroke-width:0.0626;" d="M17.547,10.137h1.089c0.037,0,0.066,0.066,0.066,0.148v0.542
			c0,0.082-0.03,0.148-0.066,0.148h-1.089c-0.037,0-0.066-0.066-0.066-0.148v-0.542C17.481,10.203,17.51,10.137,17.547,10.137z"/>
	</g>
</g>
</svg>
