<?xml version="1.0" encoding="iso-8859-1"?>
<!-- Generator: Adobe Illustrator 18.1.1, SVG Export Plug-In . SVG Version: 6.00 Build 0)  -->
<svg version="1.1" id="Layer_179" xmlns="http://www.w3.org/2000/svg" xmlns:xlink="http://www.w3.org/1999/xlink" x="0px" y="0px"
	 viewBox="0 0 56.692 56.692" style="enable-background:new 0 0 56.692 56.692;" xml:space="preserve">
<g>
	<defs>
		<circle id="SVGID_1_" cx="28.346" cy="28.347" r="28.346"/>
	</defs>
	<clipPath id="SVGID_2_">
		<use xlink:href="#SVGID_1_"  style="overflow:visible;"/>
	</clipPath>
	<g style="clip-path:url(#SVGID_2_);">
		<rect x="-9.449" y="0" width="75.591" height="56.693"/>
		<path style="fill:#CE1126;" d="M-9.449,0h75.591v56.693L-9.449,0z"/>
		<path style="fill:#FCD116;" d="M37.351,16.471c-0.558,0.721-1.879-0.725-3.462-0.758c-1.583-0.033-2.704,1.517-3.165,2.044
			c-0.462,0.528-1.945,3.297-1.912,3.594c0.033,0.297,0.923-0.824,1.253-1.022c0.033,0.396-0.363,0.857-0.264,0.989
			c0.099,0.132,1.154-0.791,1.517-0.824c0.099,0.264-0.198,0.528-0.099,0.923c0.132,0.132,0.725-0.659,1.121-0.824
			c0.066,0.297-0.363,0.857-0.132,1.22c0.165,0.033,1.154-1.121,1.484-1.253c0.33-0.132-0.165,1.088,0,1.187
			c0.297-0.198,1.22-1.253,1.517-1.385c0.297-0.132-0.033,1.352,0.099,1.352c0.363-0.264,1.286-1.517,1.385-1.715
			c0.099-0.198-0.099,1.912,0.923,3.034c1.022,1.121,2.572,2.407,2.737,2.407c0.198-0.363-0.066-1.121,0.099-1.088
			c0.462,0.495,1.319,1.22,1.517,1.22s-0.132-0.791,0.132-0.791c0.528,0.495,2.044,2.44,5.012,3.33
			c-0.198-0.561-0.627-1.055-0.659-1.319c0.198,0.033,0.89,0.363,1.022,0.33c0.132-0.033-1.451-1.978-1.352-2.242
			c0.363-0.033,0.528,0.198,0.659,0.033c-0.165-0.264-1.55-1.813-1.55-2.176c0-0.363,0.429,0.066,0.561,0
			c0.132-0.066-0.528-1.451-0.396-1.616s1.583,0.89,1.945,0.89c0.363,0,0.099-1.286,0.264-1.352
			c0.165-0.066,1.385,0.692,1.649,0.692c0.264,0,0.231-0.561,0.33-0.495c0.099,0.066,2.968,2.935,1.978,6.298
			c-0.989,2.407-2.967,3.693-5.869,2.638c0.165,0.264,1.715,1.55,3.396,1.088c1.682-0.462,3.726-1.781,3.495-5.078
			c-0.231-3.297-1.319-3.759-1.484-4.253c-0.165-0.495,0.264,0.132,0.627,0.264c0.363,0.132-0.066-0.693-0.165-1.055
			c-0.099-0.363,1.088,0.758,1.385,0.857s-0.692-2.704-0.989-2.902c-0.297-0.198,0.297,0.066,0.495,0.132s-1.814-3.066-2.242-3.066
			c-0.429,0,0.363-0.165,0.594-0.165c0.231,0-2.308-2.044-2.737-2.044s0.923-0.528,1.055-0.561c0.231,0.033-2.935-1.682-5.77,0.033
			c-0.165-0.132,1.335-1.17,1.385-1.616c0.017-0.115-0.494-0.363-0.528-0.495C44.176,10.8,45,10.404,45.033,10.108
			c-0.198-0.264-0.561-0.165-0.758-0.231c-0.049-0.247,0.693-0.857,0.627-1.121c-0.049-0.148-0.594-0.198-0.725-0.099
			c-0.132,0.099,0.346-0.692,0.264-0.923c-0.066-0.099-0.33-0.033-0.594,0.033c-0.165-0.033,0.857-1.451,0.659-1.649
			c-0.198-0.198-2.968,1.451-3.99,3.297c-1.022,1.847-0.231,3.33-0.363,3.957c-0.132,0.626-0.297,1.253-0.725,1.253
			c-0.429,0-1.418-0.659-1.747-0.989c-0.33-0.33-0.396-0.561-0.857-0.692c-0.462-0.132-1.517,0.264-1.912,0.297
			c-0.396,0.033-1.945-0.297-2.044-0.198c-0.099,0.099,1.517,0.692,1.879,0.89c0.363,0.198,0.396,0.462,0.659,0.626
			C35.669,14.724,38.142,15.449,37.351,16.471z M47.012,21.121c0.791,0.791,6.133,4.352,6.133,8.705s-3.891,4.221-5.012,4.089
			c1.253,1.055,6.001,0.857,6.001-4.089c0-4.352-6.133-8.705-6.924-9.1C46.418,20.329,46.22,20.329,47.012,21.121z"/>
		<g>
			<path style="fill:#FFFFFF;" d="M12.229,41.201l1.127-3.627l1.127,3.667l-2.969-2.247h3.683L12.229,41.201z"/>
			<path id="sl" style="fill:#FFFFFF;" d="M9.489,17.568l-2.255,7.254l5.938-4.416H5.807l5.938,4.495L9.489,17.568z"/>
			<g>
				<path id="sl_1_" style="fill:#FFFFFF;" d="M0.828,28.641l-2.255,7.254l5.938-4.416h-7.366l5.938,4.495L0.828,28.641z"/>
			</g>
			<g>
				<path id="sl_2_" style="fill:#FFFFFF;" d="M18.11,27.854l-2.255,7.254l5.938-4.416h-7.366l5.938,4.495L18.11,27.854z"/>
			</g>
			<g>
				<path id="sl_3_" style="fill:#FFFFFF;" d="M9.489,43.602l-2.255,7.254l5.938-4.416H5.807l5.938,4.495L9.489,43.602z"/>
			</g>
		</g>
	</g>
</g>
</svg>
