<?xml version="1.0" encoding="iso-8859-1"?>
<!-- Generator: Adobe Illustrator 18.1.1, SVG Export Plug-In . SVG Version: 6.00 Build 0)  -->
<svg version="1.1" id="Layer_46" xmlns="http://www.w3.org/2000/svg" xmlns:xlink="http://www.w3.org/1999/xlink" x="0px" y="0px"
	 viewBox="0 0 56.692 56.692" style="enable-background:new 0 0 56.692 56.692;" xml:space="preserve">
<g>
	<defs>
		<circle id="SVGID_1_" cx="28.346" cy="28.347" r="28.348"/>
	</defs>
	<clipPath id="SVGID_2_">
		<use xlink:href="#SVGID_1_"  style="overflow:visible;"/>
	</clipPath>
	<g style="clip-path:url(#SVGID_2_);">
		<rect x="7.998" y="28.349" style="fill:#CE1126;" width="56.693" height="28.346"/>
		<rect x="7.998" y="0" style="fill:#0038A8;" width="56.693" height="28.35"/>
		<polygon style="fill:#FFFFFF;" points="42.075,28.347 -6.173,56.695 -6.173,0 		"/>
	</g>
	<polygon style="clip-path:url(#SVGID_2_);fill:#FCD116;" points="31.506,26.482 33.719,27.146 35.108,25.189 35.141,27.601 
		37.329,28.27 35.168,29.086 35.112,31.392 33.758,29.546 31.483,30.298 32.87,28.341 	"/>
	<path style="clip-path:url(#SVGID_2_);fill:#FCD116;" d="M26.209,29.164l0.73-0.774l-0.73-0.772l-5.729,0.381
		c-0.01-0.122-0.021-0.245-0.037-0.364l5.187-0.631l-0.666-0.707l-4.578,0.969c-0.146-0.723-0.434-1.395-0.826-1.99l3.922-2.553
		l-0.027-0.971l-4.115,3.223c-0.074-0.098-0.15-0.193-0.231-0.285l4.32-3.781l-0.031-1.062l-1.062-0.031l-3.781,4.32
		c-0.092-0.08-0.188-0.156-0.285-0.231l3.225-4.115l-0.973-0.029l-2.553,3.927c-0.596-0.396-1.266-0.683-1.988-0.827l0.969-4.578
		l-0.709-0.668l-0.631,5.19c-0.119-0.017-0.24-0.029-0.363-0.038l0.381-5.729l-0.773-0.729l-0.773,0.729l0.381,5.729
		c-0.121,0.009-0.244,0.021-0.363,0.038l-0.631-5.19l-0.707,0.668l0.969,4.576c-0.725,0.147-1.396,0.434-1.99,0.826l-2.553-3.924
		l-0.971,0.029l3.221,4.115c-0.096,0.074-0.191,0.15-0.283,0.231l-3.781-4.32l-1.062,0.031l-0.031,1.062l4.32,3.781
		c-0.082,0.092-0.158,0.188-0.232,0.285l-4.113-3.223l-0.029,0.971l3.924,2.553c-0.394,0.594-0.68,1.266-0.826,1.99l-4.576-0.969
		l-0.668,0.707l5.187,0.631c-0.016,0.119-0.027,0.242-0.037,0.364l-5.728-0.381L2.77,28.39l0.729,0.774l5.728-0.381
		c0.01,0.123,0.022,0.245,0.037,0.366l-5.187,0.63l0.668,0.707l4.576-0.969c0.146,0.724,0.432,1.395,0.826,1.988l-3.924,2.553
		l0.029,0.973l4.113-3.223c0.074,0.098,0.15,0.193,0.232,0.285l-4.32,3.78l0.031,1.062l1.062,0.03l3.781-4.317
		c0.092,0.079,0.188,0.155,0.283,0.229l-3.221,4.114l0.971,0.028l2.553-3.924c0.594,0.396,1.266,0.681,1.99,0.826l-0.969,4.578
		l0.707,0.666l0.631-5.188c0.119,0.018,0.242,0.029,0.363,0.037l-0.381,5.729l0.773,0.73l0.773-0.73l-0.381-5.729
		c0.123-0.008,0.244-0.019,0.365-0.037l0.629,5.188l0.709-0.666l-0.969-4.578c0.723-0.146,1.395-0.431,1.988-0.826l2.553,3.924
		l0.973-0.028l-3.225-4.114c0.098-0.074,0.193-0.15,0.285-0.229l3.781,4.317l1.062-0.03l0.031-1.062l-4.32-3.782
		c0.08-0.092,0.156-0.188,0.231-0.283l4.115,3.223l0.029-0.973l-3.924-2.553c0.393-0.594,0.68-1.265,0.826-1.988l4.578,0.969
		l0.666-0.707l-5.187-0.633c0.016-0.118,0.027-0.24,0.037-0.363L26.209,29.164z"/>
</g>
</svg>
