<?xml version="1.0" encoding="iso-8859-1"?>
<!-- Generator: Adobe Illustrator 18.1.1, SVG Export Plug-In . SVG Version: 6.00 Build 0)  -->
<svg version="1.1" id="Layer_89" xmlns="http://www.w3.org/2000/svg" xmlns:xlink="http://www.w3.org/1999/xlink" x="0px" y="0px"
	 viewBox="0 0 56.692 56.692" style="enable-background:new 0 0 56.692 56.692;" xml:space="preserve">
<g>
	<defs>
		<circle id="SVGID_1_" cx="28.346" cy="28.346" r="28.347"/>
	</defs>
	<clipPath id="SVGID_2_">
		<use xlink:href="#SVGID_1_"  style="overflow:visible;"/>
	</clipPath>
	<rect x="7.49" y="0" style="clip-path:url(#SVGID_2_);fill:#01411C;" width="63.305" height="56.693"/>
	<rect x="-8.998" y="0" style="clip-path:url(#SVGID_2_);fill:#FFFFFF;" width="21.591" height="56.693"/>
	<g style="clip-path:url(#SVGID_2_);">
		<path style="fill:#FFFFFF;" d="M39.382,39.992c-8.525,0-15.438-6.912-15.438-15.438c0-5.047,2.422-9.529,6.169-12.346
			c-6.956,2.137-12.013,8.611-12.013,16.266c0,9.398,7.617,17.014,17.014,17.014c7.15,0,13.269-4.41,15.787-10.66
			C48.076,37.998,43.962,39.992,39.382,39.992z"/>
		<polygon style="fill:#FFFFFF;" points="40.949,15.636 43.744,18.687 47.675,16.957 45.513,20.693 48.259,23.728 44.193,22.998 
			41.986,26.492 41.597,22.418 37.408,21.478 41.341,19.746 		"/>
	</g>
</g>
</svg>
