<?xml version="1.0" encoding="iso-8859-1"?>
<!-- Generator: Adobe Illustrator 18.1.1, SVG Export Plug-In . SVG Version: 6.00 Build 0)  -->
<svg version="1.1" id="Layer_179" xmlns="http://www.w3.org/2000/svg" xmlns:xlink="http://www.w3.org/1999/xlink" x="0px" y="0px"
	 viewBox="0 0 56.692 56.692" style="enable-background:new 0 0 56.692 56.692;" xml:space="preserve">
<g>
	<defs>
		<circle id="SVGID_1_" cx="28.346" cy="28.347" r="28.346"/>
	</defs>
	<clipPath id="SVGID_2_">
		<use xlink:href="#SVGID_1_"  style="overflow:visible;"/>
	</clipPath>
	<g style="clip-path:url(#SVGID_2_);">
		<rect x="-10.52" y="0" style="fill:#FF0000;" width="85.04" height="56.693"/>
		<rect x="-10.52" y="0" style="fill:#006600;" width="34.016" height="56.693"/>
		<path style="fill:#FFFF00;stroke:#000000;stroke-width:0.0812;stroke-linecap:round;stroke-linejoin:round;" d="M34.585,37.139
			c-4.282-0.129-23.916-12.385-24.051-14.336l1.084-1.808c1.948,2.83,22.02,14.749,23.991,14.326L34.585,37.139"/>
		<path style="fill:#FFFF00;stroke:#000000;stroke-width:0.0812;stroke-linecap:round;stroke-linejoin:round;" d="M11.391,20.749
			c-0.384,1.034,5.124,4.439,11.75,8.469c6.626,4.03,12.34,6.521,12.764,6.163c0.026-0.046,0.208-0.36,0.192-0.358
			c-0.079,0.12-0.273,0.157-0.574,0.07c-1.79-0.516-6.46-2.66-12.242-6.166c-5.782-3.507-10.813-6.739-11.595-8.112
			c-0.054-0.095-0.093-0.269-0.085-0.404l-0.019,0l-0.166,0.291L11.391,20.749L11.391,20.749L11.391,20.749z M34.686,37.196
			c-0.073,0.132-0.208,0.136-0.465,0.108c-1.602-0.177-6.461-2.541-12.212-5.983c-6.691-4.005-12.217-7.655-11.618-8.609
			l0.163-0.288l0.032,0.01c-0.539,1.616,10.906,8.161,11.58,8.578c6.622,4.103,12.205,6.499,12.699,5.876L34.686,37.196
			L34.686,37.196L34.686,37.196z"/>
		<path style="fill:#FFFF00;stroke:#000000;stroke-width:0.0812;stroke-linecap:round;stroke-linejoin:round;" d="M23.466,36.896
			c-6.062-0.036-11.257-1.652-12.353-1.92l0.8,1.252c1.937,0.815,7.005,2.03,11.612,1.895c4.607-0.134,8.633-0.491,11.47-1.872
			l0.82-1.298C33.881,35.864,27.301,36.886,23.466,36.896"/>
		<path style="fill:#FFFF00;stroke:#000000;stroke-width:0.0812;stroke-linecap:round;stroke-linejoin:round;" d="M9.447,29.148
			c2.636,1.418,8.491,2.132,14.031,2.181c5.044,0.008,11.616-0.78,14.074-2.082l-0.068-1.419c-0.769,1.202-7.811,2.354-14.061,2.307
			c-6.249-0.047-12.053-1.012-13.987-2.262L9.447,29.148"/>
		<path style="fill:#FFFF00;stroke:#000000;stroke-width:0.0812;stroke-linecap:round;stroke-linejoin:round;" d="M37.686,28.944
			l0,0.338c-0.369,0.442-2.685,1.109-5.59,1.579c-2.21,0.339-5.092,0.595-8.683,0.595c-3.411,0-6.132-0.243-8.242-0.567
			c-3.335-0.486-5.468-1.336-5.896-1.59l0.002-0.395c1.286,0.855,4.771,1.481,5.941,1.672c2.096,0.322,4.8,0.563,8.195,0.563
			c3.574,0,6.44-0.254,8.636-0.591C34.134,30.248,37.102,29.466,37.686,28.944L37.686,28.944L37.686,28.944z M37.688,27.741l0,0.338
			c-0.369,0.441-2.685,1.109-5.59,1.579c-2.21,0.339-5.092,0.595-8.683,0.595c-3.411,0-6.132-0.243-8.242-0.567
			c-3.335-0.485-5.468-1.336-5.896-1.59l0.002-0.395c1.286,0.855,4.771,1.481,5.941,1.672c2.096,0.322,4.8,0.564,8.195,0.564
			c3.574,0,6.44-0.254,8.636-0.591C34.135,29.044,37.103,28.262,37.688,27.741L37.688,27.741L37.688,27.741z"/>
		<path style="fill:#FFFF00;stroke:#000000;stroke-width:0.078;stroke-linecap:round;stroke-linejoin:round;" d="M35.302,35.96
			c-0.12,0.184-0.243,0.366-0.368,0.543c-1.338,0.472-3.447,0.967-4.337,1.112c-1.818,0.375-4.63,0.651-7.126,0.652
			c-5.37-0.079-9.766-1.13-11.834-2.027l-0.167-0.287l0.027-0.043l0.283,0.11c3.678,1.316,7.808,1.841,11.721,1.935
			c2.486,0.009,4.974-0.285,6.986-0.645c3.086-0.618,4.333-1.084,4.716-1.296L35.302,35.96L35.302,35.96L35.302,35.96z
			 M36.013,34.787c0.003,0.004,0.006,0.007,0.009,0.011c-0.09,0.152-0.183,0.307-0.278,0.462c-0.714,0.255-2.651,0.822-5.479,1.217
			c-1.864,0.254-3.022,0.5-6.729,0.572c-6.947-0.177-11.445-1.535-12.514-1.87l-0.158-0.304c4.026,1.051,8.139,1.785,12.672,1.86
			c3.392-0.072,4.835-0.322,6.683-0.574c3.298-0.513,4.96-1.056,5.459-1.213c-0.006-0.009-0.014-0.019-0.022-0.028L36.013,34.787
			L36.013,34.787L36.013,34.787z"/>
		<path style="fill:#FFFF00;stroke:#000000;stroke-width:0.0812;stroke-linecap:round;stroke-linejoin:round;" d="M23.52,23.985
			c4.286-0.034,9.574-0.586,12.618-1.799l-0.656-1.065c-1.799,0.996-7.116,1.65-11.998,1.748c-5.774-0.053-9.849-0.591-11.891-1.961
			l-0.619,1.135C14.728,23.631,18.574,23.969,23.52,23.985"/>
		<path style="fill:#FFFF00;stroke:#000000;stroke-width:0.0812;stroke-linecap:round;stroke-linejoin:round;" d="M36.314,22.211
			c-0.105,0.167-2.09,0.852-5.014,1.357c-1.983,0.302-4.569,0.561-7.796,0.564c-3.066,0.003-5.571-0.215-7.467-0.472
			c-3.069-0.481-4.654-1.151-5.239-1.388c0.056-0.111,0.092-0.189,0.146-0.294c1.686,0.671,3.277,1.076,5.142,1.363
			c1.884,0.255,4.358,0.477,7.409,0.474c3.212-0.003,5.77-0.281,7.741-0.575c2.998-0.484,4.636-1.106,4.866-1.395L36.314,22.211
			L36.314,22.211L36.314,22.211z M35.739,21.13c-0.325,0.261-1.944,0.835-4.793,1.29c-1.901,0.272-4.319,0.516-7.408,0.519
			c-2.934,0.003-5.332-0.195-7.155-0.461c-2.893-0.378-4.433-1.06-4.988-1.258c0.055-0.096,0.111-0.19,0.169-0.285
			c0.432,0.218,1.918,0.821,4.851,1.236c1.803,0.256,4.204,0.446,7.124,0.443c3.074-0.003,5.464-0.252,7.354-0.523
			c2.864-0.394,4.405-1.126,4.639-1.31L35.739,21.13L35.739,21.13L35.739,21.13z"/>
		<path style="fill:#FFFF00;stroke:#000000;stroke-width:0.0792;stroke-linecap:round;stroke-linejoin:round;" d="M23.446,14.727
			L23.446,14.727c-7.528,0-13.667,6.126-13.667,13.637S15.919,42,23.446,42s13.719-6.126,13.719-13.637
			C37.165,20.852,30.974,14.727,23.446,14.727z M23.494,40.88c-6.871,0-12.53-5.639-12.53-12.531c0-6.892,5.66-12.532,12.53-12.532
			h0h0l0,0c6.871,0,12.53,5.64,12.53,12.532C36.024,35.24,30.365,40.88,23.494,40.88z"/>
		<path style="fill:#FFFF00;stroke:#000000;stroke-width:0.0812;stroke-linecap:round;stroke-linejoin:round;" d="M23.446,14.374
			L23.446,14.374c-7.722,0-14.021,6.284-14.021,13.99c0,7.705,6.298,13.99,14.021,13.99s14.074-6.284,14.074-13.99
			C37.519,20.658,31.168,14.374,23.446,14.374z M23.495,41.204c-7.048,0-12.854-5.785-12.854-12.856
			c0-7.07,5.806-12.856,12.854-12.856h0h0l0,0c7.049,0,12.854,5.786,12.854,12.856C36.349,35.418,30.543,41.204,23.495,41.204z"/>
		<path style="fill:#FFFF00;stroke:#000000;stroke-width:0.0812;stroke-linecap:round;stroke-linejoin:round;" d="M23.483,14.326
			c7.729,0,14.033,6.305,14.033,14.035c0,7.73-6.304,14.034-14.033,14.034c-7.729,0-14.033-6.304-14.033-14.034
			S15.754,14.326,23.483,14.326L23.483,14.326z M9.759,28.361c0,7.549,6.199,13.726,13.724,13.726
			c7.526,0,13.724-6.177,13.724-13.726c0-7.549-6.199-13.726-13.724-13.726S9.759,20.812,9.759,28.361L9.759,28.361z"/>
		<path style="fill:#FFFF00;stroke:#000000;stroke-width:0.0812;stroke-linecap:round;stroke-linejoin:round;" d="M24.06,14.269
			h-1.203l0.001,28.199h1.207L24.06,14.269z"/>
		<path style="fill:#FFFF00;stroke:#000000;stroke-width:0.0812;stroke-linecap:round;stroke-linejoin:round;" d="M23.94,14.109
			h0.306l0.003,28.524h-0.306L23.94,14.109L23.94,14.109z M22.746,14.109h0.308l0,28.524h-0.309L22.746,14.109L22.746,14.109z"/>
		<path style="fill:#FFFF00;stroke:#000000;stroke-width:0.0812;stroke-linecap:round;stroke-linejoin:round;" d="M37.526,28.904
			v-1.043l-0.849-0.791l-4.819-1.276l-6.945-0.709l-8.362,0.425l-5.953,1.417l-1.202,0.89v1.043l3.044-1.366l7.228-1.134h6.945
			l5.102,0.567l3.543,0.85L37.526,28.904z"/>
		<path style="fill:#FFFF00;stroke:#000000;stroke-width:0.0812;stroke-linecap:round;stroke-linejoin:round;" d="M23.489,26.188
			c3.314-0.006,6.53,0.314,9.08,0.811c2.632,0.526,4.484,1.184,5.117,1.923l-0.001,0.366c-0.764-0.92-3.256-1.594-5.176-1.98
			c-2.531-0.492-5.725-0.81-9.021-0.804c-3.478,0.007-6.716,0.336-9.21,0.823c-2.001,0.397-4.67,1.186-5.003,1.964v-0.381
			c0.183-0.539,2.17-1.344,4.958-1.902C16.746,26.518,19.991,26.194,23.489,26.188L23.489,26.188z M23.49,24.984
			c3.314-0.006,6.53,0.314,9.08,0.811c2.632,0.526,4.484,1.184,5.117,1.923l-0.001,0.366c-0.764-0.92-3.256-1.594-5.176-1.979
			c-2.531-0.493-5.725-0.811-9.021-0.804c-3.478,0.006-6.701,0.336-9.195,0.822c-1.931,0.366-4.709,1.186-5.019,1.964v-0.381
			c0.183-0.533,2.211-1.367,4.959-1.902C16.748,25.314,19.992,24.991,23.49,24.984L23.49,24.984z"/>
		<path style="fill:#FFFF00;stroke:#000000;stroke-width:0.0812;stroke-linecap:round;stroke-linejoin:round;" d="M23.422,18.844
			c5.223-0.026,9.778,0.73,11.862,1.798l0.76,1.315c-1.811-0.976-6.726-1.991-12.615-1.84c-4.798,0.03-9.925,0.528-12.497,1.901
			l0.908-1.518C13.951,19.406,18.93,18.85,23.422,18.844"/>
		<path style="fill:#FFFF00;stroke:#000000;stroke-width:0.0812;stroke-linecap:round;stroke-linejoin:round;" d="M23.492,19.93
			c2.979-0.008,5.857,0.16,8.146,0.573c2.132,0.397,4.165,0.992,4.456,1.313l0.225,0.398c-0.707-0.462-2.466-0.976-4.725-1.404
			c-2.269-0.426-5.145-0.568-8.107-0.56c-3.362-0.011-5.974,0.166-8.216,0.557c-2.371,0.444-4.016,1.077-4.422,1.379l0.221-0.421
			c0.788-0.402,2.04-0.887,4.142-1.266C17.53,20.075,20.17,19.948,23.492,19.93L23.492,19.93L23.492,19.93z M23.49,18.728
			c2.851-0.007,5.665,0.151,7.859,0.546c1.73,0.337,3.442,0.863,4.068,1.331l0.33,0.524c-0.56-0.623-2.67-1.213-4.532-1.544
			c-2.177-0.376-4.875-0.524-7.726-0.548c-2.992,0.008-5.757,0.192-7.902,0.582c-2.047,0.389-3.368,0.851-3.926,1.211l0.29-0.438
			c0.771-0.406,2.017-0.779,3.586-1.084C17.699,18.914,20.481,18.736,23.49,18.728L23.49,18.728z"/>
		<path style="fill:#FFFF00;stroke:#000000;stroke-width:0.0812;stroke-linecap:round;stroke-linejoin:round;" d="M30.462,34.194
			c-2.582-0.482-5.169-0.552-6.976-0.531c-8.703,0.102-11.515,1.787-11.858,2.297l-0.65-1.06c2.216-1.606,6.955-2.507,12.556-2.415
			c2.908,0.048,5.418,0.241,7.529,0.65L30.462,34.194"/>
		<path style="fill:#FFFF00;stroke:#000000;stroke-width:0.078;stroke-linecap:round;stroke-linejoin:round;" d="M23.436,33.514
			c2.421,0.036,4.798,0.136,7.091,0.564l-0.166,0.293c-2.13-0.393-4.402-0.544-6.917-0.532c-3.212-0.025-6.461,0.275-9.289,1.087
			c-0.892,0.248-2.37,0.822-2.521,1.296l-0.165-0.272c0.048-0.28,0.941-0.862,2.61-1.331C17.319,33.691,20.35,33.535,23.436,33.514
			L23.436,33.514L23.436,33.514z M23.546,32.295c2.508,0.047,5.099,0.163,7.617,0.662l-0.173,0.305
			c-2.274-0.451-4.446-0.602-7.429-0.648c-3.222,0.006-6.64,0.236-9.748,1.139c-1.003,0.292-2.735,0.924-2.793,1.424l-0.165-0.293
			c0.038-0.454,1.537-1.047,2.885-1.439C16.872,32.535,20.299,32.301,23.546,32.295L23.546,32.295z"/>
		<path style="fill:#FFFF00;stroke:#000000;stroke-width:0.0812;stroke-linecap:round;stroke-linejoin:round;" d="M35.909,35.062
			l-1.046,1.623l-3.005-2.669l-7.795-5.244l-8.787-4.819l-4.562-1.56l0.972-1.803l0.33-0.18l2.835,0.709l9.354,4.819l5.386,3.402
			l4.535,3.26l1.843,2.126L35.909,35.062z"/>
		<path style="fill:#FFFF00;stroke:#000000;stroke-width:0.0812;stroke-linecap:round;stroke-linejoin:round;" d="M10.549,22.434
			c0.8-0.543,6.681,2.077,12.835,5.788c6.137,3.721,12.002,7.926,11.472,8.713l-0.174,0.274l-0.08,0.063
			c0.017-0.012,0.105-0.12-0.009-0.412c-0.261-0.86-4.421-4.18-11.324-8.347c-6.729-4.012-12.337-6.431-12.897-5.739L10.549,22.434
			L10.549,22.434L10.549,22.434z M36.123,35.038c0.506-1-4.949-5.109-11.712-9.109c-6.918-3.921-11.905-6.229-12.816-5.541
			l-0.202,0.368c-0.002,0.02,0.007-0.025,0.05-0.058c0.166-0.144,0.44-0.135,0.564-0.137c1.568,0.024,6.047,2.085,12.332,5.687
			c2.754,1.604,11.632,7.298,11.598,8.899c0.002,0.138,0.011,0.166-0.04,0.234L36.123,35.038L36.123,35.038L36.123,35.038z"/>
		<g>
			<path style="fill:#FFFFFF;stroke:#000000;stroke-width:0.095;" d="M15.077,29.907c0,2.306,0.944,4.392,2.474,5.916
				c1.533,1.528,3.616,2.492,5.926,2.492c2.322,0,4.429-0.943,5.955-2.465c1.526-1.522,2.472-3.622,2.473-5.936h0V18.69
				l-16.829-0.02L15.077,29.907L15.077,29.907L15.077,29.907z"/>
			<path style="fill:#FF0000;stroke:#000000;stroke-width:0.0719;" d="M15.392,29.922v0.006c0,2.205,0.913,4.213,2.378,5.671
				c1.468,1.461,3.489,2.369,5.7,2.369c2.223,0,4.24-0.902,5.701-2.356c1.461-1.455,2.367-3.463,2.367-5.676h0V19.047l-16.135-0.003
				L15.392,29.922 M28.292,22.304l0.001,6.929l-0.006,0.733h0c0,0.193-0.012,0.413-0.034,0.6c-0.131,1.096-0.635,2.05-1.381,2.793
				c-0.874,0.87-2.079,1.409-3.408,1.409c-1.322,0-2.5-0.558-3.377-1.432c-0.9-0.896-1.422-2.124-1.422-3.394l-0.002-7.657
				L28.292,22.304L28.292,22.304L28.292,22.304z"/>
			<g>
				<g id="castle">
					<path style="fill:#FFFF00;" d="M16.436,21.887c0.019-0.783,0.574-0.968,0.578-0.971c0.004-0.003,0.6,0.2,0.598,0.978
						L16.436,21.887"/>
					<path style="fill:#FFFF00;stroke:#000000;stroke-width:0.0709;" d="M15.957,20.932l-0.097,0.899l0.587,0.001
						c0.006-0.744,0.563-0.868,0.577-0.865c0.013-0.001,0.565,0.164,0.58,0.865h0.588l-0.106-0.906L15.957,20.932L15.957,20.932
						L15.957,20.932z"/>
					<path style="fill:#FFFF00;stroke:#000000;stroke-width:0.0709;" d="M15.821,21.835h2.402c0.051,0,0.092,0.05,0.092,0.111
						c0,0.061-0.041,0.111-0.092,0.111h-2.402c-0.051,0-0.092-0.05-0.092-0.111C15.729,21.885,15.771,21.835,15.821,21.835z"/>
					<path style="fill:#FFFF00;stroke:#000000;stroke-width:0.0709;" d="M16.694,21.831c0.003-0.47,0.321-0.602,0.322-0.602
						c0,0,0.332,0.137,0.335,0.602H16.694"/>
					<path style="fill:#FFFF00;stroke:#000000;stroke-width:0.0709;" d="M15.872,20.558h2.302c0.048,0,0.088,0.045,0.088,0.1
						c0,0.055-0.04,0.1-0.088,0.1h-2.302c-0.048,0-0.088-0.045-0.088-0.1C15.784,20.603,15.824,20.558,15.872,20.558z"/>
					<path style="fill:#FFFF00;stroke:#000000;stroke-width:0.0709;" d="M15.92,20.759h2.202c0.046,0,0.084,0.045,0.084,0.1
						c0,0.055-0.038,0.1-0.084,0.1H15.92c-0.046,0-0.084-0.045-0.084-0.1C15.836,20.804,15.874,20.759,15.92,20.759z"/>
					<path style="fill:#FFFF00;stroke:#000000;stroke-width:0.0709;" d="M16.632,19.258l0.174,0v0.124h0.127v-0.126l0.178,0.001
						v0.126h0.127v-0.126h0.178l0,0.285c0,0.045-0.036,0.074-0.078,0.074h-0.625c-0.042,0-0.081-0.034-0.081-0.075L16.632,19.258
						L16.632,19.258L16.632,19.258z"/>
					<path style="fill:#FFFF00;stroke:#000000;stroke-width:0.0709;" d="M17.287,19.64l0.039,0.914l-0.61-0.002l0.04-0.915
						L17.287,19.64"/>
					<path id="cp1" style="fill:#FFFF00;stroke:#000000;stroke-width:0.0709;" d="M16.543,20.063l0.019,0.493l-0.585,0l0.016-0.493
						L16.543,20.063L16.543,20.063L16.543,20.063z"/>
					<g>
						<path id="cp1_1_" style="fill:#FFFF00;stroke:#000000;stroke-width:0.0709;" d="M18.046,20.063l0.019,0.493l-0.585,0
							l0.016-0.493L18.046,20.063L18.046,20.063L18.046,20.063z"/>
					</g>
					<path id="cp2" style="fill:#FFFF00;stroke:#000000;stroke-width:0.0709;" d="M15.885,19.706l0.17,0v0.124h0.124v-0.127
						l0.174,0.001v0.126h0.125v-0.127l0.174,0l0,0.285c0,0.045-0.035,0.073-0.076,0.073h-0.612c-0.041,0-0.079-0.033-0.079-0.074
						L15.885,19.706L15.885,19.706L15.885,19.706z"/>
					<g>
						<path id="cp2_1_" style="fill:#FFFF00;stroke:#000000;stroke-width:0.0709;" d="M17.389,19.706l0.17,0v0.124h0.124v-0.127
							l0.174,0.001v0.126h0.125v-0.127l0.174,0l0,0.285c0,0.045-0.035,0.073-0.076,0.073h-0.612c-0.041,0-0.079-0.033-0.079-0.074
							L17.389,19.706L17.389,19.706L17.389,19.706z"/>
					</g>
					<path d="M16.962,19.929c-0.004-0.089,0.124-0.09,0.123,0v0.218h-0.123L16.962,19.929"/>
					<path id="cp3" d="M16.207,20.245c0-0.086,0.119-0.088,0.117,0v0.168h-0.117L16.207,20.245"/>
					<g>
						<path id="cp3_1_" d="M17.715,20.245c0-0.086,0.119-0.088,0.117,0v0.168h-0.117L17.715,20.245"/>
					</g>
				</g>
				<g>
					<g id="castle_1_">
						<path style="fill:#FFFF00;" d="M16.436,28.452c0.019-0.783,0.574-0.968,0.578-0.971c0.004-0.003,0.6,0.2,0.598,0.978
							L16.436,28.452"/>
						<path style="fill:#FFFF00;stroke:#000000;stroke-width:0.0709;" d="M15.957,27.497l-0.097,0.899l0.587,0.001
							c0.006-0.744,0.563-0.868,0.577-0.865c0.013-0.001,0.565,0.164,0.58,0.865h0.588l-0.106-0.906L15.957,27.497L15.957,27.497
							L15.957,27.497z"/>
						<path style="fill:#FFFF00;stroke:#000000;stroke-width:0.0709;" d="M15.821,28.4h2.402c0.051,0,0.092,0.05,0.092,0.111
							c0,0.061-0.041,0.111-0.092,0.111h-2.402c-0.051,0-0.092-0.05-0.092-0.111C15.729,28.45,15.771,28.4,15.821,28.4z"/>
						<path style="fill:#FFFF00;stroke:#000000;stroke-width:0.0709;" d="M16.694,28.396c0.003-0.47,0.321-0.602,0.322-0.602
							c0,0,0.332,0.137,0.335,0.602H16.694"/>
						<path style="fill:#FFFF00;stroke:#000000;stroke-width:0.0709;" d="M15.872,27.123h2.302c0.048,0,0.088,0.045,0.088,0.1
							c0,0.055-0.04,0.1-0.088,0.1h-2.302c-0.048,0-0.088-0.045-0.088-0.1C15.784,27.168,15.824,27.123,15.872,27.123z"/>
						<path style="fill:#FFFF00;stroke:#000000;stroke-width:0.0709;" d="M15.92,27.324h2.202c0.046,0,0.084,0.045,0.084,0.1
							c0,0.055-0.038,0.1-0.084,0.1H15.92c-0.046,0-0.084-0.045-0.084-0.1C15.836,27.369,15.874,27.324,15.92,27.324z"/>
						<path style="fill:#FFFF00;stroke:#000000;stroke-width:0.0709;" d="M16.632,25.823l0.174,0v0.124h0.127v-0.126l0.178,0.001
							v0.126h0.127v-0.126h0.178l0,0.285c0,0.045-0.036,0.074-0.078,0.074h-0.625c-0.042,0-0.081-0.034-0.081-0.075L16.632,25.823
							L16.632,25.823L16.632,25.823z"/>
						<path style="fill:#FFFF00;stroke:#000000;stroke-width:0.0709;" d="M17.287,26.205l0.039,0.914l-0.61-0.002l0.04-0.915
							L17.287,26.205"/>
						<path id="cp1_2_" style="fill:#FFFF00;stroke:#000000;stroke-width:0.0709;" d="M16.543,26.628l0.019,0.493l-0.585,0
							l0.016-0.493L16.543,26.628L16.543,26.628L16.543,26.628z"/>
						<g>
							<path id="cp1_3_" style="fill:#FFFF00;stroke:#000000;stroke-width:0.0709;" d="M18.046,26.628l0.019,0.493l-0.585,0
								l0.016-0.493L18.046,26.628L18.046,26.628L18.046,26.628z"/>
						</g>
						<path id="cp2_2_" style="fill:#FFFF00;stroke:#000000;stroke-width:0.0709;" d="M15.885,26.271l0.17,0v0.124h0.124v-0.127
							l0.174,0.001v0.126h0.125v-0.127l0.174,0l0,0.285c0,0.045-0.035,0.074-0.076,0.074h-0.612c-0.041,0-0.079-0.033-0.079-0.075
							L15.885,26.271L15.885,26.271L15.885,26.271z"/>
						<g>
							<path id="cp2_3_" style="fill:#FFFF00;stroke:#000000;stroke-width:0.0709;" d="M17.389,26.271l0.17,0v0.124h0.124v-0.127
								l0.174,0.001v0.126h0.125v-0.127l0.174,0l0,0.285c0,0.045-0.035,0.074-0.076,0.074h-0.612c-0.041,0-0.079-0.033-0.079-0.075
								L17.389,26.271L17.389,26.271L17.389,26.271z"/>
						</g>
						<path d="M16.962,26.494c-0.004-0.089,0.124-0.09,0.123,0v0.218h-0.123L16.962,26.494"/>
						<path id="cp3_2_" d="M16.207,26.81c0-0.086,0.119-0.088,0.117,0v0.168h-0.117L16.207,26.81"/>
						<g>
							<path id="cp3_3_" d="M17.715,26.81c0-0.086,0.119-0.088,0.117,0v0.168h-0.117L17.715,26.81"/>
						</g>
					</g>
					<g id="castle3">
						<g id="castle_2_">
							<path style="fill:#FFFF00;" d="M18.996,35.286c-0.542-0.565-0.282-1.089-0.281-1.094c0.001-0.005,0.564-0.285,1.115,0.265
								L18.996,35.286"/>
							<path style="fill:#FFFF00;stroke:#000000;stroke-width:0.0709;" d="M17.981,34.953l0.57,0.702l0.414-0.416
								c-0.524-0.528-0.219-1.011-0.207-1.019c0.008-0.009,0.515-0.285,1.023,0.198l0.415-0.417l-0.718-0.563L17.981,34.953
								L17.981,34.953L17.981,34.953z"/>
							<path style="fill:#FFFF00;stroke:#000000;stroke-width:0.0709;" d="M18.525,35.686l1.692-1.704
								c0.036-0.036,0.1-0.03,0.144,0.013c0.043,0.043,0.049,0.107,0.014,0.143l-1.692,1.704c-0.036,0.036-0.1,0.03-0.143-0.013
								C18.496,35.786,18.49,35.721,18.525,35.686z"/>
							<path style="fill:#FFFF00;stroke:#000000;stroke-width:0.0709;" d="M19.138,35.063c-0.331-0.333-0.202-0.652-0.2-0.653
								c0,0,0.331-0.139,0.663,0.187L19.138,35.063"/>
							<path style="fill:#FFFF00;stroke:#000000;stroke-width:0.0709;" d="M17.655,34.75l1.622-1.634
								c0.034-0.034,0.094-0.031,0.133,0.008c0.039,0.039,0.043,0.099,0.009,0.133l-1.622,1.634
								c-0.034,0.034-0.094,0.031-0.133-0.008C17.625,34.844,17.621,34.784,17.655,34.75z"/>
							<path style="fill:#FFFF00;stroke:#000000;stroke-width:0.0709;" d="M17.832,34.857l1.552-1.563
								c0.033-0.033,0.091-0.028,0.13,0.01c0.039,0.039,0.044,0.097,0.011,0.13l-1.552,1.563c-0.033,0.033-0.091,0.028-0.13-0.011
								C17.804,34.949,17.799,34.89,17.832,34.857z"/>
							<path style="fill:#FFFF00;stroke:#000000;stroke-width:0.0709;" d="M17.268,33.295l0.123-0.123l0.088,0.087l0.089-0.09
								l-0.09-0.089l0.126-0.126l0.089,0.089l0.09-0.09l-0.09-0.089l0.126-0.126l0.202,0.201c0.032,0.032,0.027,0.078-0.002,0.107
								l-0.441,0.444c-0.03,0.03-0.081,0.034-0.11,0.005L17.268,33.295L17.268,33.295L17.268,33.295z"/>
							<path style="fill:#FFFF00;stroke:#000000;stroke-width:0.0709;" d="M18,33.099l0.676,0.616l-0.431,0.431l-0.62-0.673
								L18,33.099"/>
							<path id="cp1_4_" style="fill:#FFFF00;stroke:#000000;stroke-width:0.0709;" d="M17.777,33.925l0.363,0.334l-0.412,0.415
								l-0.338-0.359L17.777,33.925L17.777,33.925L17.777,33.925z"/>
							<g>
								<path id="cp1_5_" style="fill:#FFFF00;stroke:#000000;stroke-width:0.0709;" d="M18.836,32.858l0.363,0.334l-0.412,0.415
									l-0.338-0.359L18.836,32.858L18.836,32.858L18.836,32.858z"/>
							</g>
							<path id="cp2_4_" style="fill:#FFFF00;stroke:#000000;stroke-width:0.0709;" d="M17.06,34.14l0.12-0.12l0.088,0.087
								l0.088-0.088l-0.09-0.089l0.123-0.123l0.089,0.089l0.088-0.088l-0.09-0.089l0.123-0.124l0.202,0.201
								c0.032,0.031,0.027,0.077-0.001,0.106l-0.431,0.434c-0.029,0.029-0.079,0.033-0.109,0.004L17.06,34.14L17.06,34.14
								L17.06,34.14z"/>
							<g>
								<path id="cp2_5_" style="fill:#FFFF00;stroke:#000000;stroke-width:0.0709;" d="M18.119,33.073l0.12-0.12l0.088,0.087
									l0.088-0.088l-0.09-0.089l0.123-0.123l0.089,0.089l0.088-0.088l-0.09-0.089l0.123-0.124l0.202,0.201
									c0.032,0.031,0.027,0.077-0.001,0.106l-0.431,0.434c-0.029,0.029-0.079,0.033-0.109,0.004L18.119,33.073L18.119,33.073
									L18.119,33.073z"/>
							</g>
							<path d="M17.977,33.533c-0.066-0.06,0.024-0.151,0.086-0.087l0.155,0.153l-0.086,0.087L17.977,33.533"/>
							<path id="cp3_4_" d="M17.669,34.291c-0.061-0.06,0.021-0.146,0.083-0.083l0.119,0.119l-0.082,0.083L17.669,34.291"/>
							<g transform="matrix(0.70460892,-0.70959585,0.70959585,0.70460892,-35.341459,275.10898)">
								<path id="cp3_5_" d="M18.731,33.221c-0.061-0.06,0.021-0.146,0.083-0.083l0.119,0.119l-0.082,0.083L18.731,33.221"/>
							</g>
						</g>
					</g>
					<g>
						<g id="castle_3_">
							<path style="fill:#FFFF00;" d="M22.915,21.887c0.019-0.783,0.574-0.968,0.578-0.971c0.004-0.003,0.6,0.2,0.598,0.978
								L22.915,21.887"/>
							<path style="fill:#FFFF00;stroke:#000000;stroke-width:0.0709;" d="M22.436,20.932l-0.097,0.899l0.587,0.001
								c0.006-0.744,0.563-0.868,0.577-0.865c0.013-0.001,0.565,0.164,0.58,0.865h0.588l-0.106-0.906L22.436,20.932L22.436,20.932
								L22.436,20.932z"/>
							<path style="fill:#FFFF00;stroke:#000000;stroke-width:0.0709;" d="M22.3,21.835h2.402c0.051,0,0.092,0.05,0.092,0.111
								c0,0.061-0.041,0.111-0.092,0.111H22.3c-0.051,0-0.092-0.05-0.092-0.111C22.208,21.885,22.25,21.835,22.3,21.835z"/>
							<path style="fill:#FFFF00;stroke:#000000;stroke-width:0.0709;" d="M23.173,21.831c0.003-0.47,0.321-0.602,0.322-0.602
								c0,0,0.332,0.137,0.335,0.602H23.173"/>
							<path style="fill:#FFFF00;stroke:#000000;stroke-width:0.0709;" d="M22.351,20.558h2.302c0.048,0,0.088,0.045,0.088,0.1
								c0,0.055-0.04,0.1-0.088,0.1h-2.302c-0.048,0-0.088-0.045-0.088-0.1C22.263,20.603,22.303,20.558,22.351,20.558z"/>
							<path style="fill:#FFFF00;stroke:#000000;stroke-width:0.0709;" d="M22.4,20.759h2.202c0.046,0,0.084,0.045,0.084,0.1
								c0,0.055-0.038,0.1-0.084,0.1H22.4c-0.046,0-0.084-0.045-0.084-0.1C22.315,20.804,22.353,20.759,22.4,20.759z"/>
							<path style="fill:#FFFF00;stroke:#000000;stroke-width:0.0709;" d="M23.111,19.258l0.174,0v0.124h0.127v-0.126l0.178,0.001
								v0.126h0.127v-0.126h0.178l0,0.285c0,0.045-0.036,0.074-0.078,0.074h-0.625c-0.042,0-0.081-0.034-0.081-0.075L23.111,19.258
								L23.111,19.258L23.111,19.258z"/>
							<path style="fill:#FFFF00;stroke:#000000;stroke-width:0.0709;" d="M23.766,19.64l0.039,0.914l-0.61-0.002l0.04-0.915
								L23.766,19.64"/>
							<path id="cp1_6_" style="fill:#FFFF00;stroke:#000000;stroke-width:0.0709;" d="M23.022,20.063l0.019,0.493l-0.585,0
								l0.016-0.493L23.022,20.063L23.022,20.063L23.022,20.063z"/>
							<g>
								<path id="cp1_7_" style="fill:#FFFF00;stroke:#000000;stroke-width:0.0709;" d="M24.525,20.063l0.019,0.493l-0.585,0
									l0.016-0.493L24.525,20.063L24.525,20.063L24.525,20.063z"/>
							</g>
							<path id="cp2_6_" style="fill:#FFFF00;stroke:#000000;stroke-width:0.0709;" d="M22.364,19.706l0.17,0v0.124h0.124v-0.127
								l0.174,0.001v0.126h0.125v-0.127l0.174,0l0,0.285c0,0.045-0.035,0.073-0.076,0.073h-0.612c-0.041,0-0.079-0.033-0.079-0.074
								L22.364,19.706L22.364,19.706L22.364,19.706z"/>
							<g>
								<path id="cp2_7_" style="fill:#FFFF00;stroke:#000000;stroke-width:0.0709;" d="M23.868,19.706l0.17,0v0.124h0.124v-0.127
									l0.174,0.001v0.126h0.125v-0.127l0.174,0l0,0.285c0,0.045-0.035,0.073-0.076,0.073h-0.612c-0.041,0-0.079-0.033-0.079-0.074
									L23.868,19.706L23.868,19.706L23.868,19.706z"/>
							</g>
							<path d="M23.441,19.929c-0.004-0.089,0.124-0.09,0.123,0v0.218h-0.123L23.441,19.929"/>
							<path id="cp3_6_" d="M22.686,20.245c0-0.086,0.119-0.088,0.117,0v0.168h-0.117L22.686,20.245"/>
							<g>
								<path id="cp3_7_" d="M24.194,20.245c0-0.086,0.119-0.088,0.117,0v0.168h-0.117L24.194,20.245"/>
							</g>
						</g>
						<g>
							<g>
								<g id="castle_4_">
									<path style="fill:#FFFF00;" d="M30.526,21.887c-0.019-0.783-0.574-0.968-0.578-0.971c-0.004-0.003-0.6,0.2-0.598,0.978
										L30.526,21.887"/>
									<path style="fill:#FFFF00;stroke:#000000;stroke-width:0.0709;" d="M31.005,20.932l0.097,0.899l-0.587,0.001
										c-0.006-0.744-0.563-0.868-0.577-0.865c-0.013-0.001-0.565,0.164-0.58,0.865H28.77l0.106-0.906L31.005,20.932
										L31.005,20.932L31.005,20.932z"/>
									<path style="fill:#FFFF00;stroke:#000000;stroke-width:0.0709;" d="M31.141,21.835H28.74c-0.051,0-0.092,0.05-0.092,0.111
										c0,0.061,0.041,0.111,0.092,0.111h2.402c0.051,0,0.092-0.05,0.092-0.111C31.233,21.885,31.192,21.835,31.141,21.835z"/>
									<path style="fill:#FFFF00;stroke:#000000;stroke-width:0.0709;" d="M30.268,21.831c-0.003-0.47-0.321-0.602-0.322-0.602
										c0,0-0.332,0.137-0.335,0.602H30.268"/>
									<path style="fill:#FFFF00;stroke:#000000;stroke-width:0.0709;" d="M31.09,20.558h-2.302c-0.048,0-0.088,0.045-0.088,0.1
										c0,0.055,0.04,0.1,0.088,0.1h2.302c0.048,0,0.088-0.045,0.088-0.1C31.179,20.603,31.139,20.558,31.09,20.558z"/>
									<path style="fill:#FFFF00;stroke:#000000;stroke-width:0.0709;" d="M31.042,20.759H28.84c-0.046,0-0.084,0.045-0.084,0.1
										c0,0.055,0.038,0.1,0.084,0.1h2.202c0.046,0,0.084-0.045,0.084-0.1C31.127,20.804,31.089,20.759,31.042,20.759z"/>
									<path style="fill:#FFFF00;stroke:#000000;stroke-width:0.0709;" d="M30.331,19.258l-0.174,0v0.124H30.03v-0.126
										l-0.178,0.001v0.126h-0.127v-0.126h-0.178l0,0.285c0,0.045,0.036,0.074,0.078,0.074h0.625c0.042,0,0.081-0.034,0.081-0.075
										L30.331,19.258L30.331,19.258L30.331,19.258z"/>
									<path style="fill:#FFFF00;stroke:#000000;stroke-width:0.0709;" d="M29.676,19.64l-0.039,0.914l0.61-0.002l-0.04-0.915
										L29.676,19.64"/>
									<path id="cp1_8_" style="fill:#FFFF00;stroke:#000000;stroke-width:0.0709;" d="M30.42,20.063l-0.019,0.493l0.585,0
										l-0.016-0.493L30.42,20.063L30.42,20.063L30.42,20.063z"/>
									<g>
										<path id="cp1_9_" style="fill:#FFFF00;stroke:#000000;stroke-width:0.0709;" d="M28.916,20.063l-0.019,0.493l0.585,0
											l-0.016-0.493L28.916,20.063L28.916,20.063L28.916,20.063z"/>
									</g>
									<path id="cp2_8_" style="fill:#FFFF00;stroke:#000000;stroke-width:0.0709;" d="M31.078,19.706l-0.17,0v0.124h-0.124
										v-0.127l-0.174,0.001v0.126h-0.125v-0.127l-0.174,0l0,0.285c0,0.045,0.035,0.073,0.076,0.073h0.612
										c0.041,0,0.079-0.033,0.079-0.074L31.078,19.706L31.078,19.706L31.078,19.706z"/>
									<g>
										<path id="cp2_9_" style="fill:#FFFF00;stroke:#000000;stroke-width:0.0709;" d="M29.574,19.706l-0.17,0v0.124H29.28
											v-0.127l-0.174,0.001v0.126h-0.125v-0.127l-0.174,0l0,0.285c0,0.045,0.035,0.073,0.076,0.073h0.612
											c0.041,0,0.079-0.033,0.079-0.074L29.574,19.706L29.574,19.706L29.574,19.706z"/>
									</g>
									<path d="M30,19.929c0.004-0.089-0.124-0.09-0.123,0v0.218H30L30,19.929"/>
									<path id="cp3_8_" d="M30.756,20.245c0-0.086-0.119-0.088-0.117,0v0.168h0.117L30.756,20.245"/>
									<g>
										<path id="cp3_9_" d="M29.248,20.245c0-0.086-0.119-0.088-0.117,0v0.168h0.117L29.248,20.245"/>
									</g>
								</g>
								<g>
									<g id="castle_5_">
										<path style="fill:#FFFF00;" d="M30.526,28.452c-0.019-0.783-0.574-0.968-0.578-0.971c-0.004-0.003-0.6,0.2-0.598,0.978
											L30.526,28.452"/>
										<path style="fill:#FFFF00;stroke:#000000;stroke-width:0.0709;" d="M31.005,27.497l0.097,0.899l-0.587,0.001
											c-0.006-0.744-0.563-0.868-0.577-0.865c-0.013-0.001-0.565,0.164-0.58,0.865H28.77l0.106-0.906L31.005,27.497
											L31.005,27.497L31.005,27.497z"/>
										<path style="fill:#FFFF00;stroke:#000000;stroke-width:0.0709;" d="M31.141,28.4H28.74c-0.051,0-0.092,0.05-0.092,0.111
											c0,0.061,0.041,0.111,0.092,0.111h2.402c0.051,0,0.092-0.05,0.092-0.111C31.233,28.45,31.192,28.4,31.141,28.4z"/>
										<path style="fill:#FFFF00;stroke:#000000;stroke-width:0.0709;" d="M30.268,28.396c-0.003-0.47-0.321-0.602-0.322-0.602
											c0,0-0.332,0.137-0.335,0.602H30.268"/>
										<path style="fill:#FFFF00;stroke:#000000;stroke-width:0.0709;" d="M31.09,27.123h-2.302c-0.048,0-0.088,0.045-0.088,0.1
											c0,0.055,0.04,0.1,0.088,0.1h2.302c0.048,0,0.088-0.045,0.088-0.1C31.179,27.168,31.139,27.123,31.09,27.123z"/>
										<path style="fill:#FFFF00;stroke:#000000;stroke-width:0.0709;" d="M31.042,27.324H28.84c-0.046,0-0.084,0.045-0.084,0.1
											c0,0.055,0.038,0.1,0.084,0.1h2.202c0.046,0,0.084-0.045,0.084-0.1C31.127,27.369,31.089,27.324,31.042,27.324z"/>
										<path style="fill:#FFFF00;stroke:#000000;stroke-width:0.0709;" d="M30.331,25.823l-0.174,0v0.124H30.03v-0.126
											l-0.178,0.001v0.126h-0.127v-0.126h-0.178l0,0.285c0,0.045,0.036,0.074,0.078,0.074h0.625
											c0.042,0,0.081-0.034,0.081-0.075L30.331,25.823L30.331,25.823L30.331,25.823z"/>
										<path style="fill:#FFFF00;stroke:#000000;stroke-width:0.0709;" d="M29.676,26.205l-0.039,0.914l0.61-0.002l-0.04-0.915
											L29.676,26.205"/>
										<path id="cp1_10_" style="fill:#FFFF00;stroke:#000000;stroke-width:0.0709;" d="M30.42,26.628l-0.019,0.493l0.585,0
											l-0.016-0.493L30.42,26.628L30.42,26.628L30.42,26.628z"/>
										<g>
											<path id="cp1_11_" style="fill:#FFFF00;stroke:#000000;stroke-width:0.0709;" d="M28.916,26.628l-0.019,0.493l0.585,0
												l-0.016-0.493L28.916,26.628L28.916,26.628L28.916,26.628z"/>
										</g>
										<path id="cp2_10_" style="fill:#FFFF00;stroke:#000000;stroke-width:0.0709;" d="M31.078,26.271l-0.17,0v0.124h-0.124
											v-0.127l-0.174,0.001v0.126h-0.125v-0.127l-0.174,0l0,0.285c0,0.045,0.035,0.074,0.076,0.074h0.612
											c0.041,0,0.079-0.033,0.079-0.075L31.078,26.271L31.078,26.271L31.078,26.271z"/>
										<g>
											<path id="cp2_11_" style="fill:#FFFF00;stroke:#000000;stroke-width:0.0709;" d="M29.574,26.271l-0.17,0v0.124H29.28
												v-0.127l-0.174,0.001v0.126h-0.125v-0.127l-0.174,0l0,0.285c0,0.045,0.035,0.074,0.076,0.074h0.612
												c0.041,0,0.079-0.033,0.079-0.075L29.574,26.271L29.574,26.271L29.574,26.271z"/>
										</g>
										<path d="M30,26.494c0.004-0.089-0.124-0.09-0.123,0v0.218H30L30,26.494"/>
										<path id="cp3_10_" d="M30.756,26.81c0-0.086-0.119-0.088-0.117,0v0.168h0.117L30.756,26.81"/>
										<g>
											<path id="cp3_11_" d="M29.248,26.81c0-0.086-0.119-0.088-0.117,0v0.168h0.117L29.248,26.81"/>
										</g>
									</g>
									<g id="castle3_1_">
										<g id="castle_6_">
											<path style="fill:#FFFF00;" d="M27.966,35.286c0.542-0.565,0.282-1.089,0.281-1.094
												c-0.001-0.005-0.564-0.285-1.115,0.265L27.966,35.286"/>
											<path style="fill:#FFFF00;stroke:#000000;stroke-width:0.0709;" d="M28.982,34.953l-0.57,0.702l-0.414-0.416
												c0.524-0.528,0.219-1.011,0.207-1.019c-0.008-0.009-0.515-0.285-1.023,0.198l-0.415-0.417l0.718-0.563L28.982,34.953
												L28.982,34.953L28.982,34.953z"/>
											<path style="fill:#FFFF00;stroke:#000000;stroke-width:0.0709;" d="M28.437,35.686l-1.692-1.704
												c-0.036-0.036-0.1-0.03-0.144,0.013c-0.043,0.043-0.049,0.107-0.014,0.143l1.692,1.704c0.036,0.036,0.1,0.03,0.143-0.013
												C28.466,35.786,28.473,35.721,28.437,35.686z"/>
											<path style="fill:#FFFF00;stroke:#000000;stroke-width:0.0709;" d="M27.825,35.063c0.331-0.333,0.202-0.652,0.2-0.653
												c0,0-0.331-0.139-0.663,0.187L27.825,35.063"/>
											<path style="fill:#FFFF00;stroke:#000000;stroke-width:0.0709;" d="M29.307,34.75l-1.622-1.634
												c-0.034-0.034-0.094-0.031-0.133,0.008c-0.039,0.039-0.043,0.099-0.009,0.133l1.622,1.634
												c0.034,0.034,0.094,0.031,0.133-0.008C29.337,34.844,29.341,34.784,29.307,34.75z"/>
											<path style="fill:#FFFF00;stroke:#000000;stroke-width:0.0709;" d="M29.13,34.857l-1.552-1.563
												c-0.033-0.033-0.091-0.028-0.13,0.01c-0.039,0.039-0.044,0.097-0.011,0.13l1.552,1.563
												c0.033,0.033,0.091,0.028,0.13-0.011C29.158,34.949,29.163,34.89,29.13,34.857z"/>
											<path style="fill:#FFFF00;stroke:#000000;stroke-width:0.0709;" d="M29.694,33.295l-0.123-0.123l-0.088,0.087
												l-0.089-0.09l0.09-0.089l-0.126-0.126l-0.089,0.089l-0.09-0.09l0.09-0.089l-0.126-0.126l-0.202,0.201
												c-0.032,0.032-0.027,0.078,0.002,0.107l0.441,0.444c0.03,0.03,0.081,0.034,0.11,0.005L29.694,33.295L29.694,33.295
												L29.694,33.295z"/>
											<path style="fill:#FFFF00;stroke:#000000;stroke-width:0.0709;" d="M28.962,33.099l-0.676,0.616l0.431,0.431l0.62-0.673
												L28.962,33.099"/>
											<path id="cp1_12_" style="fill:#FFFF00;stroke:#000000;stroke-width:0.0709;" d="M29.186,33.925l-0.363,0.334
												l0.412,0.415l0.338-0.359L29.186,33.925L29.186,33.925L29.186,33.925z"/>
											<g>
												<path id="cp1_13_" style="fill:#FFFF00;stroke:#000000;stroke-width:0.0709;" d="M28.126,32.858l-0.363,0.334
													l0.412,0.415l0.338-0.359L28.126,32.858L28.126,32.858L28.126,32.858z"/>
											</g>
											<path id="cp2_12_" style="fill:#FFFF00;stroke:#000000;stroke-width:0.0709;" d="M29.903,34.14l-0.12-0.12l-0.088,0.087
												l-0.088-0.088l0.09-0.089l-0.123-0.123l-0.089,0.089l-0.088-0.088l0.09-0.089l-0.123-0.124l-0.202,0.201
												c-0.032,0.031-0.027,0.077,0.001,0.106l0.431,0.434c0.029,0.029,0.079,0.033,0.109,0.004L29.903,34.14L29.903,34.14
												L29.903,34.14z"/>
											<g>
												<path id="cp2_13_" style="fill:#FFFF00;stroke:#000000;stroke-width:0.0709;" d="M28.843,33.073l-0.12-0.12
													l-0.088,0.087l-0.088-0.088l0.09-0.089l-0.123-0.123l-0.089,0.089l-0.088-0.088l0.09-0.089l-0.123-0.124l-0.202,0.201
													c-0.032,0.031-0.027,0.077,0.001,0.106l0.431,0.434c0.029,0.029,0.079,0.033,0.109,0.004L28.843,33.073L28.843,33.073
													L28.843,33.073z"/>
											</g>
											<path d="M28.986,33.533c0.066-0.06-0.024-0.151-0.086-0.087l-0.155,0.153l0.086,0.087L28.986,33.533"/>
											<path id="cp3_12_" d="M29.294,34.291c0.061-0.06-0.021-0.146-0.083-0.083l-0.119,0.119l0.082,0.083L29.294,34.291"/>
											<g transform="matrix(-1,0,0,1,479.79195,0)">
												<path id="cp3_13_" d="M28.231,33.221c0.061-0.06-0.021-0.146-0.083-0.083l-0.119,0.119l0.082,0.083L28.231,33.221"/>
											</g>
										</g>
									</g>
									<g id="quina">
										<path style="fill:#003399;" d="M22.452,28.687L22.452,28.687c0,0.314,0.12,0.6,0.313,0.807
											c0.193,0.208,0.46,0.337,0.751,0.337c0.293,0,0.559-0.128,0.752-0.335c0.192-0.207,0.312-0.492,0.312-0.807v-1.526
											l-2.125-0.002L22.452,28.687"/>
										<circle style="fill:#FFFFFF;" cx="22.94" cy="27.742" r="0.211"/>
										<circle style="fill:#FFFFFF;" cx="24.118" cy="27.743" r="0.211"/>
										<circle style="fill:#FFFFFF;" cx="23.528" cy="28.309" r="0.211"/>
										<circle style="fill:#FFFFFF;" cx="22.94" cy="28.901" r="0.211"/>
										<circle style="fill:#FFFFFF;" cx="24.117" cy="28.9" r="0.211"/>
									</g>
									<g>
										<g id="quina_1_">
											<path style="fill:#003399;" d="M22.452,25L22.452,25c0,0.314,0.12,0.6,0.313,0.807c0.193,0.208,0.46,0.337,0.751,0.337
												c0.293,0,0.559-0.128,0.752-0.335c0.192-0.207,0.312-0.492,0.312-0.807v-1.526l-2.125-0.002L22.452,25"/>
											<circle style="fill:#FFFFFF;" cx="22.94" cy="24.054" r="0.211"/>
											<circle style="fill:#FFFFFF;" cx="24.118" cy="24.055" r="0.211"/>
											<circle style="fill:#FFFFFF;" cx="23.528" cy="24.621" r="0.211"/>
											<circle style="fill:#FFFFFF;" cx="22.94" cy="25.214" r="0.211"/>
											<circle style="fill:#FFFFFF;" cx="24.117" cy="25.212" r="0.211"/>
										</g>
									</g>
									<g>
										<g id="quina_2_">
											<path style="fill:#003399;" d="M19.504,28.687L19.504,28.687c0,0.314,0.12,0.6,0.313,0.807
												c0.193,0.208,0.46,0.337,0.751,0.337c0.293,0,0.559-0.128,0.752-0.335c0.192-0.207,0.312-0.492,0.312-0.807v-1.526
												l-2.125-0.002L19.504,28.687"/>
											<circle style="fill:#FFFFFF;" cx="19.992" cy="27.742" r="0.211"/>
											<circle style="fill:#FFFFFF;" cx="21.171" cy="27.743" r="0.211"/>
											<circle style="fill:#FFFFFF;" cx="20.58" cy="28.309" r="0.211"/>
											<circle style="fill:#FFFFFF;" cx="19.992" cy="28.901" r="0.211"/>
											<circle style="fill:#FFFFFF;" cx="21.169" cy="28.9" r="0.211"/>
										</g>
									</g>
									<g>
										<g id="quina_3_">
											<path style="fill:#003399;" d="M25.393,28.687L25.393,28.687c0,0.314,0.12,0.6,0.313,0.807
												c0.193,0.208,0.46,0.337,0.751,0.337c0.293,0,0.559-0.128,0.752-0.335c0.192-0.207,0.312-0.492,0.312-0.807v-1.526
												l-2.125-0.002L25.393,28.687"/>
											<circle style="fill:#FFFFFF;" cx="25.88" cy="27.742" r="0.211"/>
											<circle style="fill:#FFFFFF;" cx="27.059" cy="27.743" r="0.211"/>
											<circle style="fill:#FFFFFF;" cx="26.468" cy="28.309" r="0.211"/>
											<circle style="fill:#FFFFFF;" cx="25.88" cy="28.901" r="0.211"/>
											<circle style="fill:#FFFFFF;" cx="27.057" cy="28.9" r="0.211"/>
										</g>
									</g>
									<g>
										<g id="quina_4_">
											<path style="fill:#003399;" d="M22.452,32.342L22.452,32.342c0,0.314,0.12,0.6,0.313,0.807
												c0.193,0.208,0.46,0.337,0.751,0.337c0.293,0,0.559-0.128,0.752-0.335c0.192-0.207,0.312-0.492,0.312-0.807v-1.526
												l-2.125-0.002L22.452,32.342"/>
											<circle style="fill:#FFFFFF;" cx="22.94" cy="31.396" r="0.211"/>
											<circle style="fill:#FFFFFF;" cx="24.118" cy="31.397" r="0.211"/>
											<circle style="fill:#FFFFFF;" cx="23.528" cy="31.963" r="0.211"/>
											<circle style="fill:#FFFFFF;" cx="22.94" cy="32.556" r="0.211"/>
											<circle style="fill:#FFFFFF;" cx="24.117" cy="32.554" r="0.211"/>
										</g>
									</g>
								</g>
							</g>
						</g>
					</g>
				</g>
			</g>
		</g>
	</g>
</g>
</svg>
