<?xml version="1.0" encoding="iso-8859-1"?>
<!-- Generator: Adobe Illustrator 18.1.1, SVG Export Plug-In . SVG Version: 6.00 Build 0)  -->
<svg version="1.1" id="Layer_179" xmlns="http://www.w3.org/2000/svg" xmlns:xlink="http://www.w3.org/1999/xlink" x="0px" y="0px"
	 viewBox="0 0 56.692 56.692" style="enable-background:new 0 0 56.692 56.692;" xml:space="preserve">
<g>
	<defs>
		<circle id="SVGID_1_" cx="28.346" cy="28.347" r="28.346"/>
	</defs>
	<clipPath id="SVGID_2_">
		<use xlink:href="#SVGID_1_"  style="overflow:visible;"/>
	</clipPath>
	<g style="clip-path:url(#SVGID_2_);">
		<rect x="-23.193" y="0" style="fill:#0038A8;" width="103.078" height="56.693"/>
		<rect x="-23.193" y="0" style="fill:#FFFFFF;" width="103.078" height="37.795"/>
		<rect x="-23.193" y="0" style="fill:#D52B1E;" width="103.078" height="18.898"/>
		<g>
			<g>
				<circle style="fill:none;stroke:#000000;stroke-width:0.1848;" cx="28.346" cy="28.346" r="7.25"/>
				<circle style="fill:none;stroke:#000000;stroke-width:0.0821;" cx="28.346" cy="28.346" r="5.956"/>
				<circle style="fill:none;stroke:#000000;stroke-width:0.0753;" cx="28.346" cy="28.346" r="4.563"/>
			</g>
			<g>
				<path d="M24.486,31.143l-0.841,0.499l-0.257-0.433c-0.048-0.08-0.077-0.146-0.089-0.196c-0.011-0.051-0.006-0.1,0.016-0.148
					s0.06-0.088,0.113-0.12c0.047-0.028,0.093-0.042,0.138-0.042c0.046,0,0.089,0.011,0.131,0.033
					c0.027,0.014,0.056,0.038,0.087,0.071c-0.008-0.037-0.011-0.066-0.009-0.086c0.001-0.014,0.008-0.036,0.019-0.068
					c0.012-0.032,0.022-0.054,0.031-0.067l0.169-0.27l0.174,0.294l-0.174,0.291c-0.023,0.037-0.035,0.066-0.037,0.085
					c-0.002,0.026,0.004,0.052,0.018,0.075l0.014,0.023l0.341-0.203L24.486,31.143z M23.831,31.179l-0.065-0.11
					c-0.007-0.012-0.024-0.033-0.052-0.062c-0.014-0.015-0.031-0.024-0.051-0.026c-0.021-0.002-0.04,0.002-0.058,0.013
					c-0.027,0.016-0.043,0.037-0.047,0.063c-0.004,0.026,0.008,0.062,0.036,0.11l0.068,0.114L23.831,31.179z"/>
				<path d="M23.039,30.53l-0.255-0.768l0.198-0.066l0.16,0.481l0.147-0.049l-0.148-0.446l0.189-0.063l0.148,0.446l0.183-0.061
					l-0.165-0.495l0.21-0.07l0.26,0.782L23.039,30.53z"/>
				<path d="M22.704,29.388l-0.057-0.499c-0.012-0.109,0.004-0.193,0.05-0.253c0.045-0.06,0.116-0.095,0.211-0.106
					c0.098-0.011,0.178,0.01,0.24,0.062c0.062,0.053,0.1,0.139,0.114,0.26l0.019,0.164l0.36-0.041l0.034,0.301L22.704,29.388z
					 M23.084,29.039l-0.008-0.074c-0.007-0.058-0.021-0.097-0.044-0.118c-0.023-0.021-0.05-0.03-0.081-0.026
					c-0.03,0.003-0.055,0.017-0.074,0.039c-0.019,0.023-0.025,0.062-0.019,0.118l0.01,0.085L23.084,29.039z"/>
				<path d="M22.673,27.553l0.032-0.3l0.579,0.062c0.057,0.006,0.111,0.021,0.16,0.044s0.091,0.056,0.125,0.099
					c0.034,0.042,0.057,0.085,0.068,0.129c0.015,0.061,0.019,0.132,0.01,0.214c-0.005,0.047-0.014,0.099-0.027,0.154
					c-0.013,0.055-0.031,0.101-0.055,0.136s-0.055,0.067-0.095,0.094s-0.079,0.045-0.119,0.052c-0.064,0.012-0.12,0.015-0.167,0.01
					l-0.579-0.062l0.032-0.3l0.593,0.064c0.053,0.006,0.096-0.005,0.129-0.031c0.033-0.026,0.052-0.065,0.058-0.117
					c0.006-0.052-0.005-0.094-0.031-0.126c-0.026-0.033-0.066-0.052-0.12-0.058L22.673,27.553z"/>
				<path d="M22.804,26.836l0.187-0.534c0.031-0.089,0.077-0.15,0.138-0.182c0.061-0.032,0.124-0.037,0.189-0.014
					c0.055,0.019,0.095,0.052,0.123,0.1c0.018,0.032,0.027,0.072,0.027,0.121c0.039-0.061,0.084-0.1,0.133-0.118
					c0.05-0.018,0.104-0.016,0.163,0.004c0.048,0.017,0.087,0.043,0.117,0.078c0.03,0.036,0.05,0.077,0.059,0.123
					c0.005,0.029,0.003,0.068-0.008,0.119c-0.014,0.067-0.025,0.111-0.032,0.132l-0.172,0.492L22.804,26.836z M23.266,26.675
					l0.043-0.124c0.016-0.044,0.019-0.078,0.009-0.101c-0.009-0.023-0.028-0.039-0.057-0.049c-0.027-0.009-0.051-0.008-0.072,0.004
					s-0.039,0.04-0.054,0.083l-0.044,0.126L23.266,26.675z M23.629,26.802l0.051-0.145c0.017-0.049,0.021-0.087,0.01-0.113
					c-0.01-0.026-0.03-0.044-0.06-0.055c-0.027-0.01-0.053-0.007-0.076,0.007c-0.024,0.014-0.044,0.046-0.061,0.096l-0.051,0.145
					L23.629,26.802z"/>
				<path d="M23.266,25.661l0.156-0.259l0.631,0.381l0.244-0.404l0.206,0.124l-0.4,0.662L23.266,25.661z"/>
				<path d="M23.857,24.766l0.194-0.233l0.751,0.626l-0.194,0.233L23.857,24.766z"/>
				<path d="M25.171,24.261l0.253-0.112c0.035,0.068,0.054,0.133,0.058,0.196c0.003,0.063-0.008,0.122-0.035,0.178
					c-0.026,0.056-0.073,0.113-0.139,0.17c-0.081,0.069-0.156,0.114-0.228,0.135c-0.071,0.02-0.151,0.017-0.239-0.01
					c-0.088-0.027-0.171-0.087-0.25-0.179c-0.105-0.123-0.154-0.245-0.145-0.367c0.009-0.122,0.073-0.234,0.192-0.337
					c0.093-0.08,0.183-0.124,0.269-0.133c0.086-0.008,0.175,0.016,0.269,0.072l-0.164,0.219c-0.026-0.017-0.048-0.027-0.065-0.03
					c-0.028-0.007-0.055-0.007-0.082,0c-0.027,0.006-0.051,0.02-0.074,0.039c-0.052,0.045-0.074,0.1-0.065,0.165
					c0.006,0.049,0.037,0.107,0.094,0.173c0.071,0.082,0.132,0.128,0.183,0.137c0.051,0.009,0.099-0.006,0.145-0.045
					c0.044-0.038,0.066-0.078,0.068-0.122C25.216,24.366,25.201,24.317,25.171,24.261L25.171,24.261z"/>
				<path d="M26.212,23.887l-0.304,0.162l0.034,0.165l-0.272,0.145l-0.136-1.035l0.291-0.155l0.784,0.69l-0.279,0.149L26.212,23.887
					z M26.057,23.73l-0.261-0.259l0.071,0.361L26.057,23.73z"/>
				<path d="M26.98,22.729l0.442-0.076c0.087-0.015,0.16-0.015,0.217-0.001c0.058,0.014,0.108,0.041,0.151,0.079
					c0.043,0.038,0.077,0.085,0.103,0.141c0.026,0.056,0.045,0.117,0.056,0.183c0.018,0.103,0.02,0.185,0.006,0.246
					c-0.014,0.061-0.038,0.114-0.073,0.159c-0.035,0.046-0.075,0.079-0.121,0.1c-0.062,0.029-0.12,0.048-0.173,0.057l-0.442,0.076
					L26.98,22.729z M27.316,22.895l0.091,0.526l0.073-0.013c0.062-0.011,0.105-0.025,0.129-0.044
					c0.024-0.018,0.04-0.046,0.049-0.083c0.009-0.037,0.007-0.094-0.007-0.171c-0.018-0.102-0.046-0.169-0.086-0.201
					c-0.04-0.032-0.098-0.041-0.175-0.028L27.316,22.895z"/>
				<path d="M28.236,22.56l0.809,0.035l-0.009,0.209l-0.506-0.022l-0.007,0.155l0.47,0.02l-0.009,0.199l-0.47-0.02l-0.008,0.193
					l0.521,0.022l-0.009,0.221l-0.823-0.035L28.236,22.56z"/>
				<path d="M29.413,22.653l0.293,0.072l-0.175,0.716l0.458,0.112l-0.057,0.234l-0.751-0.184L29.413,22.653z"/>
				<path d="M30.982,23.174l0.432,0.256c0.094,0.056,0.151,0.12,0.172,0.192c0.02,0.072,0.006,0.15-0.043,0.233
					c-0.05,0.085-0.115,0.136-0.194,0.154c-0.079,0.018-0.171-0.005-0.276-0.067l-0.142-0.084l-0.185,0.312l-0.261-0.154
					L30.982,23.174z M31.031,23.687l0.064,0.038c0.05,0.03,0.09,0.042,0.121,0.036c0.031-0.005,0.054-0.022,0.07-0.049
					c0.016-0.026,0.02-0.054,0.013-0.083c-0.007-0.029-0.034-0.058-0.083-0.086l-0.074-0.044L31.031,23.687z"/>
				<path d="M31.878,24.826l-0.252-0.234l-0.145,0.086l-0.226-0.21l0.935-0.466l0.241,0.224l-0.397,0.966l-0.231-0.215
					L31.878,24.826z M31.976,24.628l0.16-0.331l-0.318,0.184L31.976,24.628z"/>
				<path d="M32.093,25.278l0.806-0.553l0.285,0.415c0.053,0.077,0.087,0.14,0.101,0.19c0.015,0.05,0.013,0.099-0.006,0.149
					c-0.019,0.049-0.054,0.092-0.105,0.127c-0.045,0.031-0.09,0.048-0.135,0.051s-0.09-0.005-0.133-0.024
					c-0.027-0.012-0.058-0.034-0.092-0.066c0.01,0.036,0.015,0.065,0.015,0.085c0,0.014-0.005,0.037-0.015,0.069
					c-0.01,0.032-0.018,0.055-0.026,0.069l-0.151,0.281l-0.193-0.282l0.155-0.302c0.02-0.039,0.031-0.068,0.031-0.088
					c0-0.027-0.008-0.051-0.023-0.074l-0.015-0.022l-0.327,0.224L32.093,25.278z M32.744,25.199l0.072,0.105
					c0.008,0.011,0.027,0.031,0.056,0.058c0.015,0.014,0.032,0.022,0.053,0.023c0.021,0.001,0.04-0.004,0.057-0.016
					c0.026-0.018,0.04-0.04,0.043-0.066c0.003-0.026-0.012-0.062-0.043-0.107l-0.075-0.109L32.744,25.199z"/>
				<path d="M33.047,26.663l-0.128-0.32l-0.167,0.016l-0.114-0.287l1.044-0.021l0.122,0.306l-0.772,0.704l-0.117-0.294
					L33.047,26.663z M33.219,26.526l0.286-0.231l-0.366,0.031L33.219,26.526z"/>
				<path d="M33.474,27.594l0.201-0.03l0.069,0.462l-0.412,0.062c-0.073-0.079-0.126-0.151-0.158-0.216
					c-0.032-0.065-0.055-0.144-0.069-0.237c-0.017-0.115-0.012-0.211,0.017-0.289c0.028-0.078,0.078-0.143,0.15-0.194
					s0.157-0.085,0.258-0.1c0.106-0.016,0.201-0.008,0.285,0.024c0.085,0.032,0.153,0.087,0.206,0.165
					c0.041,0.061,0.07,0.147,0.086,0.257c0.016,0.107,0.018,0.188,0.007,0.244c-0.011,0.056-0.035,0.104-0.07,0.145
					c-0.035,0.041-0.083,0.075-0.143,0.102l-0.095-0.28c0.035-0.017,0.06-0.042,0.075-0.073c0.015-0.031,0.019-0.069,0.013-0.113
					c-0.01-0.066-0.04-0.114-0.092-0.146c-0.051-0.032-0.126-0.041-0.225-0.026c-0.105,0.016-0.176,0.047-0.215,0.093
					c-0.039,0.046-0.053,0.104-0.043,0.175c0.005,0.033,0.015,0.065,0.029,0.093c0.014,0.029,0.036,0.061,0.065,0.097l0.091-0.014
					L33.474,27.594z"/>
				<path d="M34.113,29.013l-0.027,0.3l-0.581-0.052c-0.058-0.005-0.111-0.019-0.161-0.041c-0.05-0.022-0.092-0.055-0.127-0.096
					c-0.035-0.042-0.058-0.084-0.07-0.128c-0.016-0.06-0.021-0.132-0.014-0.213c0.004-0.047,0.012-0.099,0.024-0.154
					c0.012-0.055,0.029-0.101,0.052-0.137c0.023-0.036,0.054-0.068,0.093-0.096c0.039-0.028,0.078-0.046,0.118-0.054
					c0.064-0.013,0.119-0.017,0.167-0.013l0.581,0.052l-0.027,0.3l-0.594-0.053c-0.053-0.005-0.096,0.006-0.128,0.033
					c-0.033,0.027-0.051,0.066-0.056,0.119c-0.005,0.052,0.006,0.094,0.033,0.126c0.027,0.032,0.067,0.051,0.121,0.055
					L34.113,29.013z"/>
				<path d="M33.033,30.047l0.107-0.327l-0.139-0.095l0.096-0.293l0.814,0.654l-0.103,0.313l-1.043,0.044l0.099-0.3L33.033,30.047z
					 M33.253,30.053l0.368,0.007l-0.3-0.212L33.253,30.053z"/>
				<path d="M33.603,30.848l-0.172,0.288l-0.385,0l0.182,0.339l-0.171,0.286l-0.292-0.618l-0.351-0.21l0.156-0.26l0.351,0.21
					L33.603,30.848z"/>
			</g>
			<g>
				<path style="fill:#009B3A;stroke:#000000;stroke-width:0.0172;" d="M29.305,24.962c0,0,2.758,1.188,2.276,3.643
					s-2.017,2.439-2.619,2.71c-0.602,0.271-1.017,0.66-1.255,0.605c-0.238-0.054-0.552-0.238-0.552-0.238s-0.025,0.403,0.458,0.477
					s1.119-0.636,1.424-0.715c0.305-0.079,2.18-0.282,2.636-2.781C32.207,25.997,29.322,25.04,29.305,24.962L29.305,24.962z"/>
				<path style="fill:#009B3A;stroke:#000000;stroke-width:0.0172;" d="M30.696,25.484c0.051,0.202,0.052,0.369,0.001,0.371
					c-0.05,0.002-0.132-0.157-0.183-0.357c-0.052-0.202-0.054-0.371-0.004-0.376c0.05-0.005,0.132,0.155,0.184,0.357
					C30.695,25.481,30.696,25.483,30.696,25.484z"/>
				<path style="fill:#009B3A;stroke:#000000;stroke-width:0.0172;" d="M30.602,25.51c0.096,0.193,0.137,0.364,0.092,0.381
					c-0.045,0.018-0.159-0.124-0.255-0.317c-0.001-0.001-0.001-0.003-0.002-0.004c-0.095-0.193-0.135-0.362-0.089-0.378
					C30.394,25.177,30.507,25.319,30.602,25.51z"/>
				<path style="fill:#009B3A;stroke:#000000;stroke-width:0.0172;" d="M30.325,25.692c0.196,0.058,0.349,0.146,0.342,0.197
					c-0.006,0.05-0.166,0.046-0.36-0.01c-0.196-0.058-0.349-0.146-0.342-0.197C29.972,25.632,30.132,25.636,30.325,25.692z"/>
				<path style="fill:#009B3A;stroke:#000000;stroke-width:0.0172;" d="M30.366,25.591c0.178,0.119,0.305,0.252,0.284,0.295
					c-0.021,0.044-0.183-0.017-0.361-0.137c-0.001-0.001-0.002-0.001-0.002-0.002c-0.178-0.119-0.305-0.252-0.284-0.295
					s0.183,0.017,0.361,0.137C30.365,25.59,30.366,25.59,30.366,25.591z"/>
				<path style="fill:#009B3A;stroke:#000000;stroke-width:0.0172;" d="M30.483,25.543c0.151,0.157,0.247,0.312,0.215,0.347
					c-0.033,0.034-0.182-0.065-0.333-0.222c-0.001-0.001-0.001-0.001-0.002-0.002c-0.151-0.157-0.246-0.312-0.213-0.346
					C30.184,25.287,30.333,25.386,30.483,25.543z"/>
				<path style="fill:#009B3A;stroke:#000000;stroke-width:0.0172;" d="M30.676,25.89c0.002,0.002-0.106,0.06-0.131,0.069
					c-0.024,0.009-0.058-0.033-0.128,0.004c-0.07,0.036-0.119,0.102-0.134,0.141c-0.015,0.039,0.02,0.055,0.105,0.014
					c0.085-0.041,0.107-0.107,0.148-0.132c0.041-0.026,0.11-0.063,0.149-0.077c0.017-0.037,0.072-0.116,0.1-0.162
					c0.028-0.045,0.14-0.121,0.181-0.208c0.035-0.072,0.022-0.134-0.025-0.108c-0.047,0.026-0.109,0.098-0.137,0.151
					c-0.029,0.052-0.004,0.119-0.036,0.167C30.743,25.782,30.682,25.89,30.676,25.89L30.676,25.89z"/>
				<path style="fill:#009B3A;stroke:#000000;stroke-width:0.0172;" d="M31.53,26.172c0.004,0.313-0.049,0.553-0.12,0.536
					c-0.071-0.017-0.132-0.284-0.136-0.597c-0.004-0.313,0.049-0.553,0.12-0.536C31.464,25.591,31.525,25.859,31.53,26.172
					L31.53,26.172z"/>
				<path style="fill:#009B3A;stroke:#000000;stroke-width:0.0172;" d="M31.387,26.166c0.069,0.319,0.069,0.582,0.001,0.586
					c-0.068,0.004-0.179-0.251-0.248-0.57c0-0.001,0-0.002-0.001-0.003c-0.069-0.319-0.069-0.582-0.001-0.586
					c0.068-0.004,0.179,0.251,0.248,0.57C31.386,26.164,31.387,26.165,31.387,26.166z"/>
				<path style="fill:#009B3A;stroke:#000000;stroke-width:0.0172;" d="M30.945,26.304c0.252,0.169,0.439,0.365,0.417,0.438
					c-0.022,0.073-0.244-0.005-0.496-0.174c-0.002-0.002-0.005-0.003-0.007-0.005c-0.252-0.169-0.439-0.365-0.417-0.438
					c0.022-0.073,0.244,0.005,0.496,0.174C30.941,26.301,30.943,26.302,30.945,26.304z"/>
				<path style="fill:#009B3A;stroke:#000000;stroke-width:0.0172;" d="M31.035,26.178c0.207,0.251,0.337,0.496,0.291,0.547
					c-0.046,0.05-0.247-0.109-0.453-0.357c-0.207-0.25-0.34-0.497-0.297-0.551c0.043-0.054,0.247,0.105,0.454,0.356
					C31.032,26.174,31.033,26.176,31.035,26.178z"/>
				<path style="fill:#009B3A;stroke:#000000;stroke-width:0.0172;" d="M31.213,26.161c0.158,0.293,0.239,0.558,0.182,0.592
					c-0.057,0.034-0.231-0.175-0.388-0.468c0-0.001-0.001-0.001-0.001-0.002c-0.158-0.293-0.239-0.558-0.182-0.592
					c0.057-0.034,0.231,0.175,0.388,0.468C31.213,26.16,31.213,26.16,31.213,26.161z"/>
				<path style="fill:#009B3A;stroke:#000000;stroke-width:0.0172;" d="M31.365,26.744c0.002,0.003-0.167,0.038-0.204,0.04
					c-0.037,0.002-0.069-0.072-0.178-0.052c-0.109,0.02-0.198,0.093-0.232,0.141c-0.034,0.048,0.009,0.087,0.141,0.066
					c0.131-0.021,0.184-0.105,0.249-0.123c0.065-0.018,0.173-0.042,0.232-0.044c0.036-0.045,0.138-0.134,0.193-0.187
					c0.054-0.052,0.234-0.11,0.319-0.217c0.073-0.088,0.075-0.182,0.001-0.166c-0.074,0.016-0.183,0.092-0.24,0.154
					c-0.057,0.062-0.045,0.168-0.105,0.224C31.493,26.619,31.374,26.746,31.365,26.744L31.365,26.744z"/>
				<path style="fill:#009B3A;stroke:#000000;stroke-width:0.0172;" d="M31.978,27.316c-0.052,0.31-0.148,0.537-0.214,0.506
					s-0.077-0.306-0.025-0.616l0,0c0.052-0.31,0.148-0.537,0.214-0.506C32.019,26.73,32.03,27.006,31.978,27.316z"/>
				<path style="fill:#009B3A;stroke:#000000;stroke-width:0.0172;" d="M31.842,27.281c0.01,0.328-0.037,0.589-0.104,0.581
					c-0.067-0.007-0.13-0.28-0.14-0.608c0-0.003,0-0.005,0-0.008c-0.01-0.328,0.037-0.589,0.104-0.581s0.13,0.28,0.14,0.608
					C31.842,27.276,31.842,27.279,31.842,27.281z"/>
				<path style="fill:#009B3A;stroke:#000000;stroke-width:0.0172;" d="M31.385,27.333c0.216,0.216,0.361,0.444,0.325,0.511
					c-0.036,0.066-0.24-0.055-0.456-0.271l0,0c-0.216-0.216-0.361-0.444-0.325-0.511C30.966,26.996,31.17,27.117,31.385,27.333z"/>
				<path style="fill:#009B3A;stroke:#000000;stroke-width:0.0172;" d="M31.495,27.226c0.157,0.287,0.242,0.555,0.188,0.599
					c-0.053,0.043-0.224-0.155-0.381-0.442c-0.157-0.287-0.242-0.555-0.188-0.599C31.167,26.741,31.338,26.939,31.495,27.226
					L31.495,27.226z"/>
				<path style="fill:#009B3A;stroke:#000000;stroke-width:0.0172;" d="M31.67,27.244c0.102,0.319,0.134,0.598,0.073,0.624
					c-0.061,0.025-0.193-0.213-0.295-0.532c-0.001-0.003-0.002-0.007-0.003-0.01c-0.102-0.319-0.134-0.598-0.073-0.624
					c0.061-0.025,0.193,0.213,0.295,0.532C31.668,27.237,31.669,27.24,31.67,27.244z"/>
				<path style="fill:#009B3A;stroke:#000000;stroke-width:0.0172;" d="M31.715,27.847c0.001,0.003-0.17,0.006-0.207,0
					c-0.036-0.006-0.054-0.085-0.165-0.086c-0.11-0.001-0.21,0.054-0.252,0.095c-0.042,0.041-0.007,0.088,0.126,0.093
					c0.132,0.004,0.199-0.068,0.266-0.074c0.067-0.006,0.177-0.008,0.234,0.001c0.043-0.038,0.159-0.106,0.222-0.147
					c0.063-0.041,0.248-0.064,0.351-0.153c0.087-0.073,0.106-0.165,0.031-0.164c-0.075,0.001-0.196,0.056-0.262,0.106
					c-0.067,0.05-0.074,0.157-0.143,0.201C31.863,27.748,31.723,27.851,31.715,27.847"/>
				<path style="fill:#009B3A;stroke:#000000;stroke-width:0.0172;" d="M32.012,28.59c-0.168,0.266-0.342,0.437-0.39,0.381
					c-0.048-0.055,0.049-0.316,0.216-0.582l0,0c0.168-0.266,0.342-0.437,0.39-0.381C32.277,28.064,32.18,28.325,32.012,28.59"/>
				<path style="fill:#009B3A;stroke:#000000;stroke-width:0.0172;" d="M31.901,28.503c-0.119,0.308-0.262,0.528-0.319,0.491
					c-0.057-0.037-0.007-0.317,0.112-0.625l0,0c0.119-0.308,0.262-0.528,0.319-0.491C32.07,27.915,32.02,28.194,31.901,28.503"/>
				<path style="fill:#009B3A;stroke:#000000;stroke-width:0.0172;" d="M31.468,28.362c0.111,0.289,0.154,0.561,0.096,0.608
					c-0.058,0.047-0.196-0.15-0.307-0.439l0,0c-0.111-0.289-0.154-0.561-0.096-0.608C31.219,27.876,31.356,28.073,31.468,28.362"/>
				<path style="fill:#009B3A;stroke:#000000;stroke-width:0.0172;" d="M31.609,28.309c0.03,0.332,0.002,0.614-0.063,0.63
					c-0.065,0.016-0.141-0.236-0.172-0.565c-0.031-0.331-0.004-0.616,0.061-0.636c0.065-0.02,0.142,0.233,0.173,0.564
					C31.608,28.305,31.608,28.307,31.609,28.309"/>
				<path style="fill:#009B3A;stroke:#000000;stroke-width:0.0172;" d="M31.761,28.398c-0.033,0.338-0.112,0.608-0.176,0.603
					c-0.065-0.005-0.091-0.283-0.058-0.621l0,0c0.033-0.338,0.112-0.608,0.176-0.603C31.768,27.782,31.794,28.06,31.761,28.398
					L31.761,28.398"/>
				<path style="fill:#009B3A;stroke:#000000;stroke-width:0.0172;" d="M31.567,28.975c0,0.004-0.156-0.065-0.187-0.085
					c-0.031-0.02-0.016-0.101-0.116-0.148c-0.1-0.047-0.211-0.037-0.265-0.016c-0.054,0.021-0.04,0.079,0.078,0.138
					c0.118,0.059,0.206,0.019,0.269,0.041c0.063,0.023,0.163,0.066,0.212,0.098c0.054-0.017,0.185-0.033,0.258-0.045
					c0.073-0.012,0.25,0.044,0.377,0.003c0.107-0.031,0.16-0.109,0.092-0.139c-0.069-0.03-0.199-0.029-0.279-0.01
					c-0.08,0.019-0.128,0.115-0.207,0.127C31.739,28.945,31.573,28.983,31.567,28.975"/>
				<path style="fill:#009B3A;stroke:#000000;stroke-width:0.0172;" d="M31.669,29.884c-0.272,0.233-0.52,0.358-0.555,0.279
					c-0.035-0.079,0.158-0.331,0.429-0.564c0.272-0.233,0.52-0.358,0.555-0.279C32.133,29.399,31.941,29.651,31.669,29.884
					L31.669,29.884"/>
				<path style="fill:#009B3A;stroke:#000000;stroke-width:0.0172;" d="M31.574,29.748c-0.232,0.297-0.462,0.488-0.513,0.427
					c-0.051-0.061,0.096-0.352,0.329-0.65c0.232-0.297,0.462-0.488,0.513-0.427C31.954,29.16,31.807,29.451,31.574,29.748
					L31.574,29.748"/>
				<path style="fill:#009B3A;stroke:#000000;stroke-width:0.0172;" d="M31.145,29.436c0.028,0.359-0.014,0.676-0.093,0.708
					c-0.079,0.032-0.166-0.234-0.194-0.594c0-0.002,0-0.003,0-0.005c-0.028-0.359,0.014-0.676,0.093-0.708
					c0.079-0.032,0.166,0.234,0.194,0.594C31.144,29.432,31.145,29.434,31.145,29.436"/>
				<path style="fill:#009B3A;stroke:#000000;stroke-width:0.0172;" d="M31.317,29.427c-0.076,0.377-0.199,0.678-0.276,0.673
					c-0.076-0.006-0.078-0.311-0.004-0.685c0.075-0.377,0.199-0.68,0.276-0.676S31.392,29.05,31.317,29.427"/>
				<path style="fill:#009B3A;stroke:#000000;stroke-width:0.0172;" d="M31.456,29.58c-0.147,0.361-0.323,0.632-0.393,0.605
					c-0.07-0.027-0.009-0.342,0.138-0.704c0.001-0.002,0.001-0.004,0.002-0.005c0.147-0.361,0.323-0.632,0.393-0.605
					c0.07,0.027,0.009,0.342-0.138,0.704C31.457,29.576,31.456,29.578,31.456,29.58"/>
				<path style="fill:#009B3A;stroke:#000000;stroke-width:0.0172;" d="M31.052,30.149c-0.002,0.004-0.151-0.128-0.178-0.162
					c-0.027-0.033,0.015-0.117-0.079-0.205c-0.094-0.088-0.22-0.117-0.287-0.114c-0.066,0.004-0.07,0.073,0.04,0.18
					c0.111,0.107,0.221,0.096,0.283,0.143c0.062,0.048,0.158,0.131,0.201,0.185c0.065,0,0.215,0.031,0.299,0.044
					c0.084,0.013,0.26,0.138,0.414,0.14c0.128,0.004,0.212-0.063,0.147-0.121c-0.066-0.058-0.209-0.104-0.304-0.112
					c-0.094-0.008-0.179,0.081-0.27,0.065C31.251,30.178,31.056,30.159,31.052,30.149"/>
				<path style="fill:#009B3A;stroke:#000000;stroke-width:0.0172;" d="M30.781,31.016c-0.39,0.065-0.7,0.041-0.693-0.053
					c0.007-0.094,0.328-0.223,0.718-0.288c0.003-0.001,0.006-0.001,0.009-0.002c0.39-0.065,0.7-0.041,0.693,0.053
					c-0.007,0.094-0.328,0.223-0.718,0.288C30.787,31.015,30.784,31.016,30.781,31.016"/>
				<path style="fill:#009B3A;stroke:#000000;stroke-width:0.0172;" d="M30.767,30.832c-0.387,0.148-0.713,0.197-0.728,0.109
					c-0.016-0.088,0.285-0.279,0.672-0.428c0.387-0.148,0.713-0.197,0.728-0.109C31.454,30.493,31.154,30.684,30.767,30.832
					L30.767,30.832"/>
				<path style="fill:#009B3A;stroke:#000000;stroke-width:0.0172;" d="M30.521,30.286c-0.17,0.358-0.383,0.634-0.476,0.617
					c-0.093-0.017-0.031-0.321,0.138-0.679l0,0c0.17-0.358,0.383-0.634,0.476-0.617C30.753,29.624,30.691,29.928,30.521,30.286"/>
				<path style="fill:#009B3A;stroke:#000000;stroke-width:0.0172;" d="M30.693,30.379c-0.278,0.315-0.563,0.532-0.636,0.483
					c-0.073-0.048,0.094-0.343,0.373-0.658c0.278-0.315,0.563-0.532,0.636-0.483C31.138,29.769,30.971,30.064,30.693,30.379
					L30.693,30.379"/>
				<path style="fill:#009B3A;stroke:#000000;stroke-width:0.0172;" d="M30.743,30.606c-0.339,0.259-0.656,0.414-0.709,0.347
					c-0.052-0.067,0.18-0.331,0.519-0.59c0.001-0.001,0.002-0.001,0.002-0.002c0.339-0.258,0.656-0.413,0.706-0.344
					C31.313,30.084,31.081,30.348,30.743,30.606"/>
				<path style="fill:#009B3A;stroke:#000000;stroke-width:0.0172;" d="M30.042,30.911c-0.004,0.003-0.075-0.209-0.083-0.257
					c-0.008-0.047,0.079-0.103,0.036-0.241c-0.043-0.138-0.148-0.239-0.215-0.274c-0.066-0.035-0.107,0.029-0.059,0.195
					c0.048,0.166,0.161,0.219,0.195,0.3c0.034,0.081,0.08,0.216,0.093,0.292c0.062,0.038,0.19,0.154,0.265,0.214
					c0.074,0.061,0.176,0.282,0.323,0.373c0.121,0.078,0.239,0.063,0.207-0.03c-0.032-0.093-0.145-0.22-0.232-0.282
					c-0.087-0.062-0.217-0.027-0.296-0.094C30.218,31.054,30.04,30.924,30.042,30.911"/>
				<path style="fill:#009B3A;stroke:#000000;stroke-width:0.0172;" d="M29.617,31.652c-0.4,0.005-0.722-0.085-0.718-0.2
					c0.004-0.114,0.324-0.21,0.719-0.217c0.4-0.005,0.722,0.085,0.718,0.2C30.332,31.548,30.013,31.645,29.617,31.652"/>
				<path style="fill:#009B3A;stroke:#000000;stroke-width:0.0172;" d="M29.521,31.001c-0.254,0.327-0.528,0.535-0.614,0.464
					c-0.085-0.071,0.051-0.395,0.305-0.722l0,0c0.254-0.328,0.528-0.535,0.614-0.464S29.775,30.673,29.521,31.001"/>
				<path style="fill:#009B3A;stroke:#000000;stroke-width:0.0172;" d="M29.623,31.332c-0.372,0.16-0.707,0.204-0.747,0.098
					c-0.041-0.106,0.228-0.322,0.6-0.483c0.372-0.16,0.707-0.204,0.747-0.098C30.263,30.956,29.995,31.172,29.623,31.332
					L29.623,31.332"/>
				<path style="fill:#009B3A;stroke:#000000;stroke-width:0.0172;" d="M29.82,25.024c0.184,0.166,0.295,0.321,0.248,0.347
					c-0.047,0.025-0.235-0.088-0.419-0.254c-0.184-0.166-0.296-0.321-0.249-0.347c0.047-0.026,0.234,0.087,0.419,0.253L29.82,25.024
					"/>
				<path style="fill:#009B3A;stroke:#000000;stroke-width:0.0172;" d="M29.599,25.211c0.249,0.032,0.459,0.101,0.469,0.152
					c0.01,0.052-0.185,0.067-0.434,0.035s-0.459-0.101-0.469-0.152C29.155,25.194,29.349,25.179,29.599,25.211L29.599,25.211"/>
				<path style="fill:#009B3A;stroke:#000000;stroke-width:0.0172;" d="M29.688,25.093c0.235,0.119,0.405,0.249,0.38,0.29
					c-0.025,0.041-0.235-0.023-0.47-0.142l0,0c-0.235-0.119-0.405-0.249-0.38-0.29C29.243,24.909,29.453,24.973,29.688,25.093"/>
				<path style="fill:#009B3A;stroke:#000000;stroke-width:0.0172;" d="M26.42,30.946c0,0,0.607,0.13,1.136,0.322
					c0.528,0.192,1.33,0.851,1.546,0.888c0.242,0.011,0.577-0.072,0.705-0.421c-0.373,0.099-0.596,0.25-0.952,0.055
					c-0.126-0.048-0.537-0.422-0.988-0.623c-0.451-0.201-1.361-0.429-1.361-0.429L26.42,30.946"/>
				<path style="fill:#009B3A;stroke:#000000;stroke-width:0.0172;" d="M27.068,25.453c-0.002-0.005,0.699-0.369,0.699-0.369
					l-0.771,0.197l-0.09,0.136L27.068,25.453"/>
				<path style="fill:#009B3A;stroke:#000000;stroke-width:0.0172;" d="M27.731,25.623c-0.271-0.049-0.687-0.14-0.952-0.161
					c0.183-0.203,0.436-0.546,0.591-0.757c-0.103,0.201-0.264,0.466-0.328,0.658C27.229,25.464,27.523,25.543,27.731,25.623"/>
				<path style="fill:#009B3A;stroke:#000000;stroke-width:0.0172;" d="M26.943,25.496c-0.003-0.005,0.621-0.481,0.621-0.481
					l-0.722,0.323l-0.064,0.149L26.943,25.496"/>
				<path style="fill:#009B3A;stroke:#000000;stroke-width:0.0172;" d="M27.606,25.617c-0.273-0.052-0.692-0.147-0.959-0.17
					c0.18-0.209,0.427-0.563,0.579-0.78c-0.099,0.207-0.256,0.48-0.316,0.679C27.099,25.45,27.395,25.533,27.606,25.617"/>
				<path style="fill:#009B3A;stroke:#000000;stroke-width:0.0172;" d="M26.839,25.536c-0.002-0.005,0.732-0.306,0.732-0.306
					l-0.788,0.13l-0.102,0.127L26.839,25.536"/>
				<path style="fill:#009B3A;stroke:#000000;stroke-width:0.0172;" d="M27.523,25.623c-0.276-0.023-0.702-0.074-0.968-0.069
					c0.153-0.232,0.356-0.619,0.481-0.856c-0.074,0.221-0.197,0.516-0.233,0.725C27.002,25.509,27.305,25.561,27.523,25.623"/>
				<path style="fill:#009B3A;stroke:#000000;stroke-width:0.0172;" d="M26.764,25.539c-0.004-0.004,0.496-0.604,0.496-0.604
					l-0.628,0.47l-0.029,0.16L26.764,25.539"/>
				<path style="fill:#009B3A;stroke:#000000;stroke-width:0.0172;" d="M27.52,25.663c-0.295-0.006-0.754-0.032-1.036-0.007
					c0.14-0.264,0.316-0.7,0.425-0.968c-0.056,0.247-0.157,0.577-0.175,0.807C26.955,25.575,27.281,25.61,27.52,25.663"/>
				<path style="fill:#009B3A;stroke:#000000;stroke-width:0.0172;" d="M26.664,25.682c-0.004-0.005,0.602-0.578,0.602-0.578
					l-0.728,0.403l-0.05,0.173L26.664,25.682"/>
				<path style="fill:#009B3A;stroke:#000000;stroke-width:0.0172;" d="M27.388,25.682c-0.317,0.001-0.806-0.016-1.116,0.019
					c0.206-0.294,0.486-0.779,0.659-1.077c-0.112,0.273-0.289,0.64-0.356,0.894C26.796,25.599,27.141,25.63,27.388,25.682"/>
				<path style="fill:#009B3A;stroke:#000000;stroke-width:0.0172;" d="M26.462,25.725c-0.003-0.006,0.769-0.651,0.769-0.651
					l-0.869,0.462l-0.09,0.191L26.462,25.725"/>
				<path style="fill:#009B3A;stroke:#000000;stroke-width:0.0172;" d="M27.272,25.701c-0.314,0.045-0.801,0.097-1.103,0.173
					c0.161-0.316,0.37-0.827,0.499-1.142c-0.072,0.282-0.195,0.664-0.225,0.921C26.675,25.703,27.021,25.684,27.272,25.701"/>
				<path style="fill:#009B3A;stroke:#000000;stroke-width:0.0172;" d="M26.358,25.854c-0.004-0.005,0.592-0.821,0.592-0.821
					l-0.739,0.669l-0.04,0.205L26.358,25.854"/>
				<path style="fill:#009B3A;stroke:#000000;stroke-width:0.0172;" d="M27.099,25.799c-0.317,0.029-0.806,0.056-1.112,0.118
					c0.179-0.307,0.416-0.807,0.562-1.115c-0.087,0.278-0.232,0.653-0.276,0.908C26.502,25.771,26.849,25.77,27.099,25.799"/>
				<path style="fill:#009B3A;stroke:#000000;stroke-width:0.0172;" d="M26.252,25.94c-0.003-0.006,0.754-0.653,0.754-0.653
					l-0.856,0.461l-0.086,0.193L26.252,25.94"/>
				<path style="fill:#009B3A;stroke:#000000;stroke-width:0.0172;" d="M27.006,25.831c-0.316,0.067-0.805,0.151-1.107,0.248
					c0.147-0.322,0.333-0.841,0.447-1.16c-0.058,0.283-0.164,0.668-0.181,0.923C26.402,25.875,26.751,25.833,27.006,25.831"/>
				<path style="fill:#009B3A;stroke:#000000;stroke-width:0.0172;" d="M26.127,25.974c-0.005-0.004,0.482-0.895,0.482-0.895
					l-0.652,0.774l-0.011,0.204L26.127,25.974"/>
				<path style="fill:#009B3A;stroke:#000000;stroke-width:0.0172;" d="M27.006,25.883c-0.339,0.088-0.866,0.204-1.186,0.325
					c0.123-0.366,0.263-0.954,0.35-1.315c-0.029,0.319-0.099,0.753-0.086,1.039C26.348,25.958,26.726,25.895,27.006,25.883"/>
				<path style="fill:#009B3A;stroke:#000000;stroke-width:0.0172;" d="M26.032,26.18c-0.005-0.005,0.607-0.897,0.607-0.897
					l-0.776,0.725l-0.033,0.226L26.032,26.18"/>
				<path style="fill:#009B3A;stroke:#000000;stroke-width:0.0172;" d="M26.872,25.984c-0.333,0.105-0.853,0.248-1.165,0.385
					c0.105-0.369,0.217-0.957,0.287-1.318c-0.014,0.316-0.063,0.75-0.037,1.031C26.22,26.094,26.594,26.012,26.872,25.984"/>
				<path style="fill:#009B3A;stroke:#000000;stroke-width:0.0172;" d="M25.91,26.312c-0.006-0.004,0.461-0.99,0.461-0.99
					l-0.656,0.852l0.003,0.228L25.91,26.312"/>
				<path style="fill:#009B3A;stroke:#000000;stroke-width:0.0172;" d="M26.745,26.12c-0.341,0.078-0.871,0.177-1.195,0.288
					c0.138-0.359,0.303-0.936,0.405-1.291c-0.043,0.314-0.131,0.742-0.131,1.025C26.086,26.176,26.466,26.125,26.745,26.12"/>
				<path style="fill:#009B3A;stroke:#000000;stroke-width:0.0172;" d="M25.8,26.407c-0.004-0.006,0.754-0.774,0.754-0.774
					l-0.889,0.573l-0.072,0.218L25.8,26.407"/>
				<path style="fill:#009B3A;stroke:#000000;stroke-width:0.0172;" d="M26.594,26.254c-0.338,0.045-0.862,0.094-1.184,0.175
					c0.157-0.352,0.354-0.923,0.475-1.273c-0.061,0.316-0.173,0.742-0.191,1.03C25.947,26.245,26.321,26.231,26.594,26.254"/>
				<path style="fill:#009B3A;stroke:#000000;stroke-width:0.0172;" d="M25.651,26.33c-0.006-0.005,0.513-0.969,0.513-0.969
					l-0.696,0.815l-0.011,0.231L25.651,26.33"/>
				<path style="fill:#009B3A;stroke:#000000;stroke-width:0.0172;" d="M26.635,26.139c-0.367,0.15-0.941,0.36-1.285,0.545
					c0.113-0.436,0.232-1.127,0.306-1.551c-0.013,0.368-0.063,0.874-0.032,1.198C25.915,26.321,26.328,26.195,26.635,26.139"/>
				<path style="fill:#009B3A;stroke:#000000;stroke-width:0.0172;" d="M25.58,26.623c-0.006-0.005,0.614-1.112,0.614-1.112
					l-0.81,0.941l-0.022,0.263L25.58,26.623"/>
				<path style="fill:#009B3A;stroke:#000000;stroke-width:0.0172;" d="M26.494,26.276c-0.36,0.169-0.923,0.408-1.259,0.611
					c0.093-0.436,0.181-1.123,0.236-1.546c0.003,0.363-0.024,0.864,0.021,1.182C25.783,26.497,26.19,26.349,26.494,26.276"/>
				<path style="fill:#009B3A;stroke:#000000;stroke-width:0.0172;" d="M25.455,26.792c-0.007-0.004,0.448-1.197,0.448-1.197
					l-0.671,1.069l0.017,0.259L25.455,26.792"/>
				<path style="fill:#009B3A;stroke:#000000;stroke-width:0.0172;" d="M26.336,26.376c-0.359,0.172-0.921,0.416-1.255,0.621
					c0.091-0.437,0.174-1.124,0.226-1.547c0.006,0.363-0.018,0.864,0.029,1.181C25.626,26.603,26.032,26.451,26.336,26.376"/>
				<path style="fill:#009B3A;stroke:#000000;stroke-width:0.0172;" d="M25.353,26.934c-0.005-0.006,0.693-1.055,0.693-1.055
					l-0.874,0.864l-0.043,0.262L25.353,26.934"/>
				<path style="fill:#009B3A;stroke:#000000;stroke-width:0.0172;" d="M26.303,26.321c-0.32,0.256-0.827,0.631-1.115,0.912
					c-0.001-0.441-0.06-1.12-0.095-1.537c0.08,0.346,0.16,0.831,0.272,1.122C25.647,26.718,26.018,26.47,26.303,26.321"/>
				<path style="fill:#009B3A;stroke:#000000;stroke-width:0.0172;" d="M25.388,26.984c-0.008-0.001,0.08-1.265,0.08-1.265
					l-0.334,1.23l0.093,0.232L25.388,26.984"/>
				<path style="fill:#009B3A;stroke:#000000;stroke-width:0.0172;" d="M26.212,26.438c-0.321,0.254-0.829,0.627-1.119,0.906
					c0.001-0.441-0.055-1.12-0.089-1.538c0.079,0.346,0.157,0.833,0.267,1.124C25.555,26.831,25.926,26.585,26.212,26.438"/>
				<path style="fill:#009B3A;stroke:#000000;stroke-width:0.0172;" d="M25.307,27.199c-0.007-0.003,0.323-1.236,0.323-1.236
					L25.071,27.1l0.044,0.254L25.307,27.199"/>
				<path style="fill:#009B3A;stroke:#000000;stroke-width:0.0172;" d="M26.176,26.467c-0.303,0.299-0.787,0.742-1.055,1.064
					c-0.048-0.452-0.181-1.142-0.263-1.567c0.12,0.346,0.254,0.835,0.401,1.121C25.541,26.949,25.897,26.652,26.176,26.467"/>
				<path style="fill:#009B3A;stroke:#000000;stroke-width:0.0172;" d="M25.309,27.357c-0.008-0.001,0.06-1.314,0.06-1.314
					l-0.323,1.277l0.1,0.241L25.309,27.357"/>
				<path style="fill:#009B3A;stroke:#000000;stroke-width:0.0172;" d="M26.08,26.685c-0.325,0.268-0.839,0.663-1.131,0.958
					c-0.01-0.458-0.086-1.163-0.132-1.597c0.09,0.359,0.183,0.862,0.306,1.164C25.412,27.103,25.789,26.842,26.08,26.685"/>
				<path style="fill:#009B3A;stroke:#000000;stroke-width:0.0172;" d="M25.213,27.506c-0.007-0.004,0.458-1.236,0.458-1.236
					l-0.686,1.095l0.018,0.271L25.213,27.506"/>
				<path style="fill:#009B3A;stroke:#000000;stroke-width:0.0172;" d="M26.075,26.69c-0.287,0.304-0.745,0.755-0.999,1.082
					c-0.045-0.458-0.172-1.158-0.25-1.588c0.114,0.35,0.242,0.846,0.381,1.135C25.473,27.181,25.81,26.879,26.075,26.69"/>
				<path style="fill:#009B3A;stroke:#000000;stroke-width:0.0172;" d="M25.23,27.57c-0.008,0-0.054-1.307-0.054-1.307l-0.212,1.302
					l0.121,0.226L25.23,27.57"/>
				<path style="fill:#009B3A;stroke:#000000;stroke-width:0.0172;" d="M25.934,26.788c-0.278,0.307-0.722,0.762-0.966,1.091
					c-0.059-0.458-0.206-1.158-0.296-1.587c0.124,0.35,0.266,0.845,0.414,1.133C25.347,27.285,25.675,26.979,25.934,26.788"/>
				<path style="fill:#009B3A;stroke:#000000;stroke-width:0.0172;" d="M25.156,27.7c-0.007-0.002,0.146-1.328,0.146-1.328
					l-0.389,1.256l0.078,0.258L25.156,27.7"/>
				<path style="fill:#009B3A;stroke:#000000;stroke-width:0.0172;" d="M25.874,26.84c-0.254,0.332-0.662,0.828-0.881,1.179
					c-0.093-0.45-0.294-1.131-0.416-1.55c0.15,0.336,0.33,0.814,0.499,1.087C25.326,27.391,25.63,27.055,25.874,26.84"/>
				<path style="fill:#009B3A;stroke:#000000;stroke-width:0.0172;" d="M25.151,27.824c-0.008,0-0.084-1.329-0.084-1.329
					l-0.167,1.319l0.121,0.232L25.151,27.824"/>
				<path style="fill:#009B3A;stroke:#000000;stroke-width:0.0172;" d="M25.848,26.915c-0.239,0.348-0.624,0.869-0.826,1.234
					c-0.117-0.448-0.352-1.124-0.497-1.539c0.168,0.33,0.372,0.803,0.556,1.068C25.326,27.499,25.614,27.145,25.848,26.915"/>
				<path style="fill:#009B3A;stroke:#000000;stroke-width:0.0172;" d="M25.233,27.948c-0.007-0.002,0.135-1.335,0.135-1.335
					l-0.381,1.255l0.08,0.263L25.233,27.948"/>
				<path style="fill:#009B3A;stroke:#000000;stroke-width:0.0172;" d="M25.8,27.039c-0.206,0.379-0.541,0.951-0.709,1.341
					c-0.156-0.43-0.451-1.068-0.632-1.461c0.197,0.305,0.442,0.746,0.649,0.985C25.334,27.692,25.588,27.3,25.8,27.039"/>
				<path style="fill:#009B3A;stroke:#000000;stroke-width:0.0172;" d="M25.187,28.058c-0.007,0.002-0.373-1.266-0.373-1.266
					l0.126,1.335l0.168,0.188L25.187,28.058"/>
				<path style="fill:#009B3A;stroke:#000000;stroke-width:0.0172;" d="M25.792,27.187c-0.214,0.378-0.564,0.948-0.739,1.337
					c-0.157-0.428-0.455-1.065-0.638-1.457c0.2,0.304,0.449,0.744,0.659,0.982C25.307,27.838,25.572,27.447,25.792,27.187"/>
				<path style="fill:#009B3A;stroke:#000000;stroke-width:0.0172;" d="M25.204,28.297c-0.008,0-0.137-1.331-0.137-1.331
					l-0.123,1.331l0.133,0.228L25.204,28.297"/>
				<path style="fill:#009B3A;stroke:#000000;stroke-width:0.0172;" d="M25.814,27.304c-0.22,0.373-0.579,0.934-0.76,1.32
					c-0.15-0.432-0.438-1.076-0.614-1.472c0.195,0.308,0.436,0.754,0.643,0.997C25.319,27.943,25.59,27.559,25.814,27.304"/>
				<path style="fill:#009B3A;stroke:#000000;stroke-width:0.0172;" d="M25.192,28.403c-0.008,0.001-0.247-1.307-0.247-1.307
					l-0.012,1.339l0.152,0.211L25.192,28.403"/>
				<path style="fill:#009B3A;stroke:#000000;stroke-width:0.0172;" d="M25.719,27.493c-0.238,0.357-0.622,0.893-0.822,1.265
					c-0.129-0.442-0.386-1.104-0.543-1.512c0.18,0.322,0.4,0.784,0.594,1.04C25.195,28.097,25.484,27.732,25.719,27.493"/>
				<path style="fill:#009B3A;stroke:#000000;stroke-width:0.0172;" d="M25.077,28.549c-0.008-0.002,0.111-1.336,0.111-1.336
					l-0.364,1.267l0.088,0.258L25.077,28.549"/>
				<path style="fill:#009B3A;stroke:#000000;stroke-width:0.0172;" d="M25.733,27.525c-0.203,0.387-0.536,0.971-0.7,1.368
					c-0.17-0.421-0.486-1.045-0.68-1.428c0.208,0.295,0.47,0.724,0.687,0.953C25.268,28.196,25.521,27.794,25.733,27.525"/>
				<path style="fill:#009B3A;stroke:#000000;stroke-width:0.0172;" d="M25.032,28.661c-0.008,0.002-0.41-1.246-0.41-1.246
					l0.158,1.324l0.177,0.18L25.032,28.661"/>
				<path style="fill:#009B3A;stroke:#000000;stroke-width:0.0172;" d="M25.678,27.625c-0.142,0.424-0.381,1.071-0.483,1.497
					c-0.23-0.377-0.636-0.92-0.884-1.255c0.25,0.244,0.572,0.609,0.82,0.786C25.321,28.386,25.51,27.936,25.678,27.625"/>
				<path style="fill:#009B3A;stroke:#000000;stroke-width:0.0172;" d="M25.396,28.762c-0.008,0.003-0.444-1.228-0.444-1.228
					l0.194,1.317l0.182,0.173L25.396,28.762"/>
				<path style="fill:#009B3A;stroke:#000000;stroke-width:0.0172;" d="M25.675,27.755c-0.139,0.426-0.374,1.075-0.472,1.502
					c-0.233-0.374-0.642-0.914-0.893-1.246c0.251,0.242,0.576,0.603,0.826,0.777C25.323,28.52,25.509,28.068,25.675,27.755"/>
				<path style="fill:#009B3A;stroke:#000000;stroke-width:0.0172;" d="M25.4,28.972c-0.007,0.004-0.571-1.149-0.571-1.149
					l0.333,1.276l0.199,0.143L25.4,28.972"/>
				<path style="fill:#009B3A;stroke:#000000;stroke-width:0.0172;" d="M25.632,27.862c-0.089,0.442-0.247,1.119-0.296,1.556
					c-0.274-0.338-0.742-0.814-1.029-1.107c0.277,0.204,0.641,0.515,0.908,0.652C25.371,28.67,25.503,28.196,25.632,27.862"/>
				<path style="fill:#009B3A;stroke:#000000;stroke-width:0.0172;" d="M25.438,29.152c-0.008,0.002-0.308-1.288-0.308-1.288
					l0.051,1.337l0.161,0.2L25.438,29.152"/>
				<path style="fill:#009B3A;stroke:#000000;stroke-width:0.0172;" d="M25.633,27.999c-0.047,0.452-0.141,1.147-0.149,1.589
					c-0.304-0.299-0.812-0.71-1.124-0.963c0.294,0.165,0.684,0.426,0.962,0.527C25.45,28.839,25.537,28.349,25.633,27.999"/>
				<path style="fill:#009B3A;stroke:#000000;stroke-width:0.0172;" d="M25.453,29.247c-0.006,0.006-0.814-0.93-0.814-0.93
					l0.614,1.126l0.224,0.077L25.453,29.247"/>
				<path style="fill:#009B3A;stroke:#000000;stroke-width:0.0172;" d="M25.651,28.157c-0.049,0.452-0.145,1.146-0.155,1.588
					c-0.302-0.301-0.809-0.715-1.12-0.969c0.293,0.167,0.682,0.43,0.96,0.533C25.464,28.996,25.553,28.506,25.651,28.157"/>
				<path style="fill:#009B3A;stroke:#000000;stroke-width:0.0172;" d="M25.544,29.461c-0.007,0.004-0.626-1.121-0.626-1.121
					l0.393,1.258l0.205,0.134L25.544,29.461"/>
				<path style="fill:#009B3A;stroke:#000000;stroke-width:0.0172;" d="M25.687,28.343c-0.03,0.454-0.097,1.155-0.088,1.597
					c-0.314-0.283-0.838-0.665-1.159-0.901c0.3,0.149,0.699,0.389,0.98,0.474C25.535,29.192,25.604,28.698,25.687,28.343"/>
				<path style="fill:#009B3A;stroke:#000000;stroke-width:0.0172;" d="M25.623,29.668c-0.006,0.006-0.773-0.98-0.773-0.98
					l0.564,1.163l0.221,0.091L25.623,29.668"/>
				<path style="fill:#009B3A;stroke:#000000;stroke-width:0.0172;" d="M25.695,28.553c-0.027,0.455-0.09,1.156-0.078,1.597
					c-0.316-0.28-0.841-0.658-1.164-0.891c0.3,0.147,0.701,0.383,0.983,0.466C25.549,29.403,25.614,28.908,25.695,28.553"/>
				<path style="fill:#009B3A;stroke:#000000;stroke-width:0.0172;" d="M25.694,29.834c-0.007,0.003-0.542-1.181-0.542-1.181
					l0.3,1.293l0.195,0.155L25.694,29.834"/>
				<path style="fill:#009B3A;stroke:#000000;stroke-width:0.0172;" d="M25.716,28.688c0.016,0.456,0.018,1.162,0.071,1.601
					c-0.34-0.236-0.896-0.541-1.238-0.73c0.312,0.105,0.731,0.287,1.018,0.331C25.65,29.555,25.669,29.053,25.716,28.688"/>
				<path style="fill:#009B3A;stroke:#000000;stroke-width:0.0172;" d="M25.788,29.788c-0.005,0.007-0.99-0.678-0.99-0.678
					l0.839,0.925l0.233,0.012L25.788,29.788"/>
				<path style="fill:#009B3A;stroke:#000000;stroke-width:0.0172;" d="M25.747,28.736c0.039,0.454,0.079,1.158,0.155,1.593
					c-0.352-0.222-0.925-0.506-1.277-0.681c0.318,0.093,0.747,0.258,1.037,0.291C25.726,29.603,25.719,29.102,25.747,28.736"/>
				<path style="fill:#009B3A;stroke:#000000;stroke-width:0.0172;" d="M25.895,30.04c-0.006,0.006-0.825-0.948-0.825-0.948
					l0.625,1.138l0.226,0.082L25.895,30.04"/>
				<path style="fill:#009B3A;stroke:#000000;stroke-width:0.0172;" d="M25.819,28.91c0.058,0.452,0.127,1.154,0.221,1.585
					c-0.36-0.201-0.943-0.451-1.302-0.605c0.32,0.074,0.755,0.213,1.046,0.229C25.835,29.778,25.806,29.277,25.819,28.91"/>
				<path style="fill:#009B3A;stroke:#000000;stroke-width:0.0172;" d="M26.06,30.2c-0.005,0.007-0.982-0.694-0.982-0.694
					l0.829,0.938l0.233,0.016L26.06,30.2"/>
				<path style="fill:#009B3A;stroke:#000000;stroke-width:0.0172;" d="M25.85,29.102c0.088,0.447,0.203,1.143,0.325,1.565
					c-0.371-0.167-0.967-0.361-1.333-0.482c0.323,0.044,0.764,0.142,1.054,0.13C25.923,29.97,25.862,29.471,25.85,29.102"/>
				<path style="fill:#009B3A;stroke:#000000;stroke-width:0.0172;" d="M26.168,30.338c-0.006,0.006-0.812-0.963-0.812-0.963
					l0.61,1.149l0.225,0.087L26.168,30.338"/>
				<path style="fill:#009B3A;stroke:#000000;stroke-width:0.0172;" d="M25.903,29.226c0.129,0.435,0.308,1.114,0.468,1.52
					c-0.383-0.117-0.99-0.232-1.363-0.303c0.324,0.001,0.769,0.04,1.054-0.011C26.057,30.083,25.949,29.593,25.903,29.226"/>
				<path style="fill:#009B3A;stroke:#000000;stroke-width:0.0172;" d="M26.211,30.339c-0.002,0.009-1.135-0.243-1.135-0.243
					l1.079,0.537l0.218-0.082L26.211,30.339"/>
				<path style="fill:#009B3A;stroke:#000000;stroke-width:0.0172;" d="M25.977,29.362c0.127,0.435,0.304,1.116,0.462,1.522
					c-0.382-0.12-0.989-0.237-1.362-0.31c0.324,0.003,0.769,0.044,1.054-0.005C26.128,30.219,26.022,29.729,25.977,29.362"/>
				<path style="fill:#009B3A;stroke:#000000;stroke-width:0.0172;" d="M26.396,30.46c-0.003,0.008-1.086-0.524-1.086-0.524
					l0.974,0.79l0.233-0.022L26.396,30.46"/>
				<path style="fill:#009B3A;stroke:#000000;stroke-width:0.0172;" d="M25.92,29.437c0.216,0.397,0.531,1.022,0.771,1.383
					c-0.398-0.03-1.014-0.008-1.392,0.005c0.316-0.071,0.758-0.131,1.026-0.243C26.248,30.241,26.041,29.786,25.92,29.437"/>
				<path style="fill:#009B3A;stroke:#000000;stroke-width:0.0172;" d="M26.568,30.578c-0.002,0.009-1.128-0.312-1.128-0.312
					l1.059,0.6l0.223-0.068L26.568,30.578"/>
				<path style="fill:#009B3A;stroke:#000000;stroke-width:0.0172;" d="M26.037,29.606c0.218,0.395,0.537,1.018,0.779,1.377
					c-0.398-0.027-1.013,0-1.391,0.016c0.315-0.073,0.757-0.137,1.024-0.252C26.369,30.407,26.16,29.953,26.037,29.606"/>
				<path style="fill:#009B3A;stroke:#000000;stroke-width:0.0172;" d="M26.711,30.671c-0.004,0.008-1.051-0.629-1.051-0.629
					l0.919,0.879l0.236,0.002L26.711,30.671"/>
				<path style="fill:#009B3A;stroke:#000000;stroke-width:0.0172;" d="M26.125,29.705c0.252,0.369,0.626,0.953,0.899,1.283
					c-0.393,0.025-0.995,0.132-1.365,0.198c0.303-0.115,0.73-0.237,0.981-0.387C26.529,30.468,26.279,30.039,26.125,29.705"/>
				<path style="fill:#009B3A;stroke:#000000;stroke-width:0.0172;" d="M26.788,30.764c0,0.009-1.135-0.027-1.135-0.027l1.123,0.332
					l0.2-0.124L26.788,30.764"/>
				<path style="fill:#009B3A;stroke:#000000;stroke-width:0.0172;" d="M27.446,25.264c0-0.004,0.817-0.136,0.817-0.136
					l-0.812,0.019l-0.142,0.073L27.446,25.264"/>
				<path style="fill:#009B3A;stroke:#000000;stroke-width:0.0172;" d="M27.894,25.438c-0.237-0.072-0.595-0.192-0.838-0.244
					c0.258-0.103,0.641-0.285,0.876-0.397c-0.181,0.113-0.444,0.259-0.585,0.373C27.483,25.262,27.729,25.356,27.894,25.438"/>
				<path style="fill:#009B3A;stroke:#000000;stroke-width:0.0172;" d="M27.41,25.292c-0.001-0.003,0.79-0.217,0.79-0.217
					l-0.818,0.104l-0.123,0.085L27.41,25.292"/>
				<path style="fill:#009B3A;stroke:#000000;stroke-width:0.0172;" d="M27.932,25.496c-0.277-0.026-0.701-0.079-0.975-0.082
					c0.206-0.182,0.494-0.487,0.672-0.674c-0.122,0.176-0.31,0.409-0.391,0.576C27.424,25.39,27.722,25.44,27.932,25.496"/>
				<path style="fill:#009B3A;stroke:#000000;stroke-width:0.0172;" d="M27.116,25.349c0.001-0.004,0.821-0.093,0.821-0.093
					l-0.8-0.026l-0.15,0.066L27.116,25.349"/>
				<path style="fill:#009B3A;stroke:#000000;stroke-width:0.0172;" d="M27.724,25.527c-0.252-0.048-0.634-0.132-0.889-0.162
					c0.242-0.119,0.595-0.323,0.812-0.448c-0.162,0.122-0.401,0.282-0.522,0.402C27.278,25.394,27.543,25.463,27.724,25.527"/>
				<path style="fill:#009B3A;stroke:#000000;stroke-width:0.0172;" d="M27.046,25.34c-0.002-0.003,0.723-0.311,0.723-0.311
					l-0.792,0.209l-0.095,0.096L27.046,25.34"/>
				<path style="fill:#009B3A;stroke:#000000;stroke-width:0.0172;" d="M27.7,25.618c-0.209-0.087-0.53-0.233-0.738-0.294
					c0.16-0.149,0.387-0.411,0.526-0.571c-0.097,0.16-0.245,0.368-0.31,0.527C27.317,25.398,27.542,25.514,27.7,25.618"/>
				<path style="fill:#009B3A;stroke:#000000;stroke-width:0.0172;" d="M27.087,25.393c-0.002-0.005,0.562-0.244,0.562-0.244
					l-0.612,0.084l-0.075,0.109L27.087,25.393"/>
				<path style="fill:#009B3A;stroke:#000000;stroke-width:0.0172;" d="M26.616,30.659c0.001,0.009-1.165,0.009-1.165,0.009
					l1.18,0.288l0.194-0.127L26.616,30.659"/>
				<path style="fill:#009B3A;stroke:#000000;stroke-width:0.0172;" d="M26.826,30.734c-0.001,0.009-1.184-0.275-1.184-0.275
					l1.137,0.557l0.223-0.072L26.826,30.734"/>
				<path style="fill:#009B3A;stroke:#000000;stroke-width:0.0172;" d="M27.02,30.813c0,0.009-1.175-0.059-1.175-0.059l1.175,0.354
					l0.201-0.114L27.02,30.813"/>
				<path style="fill:#009B3A;stroke:#000000;stroke-width:0.0172;" d="M26.274,29.984c0.306,0.337,0.764,0.874,1.084,1.171
					c-0.395,0.06-0.989,0.219-1.355,0.317c0.291-0.14,0.707-0.297,0.941-0.466C26.787,30.691,26.476,30.295,26.274,29.984"/>
				<path style="fill:#009B3A;stroke:#000000;stroke-width:0.0172;" d="M27.181,30.874c-0.002,0.008-1.175-0.384-1.175-0.384
					l1.104,0.656l0.231-0.049L27.181,30.874"/>
				<path style="fill:#009B3A;stroke:#000000;stroke-width:0.0172;" d="M26.383,30.061c0.333,0.304,0.836,0.792,1.179,1.053
					c-0.378,0.109-0.94,0.344-1.286,0.487c0.268-0.177,0.657-0.388,0.867-0.588C26.956,30.715,26.612,30.352,26.383,30.061"/>
				<path style="fill:#009B3A;stroke:#000000;stroke-width:0.0172;" d="M27.278,30.946c0.002,0.009-1.115,0.219-1.115,0.219
					l1.174,0.08l0.166-0.164L27.278,30.946"/>
				<path style="fill:#009B3A;stroke:#000000;stroke-width:0.0172;" d="M27.046,30.875c0.001,0.009-1.162,0.089-1.162,0.089
					l1.199,0.206l0.184-0.14L27.046,30.875"/>
				<path style="fill:#009B3A;stroke:#000000;stroke-width:0.0172;" d="M27.26,30.937c-0.001,0.009-1.202-0.193-1.202-0.193
					l1.176,0.477l0.217-0.087L27.26,30.937L27.26,30.937z"/>
				<path style="fill:#009B3A;stroke:#000000;stroke-width:0.0172;" d="M27.46,31.002c0.001,0.009-1.177,0.022-1.177,0.022
					l1.199,0.272l0.193-0.128L27.46,31.002z"/>
				<path style="fill:#009B3A;stroke:#000000;stroke-width:0.0172;" d="M26.652,30.226c0.33,0.315,0.828,0.818,1.17,1.092
					c-0.389,0.087-0.971,0.287-1.328,0.409c0.28-0.159,0.683-0.345,0.904-0.53C27.217,30.896,26.877,30.522,26.652,30.226
					L26.652,30.226z"/>
				<path style="fill:#009B3A;stroke:#000000;stroke-width:0.0172;" d="M27.626,31.051c-0.002,0.008-1.201-0.302-1.201-0.302
					l1.151,0.578l0.227-0.065L27.626,31.051L27.626,31.051z"/>
				<path style="fill:#009B3A;stroke:#000000;stroke-width:0.0172;" d="M26.767,30.295c0.355,0.28,0.894,0.731,1.256,0.968
					c-0.369,0.135-0.913,0.407-1.247,0.574c0.255-0.195,0.627-0.432,0.821-0.646C27.389,30.907,27.018,30.569,26.767,30.295
					L26.767,30.295z"/>
				<path style="fill:#009B3A;stroke:#000000;stroke-width:0.0172;" d="M27.728,31.116c0.002,0.009-1.096,0.295-1.096,0.295
					l1.178-0.001l0.153-0.175L27.728,31.116L27.728,31.116z"/>
			</g>
			<path style="fill:#FEDF00;stroke:#000000;stroke-width:0.0513;" d="M29.241,29.467l-0.895-0.619l-0.895,0.619l0.336-0.99
				l-0.783-0.619h1.007l0.336-0.99l0.336,0.99h1.007l-0.783,0.619L29.241,29.467L29.241,29.467z"/>
		</g>
	</g>
</g>
</svg>
