<?xml version="1.0" encoding="iso-8859-1"?>
<!-- Generator: Adobe Illustrator 18.1.1, SVG Export Plug-In . SVG Version: 6.00 Build 0)  -->
<svg version="1.1" id="Layer_59" xmlns="http://www.w3.org/2000/svg" xmlns:xlink="http://www.w3.org/1999/xlink" x="0px" y="0px"
	 viewBox="0 0 56.692 56.692" style="enable-background:new 0 0 56.692 56.692;" xml:space="preserve">
<g>
	<defs>
		<circle id="SVGID_1_" cx="28.346" cy="28.347" r="28.347"/>
	</defs>
	<clipPath id="SVGID_2_">
		<use xlink:href="#SVGID_1_"  style="overflow:visible;"/>
	</clipPath>
	<rect x="-0.567" y="0" style="clip-path:url(#SVGID_2_);fill:#FFFFFF;" width="85.038" height="56.692"/>
	<path style="clip-path:url(#SVGID_2_);fill:#70193D;" d="M16.514,0c0.153,0.072,4.101,1.964,6.568,3.145
		c-2.516,1.202-6.581,3.148-6.581,3.148s4.065,1.948,6.581,3.151c-2.516,1.202-6.581,3.15-6.581,3.15s4.065,1.947,6.581,3.149
		c-2.516,1.202-6.581,3.149-6.581,3.149s4.065,1.948,6.581,3.148c-2.516,1.205-6.581,3.151-6.581,3.151s4.065,1.948,6.581,3.151
		c-2.516,1.2-6.581,3.149-6.581,3.149s4.065,1.946,6.581,3.149c-2.516,1.203-6.581,3.15-6.581,3.15s4.065,1.948,6.581,3.149
		c-2.516,1.202-6.581,3.15-6.581,3.15s4.065,1.948,6.581,3.149c-2.516,1.202-6.581,3.15-6.581,3.15s4.065,1.946,6.581,3.151
		c-2.509,1.198-6.558,3.138-6.58,3.147h67.969V0H16.514z"/>
</g>
</svg>
