<?xml version="1.0" encoding="iso-8859-1"?>
<!-- Generator: Adobe Illustrator 18.1.1, SVG Export Plug-In . SVG Version: 6.00 Build 0)  -->
<svg version="1.1" id="Layer_131" xmlns="http://www.w3.org/2000/svg" xmlns:xlink="http://www.w3.org/1999/xlink" x="0px" y="0px"
	 viewBox="0 0 56.692 56.692" style="enable-background:new 0 0 56.692 56.692;" xml:space="preserve">
<g>
	<defs>
		<circle id="SVGID_1_" cx="28.346" cy="28.346" r="28.347"/>
	</defs>
	<clipPath id="SVGID_2_">
		<use xlink:href="#SVGID_1_"  style="overflow:visible;"/>
	</clipPath>
	<rect x="-14.173" y="42.931" style="clip-path:url(#SVGID_2_);fill:#009709;" width="85.039" height="13.762"/>
	<rect x="-14.173" y="0" style="clip-path:url(#SVGID_2_);fill:#0096D7;" width="85.039" height="28.551"/>
	<rect x="-14.173" y="42.931" style="clip-path:url(#SVGID_2_);fill:#009709;" width="85.039" height="13.762"/>
	<rect x="-14.173" y="28.55" style="clip-path:url(#SVGID_2_);fill:#FFE60A;" width="85.039" height="14.381"/>
	<g style="clip-path:url(#SVGID_2_);">
		<polygon style="fill:#FFC30A;" points="26.254,16.544 29.713,3.062 29.717,16.98 		"/>
		<polygon style="fill:#FFC30A;" points="25.643,15.896 32.547,3.812 28.871,17.236 		"/>
		<polygon style="fill:#FFC30A;" points="25.231,15.119 35.065,5.271 27.993,17.257 		"/>
		<polygon style="fill:#FFC30A;" points="25.038,14.283 37.067,7.279 27.159,17.056 		"/>
		<polygon style="fill:#FFC30A;" points="25.069,13.408 38.508,9.789 26.393,16.638 		"/>
		<polygon style="fill:#FFC30A;" points="25.323,12.582 39.241,12.556 25.766,16.044 		"/>
		<polygon style="fill:#FFC30A;" points="30.44,16.544 26.981,3.062 26.975,16.98 		"/>
		<polygon style="fill:#FFC30A;" points="31.049,15.896 24.145,3.812 27.823,17.236 		"/>
		<polygon style="fill:#FFC30A;" points="31.463,15.119 21.627,5.271 28.702,17.257 		"/>
		<polygon style="fill:#FFC30A;" points="31.655,14.283 19.627,7.279 29.534,17.056 		"/>
		<polygon style="fill:#FFC30A;" points="31.623,13.408 18.184,9.789 30.301,16.638 		"/>
		<polygon style="fill:#FFC30A;" points="31.37,12.582 17.452,12.556 30.926,16.044 		"/>
		<polygon style="fill:#FFC30A;" points="26.254,11.376 29.713,24.861 29.717,10.941 		"/>
		<polygon style="fill:#FFC30A;" points="25.643,12.025 32.547,24.109 28.871,10.685 		"/>
		<polygon style="fill:#FFC30A;" points="25.231,12.802 35.065,22.652 27.993,10.664 		"/>
		<polygon style="fill:#FFC30A;" points="25.038,13.638 37.067,20.64 27.159,10.865 		"/>
		<polygon style="fill:#FFC30A;" points="25.069,14.513 38.508,18.132 26.393,11.283 		"/>
		<polygon style="fill:#FFC30A;" points="25.323,15.341 39.241,15.365 25.766,11.878 		"/>
		<polygon style="fill:#FFC30A;" points="30.44,11.376 26.981,24.861 26.975,10.941 		"/>
		<polygon style="fill:#FFC30A;" points="31.049,12.025 24.145,24.109 27.823,10.685 		"/>
		<polygon style="fill:#FFC30A;" points="31.463,12.802 21.627,22.652 28.702,10.664 		"/>
		<polygon style="fill:#FFC30A;" points="31.655,13.638 19.627,20.64 29.534,10.865 		"/>
		<polygon style="fill:#FFC30A;" points="31.623,14.513 18.184,18.132 30.301,11.283 		"/>
		<polygon style="fill:#FFC30A;" points="31.37,15.341 17.452,15.365 30.926,11.878 		"/>
	</g>
	<path style="clip-path:url(#SVGID_2_);fill:none;stroke:#0098D7;stroke-width:0.3685;stroke-miterlimit:10;" d="M28.346,9.869
		c2.262-0.002,4.096,1.83,4.094,4.092c0.002,2.264-1.834,4.094-4.094,4.094c-2.262,0.002-4.094-1.832-4.094-4.092
		C24.252,11.699,26.084,9.869,28.346,9.869z"/>
</g>
</svg>
