<?xml version="1.0" encoding="iso-8859-1"?>
<!-- Generator: Adobe Illustrator 18.1.1, SVG Export Plug-In . SVG Version: 6.00 Build 0)  -->
<svg version="1.1" id="Layer_179" xmlns="http://www.w3.org/2000/svg" xmlns:xlink="http://www.w3.org/1999/xlink" x="0px" y="0px"
	 viewBox="0 0 56.692 56.692" style="enable-background:new 0 0 56.692 56.692;" xml:space="preserve">
<g>
	<defs>
		<circle id="SVGID_1_" cx="28.346" cy="28.347" r="28.346"/>
	</defs>
	<clipPath id="SVGID_2_">
		<use xlink:href="#SVGID_1_"  style="overflow:visible;"/>
	</clipPath>
	<g style="clip-path:url(#SVGID_2_);">
		<rect x="-14.174" y="0" style="fill:#006C35;" width="85.04" height="56.693"/>
		<path style="fill:#FFFFFF;" d="M22.482,13.389c-0.044-0.001-0.11,0.023-0.202,0.078c-0.207,0.139-0.618,0.567-0.631,1.059
			c-0.013,0.278-0.065,0.277,0.117,0.454c0.131,0.189,0.263,0.171,0.528,0.032c0.152-0.112,0.204-0.184,0.255-0.372
			c0.063-0.316-0.332,0.149-0.383-0.202c-0.088-0.326,0.164-0.46,0.404-0.776C22.576,13.514,22.579,13.392,22.482,13.389
			L22.482,13.389z M26.344,13.411c-0.074,0.01-0.165,0.105-0.291,0.333c-0.09,0.239-0.479,0.601-0.198,1.346
			c0.23,0.473,0.324,1.241,0.22,2.098c-0.159,0.243-0.195,0.327-0.404,0.57c-0.293,0.315-0.61,0.235-0.854,0.117
			c-0.228-0.153-0.406-0.232-0.51-0.719c0.019-0.777,0.064-2.048-0.078-2.317c-0.209-0.418-0.554-0.268-0.702-0.142
			c-0.708,0.648-1.058,1.741-1.272,2.611c-0.196,0.634-0.406,0.451-0.553,0.195c-0.358-0.335-0.383-2.957-0.815-2.526
			c-0.692,1.977,0.397,4.144,1.152,3.933c0.544,0.225,0.89-0.811,1.113-1.945c0.152-0.318,0.269-0.355,0.347-0.191
			c-0.02,1.509,0.108,1.845,0.496,2.303c0.865,0.668,1.581,0.085,1.637,0.028c0.056-0.056,0.673-0.673,0.673-0.673
			c0.15-0.158,0.348-0.167,0.56-0.028c0.206,0.187,0.179,0.509,0.62,0.733c0.371,0.148,1.163,0.036,1.346-0.283
			c0.247-0.424,0.307-0.569,0.422-0.73c0.176-0.235,0.478-0.131,0.478-0.057c-0.028,0.131-0.206,0.26-0.085,0.496
			c0.21,0.157,0.259,0.056,0.383,0.021c0.439-0.21,0.769-1.162,0.769-1.162c0.019-0.355-0.183-0.328-0.312-0.255
			c-0.168,0.103-0.179,0.138-0.347,0.241c-0.215,0.032-0.63,0.173-0.836-0.145c-0.21-0.383-0.211-0.917-0.372-1.304
			c0-0.028-0.281-0.608-0.021-0.645c0.131,0.024,0.413,0.097,0.457-0.138c0.137-0.229-0.296-0.88-0.592-1.208
			c-0.256-0.281-0.61-0.316-0.953-0.028c-0.24,0.221-0.204,0.468-0.252,0.702c-0.061,0.269-0.049,0.601,0.223,0.957
			c0.24,0.473,0.675,1.079,0.531,1.935c0,0-0.253,0.407-0.698,0.354c-0.185-0.04-0.488-0.121-0.648-1.307
			c-0.122-0.898,0.03-2.157-0.351-2.746C26.541,13.61,26.467,13.394,26.344,13.411L26.344,13.411z M25.122,13.506
			c-0.115,0.01-0.243,0.144-0.347,0.404c-0.089,0.197-0.199,1.23-0.181,1.23c-0.071,0.307,0.321,0.437,0.5,0.043
			c0.268-0.724,0.269-1.032,0.287-1.339C25.339,13.609,25.237,13.496,25.122,13.506L25.122,13.506z M29.636,13.587
			c-0.118,0.011-0.213,0.08-0.248,0.255c-0.047,0.412-0.023,0.635,0.046,0.978c0.053,0.228,0.386,0.611,0.549,0.833
			c0.782,1.051,1.534,2.107,2.261,3.2c0.114,0.811,0.198,1.605,0.252,2.395c0.118,1.733,0.153,3.89,0.046,5.715
			c0.325,0.013,0.845-0.524,1.028-1.311c0.119-1.088-0.042-3.309-0.053-3.951c-0.008-0.267-0.024-0.585-0.043-0.918
			c0.845,1.381,1.665,2.844,2.47,4.45c0.293-0.139,0.228-1.791,0.057-2.023c-0.644-1.386-1.534-2.755-1.818-3.281
			c-0.102-0.19-0.451-0.721-0.865-1.332c-0.076-0.873-0.159-1.612-0.213-1.836c-0.133-0.923,0.379,0.104,0.308-0.432
			c-0.166-0.921-0.675-1.548-1.276-2.392c-0.194-0.275-0.19-0.331-0.489,0.067c-0.179,0.406-0.176,0.743-0.124,1.059
			c-0.079-0.114-0.176-0.25-0.315-0.418c-0.519-0.445-0.551-0.469-0.981-0.833C30.092,13.718,29.833,13.569,29.636,13.587
			L29.636,13.587z M43.015,13.726c-0.058-0.009-0.121,0.019-0.191,0.124c-0.135,0.119-0.281,0.333-0.276,0.609
			c0.033,0.486,0.119,0.984,0.152,1.471c0.012,0.065,0.024,0.13,0.035,0.195c-0.052-0.067-0.098-0.119-0.124-0.145
			c-0.948-0.996,0.436-0.163-0.181-0.932c-0.521-0.572-0.674-0.754-1.12-1.098c-0.224-0.145-0.359-0.421-0.432,0.05
			c-0.029,0.413-0.06,0.892-0.032,1.24c-0.002,0.194,0.199,0.558,0.372,0.772c0.632,0.777,1.278,1.604,1.928,2.466
			c0.137,1.759,0.173,3.372,0.312,5.134c-0.02,0.754-0.251,1.755-0.471,1.85c0,0-0.336,0.193-0.56-0.021
			c-0.163-0.065-0.815-1.088-0.815-1.088c-0.334-0.306-0.556-0.219-0.794,0c-0.655,0.632-0.951,1.817-1.396,2.633
			c-0.115,0.182-0.438,0.337-0.797-0.014c-0.913-1.247-0.379-3.022-0.493-2.565c-0.813,0.916-0.453,2.434-0.269,2.76
			c0.268,0.536,0.485,0.879,1.006,1.145c0.475,0.35,0.845,0.131,1.049-0.113c0.478-0.495,0.484-1.762,0.709-2.013
			c0.157-0.46,0.552-0.381,0.744-0.177c0.186,0.268,0.406,0.442,0.68,0.588c0.446,0.393,0.978,0.465,1.502,0.106
			c0.358-0.201,0.591-0.462,0.801-0.978c0.225-0.602,0.114-3.758,0.064-5.513c0.337,0.474,0.669,0.959,0.999,1.449
			c0.145,1.541,0.211,3.059,0.163,4.514c-0.034,0.289,1.01-0.864,1.003-1.41c-0.005-0.478,0.001-0.911,0-1.315
			c0.506,0.809,0.997,1.631,1.46,2.463c0.287-0.152,0.189-1.778,0.007-2.002c-0.485-0.814-1.106-1.694-1.587-2.374
			c-0.095-0.859-0.225-1.872-0.283-2.183c-0.092-0.484-0.184-1.211-0.322-1.786c-0.038-0.224-0.153-0.941-0.117-1.01
			c0.057-0.16,0.27,0.005,0.376-0.181c0.158-0.172-0.546-1.995-0.904-2.516c-0.128-0.233-0.361-0.153-0.648,0.227
			c-0.267,0.25-0.169,0.819-0.067,1.361c0.264,1.38,0.501,2.786,0.687,4.188C44.838,19.122,44.416,18.5,44,17.9
			c-0.011-0.058-0.053-0.27-0.053-0.273c0-0.025-0.057-1.129-0.106-1.393c-0.009-0.107-0.034-0.138,0.078-0.124
			c0.119,0.1,0.135,0.105,0.209,0.138c0.12,0.022,0.225-0.181,0.152-0.369c-0.371-0.684-0.742-1.371-1.113-2.055
			C43.123,13.781,43.073,13.735,43.015,13.726L43.015,13.726z M8.486,13.761c-0.205-0.006-0.432,0.122-0.344,0.369
			c-0.052,0.135,0.402,0.59,0.482,0.84c0.071,0.178-0.071,0.751,0.078,0.804c0.137,0.059,0.325-0.397,0.397-0.819
			c0.04-0.231,0.01-1.021-0.528-1.184C8.543,13.765,8.515,13.762,8.486,13.761L8.486,13.761z M47.821,13.766
			c-0.047,0.005-0.104,0.08-0.191,0.266c-0.21,0.344-0.283,0.961-0.198,1.506c0.506,3.425,0.883,6.741,0.96,9.776
			c-0.044,0.288-0.056,0.441-0.191,0.804c-0.299,0.383-0.628,0.863-0.939,1.095c-0.31,0.231-0.971,0.452-1.187,0.624
			c-0.685,0.396-0.689,0.852-0.135,0.868c0.955-0.111,2.085-0.189,2.863-1.364c0.208-0.329,0.453-1.222,0.464-1.768
			c0.073-3.203-0.041-6.334-0.521-8.649c-0.031-0.225-0.13-0.744-0.092-0.811c0.062-0.159,0.374,0.016,0.485-0.167
			c0.163-0.167-0.808-1.41-1.148-1.942C47.923,13.869,47.881,13.76,47.821,13.766L47.821,13.766z M37.807,13.819
			c-0.039,0.007-0.098,0.067-0.206,0.209c-0.267,0.872-0.36,1.584-0.259,2.126c0.685,3.576,1.387,6.833,1.276,10.237
			c0.325,0.002,0.701-0.743,0.861-1.481c0.088-1.016-0.059-1.635-0.085-2.232c-0.026-0.597-0.676-5.444-0.808-5.896
			c-0.159-0.855,0.632-0.112,0.546-0.609c-0.273-0.627-0.956-1.539-1.169-2.083C37.883,13.942,37.873,13.807,37.807,13.819
			L37.807,13.819z M13.426,13.886c-0.084,0.015-0.165,0.084-0.195,0.198c-0.019,0.075,0.032,0.2-0.035,0.237
			c-0.039,0.039-0.187,0.013-0.181-0.195c0-0.066-0.049-0.135-0.078-0.177c-0.029-0.019-0.049-0.025-0.103-0.025
			c-0.065,0.003-0.064,0.02-0.099,0.074c-0.016,0.056-0.036,0.11-0.036,0.173c-0.008,0.074-0.038,0.099-0.092,0.11
			c-0.061,0-0.046,0.007-0.096-0.025c-0.029-0.032-0.064-0.045-0.064-0.099c0-0.057-0.015-0.147-0.032-0.184
			c-0.026-0.034-0.067-0.052-0.113-0.064c-0.255,0.001-0.273,0.294-0.259,0.404c-0.019,0.021-0.029,0.54,0.319,0.684
			c0.466,0.222,1.341,0.128,1.304-0.624c0-0.067-0.015-0.29-0.021-0.351C13.597,13.913,13.509,13.871,13.426,13.886L13.426,13.886z
			 M19.683,13.893c-0.161,0.008-0.303,0.054-0.425,0.117c-0.309,0.296-0.382,0.771-0.138,1.067c0.237,0.112,0.473,0.35,0.315,0.482
			c-0.67,0.716-2.414,1.911-2.502,2.13c-0.001,0.002-0.003,0.005-0.004,0.007c0,0.002,0,0.006,0,0.007c0,0.001,0,0.003,0,0.004
			c0.001,0.002,0.002,0.006,0.004,0.007l0.004,0.004c0.001,0,0.003,0,0.004,0c0.001,0,0.003,0.003,0.003,0.003
			c0.002,0,0.003,0,0.004,0l0.004,0.004c0.089,0.059,1.18,0.058,1.3,0.004c0.001,0,0.003-0.003,0.004-0.004c0,0,0.003,0,0.004,0
			V17.72c0.375-0.138,2.154-2.172,2.154-2.172c-0.092-0.079-0.177-0.137-0.269-0.216c-0.099-0.085-0.089-0.17,0-0.255
			c0.441-0.256,0.301-0.821,0.071-1.077C20.024,13.914,19.845,13.885,19.683,13.893L19.683,13.893z M36.039,13.9
			c-0.047,0.005-0.104,0.077-0.191,0.262c-0.21,0.344-0.353,0.944-0.337,1.506c0.456,3.154,0.595,5.914,0.893,9.067
			c0.024,0.305-0.02,0.748-0.223,0.925c-0.75,0.783-1.831,1.749-3.008,2.193c-0.127,0.142,0.315,0.748,0.886,0.748
			c0.955-0.111,1.794-0.647,2.573-2.059c0.208-0.329,0.574-1.034,0.585-1.58c0.073-3.203-0.161-5.693-0.641-8.008
			c-0.031-0.225-0.01-0.492,0.028-0.56c0.062-0.074,0.271,0.002,0.383-0.181c0.163-0.167-0.436-1.548-0.776-2.08
			C36.142,14,36.1,13.894,36.039,13.9L36.039,13.9z M10.701,13.997c-0.132,0.015-0.256,0.123-0.315,0.266
			c-0.022,0.506-0.025,1.011,0.032,1.478c0.23,0.818,0.303,1.537,0.415,2.374c0.031,1.121-0.648,0.485-0.617-0.071
			c0.157-0.722,0.114-1.859-0.025-2.147c-0.11-0.288-0.238-0.359-0.507-0.312c-0.213-0.013-0.764,0.587-0.918,1.58
			c0,0-0.128,0.51-0.184,0.964c-0.075,0.513-0.415,0.876-0.652-0.071c-0.205-0.688-0.33-2.385-0.673-1.988
			c-0.098,1.324-0.215,3.655,0.911,3.894c1.361,0.131,0.609-2.301,1.102-2.743c0.093-0.218,0.266-0.222,0.28,0.053v2.066
			c-0.012,0.672,0.429,0.871,0.772,1.01c0.357-0.028,0.594-0.018,0.733,0.33c0.056,1.191,0.114,2.385,0.17,3.575
			c0,0,0.825,0.237,0.865-2.009c0.04-1.319-0.263-2.426-0.085-2.682c0.006-0.252,0.329-0.265,0.553-0.142
			c0.356,0.251,0.514,0.56,1.067,0.436c0.841-0.232,1.348-0.64,1.361-1.286c-0.049-0.614-0.12-1.229-0.386-1.843
			c0.037-0.112-0.161-0.402-0.124-0.514c0.151,0.237,0.38,0.217,0.432,0c-0.143-0.472-0.366-0.924-0.726-1.12
			c-0.298-0.262-0.733-0.207-0.893,0.34c-0.074,0.63,0.228,1.377,0.687,1.988c0.097,0.239,0.234,0.635,0.174,0.992
			c-0.244,0.139-0.486,0.081-0.691-0.135c0,0-0.67-0.501-0.67-0.613c0.178-1.138,0.038-1.268-0.06-1.584
			c-0.069-0.436-0.275-0.574-0.443-0.872c-0.168-0.178-0.395-0.178-0.503,0c-0.296,0.513-0.157,1.615,0.057,2.108
			c0.155,0.454,0.391,0.737,0.28,0.737c-0.092,0.256-0.283,0.197-0.422-0.099c-0.197-0.612-0.237-1.524-0.237-1.935
			c-0.059-0.51-0.125-1.598-0.461-1.874C10.909,14.027,10.803,13.985,10.701,13.997L10.701,13.997z M15.481,14.004
			c-0.068,0.009-0.142,0.047-0.23,0.067c-0.289,0.092-0.56,0.342-0.475,0.829c0.342,2.079,0.565,3.665,0.907,5.744
			c0.053,0.243-0.151,0.564-0.415,0.531c-0.447-0.303-0.558-0.916-1.322-0.889c-0.553,0.007-1.183,0.608-1.261,1.187
			c-0.092,0.46-0.125,0.959,0,1.361c0.388,0.467,0.854,0.417,1.261,0.312c0.335-0.138,0.611-0.469,0.73-0.39c0,0,0.003,0,0.004,0
			v0.004c0.073,0.128-0.007,1.209-1.58,2.044c-0.967,0.434-1.737,0.538-2.151-0.252c-0.257-0.493,0.019-2.373-0.613-1.938
			c-1.868,4.815,4.377,5.487,5.074,0.198c0.045-0.149,0.183-0.299,0.28-0.262c0.043,0.018,0.082,0.076,0.096,0.184
			c-0.145,4.789-4.831,5.117-5.627,3.611c-0.197-0.355-0.257-1.146-0.276-1.619c-0.036-0.287-0.108-0.452-0.191-0.517
			c-0.19-0.143-0.445,0.229-0.5,0.875c-0.079,0.52-0.057,0.662-0.057,1.162c0.25,3.782,6.28,2.157,7.26-0.967
			c0.485-1.615-0.01-2.834,0.152-2.983c0.001-0.001,0.006-0.003,0.007-0.004c0.002-0.001,0.005-0.003,0.007-0.004
			c0.002-0.001,0.005-0.003,0.007-0.004c0.006-0.001,0.015-0.003,0.021-0.004c0.599,0.645,1.439,0.082,1.623-0.142
			c0.079-0.112,0.277-0.184,0.415-0.039c0.467,0.336,1.285,0.177,1.456-0.415c0.099-0.579,0.182-1.175,0.202-1.793
			c-0.304,0.094-0.55,0.165-0.648,0.269c-0.024,0.026-0.041,0.054-0.046,0.085c-0.026,0.171-0.052,0.343-0.078,0.514
			c-0.003,0.014-0.007,0.027-0.014,0.039c-0.013,0.021-0.034,0.04-0.057,0.053c-0.108,0.059-0.295,0.025-0.305-0.131
			c-0.145-0.658-0.74-0.743-1.102,0.276c-0.243,0.197-0.687,0.236-0.733-0.06c0.059-0.684-0.216-0.776-0.769-0.454
			c-0.178-1.355-0.354-2.649-0.531-4.004c0.23-0.007,0.441,0.16,0.652-0.103c-0.228-0.709-0.71-2.15-0.981-2.285
			c-0.002-0.001-0.005-0.003-0.007-0.004c-0.012-0.015-0.027-0.028-0.039-0.039c-0.005-0.004-0.013-0.011-0.018-0.014
			c-0.005-0.003-0.013-0.008-0.018-0.011c-0.011-0.006-0.025-0.011-0.035-0.014C15.53,14.004,15.506,14.001,15.481,14.004
			L15.481,14.004z M34.115,14.014c-0.239-0.007-0.503,0.144-0.4,0.443c-0.06,0.163,0.513,0.717,0.606,1.02
			c0.166,0.466-0.127,0.91,0.046,0.974c0.159,0.072,0.381-0.481,0.464-0.992c0.096-0.413-0.199-1.26-0.617-1.435
			C34.182,14.017,34.149,14.015,34.115,14.014L34.115,14.014z M19.598,14.524c0.109-0.011,0.24,0.089,0.305,0.23
			c0.069,0.151,0.034,0.295-0.078,0.322c-0.112,0.027-0.257-0.072-0.326-0.223c-0.069-0.151-0.034-0.299,0.078-0.326
			C19.584,14.526,19.591,14.525,19.598,14.524z M46.527,15.223c-0.218-0.008-0.455,0.158-0.361,0.482
			c-0.055,0.177,0.465,0.777,0.549,1.106c0.076,0.234-0.115,0.986,0.043,1.056c0.145,0.078,0.349-0.52,0.425-1.074
			c0.042-0.303-0.182-1.366-0.563-1.556C46.59,15.229,46.558,15.224,46.527,15.223L46.527,15.223z M31.638,15.591
			c0.02,0.089,0.04,0.178,0.053,0.269c0.045,0.196,0.083,0.391,0.124,0.585c-0.172-0.237-0.314-0.428-0.376-0.496
			C31.051,15.486,31.449,15.645,31.638,15.591L31.638,15.591z M35.068,17.278c-0.084,0.015-0.165,0.088-0.195,0.202
			c-0.019,0.075,0.036,0.196-0.032,0.234c-0.039,0.039-0.19,0.016-0.184-0.191c0-0.066-0.049-0.139-0.078-0.181
			c-0.029-0.019-0.049-0.025-0.103-0.025c-0.065,0.003-0.064,0.02-0.099,0.074c-0.015,0.056-0.035,0.111-0.035,0.174
			c-0.008,0.074-0.034,0.099-0.089,0.11c-0.061,0-0.05,0.007-0.099-0.025c-0.029-0.032-0.064-0.045-0.064-0.099
			c0-0.057-0.015-0.147-0.032-0.184c-0.026-0.034-0.067-0.048-0.113-0.06c-0.255,0.001-0.27,0.29-0.255,0.4
			c-0.019,0.021-0.032,0.543,0.315,0.687c0.466,0.222,1.345,0.125,1.307-0.627c0-0.067-0.018-0.29-0.025-0.351
			C35.24,17.305,35.153,17.263,35.068,17.278L35.068,17.278z M19.407,17.434c-0.058-0.006-0.133,0.015-0.22,0.067
			c-0.412,0.223-0.572,0.885-0.315,1.272c0.24,0.341,0.619,0.216,0.67,0.216c0.404,0.051,0.645-0.758,0.645-0.758
			s0.012-0.227-0.468,0.202c-0.202,0.038-0.229-0.035-0.28-0.149c-0.042-0.21-0.033-0.424,0.064-0.634
			C19.548,17.524,19.503,17.443,19.407,17.434L19.407,17.434z M41.546,17.536c-0.229-0.011-0.473,0.137-0.535,0.45
			c0.001,0.185,0.083,0.286,0.067,0.454c-0.024,0.096-0.123,0.159-0.358,0.046c0.037-0.034-0.152-0.301-0.152-0.301
			c-0.184-0.112-0.429,0.006-0.588,0.11c-0.088,0.16-0.153,0.433-0.053,0.712c0.263,0.487,1.167,1.317,1.598,1.325
			c0.008-0.439,0.051-1.022,0.074-1.385c0.01-0.137,0.042-0.288,0.174-0.322c0.131-0.034,0.359,0.132,0.361-0.011
			c-0.024-0.279-0.08-0.691-0.237-0.886C41.816,17.608,41.684,17.543,41.546,17.536L41.546,17.536z M23.221,19.064
			c-0.006,0.002-0.012,0.007-0.018,0.011c-0.003,0.002-0.008,0.005-0.011,0.007c-0.046,0.034-0.099,0.113-0.22,0.198
			c-0.203,0.231-0.239,0.391-0.227,0.854c0.012,0.049,0.385,1.088,0.702,1.818c0.213,0.759,0.411,1.628,0.266,2.448
			c-0.5,1.085-1.504,2.058-2.473,2.587c-0.494,0.158-0.92,0.104-1.035-0.004c-0.001-0.001-0.003-0.003-0.004-0.004
			c-0.284-0.191-0.29-0.53-0.273-0.588v-0.004c0.001-0.001,0.003-0.003,0.004-0.004c0.818-0.57,1.752-1.031,2.484-2.569
			c0.216-0.588,0.282-0.941,0.067-1.85c-0.084-0.339-0.187-0.617-0.418-0.857c0.001-0.001,0.003-0.003,0.004-0.004
			c0.139-0.067,0.501,0.2,0.556,0.032c-0.085-0.434-0.379-1.017-0.712-1.315c-0.291-0.265-0.608-0.295-0.875-0.053
			c-0.3,0.167-0.364,0.768-0.22,1.293c0.161,0.396,0.595,0.465,0.904,1.261c0,0.001,0,0.003,0,0.003
			c0.006,0.05,0.106,0.595-0.05,0.815c-0.126,0.394-1.749,1.673-1.864,1.75c-0.001,0.001-0.009,0.006-0.011,0.007
			c-0.001,0.001-0.003,0.003-0.004,0.004c0,0-0.003,0.003-0.004,0.004c0,0-0.003,0.003-0.003,0.003l-0.004,0c0,0-0.003,0-0.004,0
			c-0.001-0.001-0.003-0.003-0.003-0.003c-0.001-0.001-0.001-0.004-0.001-0.004c-0.001-0.002-0.003-0.006-0.004-0.007
			c-0.005-0.032,0.004-0.113,0-0.244c-0.011-0.24,0.089-0.782,0.081-0.875v-0.004c-0.001-0.001-0.003-0.003-0.004-0.004v-0.004
			c-0.001,0-0.003,0-0.004,0c-0.536,0.346-0.713,1.408-0.811,1.722c-1.358,0.938-2.9,1.636-3.788,2.587
			c-0.463,0.722,3.187-0.829,3.611-1.017c0.004,0.003,0.007,0.007,0.011,0.011c0.081,0.089,0.087,0.398,0.33,0.677
			c0.379,0.514,1.186,0.83,1.97,0.634c1.316-0.476,2.074-1.372,2.845-2.367c0.11-0.16,0.283-0.287,0.443-0.163
			c0.53,1.187,2.059,2.032,4.036,2.119c0.457-0.556,0.239-0.83,0.053-0.946c-0.057-0.038-0.983-0.399-1.127-0.758
			c-0.091-0.334,0.13-0.631,0.57-0.854c1.269-0.153,2.517-0.324,3.724-0.712c0.012-0.406,0.251-1.012,0.411-1.276
			c0.111-0.183,0.182-0.201,0.209-0.227c0.001-0.001,0.003-0.003,0.004-0.004c0,0,0.003-0.003,0.004-0.004
			c0.001-0.001,0.003-0.003,0.004-0.004c0-0.001,0-0.006,0-0.007c0.001-0.008,0-0.022-0.004-0.035l-0.206-0.12l-4.05-0.018
			c-0.05-0.019-0.087-0.039-0.11-0.057c-0.002-0.001-0.006-0.006-0.007-0.007c-0.001-0.001-0.003-0.003-0.004-0.004
			c-0.001-0.001-0.003-0.003-0.004-0.004c-0.001-0.001-0.003-0.006-0.004-0.007c0,0-0.003-0.003-0.004-0.004v-0.004
			c0,0-0.003-0.003-0.004-0.004v-0.004c0,0,0-0.003,0-0.004v-0.004c0-0.001,0-0.003,0-0.004v-0.004c0,0,0-0.003,0-0.003l0-0.004
			c0,0,0-0.003,0-0.003c0.001-0.001,0.003-0.003,0.004-0.004c0.001-0.002,0.002-0.005,0.004-0.007
			c0.02-0.027,0.068-0.052,0.128-0.074c0.967-0.132,2.685-0.413,2.799-2.066c-0.018-0.861-0.368-1.424-1.424-1.58
			c-0.776,0.06-1.329,0.811-1.24,1.637c-0.037,0.223,0.075,0.659-0.152,0.709c-1.489,0.136-3.113,1.069-3.168,1.736h-0.004
			c-0.001,0.001-0.003,0.003-0.004,0.004c-0.001,0.001-0.005,0.003-0.007,0.004c-0.001,0-0.006,0-0.007,0
			c-0.002,0.001-0.008,0.003-0.011,0.004c0,0-0.003,0-0.004,0c-0.002,0-0.006,0-0.007,0c-0.001,0-0.003,0-0.004,0
			c-0.001,0-0.006,0-0.007,0c-0.004-0.001-0.011-0.003-0.014-0.004c-0.097-0.027-0.222-0.187-0.202-0.411
			c-0.057-1.154-0.432-2.46-1.02-3.465c-0.21-0.21-0.301-0.295-0.361-0.305c-0.002,0-0.005,0-0.007,0c-0.002,0-0.007,0-0.011,0
			h-0.004c0,0-0.003,0-0.004,0L23.221,19.064L23.221,19.064z M27.097,19.673c-0.084,0.015-0.165,0.084-0.195,0.198
			c-0.019,0.075,0.036,0.2-0.032,0.237c-0.039,0.039-0.19,0.016-0.184-0.191c0-0.066-0.049-0.139-0.078-0.181
			c-0.029-0.019-0.046-0.025-0.099-0.025c-0.065,0.003-0.067,0.02-0.103,0.074c-0.015,0.056-0.035,0.111-0.035,0.174
			c-0.008,0.074-0.034,0.099-0.089,0.11c-0.061,0-0.046,0.007-0.096-0.025c-0.029-0.032-0.067-0.045-0.067-0.099
			c0-0.057-0.011-0.147-0.028-0.184c-0.026-0.034-0.07-0.048-0.117-0.06c-0.255,0.001-0.27,0.29-0.255,0.4
			c-0.019,0.021-0.032,0.543,0.315,0.687c0.466,0.222,1.578,0.091,1.307-0.627c0-0.067-0.018-0.29-0.025-0.351
			C27.269,19.7,27.181,19.658,27.097,19.673L27.097,19.673z M42.741,20.314c-0.012-0.002-0.025-0.001-0.039,0.004
			c0,0-2.161,1.537-2.215,1.591c-0.214,0.191-0.107,0.86,0,0.783c0.155,0.06,2.331-1.415,2.289-1.587
			C42.871,21.11,42.917,20.346,42.741,20.314L42.741,20.314z M29.139,20.542c0.088-0.009,0.204,0.021,0.315,0.085
			c0.161,0.093,0.261,0.234,0.248,0.337c0,0.003,0.001,0.008,0,0.011c-0.001,0.003-0.006,0.008-0.007,0.011
			c-0.001,0.003-0.003,0.008-0.004,0.011c-0.001,0.002-0.003,0.005-0.004,0.007c-0.001,0.002-0.003,0.005-0.004,0.007
			c-0.005,0.009-0.014,0.018-0.021,0.025c-0.078,0.072-0.257,0.062-0.425-0.035c-0.16-0.092-0.259-0.234-0.248-0.337
			c0-0.003,0.003-0.008,0.004-0.011c0.003-0.013,0.008-0.024,0.014-0.035c0.002-0.004,0.004-0.01,0.007-0.014
			c0.001-0.001,0.003-0.003,0.004-0.004c0.005-0.006,0.012-0.013,0.018-0.018C29.062,20.561,29.099,20.547,29.139,20.542
			L29.139,20.542z M10.214,20.932c-1.12,0.02-2.76,1.468-2.803,2.271c1.182-0.567,2.342-1.114,3.543-1.701
			C10.76,21.213,10.943,20.952,10.214,20.932L10.214,20.932z M13.842,21.435c0.11,0.001,0.226,0.055,0.287,0.209
			c0.055,0.141,0.003,0.288-0.064,0.361c0,0,0,0.003,0,0.004c-0.001,0.002-0.002,0.006-0.004,0.007
			c-0.047,0.061-0.212,0.035-0.33,0.035c-0.142-0.006-0.212-0.03-0.298-0.145c-0.041-0.129,0.083-0.255,0.138-0.351
			c0.001-0.001,0.003-0.003,0.004-0.004c0.006-0.009,0.016-0.02,0.025-0.028c0.043-0.039,0.116-0.075,0.195-0.085
			C13.811,21.437,13.826,21.435,13.842,21.435L13.842,21.435z M42.32,21.881c-0.199,0.025-0.388,0.213-0.301,0.514
			c-0.055,0.177,0.27,0.795,0.354,1.123c0.076,0.234-0.098,0.894,0.06,0.964c0.145,0.078,0.527-0.392,0.514-0.982
			c0.042-0.303-0.108-1.419-0.489-1.609C42.415,21.879,42.366,21.875,42.32,21.881L42.32,21.881z M18.134,22.972
			c-0.176,0.012-0.333,0.106-0.262,0.354c-0.011,0.18,0.497,0.399,0.528,0.815c0.073,0.172-0.109,0.721,0.043,0.772
			c0.139,0.057,0.331-0.38,0.404-0.787c0.04-0.223-0.174-1.002-0.539-1.141C18.252,22.974,18.193,22.968,18.134,22.972
			L18.134,22.972z M25.373,23.961c0.013-0.001,0.025,0,0.039,0c0.002,0,0.005,0,0.007,0c0.451,0.123,1.116,0.135,1.694,0.195
			c0.47,0.03,0.703,0.398,0.262,0.553c-0.435,0.149-0.852,0.265-0.854,0.893c0.057,0.311,0.045,0.474-0.004,0.549
			c-0.004,0.006-0.01,0.013-0.014,0.018c-0.001,0.001-0.003,0.003-0.004,0.004c-0.001,0.001-0.003,0.003-0.004,0.004
			c-0.001,0.001-0.003,0.003-0.004,0.004l-0.004,0.004c-0.001,0.001-0.006,0.003-0.007,0.004c-0.006,0.004-0.014,0.008-0.021,0.011
			c-0.006,0.002-0.015,0.002-0.021,0.004c-0.103,0.015-0.253-0.083-0.365-0.142c-0.268-0.192-1.02-0.658-1.127-1.658
			C24.933,24.174,25.101,23.98,25.373,23.961L25.373,23.961z M7.691,24.73c-0.028,0.001-0.085,0.085-0.159,0.181
			c-0.666,1.061-0.725,2.645-0.358,3.118c0.195,0.223,0.517,0.322,0.755,0.252c0.419-0.181,0.602-1.029,0.503-1.339
			c-0.14-0.219-0.25-0.253-0.39-0.067c-0.295,0.598-0.417,0.189-0.443-0.145c-0.045-0.634,0.016-1.217,0.085-1.679
			C7.721,24.812,7.72,24.729,7.691,24.73L7.691,24.73z M30.387,26.123c-0.05-0.003-0.102,0.005-0.156,0.032
			c-0.011,0-0.477,0.315-0.627,0.535c-0.092,0.07-0.081,0.13-0.053,0.252c0.071,0.164,0.197,0.113,0.34,0.035
			c0.19-0.026,0.281,0.098,0.266,0.326c-0.088,0.284,0.039,0.39,0.039,0.407c0,0.018,0.183,0.175,0.397,0.05
			c0.452-0.173,0.734-0.341,1.368-0.478c0.166-0.003,0.157-0.448-0.106-0.464c-0.343,0.017-0.66,0.035-1.003,0.305
			c-0.211,0.049-0.247-0.08-0.294-0.195c-0.054-0.286,0.121-0.487,0.085-0.702C30.651,26.235,30.535,26.131,30.387,26.123
			L30.387,26.123z M44.919,26.665c-0.084,0.003-0.173,0.014-0.301,0.025c-0.139,0.029-0.187,0.09-0.213,0.259
			c0.01,0.255,0.166,0.243,0.326,0.344c0.093,0.118,0.153,0.225-0.007,0.418c-0.152,0.139-0.259,0.215-0.411,0.354
			c-0.072,0.122-0.116,0.31,0.103,0.369c0.404,0.114,1.339-0.494,1.339-0.507c0.152-0.114,0.101-0.33,0.089-0.33
			c-0.088-0.101-0.288-0.04-0.422-0.057c-0.064,0-0.273-0.031-0.174-0.216c0.083-0.115,0.114-0.184,0.17-0.326
			c0.063-0.139,0.008-0.233-0.22-0.308C45.083,26.669,45.003,26.663,44.919,26.665L44.919,26.665z M38.848,38.956
			c-0.001,0-0.003,0.003-0.004,0.004c-0.672,0.172-0.651,0.87-0.22,1.176c-7.097,0-17.989-0.12-20.325-0.12
			c-1.307,0-5.441-0.156-5.521-0.156c0.887,1.297,2.171,1.561,3.852,1.587c3.152,0,17.759-0.039,21.915-0.039
			c-0.296,0.525,0.027,1.369,0.259,1.524c0.005,0.003,0.013,0.008,0.018,0.011c0.009,0.004,0.02,0.008,0.028,0.011
			c0.003,0.001,0.008,0,0.011,0c0.275,0.065,0.396-0.134,0.489-0.28c0.446,0.039,2.959,0.076,3.189-0.004
			c0.001,0,0.003-0.003,0.004-0.004c0.156,0.229,0.31,0.445,0.606,0.407c0.518-0.111,0.926-0.167,0.939-1.219
			c0,0-0.053-1.792-1.23-1.679c-0.278,0.042-1.059,0.12-1.059,0.12c-0.904-0.108-1.567-0.119-2.583-0.156
			c0.094-0.119,0.259-0.601,0.057-0.776c-0.053-0.044-0.132-0.068-0.241-0.06c-0.001,0-0.003,0-0.004,0c-0.002,0-0.006,0-0.007,0
			c-0.001,0-0.003-0.003-0.003-0.003c-0.004-0.001-0.009-0.002-0.011-0.004c-0.006-0.004-0.013-0.012-0.018-0.018
			c-0.001-0.002-0.006-0.005-0.007-0.007c-0.051-0.075-0.079-0.258-0.113-0.305c0,0-0.003-0.003-0.004-0.004
			c0,0-0.003-0.003-0.003-0.003c-0.002-0.001-0.006-0.003-0.007-0.004c0,0-0.003,0-0.004,0
			C38.851,38.957,38.848,38.956,38.848,38.956L38.848,38.956z M39.33,41.518c0.001-0.001,0.002,0.001,0.004,0
			c1.035,0.051,2.008,0.01,3.044,0.06c0.164,0.139,0.082,0.459-0.025,0.517c-0.005,0.002-0.013,0.006-0.018,0.007
			c-0.004,0.001-0.01,0-0.014,0c-0.004,0-0.01,0.001-0.014,0c-0.337-0.008-0.531-0.016-0.868-0.025
			c-0.001-0.017-0.002-0.035-0.007-0.05c-0.08-0.236-0.658-0.221-0.794-0.035c-0.002,0.003-0.005,0.008-0.007,0.011
			c-0.002,0.004-0.005,0.01-0.007,0.014c-0.002,0.005-0.005,0.013-0.007,0.018c-0.002,0.007-0.003,0.017-0.004,0.025
			c-0.001,0.008-0.004,0.019-0.004,0.028c-0.455,0.055-0.864-0.015-1.318-0.032C39.157,41.891,39.173,41.59,39.33,41.518
			L39.33,41.518z"/>
	</g>
</g>
</svg>
