<?xml version="1.0" encoding="iso-8859-1"?>
<!-- Generator: Adobe Illustrator 18.1.1, SVG Export Plug-In . SVG Version: 6.00 Build 0)  -->
<svg version="1.1" id="Layer_99" xmlns="http://www.w3.org/2000/svg" xmlns:xlink="http://www.w3.org/1999/xlink" x="0px" y="0px"
	 viewBox="0 0 56.692 56.692" style="enable-background:new 0 0 56.692 56.692;" xml:space="preserve">
<g>
	<defs>
		<circle id="SVGID_1_" cx="28.346" cy="28.347" r="28.347"/>
	</defs>
	<clipPath id="SVGID_2_">
		<use xlink:href="#SVGID_1_"  style="overflow:visible;"/>
	</clipPath>
	<polygon style="clip-path:url(#SVGID_2_);fill:#0051BA;" points="0.355,53.884 81.065,0.002 0.355,0 -0.001,0 -0.001,56.693 	"/>
	<polygon style="clip-path:url(#SVGID_2_);fill:#215B33;" points="4.658,56.693 85.393,2.884 85.393,56.693 	"/>
	<polygon style="clip-path:url(#SVGID_2_);fill:#FCD116;" points="85.393,0 81.065,0.002 0.355,53.884 0.355,56.693 4.658,56.693 
		85.393,2.884 	"/>
	<polygon style="clip-path:url(#SVGID_2_);fill:#FFFFFF;" points="13.751,5.558 14.842,8.781 18.376,8.781 15.512,10.877 
		16.571,14.072 13.753,12.173 10.93,14.072 11.993,10.877 9.15,8.781 12.685,8.781 	"/>
	<polygon style="clip-path:url(#SVGID_2_);fill:#FFFFFF;" points="22.221,13.414 23.312,16.636 26.845,16.636 23.982,18.734 
		25.04,21.929 22.221,20.029 19.401,21.929 20.461,18.734 17.618,16.636 21.154,16.636 	"/>
	<polygon style="clip-path:url(#SVGID_2_);fill:#FFFFFF;" points="30.736,5.793 31.828,9.017 35.362,9.017 32.497,11.113 
		33.555,14.31 30.736,12.411 27.914,14.31 28.975,11.113 26.132,9.017 29.668,9.017 	"/>
	<polygon style="clip-path:url(#SVGID_2_);fill:#FFFFFF;" points="13.751,21.216 14.842,24.441 18.376,24.441 15.512,26.537 
		16.571,29.732 13.753,27.834 10.93,29.732 11.993,26.537 9.15,24.441 12.685,24.441 	"/>
	<polygon style="clip-path:url(#SVGID_2_);fill:#FFFFFF;" points="30.736,21.453 31.828,24.678 35.362,24.678 32.497,26.774 
		33.555,29.97 30.736,28.07 27.914,29.97 28.975,26.774 26.132,24.678 29.668,24.678 	"/>
</g>
</svg>
