<?xml version="1.0" encoding="iso-8859-1"?>
<!-- Generator: Adobe Illustrator 18.1.1, SVG Export Plug-In . SVG Version: 6.00 Build 0)  -->
<svg version="1.1" id="Layer_70" xmlns="http://www.w3.org/2000/svg" xmlns:xlink="http://www.w3.org/1999/xlink" x="0px" y="0px"
	 viewBox="0 0 56.692 56.692" style="enable-background:new 0 0 56.692 56.692;" xml:space="preserve">
<g>
	<defs>
		<circle id="SVGID_1_" cx="28.346" cy="28.346" r="28.347"/>
	</defs>
	<clipPath id="SVGID_2_">
		<use xlink:href="#SVGID_1_"  style="overflow:visible;"/>
	</clipPath>
	<rect x="-0.612" y="0.001" style="clip-path:url(#SVGID_2_);fill:#EB2837;" width="85.039" height="28.346"/>
	<rect x="-0.612" y="28.346" style="clip-path:url(#SVGID_2_);fill:#FFFFFF;" width="85.039" height="28.346"/>
	<polygon style="clip-path:url(#SVGID_2_);fill:#FFFFFF;" points="38.553,9.801 39.151,11.568 41.087,11.568 39.517,12.715 
		40.098,14.466 38.554,13.426 37.008,14.466 37.588,12.715 36.032,11.568 37.968,11.568 	"/>
	<polygon style="clip-path:url(#SVGID_2_);fill:#FFFFFF;" points="27.124,9.801 27.722,11.568 29.659,11.568 28.088,12.715 
		28.669,14.466 27.125,13.426 25.579,14.466 26.16,12.715 24.603,11.568 26.539,11.568 	"/>
	<polygon style="clip-path:url(#SVGID_2_);fill:#FFFFFF;" points="32.795,5.593 33.393,7.36 35.329,7.36 33.759,8.507 34.34,10.258 
		32.796,9.218 31.25,10.258 31.83,8.507 30.274,7.36 32.21,7.36 	"/>
	<polygon style="clip-path:url(#SVGID_2_);fill:#FFFFFF;" points="36.338,16.536 36.936,18.302 38.872,18.302 37.302,19.45 
		37.883,21.201 36.339,20.161 34.793,21.201 35.373,19.45 33.817,18.302 35.753,18.302 	"/>
	<polygon style="clip-path:url(#SVGID_2_);fill:#FFFFFF;" points="29.25,16.536 29.848,18.302 31.785,18.302 30.214,19.45 
		30.795,21.201 29.251,20.161 27.705,21.201 28.286,19.45 26.729,18.302 28.665,18.302 	"/>
	<path style="clip-path:url(#SVGID_2_);fill:#FFFFFF;" d="M21.133,14.125c0-5.436,4.334-9.851,9.733-10.002
		c-1.151-0.425-2.392-0.669-3.691-0.669c-5.892,0-10.671,4.777-10.671,10.671c0,5.893,4.778,10.671,10.671,10.671
		c1.3,0,2.539-0.244,3.691-0.669C25.467,23.975,21.133,19.56,21.133,14.125z"/>
</g>
</svg>
