<?xml version="1.0" encoding="iso-8859-1"?>
<!-- Generator: Adobe Illustrator 18.1.1, SVG Export Plug-In . SVG Version: 6.00 Build 0)  -->
<svg version="1.1" id="Layer_49" xmlns="http://www.w3.org/2000/svg" xmlns:xlink="http://www.w3.org/1999/xlink" x="0px" y="0px"
	 viewBox="0 0 56.692 56.692" style="enable-background:new 0 0 56.692 56.692;" xml:space="preserve">
<g>
	<defs>
		<circle id="SVGID_1_" cx="28.346" cy="28.347" r="28.347"/>
	</defs>
	<clipPath id="SVGID_2_">
		<use xlink:href="#SVGID_1_"  style="overflow:visible;"/>
	</clipPath>
	<g style="clip-path:url(#SVGID_2_);">
		<rect x="-3.53" y="18.898" style="fill:#0066A6;" width="85.039" height="18.898"/>
		<rect x="-3.53" y="37.796" style="fill:#ED1C24;" width="85.039" height="18.896"/>
		<rect x="-3.53" y="0" style="fill:#FFFFFF;" width="85.039" height="18.898"/>
	</g>
	<g style="clip-path:url(#SVGID_2_);">
		<path style="fill:#ED1C24;" d="M27.106,19.068c0.005-0.127,0.117-1.843,0.236-3.66c0.167-2.549,0.241-3.693,0.27-4.164
			l-0.291-0.152c-1.792-1.012-4.167-1.605-7.195-1.646c-3.285-0.006-5.677,0.844-7.487,1.771c0.027,0.455,0.101,1.594,0.271,4.191
			c0.119,1.817,0.231,3.533,0.236,3.654c0.139,6.497,5.521,8.992,6.847,9.264l0.142,0.025l0.126-0.025
			C21.584,28.054,26.967,25.559,27.106,19.068z"/>
		<path style="fill:#0066A6;" d="M20.125,9.445c-2.488,0.002-4.991,0.5-6.935,1.506c0,0.145,0.518,7.943,0.521,8.1
			c0.129,6.039,5.091,8.453,6.394,8.719c0.008-0.001,0.014-0.004,0.02-0.008c0.007,0.004,0.013,0.007,0.021,0.008
			c1.303-0.266,6.265-2.68,6.394-8.719c0.003-0.156,0.52-7.955,0.52-8.1C25.117,9.945,22.614,9.447,20.125,9.445z"/>
		<polygon style="fill:#FFDD00;" points="20.548,13.56 20.766,13.181 20.33,13.181 20.114,12.806 19.897,13.181 19.461,13.181 
			19.679,13.56 19.461,13.937 19.897,13.937 20.114,14.312 20.33,13.937 20.766,13.937 		"/>
		<polygon style="fill:#FFDD00;" points="18.58,10.951 18.797,10.572 18.362,10.572 18.145,10.197 17.928,10.572 17.493,10.572 
			17.71,10.951 17.493,11.328 17.928,11.328 18.145,11.703 18.362,11.328 18.797,11.328 		"/>
		<polygon style="fill:#FFDD00;" points="22.455,10.951 22.672,10.572 22.237,10.572 22.02,10.197 21.803,10.572 21.368,10.572 
			21.585,10.951 21.368,11.328 21.803,11.328 22.02,11.703 22.237,11.328 22.672,11.328 		"/>
		<g>
			<path style="fill:#FFFFFF;" d="M16.453,22.845c0.473,0,0.941-0.275,0.941-0.275s0.439-0.277,0.912-0.277
				c0.473,0,0.914,0.275,0.914,0.275s0.439,0.277,0.914,0.277c0.471,0,0.881-0.275,0.881-0.275s0.44-0.277,0.912-0.277
				c0.473,0,0.914,0.275,0.914,0.275s0.469,0.277,0.941,0.277c1.009,0,1.52-0.701,1.748-1.156c0.066-0.207,0.131-0.418,0.184-0.639
				l-2.813-3.769l-1.126,1.457l-1.649-3.361l-1.693,3.346l-1.116-1.439l-2.795,3.713c0.061,0.258,0.131,0.506,0.209,0.746
				C14.972,22.197,15.482,22.845,16.453,22.845z"/>
			<path style="fill:#FFFFFF;" d="M22.841,23.091c0,0-0.441-0.275-0.914-0.275c-0.473,0-0.912,0.275-0.912,0.275
				s-0.41,0.275-0.881,0.275c-0.475,0-0.914-0.275-0.914-0.275s-0.441-0.275-0.914-0.275c-0.473,0-0.912,0.275-0.912,0.275
				s-0.469,0.275-0.941,0.275c-0.546,0-0.945-0.207-1.236-0.469c0.152,0.299,0.315,0.582,0.491,0.846
				c0.215,0.096,0.454,0.166,0.745,0.166c0.473,0,0.941-0.275,0.941-0.275s0.439-0.275,0.912-0.275c0.473,0,0.914,0.275,0.914,0.275
				s0.439,0.275,0.914,0.275c0.471,0,0.881-0.275,0.881-0.275s0.44-0.275,0.912-0.275c0.473,0,0.914,0.275,0.914,0.275
				s0.469,0.275,0.941,0.275c0.3,0,0.547-0.072,0.764-0.174c0.179-0.269,0.344-0.559,0.497-0.865
				c-0.294,0.275-0.698,0.496-1.261,0.496C23.31,23.367,22.841,23.091,22.841,23.091z"/>
			<path style="fill:#FFFFFF;" d="M23.783,24.434c-0.473,0-0.941-0.278-0.941-0.278S22.4,23.88,21.927,23.88
				c-0.473,0-0.912,0.277-0.912,0.277s-0.41,0.276-0.881,0.276c-0.475,0-0.914-0.278-0.914-0.278s-0.441-0.275-0.914-0.275
				c-0.473,0-0.912,0.277-0.912,0.277s-0.469,0.276-0.941,0.276c-0.096,0-0.176-0.022-0.262-0.034
				c1.397,1.723,3.163,2.566,3.873,2.775l0.069-0.029l0.06,0.027c0.714-0.213,2.474-1.057,3.865-2.777
				C23.969,24.412,23.884,24.434,23.783,24.434z"/>
		</g>
	</g>
</g>
</svg>
