<?xml version="1.0" encoding="iso-8859-1"?>
<!-- Generator: Adobe Illustrator 18.1.1, SVG Export Plug-In . SVG Version: 6.00 Build 0)  -->
<svg version="1.1" id="Layer_21" xmlns="http://www.w3.org/2000/svg" xmlns:xlink="http://www.w3.org/1999/xlink" x="0px" y="0px"
	 viewBox="0 0 56.692 56.692" style="enable-background:new 0 0 56.692 56.692;" xml:space="preserve">
<g>
	<defs>
		<circle id="SVGID_1_" cx="28.346" cy="28.345" r="28.347"/>
	</defs>
	<clipPath id="SVGID_2_">
		<use xlink:href="#SVGID_1_"  style="overflow:visible;"/>
	</clipPath>
	<g style="clip-path:url(#SVGID_2_);">
		<rect x="-1.415" y="18.898" style="fill:#0B4EA2;" width="85.039" height="18.899"/>
		<rect x="-1.415" y="37.797" style="fill:#EE1C25;" width="85.039" height="18.896"/>
		<rect x="-1.415" y="0" style="fill:#FFFFFF;" width="85.039" height="18.899"/>
	</g>
	<g style="clip-path:url(#SVGID_2_);">
		<path style="fill:#FFFFFF;" d="M27.949,43.418C16.97,38.24,16.355,30.675,16.123,27.828l-0.01-0.17
			c0-8.179,0.433-13.572,0.438-13.625l0.085-1.041h23.592l0.085,1.041c0.005,0.053,0.438,5.446,0.438,13.625l-0.01,0.168
			c-0.23,2.848-0.844,10.414-11.826,15.592l-0.483,0.229L27.949,43.418z"/>
		<path style="fill:#EE1C25;" d="M39.183,14.125H17.681c0,0-0.434,5.305-0.434,13.533c0.231,2.836,0.704,9.791,11.185,14.734
			c10.481-4.943,10.955-11.898,11.186-14.734C39.618,19.429,39.183,14.125,39.183,14.125z"/>
		<path style="fill:#FFFFFF;" d="M35.28,23.992c-0.734,0.217-2.627,0.75-5.887,0.649v-3.102c0,0,2.891-0.047,4.679,0.703
			c-0.082-0.742-0.16-2.392,0-3.4c-2.193,0.789-4.686,0.688-4.686,0.688c0.016-1.215,0.313-3.017,0.641-4.381
			c-0.488,0.047-1.045,0.072-1.614,0.072c-0.569,0-1.126-0.025-1.614-0.072c0.327,1.363,0.625,3.166,0.641,4.381
			c0,0-2.493,0.102-4.687-0.688c0.16,1.008,0.082,2.658,0,3.4c1.788-0.75,4.679-0.703,4.679-0.703v3.102
			c-3.26,0.101-5.152-0.432-5.887-0.649c0.106,1.123,0.096,2.469,0,3.365c0.247-0.068,1.176-0.707,5.892-0.707v5.135l0.977-0.316
			l0.976,0.316V26.65c4.716,0,5.645,0.639,5.892,0.707C35.184,26.461,35.174,25.115,35.28,23.992z"/>
		<path style="fill:#0B4EA2;" d="M37.595,34.72c-1.557-2.264-3.999-2.688-5.648-0.17c-0.373-2.166-1.93-3.217-3.484-3.223v0.002
			c-1.555,0.004-3.111,1.055-3.484,3.221c-1.659-2.533-4.125-2.086-5.68,0.219c1.523,2.562,4.234,5.312,9.133,7.623
			C33.362,40.068,36.077,37.298,37.595,34.72z"/>
	</g>
</g>
</svg>
