<?xml version="1.0" encoding="iso-8859-1"?>
<!-- Generator: Adobe Illustrator 18.1.1, SVG Export Plug-In . SVG Version: 6.00 Build 0)  -->
<svg version="1.1" id="Layer_77" xmlns="http://www.w3.org/2000/svg" xmlns:xlink="http://www.w3.org/1999/xlink" x="0px" y="0px"
	 viewBox="0 0 56.692 56.692" style="enable-background:new 0 0 56.692 56.692;" xml:space="preserve">
<g>
	<defs>
		<circle id="SVGID_1_" cx="28.346" cy="28.346" r="28.347"/>
	</defs>
	<clipPath id="SVGID_2_">
		<use xlink:href="#SVGID_1_"  style="overflow:visible;"/>
	</clipPath>
	<rect x="-6.119" y="0.001" style="clip-path:url(#SVGID_2_);fill:#14AA28;" width="85.038" height="15.971"/>
	<rect x="-6.119" y="40.72" style="clip-path:url(#SVGID_2_);fill:#14AA28;" width="85.038" height="15.972"/>
	<rect x="-6.119" y="15.972" style="clip-path:url(#SVGID_2_);fill:#FFCE00;" width="85.038" height="24.748"/>
	<polygon style="clip-path:url(#SVGID_2_);fill:#D21034;" points="21.429,28.346 -6.119,56.693 -6.119,0 	"/>
	<polygon style="clip-path:url(#SVGID_2_);" points="30.676,21.446 32.161,25.999 37.133,26.057 33.067,28.962 34.506,33.476 
		30.569,30.758 26.57,33.384 28.113,28.905 24.147,25.907 29.122,25.964 	"/>
	<polygon style="clip-path:url(#SVGID_2_);" points="45.669,21.446 47.154,25.999 52.126,26.057 48.06,28.962 49.499,33.476 
		45.565,30.758 41.566,33.384 43.107,28.905 39.142,25.907 44.117,25.964 	"/>
</g>
</svg>
