<?xml version="1.0" encoding="iso-8859-1"?>
<!-- Generator: Adobe Illustrator 18.1.1, SVG Export Plug-In . SVG Version: 6.00 Build 0)  -->
<svg version="1.1" id="Layer_179" xmlns="http://www.w3.org/2000/svg" xmlns:xlink="http://www.w3.org/1999/xlink" x="0px" y="0px"
	 viewBox="0 0 56.692 56.692" style="enable-background:new 0 0 56.692 56.692;" xml:space="preserve">
<g>
	<defs>
		<circle id="SVGID_1_" cx="28.346" cy="28.347" r="28.346"/>
	</defs>
	<clipPath id="SVGID_2_">
		<use xlink:href="#SVGID_1_"  style="overflow:visible;"/>
	</clipPath>
	<g style="clip-path:url(#SVGID_2_);">
		<rect x="-4.808" y="-0.001" style="fill:#3E5EB9;" width="66.308" height="56.693"/>
		<rect x="-4.808" y="14.532" style="fill:#FFD900;" width="66.308" height="27.628"/>
		<rect x="-4.808" y="17.295" style="fill:#B10C0C;" width="66.308" height="22.103"/>
		<g>
			<g>
				<path style="fill:#FFD900;stroke:#000000;stroke-width:0.1193;" d="M1.975,27.873h52.743c0.258,0,0.467,0.212,0.467,0.474v0
					c0,0.262-0.209,0.474-0.467,0.474H1.975c-0.258,0-0.467-0.212-0.467-0.474v0C1.508,28.085,1.717,27.873,1.975,27.873z"/>
				<path style="fill:#FFFFFF;stroke:#000000;stroke-width:0.1114;" d="M49.364,23.293l-2.684,0.947l2.684,0.947l2.684-0.947
					L49.364,23.293z"/>
				<path style="fill:#FFD900;stroke:#000000;stroke-width:0.1114;" d="M8.818,23.925h38.781c0.19,0,0.343,0.141,0.343,0.316l0,0
					c0,0.174-0.154,0.316-0.343,0.316H8.818c-0.19,0-0.343-0.141-0.343-0.316l0,0C8.475,24.067,8.628,23.925,8.818,23.925z"/>
				<path style="fill:#FFD900;stroke:#000000;stroke-width:0.1114;" d="M46.998,24.556c0.158,0,0.316-0.158,0.316-0.316
					c0-0.158-0.158-0.316-0.316-0.316"/>
				<path style="fill:#FFD900;stroke:#000000;stroke-width:0.1114;" d="M46.682,24.556c0.158,0,0.316-0.158,0.316-0.316
					c0-0.158-0.158-0.316-0.316-0.316"/>
				<path style="fill:#FFD900;stroke:#000000;stroke-width:0.1114;" d="M46.366,24.556c0.158,0,0.316-0.158,0.316-0.316
					c0-0.158-0.158-0.316-0.316-0.316"/>
				<path style="fill:#FFFFFF;stroke:#000000;stroke-width:0.1114;" d="M46.838,25.189l-2.684,0.947l2.684,0.947l2.684-0.947
					L46.838,25.189z"/>
				<path style="fill:#FFD900;stroke:#000000;stroke-width:0.1114;" d="M6.292,25.82h38.781c0.19,0,0.343,0.141,0.343,0.316l0,0
					c0,0.174-0.154,0.316-0.343,0.316H6.292c-0.19,0-0.343-0.141-0.343-0.316l0,0C5.949,25.961,6.103,25.82,6.292,25.82z"/>
				<path style="fill:#FFD900;stroke:#000000;stroke-width:0.1114;" d="M44.472,26.452c0.158,0,0.316-0.158,0.316-0.316
					c0-0.158-0.158-0.316-0.316-0.316"/>
				<path style="fill:#FFD900;stroke:#000000;stroke-width:0.1114;" d="M44.156,26.452c0.158,0,0.316-0.158,0.316-0.316
					c0-0.158-0.158-0.316-0.316-0.316"/>
				<path style="fill:#FFD900;stroke:#000000;stroke-width:0.1114;" d="M43.84,26.452c0.158,0,0.316-0.158,0.316-0.316
					c0-0.158-0.158-0.316-0.316-0.316"/>
			</g>
			<g>
				<path style="fill:#FFFFFF;stroke:#000000;stroke-width:0.1114;" d="M43.839,28.346c-3.157,3.157-7.368,9.472-15.788,9.472
					c-7.368,0-12.629-6.315-15.788-9.472c3.157-3.158,8.42-9.473,15.788-9.473C36.471,18.873,40.68,25.188,43.839,28.346
					L43.839,28.346z"/>
				<path d="M26.949,22.168c0.84,0.945,0.139,1.326,1.028,1.388c0.938,0.069,0.406,0.998,1.195,1.031
					c0.551,0.024-0.055,2.227,0.476,2.954c0.541,0.758,0.994,0.222,1.003,0.77c0.009,0.566-1.472,0.509-1.498,2.253
					c-0.043,1.005-1.25,1.07-1.307,1.716c-0.072,0.608,2.377,0.95,2.344,1.494c-0.034,0.543-2.644,0.458-2.757,1.077
					c-0.058,0.556,3.586,1.012,3.879,2.621c-0.544,0.178-2.091,0.345-3.26,0.346c-7.366,0.005-12.629-6.315-15.787-9.473
					c3.157-3.158,8.42-9.473,15.788-9.473c0,0-2.187,1.998-1.102,3.295L26.949,22.168z"/>
				<g>
					<rect x="18.158" y="24.978" style="fill:#FFFFFF;" width="0.765" height="2.526"/>
					<rect x="18.158" y="29.188" style="fill:#FFFFFF;" width="0.765" height="2.526"/>
					<rect x="19.688" y="24.978" style="fill:#FFFFFF;" width="0.765" height="2.526"/>
					<rect x="19.688" y="29.188" style="fill:#FFFFFF;" width="0.765" height="2.526"/>
					<rect x="21.22" y="24.978" style="fill:#FFFFFF;" width="0.765" height="2.526"/>
					<rect x="21.22" y="29.188" style="fill:#FFFFFF;" width="0.765" height="2.526"/>
					<rect x="22.751" y="24.978" style="fill:#FFFFFF;" width="0.765" height="2.526"/>
					<rect x="22.751" y="29.188" style="fill:#FFFFFF;" width="0.765" height="2.526"/>
					<rect x="24.281" y="24.978" style="fill:#FFFFFF;" width="0.765" height="2.526"/>
					<rect x="24.281" y="29.188" style="fill:#FFFFFF;" width="0.765" height="2.526"/>
					<rect x="25.812" y="24.978" style="fill:#FFFFFF;" width="0.765" height="2.526"/>
					<rect x="25.812" y="29.188" style="fill:#FFFFFF;" width="0.765" height="2.526"/>
				</g>
				<g>
					<rect x="29.735" y="24.978" width="0.765" height="2.526"/>
					<rect x="29.735" y="29.188" width="0.765" height="2.526"/>
					<rect x="31.266" y="24.978" width="0.765" height="2.526"/>
					<rect x="31.266" y="29.188" width="0.765" height="2.526"/>
					<rect x="32.797" y="24.978" width="0.765" height="2.526"/>
					<rect x="32.797" y="29.188" width="0.765" height="2.526"/>
					<rect x="34.328" y="24.978" width="0.765" height="2.526"/>
					<rect x="34.328" y="29.188" width="0.765" height="2.526"/>
					<rect x="35.859" y="24.978" width="0.765" height="2.526"/>
					<rect x="35.859" y="29.188" width="0.765" height="2.526"/>
					<rect x="37.389" y="24.978" width="0.765" height="2.526"/>
					<rect x="37.389" y="29.188" width="0.765" height="2.526"/>
				</g>
			</g>
			<g>
				<path style="fill:#3D5DA7;stroke:#000000;stroke-width:0.0945;" d="M51.409,27.97c-0.478,0.828,0.367-0.275,2.43,1.111
					c0.382,0.258,0.716,0.938,0.716,1.41c-0.097-0.065-0.169-0.209-0.276-0.303c-0.15,0.15,0.143,0.837,0.186,1.162
					c-0.322-0.18-0.291-0.266-0.399-0.488c0.021,0.268-0.055,1.006,0.073,1.291c-0.254-0.073-0.237-0.277-0.37-0.318
					c0.09,0.322-0.079,0.672-0.034,1.034c-0.149-0.147-0.307-0.262-0.376-0.322c-0.012,0.172-0.286,0.625-0.292,0.788
					c-0.126-0.076-0.16-0.195-0.181-0.275c-0.157,0.197-0.713,0.924-0.749,1.145c-0.429-0.379-1.528-1.301-1.671-1.791
					c-0.126,0.278-0.309,0.372-0.671,0.575c-0.143-0.776-0.677-1.648-0.392-2.313c-0.203,0.12-0.369,0.24-0.572,0.388
					C49.024,29.941,50.002,28.623,51.409,27.97L51.409,27.97z"/>
				<path style="fill:#A70000;" d="M49.625,32.072c0.199-0.397,0.381-0.523,0.51-0.778c0.227-0.449,0.259-0.807,0.457-0.754
					c0.198,0.052,0.197,0.236-0.059,0.678C50.277,31.66,50.155,31.754,49.625,32.072z"/>
				<path style="fill:#A70000;" d="M50.968,33.018c-0.025-0.302,0.062-0.428,0.046-0.623c-0.027-0.342-0.167-0.578,0.015-0.594
					c0.182-0.017,0.267,0.1,0.268,0.445C51.297,32.591,51.244,32.682,50.968,33.018L50.968,33.018z"/>
				<path style="fill:#A70000;" d="M51.987,33.611c-0.08-0.422-0.02-0.609-0.071-0.881c-0.089-0.478-0.264-0.793-0.095-0.837
					c0.169-0.044,0.271,0.111,0.335,0.596C52.219,32.974,52.185,33.107,51.987,33.611L51.987,33.611z"/>
				<path style="fill:#A70000;" d="M53.047,30.655c-0.249-0.189-0.394-0.202-0.555-0.323c-0.283-0.213-0.426-0.441-0.517-0.328
					s-0.026,0.237,0.27,0.433C52.541,30.634,52.642,30.649,53.047,30.655z"/>
				<path style="fill:#A70000;" d="M52.871,32.055c-0.131-0.272-0.269-0.341-0.354-0.517c-0.15-0.308-0.15-0.574-0.313-0.506
					c-0.163,0.068-0.176,0.208-0.002,0.506C52.376,31.836,52.467,31.89,52.871,32.055L52.871,32.055z"/>
				<path style="fill:#3D5DA7;stroke:#000000;stroke-width:0.1179;" d="M3.826,28.768c-0.027-0.241,0.025-0.27-0.124-0.452
					c0.216,0.09,0.224,0.331,0.487,0.16c0.097-0.05,0.139-0.052,0.021-0.32c0.274,0.013,1.171,0.32,1.315,0.327
					c0.377,0.017,1.066-0.396,1.544,0.112c0.459,0.464,0.306,0.945,0.306,1.587c-0.184-0.088-0.096-0.132-0.291-0.361
					c0.147,0.561-0.008,1.573-0.008,2.169C7,31.847,7.011,31.91,6.937,31.761c-0.196,0.543-0.43,0.655-0.43,1.297
					c-0.071-0.252-0.002-0.199-0.081-0.331c-0.19,0.413-1.465,0.765-0.974,1.181c-0.444-0.26-0.638-0.233-0.839-0.467
					c-0.087,0.056-0.156,0.162-0.236,0.307c-0.78-0.359-0.501-1.133-1.112-1.65c-0.106,0.217-0.058,0.185-0.172,0.538
					c-0.124-0.49-0.157-0.801-0.297-1.162c-0.12,0.2-0.109,0.123-0.327,0.425c-0.09-0.597-0.237-0.738-0.179-1.133
					c-0.232,0.163-0.08,0.097-0.312,0.298C2.198,29.536,3.146,28.406,3.826,28.768L3.826,28.768z"/>
				<path style="fill:#A70000;" d="M2.866,31.265c0.201-0.492,0.382-0.647,0.512-0.964c0.229-0.557,0.267-1.003,0.459-0.935
					c0.193,0.068,0.19,0.297-0.068,0.845C3.511,30.758,3.391,30.874,2.866,31.265L2.866,31.265z"/>
				<path style="fill:#A70000;" d="M3.627,32.497c0.081-0.442,0.208-0.602,0.26-0.887c0.093-0.5,0.041-0.872,0.22-0.853
					c0.179,0.02,0.22,0.208,0.1,0.706C4.088,31.961,4.006,32.078,3.627,32.497L3.627,32.497z"/>
				<path style="fill:#A70000;" d="M4.537,33.353c0.023-0.428,0.123-0.595,0.138-0.871c0.027-0.485-0.066-0.832,0.105-0.834
					c0.171-0.002,0.232,0.172,0.179,0.658C4.906,32.792,4.843,32.913,4.537,33.353L4.537,33.353z"/>
				<path style="fill:#A70000;" d="M6.491,30.554c-0.374-0.372-0.6-0.442-0.841-0.681c-0.425-0.42-0.63-0.815-0.781-0.675
					c-0.151,0.14-0.06,0.35,0.387,0.75C5.703,30.347,5.859,30.406,6.491,30.554L6.491,30.554z"/>
				<path style="fill:#A70000;" d="M6.263,31.993c-0.243-0.374-0.422-0.471-0.579-0.711c-0.277-0.423-0.372-0.786-0.529-0.696
					c-0.157,0.09-0.122,0.28,0.178,0.689C5.633,31.685,5.754,31.76,6.263,31.993L6.263,31.993z"/>
				<path style="fill:#3D5DA7;stroke:#000000;stroke-width:0.0913;" d="M22.946,20.555c-0.437,0.846,0.766-0.281,2.652,1.135
					c0.35,0.263,0.851,1.303,0.851,1.784c-0.402-0.085-1.113-0.482-1.113-0.482s0.835,0.836,0.835,1.8
					c-0.295-0.184-0.442-0.157-0.54-0.383c0,0.312,0.262,0.511,0.262,0.993c-0.213-0.17-0.393-0.283-0.573-0.382
					c0.278,0.482-0.507,1.417-0.114,1.729c-0.687-0.099-1.39-0.538-1.668-1.02c-0.147,0.099-0.163,0.255-0.169,0.422
					c0.022,0.018-1.046-0.792-0.948-1.104c-0.143,0.201-0.163,0.311-0.196,0.538c-0.392-0.387-0.752-0.774-0.883-1.274
					c-0.174,0.226-0.185,0.226-0.36,0.453c-0.131-0.792-0.131-0.764,0.131-1.443c-0.185,0.123-0.338,0.245-0.523,0.396
					C20.765,22.567,21.66,21.221,22.946,20.555L22.946,20.555z"/>
				<path style="fill:#A70000;" d="M21.868,24.688c0.07-0.583,0.222-0.803,0.268-1.178c0.081-0.66-0.015-1.143,0.219-1.131
					c0.234,0.012,0.301,0.256,0.186,0.915C22.424,23.953,22.327,24.113,21.868,24.688L21.868,24.688z"/>
				<path style="fill:#A70000;" d="M23.089,25.756c-0.047-0.492,0.043-0.701,0.013-1.018c-0.052-0.557-0.224-0.935-0.02-0.97
					c0.204-0.035,0.307,0.152,0.329,0.715C23.433,25.046,23.378,25.196,23.089,25.756L23.089,25.756z"/>
				<path style="fill:#A70000;" d="M24.995,26.626c-0.207-0.426-0.385-0.552-0.519-0.826c-0.236-0.481-0.286-0.875-0.468-0.803
					c-0.182,0.071-0.172,0.275,0.091,0.746C24.362,26.214,24.481,26.31,24.995,26.626L24.995,26.626z"/>
				<path style="fill:#A70000;" d="M25.655,22.815c-0.528-0.278-0.799-0.281-1.139-0.46c-0.599-0.313-0.948-0.667-1.072-0.472
					c-0.124,0.195,0.041,0.388,0.659,0.673C24.721,22.84,24.91,22.854,25.655,22.815L25.655,22.815z"/>
				<path style="fill:#A70000;" d="M25.848,24.407c-0.385-0.32-0.612-0.367-0.86-0.573c-0.437-0.361-0.654-0.716-0.8-0.572
					c-0.146,0.144-0.048,0.334,0.41,0.674C25.057,24.277,25.214,24.319,25.848,24.407L25.848,24.407z"/>
			</g>
		</g>
	</g>
</g>
</svg>
