<?xml version="1.0" encoding="iso-8859-1"?>
<!-- Generator: Adobe Illustrator 18.1.1, SVG Export Plug-In . SVG Version: 6.00 Build 0)  -->
<svg version="1.1" id="Layer_39" xmlns="http://www.w3.org/2000/svg" xmlns:xlink="http://www.w3.org/1999/xlink" x="0px" y="0px"
	 viewBox="0 0 56.692 56.692" style="enable-background:new 0 0 56.692 56.692;" xml:space="preserve">
<g>
	<defs>
		<circle id="SVGID_1_" cx="28.346" cy="28.347" r="28.347"/>
	</defs>
	<clipPath id="SVGID_2_">
		<use xlink:href="#SVGID_1_"  style="overflow:visible;"/>
	</clipPath>
	<rect x="-2.835" y="15.009" style="clip-path:url(#SVGID_2_);fill:#FFFFFF;" width="62.362" height="26.674"/>
	<rect x="-2.835" y="41.683" style="clip-path:url(#SVGID_2_);fill:#006600;" width="62.362" height="17.846"/>
	<rect x="-2.835" y="-2.835" style="clip-path:url(#SVGID_2_);fill:#CC0000;" width="62.362" height="17.845"/>
	<g style="clip-path:url(#SVGID_2_);">
		<path style="fill:#F8C300;" d="M29.95,36.21c-0.239-0.125-0.508-0.202-0.797-0.202c-0.053,0-0.101,0.016-0.153,0.019
			c-0.05-0.479-0.287-0.9-0.648-1.179c-0.36,0.278-0.598,0.7-0.647,1.179c-0.052-0.003-0.101-0.019-0.153-0.019
			c-0.289,0-0.558,0.077-0.797,0.202c0.25,0.642,0.869,1.099,1.598,1.099C29.081,37.308,29.7,36.852,29.95,36.21z"/>
		<path style="fill:#F8C300;" d="M23.224,37.804c0.72-0.111,1.262-0.658,1.409-1.33c-0.258-0.086-0.533-0.123-0.818-0.078
			c-0.052,0.008-0.099,0.03-0.15,0.043c-0.121-0.465-0.421-0.844-0.821-1.065c-0.315,0.331-0.483,0.785-0.458,1.265
			c-0.052,0.004-0.103-0.004-0.154,0.004c-0.286,0.046-0.538,0.165-0.758,0.327C21.82,37.562,22.503,37.918,23.224,37.804z"/>
		<path style="fill:#F8C300;" d="M19.498,39.175l0.447,1.229c4.367-1.589,12.083-1.6,16.851-0.024l0.41-1.242
			C32.12,37.456,24.175,37.474,19.498,39.175z"/>
		<path style="fill:#F8C300;" d="M35.23,36.97c-0.22-0.162-0.472-0.281-0.758-0.327c-0.053-0.008-0.103,0-0.154-0.004
			c0.025-0.479-0.145-0.934-0.458-1.265c-0.4,0.221-0.7,0.6-0.821,1.065c-0.052-0.013-0.099-0.035-0.15-0.043
			c-0.285-0.045-0.561-0.008-0.818,0.078c0.147,0.672,0.689,1.219,1.409,1.33C34.2,37.918,34.883,37.562,35.23,36.97z"/>
		<g>
			<path style="fill:#F8C300;" d="M34.47,32.912c-1.942,1.705-4.832,1-5.697-2.027c0-1.209,0-2.756,0-2.76
				c0-0.645,0.521-1.17,1.171-1.17c0.409,0,0.751,0.222,0.96,0.537l0.031-0.008v-0.863c0-1.428-1.157-2.584-2.584-2.584
				c-1.426,0-2.583,1.156-2.583,2.584v0.863l0.031,0.008c0.209-0.315,0.551-0.537,0.96-0.537c0.649,0,1.171,0.525,1.171,1.17
				c0,0.006,0.001,1.525,0.001,2.73c-0.854,3.053-3.759,3.766-5.707,2.057c-1.055,2.32-3.581,2.768-5.325,1.564
				c0.85,3.57,5.886,2.27,5.381-1.3c1.128,3.737,5.559,2.449,6.028-0.872h0.078c0.471,3.321,4.9,4.609,6.028,0.872
				c-0.505,3.569,4.531,4.87,5.381,1.3C38.052,35.679,35.525,35.232,34.47,32.912z M28.351,27.168c-0.325-0.538-0.917-0.9-1.592-0.9
				c-0.093,0-0.186,0.008-0.277,0.024c0.157-0.892,0.935-1.568,1.869-1.568c0.936,0,1.713,0.677,1.869,1.568
				c-0.091-0.017-0.184-0.024-0.276-0.024C29.269,26.268,28.677,26.63,28.351,27.168z"/>
		</g>
		<polygon style="fill:#F8C300;" points="16.696,31.264 17.979,30.326 16.396,30.326 15.906,28.876 15.427,30.326 13.843,30.326 
			15.117,31.264 14.643,32.695 15.907,31.845 17.168,32.695 		"/>
		<polygon style="fill:#F8C300;" points="16.293,26.476 17.556,25.626 18.819,26.476 18.346,25.046 19.628,24.107 18.046,24.107 
			17.555,22.658 17.078,24.107 15.493,24.107 16.767,25.046 		"/>
		<polygon style="fill:#F8C300;" points="37.915,26.476 39.179,25.626 40.441,26.476 39.968,25.046 41.25,24.107 39.668,24.107 
			39.177,22.658 38.7,24.107 37.115,24.107 38.389,25.046 		"/>
		<polygon style="fill:#F8C300;" points="20.865,21.904 22.128,21.054 23.391,21.904 22.918,20.474 24.201,19.535 22.619,19.535 
			22.127,18.087 21.65,19.535 20.065,19.535 21.339,20.474 		"/>
		<polygon style="fill:#F8C300;" points="33.377,21.904 34.641,21.054 35.904,21.904 35.431,20.474 36.713,19.535 35.131,19.535 
			34.64,18.087 34.162,19.535 32.578,19.535 33.851,20.474 		"/>
		<polygon style="fill:#F8C300;" points="27.08,20.22 28.343,19.371 29.605,20.22 29.132,18.789 30.415,17.851 28.832,17.851 
			28.342,16.401 27.864,17.851 26.28,17.851 27.553,18.789 		"/>
		<polygon style="fill:#F8C300;" points="41.285,30.326 40.793,28.876 40.315,30.326 38.731,30.326 40.004,31.264 39.531,32.695 
			40.794,31.845 42.056,32.695 41.583,31.264 42.867,30.326 		"/>
	</g>
</g>
</svg>
