<?xml version="1.0" encoding="iso-8859-1"?>
<!-- Generator: Adobe Illustrator 18.1.1, SVG Export Plug-In . SVG Version: 6.00 Build 0)  -->
<svg version="1.1" id="Layer_179" xmlns="http://www.w3.org/2000/svg" xmlns:xlink="http://www.w3.org/1999/xlink" x="0px" y="0px"
	 viewBox="0 0 56.692 56.692" style="enable-background:new 0 0 56.692 56.692;" xml:space="preserve">
<g>
	<defs>
		<circle id="SVGID_1_" cx="28.346" cy="28.347" r="28.346"/>
	</defs>
	<clipPath id="SVGID_2_">
		<use xlink:href="#SVGID_1_"  style="overflow:visible;"/>
	</clipPath>
	<rect x="-4.339" y="-0.041" style="clip-path:url(#SVGID_2_);fill:#28AE66;" width="85.101" height="56.734"/>
	<g style="clip-path:url(#SVGID_2_);">
		<path id="crescent" style="fill:#FFFFFF;" d="M37.911,6.251c2.515,1.08,4.277,3.579,4.277,6.489c0,3.898-3.161,7.059-7.059,7.059
			c-1.745,0-3.342-0.634-4.574-1.684c0.762,0.327,1.595,0.524,2.473,0.563c3.894,0.17,7.19-2.85,7.36-6.744
			C40.487,9.673,39.51,7.614,37.911,6.251L37.911,6.251z"/>
		<path id="star" style="fill:#FFFFFF;" d="M31.178,11.44l0.8-2.462l-2.094,1.521h2.588l-2.094-1.521L31.178,11.44z"/>
		<g>
			<path id="star_1_" style="fill:#FFFFFF;" d="M31.178,7.809l0.8-2.462l-2.094,1.521h2.588l-2.094-1.521L31.178,7.809z"/>
		</g>
		<g>
			<path id="star_2_" style="fill:#FFFFFF;" d="M34.765,9.669l0.8-2.462l-2.094,1.521h2.588l-2.094-1.521L34.765,9.669z"/>
		</g>
		<g>
			<path id="star_3_" style="fill:#FFFFFF;" d="M27.591,13.21l0.8-2.462l-2.094,1.521h2.588l-2.094-1.521L27.591,13.21z"/>
		</g>
		<g>
			<path id="star_4_" style="fill:#FFFFFF;" d="M31.178,15.071l0.8-2.462l-2.094,1.521h2.588l-2.094-1.521L31.178,15.071z"/>
		</g>
	</g>
	<g style="clip-path:url(#SVGID_2_);">
		<rect x="5.873" y="-0.041" style="fill:#CA3745;" width="15.318" height="56.734"/>
		<g id="ornm5">
			<g id="ornm">
				<path style="fill:#383739;" d="M5.873-3.788v0.556l0.861,0.806l-0.29,0.27L7.06-1.584L6.79-1.339v-0.356H6.264v0.426
					l1.187,1.112h0.601l0.065-0.391H7.771l0.376-0.351l0.942,0.856L8.147,0.82L7.771,0.469h0.346L8.052,0.074H7.451L6.264,1.186
					v0.426H6.79V1.256l0.27,0.245L6.444,2.072l0.29,0.275L5.873,3.149v0.556L7.33,2.347L7.04,2.072l0.611-0.571L7.125,1.01
					L7.476,0.69l0.671,0.621l1.472-1.352L8.147-1.394L7.476-0.768L7.125-1.093l0.526-0.491L7.04-2.155l0.29-0.27L5.873-3.788
					L5.873-3.788z M5.873-1.088v2.093L6.214,0.66V0.254h0.361l0.29-0.295l-0.29-0.29H6.214v-0.411L5.873-1.088L5.873-1.088z
					 M8.357-0.347l-0.05,0.285l0.05,0.29l0.31-0.29L8.357-0.347z"/>
				<path style="fill:#FAAE29;" d="M5.873-3.728v0.441l0.922,0.861l-0.29,0.27L7.12-1.584L6.75-1.238v-0.416H6.304v0.371
					l1.167,1.087h0.541l0.055-0.311H7.666l0.481-0.451l1.002,0.917L8.147,0.875L7.666,0.429h0.401L8.011,0.114H7.471L6.304,1.201
					v0.371h0.446V1.155L7.12,1.501L6.504,2.072l0.29,0.275L5.873,3.204v0.441L7.27,2.347L6.98,2.072l0.611-0.571L7.065,1.01
					L7.476,0.63l0.671,0.626l1.407-1.297L8.147-1.339L7.476-0.713L7.065-1.093l0.526-0.491L6.98-2.155l0.29-0.27L5.873-3.728
					L5.873-3.728z M5.873-1.028v1.973l0.3-0.3V0.209h0.386l0.25-0.25l-0.25-0.25H6.174v-0.436L5.873-1.028L5.873-1.028z
					 M8.387-0.267L8.352-0.062l0.035,0.205l0.22-0.205L8.387-0.267z"/>
			</g>
			<g>
				<g id="ornm_1_">
					<path style="fill:#383739;" d="M5.873,6.538v0.556l0.861,0.806l-0.29,0.27L7.06,8.742L6.79,8.988V8.632H6.264v0.426
						l1.187,1.112h0.601l0.065-0.391H7.771l0.376-0.351l0.942,0.856l-0.942,0.861l-0.376-0.351h0.346L8.052,10.4H7.451l-1.187,1.112
						v0.426H6.79v-0.356l0.27,0.245l-0.616,0.571l0.29,0.275l-0.861,0.801v0.556l1.457-1.357l-0.29-0.275l0.611-0.571l-0.526-0.491
						l0.351-0.321l0.671,0.621l1.472-1.352L8.147,8.932L7.476,9.559L7.125,9.233l0.526-0.491L7.04,8.171l0.29-0.27L5.873,6.538
						L5.873,6.538z M5.873,9.238v2.093l0.341-0.346V10.58h0.361l0.29-0.295l-0.29-0.29H6.214V9.584L5.873,9.238L5.873,9.238z
						 M8.357,9.979l-0.05,0.285l0.05,0.29l0.31-0.29L8.357,9.979z"/>
					<path style="fill:#FAAE29;" d="M5.873,6.599v0.441l0.922,0.861l-0.29,0.27L7.12,8.742L6.75,9.088V8.672H6.304v0.371
						l1.167,1.087h0.541l0.055-0.311H7.666l0.481-0.451l1.002,0.917l-1.002,0.917l-0.481-0.446h0.401L8.011,10.44H7.471
						l-1.167,1.087v0.371h0.446v-0.416l0.371,0.346l-0.616,0.571l0.29,0.275L5.873,13.53v0.441l1.397-1.297l-0.29-0.275l0.611-0.571
						l-0.526-0.491l0.411-0.381l0.671,0.626l1.407-1.297L8.147,8.988L7.476,9.614L7.065,9.233l0.526-0.491L6.98,8.171l0.29-0.27
						L5.873,6.599L5.873,6.599z M5.873,9.298v1.973l0.3-0.3v-0.436h0.386l0.25-0.25l-0.25-0.25H6.174V9.599L5.873,9.298L5.873,9.298
						z M8.387,10.059l-0.035,0.205l0.035,0.205l0.22-0.205L8.387,10.059z"/>
				</g>
			</g>
			<g>
				<g id="ornm_2_">
					<path style="fill:#383739;" d="M5.873,17.204v0.556l0.861,0.806l-0.29,0.27l0.616,0.571l-0.27,0.245v-0.356H6.264v0.426
						l1.187,1.112h0.601l0.065-0.391H7.771l0.376-0.351l0.942,0.856l-0.942,0.861l-0.376-0.351h0.346l-0.065-0.396H7.451
						l-1.187,1.112v0.426H6.79v-0.356l0.27,0.245l-0.616,0.571l0.29,0.275l-0.861,0.801v0.556l1.457-1.357l-0.29-0.275l0.611-0.571
						l-0.526-0.491l0.351-0.321l0.671,0.621l1.472-1.352l-1.472-1.352l-0.671,0.626l-0.351-0.326l0.526-0.491L7.04,18.837l0.29-0.27
						L5.873,17.204L5.873,17.204z M5.873,19.904v2.093l0.341-0.346v-0.406h0.361l0.29-0.295l-0.29-0.29H6.214v-0.411L5.873,19.904
						L5.873,19.904z M8.357,20.645l-0.05,0.285l0.05,0.29l0.31-0.29L8.357,20.645z"/>
					<path style="fill:#FAAE29;" d="M5.873,17.264v0.441l0.922,0.861l-0.29,0.27l0.616,0.571L6.75,19.754v-0.416H6.304v0.371
						l1.167,1.087h0.541l0.055-0.311H7.666l0.481-0.451l1.002,0.917l-1.002,0.917l-0.481-0.446h0.401l-0.055-0.316H7.471
						l-1.167,1.087v0.371h0.446v-0.416l0.371,0.346l-0.616,0.571l0.29,0.275l-0.922,0.856v0.441l1.397-1.297l-0.29-0.275
						l0.611-0.571l-0.526-0.491l0.411-0.381l0.671,0.626l1.407-1.297l-1.407-1.297l-0.671,0.626l-0.411-0.381l0.526-0.491
						L6.98,18.837l0.29-0.27L5.873,17.264L5.873,17.264z M5.873,19.964v1.973l0.3-0.3v-0.436h0.386l0.25-0.25l-0.25-0.25H6.174
						v-0.436L5.873,19.964L5.873,19.964z M8.387,20.725L8.352,20.93l0.035,0.205l0.22-0.205L8.387,20.725z"/>
				</g>
			</g>
			<g>
				<g id="ornm_3_">
					<path style="fill:#383739;" d="M5.873,27.87v0.556l0.861,0.806l-0.29,0.27l0.616,0.571l-0.27,0.245v-0.356H6.264v0.426
						l1.187,1.112h0.601l0.065-0.391H7.771l0.376-0.351l0.942,0.856l-0.942,0.861l-0.376-0.351h0.346l-0.065-0.396H7.451
						l-1.187,1.112v0.426H6.79v-0.356l0.27,0.245L6.444,33.73l0.29,0.275l-0.861,0.801v0.556l1.457-1.357L7.04,33.73l0.611-0.571
						l-0.526-0.491l0.351-0.321l0.671,0.621l1.472-1.352l-1.472-1.352L7.476,30.89l-0.351-0.326l0.526-0.491L7.04,29.503l0.29-0.27
						L5.873,27.87L5.873,27.87z M5.873,30.569v2.093l0.341-0.346v-0.406h0.361l0.29-0.295l-0.29-0.29H6.214v-0.411L5.873,30.569
						L5.873,30.569z M8.357,31.311l-0.05,0.285l0.05,0.29l0.31-0.29L8.357,31.311z"/>
					<path style="fill:#FAAE29;" d="M5.873,27.93v0.441l0.922,0.861l-0.29,0.27l0.616,0.571L6.75,30.419v-0.416H6.304v0.371
						l1.167,1.087h0.541l0.055-0.311H7.666L8.147,30.7l1.002,0.917l-1.002,0.917l-0.481-0.446h0.401l-0.055-0.316H7.471
						l-1.167,1.087v0.371h0.446v-0.416l0.371,0.346L6.504,33.73l0.29,0.275l-0.922,0.856v0.441l1.397-1.297L6.98,33.73l0.611-0.571
						l-0.526-0.491l0.411-0.381l0.671,0.626l1.407-1.297l-1.407-1.297l-0.671,0.626l-0.411-0.381l0.526-0.491L6.98,29.503l0.29-0.27
						L5.873,27.93L5.873,27.93z M5.873,30.63v1.973l0.3-0.3v-0.436h0.386l0.25-0.25l-0.25-0.25H6.174V30.93L5.873,30.63L5.873,30.63
						z M8.387,31.391l-0.035,0.205l0.035,0.205l0.22-0.205L8.387,31.391z"/>
				</g>
			</g>
			<g>
				<g id="ornm_4_">
					<path style="fill:#383739;" d="M5.873,38.536v0.556l0.861,0.806l-0.29,0.27l0.616,0.571l-0.27,0.245v-0.356H6.264v0.426
						l1.187,1.112h0.601l0.065-0.391H7.771l0.376-0.351l0.942,0.856l-0.942,0.861l-0.376-0.351h0.346l-0.065-0.396H7.451
						l-1.187,1.112v0.426H6.79v-0.356l0.27,0.245l-0.616,0.571l0.29,0.275l-0.861,0.801v0.556l1.457-1.357l-0.29-0.275l0.611-0.571
						l-0.526-0.491l0.351-0.321l0.671,0.621l1.472-1.352L8.147,40.93l-0.671,0.626L7.125,41.23l0.526-0.491L7.04,40.168l0.29-0.27
						L5.873,38.536L5.873,38.536z M5.873,41.235v2.093l0.341-0.346v-0.406h0.361l0.29-0.295l-0.29-0.29H6.214v-0.411L5.873,41.235
						L5.873,41.235z M8.357,41.976l-0.05,0.285l0.05,0.29l0.31-0.29L8.357,41.976z"/>
					<path style="fill:#FAAE29;" d="M5.873,38.596v0.441l0.922,0.861l-0.29,0.27l0.616,0.571L6.75,41.085v-0.416H6.304v0.371
						l1.167,1.087h0.541l0.055-0.311H7.666l0.481-0.451l1.002,0.917l-1.002,0.917l-0.481-0.446h0.401l-0.055-0.316H7.471
						l-1.167,1.087v0.371h0.446v-0.416l0.371,0.346l-0.616,0.571l0.29,0.275l-0.922,0.856v0.441l1.397-1.297l-0.29-0.275
						l0.611-0.571l-0.526-0.491l0.411-0.381l0.671,0.626l1.407-1.297l-1.407-1.297l-0.671,0.626L7.065,41.23l0.526-0.491
						L6.98,40.168l0.29-0.27L5.873,38.596L5.873,38.596z M5.873,41.295v1.973l0.3-0.3v-0.436h0.386l0.25-0.25l-0.25-0.25H6.174
						v-0.436L5.873,41.295L5.873,41.295z M8.387,42.056l-0.035,0.205l0.035,0.205l0.22-0.205L8.387,42.056z"/>
				</g>
			</g>
		</g>
		<g>
			<g id="ornm5_1_">
				<g id="ornm_5_">
					<path style="fill:#383739;" d="M21.191-3.788v0.556L20.33-2.425l0.29,0.27l-0.616,0.571l0.27,0.245v-0.356h0.526v0.426
						l-1.187,1.112h-0.601l-0.065-0.391h0.346l-0.376-0.351l-0.942,0.856l0.942,0.861l0.376-0.351h-0.346l0.065-0.396h0.601
						l1.187,1.112v0.426h-0.526V1.256l-0.27,0.245l0.616,0.571l-0.29,0.275l0.861,0.801v0.556l-1.457-1.357l0.29-0.275l-0.611-0.571
						l0.526-0.491L19.589,0.69l-0.671,0.621l-1.472-1.352l1.472-1.352l0.671,0.626l0.351-0.326l-0.526-0.491l0.611-0.571l-0.29-0.27
						L21.191-3.788L21.191-3.788z M21.191-1.088v2.093L20.851,0.66V0.254H20.49L20.2-0.042l0.29-0.29h0.361v-0.411L21.191-1.088
						L21.191-1.088z M18.707-0.347l0.05,0.285l-0.05,0.29l-0.31-0.29L18.707-0.347z"/>
					<path style="fill:#FAAE29;" d="M21.191-3.728v0.441L20.27-2.425l0.29,0.27l-0.616,0.571l0.371,0.346v-0.416h0.446v0.371
						l-1.167,1.087h-0.541l-0.055-0.311h0.401l-0.481-0.451l-1.002,0.917l1.002,0.917l0.481-0.446h-0.401l0.055-0.316h0.541
						l1.167,1.087v0.371h-0.446V1.155l-0.371,0.346l0.616,0.571l-0.29,0.275l0.922,0.856v0.441l-1.397-1.297l0.29-0.275
						l-0.611-0.571l0.526-0.491L19.589,0.63l-0.671,0.626L17.51-0.042l1.407-1.297l0.671,0.626l0.411-0.381l-0.526-0.491
						l0.611-0.571l-0.29-0.27L21.191-3.728L21.191-3.728z M21.191-1.028v1.973l-0.3-0.3V0.209h-0.386l-0.25-0.25l0.25-0.25h0.386
						v-0.436L21.191-1.028L21.191-1.028z M18.677-0.267l0.035,0.205l-0.035,0.205l-0.22-0.205L18.677-0.267z"/>
				</g>
				<g>
					<g id="ornm_6_">
						<path style="fill:#383739;" d="M21.191,6.538v0.556L20.33,7.901l0.29,0.27l-0.616,0.571l0.27,0.245V8.632h0.526v0.426
							l-1.187,1.112h-0.601l-0.065-0.391h0.346l-0.376-0.351l-0.942,0.856l0.942,0.861l0.376-0.351h-0.346l0.065-0.396h0.601
							l1.187,1.112v0.426h-0.526v-0.356l-0.27,0.245l0.616,0.571l-0.29,0.275l0.861,0.801v0.556l-1.457-1.357l0.29-0.275
							l-0.611-0.571l0.526-0.491l-0.351-0.321l-0.671,0.621l-1.472-1.352l1.472-1.352l0.671,0.626l0.351-0.326l-0.526-0.491
							l0.611-0.571l-0.29-0.27L21.191,6.538L21.191,6.538z M21.191,9.238v2.093l-0.341-0.346V10.58H20.49l-0.29-0.295l0.29-0.29
							h0.361V9.584L21.191,9.238L21.191,9.238z M18.707,9.979l0.05,0.285l-0.05,0.29l-0.31-0.29L18.707,9.979z"/>
						<path style="fill:#FAAE29;" d="M21.191,6.599v0.441L20.27,7.901l0.29,0.27l-0.616,0.571l0.371,0.346V8.672h0.446v0.371
							l-1.167,1.087h-0.541l-0.055-0.311h0.401l-0.481-0.451l-1.002,0.917l1.002,0.917l0.481-0.446h-0.401l0.055-0.316h0.541
							l1.167,1.087v0.371h-0.446v-0.416l-0.371,0.346l0.616,0.571l-0.29,0.275l0.922,0.856v0.441l-1.397-1.297l0.29-0.275
							l-0.611-0.571l0.526-0.491l-0.411-0.381l-0.671,0.626l-1.407-1.297l1.407-1.297l0.671,0.626l0.411-0.381l-0.526-0.491
							l0.611-0.571l-0.29-0.27L21.191,6.599L21.191,6.599z M21.191,9.298v1.973l-0.3-0.3v-0.436h-0.386l-0.25-0.25l0.25-0.25h0.386
							V9.599L21.191,9.298L21.191,9.298z M18.677,10.059l0.035,0.205l-0.035,0.205l-0.22-0.205L18.677,10.059z"/>
					</g>
				</g>
				<g>
					<g id="ornm_7_">
						<path style="fill:#383739;" d="M21.191,17.204v0.556l-0.861,0.806l0.29,0.27l-0.616,0.571l0.27,0.245v-0.356h0.526v0.426
							l-1.187,1.112h-0.601l-0.065-0.391h0.346l-0.376-0.351l-0.942,0.856l0.942,0.861l0.376-0.351h-0.346l0.065-0.396h0.601
							l1.187,1.112v0.426h-0.526v-0.356l-0.27,0.245l0.616,0.571l-0.29,0.275l0.861,0.801v0.556l-1.457-1.357l0.29-0.275
							l-0.611-0.571l0.526-0.491l-0.351-0.321l-0.671,0.621l-1.472-1.352l1.472-1.352l0.671,0.626l0.351-0.326l-0.526-0.491
							l0.611-0.571l-0.29-0.27L21.191,17.204L21.191,17.204z M21.191,19.904v2.093l-0.341-0.346v-0.406H20.49l-0.29-0.295l0.29-0.29
							h0.361v-0.411L21.191,19.904L21.191,19.904z M18.707,20.645l0.05,0.285l-0.05,0.29l-0.31-0.29L18.707,20.645z"/>
						<path style="fill:#FAAE29;" d="M21.191,17.264v0.441l-0.922,0.861l0.29,0.27l-0.616,0.571l0.371,0.346v-0.416h0.446v0.371
							l-1.167,1.087h-0.541l-0.055-0.311h0.401l-0.481-0.451l-1.002,0.917l1.002,0.917l0.481-0.446h-0.401l0.055-0.316h0.541
							l1.167,1.087v0.371h-0.446v-0.416l-0.371,0.346l0.616,0.571l-0.29,0.275l0.922,0.856v0.441l-1.397-1.297l0.29-0.275
							l-0.611-0.571l0.526-0.491l-0.411-0.381l-0.671,0.626l-1.407-1.297l1.407-1.297l0.671,0.626l0.411-0.381l-0.526-0.491
							l0.611-0.571l-0.29-0.27L21.191,17.264L21.191,17.264z M21.191,19.964v1.973l-0.3-0.3v-0.436h-0.386l-0.25-0.25l0.25-0.25
							h0.386v-0.436L21.191,19.964L21.191,19.964z M18.677,20.725l0.035,0.205l-0.035,0.205l-0.22-0.205L18.677,20.725z"/>
					</g>
				</g>
				<g>
					<g id="ornm_8_">
						<path style="fill:#383739;" d="M21.191,27.87v0.556l-0.861,0.806l0.29,0.27l-0.616,0.571l0.27,0.245v-0.356h0.526v0.426
							l-1.187,1.112h-0.601l-0.065-0.391h0.346l-0.376-0.351l-0.942,0.856l0.942,0.861l0.376-0.351h-0.346l0.065-0.396h0.601
							l1.187,1.112v0.426h-0.526v-0.356l-0.27,0.245l0.616,0.571l-0.29,0.275l0.861,0.801v0.556l-1.457-1.357l0.29-0.275
							l-0.611-0.571l0.526-0.491l-0.351-0.321l-0.671,0.621l-1.472-1.352l1.472-1.352l0.671,0.626l0.351-0.326l-0.526-0.491
							l0.611-0.571l-0.29-0.27L21.191,27.87L21.191,27.87z M21.191,30.569v2.093l-0.341-0.346v-0.406H20.49l-0.29-0.295l0.29-0.29
							h0.361v-0.411L21.191,30.569L21.191,30.569z M18.707,31.311l0.05,0.285l-0.05,0.29l-0.31-0.29L18.707,31.311z"/>
						<path style="fill:#FAAE29;" d="M21.191,27.93v0.441l-0.922,0.861l0.29,0.27l-0.616,0.571l0.371,0.346v-0.416h0.446v0.371
							l-1.167,1.087h-0.541l-0.055-0.311h0.401L18.917,30.7l-1.002,0.917l1.002,0.917l0.481-0.446h-0.401l0.055-0.316h0.541
							l1.167,1.087v0.371h-0.446v-0.416l-0.371,0.346l0.616,0.571l-0.29,0.275l0.922,0.856v0.441l-1.397-1.297l0.29-0.275
							l-0.611-0.571l0.526-0.491l-0.411-0.381l-0.671,0.626l-1.407-1.297l1.407-1.297l0.671,0.626l0.411-0.381l-0.526-0.491
							l0.611-0.571l-0.29-0.27L21.191,27.93L21.191,27.93z M21.191,30.63v1.973l-0.3-0.3v-0.436h-0.386l-0.25-0.25l0.25-0.25h0.386
							V30.93L21.191,30.63L21.191,30.63z M18.677,31.391l0.035,0.205l-0.035,0.205l-0.22-0.205L18.677,31.391z"/>
					</g>
				</g>
				<g transform="matrix(-1,0,0,1,377.99597,0)">
					<g id="ornm_9_">
						<path style="fill:#383739;" d="M21.191,38.536v0.556l-0.861,0.806l0.29,0.27l-0.616,0.571l0.27,0.245v-0.356h0.526v0.426
							l-1.187,1.112h-0.601l-0.065-0.391h0.346l-0.376-0.351l-0.942,0.856l0.942,0.861l0.376-0.351h-0.346l0.065-0.396h0.601
							l1.187,1.112v0.426h-0.526v-0.356l-0.27,0.245l0.616,0.571l-0.29,0.275l0.861,0.801v0.556l-1.457-1.357l0.29-0.275
							l-0.611-0.571l0.526-0.491l-0.351-0.321l-0.671,0.621l-1.472-1.352l1.472-1.352l0.671,0.626l0.351-0.326l-0.526-0.491
							l0.611-0.571l-0.29-0.27L21.191,38.536L21.191,38.536z M21.191,41.235v2.093l-0.341-0.346v-0.406H20.49l-0.29-0.295l0.29-0.29
							h0.361v-0.411L21.191,41.235L21.191,41.235z M18.707,41.976l0.05,0.285l-0.05,0.29l-0.31-0.29L18.707,41.976z"/>
						<path style="fill:#FAAE29;" d="M21.191,38.596v0.441l-0.922,0.861l0.29,0.27l-0.616,0.571l0.371,0.346v-0.416h0.446v0.371
							l-1.167,1.087h-0.541l-0.055-0.311h0.401l-0.481-0.451l-1.002,0.917l1.002,0.917l0.481-0.446h-0.401l0.055-0.316h0.541
							l1.167,1.087v0.371h-0.446v-0.416l-0.371,0.346l0.616,0.571l-0.29,0.275l0.922,0.856v0.441l-1.397-1.297l0.29-0.275
							l-0.611-0.571l0.526-0.491l-0.411-0.381l-0.671,0.626l-1.407-1.297l1.407-1.297l0.671,0.626l0.411-0.381l-0.526-0.491
							l0.611-0.571l-0.29-0.27L21.191,38.596L21.191,38.596z M21.191,41.295v1.973l-0.3-0.3v-0.436h-0.386l-0.25-0.25l0.25-0.25
							h0.386v-0.436L21.191,41.295L21.191,41.295z M18.677,42.056l0.035,0.205l-0.035,0.205l-0.22-0.205L18.677,42.056z"/>
					</g>
				</g>
			</g>
			<path id="branch" style="fill:#FAAE29;" d="M7.116,50.151c0.076,0.322,0.332,0.565,0.393,0.9c0.122-0.348,0.235-0.64,0.151-1.022
				c-0.06-0.273-0.29-0.467-0.316-0.747C7.093,49.507,7.039,49.826,7.116,50.151L7.116,50.151z M7.052,51.501
				c0.212,0.291,0.507,0.514,0.832,0.662c-0.064-0.255,0.056-0.446,0.19-0.649c0.161-0.243,0.239-0.482,0.108-0.763
				c-0.061,0.146-0.143,0.267-0.24,0.391c-0.142,0.194-0.236,0.367-0.258,0.616c-0.165-0.122-0.237-0.304-0.325-0.481
				c-0.134-0.253-0.351-0.464-0.6-0.602C6.826,50.961,6.877,51.26,7.052,51.501L7.052,51.501z M8.242,52.368
				c-0.045,0.161-0.084,0.322-0.076,0.49c-0.14-0.151-0.326-0.265-0.492-0.386c-0.226-0.183-0.49-0.312-0.674-0.545
				c0.028,0.343,0.174,0.622,0.453,0.831c0.294,0.22,0.649,0.339,0.939,0.57c-0.043-0.312,0.071-0.561,0.169-0.848
				c0.081-0.274,0.003-0.552-0.183-0.76C8.38,51.951,8.307,52.15,8.242,52.368L8.242,52.368z M8.902,53.421
				c0.061,0.236,0.23,0.429,0.346,0.64c-0.312-0.097-0.587-0.266-0.869-0.425c-0.336-0.183-0.701-0.299-1.005-0.541
				c0.151,0.56,0.526,0.885,1.075,1.051c0.375,0.113,0.691,0.057,1.146,0.241c-0.052-0.308-0.144-0.641-0.29-0.919
				c-0.113-0.201-0.238-0.399-0.308-0.62C8.897,53.029,8.849,53.213,8.902,53.421L8.902,53.421z M10.05,54.278
				c0.107,0.184,0.249,0.339,0.425,0.461c-0.443,0.028-0.799-0.252-1.231-0.265c-0.267-0.007-0.52,0.075-0.792,0.05
				c0.323,0.218,0.661,0.408,1.053,0.459c0.511,0.066,0.982-0.062,1.545-0.012c-0.263-0.186-0.395-0.435-0.559-0.702
				c-0.214-0.334-0.415-0.572-0.831-0.626C9.828,53.831,9.925,54.063,10.05,54.278L10.05,54.278z M11.623,55.013
				c-0.78,0.133-1.528,0.304-2.324,0.312c0.892,0.311,1.732,0.367,2.617,0.046c0.478-0.173,0.844-0.266,1.205-0.24
				c0.528,0.038,1.169,0.246,1.878,0.994l0.279-0.223C14.261,54.996,12.93,54.79,11.623,55.013L11.623,55.013z"/>
			<g transform="matrix(-1,0,0,1,378.03633,0)">
				<path id="branch_1_" style="fill:#FAAE29;" d="M19.952,50.151c-0.076,0.322-0.332,0.565-0.393,0.9
					c-0.122-0.348-0.235-0.64-0.151-1.022c0.06-0.273,0.29-0.467,0.316-0.747C19.975,49.507,20.029,49.826,19.952,50.151
					L19.952,50.151z M20.016,51.501c-0.212,0.291-0.507,0.514-0.832,0.662c0.064-0.255-0.056-0.446-0.19-0.649
					c-0.161-0.243-0.239-0.482-0.108-0.763c0.061,0.146,0.143,0.267,0.24,0.391c0.142,0.194,0.236,0.367,0.258,0.616
					c0.165-0.122,0.237-0.304,0.325-0.481c0.134-0.253,0.351-0.464,0.6-0.602C20.242,50.961,20.191,51.26,20.016,51.501
					L20.016,51.501z M18.826,52.368c0.045,0.161,0.084,0.322,0.076,0.49c0.14-0.151,0.326-0.265,0.492-0.386
					c0.226-0.183,0.49-0.312,0.674-0.545c-0.028,0.343-0.174,0.622-0.453,0.831c-0.294,0.22-0.649,0.339-0.939,0.57
					c0.043-0.312-0.071-0.561-0.169-0.848c-0.081-0.274-0.003-0.552,0.183-0.76C18.688,51.951,18.761,52.15,18.826,52.368
					L18.826,52.368z M18.166,53.421c-0.061,0.236-0.23,0.429-0.346,0.64c0.312-0.097,0.587-0.266,0.869-0.425
					c0.336-0.183,0.701-0.299,1.005-0.541c-0.151,0.56-0.526,0.885-1.075,1.051c-0.375,0.113-0.691,0.057-1.146,0.241
					c0.052-0.308,0.144-0.641,0.29-0.919c0.113-0.201,0.238-0.399,0.308-0.62C18.171,53.029,18.219,53.213,18.166,53.421
					L18.166,53.421z M17.018,54.278c-0.107,0.184-0.249,0.339-0.425,0.461c0.443,0.028,0.799-0.252,1.231-0.265
					c0.267-0.007,0.52,0.075,0.792,0.05c-0.323,0.218-0.661,0.408-1.053,0.459c-0.511,0.066-0.982-0.062-1.545-0.012
					c0.263-0.186,0.395-0.435,0.559-0.702c0.214-0.334,0.415-0.572,0.831-0.626C17.24,53.831,17.143,54.063,17.018,54.278
					L17.018,54.278z M15.445,55.013c0.78,0.133,1.528,0.304,2.324,0.312c-0.892,0.311-1.732,0.367-2.617,0.046
					c-0.478-0.173-0.844-0.266-1.205-0.24c-0.528,0.038-1.169,0.246-1.878,0.994l-0.279-0.223
					C12.808,54.996,14.138,54.79,15.445,55.013L15.445,55.013z"/>
			</g>
			<g>
				<path style="fill:#383739;" d="M7.79,6.61L6.562,5.857V4.047L7.79,3.295V2.337l1.16-0.699h0.927l1.763-0.992h3.785l1.763,0.992
					h0.927l1.16,0.699v0.957l1.227,0.753l0,1.809L19.275,6.61v0.957l-1.16,0.699h-0.927l-1.763,0.992h-3.785L9.876,8.265H8.949
					L7.79,7.567L7.79,6.61z"/>
				<path style="fill:#28AE66;" d="M11.648,0.69L9.885,1.681H8.963L7.831,2.362v0.957L6.604,4.07v1.763l1.227,0.751v0.962
					l1.127,0.681h0.927l1.763,0.992h3.766l1.763-0.992h0.927l1.132-0.681V6.584l1.227-0.751V4.07l-1.227-0.751V2.362l-1.132-0.681
					h-0.927L15.414,0.69L11.648,0.69z M11.753,1.055h3.561l1.763,0.992h0.922l0.856,0.516v0.957l1.232,0.751v1.362l-1.232,0.751
					v0.957l-0.856,0.516h-0.922l-1.763,0.992h-3.561L9.99,7.857H9.068L8.207,7.341V6.384L6.98,5.633V4.271l1.227-0.751V2.563
					l0.861-0.516H9.99L11.753,1.055z"/>
				<path style="fill:#FAAE29;" d="M13.512,4.972V1.095h-1.75L9.999,2.087H9.079L8.248,2.587v0.955L7.02,4.295v0.637l6.532,0V8.81
					h1.75l1.763-0.992h0.919l0.832-0.501V6.362l1.227-0.753V4.972L13.512,4.972z"/>
				<path style="fill:#FFFFFF;" d="M7.02,4.972l0,0.637l1.227,0.753v0.955l0.832,0.501h0.919l1.763,0.992h1.75V4.932l6.532,0V4.295
					l-1.227-0.753V2.587l-0.832-0.501h-0.919l-1.763-0.992h-1.75v3.878L7.02,4.972z"/>
				<g id="carp1h">
					<g id="carp1q">
						<path style="fill:#383739;" d="M9.698,2.443L9.396,2.162L9.096,2.346l0.303,0.282L9.01,2.869h0.848l0.731,0.689l0.234-0.247
							l-0.711-0.67V2.187L9.698,2.443z"/>
						<path style="fill:#383739;" d="M11.128,2.32l-0.302-0.282l-0.299,0.185l0.303,0.282l-0.389,0.241h0.848l0.731,0.689
							l0.234-0.247l-0.711-0.67V2.063L11.128,2.32z"/>
						<path style="fill:#383739;" d="M9.593,3.252L9.291,2.971L8.992,3.155l0.303,0.282L8.906,3.678h0.848l0.731,0.689l0.234-0.247
							l-0.711-0.67V2.996L9.593,3.252z"/>
						<path style="fill:#383739;" d="M13.532,1.054h-0.765l-0.4,0.386h-0.781L11.009,1.74l0.135,0.328l0.514-0.27h0.225l0.789,0.912
							l0.86-0.524L13.532,1.054z"/>
						<path style="fill:#CA3745;" d="M9.391,2.213l0.272,0.253L9.435,2.607L9.163,2.353L9.391,2.213z M10.072,2.259v0.4l0.694,0.654
							l-0.178,0.188L9.875,2.829H9.153L10.072,2.259L10.072,2.259z"/>
						<path style="fill:#CA3745;" d="M10.821,2.089l0.272,0.253l-0.228,0.141l-0.272-0.253L10.821,2.089z M11.502,2.136v0.4
							l0.694,0.654l-0.178,0.188l-0.713-0.673h-0.722L11.502,2.136L11.502,2.136z"/>
						<path style="fill:#CA3745;" d="M9.286,3.021l0.271,0.253L9.33,3.416L9.058,3.162L9.286,3.021z M9.967,3.068v0.4l0.694,0.654
							l-0.178,0.188L9.77,3.638H9.048L9.967,3.068L9.967,3.068z"/>
						<path style="fill:#CA3745;" d="M13.512,1.095h-0.729l-0.4,0.386h-0.787L11.06,1.758l0.104,0.252l0.484-0.254h0.254l0.778,0.9
							l0.832-0.506L13.512,1.095z"/>
					</g>
					<g transform="matrix(1,0,0,-1,0,105.62254)">
						<g id="carp1q_1_">
							<path style="fill:#383739;" d="M9.698,7.461L9.396,7.742L9.096,7.558l0.303-0.282L9.01,7.035h0.848l0.731-0.689l0.234,0.247
								l-0.711,0.67v0.455L9.698,7.461z"/>
							<path style="fill:#383739;" d="M11.128,7.585l-0.302,0.282l-0.299-0.185l0.303-0.282l-0.389-0.241h0.848l0.731-0.689
								l0.234,0.247l-0.711,0.67v0.455L11.128,7.585z"/>
							<path style="fill:#383739;" d="M9.593,6.652L9.291,6.933L8.992,6.749l0.303-0.282L8.906,6.226h0.848l0.731-0.689l0.234,0.247
								l-0.711,0.67v0.455L9.593,6.652z"/>
							<path style="fill:#383739;" d="M13.532,8.85h-0.765l-0.4-0.386h-0.781l-0.577-0.299l0.135-0.328l0.514,0.27h0.225
								l0.789-0.912l0.86,0.524L13.532,8.85z"/>
							<path style="fill:#CA3745;" d="M9.391,7.692l0.272-0.253L9.435,7.298L9.163,7.551L9.391,7.692z M10.072,7.645v-0.4
								l0.694-0.654l-0.178-0.188L9.875,7.075H9.153L10.072,7.645L10.072,7.645z"/>
							<path style="fill:#CA3745;" d="M10.821,7.816l0.272-0.253l-0.228-0.141l-0.272,0.253L10.821,7.816z M11.502,7.769v-0.4
								l0.694-0.654l-0.178-0.188l-0.713,0.673h-0.722L11.502,7.769L11.502,7.769z"/>
							<path style="fill:#CA3745;" d="M9.286,6.883L9.557,6.63L9.33,6.489L9.058,6.742L9.286,6.883z M9.967,6.836v-0.4l0.694-0.654
								l-0.178-0.188L9.77,6.266H9.048L9.967,6.836L9.967,6.836z"/>
							<path style="fill:#CA3745;" d="M13.512,8.81h-0.729l-0.4-0.386h-0.787L11.06,8.146l0.104-0.252l0.484,0.254h0.254l0.778-0.9
								l0.832,0.506L13.512,8.81z"/>
						</g>
					</g>
					<path style="fill:#383739;" d="M9.188,3.713L8.823,3.577L8.814,3.583L8.343,3.91v0.088L7.589,4.952l0.755,0.954v0.088
						l0.48,0.333l0.365-0.136L8.965,6.043V5.763l0.089-0.106h0.395v-1.41H9.054L8.965,4.141V3.861L9.188,3.713z"/>
					<path style="fill:#CA3745;" d="M8.384,3.931l0.445-0.309l0.271,0.101L8.925,3.839v0.317l0.11,0.132h0.374v1.329H9.035
						l-0.11,0.132v0.317l0.175,0.116L8.829,6.282L8.384,5.973l0-0.081L7.64,4.952l0.744-0.94L8.384,3.931z"/>
				</g>
				<g id="carp1">
					<g id="carp1h_1_">
						<g id="carp1q_2_">
							<path style="fill:#383739;" d="M17.366,2.443l0.302-0.282l0.299,0.185l-0.303,0.282l0.389,0.241h-0.848l-0.731,0.689
								l-0.234-0.247l0.711-0.67V2.187L17.366,2.443z"/>
							<path style="fill:#383739;" d="M15.936,2.32l0.302-0.282l0.299,0.185l-0.303,0.282l0.389,0.241h-0.848l-0.731,0.689
								l-0.234-0.247l0.711-0.67V2.063L15.936,2.32z"/>
							<path style="fill:#383739;" d="M17.471,3.252l0.302-0.282l0.299,0.185L17.77,3.438l0.389,0.241H17.31L16.58,4.368
								l-0.234-0.247l0.711-0.67V2.996L17.471,3.252z"/>
							<path style="fill:#383739;" d="M13.532,1.054h0.765l0.4,0.386h0.781l0.577,0.299l-0.135,0.328l-0.514-0.27h-0.225
								l-0.789,0.912l-0.86-0.524L13.532,1.054z"/>
							<path style="fill:#CA3745;" d="M17.673,2.213l-0.272,0.253l0.228,0.141l0.272-0.253L17.673,2.213z M16.992,2.259v0.4
								l-0.694,0.654l0.178,0.188l0.713-0.673h0.722L16.992,2.259L16.992,2.259z"/>
							<path style="fill:#CA3745;" d="M16.243,2.089l-0.272,0.253l0.228,0.141l0.272-0.253L16.243,2.089z M15.562,2.136v0.4
								L14.868,3.19l0.178,0.188l0.713-0.673h0.722L15.562,2.136L15.562,2.136z"/>
							<path style="fill:#CA3745;" d="M17.778,3.021l-0.271,0.253l0.228,0.141l0.272-0.253L17.778,3.021z M17.097,3.068v0.4
								l-0.694,0.654l0.178,0.188l0.713-0.673h0.722L17.097,3.068L17.097,3.068z"/>
							<path style="fill:#CA3745;" d="M13.552,1.095h0.729l0.4,0.386h0.787l0.535,0.278L15.9,2.011l-0.484-0.254h-0.254l-0.778,0.9
								l-0.832-0.506L13.552,1.095z"/>
						</g>
						<g transform="matrix(-1,0,0,1,377.99368,0)">
							<g id="carp1q_3_">
								<path style="fill:#383739;" d="M17.366,7.461l0.302,0.282l0.299-0.185l-0.303-0.282l0.389-0.241h-0.848l-0.731-0.689
									l-0.234,0.247l0.711,0.67v0.455L17.366,7.461z"/>
								<path style="fill:#383739;" d="M15.936,7.585l0.302,0.282l0.299-0.185l-0.303-0.282l0.389-0.241h-0.848l-0.731-0.689
									l-0.234,0.247l0.711,0.67v0.455L15.936,7.585z"/>
								<path style="fill:#383739;" d="M17.471,6.652l0.302,0.282l0.299-0.185L17.77,6.467l0.389-0.241H17.31L16.58,5.537
									l-0.234,0.247l0.711,0.67v0.455L17.471,6.652z"/>
								<path style="fill:#383739;" d="M13.532,8.85h0.765l0.4-0.386h0.781l0.577-0.299l-0.135-0.328l-0.514,0.27h-0.225
									l-0.789-0.912l-0.86,0.524L13.532,8.85z"/>
								<path style="fill:#CA3745;" d="M17.673,7.692l-0.272-0.253l0.228-0.141l0.272,0.253L17.673,7.692z M16.992,7.645v-0.4
									l-0.694-0.654l0.178-0.188l0.713,0.673h0.722L16.992,7.645L16.992,7.645z"/>
								<path style="fill:#CA3745;" d="M16.243,7.816l-0.272-0.253l0.228-0.141l0.272,0.253L16.243,7.816z M15.562,7.769v-0.4
									l-0.694-0.654l0.178-0.188l0.713,0.673h0.722L15.562,7.769L15.562,7.769z"/>
								<path style="fill:#CA3745;" d="M17.778,6.883L17.507,6.63l0.228-0.141l0.272,0.253L17.778,6.883z M17.097,6.836v-0.4
									l-0.694-0.654l0.178-0.188l0.713,0.673h0.722L17.097,6.836L17.097,6.836z"/>
								<path style="fill:#CA3745;" d="M13.552,8.81h0.729l0.4-0.386h0.787l0.535-0.278L15.9,7.894l-0.484,0.254h-0.254l-0.778-0.9
									l-0.832,0.506L13.552,8.81z"/>
							</g>
						</g>
						<path style="fill:#383739;" d="M17.876,3.713l0.365-0.136l0.009,0.006l0.471,0.327v0.088l0.755,0.954l-0.755,0.954v0.088
							l-0.48,0.333l-0.365-0.136l0.223-0.147V5.763L18.01,5.657h-0.395v-1.41h0.395l0.089-0.106V3.861L17.876,3.713z"/>
						<path style="fill:#CA3745;" d="M18.68,3.931l-0.445-0.309l-0.271,0.101l0.175,0.116v0.317l-0.11,0.132h-0.374v1.329h0.374
							l0.11,0.132v0.317l-0.175,0.116l0.271,0.101l0.445-0.309l0-0.081l0.743-0.94l-0.743-0.94L18.68,3.931z"/>
					</g>
					<path style="fill:#383739;" d="M8.54,5.753L8.335,5.575V5.49L7.894,4.952l0.441-0.538V4.329L8.54,4.151l0.369,0.3L8.696,4.45
						l0.315,0.319H9.73l0.566-0.442V3.161h1.414l1.643-1.008V1.888l-0.251-0.167h-0.08l-0.274,0.183L12.706,2.04l-0.214-0.292
						l0.416-0.349h0.066l0.469-0.344h0.177l0.469,0.344h0.067l0.416,0.349L14.358,2.04l-0.042-0.137l-0.274-0.183h-0.08
						l-0.251,0.167v0.264l1.643,1.008h1.414v1.166l0.566,0.442h0.719l0.315-0.319l-0.213,0.002l0.369-0.3l0.205,0.178v0.086
						l0.441,0.538L18.729,5.49v0.086l-0.205,0.178l-0.369-0.3l0.213,0.002l-0.315-0.319h-0.719l-0.566,0.442v1.166h-1.414
						l-1.643,1.008v0.264l0.251,0.167h0.08l0.274-0.183l0.042-0.137l0.214,0.292l-0.416,0.349H14.09L13.621,8.85h-0.177
						l-0.469-0.344h-0.066l-0.416-0.349l0.214-0.292l0.042,0.137l0.274,0.183h0.08l0.251-0.167V7.752L11.71,6.744h-1.414V5.578
						L9.73,5.135H9.011L8.696,5.455l0.213-0.002L8.54,5.753z"/>
					<path style="fill:#FAAE29;" d="M13.552,8.215l0.18,0.137l-0.18,0.137V8.215L13.552,8.215z M12.981,8.465h0.007l0.469,0.344
						h0.055V8.541l-0.246-0.188l0.246-0.188V7.66l-1.758-1.079h-1.299V5.497L9.784,4.972H8.772L8.517,5.26L8.263,4.972l-0.3,0
						l0.412,0.503v0.082l0.163,0.142l0.262-0.204L8.647,5.496V5.445l0.343-0.35h0.754l0.592,0.463v1.146h1.385l1.672,1.026v0.309
						l-0.279,0.186h-0.104l-0.296-0.198l-0.023-0.073L12.547,8.15l0.376,0.316H12.981L12.981,8.465z M8.518,4.706l0.2,0.226H8.317
						L8.518,4.706z M13.512,1.414l-0.18,0.137l0.18,0.137V1.414z M18.346,4.972l0.2,0.226l0.2-0.226H18.346L18.346,4.972z
						 M14.077,1.439l-0.469-0.344h-0.055v0.269l0.246,0.188L13.552,1.74v0.505l1.758,1.079h1.299v1.084l0.671,0.525h1.012
						l0.254-0.288l0.254,0.287h0.3l-0.412-0.503V4.347l-0.163-0.142L18.263,4.41l0.154-0.001V4.46l-0.343,0.35H17.32l-0.592-0.463
						V3.201h-1.385l-1.672-1.026V1.866L13.95,1.68h0.104l0.296,0.198l0.023,0.073l0.144-0.197l-0.376-0.316L14.077,1.439
						L14.077,1.439z"/>
					<path style="fill:#FFFFFF;" d="M13.512,8.49l-0.18-0.137l0.18-0.137V8.49z M8.718,4.972l-0.2,0.226l-0.2-0.226H8.718z
						 M14.083,8.465h-0.007L13.607,8.81h-0.055v-0.07V8.541l0.246-0.188l-0.246-0.188V7.66l1.758-1.079h1.299V5.497l0.671-0.525
						h1.012l0.254,0.288l0.254-0.288l0.3,0l-0.412,0.503v0.082l-0.163,0.142l-0.262-0.204l0.154,0.001V5.445l-0.343-0.35H17.32
						l-0.592,0.463v1.146h-1.385l-1.672,1.026v0.309l0.279,0.186h0.104l0.296-0.198l0.023-0.073l0.144,0.197l-0.376,0.316H14.083
						L14.083,8.465z M18.546,4.706l-0.2,0.226h0.401L18.546,4.706z M12.988,1.439l0.469-0.344h0.055v0.269l-0.246,0.188l0.246,0.188
						l0,0.505l-1.758,1.079h-1.299v1.084L9.784,4.932H8.772L8.517,4.644L8.263,4.932h-0.3l0.412-0.503V4.347l0.163-0.142L8.801,4.41
						L8.647,4.409V4.46l0.343,0.35h0.754l0.592-0.463V3.201h1.385l1.672-1.026V1.866L13.114,1.68h-0.104l-0.296,0.198l-0.023,0.073
						l-0.144-0.197l0.376-0.316L12.988,1.439z M13.552,1.689l0.18-0.137l-0.18-0.137V1.689z"/>
					<path style="fill:#28AE66;" d="M13.512,4.972v-2.68l-1.746,1.072h-1.27v1.063L9.85,4.932l3.703,0v2.68l1.746-1.072h1.27V5.477
						l0.646-0.505L13.512,4.972z"/>
					<path style="fill:#CA3745;" d="M9.849,4.972l0.646,0.505V6.54h1.27l1.746,1.072v-2.68l3.703,0l-0.646-0.505V3.364h-1.27
						l-1.746-1.072v2.68L9.849,4.972z"/>
					<path style="fill:#383739;" d="M11.652,3.652L11.35,3.371l-0.299,0.185l0.303,0.282l-0.389,0.241h0.848l0.731,0.689
						l0.234-0.247l-0.711-0.67V3.395L11.652,3.652z"/>
					<path style="fill:#383739;" d="M15.411,6.252l0.302,0.282l0.299-0.185L15.71,6.067l0.389-0.241h-0.848L14.52,5.137
						l-0.234,0.247l0.711,0.67v0.455L15.411,6.252z"/>
					<path style="fill:#383739;" d="M11.652,6.252L11.35,6.534l-0.299-0.185l0.303-0.282l-0.389-0.241h0.848l0.731-0.689
						l0.234,0.247l-0.711,0.67v0.455L11.652,6.252z"/>
					<path style="fill:#383739;" d="M15.411,3.652l0.302-0.282l0.299,0.185L15.71,3.837l0.389,0.241h-0.848L14.52,4.768
						l-0.234-0.247l0.711-0.67V3.395L15.411,3.652z"/>
					<path style="fill:#CA3745;" d="M15.719,6.483L15.447,6.23l0.228-0.141l0.272,0.253L15.719,6.483z M15.037,6.436v-0.4
						l-0.694-0.654l0.178-0.188l0.713,0.673h0.722L15.037,6.436L15.037,6.436z M11.345,3.421l0.272,0.253l-0.228,0.141l-0.272-0.253
						L11.345,3.421z M12.027,3.468v0.4l0.694,0.654L12.542,4.71l-0.713-0.673h-0.722L12.027,3.468L12.027,3.468z"/>
					<path style="fill:#28AE66;" d="M15.719,3.421l-0.271,0.253l0.228,0.141l0.272-0.253L15.719,3.421z M15.037,3.468v0.4
						l-0.694,0.654l0.178,0.188l0.713-0.673h0.722L15.037,3.468L15.037,3.468z M11.345,6.483l0.271-0.253l-0.228-0.141l-0.272,0.253
						L11.345,6.483z M12.027,6.436v-0.4l0.694-0.654l-0.178-0.188l-0.713,0.673h-0.722L12.027,6.436L12.027,6.436z"/>
					<path style="fill:#383739;" d="M15.41,4.952l-1.878,1.251l-1.878-1.251l1.878-1.252L15.41,4.952z"/>
					<path style="fill:#FFFFFF;" d="M13.512,3.763l-1.754,1.169h3.549l-1.754-1.169v2.379l1.754-1.169h-3.549l1.754,1.169V3.763z"/>
					<path style="fill:#383739;" d="M14.034,5.383v0.344H13.03V5.383h-0.65V4.522h0.65V4.178h1.004v0.344h0.65v0.861H14.034z"/>
					<path style="fill:#CA3745;" d="M13.071,4.218v0.344h-0.65v0.37h1.091V4.218L13.071,4.218L13.071,4.218z M13.552,4.932h1.091
						v-0.37h-0.65V4.218h-0.441L13.552,4.932L13.552,4.932z M12.421,4.972v0.37h0.65v0.344h0.441V4.972L12.421,4.972L12.421,4.972z
						 M13.552,5.686h0.441V5.342h0.65v-0.37h-1.091V5.686L13.552,5.686z"/>
				</g>
				<g id="carpets">
					<path style="fill:#383739;" d="M16.736,19.211V18.66h1.512v-0.551h1.512v-4.981h-1.512v-0.551h-1.512v-0.551h-1.512v-0.551
						H11.84v0.551h-1.512v0.551H8.817v0.551H7.305v4.981h1.512v0.551h1.512v0.551h1.512v0.551h3.383v-0.551H16.736z"/>
					<path style="fill:#CA3745;" d="M11.883,11.513v0.551h-1.513v0.551H8.858v0.551H7.346v4.903h1.513v0.551h1.512v0.551h1.513
						v0.551h3.3V19.17h1.513v-0.551h1.513v-0.551h1.512v-4.903h-1.512v-0.551h-1.513v-0.551h-1.513v-0.551H11.883L11.883,11.513z
						 M12.284,11.913h2.499v0.551h1.513v0.551h1.513v0.551h1.512v4.102h-1.512v0.551h-1.513v0.551h-1.513v0.551h-2.499V18.77h-1.513
						v-0.551H9.259v-0.551H7.746v-4.102h1.513v-0.551h1.512v-0.551h1.513V11.913z"/>
					<path style="fill:#CA3745;" d="M10.81,18.73v-0.551H9.298v-0.551H7.786v-4.019h1.512v-0.551h1.512v-0.551h1.512v-0.551h2.421
						v0.551h1.512v0.551h1.512v0.551h1.512v4.019h-1.512v0.551h-1.512v0.551h-1.512v0.551h-2.421V18.73H10.81z"/>
					<path style="fill:#383739;" d="M11.161,12.914l-0.392-0.296v0.568l-0.375,0.238l-0.001-0.356l-0.36,0.323l-0.36-0.323
						l-0.001,0.356l-0.416-0.264v0.527l-0.336,0.243l-0.001-0.323l-0.399,0.289l-0.399-0.289l-0.001,0.323l-0.376-0.272v1.596H7.305
						v0.727h0.441v1.596l0.376-0.272l0.001,0.323l0.399-0.289l0.399,0.289l0.001-0.323l0.336,0.243v0.527l0.416-0.264l0.001,0.356
						l0.36-0.323l0.36,0.323l0.001-0.356l0.375,0.238v0.568l0.392-0.296l0.001,0.397l0.384-0.343l0.384,0.343l0.001-0.397
						l0.351,0.265v0.606l0.525-0.478v0.562l0.726-0.467l0.726,0.467v-0.562l0.525,0.478v-0.606l0.351-0.265l0.001,0.397l0.384-0.343
						l0.384,0.343l0.001-0.397l0.391,0.296v-0.568l0.375-0.238l0.001,0.356l0.36-0.323l0.36,0.323l0.001-0.356l0.416,0.264v-0.527
						l0.336-0.243l0.001,0.323l0.399-0.289l0.399,0.289l0.001-0.323l0.376,0.272v-1.596h0.441v-0.727h-0.441v-1.596l-0.376,0.272
						l-0.001-0.323l-0.399,0.289l-0.399-0.289l-0.001,0.323l-0.336-0.243v-0.527l-0.416,0.264l-0.001-0.356l-0.36,0.323l-0.36-0.323
						l-0.001,0.356l-0.375-0.238v-0.568l-0.391,0.296l-0.001-0.397l-0.384,0.343l-0.384-0.343l-0.001,0.397l-0.351-0.265v-0.606
						l-0.525,0.478v-0.562l-0.726,0.467l-0.726-0.467v0.562l-0.525-0.478v0.606l-0.351,0.265l-0.001-0.397l-0.384,0.343
						l-0.384-0.343L11.161,12.914z"/>
					<g>
						<path style="fill:#28AE66;" d="M8.162,14.01l0.001-0.323l0.359,0.26l0.012-0.009l0.347-0.251l0.001,0.323l0.376-0.272v3.76
							l-0.376-0.272l-0.001,0.323l-0.359-0.26l-0.359,0.26l-0.001-0.323l-0.376,0.272v-1.557H7.346v-0.646h0.441v-1.557L8.162,14.01
							z"/>
						<path style="fill:#28AE66;" d="M11.202,12.608l0.343,0.307l0.343-0.307l0.001,0.388l0.391-0.296v5.837L11.89,18.24
							l-0.001,0.388l-0.343-0.307l-0.343,0.307l-0.001-0.388l-0.391,0.296V12.7l0.391,0.296L11.202,12.608z"/>
						<path style="fill:#28AE66;" d="M15.862,12.608l-0.343,0.307l-0.343-0.307l-0.001,0.388L14.783,12.7v5.837l0.391-0.296
							l0.001,0.388l0.343-0.307l0.343,0.307l0.001-0.388l0.391,0.296V12.7l-0.391,0.296L15.862,12.608z"/>
						<path style="fill:#28AE66;" d="M18.902,14.01l-0.001-0.323l-0.359,0.26l-0.012-0.009l-0.347-0.251l-0.001,0.323l-0.376-0.272
							v3.76l0.376-0.272l0.001,0.323l0.359-0.26l0.359,0.26l0.001-0.323l0.376,0.272v-1.557h0.441v-0.646h-0.441v-1.557
							L18.902,14.01z"/>
					</g>
					<g>
						<path style="fill:#FAAE29;" d="M9.714,13.16l0.319,0.287l0.319-0.287l0.001,0.339l0.415-0.264v4.767l-0.415-0.264
							l-0.001,0.339l-0.319-0.287l-0.319,0.287l-0.001-0.339l-0.415,0.264v-4.767l0.415,0.264L9.714,13.16z"/>
						<path style="fill:#FAAE29;" d="M12.847,12.613l-0.525-0.478v6.967l0.525-0.478v0.58l0.685-0.441h0h0l0.685,0.441v-0.58
							l0.525,0.478v-6.967l-0.525,0.478v-0.58l-0.685,0.441h0h0l-0.685-0.441V12.613z"/>
						<path style="fill:#FAAE29;" d="M17.35,13.16l-0.319,0.287l-0.319-0.287l-0.001,0.339l-0.415-0.264v4.767l0.415-0.264
							l0.001,0.339l0.319-0.287l0.319,0.287l0.001-0.339l0.415,0.264v-4.767l-0.415,0.264L17.35,13.16z"/>
					</g>
					<g id="carp2h">
						<g id="carp2q">
							<path style="fill:#383739;" d="M8.359,14.933c0.046,0.046,0.101,0.07,0.163,0.07c0.062,0,0.117-0.023,0.163-0.07
								c0.144-0.145,0.148-0.406,0.147-0.595c0,0-0.166,0.175-0.196,0.207c-0.021-0.036-0.114-0.197-0.114-0.197
								s-0.093,0.161-0.114,0.197c-0.03-0.032-0.196-0.207-0.196-0.207C8.21,14.527,8.215,14.788,8.359,14.933L8.359,14.933z"/>
							<path style="fill:#383739;" d="M9.936,14.528l-0.121-0.121v-0.241l-0.278,0.257l0.497,0.497l0.497-0.497l-0.278-0.257v0.241
								l-0.121,0.121v-0.427l0.214-0.184l-0.312-0.268l-0.312,0.268l0.214,0.184L9.936,14.528z"/>
							<path style="fill:#383739;" d="M11.448,14.049l-0.121-0.121v-0.241l-0.278,0.257l0.497,0.497l0.497-0.497l-0.278-0.257v0.241
								l-0.121,0.121v-0.427l0.214-0.184l-0.312-0.268l-0.312,0.268l0.214,0.184V14.049z"/>
							<path style="fill:#FFFFFF;" d="M8.522,14.429c0.025,0.043,0.106,0.183,0.106,0.183s0.115-0.121,0.162-0.171
								c-0.006,0.213-0.052,0.381-0.133,0.462c-0.038,0.038-0.083,0.058-0.134,0.058c-0.051,0-0.096-0.019-0.134-0.058
								c-0.081-0.082-0.128-0.25-0.133-0.462c0.047,0.049,0.162,0.171,0.162,0.171C8.451,14.552,8.487,14.49,8.522,14.429
								L8.522,14.429z"/>
							<path style="fill:#FFFFFF;" d="M11.603,13.604v0.543l0.202-0.202v-0.165l0.179,0.166l-0.438,0.438l-0.438-0.438l0.179-0.166
								v0.165l0.202,0.202v-0.543l-0.192-0.165l0.25-0.215l0.25,0.215L11.603,13.604z"/>
							<path style="fill:#CA3745;" d="M10.091,14.083v0.543l0.202-0.202v-0.165l0.179,0.166l-0.438,0.438l-0.438-0.438l0.179-0.166
								v0.165l0.202,0.202v-0.543l-0.192-0.165l0.25-0.215l0.25,0.215L10.091,14.083z"/>
						</g>
						<g transform="matrix(-1,0,0,1,377.9958,0)">
							<g id="carp2q_1_">
								<path style="fill:#383739;" d="M18.705,14.933c-0.046,0.046-0.101,0.07-0.163,0.07c-0.062,0-0.117-0.023-0.163-0.07
									c-0.144-0.145-0.148-0.406-0.147-0.595c0,0,0.166,0.175,0.196,0.207c0.021-0.036,0.114-0.197,0.114-0.197
									s0.093,0.161,0.114,0.197c0.03-0.032,0.196-0.207,0.196-0.207C18.854,14.527,18.849,14.788,18.705,14.933L18.705,14.933z"/>
								<path style="fill:#383739;" d="M17.128,14.528l0.121-0.121v-0.241l0.278,0.257L17.03,14.92l-0.497-0.497l0.278-0.257v0.241
									l0.121,0.121v-0.427l-0.214-0.184l0.312-0.268l0.312,0.268l-0.214,0.184L17.128,14.528z"/>
								<path style="fill:#383739;" d="M15.617,14.049l0.121-0.121v-0.241l0.278,0.257l-0.497,0.497l-0.497-0.497l0.278-0.257v0.241
									l0.121,0.121v-0.427l-0.214-0.184l0.312-0.268l0.312,0.268l-0.214,0.184V14.049z"/>
								<path style="fill:#FFFFFF;" d="M18.542,14.429c-0.025,0.043-0.106,0.183-0.106,0.183s-0.115-0.121-0.162-0.171
									c0.006,0.213,0.052,0.381,0.133,0.462c0.038,0.038,0.083,0.058,0.134,0.058c0.051,0,0.096-0.019,0.134-0.058
									c0.081-0.082,0.128-0.25,0.133-0.462c-0.047,0.049-0.162,0.171-0.162,0.171C18.613,14.552,18.578,14.49,18.542,14.429
									L18.542,14.429z"/>
								<path style="fill:#FFFFFF;" d="M15.461,13.604v0.543l-0.202-0.202v-0.165l-0.179,0.166l0.438,0.438l0.438-0.438
									l-0.179-0.166v0.165l-0.202,0.202v-0.543l0.192-0.165l-0.25-0.215l-0.25,0.215L15.461,13.604z"/>
								<path style="fill:#CA3745;" d="M16.973,14.083v0.543l-0.202-0.202v-0.165l-0.179,0.166l0.438,0.438l0.438-0.438
									l-0.179-0.166v0.165l-0.202,0.202v-0.543l0.192-0.165l-0.25-0.215l-0.25,0.215L16.973,14.083z"/>
							</g>
						</g>
						<path style="fill:#383739;" d="M14.126,14.231l-0.163-0.225l0.417-0.385l-0.389-0.32v0.226l-0.163,0.139v-0.411l0.367-0.271
							l-0.665-0.49l-0.665,0.49l0.367,0.271v0.411l-0.163-0.139v-0.226l-0.389,0.32l0.417,0.385l-0.163,0.225H14.126z"/>
						<path style="fill:#CA3745;" d="M13.017,14.19L13.154,14l-0.409-0.378l0.287-0.236v0.159l0.244,0.209v-0.519l-0.34-0.25
							l0.596-0.44l0.596,0.44l-0.34,0.25v0.519l0.244-0.209v-0.159l0.287,0.236L13.91,14l0.137,0.19H13.017z"/>
						<path style="fill:#383739;" d="M13.228,12.985l0.304,0.224l0.304-0.224l-0.304-0.224L13.52,12.77L13.228,12.985z"/>
						<path style="fill:#28AE66;" d="M13.532,12.812c0.02,0.015,0.2,0.147,0.235,0.173c-0.036,0.026-0.215,0.159-0.235,0.173
							c-0.02-0.015-0.2-0.147-0.235-0.173C13.332,12.959,13.512,12.827,13.532,12.812z"/>
					</g>
					<g id="carp2">
						<g id="carp2h_1_">
							<g id="carp2q_2_">
								<path style="fill:#383739;" d="M8.359,16.303c0.046-0.046,0.101-0.07,0.163-0.07c0.062,0,0.117,0.023,0.163,0.07
									c0.144,0.145,0.148,0.406,0.147,0.595c0,0-0.166-0.175-0.196-0.207c-0.021,0.036-0.114,0.197-0.114,0.197
									s-0.093-0.161-0.114-0.197c-0.03,0.032-0.196,0.207-0.196,0.207C8.21,16.709,8.215,16.447,8.359,16.303L8.359,16.303z"/>
								<path style="fill:#383739;" d="M9.936,16.708l-0.121,0.121v0.241l-0.278-0.257l0.497-0.497l0.497,0.497l-0.278,0.257v-0.241
									l-0.121-0.121v0.427l0.214,0.184l-0.312,0.268l-0.312-0.268l0.214-0.184L9.936,16.708z"/>
								<path style="fill:#383739;" d="M11.448,17.186l-0.121,0.121v0.241l-0.278-0.257l0.497-0.497l0.497,0.497l-0.278,0.257
									v-0.241l-0.121-0.121v0.427l0.214,0.184l-0.312,0.268l-0.312-0.268l0.214-0.184V17.186z"/>
								<path style="fill:#FFFFFF;" d="M8.522,16.806c0.025-0.043,0.106-0.183,0.106-0.183s0.115,0.121,0.162,0.171
									c-0.006-0.213-0.052-0.381-0.133-0.462c-0.038-0.038-0.083-0.058-0.134-0.058c-0.051,0-0.096,0.019-0.134,0.058
									c-0.081,0.082-0.128,0.25-0.133,0.462c0.047-0.049,0.162-0.171,0.162-0.171C8.451,16.684,8.487,16.745,8.522,16.806
									L8.522,16.806z"/>
								<path style="fill:#FFFFFF;" d="M11.603,17.632v-0.543l0.202,0.202v0.165l0.179-0.166l-0.438-0.438l-0.438,0.438l0.179,0.166
									V17.29l0.202-0.202v0.543l-0.192,0.165l0.25,0.215l0.25-0.215L11.603,17.632z"/>
								<path style="fill:#CA3745;" d="M10.091,17.153V16.61l0.202,0.202v0.165l0.179-0.166l-0.438-0.438l-0.438,0.438l0.179,0.166
									v-0.165l0.202-0.202v0.543l-0.192,0.165l0.25,0.215l0.25-0.215L10.091,17.153z"/>
							</g>
							<g transform="matrix(1,0,0,-1,0,331.21644)">
								<g id="carp2q_3_">
									<path style="fill:#383739;" d="M18.705,16.303c-0.046-0.046-0.101-0.07-0.163-0.07c-0.062,0-0.117,0.023-0.163,0.07
										c-0.144,0.145-0.148,0.406-0.147,0.595c0,0,0.166-0.175,0.196-0.207c0.021,0.036,0.114,0.197,0.114,0.197
										s0.093-0.161,0.114-0.197c0.03,0.032,0.196,0.207,0.196,0.207C18.854,16.709,18.849,16.447,18.705,16.303L18.705,16.303z"
										/>
									<path style="fill:#383739;" d="M17.128,16.708l0.121,0.121v0.241l0.278-0.257l-0.497-0.497l-0.497,0.497l0.278,0.257
										v-0.241l0.121-0.121v0.427l-0.214,0.184l0.312,0.268l0.312-0.268l-0.214-0.184L17.128,16.708z"/>
									<path style="fill:#383739;" d="M15.617,17.186l0.121,0.121v0.241l0.278-0.257l-0.497-0.497l-0.497,0.497l0.278,0.257
										v-0.241l0.121-0.121v0.427l-0.214,0.184l0.312,0.268l0.312-0.268l-0.214-0.184V17.186z"/>
									<path style="fill:#FFFFFF;" d="M18.542,16.806c-0.025-0.043-0.106-0.183-0.106-0.183s-0.115,0.121-0.162,0.171
										c0.006-0.213,0.052-0.381,0.133-0.462c0.038-0.038,0.083-0.058,0.134-0.058c0.051,0,0.096,0.019,0.134,0.058
										c0.081,0.082,0.128,0.25,0.133,0.462c-0.047-0.049-0.162-0.171-0.162-0.171C18.613,16.684,18.578,16.745,18.542,16.806
										L18.542,16.806z"/>
									<path style="fill:#FFFFFF;" d="M15.461,17.632v-0.543l-0.202,0.202v0.165l-0.179-0.166l0.438-0.438l0.438,0.438
										l-0.179,0.166V17.29l-0.202-0.202v0.543l0.192,0.165l-0.25,0.215l-0.25-0.215L15.461,17.632z"/>
									<path style="fill:#CA3745;" d="M16.973,17.153V16.61l-0.202,0.202v0.165l-0.179-0.166l0.438-0.438l0.438,0.438
										l-0.179,0.166v-0.165l-0.202-0.202v0.543l0.192,0.165l-0.25,0.215l-0.25-0.215L16.973,17.153z"/>
								</g>
							</g>
							<path style="fill:#383739;" d="M14.126,17.005l-0.163,0.225l0.417,0.385l-0.389,0.32v-0.226l-0.163-0.139v0.411l0.367,0.271
								l-0.665,0.49l-0.665-0.49l0.367-0.271v-0.411l-0.163,0.139v0.226l-0.389-0.32L13.1,17.23l-0.163-0.225H14.126z"/>
							<path style="fill:#CA3745;" d="M13.017,17.046l0.137,0.19l-0.409,0.378l0.287,0.236v-0.159l0.244-0.209V18l-0.34,0.25
								l0.596,0.44l0.596-0.44L13.789,18v-0.519l0.244,0.209v0.159l0.287-0.236l-0.409-0.378l0.137-0.19H13.017z"/>
							<path style="fill:#383739;" d="M13.228,18.25l0.304-0.224l0.304,0.224l-0.304,0.224l-0.012-0.009L13.228,18.25z"/>
							<path style="fill:#28AE66;" d="M13.532,18.424c0.02-0.015,0.2-0.147,0.235-0.173c-0.036-0.026-0.215-0.159-0.235-0.173
								c-0.02,0.015-0.2,0.147-0.235,0.173C13.332,18.276,13.512,18.409,13.532,18.424z"/>
						</g>
						<path style="fill:#383739;" d="M18.913,15.385h-0.665V15.12h-2.034l-1.416-0.93h-0.006h-2.525l-1.416,0.93H8.817v0.265H8.151
							v0.465h0.665v0.265h2.034l1.416,0.93h2.531l1.416-0.93h2.034V15.85h0.665V15.385z"/>
						<path style="fill:#CA3745;" d="M12.279,14.232l-1.417,0.927H8.858v0.265H8.192v0.386h0.666v0.265h2.003l1.417,0.932h2.509
							l1.412-0.932h2.008V15.81h0.666v-0.386h-0.666v-0.265H16.2l-1.412-0.927H12.279z M12.309,14.367h2.444l1.297,0.851v0.13h1.447
							v0.541H16.05v0.13l-1.297,0.846h-2.444l-1.292-0.846v-0.13H9.564v-0.541h1.452v-0.13L12.309,14.367z"/>
						<path style="fill:#CA3745;" d="M14.743,14.409l1.265,0.831v0.147h1.45v0.461h-1.45v0.147l-1.265,0.831h-2.421l-1.265-0.831
							v-0.147h-1.45v-0.461h1.45V15.24l1.265-0.831H14.743z"/>
						<g>
							<path style="fill:#383739;" d="M11.693,16.09l0.548,0.411l0.36-0.271l-0.209-0.157l-0.151,0.113l-0.129-0.097l2.063-1.549
								h-0.419L11.693,16.09z M12.889,16.695h0.419l2.063-1.549l-0.548-0.411l-0.36,0.271l0.209,0.157l0.151-0.113l0.129,0.097
								L12.889,16.695z M13.756,16.695h0.419l-2.063-1.549l0.129-0.097l0.151,0.113l0.209-0.157l-0.36-0.271l-0.548,0.411
								L13.756,16.695z M14.952,16.09l-0.129,0.097l-0.151-0.113l-0.209,0.157l0.36,0.271l0.548-0.411l-2.063-1.549h-0.419
								L14.952,16.09z"/>
							<path style="fill:#383739;" d="M11.278,15.618l0.368,0.245l0.368-0.245l-0.368-0.245L11.278,15.618z"/>
							<path style="fill:#383739;" d="M13.164,15.618l0.368,0.245l0.368-0.245l-0.368-0.245L13.164,15.618z"/>
							<path style="fill:#383739;" d="M15.786,15.618l-0.368,0.245l-0.368-0.245l0.368-0.245L15.786,15.618z"/>
							<path style="fill:#FAAE29;" d="M15.303,16.09l-0.48,0.361l-0.293-0.22l0.142-0.107l0.151,0.113l0.196-0.147l-2.009-1.508
								h0.284L15.303,16.09z M14.054,16.654H13.77l-2.009-1.508l0.48-0.361l0.293,0.22l-0.142,0.107l-0.151-0.113l-0.196,0.147
								L14.054,16.654z M13.294,16.654h-0.284l2.009-1.508l-0.196-0.147l-0.151,0.113l-0.142-0.107l0.293-0.22l0.48,0.361
								L13.294,16.654z M13.77,14.581h0.284l-2.009,1.508l0.196,0.147l0.151-0.113l0.142,0.107l-0.293,0.22l-0.48-0.361
								L13.77,14.581z"/>
							<path style="fill:#28AE66;" d="M11.647,15.422l0.295,0.196l-0.295,0.196l-0.295-0.196L11.647,15.422z"/>
							<path style="fill:#28AE66;" d="M13.532,15.422l0.295,0.196l-0.295,0.196l-0.295-0.196L13.532,15.422z"/>
							<path style="fill:#28AE66;" d="M15.418,15.422l-0.295,0.196l0.295,0.196l0.295-0.196L15.418,15.422z"/>
						</g>
					</g>
					<g id="carp3">
						<g>
							<path style="fill:#383739;" d="M7.057,25.881l-0.144,0.204l0.259,0.198l-0.259,0.198l0.144,0.204l0.301,0.035l0.291-0.225
								l0.726,0.461v-0.383l-0.457-0.29l0.457-0.29V25.61l-0.726,0.461l-0.291-0.225L7.057,25.881z"/>
							<path style="fill:#383739;" d="M7.057,24.55l-0.144,0.204l0.259,0.198L6.912,25.15l0.144,0.204l0.301,0.035l0.291-0.225
								l0.726,0.461v-0.383l-0.457-0.29l0.457-0.29v-0.383L7.649,24.74l-0.291-0.225L7.057,24.55z"/>
							<path style="fill:#383739;" d="M7.057,28.017l-0.144-0.204l0.259-0.198l-0.259-0.198l0.144-0.204l0.301-0.035l0.291,0.225
								l0.726-0.461v0.383l-0.457,0.29l0.457,0.29v0.383l-0.726-0.461l-0.291,0.225L7.057,28.017z"/>
							<path style="fill:#383739;" d="M20.008,25.881l0.144,0.204l-0.259,0.198l0.259,0.198l-0.144,0.204l-0.301,0.035l-0.291-0.225
								l-0.726,0.461v-0.383l0.457-0.29l-0.457-0.29V25.61l0.726,0.461l0.291-0.225L20.008,25.881z"/>
							<path style="fill:#383739;" d="M20.008,24.55l0.144,0.204l-0.259,0.198l0.259,0.198l-0.144,0.204l-0.301,0.035l-0.291-0.225
								l-0.726,0.461v-0.383l0.457-0.29l-0.457-0.29v-0.383l0.726,0.461l0.291-0.225L20.008,24.55z"/>
							<path style="fill:#383739;" d="M20.008,28.017l0.144-0.204l-0.259-0.198l0.259-0.198l-0.144-0.204l-0.301-0.035l-0.291,0.225
								l-0.726-0.461v0.383l0.457,0.29l-0.457,0.29v0.383l0.726-0.461l0.291,0.225L20.008,28.017z"/>
							<path style="fill:#383739;" d="M17.1,22.248v0.554h0.403v0.245h0.396v-0.446h-0.353v-0.353H17.1z"/>
							<path style="fill:#383739;" d="M18.287,23.122v0.554h0.402v0.245h0.396v-0.446h-0.353v-0.353H18.287L18.287,23.122z"/>
							<path style="fill:#383739;" d="M9.965,22.248v0.554H9.562v0.245H9.166v-0.446h0.353v-0.353H9.965z"/>
							<path style="fill:#383739;" d="M17.1,30.319v-0.554h0.403v-0.245h0.396v0.446h-0.353v0.353H17.1z"/>
							<path style="fill:#383739;" d="M9.965,30.319v-0.554H9.562v-0.245H9.166v0.446h0.353v0.353H9.965z"/>
							<path style="fill:#383739;" d="M18.287,29.446v-0.554h0.402v-0.245h0.396v0.446h-0.353v0.353H18.287L18.287,29.446z"/>
							<path style="fill:#383739;" d="M8.777,23.122v0.554H8.375v0.245H7.979v-0.446h0.353v-0.353H8.777L8.777,23.122z"/>
							<path style="fill:#383739;" d="M8.777,29.446v-0.554H8.375v-0.245H7.979v0.446h0.353v0.353H8.777L8.777,29.446z"/>
							<path style="fill:#383739;" d="M15.022,22.235c-0.026-0.025-0.307-0.298-0.307-0.298l-0.302,0.28c0,0,0.237,0.23,0.263,0.255
								l-0.34,0.33h0.504l0.181-0.176l0.181,0.176h0.504l-0.34-0.33c0.027-0.026,0.263-0.255,0.263-0.255l-0.302-0.28
								C15.227,22.036,15.124,22.136,15.022,22.235L15.022,22.235z"/>
							<path style="fill:#383739;" d="M13.532,22.235c-0.026-0.025-0.307-0.298-0.307-0.298l-0.302,0.28c0,0,0.237,0.23,0.263,0.255
								l-0.34,0.33h0.504l0.181-0.176l0.181,0.176h0.504l-0.34-0.33c0.027-0.026,0.263-0.255,0.263-0.255l-0.302-0.28
								C13.737,22.036,13.635,22.136,13.532,22.235L13.532,22.235z"/>
							<path style="fill:#383739;" d="M12.043,22.235c0.026-0.025,0.307-0.298,0.307-0.298l0.302,0.28c0,0-0.237,0.23-0.263,0.255
								l0.34,0.33h-0.504l-0.181-0.176l-0.181,0.176h-0.504l0.34-0.33c-0.027-0.026-0.263-0.255-0.263-0.255l0.302-0.28
								C11.838,22.036,11.94,22.136,12.043,22.235L12.043,22.235z"/>
							<path style="fill:#383739;" d="M15.022,30.332c-0.026,0.025-0.307,0.298-0.307,0.298l-0.302-0.28c0,0,0.237-0.23,0.263-0.255
								l-0.34-0.33h0.504l0.181,0.176l0.181-0.176h0.504l-0.34,0.33c0.027,0.026,0.263,0.255,0.263,0.255l-0.302,0.28
								C15.227,30.531,15.124,30.431,15.022,30.332L15.022,30.332z"/>
							<path style="fill:#383739;" d="M13.532,30.332c-0.026,0.025-0.307,0.298-0.307,0.298l-0.302-0.28c0,0,0.237-0.23,0.263-0.255
								l-0.34-0.33h0.504l0.181,0.176l0.181-0.176h0.504l-0.34,0.33c0.027,0.026,0.263,0.255,0.263,0.255l-0.302,0.28
								C13.737,30.531,13.635,30.431,13.532,30.332L13.532,30.332z"/>
							<path style="fill:#383739;" d="M12.043,30.332c0.026,0.025,0.307,0.298,0.307,0.298l0.302-0.28c0,0-0.237-0.23-0.263-0.255
								l0.34-0.33h-0.504l-0.181,0.176l-0.181-0.176h-0.504l0.34,0.33c-0.027,0.026-0.263,0.255-0.263,0.255l0.302,0.28
								C11.838,30.531,11.94,30.431,12.043,30.332L12.043,30.332z"/>
						</g>
						<g>
							<path style="fill:#28AE66;" d="M8.334,26.596v0.287l-0.688-0.437l-0.301,0.232l-0.266-0.031L6.968,26.49l0.27-0.207
								l-0.27-0.207l0.111-0.158l0.266-0.031l0.301,0.232l0.688-0.437v0.287l-0.492,0.313L8.334,26.596z"/>
							<path style="fill:#28AE66;" d="M8.334,25.265v0.287l-0.688-0.437l-0.301,0.232l-0.266-0.031l-0.111-0.158l0.27-0.207
								l-0.27-0.206l0.111-0.158l0.266-0.031l0.301,0.232l0.688-0.437v0.287l-0.492,0.313L8.334,25.265z"/>
							<path style="fill:#28AE66;" d="M8.334,27.302v-0.287l-0.688,0.437L7.346,27.22l-0.266,0.031l-0.111,0.158l0.27,0.207
								l-0.27,0.207l0.111,0.158l0.266,0.031l0.301-0.232l0.688,0.437v-0.287l-0.492-0.313L8.334,27.302z"/>
							<path style="fill:#28AE66;" d="M18.73,26.596v0.287l0.688-0.437l0.301,0.232l0.266-0.031l0.111-0.158l-0.27-0.207l0.27-0.207
								l-0.111-0.158l-0.266-0.031l-0.301,0.232l-0.688-0.437v0.287l0.492,0.313L18.73,26.596z"/>
							<path style="fill:#28AE66;" d="M18.73,25.265v0.287l0.688-0.437l0.301,0.232l0.266-0.031l0.111-0.158l-0.27-0.207l0.27-0.206
								l-0.111-0.158l-0.266-0.031l-0.301,0.232l-0.688-0.437v0.287l0.492,0.313L18.73,25.265z"/>
							<path style="fill:#28AE66;" d="M18.73,27.302v-0.287l0.688,0.437l0.301-0.232l0.266,0.031l0.111,0.158l-0.27,0.207
								l0.27,0.207l-0.111,0.158l-0.266,0.031l-0.301-0.232l-0.688,0.437v-0.287l0.492-0.313L18.73,27.302z"/>
							<path style="fill:#28AE66;" d="M17.505,22.289v0.353h0.353v0.365h-0.315v-0.245H17.14v-0.473H17.505L17.505,22.289z"/>
							<path style="fill:#28AE66;" d="M18.692,23.162v0.353h0.353v0.365H18.73v-0.245h-0.403v-0.473H18.692z"/>
							<path style="fill:#28AE66;" d="M9.56,22.289v0.353H9.207v0.365h0.315v-0.245h0.403v-0.473H9.56L9.56,22.289z"/>
							<path style="fill:#28AE66;" d="M17.505,30.278v-0.353h0.353v-0.365h-0.315v0.245H17.14v0.473L17.505,30.278L17.505,30.278z"
								/>
							<path style="fill:#28AE66;" d="M9.56,30.278v-0.353H9.207v-0.365h0.315v0.245h0.403v0.473L9.56,30.278L9.56,30.278z"/>
							<path style="fill:#28AE66;" d="M18.692,29.405v-0.353h0.353v-0.365H18.73v0.245h-0.403v0.473L18.692,29.405L18.692,29.405z"
								/>
							<path style="fill:#28AE66;" d="M8.372,23.162v0.353H8.02v0.365h0.315v-0.245h0.403v-0.473H8.372z"/>
							<path style="fill:#28AE66;" d="M8.372,29.405v-0.353H8.02v-0.365h0.315v0.245h0.403v0.473L8.372,29.405L8.372,29.405z"/>
							<path style="fill:#28AE66;" d="M14.714,21.993c0.025,0.024,0.308,0.299,0.308,0.299s0.283-0.275,0.308-0.299
								c0.024,0.022,0.216,0.2,0.242,0.225c-0.027,0.026-0.263,0.255-0.263,0.255l0.298,0.289H15.22l-0.198-0.192l-0.198,0.192
								h-0.388l0.298-0.289c0,0-0.235-0.228-0.263-0.255C14.498,22.193,14.69,22.015,14.714,21.993L14.714,21.993z"/>
							<path style="fill:#28AE66;" d="M13.224,21.993c0.025,0.024,0.308,0.299,0.308,0.299s0.283-0.275,0.308-0.299
								c0.024,0.022,0.216,0.2,0.242,0.225c-0.027,0.026-0.262,0.255-0.262,0.255l0.298,0.289H13.73l-0.198-0.192l-0.198,0.192
								h-0.388l0.298-0.289c0,0-0.235-0.228-0.262-0.255C13.008,22.193,13.2,22.015,13.224,21.993z"/>
							<path style="fill:#28AE66;" d="M12.351,21.993c-0.025,0.024-0.308,0.299-0.308,0.299s-0.283-0.275-0.308-0.299
								c-0.024,0.022-0.216,0.2-0.242,0.225c0.027,0.026,0.263,0.255,0.263,0.255l-0.298,0.289h0.388l0.198-0.192l0.198,0.192h0.388
								l-0.298-0.289c0,0,0.235-0.228,0.263-0.255C12.567,22.193,12.374,22.015,12.351,21.993z"/>
							<path style="fill:#28AE66;" d="M14.714,30.574c0.025-0.024,0.308-0.299,0.308-0.299s0.283,0.275,0.308,0.299
								c0.024-0.022,0.216-0.2,0.242-0.225c-0.027-0.026-0.263-0.255-0.263-0.255l0.298-0.289H15.22l-0.198,0.192l-0.198-0.192
								h-0.388l0.298,0.289c0,0-0.235,0.228-0.263,0.255C14.498,30.374,14.69,30.552,14.714,30.574L14.714,30.574z"/>
							<path style="fill:#28AE66;" d="M13.224,30.574c0.025-0.024,0.308-0.299,0.308-0.299s0.283,0.275,0.308,0.299
								c0.024-0.022,0.216-0.2,0.242-0.225c-0.027-0.026-0.262-0.255-0.262-0.255l0.298-0.289H13.73l-0.198,0.192l-0.198-0.192
								h-0.388l0.298,0.289c0,0-0.235,0.228-0.262,0.255C13.008,30.374,13.2,30.552,13.224,30.574z"/>
							<path style="fill:#28AE66;" d="M12.351,30.574c-0.025-0.024-0.308-0.299-0.308-0.299s-0.283,0.275-0.308,0.299
								c-0.024-0.022-0.216-0.2-0.242-0.225c0.027-0.026,0.263-0.255,0.263-0.255l-0.298-0.289h0.388l0.198,0.192l0.198-0.192h0.388
								l-0.298,0.289c0,0,0.235,0.228,0.263,0.255C12.567,30.374,12.374,30.552,12.351,30.574z"/>
						</g>
						<path style="fill:#383739;" d="M9.521,28.933v0.873h8.022v-0.873h1.187v-5.298h-1.187v-0.873H9.521v0.873H8.334v5.298H9.521z"
							/>
						<path style="fill:#CA3745;" d="M9.564,22.801v0.872H8.377v5.219h1.187v0.872h7.938v-0.872h1.187v-5.219h-1.187v-0.872
							L9.564,22.801L9.564,22.801z M10.075,23.137h6.916v0.841l0.285,0.21h1.077v4.192h-1.082l-0.28,0.205v0.846h-6.916v-0.841
							l-0.285-0.21H8.708v-4.192h1.077l0.29-0.21L10.075,23.137L10.075,23.137z"/>
						<path style="fill:#CA3745;" d="M10.115,23.177v0.771l1.042-0.771H10.115z M15.905,23.177l1.042,0.771v-0.771H15.905z
							 M8.753,24.229v0.721l0.982-0.721H8.753L8.753,24.229z M17.327,24.229l0.987,0.726v-0.726H17.327z M18.314,27.609
							l-0.987,0.731h0.987V27.609z M8.753,27.614v0.726h0.982L8.753,27.614z M10.115,28.621v0.766h1.037L10.115,28.621z
							 M16.946,28.621l-1.037,0.766h1.037V28.621z"/>
						<path style="fill:#28AE66;" d="M15.837,23.178c0.011,0.008,2.46,1.817,2.476,1.829v2.554
							c-0.016,0.012-2.466,1.821-2.476,1.829h-4.611c-0.011-0.008-2.46-1.817-2.476-1.829v-2.554
							c0.016-0.012,2.466-1.821,2.476-1.829H15.837L15.837,23.178z"/>
						<path style="fill:#383739;" d="M9.34,27.855l-0.285-0.33l0.267-0.31l-0.267-0.31l0.267-0.31l-0.267-0.31l0.267-0.31
							l-0.267-0.31l0.267-0.31l-0.267-0.31l0.285-0.33h8.384l0.285,0.33l-0.267,0.31l0.267,0.31l-0.267,0.31l0.267,0.31l-0.267,0.31
							l0.267,0.31l-0.267,0.31l0.267,0.31l-0.285,0.33H9.34z M15.103,23.577l-0.33-0.285l-0.31,0.267l-0.31-0.267l-0.31,0.267
							l-0.31-0.267l-0.31,0.267l-0.31-0.267l-0.31,0.267l-0.31-0.267l-0.33,0.285v5.413l0.33,0.285l0.31-0.267l0.31,0.267
							l0.31-0.267l0.31,0.267l0.31-0.267l0.31,0.267l0.31-0.267l0.31,0.267l0.33-0.285V23.577z"/>
						<g>
							<path style="fill:#FAAE29;" d="M14.442,23.596l-0.29-0.25l-0.29,0.25v5.376l0.29,0.25l0.29-0.25V23.596z"/>
							<path style="fill:#FAAE29;" d="M13.202,23.596l-0.29-0.25l-0.29,0.25v5.376l0.29,0.25l0.29-0.25V23.596z"/>
							<path style="fill:#FAAE29;" d="M9.359,27.814l-0.25-0.29l0.25-0.29h8.346l0.25,0.29l-0.25,0.29H9.359z"/>
							<path style="fill:#FAAE29;" d="M17.705,25.994l0.25,0.29l-0.25,0.29H9.359l-0.25-0.29l0.25-0.29H17.705z"/>
							<path style="fill:#FAAE29;" d="M17.705,25.333l0.25-0.29l-0.25-0.29H9.359l-0.25,0.29l0.25,0.29H17.705z"/>
						</g>
						<g>
							<path style="fill:#CA3745;" d="M15.063,23.596l-0.29-0.25l-0.29,0.25v5.376l0.29,0.25l0.29-0.25L15.063,23.596z"/>
							<path style="fill:#CA3745;" d="M12.581,23.596l-0.29-0.25l-0.29,0.25v5.376l0.29,0.25l0.29-0.25V23.596z"/>
							<path style="fill:#CA3745;" d="M9.359,27.194l-0.25-0.29l0.25-0.29h8.346l0.25,0.29l-0.25,0.29H9.359z"/>
							<path style="fill:#CA3745;" d="M9.359,25.953l-0.25-0.29l0.25-0.29h8.346l0.25,0.29l-0.25,0.29H9.359z"/>
							<path style="fill:#CA3745;" d="M13.822,28.971l-0.29,0.25l-0.29-0.25v-5.376l0.29-0.25l0.29,0.25V28.971z"/>
						</g>
						<path style="fill:#383739;" d="M16.334,23.701H10.71v0.447H9.991v4.273h0.719v0.447h5.645V28.42h0.719v-4.273h-0.719v-0.447
							H16.334z"/>
						<path style="fill:#CA3745;" d="M10.751,23.743v0.446H10.03v4.192h0.721v0.446h0.591l-1.177-0.987v-3.11l1.177-0.987
							L10.751,23.743L10.751,23.743z M15.724,23.743l1.172,0.987v3.11l-1.172,0.987h0.591v-0.446h0.716v-4.192h-0.716v-0.446H15.724
							L15.724,23.743z"/>
						<g>
							<path style="fill:#28AE66;" d="M11.407,23.743c-0.011,0.009-1.188,0.995-1.202,1.007v3.07
								c0.014,0.012,1.191,0.997,1.202,1.007h4.252c0.011-0.009,1.183-0.995,1.197-1.007v-3.07
								c-0.014-0.012-1.186-0.997-1.197-1.007L11.407,23.743z M11.467,23.913h4.127l1.092,0.917v2.91l-1.092,0.912h-4.127
								l-1.087-0.912v-2.91L11.467,23.913z"/>
							<path style="fill:#28AE66;" d="M12.56,27.785l0.185,0.08l0.034,0.216l-0.233,0.205l0.338,0.327h-0.325l-0.232-0.224
								l-0.232,0.224h-0.325l0.338-0.327l-0.233-0.205l0.034-0.216l0.185-0.08l0.234,0.187l0.013-0.01L12.56,27.785z"/>
							<path style="fill:#28AE66;" d="M13.766,27.785l0.185,0.08l0.034,0.216l-0.233,0.205l0.338,0.327h-0.325l-0.232-0.224
								L13.3,28.612h-0.325l0.338-0.327l-0.233-0.205l0.034-0.216l0.185-0.08l0.233,0.187l0.013-0.01L13.766,27.785z"/>
							<path style="fill:#28AE66;" d="M14.504,27.785l-0.185,0.08l-0.034,0.216l0.233,0.205l-0.338,0.327h0.325l0.232-0.224
								l0.232,0.224h0.325l-0.338-0.327l0.233-0.205l-0.034-0.216l-0.185-0.08l-0.233,0.187l-0.013-0.01L14.504,27.785z"/>
							<path style="fill:#28AE66;" d="M12.56,24.782l0.185-0.08l0.034-0.216l-0.233-0.205l0.338-0.327h-0.325l-0.232,0.224
								l-0.232-0.224h-0.325l0.338,0.327l-0.233,0.205l0.034,0.216l0.185,0.08l0.234-0.187l0.013,0.01L12.56,24.782z"/>
							<path style="fill:#28AE66;" d="M13.766,24.782l0.185-0.08l0.034-0.216l-0.233-0.205l0.338-0.327h-0.325l-0.232,0.224
								L13.3,23.955h-0.325l0.338,0.327l-0.233,0.205l0.034,0.216l0.185,0.08l0.233-0.187l0.013,0.01L13.766,24.782z"/>
							<path style="fill:#28AE66;" d="M14.504,24.782l-0.185-0.08l-0.034-0.216l0.233-0.205l-0.338-0.327h0.325l0.232,0.224
								l0.232-0.224h0.325l-0.338,0.327l0.233,0.205l-0.034,0.216l-0.185,0.08l-0.233-0.187l-0.013,0.01L14.504,24.782z"/>
							<path style="fill:#28AE66;" d="M16.643,25.126l-0.184,0.153l0.184,0.153v0.253l-0.284-0.234c0,0-0.191,0.173-0.204,0.184
								c-0.016-0.002-0.2-0.025-0.218-0.027c-0.008-0.015-0.065-0.121-0.077-0.142c0.019-0.019,0.188-0.187,0.188-0.187
								s-0.169-0.168-0.188-0.187c0.011-0.021,0.069-0.127,0.077-0.142c0.018-0.002,0.202-0.025,0.218-0.027
								c0.013,0.012,0.204,0.184,0.204,0.184l0.284-0.234V25.126z"/>
							<path style="fill:#28AE66;" d="M16.643,26.131l-0.184,0.153l0.184,0.153v0.253l-0.284-0.234c0,0-0.191,0.173-0.204,0.184
								c-0.016-0.002-0.2-0.025-0.218-0.027c-0.008-0.015-0.065-0.121-0.077-0.142c0.019-0.019,0.188-0.187,0.188-0.187
								s-0.169-0.168-0.188-0.187c0.011-0.021,0.069-0.127,0.077-0.142c0.018-0.002,0.202-0.025,0.218-0.027
								c0.013,0.012,0.204,0.184,0.204,0.184l0.284-0.234V26.131L16.643,26.131z"/>
							<path style="fill:#28AE66;" d="M16.643,27.441l-0.184-0.153l0.184-0.153v-0.253l-0.284,0.234c0,0-0.191-0.173-0.204-0.184
								c-0.016,0.002-0.2,0.025-0.218,0.027c-0.008,0.015-0.065,0.121-0.077,0.142c0.019,0.019,0.188,0.187,0.188,0.187
								s-0.169,0.168-0.188,0.187c0.011,0.021,0.069,0.127,0.077,0.142c0.018,0.002,0.202,0.025,0.218,0.027
								c0.013-0.012,0.204-0.184,0.204-0.184l0.284,0.234V27.441z"/>
							<path style="fill:#28AE66;" d="M10.421,25.126l0.184,0.153l-0.184,0.153v0.253l0.284-0.234c0,0,0.191,0.173,0.204,0.184
								c0.016-0.002,0.2-0.025,0.218-0.027c0.008-0.015,0.065-0.121,0.077-0.142c-0.019-0.019-0.188-0.187-0.188-0.187
								s0.169-0.168,0.188-0.187c-0.011-0.021-0.069-0.127-0.077-0.142c-0.018-0.002-0.202-0.025-0.218-0.027
								c-0.013,0.012-0.204,0.184-0.204,0.184l-0.284-0.234V25.126z"/>
							<path style="fill:#28AE66;" d="M10.421,26.131l0.184,0.153l-0.184,0.153v0.253l0.284-0.234c0,0,0.191,0.173,0.204,0.184
								c0.016-0.002,0.2-0.025,0.218-0.027c0.008-0.015,0.065-0.121,0.077-0.142c-0.019-0.019-0.188-0.187-0.188-0.187
								s0.169-0.168,0.188-0.187c-0.011-0.021-0.069-0.127-0.077-0.142c-0.018-0.002-0.202-0.025-0.218-0.027
								c-0.013,0.012-0.204,0.184-0.204,0.184l-0.284-0.234V26.131L10.421,26.131z"/>
							<path style="fill:#28AE66;" d="M10.421,27.441l0.184-0.153l-0.184-0.153v-0.253l0.284,0.234c0,0,0.191-0.173,0.204-0.184
								c0.016,0.002,0.2,0.025,0.218,0.027c0.008,0.015,0.065,0.121,0.077,0.142c-0.019,0.019-0.188,0.187-0.188,0.187
								s0.169,0.168,0.188,0.187c-0.011,0.021-0.069,0.127-0.077,0.142c-0.018,0.002-0.202,0.025-0.218,0.027
								c-0.013-0.012-0.204-0.184-0.204-0.184l-0.284,0.234V27.441z"/>
						</g>
						<path style="fill:#CA3745;" d="M11.482,23.953c-0.011,0.009-1.002,0.839-1.047,0.876c0.089,0.074,0.176,0.152,0.265,0.225
							c0.023-0.021,0.195-0.175,0.195-0.175l0.255,0.035l0.1,0.185c0,0-0.156,0.156-0.18,0.18c0.025,0.024,0.18,0.18,0.18,0.18
							l-0.1,0.185l-0.255,0.03c0,0-0.173-0.15-0.195-0.17l-0.28,0.235v0.08c0.094,0.078,0.186,0.157,0.28,0.235
							c0.023-0.02,0.195-0.17,0.195-0.17l0.255,0.03l0.1,0.185c0,0-0.156,0.156-0.18,0.18c0.025,0.024,0.18,0.18,0.18,0.18
							l-0.1,0.19l-0.255,0.03c0,0-0.173-0.155-0.195-0.175l-0.28,0.235v0.085l0.28,0.235c0.023-0.02,0.195-0.175,0.195-0.175
							l0.255,0.035l0.1,0.185c0,0-0.156,0.156-0.18,0.18c0.025,0.024,0.18,0.18,0.18,0.18l-0.1,0.185l-0.255,0.035
							c0,0-0.173-0.155-0.195-0.175c-0.089,0.073-0.176,0.147-0.265,0.22c0.044,0.037,1.036,0.867,1.047,0.876h0.23l0.336-0.326
							l-0.215-0.19l0.04-0.26l0.225-0.095l0.23,0.18l0.225-0.18l0.225,0.095l0.045,0.26l-0.22,0.19l0.326,0.311l0.326-0.311
							l-0.22-0.19l0.04-0.26l0.23-0.095l0.225,0.18l0.23-0.18l0.225,0.095l0.04,0.26l-0.215,0.19l0.321,0.316l0.326-0.316
							l-0.215-0.19l0.04-0.26l0.23-0.095l0.225,0.18l0.225-0.18l0.23,0.095l0.04,0.26l-0.215,0.19l0.336,0.326h0.225
							c0.011-0.009,1.002-0.839,1.047-0.876c-0.089-0.073-0.176-0.147-0.265-0.22c-0.023,0.021-0.19,0.175-0.19,0.175l-0.255-0.035
							l-0.105-0.185c0,0,0.156-0.156,0.18-0.18c-0.024-0.024-0.18-0.18-0.18-0.18l0.105-0.185l0.255-0.035
							c0,0,0.168,0.155,0.19,0.175l0.28-0.235v-0.085l-0.28-0.235c-0.023,0.021-0.19,0.175-0.19,0.175l-0.255-0.03l-0.105-0.19
							c0,0,0.156-0.156,0.18-0.18c-0.024-0.024-0.18-0.18-0.18-0.18l0.105-0.185l0.255-0.03c0,0,0.168,0.15,0.19,0.17
							c0.094-0.077,0.187-0.153,0.28-0.23v-0.09l-0.28-0.23c-0.023,0.021-0.19,0.17-0.19,0.17l-0.255-0.03l-0.105-0.185
							c0,0,0.156-0.156,0.18-0.18c-0.024-0.024-0.18-0.18-0.18-0.18l0.105-0.185l0.255-0.035c0,0,0.168,0.155,0.19,0.175
							c0.09-0.074,0.181-0.146,0.27-0.22c-0.034-0.029-1.041-0.872-1.052-0.881h-0.225l-0.336,0.326l0.215,0.19l-0.04,0.26
							l-0.23,0.1l-0.225-0.18l-0.225,0.18l-0.23-0.1l-0.04-0.26l0.215-0.19l-0.321-0.311l-0.326,0.311l0.215,0.19l-0.04,0.26
							l-0.225,0.1l-0.23-0.18l-0.225,0.18l-0.23-0.1l-0.04-0.26l0.22-0.19l-0.326-0.311l-0.326,0.311l0.22,0.19l-0.045,0.26
							l-0.225,0.1l-0.225-0.18l-0.23,0.18l-0.225-0.1l-0.04-0.26l0.215-0.19l-0.341-0.326L11.482,23.953z M10.421,26.182v0.205
							l0.12-0.105L10.421,26.182z"/>
						<g>
							<path style="fill:#FFFFFF;" d="M12.329,28.446l-0.175,0.165h0.346L12.329,28.446z"/>
							<path style="fill:#FFFFFF;" d="M13.531,28.446l-0.17,0.165h0.346L13.531,28.446z"/>
							<path style="fill:#FFFFFF;" d="M14.738,28.446l-0.175,0.165h0.351L14.738,28.446L14.738,28.446z"/>
							<path style="fill:#FFFFFF;" d="M12.148,23.953l0.18,0.17l0.175-0.17H12.148z"/>
							<path style="fill:#FFFFFF;" d="M13.355,23.953l0.175,0.17l0.18-0.17H13.355z"/>
							<path style="fill:#FFFFFF;" d="M14.563,23.953l0.175,0.17l0.175-0.17H14.563L14.563,23.953z"/>
							<path style="fill:#FFFFFF;" d="M16.641,25.18l-0.12,0.1l0.12,0.095V25.18z"/>
							<path style="fill:#FFFFFF;" d="M16.641,26.182l-0.12,0.1l0.12,0.1V26.182z"/>
							<path style="fill:#FFFFFF;" d="M16.641,27.189l-0.12,0.1l0.12,0.1V27.189z"/>
							<path style="fill:#FFFFFF;" d="M10.421,25.175v0.205l0.12-0.1L10.421,25.175z"/>
							<path style="fill:#FFFFFF;" d="M10.421,26.182v0.205l0.12-0.105L10.421,26.182z"/>
							<path style="fill:#FFFFFF;" d="M10.421,27.184v0.205l0.12-0.1L10.421,27.184z"/>
						</g>
						<g>
							<path style="fill:#383739;" d="M14.563,25.948V25.59H14.2v-0.393h-1.336v0.393h-0.363v0.359H12v0.671h0.501v0.358h0.363
								v0.393H14.2v-0.393h0.363v-0.358h0.501v-0.671H14.563z"/>
							<path style="fill:#FAAE29;" d="M13.512,25.237v0.405l-0.574,0.327v0.295h-0.897v-0.275h0.501V25.63h0.363v-0.393H13.512z"/>
							<path style="fill:#FAAE29;" d="M13.552,27.33v-0.405l0.574-0.327v-0.295h0.897v0.275h-0.501v0.359H14.16v0.393L13.552,27.33z
								"/>
							<path style="fill:#FFFFFF;" d="M14.127,26.263v-0.295l-0.574-0.327v-0.405h0.607v0.393h0.363v0.358h0.501v0.275H14.127z"/>
							<path style="fill:#FFFFFF;" d="M12.041,26.304h0.897v0.295l0.574,0.327v0.405h-0.607v-0.393h-0.363v-0.359h-0.501
								L12.041,26.304z"/>
							<path style="fill:#CA3745;" d="M12.978,26.304v0.273l0.534,0.304v-0.577H12.978z"/>
							<path style="fill:#28AE66;" d="M13.512,25.687l-0.534,0.303v0.273h0.534V25.687z"/>
							<path style="fill:#CA3745;" d="M14.086,26.263V25.99l-0.534-0.303v0.577H14.086z"/>
							<path style="fill:#28AE66;" d="M13.552,26.881l0.534-0.304v-0.273h-0.534V26.881z"/>
						</g>
					</g>
					<g id="carp4">
						<path style="fill:#383739;" d="M8.677,33.406v1.108H7.621v1.005h-1.07v2.861h1.07v1.005h1.056v1.108h3.839l0.675,0.406
							l-0.324,0.195h-1.369l-0.118-0.133h1.24l-0.349-0.352h-1.774l0.804,0.837h1.664l0.568-0.342l0.568,0.342h1.664l0.804-0.837
							h-1.774l-0.35,0.352h1.241l-0.118,0.133h-1.369l-0.324-0.195l0.675-0.406h3.839v-1.108h1.056V38.38h1.07v-2.861h-1.07v-1.005
							h-1.056v-1.108h-3.839L13.874,33l0.324-0.195h1.369l0.118,0.133h-1.241l0.35,0.352h1.774l-0.804-0.837h-1.664l-0.568,0.342
							l-0.568-0.342H11.3l-0.804,0.837h1.774l0.349-0.352h-1.24l0.118-0.133h1.369L13.19,33l-0.675,0.406H8.677z"/>
						<path style="fill:#CA3745;" d="M14.537,40.45h3.811v-1.107H19.4v-1.007h1.072v-2.78H19.4v-1.002h-1.052v-1.107h-3.811
							l-1.583-0.957h-1.638l-0.726,0.756h1.663l0.27-0.27h-1.237l0.19-0.215h1.402l1.793,1.082h3.275v1.107h1.057v1.007h1.072v1.983
							h-1.072v1.007h-1.057v1.107h-3.275l-1.793,1.077h-1.402l-0.19-0.21h1.237l-0.27-0.27h-1.663l0.726,0.756h1.638L14.537,40.45z
							 M12.389,40.055H9.113v-1.107H8.062v-1.007H6.99v-1.983h1.072v-1.007h1.052v-1.107h3.275l1.798-1.082h1.397l0.19,0.215h-1.232
							l0.27,0.27h1.663l-0.726-0.756h-1.638l-1.583,0.957H8.718v1.107H7.661v1.002H6.589v2.78h1.072v1.007h1.057v1.107h3.811
							l1.583,0.957h1.638l0.726-0.756h-1.663l-0.27,0.27h1.232l-0.19,0.21h-1.397L12.389,40.055z"/>
						<path style="fill:#FAAE29;" d="M13.531,33.204l-1.132,0.681H9.153v1.107H8.102v1.007H7.03v1.903h1.072v1.007h1.052v1.107
							h3.245l1.132,0.676l1.132-0.676h3.245v-1.107h1.057v-1.007h1.072v-1.903h-1.072v-1.007h-1.057v-1.107h-3.245L13.531,33.204z
							 M13.531,33.484l1.067,0.641h3.075v1.107h1.057v1.002h1.067v1.427h-1.067v1.007h-1.057v1.107h-3.075l-1.067,0.641
							l-1.062-0.641H9.394v-1.107H8.337v-1.007H7.265v-1.427h1.072v-1.002h1.057v-1.107h3.075L13.531,33.484z"/>
						<path style="fill:#28AE66;" d="M17.631,38.628v1.108h-3.045l-1.054,0.633l-1.054-0.633H9.434v-1.108H8.378v-1.005h-1.07
							v-1.347h1.07v-1.005h1.056v-1.108h3.039h0.006l1.054-0.633l1.054,0.633h3.045v1.108h1.056v1.005h1.07v1.347h-1.07v1.005
							H17.631z"/>
						<g>
							<path style="fill:#383739;" d="M9.832,38.24v1.072h1.674l-1.674-1.11V38.24z"/>
							<path style="fill:#383739;" d="M9.832,35.659v-1.072h1.674l-1.674,1.11V35.659z"/>
							<path style="fill:#383739;" d="M17.232,38.24v1.072h-1.674l1.674-1.11V38.24z"/>
							<path style="fill:#383739;" d="M17.232,35.659v-1.072h-1.674l1.674,1.11V35.659z"/>
							<path style="fill:#CA3745;" d="M9.873,38.277l1.499,0.994H9.873V38.277z"/>
							<path style="fill:#CA3745;" d="M9.873,35.621c0.058-0.039,1.397-0.926,1.499-0.994H9.873V35.621z"/>
							<path style="fill:#CA3745;" d="M17.191,38.277c-0.058,0.039-1.397,0.926-1.499,0.994h1.499V38.277z"/>
							<path style="fill:#CA3745;" d="M17.191,35.621c-0.058-0.039-1.397-0.926-1.499-0.994h1.499V35.621z"/>
						</g>
						<g id="carp4y">
							<path style="fill:#383739;" d="M11.967,36.655v-0.548H11.78l-0.896-0.56l-0.011,0.007l-0.885,0.553H9.801v0.548H9.38v0.588
								h0.421v0.548h0.187l0.896,0.56l0.896-0.56h0.187v-0.548h0.641v-0.588H11.967z"/>
							<path style="fill:#CA3745;" d="M10.884,35.595l0.82,0.512h-1.639L10.884,35.595L10.884,35.595z M11.704,37.791l-0.82,0.512
								l-0.819-0.512H11.704L11.704,37.791z"/>
							<path style="fill:#CA3745;" d="M11.505,36.696v0.507h-1.022v-0.507H11.505z"/>
							<g>
								<path style="fill:#FAAE29;" d="M11.926,37.243v0.507h-1.022v-0.507H11.926z"/>
								<path style="fill:#FAAE29;" d="M10.864,37.243v0.507H9.842v-0.507H10.864z"/>
								<path style="fill:#FAAE29;" d="M12.568,36.696v0.507h-1.022v-0.507H12.568z"/>
								<path style="fill:#FAAE29;" d="M10.443,36.696v0.507H9.421v-0.507H10.443z"/>
								<path style="fill:#FAAE29;" d="M11.926,36.148v0.507h-1.022v-0.507H11.926z"/>
								<path style="fill:#FAAE29;" d="M10.864,36.148v0.507H9.842v-0.507H10.864z"/>
							</g>
							<g>
								<path style="fill:#383739;" d="M10.161,36.808v0.282H9.702v-0.282H10.161z"/>
								<path style="fill:#383739;" d="M10.583,36.261v0.282h-0.459v-0.282H10.583z"/>
								<path style="fill:#383739;" d="M11.645,36.261v0.282h-0.459v-0.282H11.645z"/>
								<path style="fill:#383739;" d="M11.224,36.808v0.282h-0.459v-0.282H11.224z"/>
								<path style="fill:#383739;" d="M12.286,36.808v0.282h-0.459v-0.282H12.286z"/>
								<path style="fill:#383739;" d="M11.645,37.356v0.282h-0.459v-0.282H11.645z"/>
								<path style="fill:#383739;" d="M10.583,37.356v0.282h-0.459v-0.282H10.583z"/>
							</g>
							<g>
								<path style="fill:#FFFFFF;" d="M10.118,36.852H9.745v0.195h0.373V36.852z"/>
								<path style="fill:#FFFFFF;" d="M10.539,36.304h-0.373v0.195h0.373V36.304z"/>
								<path style="fill:#FFFFFF;" d="M11.602,36.304h-0.373v0.195h0.373V36.304z"/>
								<path style="fill:#FFFFFF;" d="M11.181,36.852h-0.373v0.195h0.373V36.852z"/>
								<path style="fill:#FFFFFF;" d="M12.243,36.852H11.87v0.195h0.373V36.852z"/>
								<path style="fill:#FFFFFF;" d="M11.602,37.399h-0.373v0.195h0.373V37.399z"/>
								<path style="fill:#FFFFFF;" d="M10.539,37.399h-0.373v0.195h0.373V37.399z"/>
							</g>
						</g>
						<g transform="matrix(-1,0,0,1,377.99506,0)">
							<g id="carp4y_1_">
								<path style="fill:#383739;" d="M15.097,36.655v-0.548h0.187l0.896-0.56l0.011,0.007l0.885,0.553h0.187v0.548h0.421v0.588
									h-0.421v0.548h-0.187l-0.896,0.56l-0.896-0.56h-0.187v-0.548h-0.641v-0.588H15.097z"/>
								<path style="fill:#CA3745;" d="M16.18,35.595l-0.82,0.512H17L16.18,35.595L16.18,35.595z M15.361,37.791l0.82,0.512
									l0.819-0.512H15.361L15.361,37.791z"/>
								<path style="fill:#CA3745;" d="M15.559,36.696v0.507h1.022v-0.507H15.559z"/>
								<g>
									<path style="fill:#FAAE29;" d="M15.138,37.243v0.507h1.022v-0.507H15.138z"/>
									<path style="fill:#FAAE29;" d="M16.2,37.243v0.507h1.022v-0.507H16.2z"/>
									<path style="fill:#FAAE29;" d="M14.496,36.696v0.507h1.022v-0.507H14.496z"/>
									<path style="fill:#FAAE29;" d="M16.622,36.696v0.507h1.022v-0.507H16.622z"/>
									<path style="fill:#FAAE29;" d="M15.138,36.148v0.507h1.022v-0.507H15.138z"/>
									<path style="fill:#FAAE29;" d="M16.2,36.148v0.507h1.022v-0.507H16.2z"/>
								</g>
								<g>
									<path style="fill:#383739;" d="M16.903,36.808v0.282h0.459v-0.282H16.903z"/>
									<path style="fill:#383739;" d="M16.482,36.261v0.282h0.459v-0.282H16.482z"/>
									<path style="fill:#383739;" d="M15.419,36.261v0.282h0.459v-0.282H15.419z"/>
									<path style="fill:#383739;" d="M15.84,36.808v0.282H16.3v-0.282H15.84z"/>
									<path style="fill:#383739;" d="M14.778,36.808v0.282h0.459v-0.282H14.778z"/>
									<path style="fill:#383739;" d="M15.419,37.356v0.282h0.459v-0.282H15.419z"/>
									<path style="fill:#383739;" d="M16.482,37.356v0.282h0.459v-0.282H16.482z"/>
								</g>
								<g>
									<path style="fill:#FFFFFF;" d="M16.946,36.852h0.373v0.195h-0.373V36.852z"/>
									<path style="fill:#FFFFFF;" d="M16.525,36.304h0.373v0.195h-0.373V36.304z"/>
									<path style="fill:#FFFFFF;" d="M15.462,36.304h0.373v0.195h-0.373V36.304z"/>
									<path style="fill:#FFFFFF;" d="M15.884,36.852h0.373v0.195h-0.373V36.852z"/>
									<path style="fill:#FFFFFF;" d="M14.821,36.852h0.373v0.195h-0.373V36.852z"/>
									<path style="fill:#FFFFFF;" d="M15.462,37.399h0.373v0.195h-0.373V37.399z"/>
									<path style="fill:#FFFFFF;" d="M16.525,37.399h0.373v0.195h-0.373V37.399z"/>
								</g>
							</g>
						</g>
						<g id="carp4r">
							<path style="fill:#383739;" d="M14.615,35.741v0.548h-0.187l-0.896,0.56l-0.011-0.007l-0.885-0.554h-0.187v-0.548h-0.531
								v-0.588h0.531v-0.548h0.187l0.896-0.56l0.896,0.56h0.187v0.548h0.531v0.588H14.615z"/>
							<path style="fill:#FAAE29;" d="M13.532,36.801l0.82-0.512h-1.639L13.532,36.801L13.532,36.801z M14.352,34.605l-0.82-0.512
								l-0.819,0.512H14.352L14.352,34.605z"/>
							<g>
								<path style="fill:#CA3745;" d="M14.574,35.152v-0.507h-1.022v0.507H14.574z"/>
								<path style="fill:#CA3745;" d="M13.512,35.152v-0.507H12.49v0.507H13.512z"/>
								<path style="fill:#CA3745;" d="M15.106,35.7v-0.507h-1.022V35.7H15.106z"/>
								<path style="fill:#CA3745;" d="M14.043,35.7v-0.507h-1.022V35.7H14.043z"/>
								<path style="fill:#CA3745;" d="M12.981,35.7v-0.507h-1.022V35.7H12.981z"/>
								<path style="fill:#CA3745;" d="M14.574,36.248v-0.507h-1.022v0.507H14.574z"/>
								<path style="fill:#CA3745;" d="M13.512,36.248v-0.507H12.49v0.507H13.512z"/>
							</g>
							<g>
								<path style="fill:#383739;" d="M13.23,34.758v0.282h-0.459v-0.282H13.23z"/>
								<path style="fill:#383739;" d="M14.293,34.758v0.282h-0.459v-0.282H14.293z"/>
								<path style="fill:#383739;" d="M12.699,35.306v0.282H12.24v-0.282H12.699z"/>
								<path style="fill:#383739;" d="M13.762,35.306v0.282h-0.459v-0.282H13.762z"/>
								<path style="fill:#383739;" d="M14.824,35.306v0.282h-0.459v-0.282H14.824z"/>
								<path style="fill:#383739;" d="M13.23,35.853v0.282h-0.459v-0.282H13.23z"/>
								<path style="fill:#383739;" d="M14.293,35.853v0.282h-0.459v-0.282H14.293z"/>
							</g>
							<g>
								<path style="fill:#FFFFFF;" d="M13.187,34.801h-0.373v0.195h0.373V34.801z"/>
								<path style="fill:#FFFFFF;" d="M14.25,34.801h-0.373v0.195h0.373V34.801z"/>
								<path style="fill:#FFFFFF;" d="M12.656,35.349h-0.373v0.195h0.373V35.349z"/>
								<path style="fill:#FFFFFF;" d="M13.719,35.349h-0.373v0.195h0.373V35.349z"/>
								<path style="fill:#FFFFFF;" d="M14.781,35.349h-0.373v0.195h0.373V35.349z"/>
								<path style="fill:#FFFFFF;" d="M13.187,35.896h-0.373v0.195h0.373V35.896z"/>
								<path style="fill:#FFFFFF;" d="M14.25,35.896h-0.373v0.195h0.373V35.896z"/>
							</g>
						</g>
						<g>
							<g id="carp4r_1_">
								<path style="fill:#383739;" d="M14.615,38.746v0.548h-0.187l-0.896,0.56l-0.011-0.007l-0.885-0.554h-0.187v-0.548h-0.531
									v-0.588h0.531v-0.548h0.187l0.896-0.56l0.896,0.56h0.187v0.548h0.531v0.588H14.615z"/>
								<path style="fill:#FAAE29;" d="M13.532,39.806l0.82-0.512h-1.639L13.532,39.806L13.532,39.806z M14.352,37.611l-0.82-0.512
									l-0.819,0.512H14.352L14.352,37.611z"/>
								<g>
									<path style="fill:#CA3745;" d="M14.574,38.158v-0.507h-1.022v0.507H14.574z"/>
									<path style="fill:#CA3745;" d="M13.512,38.158v-0.507H12.49v0.507H13.512z"/>
									<path style="fill:#CA3745;" d="M15.106,38.706v-0.507h-1.022v0.507H15.106z"/>
									<path style="fill:#CA3745;" d="M14.043,38.706v-0.507h-1.022v0.507H14.043z"/>
									<path style="fill:#CA3745;" d="M12.981,38.706v-0.507h-1.022v0.507H12.981z"/>
									<path style="fill:#CA3745;" d="M14.574,39.253v-0.507h-1.022v0.507H14.574z"/>
									<path style="fill:#CA3745;" d="M13.512,39.253v-0.507H12.49v0.507H13.512z"/>
								</g>
								<g>
									<path style="fill:#383739;" d="M13.23,37.764v0.282h-0.459v-0.282H13.23z"/>
									<path style="fill:#383739;" d="M14.293,37.764v0.282h-0.459v-0.282H14.293z"/>
									<path style="fill:#383739;" d="M12.699,38.311v0.282H12.24v-0.282H12.699z"/>
									<path style="fill:#383739;" d="M13.762,38.311v0.282h-0.459v-0.282H13.762z"/>
									<path style="fill:#383739;" d="M14.824,38.311v0.282h-0.459v-0.282H14.824z"/>
									<path style="fill:#383739;" d="M13.23,38.859v0.282h-0.459v-0.282H13.23z"/>
									<path style="fill:#383739;" d="M14.293,38.859v0.282h-0.459v-0.282H14.293z"/>
								</g>
								<g>
									<path style="fill:#FFFFFF;" d="M13.187,37.807h-0.373v0.195h0.373V37.807z"/>
									<path style="fill:#FFFFFF;" d="M14.25,37.807h-0.373v0.195h0.373V37.807z"/>
									<path style="fill:#FFFFFF;" d="M12.656,38.355h-0.373v0.195h0.373V38.355z"/>
									<path style="fill:#FFFFFF;" d="M13.719,38.355h-0.373v0.195h0.373V38.355z"/>
									<path style="fill:#FFFFFF;" d="M14.781,38.355h-0.373v0.195h0.373V38.355z"/>
									<path style="fill:#FFFFFF;" d="M13.187,38.902h-0.373v0.195h0.373V38.902z"/>
									<path style="fill:#FFFFFF;" d="M14.25,38.902h-0.373v0.195h0.373V38.902z"/>
								</g>
							</g>
						</g>
					</g>
					<g id="carp5">
						<path style="fill:#383739;" d="M7.734,45.285l3.976-2.14h0.005h3.639l3.976,2.14v3.526l-3.976,2.14H11.71l-3.976-2.14
							L7.734,45.285z"/>
						<path style="fill:#28AE66;" d="M11.723,43.185l-3.947,2.124v3.476l3.947,2.124h3.621l3.947-2.124v-3.476l-3.947-2.124H11.723z
							 M11.793,43.471h3.481l3.736,2.008v3.14l-3.736,2.008h-3.483l-3.736-2.008v-3.14L11.793,43.471z"/>
						<path style="fill:#FAAE29;" d="M13.552,47.027v3.559h1.711l3.705-1.994v-1.525l-5.457,0v-3.559h-1.711l-3.705,1.994v1.525
							L13.552,47.027z"/>
						<path style="fill:#FFFFFF;" d="M13.512,47.027v3.559h-1.711l-3.705-1.994v-1.525l5.457,0v-3.559h1.711l3.705,1.994v1.525
							L13.512,47.027z"/>
						<path style="fill:#383739;" d="M13.865,50.387v-1.029l-0.333,0.211l-0.333-0.211v1.029h-1.035l0.698-0.512v-0.73l-1.065-0.676
							h-0.744v-2.844h0.744l1.065-0.676v-0.73l-0.698-0.512h0.062h0.973v1.029l0.333-0.211l0.333,0.211v-1.029h1.035l-0.698,0.512
							v0.73l1.065,0.676h0.744v2.844h-0.744l-1.065,0.676v0.73l0.698,0.512H13.865z"/>
						<path style="fill:#FAAE29;" d="M13.906,43.751v1.062l-0.356-0.225v0.3l1.628,1.037h0.536v1.102h0.255v-1.362h-0.716
							l-1.092-0.691v-0.771l0.616-0.451H13.906z M11.097,47.066v1.362h0.711l1.097,0.696v0.771l-0.616,0.451h0.872v-1.062
							l0.351,0.225V49.2l-1.628-1.027h-0.531v-1.107L11.097,47.066L11.097,47.066z"/>
						<path style="fill:#FFFFFF;" d="M12.289,43.751l0.616,0.451v0.771l-1.097,0.691h-0.711v1.362h0.255v-1.102h0.531l1.628-1.032
							v-0.305l-0.351,0.225v-1.062L12.289,43.751L12.289,43.751z M15.714,47.066v1.107h-0.536L13.551,49.2v0.311l0.356-0.225v1.062
							h0.871l-0.616-0.451v-0.771l1.092-0.696h0.716v-1.362L15.714,47.066L15.714,47.066z"/>
						<path style="fill:#CA3745;" d="M11.391,48.131h0.505l1.637,1.038l1.636-1.038h0.505v-2.167h-0.499h-0.006l-1.636-1.038
							l-1.637,1.038h-0.505L11.391,48.131z"/>
						<path style="fill:#383739;" d="M14.665,47.562h0.349v-0.165h-0.263v-0.301h0.562v0.766h-0.539l0,0.523h-1.109v-0.751h0.488
							v0.301h-0.189v0.15h0.511v-0.287l-2.077-1.265H12.05v0.165h0.263v0.301h-0.562v-0.766h0.539v-0.523h0.02h1.088v0.751H12.91
							V46.16h0.189v-0.15h-0.511v0.287L14.665,47.562z M14.476,46.297V46.01h-0.511v0.15h0.189v0.301h-0.488v-0.751h1.109v0.523
							h0.539v0.766h-0.562v-0.301h0.263v-0.165h-0.349l-2.077,1.265v0.287h0.511v-0.15H12.91v-0.301h0.488v0.751h-1.109v-0.523
							h-0.539v-0.766h0.562v0.301H12.05v0.165h0.349L14.476,46.297z"/>
						<path style="fill:#FFFFFF;" d="M14.516,47.775v0.351h-0.592v-0.231h0.189v-0.22h-0.407v0.67h1.028v-0.523h0.539v-0.685h-0.481
							v0.219h0.263v0.246h-0.401l-2.106-1.283v-0.351h0.592v0.231h-0.189v0.22h0.407v-0.67H12.33v0.523h-0.539v0.685h0.481v-0.22
							h-0.263v-0.246h0.401L14.516,47.775z M14.654,46.492h0.401v0.246h-0.263v0.22h0.481v-0.685h-0.539V45.75h-1.028v0.67h0.407
							v-0.22h-0.189v-0.231h0.592v0.351l-2.106,1.283h-0.401v-0.246h0.263v-0.22h-0.481v0.685h0.539v0.523h1.028v-0.67h-0.407v0.22
							h0.189v0.231h-0.592v-0.351L14.654,46.492z"/>
						<g>
							<path style="fill:#383739;" d="M18.17,47.226v1.112h-0.473v-0.393h-0.477v0.393h-0.473v-1.112h0.473v0.393h0.477v-0.393
								H18.17z"/>
							<path style="fill:#383739;" d="M16.476,48.702v1.112h-0.473v-0.393h-0.477v0.393h-0.473v-1.112h0.473v0.393h0.477v-0.393
								H16.476z"/>
							<path style="fill:#383739;" d="M18.17,46.869v-1.112h-0.473v0.393h-0.477v-0.393h-0.473v1.112h0.473v-0.393h0.477v0.393
								H18.17z"/>
							<path style="fill:#383739;" d="M8.895,47.226v1.112h0.473v-0.393h0.477v0.393h0.473v-1.112H9.845v0.393H9.368v-0.393H8.895z"
								/>
							<path style="fill:#383739;" d="M8.895,46.869v-1.112h0.473v0.393h0.477v-0.393h0.473v1.112H9.845v-0.393H9.368v0.393H8.895z"
								/>
							<path style="fill:#383739;" d="M16.476,45.393v-1.112h-0.473v0.393h-0.477v-0.393h-0.473v1.112h0.473V45h0.477v0.393H16.476z
								"/>
							<path style="fill:#383739;" d="M10.588,48.702v1.112h0.473v-0.393h0.477v0.393h0.473v-1.112h-0.473v0.393h-0.477v-0.393
								H10.588z"/>
							<path style="fill:#383739;" d="M10.588,45.393v-1.112h0.473v0.393h0.477v-0.393h0.473v1.112h-0.473V45h-0.477v0.393H10.588z"
								/>
							<path style="fill:#383739;" d="M16.758,44.613v0.845h1.569L16.758,44.613z"/>
							<path style="fill:#383739;" d="M10.306,49.482v-0.845H8.736L10.306,49.482z"/>
							<path style="fill:#383739;" d="M10.306,44.613v0.845H8.736L10.306,44.613z"/>
							<path style="fill:#383739;" d="M16.758,49.482v-0.845h1.569L16.758,49.482z"/>
						</g>
						<g>
							<path style="fill:#CA3745;" d="M17.737,47.905v0.393h0.392v-1.031h-0.392v0.393h-0.558v-0.393h-0.392v1.031h0.392v-0.393
								H17.737z"/>
							<path style="fill:#CA3745;" d="M16.043,49.381v0.393h0.392v-1.031h-0.392v0.393h-0.558v-0.393h-0.392v1.031h0.392v-0.393
								H16.043z"/>
							<path style="fill:#CA3745;" d="M17.737,46.19v-0.393h0.392v1.031h-0.392v-0.393h-0.558v0.393h-0.392v-1.031h0.392v0.393
								H17.737z"/>
							<path style="fill:#CA3745;" d="M9.327,47.905v0.393H8.935v-1.031h0.392v0.393h0.558v-0.393h0.392v1.031H9.886v-0.393H9.327z"
								/>
							<path style="fill:#CA3745;" d="M9.327,46.19v-0.393H8.935v1.031h0.392v-0.393h0.558v0.393h0.392v-1.031H9.886v0.393H9.327z"
								/>
							<path style="fill:#CA3745;" d="M16.043,44.714v-0.393h0.392v1.031h-0.392v-0.393h-0.558v0.393h-0.392v-1.031h0.392v0.393
								H16.043z"/>
							<path style="fill:#CA3745;" d="M11.021,49.381v0.393h-0.392v-1.031h0.392v0.393h0.558v-0.393h0.392v1.031h-0.392v-0.393
								H11.021z"/>
							<path style="fill:#CA3745;" d="M11.021,44.714v-0.393h-0.392v1.031h0.392v-0.393h0.558v0.393h0.392v-1.031h-0.392v0.393
								H11.021z"/>
						</g>
						<path style="fill:#FAAE29;" d="M16.801,44.682v0.736h1.367L16.801,44.682z M8.898,48.679l1.367,0.736v-0.736H8.898
							L8.898,48.679z"/>
						<path style="fill:#FFFFFF;" d="M10.265,44.682l-1.367,0.736h1.367V44.682z M16.801,48.679v0.736l1.367-0.736H16.801z"/>
					</g>
				</g>
			</g>
		</g>
	</g>
</g>
</svg>
