<?xml version="1.0" encoding="iso-8859-1"?>
<!-- Generator: Adobe Illustrator 18.1.1, SVG Export Plug-In . SVG Version: 6.00 Build 0)  -->
<svg version="1.1" id="Layer_174" xmlns="http://www.w3.org/2000/svg" xmlns:xlink="http://www.w3.org/1999/xlink" x="0px" y="0px"
	 viewBox="0 0 56.692 56.692" style="enable-background:new 0 0 56.692 56.692;" xml:space="preserve">
<g>
	<defs>
		<circle id="SVGID_1_" cx="28.346" cy="28.345" r="28.346"/>
	</defs>
	<clipPath id="SVGID_2_">
		<use xlink:href="#SVGID_1_"  style="overflow:visible;"/>
	</clipPath>
	<rect x="-14.173" y="0" style="clip-path:url(#SVGID_2_);fill:#DC2819;" width="85.039" height="56.693"/>
	<circle style="clip-path:url(#SVGID_2_);fill:#FFFFFF;" cx="28.345" cy="28.347" r="14.458"/>
	<path style="clip-path:url(#SVGID_2_);fill:#DC2819;" d="M31.709,36.787c-4.812,0-8.711-3.898-8.711-8.709
		c0-4.812,3.898-8.711,8.711-8.711c0.369,0,0.729,0.031,1.086,0.074c-1.334-0.688-2.844-1.084-4.449-1.084
		c-5.369,0-9.721,4.351-9.721,9.721c0,5.367,4.352,9.72,9.721,9.72c1.606,0,3.115-0.396,4.449-1.085
		C32.438,36.757,32.079,36.787,31.709,36.787z"/>
	<polygon style="clip-path:url(#SVGID_2_);fill:#DC2819;" points="37.454,24.597 34.496,28.336 37.009,32.123 32.666,30.652 
		29.666,34.121 29.914,29.582 25.469,27.863 30.073,26.607 30.319,22.033 32.854,25.851 	"/>
</g>
</svg>
