<?xml version="1.0" encoding="utf-8"?>
<!-- Generator: Adobe Illustrator 18.1.1, SVG Export Plug-In . SVG Version: 6.00 Build 0)  -->
<!DOCTYPE svg PUBLIC "-//W3C//DTD SVG 1.1//EN" "http://www.w3.org/Graphics/SVG/1.1/DTD/svg11.dtd">
<svg version="1.1" id="Layer_121" xmlns="http://www.w3.org/2000/svg" xmlns:xlink="http://www.w3.org/1999/xlink" x="0px" y="0px"
	 width="56.7px" height="56.7px" viewBox="0 0 56.7 56.7" enable-background="new 0 0 56.7 56.7" xml:space="preserve">
<circle fill="#E30A17" cx="28.3" cy="28.3" r="28.3"/>
<path fill="#FFFFFF" d="M22.8,39.5c-6.4,0-11.7-5-11.7-11.2c0-6.2,5.2-11.2,11.7-11.2c2.8,0,5.4,0.9,7.4,2.5
	c-2.6-3.4-6.7-5.7-11.4-5.7c-7.9,0-14.3,6.4-14.3,14.3c0,7.9,6.4,14.3,14.3,14.3c4.6,0,8.8-2.2,11.4-5.7
	C28.2,38.6,25.6,39.5,22.8,39.5z"/>
<polygon fill="#FFFFFF" points="35.3,21.4 38.4,25.6 43.5,23.9 40.4,28.3 43.4,32.4 38.5,31 35.3,35.1 35.3,29.9 30.2,28.2 
	35.3,26.6 "/>
</svg>
