<?xml version="1.0" encoding="iso-8859-1"?>
<!-- Generator: Adobe Illustrator 18.1.1, SVG Export Plug-In . SVG Version: 6.00 Build 0)  -->
<svg version="1.1" id="Layer_31" xmlns="http://www.w3.org/2000/svg" xmlns:xlink="http://www.w3.org/1999/xlink" x="0px" y="0px"
	 viewBox="0 0 56.692 56.692" style="enable-background:new 0 0 56.692 56.692;" xml:space="preserve">
<g>
	<defs>
		<circle id="SVGID_1_" cx="28.346" cy="28.347" r="28.347"/>
	</defs>
	<clipPath id="SVGID_2_">
		<use xlink:href="#SVGID_1_"  style="overflow:visible;"/>
	</clipPath>
	<rect x="-13.836" y="0.001" style="clip-path:url(#SVGID_2_);fill:#6BA2B9;" width="85.039" height="56.692"/>
	<g style="clip-path:url(#SVGID_2_);">
		<rect x="-14.51" y="0.001" style="fill:#022169;" width="46.52" height="27.835"/>
		<polygon style="fill:#FFFFFF;" points="32.009,0.001 25.785,0.001 13.291,7.614 13.291,0.001 4.027,0.001 4.027,7.611 
			-8.456,0.001 -14.51,0.001 -14.51,3.277 -4.651,9.287 -14.51,9.287 -14.51,18.548 -4.657,18.548 -14.51,24.552 -14.51,27.835 
			-8.467,27.835 4.027,20.222 4.027,27.835 13.291,27.835 13.291,20.224 25.775,27.835 32.009,27.835 32.009,24.67 21.97,18.548 
			32.009,18.548 32.009,9.287 21.976,9.287 32.009,3.173 		"/>
		<g>
			<polygon style="fill:#CF0A2C;" points="1.009,9.287 -14.223,0.001 -14.51,0.001 -14.51,1.966 -2.501,9.287 			"/>
			<polygon style="fill:#CF0A2C;" points="16.392,9.287 31.921,0.001 28.361,0.001 12.833,9.287 			"/>
			<path style="fill:#CF0A2C;" d="M11.515,11.04V0.001H5.976V11.04H-14.51c0,0,0.012,5.478,0.027,5.538l20.459,0.012v11.246h5.539
				V16.589v-0.012h20.494V11.04H11.515z"/>
			<polygon style="fill:#CF0A2C;" points="15.984,18.341 31.556,27.835 32.009,27.835 32.009,25.972 19.496,18.341 			"/>
			<polygon style="fill:#CF0A2C;" points="1.191,18.341 -14.51,27.732 -14.51,27.835 -11.124,27.835 4.751,18.341 			"/>
		</g>
	</g>
	<g style="clip-path:url(#SVGID_2_);">
		<polygon style="fill:#FFCE00;" points="26.304,45.232 27.089,47.547 29.626,47.547 27.568,49.053 28.332,51.348 26.306,49.984 
			24.281,51.348 25.041,49.053 23.001,47.547 25.539,47.547 		"/>
		<polygon style="fill:#FFCE00;" points="55.447,28.882 56.23,31.198 58.769,31.198 56.71,32.704 57.472,34.999 55.449,33.634 
			53.421,34.999 54.183,32.704 52.142,31.198 54.679,31.198 		"/>
		<polygon style="fill:#FFCE00;" points="65.162,22.845 65.947,25.162 68.484,25.162 66.427,26.668 67.189,28.962 65.164,27.598 
			63.138,28.962 63.898,26.668 61.859,25.162 64.396,25.162 		"/>
		<polygon style="fill:#FFCE00;" points="64.093,3.753 64.878,6.068 67.416,6.068 65.359,7.574 66.121,9.869 64.095,8.505 
			62.07,9.869 62.83,7.574 60.791,6.068 63.328,6.068 		"/>
		<polygon style="fill:#FFCE00;" points="36.238,43.842 38.236,45.25 40.287,43.752 39.513,46.182 41.482,47.585 39.042,47.678 
			38.212,49.974 37.474,47.673 34.937,47.662 36.986,46.164 		"/>
		<polygon style="fill:#FFCE00;" points="36.31,27.225 38.306,28.632 40.357,27.134 39.583,29.565 41.554,30.967 39.113,31.061 
			38.283,33.357 37.544,31.056 35.007,31.044 37.056,29.546 		"/>
		<polygon style="fill:#FFCE00;" points="44.619,36.42 46.619,37.828 48.667,36.33 47.894,38.76 49.863,40.162 47.423,40.255 
			46.593,42.552 45.855,40.252 43.318,40.239 45.365,38.742 		"/>
		<polygon style="fill:#FFCE00;" points="44.755,14.587 46.753,15.995 48.804,14.498 48.031,16.928 50.001,18.331 47.56,18.424 
			46.73,20.72 45.99,18.419 43.455,18.408 45.503,16.91 		"/>
		<polygon style="fill:#FFCE00;" points="53.539,10.139 55.539,11.546 57.587,10.048 56.814,12.479 58.783,13.881 56.343,13.974 
			55.513,16.271 54.775,13.97 52.238,13.959 54.287,12.46 		"/>
	</g>
</g>
</svg>
