<?xml version="1.0" encoding="iso-8859-1"?>
<!-- Generator: Adobe Illustrator 18.1.1, SVG Export Plug-In . SVG Version: 6.00 Build 0)  -->
<svg version="1.1" id="Layer_100" xmlns="http://www.w3.org/2000/svg" xmlns:xlink="http://www.w3.org/1999/xlink" x="0px" y="0px"
	 viewBox="0 0 56.692 56.692" style="enable-background:new 0 0 56.692 56.692;" xml:space="preserve">
<g>
	<defs>
		<circle id="SVGID_1_" cx="28.346" cy="28.347" r="28.347"/>
	</defs>
	<clipPath id="SVGID_2_">
		<use xlink:href="#SVGID_1_"  style="overflow:visible;"/>
	</clipPath>
	<rect x="-12.172" y="0.001" style="clip-path:url(#SVGID_2_);fill:#FE0000;" width="85.039" height="56.692"/>
	<rect x="-12.172" y="0.001" style="clip-path:url(#SVGID_2_);fill:#000095;" width="42.547" height="28.347"/>
	<path style="clip-path:url(#SVGID_2_);fill:#FFFFFF;" d="M22.941,15c0,2.935-2.379,5.314-5.314,5.314
		c-2.936,0-5.315-2.379-5.315-5.314c0-2.936,2.379-5.315,5.315-5.315C20.562,9.684,22.941,12.064,22.941,15z M15.851,9.278
		l-3.445-3.381l1.18,4.691C14.228,9.999,14.998,9.543,15.851,9.278z M18.935,9.159l-1.307-4.652l-1.312,4.652
		c0.424-0.095,0.861-0.148,1.311-0.148C18.078,9.01,18.513,9.064,18.935,9.159z M28.119,15.001l-4.652-1.312
		c0.096,0.423,0.148,0.86,0.148,1.311s-0.053,0.887-0.146,1.309L28.119,15.001z M22.847,5.897L19.4,9.278
		c0.854,0.264,1.623,0.72,2.268,1.31L22.847,5.897z M13.216,10.959L8.525,9.778l3.381,3.447
		C12.169,12.371,12.626,11.602,13.216,10.959z M23.347,13.223l3.381-3.445l-4.691,1.179C22.626,11.6,23.082,12.369,23.347,13.223z
		 M11.906,16.774l-3.381,3.445l4.691-1.178C12.626,18.397,12.169,17.628,11.906,16.774z M22.039,19.04l4.689,1.18l-3.379-3.448
		C23.083,17.626,22.628,18.395,22.039,19.04z M19.402,20.72l3.445,3.38l-1.178-4.691C21.025,20,20.257,20.456,19.402,20.72z
		 M11.638,15c0-0.451,0.053-0.889,0.149-1.311l-4.652,1.308l4.652,1.311C11.691,15.886,11.638,15.45,11.638,15z M12.406,24.1
		l3.447-3.38C14.998,20.456,14.23,20,13.585,19.41L12.406,24.1z M16.316,20.839l1.309,4.651l1.311-4.65
		c-0.422,0.094-0.857,0.148-1.309,0.148C17.177,20.988,16.74,20.934,16.316,20.839z"/>
</g>
</svg>
