<?xml version="1.0" encoding="utf-8"?>
<!-- Generator: Adobe Illustrator 18.1.1, SVG Export Plug-In . SVG Version: 6.00 Build 0)  -->
<!DOCTYPE svg PUBLIC "-//W3C//DTD SVG 1.1//EN" "http://www.w3.org/Graphics/SVG/1.1/DTD/svg11.dtd">
<svg version="1.1" id="Layer_57" xmlns="http://www.w3.org/2000/svg" xmlns:xlink="http://www.w3.org/1999/xlink" x="0px" y="0px"
	 width="56.7px" height="56.7px" viewBox="0 0 56.7 56.7" enable-background="new 0 0 56.7 56.7" xml:space="preserve">
<g>
	<defs>
		<circle id="SVGID_1_" cx="28.3" cy="28.3" r="28.3"/>
	</defs>
	<clipPath id="SVGID_2_">
		<use xlink:href="#SVGID_1_"  overflow="visible"/>
	</clipPath>
	<g clip-path="url(#SVGID_2_)">
		<g>
			<polygon fill="#FFFFFF" points="-7,4.6 -6.5,5.6 -5.5,5.7 -6.2,6.5 -6.1,7.5 -7,7 -7.9,7.5 -7.7,6.5 -8.5,5.7 -7.5,5.6 			"/>
			<polygon fill="#FFFFFF" points="0.1,4.6 0.6,5.6 1.7,5.7 0.9,6.5 1.1,7.5 0.1,7 -0.8,7.5 -0.6,6.5 -1.4,5.7 -0.3,5.6 			"/>
			<polygon fill="#FFFFFF" points="7.3,4.6 7.7,5.6 8.8,5.7 8,6.5 8.2,7.5 7.3,7 6.3,7.5 6.5,6.5 5.8,5.7 6.8,5.6 			"/>
			<polygon fill="#FFFFFF" points="14.4,4.6 14.9,5.6 15.9,5.7 15.2,6.5 15.3,7.5 14.4,7 13.5,7.5 13.7,6.5 12.9,5.7 13.9,5.6 			
				"/>
			<polygon fill="#FFFFFF" points="21.5,4.6 22,5.6 23.1,5.7 22.3,6.5 22.5,7.5 21.5,7 20.6,7.5 20.8,6.5 20,5.7 21.1,5.6 			"/>
		</g>
		<g>
			<polygon fill="#FFFFFF" points="-7,10.8 -6.5,11.7 -5.5,11.9 -6.2,12.6 -6.1,13.7 -7,13.2 -7.9,13.7 -7.7,12.6 -8.5,11.9 
				-7.5,11.7 			"/>
			<polygon fill="#FFFFFF" points="0.1,10.8 0.6,11.7 1.7,11.9 0.9,12.6 1.1,13.7 0.1,13.2 -0.8,13.7 -0.6,12.6 -1.4,11.9 
				-0.3,11.7 			"/>
			<polygon fill="#FFFFFF" points="7.3,10.8 7.7,11.7 8.8,11.9 8,12.6 8.2,13.7 7.3,13.2 6.3,13.7 6.5,12.6 5.8,11.9 6.8,11.7 			
				"/>
			<polygon fill="#FFFFFF" points="14.4,10.8 14.9,11.7 15.9,11.9 15.2,12.6 15.3,13.7 14.4,13.2 13.5,13.7 13.7,12.6 12.9,11.9 
				13.9,11.7 			"/>
			<polygon fill="#FFFFFF" points="21.5,10.8 22,11.7 23.1,11.9 22.3,12.6 22.5,13.7 21.5,13.2 20.6,13.7 20.8,12.6 20,11.9 
				21.1,11.7 			"/>
		</g>
		<g>
			<polygon fill="#FFFFFF" points="-7,16.9 -6.5,17.9 -5.5,18 -6.2,18.8 -6.1,19.8 -7,19.3 -7.9,19.8 -7.7,18.8 -8.5,18 -7.5,17.9 
							"/>
			<polygon fill="#FFFFFF" points="0.1,16.9 0.6,17.9 1.7,18 0.9,18.8 1.1,19.8 0.1,19.3 -0.8,19.8 -0.6,18.8 -1.4,18 -0.3,17.9 			
				"/>
			<polygon fill="#FFFFFF" points="7.3,16.9 7.7,17.9 8.8,18 8,18.8 8.2,19.8 7.3,19.3 6.3,19.8 6.5,18.8 5.8,18 6.8,17.9 			"/>
			<polygon fill="#FFFFFF" points="14.4,16.9 14.9,17.9 15.9,18 15.2,18.8 15.3,19.8 14.4,19.3 13.5,19.8 13.7,18.8 12.9,18 
				13.9,17.9 			"/>
			<polygon fill="#FFFFFF" points="21.5,16.9 22,17.9 23.1,18 22.3,18.8 22.5,19.8 21.5,19.3 20.6,19.8 20.8,18.8 20,18 21.1,17.9 
							"/>
		</g>
		<g>
			<polygon fill="#FFFFFF" points="-7,23.1 -6.5,24 -5.5,24.2 -6.2,24.9 -6.1,26 -7,25.5 -7.9,26 -7.7,24.9 -8.5,24.2 -7.5,24 			
				"/>
			<polygon fill="#FFFFFF" points="0.1,23.1 0.6,24 1.7,24.2 0.9,24.9 1.1,26 0.1,25.5 -0.8,26 -0.6,24.9 -1.4,24.2 -0.3,24 			"/>
			<polygon fill="#FFFFFF" points="7.3,23.1 7.7,24 8.8,24.2 8,24.9 8.2,26 7.3,25.5 6.3,26 6.5,24.9 5.8,24.2 6.8,24 			"/>
			<polygon fill="#FFFFFF" points="14.4,23.1 14.9,24 15.9,24.2 15.2,24.9 15.3,26 14.4,25.5 13.5,26 13.7,24.9 12.9,24.2 13.9,24 
							"/>
			<polygon fill="#FFFFFF" points="21.5,23.1 22,24 23.1,24.2 22.3,24.9 22.5,26 21.5,25.5 20.6,26 20.8,24.9 20,24.2 21.1,24 			
				"/>
		</g>
	</g>
	<rect x="-14.3" y="0" clip-path="url(#SVGID_2_)" fill="#FFFFFF" width="85.3" height="56.7"/>
	<rect x="-14.3" y="0" clip-path="url(#SVGID_2_)" fill="#3C3B6E" width="43.1" height="30.6"/>
	<g clip-path="url(#SVGID_2_)">
		<rect x="28.8" y="0" fill="#B22234" width="42.1" height="4.5"/>
		<rect x="28.8" y="8.7" fill="#B22234" width="42.1" height="4.5"/>
		<rect x="28.8" y="17.4" fill="#B22234" width="42.1" height="4.5"/>
		<rect x="28.8" y="26.1" fill="#B22234" width="42.1" height="4.5"/>
		<rect x="-14.3" y="34.8" fill="#B22234" width="85.3" height="4.5"/>
		<rect x="-14.3" y="43.5" fill="#B22234" width="85.3" height="4.5"/>
		<rect x="-14.3" y="52.2" fill="#B22234" width="85.3" height="4.5"/>
	</g>
	<g clip-path="url(#SVGID_2_)">
		<g>
			<polygon fill="#FFFFFF" points="-10,3.4 -9,2.7 -10.2,2.7 -10.6,1.5 -11,2.7 -12.3,2.7 -11.2,3.4 -11.6,4.6 -10.6,3.9 -9.6,4.6 
							"/>
			<polygon fill="#FFFFFF" points="-2.8,3.4 -1.8,2.7 -3.1,2.7 -3.5,1.5 -3.9,2.7 -5.1,2.7 -4.1,3.4 -4.5,4.6 -3.5,3.9 -2.4,4.6 			
				"/>
			<polygon fill="#FFFFFF" points="4.3,3.4 5.3,2.7 4.1,2.7 3.7,1.5 3.3,2.7 2,2.7 3,3.4 2.6,4.6 3.7,3.9 4.7,4.6 			"/>
			<polygon fill="#FFFFFF" points="11.4,3.4 12.5,2.7 11.2,2.7 10.8,1.5 10.4,2.7 9.2,2.7 10.2,3.4 9.8,4.6 10.8,3.9 11.8,4.6 			
				"/>
			<polygon fill="#FFFFFF" points="18.6,3.4 19.6,2.7 18.4,2.7 18,1.5 17.6,2.7 16.3,2.7 17.3,3.4 16.9,4.6 18,3.9 19,4.6 			"/>
			<polygon fill="#FFFFFF" points="25.7,3.4 26.8,2.7 25.5,2.7 25.1,1.5 24.7,2.7 23.4,2.7 24.5,3.4 24.1,4.6 25.1,3.9 26.1,4.6 			
				"/>
		</g>
		<polygon fill="#FFFFFF" points="-6.4,6.5 -5.4,5.7 -6.7,5.7 -7,4.5 -7.4,5.7 -8.7,5.7 -7.7,6.5 -8.1,7.7 -7,6.9 -6,7.7 		"/>
		<polygon fill="#FFFFFF" points="0.7,6.5 1.8,5.7 0.5,5.7 0.1,4.5 -0.3,5.7 -1.6,5.7 -0.5,6.5 -0.9,7.7 0.1,6.9 1.1,7.7 		"/>
		<polygon fill="#FFFFFF" points="7.9,6.5 8.9,5.7 7.6,5.7 7.2,4.5 6.9,5.7 5.6,5.7 6.6,6.5 6.2,7.7 7.2,6.9 8.3,7.7 		"/>
		<polygon fill="#FFFFFF" points="15,6.5 16,5.7 14.8,5.7 14.4,4.5 14,5.7 12.7,5.7 13.8,6.5 13.4,7.7 14.4,6.9 15.4,7.7 		"/>
		<polygon fill="#FFFFFF" points="22.2,6.5 23.2,5.7 21.9,5.7 21.5,4.5 21.1,5.7 19.9,5.7 20.9,6.5 20.5,7.7 21.5,6.9 22.6,7.7 		
			"/>
		<polygon fill="#FFFFFF" points="-10,9.5 -9,8.8 -10.2,8.8 -10.6,7.6 -11,8.8 -12.3,8.8 -11.2,9.5 -11.6,10.8 -10.6,10 -9.6,10.8 
					"/>
		<polygon fill="#FFFFFF" points="-2.8,9.5 -1.8,8.8 -3.1,8.8 -3.5,7.6 -3.9,8.8 -5.1,8.8 -4.1,9.5 -4.5,10.8 -3.5,10 -2.4,10.8 		
			"/>
		<polygon fill="#FFFFFF" points="4.3,9.5 5.3,8.8 4.1,8.8 3.7,7.6 3.3,8.8 2,8.8 3,9.5 2.6,10.8 3.7,10 4.7,10.8 		"/>
		<polygon fill="#FFFFFF" points="11.4,9.5 12.5,8.8 11.2,8.8 10.8,7.6 10.4,8.8 9.2,8.8 10.2,9.5 9.8,10.8 10.8,10 11.8,10.8 		"/>
		<polygon fill="#FFFFFF" points="18.6,9.5 19.6,8.8 18.4,8.8 18,7.6 17.6,8.8 16.3,8.8 17.3,9.5 16.9,10.8 18,10 19,10.8 		"/>
		<polygon fill="#FFFFFF" points="25.7,9.5 26.8,8.8 25.5,8.8 25.1,7.6 24.7,8.8 23.4,8.8 24.5,9.5 24.1,10.8 25.1,10 26.1,10.8 		
			"/>
		<polygon fill="#FFFFFF" points="-6.4,12.6 -5.4,11.9 -6.7,11.9 -7,10.7 -7.4,11.9 -8.7,11.9 -7.7,12.6 -8.1,13.8 -7,13.1 -6,13.8 
					"/>
		<polygon fill="#FFFFFF" points="0.7,12.6 1.8,11.9 0.5,11.9 0.1,10.7 -0.3,11.9 -1.6,11.9 -0.5,12.6 -0.9,13.8 0.1,13.1 1.1,13.8 
					"/>
		<polygon fill="#FFFFFF" points="7.9,12.6 8.9,11.9 7.6,11.9 7.2,10.7 6.9,11.9 5.6,11.9 6.6,12.6 6.2,13.8 7.2,13.1 8.3,13.8 		
			"/>
		<polygon fill="#FFFFFF" points="15,12.6 16,11.9 14.8,11.9 14.4,10.7 14,11.9 12.7,11.9 13.8,12.6 13.4,13.8 14.4,13.1 15.4,13.8 
					"/>
		<polygon fill="#FFFFFF" points="22.2,12.6 23.2,11.9 21.9,11.9 21.5,10.7 21.1,11.9 19.9,11.9 20.9,12.6 20.5,13.8 21.5,13.1 
			22.6,13.8 		"/>
		<polygon fill="#FFFFFF" points="-10,15.7 -9,14.9 -10.2,14.9 -10.6,13.7 -11,14.9 -12.3,14.9 -11.2,15.7 -11.6,16.9 -10.6,16.1 
			-9.6,16.9 		"/>
		<polygon fill="#FFFFFF" points="-2.8,15.7 -1.8,14.9 -3.1,14.9 -3.5,13.7 -3.9,14.9 -5.1,14.9 -4.1,15.7 -4.5,16.9 -3.5,16.1 
			-2.4,16.9 		"/>
		<polygon fill="#FFFFFF" points="4.3,15.7 5.3,14.9 4.1,14.9 3.7,13.7 3.3,14.9 2,14.9 3,15.7 2.6,16.9 3.7,16.1 4.7,16.9 		"/>
		<polygon fill="#FFFFFF" points="11.4,15.7 12.5,14.9 11.2,14.9 10.8,13.7 10.4,14.9 9.2,14.9 10.2,15.7 9.8,16.9 10.8,16.1 
			11.8,16.9 		"/>
		<polygon fill="#FFFFFF" points="18.6,15.7 19.6,14.9 18.4,14.9 18,13.7 17.6,14.9 16.3,14.9 17.3,15.7 16.9,16.9 18,16.1 19,16.9 
					"/>
		<polygon fill="#FFFFFF" points="25.7,15.7 26.8,14.9 25.5,14.9 25.1,13.7 24.7,14.9 23.4,14.9 24.5,15.7 24.1,16.9 25.1,16.1 
			26.1,16.9 		"/>
		<polygon fill="#FFFFFF" points="-6.4,18.7 -5.4,18 -6.7,18 -7,16.8 -7.4,18 -8.7,18 -7.7,18.7 -8.1,19.9 -7,19.2 -6,19.9 		"/>
		<polygon fill="#FFFFFF" points="0.7,18.7 1.8,18 0.5,18 0.1,16.8 -0.3,18 -1.6,18 -0.5,18.7 -0.9,19.9 0.1,19.2 1.1,19.9 		"/>
		<polygon fill="#FFFFFF" points="7.9,18.7 8.9,18 7.6,18 7.2,16.8 6.9,18 5.6,18 6.6,18.7 6.2,19.9 7.2,19.2 8.3,19.9 		"/>
		<polygon fill="#FFFFFF" points="15,18.7 16,18 14.8,18 14.4,16.8 14,18 12.7,18 13.8,18.7 13.4,19.9 14.4,19.2 15.4,19.9 		"/>
		<polygon fill="#FFFFFF" points="22.2,18.7 23.2,18 21.9,18 21.5,16.8 21.1,18 19.9,18 20.9,18.7 20.5,19.9 21.5,19.2 22.6,19.9 		
			"/>
		<polygon fill="#FFFFFF" points="-10,21.8 -9,21 -10.2,21 -10.6,19.8 -11,21 -12.3,21 -11.2,21.8 -11.6,23 -10.6,22.3 -9.6,23 		
			"/>
		<polygon fill="#FFFFFF" points="-2.8,21.8 -1.8,21 -3.1,21 -3.5,19.8 -3.9,21 -5.1,21 -4.1,21.8 -4.5,23 -3.5,22.3 -2.4,23 		"/>
		<polygon fill="#FFFFFF" points="4.3,21.8 5.3,21 4.1,21 3.7,19.8 3.3,21 2,21 3,21.8 2.6,23 3.7,22.3 4.7,23 		"/>
		<polygon fill="#FFFFFF" points="11.4,21.8 12.5,21 11.2,21 10.8,19.8 10.4,21 9.2,21 10.2,21.8 9.8,23 10.8,22.3 11.8,23 		"/>
		<polygon fill="#FFFFFF" points="18.6,21.8 19.6,21 18.4,21 18,19.8 17.6,21 16.3,21 17.3,21.8 16.9,23 18,22.3 19,23 		"/>
		<polygon fill="#FFFFFF" points="25.7,21.8 26.8,21 25.5,21 25.1,19.8 24.7,21 23.4,21 24.5,21.8 24.1,23 25.1,22.3 26.1,23 		"/>
		<polygon fill="#FFFFFF" points="-6.4,24.9 -5.4,24.1 -6.7,24.1 -7,22.9 -7.4,24.1 -8.7,24.1 -7.7,24.9 -8.1,26.1 -7,25.3 -6,26.1 
					"/>
		<polygon fill="#FFFFFF" points="0.7,24.9 1.8,24.1 0.5,24.1 0.1,22.9 -0.3,24.1 -1.6,24.1 -0.5,24.9 -0.9,26.1 0.1,25.3 1.1,26.1 
					"/>
		<polygon fill="#FFFFFF" points="7.9,24.9 8.9,24.1 7.6,24.1 7.2,22.9 6.9,24.1 5.6,24.1 6.6,24.9 6.2,26.1 7.2,25.3 8.3,26.1 		
			"/>
		<polygon fill="#FFFFFF" points="15,24.9 16,24.1 14.8,24.1 14.4,22.9 14,24.1 12.7,24.1 13.8,24.9 13.4,26.1 14.4,25.3 15.4,26.1 
					"/>
		<polygon fill="#FFFFFF" points="22.2,24.9 23.2,24.1 21.9,24.1 21.5,22.9 21.1,24.1 19.9,24.1 20.9,24.9 20.5,26.1 21.5,25.3 
			22.6,26.1 		"/>
		<polygon fill="#FFFFFF" points="-10,27.9 -9,27.2 -10.2,27.2 -10.6,26 -11,27.2 -12.3,27.2 -11.2,27.9 -11.6,29.1 -10.6,28.4 
			-9.6,29.1 		"/>
		<polygon fill="#FFFFFF" points="-2.8,27.9 -1.8,27.2 -3.1,27.2 -3.5,26 -3.9,27.2 -5.1,27.2 -4.1,27.9 -4.5,29.1 -3.5,28.4 
			-2.4,29.1 		"/>
		<polygon fill="#FFFFFF" points="4.3,27.9 5.3,27.2 4.1,27.2 3.7,26 3.3,27.2 2,27.2 3,27.9 2.6,29.1 3.7,28.4 4.7,29.1 		"/>
		<polygon fill="#FFFFFF" points="11.4,27.9 12.5,27.2 11.2,27.2 10.8,26 10.4,27.2 9.2,27.2 10.2,27.9 9.8,29.1 10.8,28.4 
			11.8,29.1 		"/>
		<polygon fill="#FFFFFF" points="18.6,27.9 19.6,27.2 18.4,27.2 18,26 17.6,27.2 16.3,27.2 17.3,27.9 16.9,29.1 18,28.4 19,29.1 		
			"/>
		<polygon fill="#FFFFFF" points="25.7,27.9 26.8,27.2 25.5,27.2 25.1,26 24.7,27.2 23.4,27.2 24.5,27.9 24.1,29.1 25.1,28.4 
			26.1,29.1 		"/>
	</g>
</g>
</svg>
