<?xml version="1.0" encoding="utf-8"?>
<!-- Generator: Adobe Illustrator 18.1.1, SVG Export Plug-In . SVG Version: 6.00 Build 0)  -->
<!DOCTYPE svg PUBLIC "-//W3C//DTD SVG 1.1//EN" "http://www.w3.org/Graphics/SVG/1.1/DTD/svg11.dtd">
<svg version="1.1" id="Layer_87" xmlns="http://www.w3.org/2000/svg" xmlns:xlink="http://www.w3.org/1999/xlink" x="0px" y="0px"
	 width="56.7px" height="56.7px" viewBox="0 0 56.7 56.7" enable-background="new 0 0 56.7 56.7" xml:space="preserve">
<g>
	<defs>
		<circle id="SVGID_1_" cx="28.3" cy="28.3" r="28.3"/>
	</defs>
	<clipPath id="SVGID_2_">
		<use xlink:href="#SVGID_1_"  overflow="visible"/>
	</clipPath>
	<g clip-path="url(#SVGID_2_)">
		<rect x="-14.2" y="0" width="85" height="56.7"/>
		<rect x="-14.2" y="9.4" fill="#FCDC04" width="85" height="9.4"/>
		<rect x="-14.2" y="18.9" fill="#D90000" width="85" height="9.4"/>
		<rect x="-14.2" y="37.8" fill="#FCDC04" width="85" height="9.4"/>
		<rect x="-14.2" y="47.2" fill="#D90000" width="85" height="9.4"/>
		<circle fill="#FFFFFF" cx="28.3" cy="28.3" r="8.8"/>
		<g>
			<path fill="#D90000" stroke="#000000" stroke-width="9.448817e-02" d="M26.8,21.6l-0.6-1.1c0.2-0.2,0.6-0.4,1.2-0.4
				c0,0-0.1,1.2-0.1,1.2L26.8,21.6z"/>
			<path fill="#FCDC04" stroke="#000000" stroke-width="9.448817e-02" d="M27.3,21.3l0.1-1.2c0,0,1.2-0.1,1.8,0.7
				c0,0-0.6,0.9-0.6,0.9L27.3,21.3z"/>
			<path fill="#D90000" stroke="#000000" stroke-width="9.448817e-02" d="M28.6,21.7l0.6-0.9c0.4,0.4,0.6,0.7,0.6,1.1
				c0,0-0.9,0.2-0.9,0.2C28.9,22.2,28.6,21.7,28.6,21.7z"/>
			<path stroke="#000000" stroke-width="9.448817e-02" d="M27.1,36.7c0,0,1.1-1.3,3.2-1C30,35.2,29,35.2,29,35.2s-0.3-2.4-0.1-2.6
				c0.3-0.1,1.3,0,1.3,0c0.1,0,0.4-0.4,0.2-0.6c-0.2-0.2-0.8-1.2-0.5-1.3c0.2-0.2,1.5,0.1,1.5,0.1l-3.5-4.5c0,0-0.4-1.7,0.4-2.5
				c0.9-0.7,0.8-1.5,0.8-1.5c-0.1-0.8-1.3-1.4-2.1-0.6c-0.5,0.6-0.2,1-0.2,1s-1.3,0.3-1.3,0.6c-0.1,0.2,1.4,0,1.4,0l-0.1,1
				c0,0-2.9,2.6-0.7,4.9c0,0,0.1-0.1,0.1-0.1s0.8,1,1.6,1.2c0.8,0.8,0.7,0.7,0.7,0.7s0.2,1.2,0,1.5c-0.2-0.1-2.1-0.1-2.4,0
				c-0.3,0.1-1.3,0-1,1.7c0.2-0.4,0.4-0.8,0.4-0.8s0,0.6,0.2,0.8c0-0.6,0.2-1,0.2-1s0.1,0.7,0.2,0.8c0.2,0.1,0.2-1.1,1-1
				c0.8,0.1,1.4,0.1,1.4,0.1s0.3,2.4,0.2,2.6c-0.6-0.1-2,0.1-2.1,0.4c0.8-0.1,1.2,0.1,1.2,0.1S26.9,36.3,27.1,36.7z"/>
			<path fill="#9CA69C" stroke="#9CA69C" stroke-width="9.448817e-02" d="M27.4,23.8c0,0-2.1,2.3-1.2,4.1c0-0.2,0-0.4,0.1-0.4
				c-0.1,0,0.3,0.2,0.2,0.2c0-0.1-0.1-0.4-0.1-0.4c0.1,0,0.2,0,0.3,0.1c-0.1-0.1-0.1-0.2-0.2-0.3c0.1,0,0.3,0,0.4,0
				c0,0-0.1-0.4-0.1-0.4c0,0,0.3,0,0.3,0C26.6,25.6,27.1,24.7,27.4,23.8z"/>
			<path fill="#9CA69C" stroke="#9CA69C" stroke-width="9.448817e-02" d="M28.1,21.8c0,0,0.1,0.8-0.3,1c-0.1,0.1-0.3,0.1-0.3,0.3
				c0.1,0.2,0.2,0.2,0.3,0.1C28.3,23.2,28.8,22.2,28.1,21.8z"/>
			<circle fill="#FFFFFF" cx="27.2" cy="22.5" r="0.2"/>
			<path fill="#D90000" stroke="#000000" stroke-width="9.448817e-02" d="M26.7,23.1c-0.1,0.1-0.7,0.7-0.1,0.9
				c0.6-0.2,0.4-0.3,0.6-0.4C27.1,23.4,26.8,23.3,26.7,23.1z"/>
			<path fill="#9CA69C" stroke="#9CA69C" stroke-width="9.448817e-02" d="M28,28.8c0,0.1-0.2,0.6,0,1c0.5-0.2,0.7-0.2,0.9,0
				C28.5,29.5,28.3,29.3,28,28.8z"/>
			<path fill="#FFFFFF" stroke="#FFFFFF" stroke-width="9.448817e-02" d="M28.8,31.1l0,1.1c0,0,0.4,0.1,0.6,0
				C29.6,32.2,29.4,31.5,28.8,31.1z"/>
			<path fill="#9CA69C" stroke="#000000" stroke-width="9.448817e-02" d="M31.7,31.3c0,0-0.7-1.7-2.6-2.2s-1.6-2.4-1.5-2.5
				c0.1-0.2,0.1-0.4,0.7-0.2c0.5,0.3,3,1.5,3.3,1.5C32,28,31.7,31.3,31.7,31.3z"/>
			<path fill="#D90000" stroke="#000000" stroke-width="9.448817e-02" d="M29.9,29.1c0,0,2.5,1.5,1.7,2.7c0.7-0.5,0.5-1.3,0.5-1.3
				s0.6,1.5-0.8,2.3c0.2,0.1,0.3,0.1,0.3,0.1l-0.2,0.2c0,0-0.1,0.2,0.8-0.3c-0.3,0.2-0.3,0.4-0.3,0.4s0.1,0.2,0.7-0.3
				c-0.5,0.5-0.6,0.8-0.6,0.8c1.4-0.1,4.3-4.5-0.9-5.8c0.3,0.3,0.2,0.3,0.2,0.3L29.9,29.1z"/>
			<path fill="#FFFFFF" stroke="#000000" stroke-width="9.448817e-02" d="M30,28.6c0.3,0.2,0.5,0.3,0.5,0.4C30.2,29,29.9,29,29.9,29
				s-0.7-0.6-0.8-0.7c-0.1,0-0.6-0.3-0.6-0.3c-0.3-0.1-0.5-1,0.5-0.8c1,0.5,1.1,0.5,1.1,0.5c0.4,0.1,0.8,0.2,1.2,0.4
				c0.2,0.3,0.5,0.5,0.7,0.8c0,0-1.2-0.6-1.4-0.6c0.3,0.3,0.5,0.6,0.5,0.6C30.8,28.8,30.4,28.7,30,28.6z"/>
			<path stroke="#FFFFFF" stroke-width="9.448817e-02" d="M25.3,23.2c0,0,1.2-0.3,1.3-0.2"/>
		</g>
	</g>
</g>
</svg>
