<?xml version="1.0" encoding="iso-8859-1"?>
<!-- Generator: Adobe Illustrator 18.1.1, SVG Export Plug-In . SVG Version: 6.00 Build 0)  -->
<svg version="1.1" id="Layer_14" xmlns="http://www.w3.org/2000/svg" xmlns:xlink="http://www.w3.org/1999/xlink" x="0px" y="0px"
	 viewBox="0 0 56.692 56.692" style="enable-background:new 0 0 56.692 56.692;" xml:space="preserve">
<g>
	<defs>
		<circle id="SVGID_1_" cx="28.346" cy="28.347" r="28.347"/>
	</defs>
	<clipPath id="SVGID_2_">
		<use xlink:href="#SVGID_1_"  style="overflow:visible;"/>
	</clipPath>
	<rect x="0" y="0" style="clip-path:url(#SVGID_2_);fill:#FFFFFF;" width="85.039" height="56.693"/>
	<rect x="0" y="31.484" style="clip-path:url(#SVGID_2_);fill:#0038A8;" width="85.039" height="6.281"/>
	<rect x="0" y="44.05" style="clip-path:url(#SVGID_2_);fill:#0038A8;" width="85.039" height="6.281"/>
	<rect x="31.543" y="18.884" style="clip-path:url(#SVGID_2_);fill:#0038A8;" width="53.496" height="6.281"/>
	<rect x="31.543" y="6.332" style="clip-path:url(#SVGID_2_);fill:#0038A8;" width="53.496" height="6.281"/>
	<g style="clip-path:url(#SVGID_2_);">
		<path d="M24.31,18.044c-0.675-0.162-1.504-0.362-2.579-1.228l6.373-1.07l-6.673-1.121c1.237-0.504,1.958-1.25,2.571-1.889
			c0.539-0.561,0.976-1.004,1.598-1.164c0.482-0.123,1.256-0.01,1.256-0.01s-0.762-0.449-1.197-0.574
			c-1.023-0.297-1.539,0.005-2.203,0.402c-0.606,0.365-1.357,0.812-2.779,0.938l3.802-5.335l-5.555,3.956
			c0.559-1.279,0.538-2.35,0.517-3.262c-0.017-0.776-0.024-1.398,0.301-1.951c0.253-0.43,0.879-0.898,0.879-0.898
			s-0.855,0.223-1.252,0.443c-0.932,0.518-1.082,1.096-1.266,1.848c-0.171,0.69-0.383,1.539-1.303,2.641l-1.074-6.404l-1.128,6.717
			c-0.513-1.254-1.271-1.975-1.919-2.589c-0.564-0.536-1.01-0.972-1.172-1.591c-0.127-0.48-0.018-1.256-0.018-1.256
			s-0.445,0.765-0.568,1.201c-0.291,1.025,0.015,1.539,0.418,2.199c0.363,0.6,0.81,1.338,0.951,2.734L6.971,6.993l3.996,5.608
			c-1.303-0.57-2.387-0.543-3.309-0.516c-0.777,0.023-1.398,0.033-1.953-0.289c-0.43-0.25-0.902-0.871-0.902-0.871
			s0.227,0.854,0.451,1.248c0.521,0.928,1.102,1.074,1.855,1.256c0.68,0.162,1.518,0.365,2.604,1.246l-6.369,1.07l6.62,1.111
			c-1.224,0.506-1.938,1.246-2.549,1.881c-0.538,0.561-0.976,1.005-1.597,1.162c-0.483,0.124-1.256,0.011-1.256,0.011
			s0.761,0.448,1.197,0.575c1.023,0.295,1.539-0.006,2.203-0.403c0.613-0.37,1.373-0.821,2.826-0.942L6.971,24.5l5.498-3.917
			c-0.534,1.254-0.512,2.306-0.491,3.203c0.019,0.776,0.024,1.4-0.3,1.95c-0.252,0.43-0.879,0.898-0.879,0.898
			s0.856-0.223,1.252-0.443c0.932-0.517,1.082-1.096,1.268-1.848c0.17-0.693,0.385-1.551,1.322-2.665l1.084,6.448l1.122-6.678
			c0.511,1.217,1.255,1.926,1.894,2.531c0.564,0.537,1.01,0.972,1.172,1.59c0.127,0.483,0.019,1.257,0.019,1.257
			s0.444-0.765,0.567-1.202c0.291-1.025-0.014-1.538-0.418-2.199c-0.363-0.599-0.811-1.338-0.951-2.736l5.349,3.811l-4.003-5.619
			c1.293,0.562,2.369,0.533,3.285,0.506c0.777-0.021,1.398-0.033,1.953,0.289c0.43,0.25,0.902,0.873,0.902,0.873
			s-0.227-0.854-0.45-1.25C25.643,18.371,25.062,18.224,24.31,18.044z"/>
		<path style="fill:#FCD116;" d="M8.154,13.015c1.25,0.197,2.652,0.424,3.752,1.293l-1.932,0.324
			c-1.185-1.004-2.09-1.222-2.82-1.396c-0.697-0.168-1.217-0.293-1.676-1.068C6.102,12.689,7.076,12.845,8.154,13.015z
			 M11.827,15.845H5.138l6.895,1.158C11.91,16.638,11.838,16.25,11.827,15.845z M12.033,14.488l-6.895,1.158h6.689
			C11.838,15.243,11.91,14.853,12.033,14.488z M14.004,12.248L8.309,8.189l4.731,4.732C13.324,12.652,13.648,12.423,14.004,12.248z
			 M12.898,13.062L8.168,8.33l4.057,5.697C12.4,13.671,12.629,13.347,12.898,13.062z M12.111,14.212v-0.002l-0.908-1.275
			c-1.41-0.709-2.565-0.678-3.539-0.649c-0.825,0.022-1.565,0.042-2.213-0.423c0.568,0.611,1.59,0.775,2.734,0.955
			C9.49,13.025,10.96,13.259,12.111,14.212z M11.82,17.169l-1.467-0.246c-1.385,0.488-2.15,1.281-2.795,1.951
			c-0.572,0.596-1.086,1.129-1.875,1.25c0.834,0.039,1.677-0.561,2.622-1.232C9.316,18.169,10.449,17.368,11.82,17.169z
			 M12.91,23.294c-0.178,1.079-0.338,2.051-0.863,2.672c0.777-0.455,0.905-0.974,1.078-1.67c0.182-0.742,0.414-1.666,1.473-2.877
			l-0.324-1.925C13.36,20.595,13.119,22.025,12.91,23.294z M12.714,23.263c0.209-1.262,0.444-2.673,1.329-3.801l-1.245,0.885
			c-0.665,1.36-0.642,2.485-0.62,3.434c0.018,0.826,0.033,1.564-0.438,2.21C12.357,25.428,12.525,24.406,12.714,23.263z
			 M12.225,17.465l-4.057,5.696l4.732-4.732C12.629,18.146,12.4,17.82,12.225,17.465z M12.068,17.343
			c-1.422,0.131-2.602,0.965-3.648,1.71c-0.889,0.634-1.693,1.206-2.504,1.269c0.871,0.232,1.33-0.041,1.944-0.411
			c0.655-0.394,1.474-0.88,3.079-0.982L12.068,17.343z M13.04,18.57l-4.731,4.733l5.695-4.059
			C13.648,19.068,13.324,18.841,13.04,18.57z M19.394,14.127c1.403-0.145,2.568-0.969,3.604-1.707
			c0.89-0.634,1.693-1.207,2.504-1.269c-0.871-0.232-1.329,0.043-1.945,0.412c-0.648,0.39-1.457,0.871-3.031,0.978L19.394,14.127z
			 M19.223,14.027l4.058-5.697l-4.733,4.732C18.818,13.345,19.048,13.671,19.223,14.027z M19.621,15.646h6.689l-6.896-1.158
			C19.539,14.853,19.61,15.243,19.621,15.646z M19.553,14.31l1.486,0.248c1.4-0.486,2.17-1.285,2.821-1.961
			c0.571-0.596,1.085-1.129,1.875-1.248c-0.835-0.041-1.679,0.559-2.622,1.233C22.09,13.31,20.943,14.123,19.553,14.31z
			 M12.502,10.933l1.592,1.133c-0.16-1.389-0.986-2.543-1.726-3.568c-0.64-0.885-1.217-1.686-1.284-2.496
			c-0.228,0.873,0.051,1.33,0.424,1.943C11.898,8.586,12.381,9.384,12.502,10.933z M18.408,12.921l4.73-4.732l-5.695,4.059
			C17.799,12.423,18.123,12.65,18.408,12.921z M15.823,5.161v6.688c0.404,0.01,0.794,0.082,1.158,0.207L15.823,5.161z
			 M15.625,11.849V5.161l-1.158,6.896C14.831,11.931,15.221,11.859,15.625,11.849z M18.508,8.177
			c0.177-1.078,0.339-2.051,0.864-2.67c-0.778,0.453-0.907,0.973-1.079,1.67c-0.182,0.736-0.41,1.652-1.449,2.85l0.322,1.925
			C18.062,10.853,18.301,9.437,18.508,8.177z M18.703,8.211c-0.213,1.295-0.455,2.75-1.4,3.892l1.286-0.916
			c0.698-1.389,0.675-2.531,0.651-3.494c-0.017-0.825-0.033-1.566,0.438-2.211C19.06,6.046,18.893,7.066,18.703,8.211z
			 M14.283,11.949l0.248-1.476c-0.496-1.416-1.307-2.187-1.99-2.836c-0.6-0.57-1.135-1.08-1.26-1.869
			c-0.035,0.836,0.57,1.676,1.248,2.615C13.268,9.404,14.092,10.552,14.283,11.949z M15.725,19.447c-2.041,0-3.702-1.66-3.702-3.701
			s1.661-3.701,3.702-3.701c2.039,0,3.699,1.66,3.699,3.701S17.764,19.447,15.725,19.447z M16.15,14.461
			c0.869-0.633,1.254-0.611,2.297-0.078c0.062-0.088-0.029-0.201-0.217-0.334c-0.267-0.191-0.805-0.406-0.968-0.406
			C16.891,13.642,16.074,14.243,16.15,14.461z M15.144,16.011c-0.204,0.09-0.287,0.24-0.276,0.369v-0.002
			c0,0-0.51,0.254-0.613,0.498c0.402-0.275,0.678-0.29,0.754-0.289c0.092,0.053,0.229,0.062,0.397,0.006
			c0.055,0.122,0.177,0.207,0.32,0.207c0.143,0,0.264-0.085,0.318-0.207c0.168,0.057,0.305,0.047,0.398-0.006
			c0.073-0.001,0.35,0.014,0.754,0.289c-0.105-0.244-0.614-0.498-0.614-0.498L16.58,16.38c0.012-0.129-0.07-0.279-0.275-0.369
			c0.335,0.399-0.072,0.621-0.24,0.354l-0.009,0.038c-0.141,0.316-0.526,0.315-0.663,0l-0.008-0.038
			C15.215,16.632,14.809,16.411,15.144,16.011z M13.002,14.382c1.041-0.533,1.426-0.555,2.296,0.078
			c0.075-0.218-0.739-0.818-1.11-0.818c-0.166,0-0.703,0.215-0.971,0.406C13.031,14.181,12.939,14.294,13.002,14.382z
			 M13.556,15.027c-0.101-0.041-0.208-0.096-0.325-0.162c0.817,0.76,1.555,0.434,1.762,0.059c-0.107-0.084-0.221,0.016-0.404,0.109
			c0.041-0.066,0.064-0.143,0.064-0.225c0-0.106-0.041-0.201-0.104-0.275c0.231,0.066,0.429,0.199,0.56,0.391
			c-0.182-0.858-1.59-0.766-2.018,0.023c0.113-0.111,0.237-0.201,0.365-0.272C13.46,14.765,13.481,14.908,13.556,15.027z
			 M14.018,17.189c-0.154,0.139-0.26,0.304-0.305,0.422c-0.025,0.071,0.085,0.123,0.109,0.027
			C13.859,17.499,13.92,17.345,14.018,17.189z M16.143,18.507c0,0-0.213-0.156-0.418-0.156c-0.206,0-0.419,0.156-0.419,0.156h0.419
			H16.143z M17.275,17.502c-0.932-0.418-0.996-0.41-1.551-0.273c-0.557-0.137-0.619-0.145-1.552,0.273c0,0,0.698,0.582,1.552,0.582
			C16.576,18.084,17.275,17.502,17.275,17.502z M17.735,17.611c-0.046-0.118-0.151-0.283-0.305-0.422
			c0.097,0.156,0.158,0.31,0.194,0.449C17.65,17.734,17.761,17.682,17.735,17.611z M18.217,14.865
			c-0.117,0.066-0.225,0.121-0.324,0.162c0.074-0.119,0.096-0.262,0.1-0.352c0.129,0.07,0.252,0.16,0.365,0.272
			c-0.427-0.789-1.836-0.881-2.018-0.023c0.131-0.191,0.33-0.324,0.561-0.391c-0.065,0.074-0.106,0.17-0.106,0.275
			c0,0.082,0.025,0.158,0.066,0.225c-0.185-0.094-0.298-0.193-0.405-0.109C16.664,15.298,17.4,15.625,18.217,14.865z M15.181,17.488
			c-0.403,0-0.688,0.059-0.688,0.059s0.434,0.24,1.232,0.24c0.797,0,1.232-0.24,1.232-0.24s-0.275-0.059-0.684-0.059
			c-0.12,0-0.333,0.027-0.548,0.027C15.508,17.515,15.31,17.488,15.181,17.488z M15.625,26.333v-6.69
			c-0.404-0.01-0.794-0.081-1.158-0.206L15.625,26.333z M18.915,20.537l-1.593-1.134c0.158,1.392,0.986,2.546,1.729,3.571
			c0.639,0.885,1.215,1.687,1.284,2.496c0.228-0.873-0.052-1.328-0.425-1.941C19.519,22.886,19.037,22.087,18.915,20.537z
			 M17.521,14.503c0.078,0.078,0.129,0.186,0.129,0.305c0,0.135-0.062,0.252-0.16,0.33c0.051-0.006,0.104-0.016,0.16-0.031
			c0.222-0.09,0.243-0.383,0.243-0.482C17.771,14.568,17.646,14.527,17.521,14.503z M15.823,19.642v6.69l1.158-6.896
			C16.617,19.561,16.227,19.632,15.823,19.642z M17.151,19.627l-0.241,1.438c0.498,1.377,1.293,2.133,1.967,2.773
			c0.6,0.568,1.136,1.078,1.261,1.867c0.035-0.836-0.571-1.674-1.249-2.613C18.168,22.093,17.367,20.978,17.151,19.627z
			 M25.939,19.307c-0.459-0.778-0.979-0.903-1.676-1.069c-0.725-0.174-1.623-0.393-2.795-1.377l-1.93,0.325
			c1.096,0.85,2.484,1.075,3.725,1.271C24.342,18.628,25.316,18.783,25.939,19.307z M19.336,17.281l0.903,1.27
			c1.399,0.695,2.548,0.666,3.515,0.637c0.826-0.023,1.565-0.042,2.213,0.424c-0.568-0.612-1.59-0.775-2.734-0.957
			C21.938,18.449,20.482,18.216,19.336,17.281z M19.414,17.003l6.896-1.158h-6.689C19.61,16.25,19.539,16.638,19.414,17.003z
			 M17.443,19.245l5.696,4.059l-4.731-4.733C18.123,18.841,17.799,19.068,17.443,19.245z M13.798,15.107
			c0.056,0.016,0.108,0.025,0.159,0.031c-0.097-0.078-0.159-0.195-0.159-0.33c0-0.119,0.05-0.226,0.13-0.305
			c-0.125,0.024-0.252,0.064-0.373,0.121C13.555,14.724,13.576,15.017,13.798,15.107z M18.548,18.429l4.731,4.732l-4.057-5.696
			C19.048,17.82,18.818,18.146,18.548,18.429z"/>
	</g>
</g>
</svg>
