<?xml version="1.0" encoding="iso-8859-1"?>
<!-- Generator: Adobe Illustrator 18.1.1, SVG Export Plug-In . SVG Version: 6.00 Build 0)  -->
<svg version="1.1" id="Layer_91" xmlns="http://www.w3.org/2000/svg" xmlns:xlink="http://www.w3.org/1999/xlink" x="0px" y="0px"
	 viewBox="0 0 56.692 56.692" style="enable-background:new 0 0 56.692 56.692;" xml:space="preserve">
<g>
	<defs>
		<circle id="SVGID_1_" cx="28.346" cy="28.346" r="28.347"/>
	</defs>
	<clipPath id="SVGID_2_">
		<use xlink:href="#SVGID_1_"  style="overflow:visible;"/>
	</clipPath>
	<rect x="-10.787" y="-1.807" style="clip-path:url(#SVGID_2_);fill:#0099B5;" width="78.268" height="20.794"/>
	<rect x="-10.787" y="37.705" style="clip-path:url(#SVGID_2_);fill:#1EB53A;" width="78.268" height="20.545"/>
	<rect x="-10.787" y="18.987" style="clip-path:url(#SVGID_2_);fill:#CE1126;" width="78.268" height="0.998"/>
	<rect x="-10.787" y="36.707" style="clip-path:url(#SVGID_2_);fill:#CE1126;" width="78.268" height="0.998"/>
	<rect x="-10.787" y="19.985" style="clip-path:url(#SVGID_2_);fill:#FFFFFF;" width="78.268" height="16.722"/>
	<polygon style="clip-path:url(#SVGID_2_);fill:#FFFFFF;" points="20.892,15.154 21.185,16.027 22.146,16.03 21.367,16.597 
		21.653,17.465 20.889,16.948 20.123,17.461 20.412,16.596 19.643,16.025 20.601,16.027 	"/>
	<polygon style="clip-path:url(#SVGID_2_);fill:#FFFFFF;" points="25.929,15.154 26.222,16.027 27.18,16.03 26.403,16.597 
		26.687,17.465 25.923,16.948 25.159,17.461 25.449,16.596 24.679,16.025 25.637,16.027 	"/>
	<polygon style="clip-path:url(#SVGID_2_);fill:#FFFFFF;" points="30.963,15.154 31.258,16.027 32.217,16.03 31.438,16.597 
		31.724,17.465 30.96,16.948 30.194,17.461 30.483,16.596 29.714,16.025 30.672,16.027 	"/>
	<polygon style="clip-path:url(#SVGID_2_);fill:#FFFFFF;" points="36,15.154 36.293,16.027 37.253,16.03 36.475,16.597 
		36.759,17.465 35.996,16.948 35.23,17.461 35.52,16.596 34.75,16.025 35.709,16.027 	"/>
	<polygon style="clip-path:url(#SVGID_2_);fill:#FFFFFF;" points="41.036,15.154 41.329,16.027 42.288,16.03 41.511,16.597 
		41.795,17.465 41.031,16.948 40.267,17.461 40.556,16.596 39.785,16.025 40.743,16.027 	"/>
	<polygon style="clip-path:url(#SVGID_2_);fill:#FFFFFF;" points="25.929,10.246 26.222,11.12 27.18,11.123 26.403,11.69 
		26.687,12.557 25.923,12.041 25.159,12.554 25.449,11.689 24.679,11.118 25.637,11.12 	"/>
	<polygon style="clip-path:url(#SVGID_2_);fill:#FFFFFF;" points="30.963,10.246 31.258,11.12 32.217,11.123 31.438,11.69 
		31.724,12.557 30.96,12.041 30.194,12.554 30.483,11.689 29.714,11.118 30.672,11.12 	"/>
	<polygon style="clip-path:url(#SVGID_2_);fill:#FFFFFF;" points="36,10.246 36.293,11.12 37.253,11.123 36.475,11.69 
		36.759,12.557 35.996,12.041 35.23,12.554 35.52,11.689 34.75,11.118 35.709,11.12 	"/>
	<polygon style="clip-path:url(#SVGID_2_);fill:#FFFFFF;" points="41.036,10.246 41.329,11.12 42.288,11.123 41.511,11.69 
		41.795,12.557 41.031,12.041 40.267,12.554 40.556,11.689 39.785,11.118 40.743,11.12 	"/>
	<polygon style="clip-path:url(#SVGID_2_);fill:#FFFFFF;" points="30.963,5.048 31.258,5.923 32.217,5.926 31.438,6.493 
		31.724,7.361 30.96,6.844 30.194,7.357 30.483,6.491 29.714,5.921 30.672,5.923 	"/>
	<polygon style="clip-path:url(#SVGID_2_);fill:#FFFFFF;" points="36,5.048 36.293,5.923 37.253,5.926 36.475,6.493 36.759,7.361 
		35.996,6.844 35.23,7.357 35.52,6.491 34.75,5.921 35.709,5.923 	"/>
	<polygon style="clip-path:url(#SVGID_2_);fill:#FFFFFF;" points="41.036,5.048 41.329,5.923 42.288,5.926 41.511,6.493 
		41.795,7.361 41.031,6.844 40.267,7.357 40.556,6.491 39.785,5.921 40.743,5.923 	"/>
	<path style="clip-path:url(#SVGID_2_);fill:#FFFFFF;" d="M12.975,11.403c0-3.171,2.323-5.791,5.358-6.268
		c-0.324-0.051-0.654-0.086-0.993-0.086c-3.51,0-6.354,2.845-6.354,6.355c0,3.508,2.845,6.352,6.354,6.352
		c0.338,0,0.669-0.034,0.993-0.086C15.298,17.191,12.975,14.571,12.975,11.403z"/>
</g>
</svg>
