<?xml version="1.0" encoding="iso-8859-1"?>
<!-- Generator: Adobe Illustrator 18.1.1, SVG Export Plug-In . SVG Version: 6.00 Build 0)  -->
<svg version="1.1" id="Layer_163" xmlns="http://www.w3.org/2000/svg" xmlns:xlink="http://www.w3.org/1999/xlink" x="0px" y="0px"
	 viewBox="0 0 56.692 56.692" style="enable-background:new 0 0 56.692 56.692;" xml:space="preserve">
<g>
	<defs>
		<circle id="SVGID_1_" cx="28.346" cy="28.345" r="28.346"/>
	</defs>
	<clipPath id="SVGID_2_">
		<use xlink:href="#SVGID_1_"  style="overflow:visible;"/>
	</clipPath>
	<rect x="-14.173" y="18.898" style="clip-path:url(#SVGID_2_);fill:#00247D;" width="85.039" height="18.899"/>
	<rect x="-14.173" y="37.796" style="clip-path:url(#SVGID_2_);fill:#CF142B;" width="85.039" height="18.896"/>
	<rect x="-14.173" y="0" style="clip-path:url(#SVGID_2_);fill:#FFCC00;" width="85.039" height="18.898"/>
	<g style="clip-path:url(#SVGID_2_);">
		<path style="fill:#FFFFFF;" d="M14.679,33.205l-1.449,1.059l0.537,1.612l-1.424-0.958l-1.426,0.958l0.535-1.612l-1.436-1.059
			h1.785l0.539-1.632l0.553,1.632H14.679z M21.404,23.293l-1.496,0.845l-1.322-1.201l0.354,1.75l-1.482,0.836l1.699,0.248
			l0.412,1.666l0.686-1.555l1.785,0.19l-1.322-1.2L21.404,23.293z M25.787,22.224l-0.84-1.578l-0.258,1.766l-1.678,0.286
			l1.516,0.808l-0.176,1.707l1.17-1.231l1.617,0.778L26.3,23.187l1.178-1.254L25.787,22.224z M16.191,26.639l-1.105,1.315
			l-1.66-0.665l0.941,1.519l-1.096,1.301l1.68-0.363l0.965,1.419l0.102-1.698l1.738-0.445l-1.658-0.662L16.191,26.639z
			 M46.675,33.205H44.89l-0.539-1.632l-0.553,1.632h-1.785l1.449,1.059l-0.537,1.612l1.424-0.958l1.426,0.958l-0.535-1.612
			L46.675,33.205z M37.753,24.687l0.354-1.75l-1.322,1.201l-1.496-0.845l0.688,1.578l-1.322,1.2l1.785-0.19l0.686,1.555l0.412-1.666
			l1.699-0.248L37.753,24.687z M32.003,22.412l-0.258-1.766l-0.84,1.578l-1.691-0.291l1.178,1.254l-0.838,1.573l1.617-0.778
			l1.17,1.231l-0.176-1.707l1.516-0.808L32.003,22.412z M42.326,28.808l0.941-1.519l-1.66,0.665l-1.105-1.315l0.094,1.72
			l-1.658,0.662l1.738,0.445l0.102,1.698l0.965-1.419l1.68,0.363L42.326,28.808z"/>
	</g>
</g>
</svg>
