<?xml version="1.0" encoding="iso-8859-1"?>
<!-- Generator: Adobe Illustrator 18.1.1, SVG Export Plug-In . SVG Version: 6.00 Build 0)  -->
<svg version="1.1" id="Layer_179" xmlns="http://www.w3.org/2000/svg" xmlns:xlink="http://www.w3.org/1999/xlink" x="0px" y="0px"
	 viewBox="0 0 56.692 56.692" style="enable-background:new 0 0 56.692 56.692;" xml:space="preserve">
<g>
	<defs>
		<circle id="SVGID_1_" cx="28.346" cy="28.347" r="28.346"/>
	</defs>
	<clipPath id="SVGID_2_">
		<use xlink:href="#SVGID_1_"  style="overflow:visible;"/>
	</clipPath>
	<g style="clip-path:url(#SVGID_2_);">
		<rect x="0" y="0.004" style="fill:#D21034;" width="94.439" height="28.332"/>
		<rect x="0" y="28.335" style="fill:#009543;" width="94.439" height="28.332"/>
		<path d="M0,0.004l54.955,28.332L0,56.667V0.004z"/>
		<rect x="0" y="23.265" width="94.439" height="10.14"/>
		<path style="fill:#FDCE12;" d="M0,4.03l47.145,24.305L0,52.64V4.03z"/>
		<rect x="0" y="26.844" style="fill:#FDCE12;" width="94.439" height="2.982"/>
		<path d="M0,7.385l40.637,20.95L0,49.285V7.385z"/>
		<path style="fill:#FDCE12;" d="M11.48,33.755c0,0,0,2.047,0,3.228c2.809,0,8.321-2.152,8.321-9.082s-5.879-8.216-7.638-8.216
			c-1.759,0-7.192,1.26-7.192,6.929s5.328,6.194,6.378,6.194s4.987-0.945,4.541-5.197c0,1.207-1.365,3.753-4.226,3.753
			c-2.861,0-4.646-2.126-4.646-4.226c0-2.1,1.732-4.908,4.751-4.908s5.223,2.677,5.223,5.381
			C16.992,30.317,14.866,33.755,11.48,33.755z"/>
		<g id="frond">
			<path style="fill:#FDCE12;stroke:#FDCE12;stroke-width:0.1574;" d="M9.02,29.552l0.167,0.108c0,0,1.329-3.032,4.902-5.187
				C13.636,24.719,11.244,25.91,9.02,29.552z"/>
			<path style="fill:#FDCE12;" d="M9.364,29.031c0,0-0.413-0.846-0.049-1.22c0.364-0.374,0.197,0.994,0.197,0.994l0.157-0.226
				c0,0-0.246-1.034,0.03-1.25c0.276-0.217,0.138,0.994,0.138,0.994l0.167-0.217c0,0-0.177-1.004,0.089-1.191
				c0.266-0.187,0.099,0.945,0.099,0.945l0.197-0.226c0,0-0.148-0.955,0.177-1.181c0.325-0.226,0.039,0.906,0.039,0.906l0.217-0.236
				c0,0-0.098-0.876,0.177-1.073c0.276-0.197,0.039,0.827,0.039,0.827l0.197-0.207c0,0-0.059-0.817,0.207-1.004
				c0.266-0.187,0.02,0.778,0.02,0.778l0.207-0.197c0,0-0.049-0.817,0.285-0.974c0.335-0.157-0.059,0.768-0.059,0.768l0.226-0.197
				c0,0,0.069-0.955,0.354-1.043c0.285-0.089-0.128,0.847-0.128,0.847l0.207-0.167c0,0,0.108-0.817,0.423-0.915
				c0.315-0.098-0.197,0.748-0.197,0.748l0.207-0.157c0,0,0.226-0.817,0.522-0.906c0.295-0.089-0.305,0.768-0.305,0.768l0.197-0.138
				c0,0,0.325-0.738,0.591-0.788c0.266-0.049-0.295,0.61-0.295,0.61l0.246-0.148c0,0,0.423-0.768,0.571-0.532
				c0.148,0.236-0.591,0.581-0.591,0.581l-0.246,0.138c0,0,0.896-0.423,1.004-0.207c0.108,0.217-1.23,0.354-1.23,0.354l-0.217,0.148
				c0,0,0.896-0.246,0.787-0.02c-0.108,0.226-0.994,0.177-0.994,0.177l-0.207,0.148c0,0,0.896-0.217,0.778-0.01
				c-0.118,0.207-0.994,0.187-0.994,0.187l-0.217,0.177c0,0,0.876-0.226,0.748,0.039c-0.128,0.266-1.122,0.256-1.122,0.256
				l-0.246,0.226c0,0,0.925-0.315,0.846-0.069c-0.079,0.246-1.132,0.374-1.132,0.374l-0.236,0.236c0,0,0.994-0.335,0.699-0.03
				c-0.295,0.305-1.014,0.384-1.014,0.384l-0.286,0.344c0,0,0.984-0.591,0.846-0.256c-0.138,0.335-1.102,0.561-1.102,0.561
				l-0.197,0.236c0,0,0.886-0.512,0.797-0.226c-0.089,0.285-1.034,0.59-1.034,0.59l-0.157,0.217c0,0,1.043-0.62,0.955-0.305
				c-0.089,0.315-1.083,0.541-1.083,0.541l-0.128,0.197c0,0,0.965-0.551,0.974-0.285c0.01,0.266-1.132,0.532-1.132,0.532
				L9.364,29.031z"/>
		</g>
		<g transform="translate(238.5) scale(-1,1)">
			<g id="frond_1_">
				<path style="fill:#FDCE12;stroke:#FDCE12;stroke-width:0.1574;" d="M14.69,29.552l-0.167,0.108c0,0-1.329-3.032-4.902-5.187
					C10.074,24.719,12.466,25.91,14.69,29.552z"/>
				<path style="fill:#FDCE12;" d="M14.346,29.031c0,0,0.413-0.846,0.049-1.22c-0.364-0.374-0.197,0.994-0.197,0.994l-0.157-0.226
					c0,0,0.246-1.034-0.03-1.25c-0.276-0.217-0.138,0.994-0.138,0.994l-0.167-0.217c0,0,0.177-1.004-0.089-1.191
					c-0.266-0.187-0.099,0.945-0.099,0.945l-0.197-0.226c0,0,0.148-0.955-0.177-1.181c-0.325-0.226-0.039,0.906-0.039,0.906
					l-0.217-0.236c0,0,0.098-0.876-0.177-1.073c-0.276-0.197-0.039,0.827-0.039,0.827l-0.197-0.207c0,0,0.059-0.817-0.207-1.004
					c-0.266-0.187-0.02,0.778-0.02,0.778l-0.207-0.197c0,0,0.049-0.817-0.285-0.974c-0.335-0.157,0.059,0.768,0.059,0.768
					l-0.226-0.197c0,0-0.069-0.955-0.354-1.043c-0.285-0.089,0.128,0.847,0.128,0.847l-0.207-0.167c0,0-0.108-0.817-0.423-0.915
					c-0.315-0.098,0.197,0.748,0.197,0.748l-0.207-0.157c0,0-0.226-0.817-0.522-0.906c-0.295-0.089,0.305,0.768,0.305,0.768
					l-0.197-0.138c0,0-0.325-0.738-0.591-0.788c-0.266-0.049,0.295,0.61,0.295,0.61l-0.246-0.148c0,0-0.423-0.768-0.571-0.532
					c-0.148,0.236,0.591,0.581,0.591,0.581l0.246,0.138c0,0-0.896-0.423-1.004-0.207c-0.108,0.217,1.23,0.354,1.23,0.354
					l0.217,0.148c0,0-0.896-0.246-0.787-0.02c0.108,0.226,0.994,0.177,0.994,0.177l0.207,0.148c0,0-0.896-0.217-0.778-0.01
					c0.118,0.207,0.994,0.187,0.994,0.187l0.217,0.177c0,0-0.876-0.226-0.748,0.039c0.128,0.266,1.122,0.256,1.122,0.256
					l0.246,0.226c0,0-0.925-0.315-0.846-0.069c0.079,0.246,1.132,0.374,1.132,0.374l0.236,0.236c0,0-0.994-0.335-0.699-0.03
					c0.295,0.305,1.014,0.384,1.014,0.384l0.286,0.344c0,0-0.984-0.591-0.846-0.256c0.138,0.335,1.102,0.561,1.102,0.561
					l0.197,0.236c0,0-0.886-0.512-0.797-0.226c0.089,0.285,1.034,0.59,1.034,0.59l0.157,0.217c0,0-1.043-0.62-0.955-0.305
					c0.089,0.315,1.083,0.541,1.083,0.541l0.128,0.197c0,0-0.965-0.551-0.974-0.285c-0.01,0.266,1.132,0.532,1.132,0.532
					L14.346,29.031z"/>
			</g>
		</g>
	</g>
</g>
</svg>
