<?xml version="1.0" encoding="iso-8859-1"?>
<!-- Generator: Adobe Illustrator 18.1.1, SVG Export Plug-In . SVG Version: 6.00 Build 0)  -->
<svg version="1.1" id="Layer_98" xmlns="http://www.w3.org/2000/svg" xmlns:xlink="http://www.w3.org/1999/xlink" x="0px" y="0px"
	 viewBox="0 0 56.692 56.692" style="enable-background:new 0 0 56.692 56.692;" xml:space="preserve">
<g>
	<defs>
		<circle id="SVGID_1_" cx="28.346" cy="28.347" r="28.347"/>
	</defs>
	<clipPath id="SVGID_2_">
		<use xlink:href="#SVGID_1_"  style="overflow:visible;"/>
	</clipPath>
	<rect x="-14.173" y="0.002" style="clip-path:url(#SVGID_2_);fill:#CE1126;" width="85.038" height="56.691"/>
	<rect x="-14.173" y="0.002" style="clip-path:url(#SVGID_2_);fill:#002B7F;" width="42.518" height="28.346"/>
	<g style="clip-path:url(#SVGID_2_);">
		<polygon style="fill:#FFFFFF;" points="7.119,19.716 8.066,22.517 11.137,22.517 8.648,24.337 9.568,27.116 7.121,25.465 
			4.67,27.116 5.59,24.337 3.121,22.517 6.191,22.517 		"/>
		<polygon style="fill:#FFFFFF;" points="7.131,1.218 7.873,3.411 10.273,3.411 8.327,4.834 9.047,7.007 7.133,5.716 5.215,7.007 
			5.934,4.834 4.002,3.411 6.406,3.411 		"/>
		<polygon style="fill:#FFFFFF;" points="15.978,7.171 16.666,9.202 18.891,9.202 17.086,10.521 17.754,12.536 15.98,11.339 
			14.203,12.536 14.869,10.521 13.08,9.202 15.307,9.202 		"/>
		<polygon style="fill:#FFFFFF;" points="-1.559,8.31 -0.811,10.523 1.613,10.523 -0.352,11.961 0.375,14.154 -1.557,12.851 
			-3.494,14.154 -2.768,11.961 -4.717,10.523 -2.291,10.523 		"/>
		<polygon style="fill:#FFFFFF;" points="11.455,14.396 11.926,15.783 13.441,15.783 12.213,16.683 12.666,18.057 11.455,17.241 
			10.244,18.057 10.699,16.683 9.478,15.783 10.998,15.783 		"/>
	</g>
</g>
</svg>
