<?xml version="1.0" encoding="iso-8859-1"?>
<!-- Generator: Adobe Illustrator 18.1.1, SVG Export Plug-In . SVG Version: 6.00 Build 0)  -->
<svg version="1.1" id="Layer_179" xmlns="http://www.w3.org/2000/svg" xmlns:xlink="http://www.w3.org/1999/xlink" x="0px" y="0px"
	 viewBox="0 0 56.692 56.692" style="enable-background:new 0 0 56.692 56.692;" xml:space="preserve">
<g>
	<defs>
		<circle id="SVGID_1_" cx="28.346" cy="28.347" r="28.346"/>
	</defs>
	<clipPath id="SVGID_2_">
		<use xlink:href="#SVGID_1_"  style="overflow:visible;"/>
	</clipPath>
	<g style="clip-path:url(#SVGID_2_);">
		<rect x="-28.347" y="0" style="fill:#198A00;" width="85.039" height="56.692"/>
		<rect x="46.568" y="20.247" style="fill:#EF7D00;" width="10.124" height="36.445"/>
		<rect x="36.445" y="20.247" width="10.124" height="36.445"/>
		<rect x="26.321" y="20.247" style="fill:#DE2010;" width="10.124" height="36.445"/>
		<g>
			<path style="fill:#EF7D00;stroke:#000000;stroke-width:0.0911;stroke-linecap:round;stroke-linejoin:round;" d="M49.258,6.817
				c0,0,3.483-1.365,3.82-1.646c0.153,0.169-1.396,1.886-4.403,2.519c2.731-0.591,5.063-2.448,5.538-2.392
				c0.138,0.028,0.107,1.815-6.152,3.363c4.326-1.041,6.842-2.955,6.812-2.744c0.031,0.042-0.43,1.506-4.219,2.645
				c1.059-0.225,3.927-1.829,3.897-1.52c0.092,0.127-2.777,3.504-7.962,2.406c4.142,0.985,6.827-1.393,7.211-1.351
				c0.077,0.014-0.767,2.083-5.983,2.209c2.501-0.239,1.78-0.014,1.78-0.014s-1.473,1.055-3.252,0.338
				c1.396,0.352,1.549,0.366,1.58,0.478c-0.092,0.141-1.243,0.352-2.347-0.197c0.89,0.338,1.688,0.394,1.703,0.521
				c-0.015,0.042-0.583,0.338-1.089,0.127c-0.506-0.211-5.17-2.842-5.17-2.842l7.947-1.998L49.258,6.817z"/>
			<path style="fill:#EF7D00;stroke:#000000;stroke-width:0.0911;stroke-linecap:round;stroke-linejoin:round;" d="M39.915,13.934
				c-0.699,0-0.718,0.57-0.718,0.57s-0.058,0.041-0.019,0.318c0.115-0.188,0.173-0.247,0.173-0.247
				c0.077,0.012,0.397,0.1,0.904-0.265c-0.462,0.441-0.186,0.606-0.186,0.606s-0.109,0.347,0.244,0.418
				c-0.109-0.141-0.045-0.265-0.045-0.265s0.494-0.047,0.462-0.6c0.019,0.5,0.314,0.623,0.314,0.623s0,0.276,0.321,0.3
				c-0.173-0.141-0.135-0.359-0.135-0.359s0.417-0.276,0.064-0.747c0.212-0.112,0.385-0.423,0.385-0.423s-0.288-0.112-0.423-0.206
				c-0.064-0.124-0.006-0.8-0.006-0.8l-0.173-0.876l-0.494,1.364C40.601,13.152,40.614,13.934,39.915,13.934z"/>
			<path style="fill:#EF7D00;stroke:#000000;stroke-width:0.0911;stroke-linecap:round;stroke-linejoin:round;" d="M43.367,11.967
				c0.015,0.014,0.522,0.535,1.013,0.507c0.184-0.141-0.384-0.45-0.384-0.521c0.199,0.169,1.043,0.83,1.58,0.591
				c0.215-0.281-0.384-0.239-1.043-0.999c0.46,0.281,1.611,0.901,2.148,0.661c0.23-0.225-1.197-0.929-1.672-1.478l-1.227-0.577
				l-1.672,1.252L43.367,11.967z"/>
			<path style="fill:#EF7D00;stroke:#000000;stroke-width:0.0911;stroke-linecap:round;stroke-linejoin:round;" d="M41.48,7.689
				c0,0,0.568-0.31,2.838-0.155C44.564,7.562,45.868,7.126,46.282,7c0.66-0.113,2.761-0.535,3.329-0.929
				c0.399-0.042-0.107,0.675-0.614,0.844c-0.537,0.225-2.485,0.844-3.176,0.76c0.828,0.014,0.368,0.633-1.013,0.338
				c0.66,0.338,0.414,0.394,0.414,0.394s-1.166,0.056-1.473-0.183c0.782,0.267,0.46,0.366,0.46,0.366s-0.798,0.07-1.166-0.084
				c0.568,0.155,0.276,0.253,0.276,0.253s-0.46,0.07-0.844-0.056C42.094,8.576,41.511,7.689,41.48,7.689z"/>
			<path style="fill:#EF7D00;stroke:#000000;stroke-width:0.0911;stroke-linecap:round;stroke-linejoin:round;" d="M42.39,12.258
				l0.083,1.376c0,0-0.045,0.071-0.083,0.112c-0.038,0.041-1.064-0.147-0.923,0.57c0,0.294,0.006,0.37,0.224,0.535
				c-0.058-0.194-0.038-0.329-0.038-0.329s0.288,0.159,0.571-0.276c-0.192,0.429-0.058,0.582-0.013,0.594
				c0.045,0.076-0.077,0.423,0.308,0.417c-0.147-0.129-0.077-0.318-0.077-0.318s0.404-0.059,0.263-0.729
				c0.147-0.135,0.205-0.006,0.205-0.006s0.045,0.4,0.397,0.318c0.16,0.082-0.026,0.3-0.026,0.3s0.256,0.006,0.333-0.194
				c0.077-0.2,0.167-0.559-0.257-0.706c-0.051-0.141,0.167-0.153,0.167-0.153s0.269,0.082,0.346,0.206
				c0.077,0.123,0.051-0.323-0.282-0.37c-0.41-0.012-0.436-0.088-0.436-0.106c0-0.018-0.071-1-0.103-1.282L42.39,12.258z"/>
			<path style="fill:#EF7D00;stroke:#000000;stroke-width:0.0911;stroke-linecap:round;stroke-linejoin:round;" d="M43.817,13.431
				c0.005-0.063-0.7-0.934-0.521-1.046c0.179,0.034,0.472,0.43,0.71,0.301c-0.072-0.154-0.284-0.067-0.525-0.463
				c-0.241-0.447-0.276-1.117-1.12-1.849c0.546,0.774,1.785,1.228,1.838,1.002s-1.091-1.079-1.033-1.285
				c0.227,0.422,1.376,1.364,2.222,1.286c0.058-0.181-0.693-0.547-0.886-0.889c-0.54-0.333-1.987-1.477-2.016-1.742
				c-0.526-0.704-0.855-0.917-1.008-0.998c-0.059-0.064-0.074-0.125-0.086-0.164c-0.327-0.706,0.106-0.936,0.359-0.97
				c0.208-0.021,0.269,0.007,0.419-0.059c-0.178-0.064-0.355-0.123-0.533-0.187c0.232,0.156,0.823,0.019,0.695,0.467
				c0.259-0.09,0.811-0.693-0.625-0.829c-0.467-0.492-2.39-0.775-2.871,1.372c0.038,0.03,0.059,0.055,0.181,0.139
				c-0.607-0.27-2.244-0.478-2.834-0.565c-1.594-0.422-3.249-1.438-3.409-1.313c-0.213,0.087,0.963,1.09,0.902,1.112
				c-1.02-0.545-1.951-0.932-2.818-1.283c-0.61-0.209-1.22-0.696-1.288-0.603c-0.224,0.426,0.978,1.498,1.201,1.624
				c0.224,0.121,1.982,0.869,1.956,0.878c-2.649-1.103-3.093-1.303-3.226-1.43c-0.233-0.048-0.802-0.752-0.961-0.707
				c-0.087,0.078,0.087,1.191,1.351,1.69c0.206,0.138,2.709,0.961,2.685,1.026c-0.006,0.016-2.867-1.083-2.978-1.122
				c-0.552-0.198-1.228-0.894-1.355-0.816c-0.121,0.071,0.312,0.824,0.869,1.06c0.292,0.118,1.413,0.627,2.422,0.951
				c0.064,0.021-1.815-0.654-2.718-1c-0.41-0.209-0.603-0.468-0.665-0.413c-0.092,0.056,0.149,1.168,3.052,1.795
				c0.076,0.03,1.022-0.205,0.975-0.174c-0.012,0.008-0.939,0.193-1.029,0.187c-0.08-0.011-0.588,0.055-0.597,0.079
				c-0.031,0.075,0.184,0.473,1.683,0.39c0.192-0.011,1.232-0.347,1.144-0.275c-0.044,0.036-1.416,0.445-1.521,0.453
				c-0.091,0.012-0.573,0.058-0.591,0.105c-0.022,0.064,0.357,0.347,1.162,0.393c0.713,0.035,2.067-0.399,2.04-0.371
				c-0.027,0.028-1.306,0.43-1.339,0.454c-0.046,0.024-0.514,0.047-0.531,0.08c-0.038,0.082,0.675,0.694,2.785,0.041
				c-0.212,0.263-1.235,0.442-1.233,0.49c-0.005,0.034,0.225,0.238,0.583,0.311c0.179,0.036,0.424,0.029,0.647-0.003
				c0.402-0.074,0.825-0.219,1.363-0.675c0.064,0.143-1.343,0.796-1.277,0.859c0.305,0.26,1.319-0.033,1.386-0.067
				c0.066-0.034,1.952-1.01,1.946-1.122c0.029,0.145-2.432,1.371-2.405,1.421c0.158,0.231,0.999-0.012,1.039-0.033
				c0.04-0.021,1.073-0.533,1.101-0.548c0.028-0.015-1.214,0.667-1.103,0.77c-0.053,0.443,1.94-0.306,2.096-0.399
				c0.078-0.047-0.957,0.418-0.96,0.638c0.333,0.517,1.401,0.353,1.566,0.239c0.082-0.057-0.097,0.384-0.039,0.344
				c0.02-0.008,0.232-0.238,0.314-0.405c-0.026,0.144-0.143,0.372-0.211,0.633c-0.068,0.261-0.088,0.556-0.182,0.869
				c-0.021,0.138,0.658-0.269,0.559-1.24c0.058,0.505-0.215,1.45-0.143,1.499c0.143,0.098,0.537-0.471,0.577-0.855
				c0.117,0.194,0.363,0.6,0.575,0.693c-0.023-0.294,0.004-0.28-0.091-0.569c0.055-0.384,0.063-0.914,0.076-1.514
				c0.575,1.01,0.804,1.437,0.644,2.21c0.171,0.065,0.444-0.54,0.422-0.852C42.855,13.326,43.802,13.456,43.817,13.431z"/>
			<path style="fill:#EF7D00;stroke:#000000;stroke-width:0.0911;stroke-linecap:round;stroke-linejoin:round;" d="M34.241,7.017
				c0,0-0.391,0.271-0.878,0.255c0.122,0.447,1.131,0.104,1.131,0.104s-0.487,0.495-0.835,0.574c0.209,0.16,1.087,0.104,1.235,0.024
				c0.148-0.08,0.409-0.391,0.409-0.391s-0.904,0.957-1.035,0.949c-0.017,0.112,0.948,0.072,1.148-0.096
				c0.2-0.168,0.704-0.415,0.704-0.415s-1.322,0.846-1.383,0.846c0.496,0.12,1.487-0.144,2.122-0.503
				c-0.939,0.574-1.026,0.678-1.505,0.869c0.426,0.088,0.644,0.351,2.087-0.223c0.826-0.359,1.296-1.013,1.296-1.013
				c-0.513,0.63-1.322,1.165-2.218,1.691c-0.052,0.096,0.957,0.487,2.244-0.742"/>
			<path style="fill:#EF7D00;stroke:#000000;stroke-width:0.0911;stroke-linecap:round;stroke-linejoin:round;" d="M41.233,9.681
				c0,0,0.087,0.375,0.435,0.662c0.348,0.287,0.374,0.566,0.374,0.566"/>
			<path style="fill:#EF7D00;stroke:#000000;stroke-width:0.0911;stroke-linecap:round;stroke-linejoin:round;" d="M41.059,7.241
				c0,0,0.122,0.335,0.478,0.55c0.365,0.215,0.913,0.893,0.957,1.013c0.042,0.145,0.252,1.189,0.235,1.3"/>
			<path style="fill:#EF7D00;stroke:#000000;stroke-width:0.0911;stroke-linecap:round;stroke-linejoin:round;" d="M38.841,7.759
				c0.026,0.128-0.513,0.774,0.226,1.531c-0.67,0.75-0.67,0.846-0.67,0.846s0.374,0.191,1.044-0.335
				c1.104,1.244,0.736,1.814,0.736,1.814"/>
			<path style="fill:#EF7D00;stroke:#000000;stroke-width:0.0911;stroke-linecap:round;stroke-linejoin:round;" d="M40.09,10.736
				c0,0-0.102-0.134,0.08-0.633c0.163,0.18,0.345,0.219,0.425,0.292c0.08,0.073,0.913,0.184,0.966,0.695"/>
			<path style="fill:#EF7D00;stroke:#000000;stroke-width:0.0911;stroke-linecap:round;stroke-linejoin:round;" d="M41.07,6.051
				c0-0.038-0.168-0.368-0.794,0.045C40.611,6.115,40.943,6.292,41.07,6.051z"/>
			<path style="fill:#EF7D00;stroke:#000000;stroke-width:0.0911;stroke-linecap:round;stroke-linejoin:round;" d="M47.049,7.562
				c0.031,0.014,1.872,0.38,2.485,0.197c-0.782,0.957-2.347,0.31-2.347,0.31c0.767,0.211,0.798,0.197,1.043,0.394
				c0.077,0.183-1.411,0.098-1.902-0.155c1.365,0.394,1.396,0.366,1.442,0.521c0.061,0.211-2.24-0.056-2.439-0.338
				c0.614,0.436,0.951,0.521,1.289,0.718c-0.414,0.169-1.181,0.338-2.593-0.577c1.856,1.548,3.529,1.449,3.789,1.731
				c-0.644,0.872-3.145-0.521-4.296-1.224c-1.151-0.704,2.516,1.703,2.854,1.66c-0.169,0.239-1.381,0.028-1.458-0.084"/>
			<path style="fill:#EF7D00;stroke:#000000;stroke-width:0.0911;stroke-linecap:round;stroke-linejoin:round;" d="M47.524,9.181
				c-0.215,0.028-0.859,0.028-0.951,0.014"/>
			<path style="fill:#EF7D00;stroke:#000000;stroke-width:0.0911;stroke-linecap:round;stroke-linejoin:round;" d="M33.701,6.762
				c0,0,1.4,0.678,1.991,0.63c-0.157,0.136-0.391,0.191-0.391,0.191c0.148,0.056,0.557,0.255,1.174,0.128
				c-0.148,0.136-0.339,0.287-0.339,0.287s0.531,0.183,1.131-0.104c-0.183,0.207-0.287,0.359-0.287,0.359l0.417,0.024"/>
		</g>
	</g>
</g>
</svg>
