<?xml version="1.0" encoding="utf-8"?>
<!-- Generator: Adobe Illustrator 19.0.0, SVG Export Plug-In . SVG Version: 6.00 Build 0)  -->
<svg version="1.1" id="Layer_179" xmlns="http://www.w3.org/2000/svg" xmlns:xlink="http://www.w3.org/1999/xlink" x="0px" y="0px"
	 viewBox="-451 252.3 56.7 56.7" style="enable-background:new -451 252.3 56.7 56.7;" xml:space="preserve">
<style type="text/css">
	.st0{clip-path:url(#SVGID_2_);fill:#319208;}
	.st1{clip-path:url(#SVGID_2_);fill:#FFD200;}
	.st2{clip-path:url(#SVGID_2_);fill:#DE2010;}
	.st3{clip-path:url(#SVGID_2_);}
	.st4{clip-path:url(#SVGID_2_);fill:#FFFFFF;}
	.st5{clip-path:url(#SVGID_2_);fill:#FFC618;}
	.st6{clip-path:url(#SVGID_2_);fill:none;stroke:#000000;stroke-width:0.2117;}
	.st7{clip-path:url(#SVGID_2_);fill:none;stroke:#000000;}
</style>
<g>
	<defs>
		<circle id="SVGID_1_" cx="-422.7" cy="280.7" r="28.3"/>
	</defs>
	<clipPath id="SVGID_2_">
		<use xlink:href="#SVGID_1_"  style="overflow:visible;"/>
	</clipPath>
	<rect id="green_stripes" x="-451" y="252.3" class="st0" width="113.4" height="56.7"/>
	<rect id="yellow_stripes" x="-451" y="260.4" class="st1" width="113.4" height="40.5"/>
	<rect id="red_stripes" x="-451" y="268.5" class="st2" width="113.4" height="24.3"/>
	<rect id="black_stripe" x="-451" y="276.6" class="st3" width="113.4" height="8.1"/>
	<path class="st3" d="M-448.9,252.3l37.8,28.3l-37.8,28.3h-2.1v-56.7H-448.9z"/>
	<path class="st4" d="M-451,252.3l37.8,28.3L-451,309"/>
	<polygon id="triangle_ur" class="st2" points="-435.7,266.3 -442.1,279.2 -432.4,283.9 	"/>
	<polygon id="triangle_ur_1_" class="st2" points="-435.7,266.3 -429.3,279.2 -439,283.9 	"/>
	<polygon id="triangle2_ur" class="st2" points="-435.7,266.3 -440.5,279.8 -430.4,283.4 	"/>
	<polygon id="triangle2_ur_1_" class="st2" points="-435.7,266.3 -430.9,279.8 -441.1,283.4 	"/>
	<polygon id="triangle_ur_2_" class="st2" points="-422,276.2 -436.3,274.1 -437.8,284.8 	"/>
	<polygon id="triangle_ur_3_" class="st2" points="-449.4,276.2 -435.1,274.1 -433.6,284.8 	"/>
	<polygon id="triangle2_ur_2_" class="st2" points="-422,276.2 -436.4,275.8 -436.7,286.6 	"/>
	<polygon id="triangle2_ur_3_" class="st2" points="-449.4,276.2 -435,275.8 -434.7,286.6 	"/>
	<polygon id="triangle_l" class="st2" points="-435.7,268.3 -440.8,279.6 -435.1,282.1 	"/>
	<polygon id="triangle_l_1_" class="st2" points="-435.7,268.3 -430.6,279.6 -436.3,282.1 	"/>
	<polygon id="triangle_l_2_" class="st2" points="-428.4,290.7 -431,278.6 -437,279.8 	"/>
	<polygon id="triangle_l_3_" class="st2" points="-428.4,290.7 -439.2,284.5 -436.1,279.2 	"/>
	<polygon id="triangle_l_4_" class="st2" points="-443,290.7 -432.2,284.5 -435.3,279.2 	"/>
	<polygon id="triangle_l_5_" class="st2" points="-443,290.7 -440.4,278.6 -434.4,279.8 	"/>
	<path class="st5" d="M-438.1,277.1c0.9,1.9,1.1,2.1,3.3,2.8c2.2,0.8,8.5,1.5,9.1,1.6c-0.4-0.4-7.5-5.6-8.9-6.7s-1.9-1.5-1.9-1.5
		s-1.3-2.4-1.8-3c-0.5-0.7-1.3-1.7-2.4-1.7c-1.1,0-1.8,0.6-2.1,1.8c-0.2,0-1.1,0.6-1.1,1.2c0.3,0,2-0.5,2.6,1.4
		c0.6,1.9,0.6,5.1,0,6.6c-0.6,1.6-1.5,2.7-1.5,4.1c0,0.2,0.1,0.6,0.4,0.6c0.1,0.6,1,4.9,1,4.9h12.7l2-7.8"/>
	<path class="st6" d="M-438.1,277.1c0.9,1.9,1.1,2.1,3.3,2.8c2.2,0.8,8.5,1.5,9.1,1.6c-0.4-0.4-7.5-5.6-8.9-6.7s-1.9-1.5-1.9-1.5
		s-1.3-2.4-1.8-3c-0.5-0.7-1.3-1.7-2.4-1.7c-1.1,0-1.8,0.6-2.1,1.8c-0.2,0-1.1,0.6-1.1,1.2c0.3,0,2-0.5,2.6,1.4
		c0.6,1.9,0.6,5.1,0,6.6c-0.6,1.6-1.5,2.7-1.5,4.1c0,0.2,0.1,0.6,0.4,0.6c0.1,0.6,1,4.9,1,4.9h12.7l2-7.8"/>
	<path class="st6" d="M-442.3,284.2c0,0,2.7-0.2,3.4-0.2c0.7,0,7.5,0,11.3,0.9"/>
	<path class="st6" d="M-441.3,284.2c0,0-0.3-0.3-0.1-1c0.2-0.7,2.1-2.3,2.1-4.7"/>
	<path class="st6" d="M-439.7,284.1c0,0-0.2-1.1,2.2-2c0.7-0.2,2.6-1.3,2.7-2.2"/>
	<path class="st6" d="M-437.7,282.2c0,0,6,0,10.7,1"/>
	<path class="st6" d="M-436.2,281.5c0,0,2,0.1,2.4,0c0.3-0.1,0.9-0.3,1.2-1"/>
	<path class="st6" d="M-435,281.5c0,0,1.1-0.6,1.3-1.3"/>
	<path class="st6" d="M-438.3,289.2c0,0-0.5-3.2-0.6-5.1l1.2,1.2l1.3-1.1l1.1,1.2l1.3-1.1l1.1,1.2l1.3-1.1l1,1.2l1.3-0.9l1.5,1.4"/>
	<path class="st6" d="M-428.1,287.1c-4.5-0.6-10.6-0.6-10.6-0.6"/>
	<path class="st6" d="M-440.8,275.3c0,0,3.7-1.8,4.3-2"/>
	<polyline class="st7" points="-438.8,285.4 -437.6,286.5 -436.4,285.4 -435.3,286.6 -434.1,285.5 -433,286.7 -431.7,285.6 
		-430.6,286.8 -429.4,285.9 -428.1,287 	"/>
	<circle class="st7" cx="-435.3" cy="283.2" r="0.5"/>
	<circle class="st7" cx="-433.2" cy="283.4" r="0.5"/>
	<circle class="st7" cx="-440.9" cy="270.1" r="0.4"/>
</g>
</svg>
